<svg width="178" height="24" viewBox="0 0 178 24" fill="none" xmlns="http://www.w3.org/2000/svg">
<path fill-rule="evenodd" clip-rule="evenodd" d="M33.1147 7.33016C33.0385 6.49286 32.6998 5.84206 32.0985 5.37774C31.5048 4.90581 30.656 4.66984 29.5523 4.66984C28.8216 4.66984 28.2127 4.76499 27.7255 4.95528C27.2383 5.14558 26.873 5.40818 26.6294 5.7431C26.3858 6.07041 26.2602 6.44719 26.2526 6.87346C26.2374 7.2236 26.3059 7.53187 26.4581 7.79829C26.618 8.0647 26.8463 8.30067 27.1432 8.50619C27.4477 8.70409 27.813 8.87916 28.2393 9.0314C28.6656 9.18364 29.1451 9.31684 29.6779 9.43102L31.6874 9.88773C32.8444 10.1389 33.8644 10.4738 34.7474 10.8925C35.638 11.3111 36.3839 11.8097 36.9853 12.3882C37.5942 12.9667 38.0547 13.6327 38.3668 14.3863C38.6789 15.1399 38.8387 15.9848 38.8463 16.921C38.8387 18.3977 38.4657 19.6651 37.7274 20.7231C36.9891 21.7812 35.9272 22.5918 34.5419 23.1551C33.1641 23.7184 31.501 24 29.5523 24C27.5961 24 25.8911 23.7069 24.4372 23.1208C22.9833 22.5347 21.853 21.6441 21.0461 20.4491C20.2393 19.254 19.8244 17.7431 19.8016 15.9163H25.2136C25.2593 16.6698 25.461 17.2978 25.8187 17.8002C26.1765 18.3026 26.6675 18.6832 27.2916 18.942C27.9234 19.2008 28.6541 19.3302 29.4838 19.3302C30.245 19.3302 30.892 19.2274 31.4248 19.0219C31.9653 18.8164 32.3801 18.5309 32.6694 18.1656C32.9586 17.8002 33.107 17.3815 33.1147 16.9096C33.107 16.4681 32.97 16.0913 32.7036 15.7793C32.4372 15.4596 32.0262 15.1855 31.4705 14.9572C30.9225 14.7212 30.2222 14.5043 29.3696 14.3064L26.9263 13.7355C24.9015 13.2712 23.3068 12.5214 22.1422 11.4862C20.9776 10.4434 20.3991 9.03521 20.4067 7.26166C20.3991 5.81541 20.7873 4.54805 21.5714 3.45956C22.3554 2.37107 23.4401 1.52236 24.8254 0.913417C26.2108 0.304473 27.7902 0 29.5637 0C31.3754 0 32.9472 0.308278 34.2793 0.924833C35.6189 1.53378 36.6579 2.39011 37.3963 3.49382C38.1346 4.59753 38.5114 5.87631 38.5266 7.33016H33.1147ZM53.324 5.37774C53.9253 5.84206 54.264 6.49286 54.3402 7.33016H59.7522C59.7369 5.87631 59.3601 4.59753 58.6218 3.49382C57.8835 2.39011 56.8444 1.53378 55.5048 0.924833C54.1727 0.308278 52.6009 0 50.7893 0C49.0157 0 47.4363 0.304473 46.0509 0.913417C44.6656 1.52236 43.5809 2.37107 42.7969 3.45956C42.0128 4.54805 41.6246 5.81541 41.6323 7.26166C41.6246 9.03521 42.2031 10.4434 43.3677 11.4862C44.5323 12.5214 46.127 13.2712 48.1518 13.7355L50.5952 14.3064C51.4477 14.5043 52.148 14.7212 52.696 14.9572C53.2517 15.1855 53.6627 15.4596 53.9291 15.7793C54.1955 16.0913 54.3325 16.4681 54.3402 16.9096C54.3325 17.3815 54.1841 17.8002 53.8949 18.1656C53.6056 18.5309 53.1908 18.8164 52.6503 19.0219C52.1175 19.2274 51.4705 19.3302 50.7093 19.3302C49.8796 19.3302 49.1489 19.2008 48.5171 18.942C47.893 18.6832 47.402 18.3026 47.0443 17.8002C46.6865 17.2978 46.4848 16.6698 46.4391 15.9163H41.0271C41.05 17.7431 41.4648 19.254 42.2717 20.4491C43.0785 21.6441 44.2089 22.5347 45.6627 23.1208C47.1166 23.7069 48.8216 24 50.7778 24C52.7265 24 54.3896 23.7184 55.7674 23.1551C57.1527 22.5918 58.2146 21.7812 58.9529 20.7231C59.6913 19.6651 60.0642 18.3977 60.0718 16.921C60.0642 15.9848 59.9044 15.1399 59.5923 14.3863C59.2802 13.6327 58.8197 12.9667 58.2108 12.3882C57.6094 11.8097 56.8635 11.3111 55.9729 10.8925C55.0899 10.4738 54.0699 10.1389 52.9129 9.88773L50.9034 9.43102C50.3706 9.31684 49.8911 9.18364 49.4648 9.0314C49.0385 8.87916 48.6732 8.70409 48.3687 8.50619C48.0718 8.30067 47.8435 8.0647 47.6836 7.79829C47.5314 7.53187 47.4629 7.2236 47.4781 6.87346C47.4857 6.44719 47.6113 6.07041 47.8549 5.7431C48.0985 5.40818 48.4638 5.14558 48.951 4.95528C49.4382 4.76499 50.0471 4.66984 50.7778 4.66984C51.8815 4.66984 52.7303 4.90581 53.324 5.37774ZM62.9263 23.7031V0.319704H79.2307V4.90962H68.578V9.70505H78.3973V14.3064H68.578V19.1132H79.2307V23.7031H62.9263ZM102.671 23.7031V0.319704H97.0309V13.7926H96.8368L87.6342 0.319704H82.7702V23.7031H88.422V10.2074H88.5704L97.8758 23.7031H102.671ZM105.46 4.90962V0.319704H125.224V4.90962H118.134V23.7031H112.562V4.90962H105.46ZM133.636 23.7031V0.319704H127.984V23.7031H133.636ZM142.242 23.7031H136.168L144.058 0.319704H151.582L159.472 23.7031H153.397L151.856 18.7935H143.78L142.242 23.7031ZM147.905 6.21124L150.508 14.5005H145.126L147.723 6.21124H147.905ZM161.989 23.7031V0.319704H167.641V19.1132H177.369V23.7031H161.989ZM0.631287 0.319704V23.7031H16.9358V19.1132H6.28305V14.3064H16.1023V9.70505H6.28305V4.90962H16.9358V0.319704H0.631287Z" fill="#93A6BD"/>
</svg>
