<svg width="40" height="40" viewBox="0 0 40 40" fill="none" xmlns="http://www.w3.org/2000/svg">
<g clip-path="url(#clip0_16835_51953)">
<path d="M34.7677 12.1199V12.7187L34.1664 28.2883C34.0955 31.3222 31.8781 33.8818 28.875 34.3963L31.1599 38.3486C35.2239 37.7774 38.3047 34.4073 38.4957 30.3243L39.2172 9.96406V9.36523L34.7677 12.1199Z" fill="white"/>
<path d="M28.274 34.5164L13.843 35.3548C10.3649 35.5606 7.36538 32.9468 7.10856 29.4862L5.78572 12.2399C5.56756 10.4033 6.18037 8.56502 7.45821 7.223C8.73605 5.88097 10.5467 5.17399 12.3999 5.2935L28.755 6.01209C32.0182 6.24889 34.5948 8.86633 34.768 12.1202L39.2175 9.36554C39.155 4.94003 35.6025 1.3493 31.1602 1.22145L9.39346 0.143555H8.67191C6.36252 0.234968 4.189 1.25486 2.64789 2.97022C1.10679 4.68558 0.329767 6.94987 0.494352 9.24578L2.29823 31.7618C2.61974 36.3477 6.58953 39.8205 11.1973 39.5466L30.5589 38.3489H31.1602L28.8753 34.3967L28.274 34.5164Z" fill="white"/>
<path d="M16.6091 15.2337C17.871 15.2337 18.894 14.2149 18.894 12.9582C18.894 11.7014 17.871 10.6826 16.6091 10.6826C15.3472 10.6826 14.3242 11.7014 14.3242 12.9582C14.3242 14.2149 15.3472 15.2337 16.6091 15.2337Z" fill="white"/>
<path d="M24.5466 15.2337C25.8085 15.2337 26.8315 14.2149 26.8315 12.9582C26.8315 11.7014 25.8085 10.6826 24.5466 10.6826C23.2847 10.6826 22.2617 11.7014 22.2617 12.9582C22.2617 14.2149 23.2847 15.2337 24.5466 15.2337Z" fill="white"/>
<path d="M16.6091 22.3001C17.871 22.3001 18.894 21.2813 18.894 20.0246C18.894 18.7678 17.871 17.749 16.6091 17.749C15.3472 17.749 14.3242 18.7678 14.3242 20.0246C14.3242 21.2813 15.3472 22.3001 16.6091 22.3001Z" fill="white"/>
<path d="M24.5466 22.3001C25.8085 22.3001 26.8315 21.2813 26.8315 20.0246C26.8315 18.7678 25.8085 17.749 24.5466 17.749C23.2847 17.749 22.2617 18.7678 22.2617 20.0246C22.2617 21.2813 23.2847 22.3001 24.5466 22.3001Z" fill="white"/>
<path d="M16.6091 29.3656C17.871 29.3656 18.894 28.3468 18.894 27.09C18.894 25.8333 17.871 24.8145 16.6091 24.8145C15.3472 24.8145 14.3242 25.8333 14.3242 27.09C14.3242 28.3468 15.3472 29.3656 16.6091 29.3656Z" fill="white"/>
<path d="M24.5466 29.3656C25.8085 29.3656 26.8315 28.3468 26.8315 27.09C26.8315 25.8333 25.8085 24.8145 24.5466 24.8145C23.2847 24.8145 22.2617 25.8333 22.2617 27.09C22.2617 28.3468 23.2847 29.3656 24.5466 29.3656Z" fill="white"/>
</g>
<defs>
<clipPath id="clip0_16835_51953">
<rect width="40" height="40" fill="white"/>
</clipPath>
</defs>
</svg>
