<svg width="280" height="280" viewBox="0 0 280 280" fill="none" xmlns="http://www.w3.org/2000/svg">
<rect width="280" height="280" fill="white"/>
<path d="M119.87 48.7107C132.82 53.2907 146.95 53.2907 159.89 48.7107" stroke="#8F97A4" stroke-width="2" stroke-miterlimit="10"/>
<path d="M139.9 238.231C119.85 238.201 99.79 236.441 79.97 232.941L79.38 232.841C79.38 232.841 81.43 199.041 81.08 157.321C80.92 138.301 80 119.301 78.46 100.341" stroke="#8F97A4" stroke-width="2" stroke-miterlimit="10"/>
<path d="M139.9 238.231C159.95 238.201 180.01 236.441 199.83 232.941L200.42 232.841C200.42 232.841 198.37 199.041 198.72 157.321C198.88 138.301 199.8 119.301 201.34 100.341" stroke="#8F97A4" stroke-width="2" stroke-miterlimit="10"/>
<path d="M199.7 125.111L212.11 141.591C212.11 141.591 236.11 136.231 250.79 110.571L214.66 62.3708C207.11 52.2908 195.25 46.3608 182.65 46.3608H178.86C173.96 46.3608 169.17 45.0308 164.98 42.5408C163.93 41.9108 162.65 41.8408 161.5 42.2808C147.6 47.6508 132.19 47.6508 118.28 42.2808C117.13 41.8408 115.85 41.9108 114.8 42.5408C110.61 45.0408 105.82 46.3608 100.92 46.3608H97.13C84.54 46.3608 72.68 52.2908 65.12 62.3708L29 110.571C43.68 136.231 67.68 141.591 67.68 141.591L80.09 125.111" stroke="#8F97A4" stroke-width="2" stroke-miterlimit="10"/>
<path d="M139.9 229.231C119.85 229.201 99.7899 227.441 79.9699 223.941L79.3799 223.841" stroke="#8F97A4" stroke-width="2" stroke-miterlimit="10"/>
<path d="M139.9 229.231C159.95 229.201 180.01 227.441 199.83 223.941L200.42 223.841" stroke="#8F97A4" stroke-width="2" stroke-miterlimit="10"/>
<path d="M206.62 134.661C206.62 134.661 230.62 129.301 245.3 103.641" stroke="#8F97A4" stroke-width="2" stroke-miterlimit="10"/>
<path d="M73.3299 134.661C73.3299 134.661 49.3299 129.301 34.6499 103.641" stroke="#8F97A4" stroke-width="2" stroke-miterlimit="10"/>
<path d="M115.66 42.0107C115.66 42.0107 123.25 59.0607 139.9 59.0807C156.55 59.0607 164.14 42.0107 164.14 42.0107" stroke="#8F97A4" stroke-width="2" stroke-miterlimit="10"/>
<path d="M108.73 45.5007C108.73 45.5007 118.49 67.4207 139.89 67.4407C161.29 67.4207 171.05 45.5007 171.05 45.5007" stroke="#8F97A4" stroke-width="2" stroke-miterlimit="10"/>
</svg>
