<svg width="768" height="480" viewBox="0 0 768 480" fill="none" xmlns="http://www.w3.org/2000/svg">
<g clip-path="url(#clip0_17299_33255)">
<path d="M29 28.9118C29 27.0318 30.524 25.5078 32.404 25.5078H735.596C737.476 25.5078 739 27.0318 739 28.9118V167.017C739 168.897 737.476 170.421 735.596 170.421H32.404C30.524 170.421 29 168.897 29 167.017V28.9118Z" fill="#D5D8DD"/>
<path d="M29 182.49C29 180.61 30.524 179.086 32.404 179.086H735.596C737.476 179.086 739 180.61 739 182.49V320.595C739 322.475 737.476 323.999 735.596 323.999H32.404C30.524 323.999 29 322.475 29 320.595V182.49Z" fill="#D5D8DD"/>
<path d="M29 336.068C29 334.188 30.524 332.664 32.404 332.664H255.885C257.765 332.664 259.289 334.188 259.289 336.068V415.893C259.289 417.773 257.765 419.297 255.885 419.297H32.404C30.524 419.297 29 417.773 29 415.893V336.068Z" fill="#D5D8DD"/>
<path d="M268.855 336.068C268.855 334.188 270.379 332.664 272.259 332.664H495.74C497.62 332.664 499.144 334.188 499.144 336.068V415.893C499.144 417.773 497.62 419.297 495.74 419.297H272.259C270.379 419.297 268.855 417.773 268.855 415.893V336.068Z" fill="#D5D8DD"/>
<path d="M508.711 336.068C508.711 334.188 510.235 332.664 512.115 332.664H735.596C737.476 332.664 739 334.188 739 336.068V415.893C739 417.773 737.476 419.297 735.596 419.297H512.115C510.235 419.297 508.711 417.773 508.711 415.893V336.068Z" fill="#D5D8DD"/>
<path d="M28.9998 431.388C28.9998 429.508 30.5238 427.984 32.4037 427.984H255.885C257.765 427.984 259.289 429.508 259.289 431.388V433.236C259.289 435.116 257.765 436.64 255.885 436.64H32.4037C30.5238 436.64 28.9998 435.116 28.9998 433.236V431.388Z" fill="#D5D8DD"/>
<path d="M268.855 431.388C268.855 429.508 270.379 427.984 272.259 427.984H495.74C497.62 427.984 499.144 429.508 499.144 431.388V433.236C499.144 435.116 497.62 436.64 495.74 436.64H272.259C270.379 436.64 268.855 435.116 268.855 433.236V431.388Z" fill="#D5D8DD"/>
<path d="M508.711 431.388C508.711 429.508 510.235 427.984 512.115 427.984H735.596C737.476 427.984 739 429.508 739 431.388V433.236C739 435.116 737.476 436.64 735.596 436.64H512.115C510.235 436.64 508.711 435.116 508.711 433.236V431.388Z" fill="#D5D8DD"/>
<path d="M29 444.373C29 442.493 30.524 440.969 32.404 440.969H255.885C257.765 440.969 259.289 442.493 259.289 444.373V446.22C259.289 448.1 257.765 449.624 255.885 449.624H32.404C30.524 449.624 29 448.1 29 446.22V444.373Z" fill="#D5D8DD"/>
<path d="M268.855 444.373C268.855 442.493 270.379 440.969 272.259 440.969H495.74C497.62 440.969 499.144 442.493 499.144 444.373V446.22C499.144 448.1 497.62 449.624 495.74 449.624H272.259C270.379 449.624 268.855 448.1 268.855 446.22V444.373Z" fill="#D5D8DD"/>
<path d="M508.711 444.373C508.711 442.493 510.235 440.969 512.115 440.969H735.596C737.476 440.969 739 442.493 739 444.373V446.22C739 448.1 737.476 449.624 735.596 449.624H512.115C510.235 449.624 508.711 448.1 508.711 446.22V444.373Z" fill="#D5D8DD"/>
<g clip-path="url(#clip1_17299_33255)">
<path d="M29 457.349C29 455.469 30.524 453.945 32.404 453.945H137.994C139.874 453.945 141.398 455.469 141.398 457.349V459.197C141.398 461.077 139.874 462.601 137.994 462.601H32.404C30.524 462.601 29 461.077 29 459.197V457.349Z" fill="#D5D8DD"/>
</g>
<g clip-path="url(#clip2_17299_33255)">
<path d="M268.176 457.357C268.176 455.477 269.7 453.953 271.58 453.953H377.17C379.05 453.953 380.574 455.477 380.574 457.357V459.205C380.574 461.085 379.05 462.609 377.17 462.609H271.58C269.7 462.609 268.176 461.085 268.176 459.205V457.357Z" fill="#D5D8DD"/>
</g>
<g clip-path="url(#clip3_17299_33255)">
<path d="M507.348 457.357C507.348 455.477 508.872 453.953 510.752 453.953H616.342C618.222 453.953 619.746 455.477 619.746 457.357V459.205C619.746 461.085 618.222 462.609 616.342 462.609H510.752C508.872 462.609 507.348 461.085 507.348 459.205V457.357Z" fill="#D5D8DD"/>
</g>
<path d="M0 0H768V475.596C768 477.476 766.476 479 764.596 479H3.40398C1.52401 479 0 477.476 0 475.596V0Z" fill="#315055" fill-opacity="0.65"/>
</g>
<rect x="0.5" y="0.5" width="767" height="479" rx="7.5" stroke="#E3E5E8"/>
<defs>
<clipPath id="clip0_17299_33255">
<rect width="768" height="480" rx="8" fill="white"/>
</clipPath>
<clipPath id="clip1_17299_33255">
<path d="M29 457.349C29 455.469 30.524 453.945 32.404 453.945H255.866C257.746 453.945 259.27 455.469 259.27 457.349V459.197C259.27 461.077 257.746 462.601 255.866 462.601H32.404C30.524 462.601 29 461.077 29 459.197V457.349Z" fill="white"/>
</clipPath>
<clipPath id="clip2_17299_33255">
<path d="M268.867 457.349C268.867 455.469 270.391 453.945 272.271 453.945H495.733C497.613 453.945 499.137 455.469 499.137 457.349V459.197C499.137 461.077 497.613 462.601 495.733 462.601H272.271C270.391 462.601 268.867 461.077 268.867 459.197V457.349Z" fill="white"/>
</clipPath>
<clipPath id="clip3_17299_33255">
<path d="M508.73 457.349C508.73 455.469 510.254 453.945 512.134 453.945H735.597C737.477 453.945 739.001 455.469 739.001 457.349V459.197C739.001 461.077 737.477 462.601 735.597 462.601H512.134C510.254 462.601 508.73 461.077 508.73 459.197V457.349Z" fill="white"/>
</clipPath>
</defs>
</svg>
