<svg width="144" height="120" viewBox="0 0 144 120" fill="none" xmlns="http://www.w3.org/2000/svg">
<g clip-path="url(#clip0_3461_17540)">
<rect x="7" y="5" width="129.556" height="110" rx="4.88889" fill="white"/>
<g clip-path="url(#clip1_3461_17540)">
<rect x="7" y="5" width="129.556" height="110" fill="#F1F2F4" fill-opacity="0.5"/>
<path d="M7 9.88889C7 7.18883 9.18883 5 11.8889 5H131.667C134.367 5 136.556 7.18883 136.556 9.88889V10.0417H7V9.88889Z" fill="#F1F2F4"/>
<circle cx="13.4167" cy="7.7487" r="0.916667" fill="#E3E5E8"/>
<circle cx="16.1667" cy="7.7487" r="0.916667" fill="#E3E5E8"/>
<circle cx="18.9167" cy="7.7487" r="0.916667" fill="#E3E5E8"/>
<path d="M11.8594 21.3498C11.8594 18.6498 14.0482 16.4609 16.7483 16.4609H126.809C129.509 16.4609 131.698 18.6498 131.698 21.3498V42.2663C131.698 44.9664 129.509 47.1552 126.809 47.1552H16.7483C14.0482 47.1552 11.8594 44.9664 11.8594 42.2663V21.3498Z" fill="#E3E5E8"/>
<path d="M11.8594 53.8811C11.8594 51.181 14.0482 48.9922 16.7483 48.9922H126.809C129.509 48.9922 131.698 51.181 131.698 53.8811V74.7976C131.698 77.4976 129.509 79.6865 126.809 79.6865H16.7483C14.0482 79.6865 11.8594 77.4976 11.8594 74.7976V53.8811Z" fill="#E3E5E8"/>
<path d="M11.8594 86.4084C11.8594 83.7084 14.0482 81.5195 16.7483 81.5195H45.8403C48.5404 81.5195 50.7292 83.7084 50.7292 86.4084V94.9805C50.7292 97.6806 48.5404 99.8694 45.8403 99.8694H16.7483C14.0482 99.8694 11.8594 97.6806 11.8594 94.9805V86.4084Z" fill="#E3E5E8"/>
<path d="M52.3438 86.4084C52.3438 83.7084 54.5326 81.5195 57.2326 81.5195H86.3247C89.0247 81.5195 91.2136 83.7084 91.2136 86.4084V94.9805C91.2136 97.6806 89.0247 99.8694 86.3247 99.8694H57.2326C54.5326 99.8694 52.3438 97.6806 52.3438 94.9805V86.4084Z" fill="#E3E5E8"/>
<path d="M92.8281 86.4084C92.8281 83.7084 95.017 81.5195 97.717 81.5195H126.809C129.509 81.5195 131.698 83.7084 131.698 86.4084V94.9805C131.698 97.6806 129.509 99.8694 126.809 99.8694H97.717C95.017 99.8694 92.8281 97.6806 92.8281 94.9805V86.4084Z" fill="#E3E5E8"/>
<path d="M11.8594 102.628C11.8594 102.121 12.2698 101.711 12.776 101.711H49.8125C50.3188 101.711 50.7292 102.121 50.7292 102.628C50.7292 103.134 50.3188 103.544 49.8125 103.544H12.776C12.2698 103.544 11.8594 103.134 11.8594 102.628Z" fill="#E3E5E8"/>
<path d="M52.3438 102.628C52.3438 102.121 52.7542 101.711 53.2604 101.711H90.2969C90.8032 101.711 91.2136 102.121 91.2136 102.628C91.2136 103.134 90.8032 103.544 90.2969 103.544H53.2604C52.7542 103.544 52.3438 103.134 52.3438 102.628Z" fill="#E3E5E8"/>
<path d="M92.8281 102.628C92.8281 102.121 93.2385 101.711 93.7448 101.711H130.781C131.288 101.711 131.698 102.121 131.698 102.628C131.698 103.134 131.288 103.544 130.781 103.544H93.7448C93.2385 103.544 92.8281 103.134 92.8281 102.628Z" fill="#E3E5E8"/>
<path d="M11.8594 105.378C11.8594 104.871 12.2698 104.461 12.776 104.461H49.8125C50.3188 104.461 50.7292 104.871 50.7292 105.378C50.7292 105.884 50.3188 106.294 49.8125 106.294H12.776C12.2698 106.294 11.8594 105.884 11.8594 105.378Z" fill="#E3E5E8"/>
<path d="M52.3438 105.378C52.3438 104.871 52.7542 104.461 53.2604 104.461H90.2969C90.8032 104.461 91.2136 104.871 91.2136 105.378C91.2136 105.884 90.8032 106.294 90.2969 106.294H53.2604C52.7542 106.294 52.3438 105.884 52.3438 105.378Z" fill="#E3E5E8"/>
<path d="M92.8281 105.378C92.8281 104.871 93.2385 104.461 93.7448 104.461H130.781C131.288 104.461 131.698 104.871 131.698 105.378C131.698 105.884 131.288 106.294 130.781 106.294H93.7448C93.2385 106.294 92.8281 105.884 92.8281 105.378Z" fill="#E3E5E8"/>
<g clip-path="url(#clip2_3461_17540)">
<path d="M11.8594 108.128C11.8594 107.621 12.2698 107.211 12.776 107.211H29.914C30.4203 107.211 30.8307 107.621 30.8307 108.128C30.8307 108.634 30.4203 109.044 29.914 109.044H12.776C12.2698 109.044 11.8594 108.634 11.8594 108.128Z" fill="#E3E5E8"/>
</g>
<g clip-path="url(#clip3_3461_17540)">
<path d="M52.2266 108.128C52.2266 107.621 52.637 107.211 53.1432 107.211H70.2812C70.7875 107.211 71.1979 107.621 71.1979 108.128C71.1979 108.634 70.7875 109.044 70.2812 109.044H53.1432C52.637 109.044 52.2266 108.634 52.2266 108.128Z" fill="#E3E5E8"/>
</g>
<g clip-path="url(#clip4_3461_17540)">
<path d="M92.5938 108.128C92.5938 107.621 93.0042 107.211 93.5104 107.211H110.648C111.155 107.211 111.565 107.621 111.565 108.128C111.565 108.634 111.155 109.044 110.648 109.044H93.5104C93.0042 109.044 92.5938 108.634 92.5938 108.128Z" fill="#E3E5E8"/>
</g>
</g>
<rect x="7.61111" y="5.61111" width="128.333" height="108.778" stroke="#F1F2F4" stroke-width="1.22222"/>
</g>
<rect x="7.61111" y="5.61111" width="128.333" height="108.778" rx="4.27778" stroke="#F1F2F4" stroke-width="1.22222"/>
<g clip-path="url(#clip5_3461_17540)">
<rect x="7" y="10" width="98" height="105" rx="4.88889" fill="#FFEFE5"/>
<rect x="61" y="49" width="34" height="4" rx="2" fill="#F7B59F"/>
<path d="M90.9795 15.7549C91.4568 15.2776 92.2307 15.2776 92.708 15.7549L98.7577 21.8046C99.235 22.2819 99.235 23.0557 98.7577 23.533C98.2804 24.0103 97.5065 24.0103 97.0292 23.533L90.9795 17.4833C90.5022 17.006 90.5022 16.2322 90.9795 15.7549Z" fill="#F7B59F"/>
<path d="M98.7529 15.7529C99.2303 16.2303 99.2303 17.0041 98.7529 17.4814L92.7033 23.5311C92.2259 24.0084 91.4521 24.0084 90.9748 23.5311C90.4975 23.0538 90.4975 22.2799 90.9748 21.8026L97.0245 15.7529C97.5018 15.2756 98.2756 15.2756 98.7529 15.7529Z" fill="#F7B59F"/>
<rect x="61" y="55" width="28" height="4" rx="2" fill="#F7B59F"/>
<rect x="61.6111" y="62.6111" width="32.7778" height="7.77778" rx="1.83333" stroke="#F7B59F" stroke-width="1.22222"/>
<line x1="64.6111" y1="65" x2="64.6111" y2="68.6667" stroke="#F7B59F" stroke-width="1.22222"/>
<rect x="61" y="73" width="34" height="9" rx="2.44444" fill="#ED5A29"/>
<g clip-path="url(#clip6_3461_17540)">
<rect x="-18" y="27.2578" width="71.1828" height="71.1828" rx="35.5914" fill="white"/>
<g filter="url(#filter0_dd_3461_17540)">
<circle cx="17.5914" cy="62.8453" r="35.5914" fill="#F7B59F"/>
</g>
<mask id="mask0_3461_17540" style="mask-type:alpha" maskUnits="userSpaceOnUse" x="-18" y="27" width="72" height="72">
<circle cx="17.5914" cy="62.8453" r="35.5914" fill="black"/>
</mask>
<g mask="url(#mask0_3461_17540)">
<path d="M17.4412 63.4492L9.47419 27.2546L25.4081 27.2546L17.4412 63.4492Z" fill="#FFE0CC"/>
<path d="M17.4417 62.543L25.4086 98.5114H9.47468L17.4417 62.543Z" fill="#FFE0CC"/>
<path d="M17.5859 62.844L-18.6087 70.811L-18.6087 54.877L17.5859 62.844Z" fill="#FFE0CC"/>
<path d="M17.2969 62.8435L53.4915 54.8765V70.8105L17.2969 62.8435Z" fill="#FFE0CC"/>
<path d="M17.87 63.2745L-13.357 43.3146L-2.08997 32.0476L17.87 63.2745Z" fill="#FFE0CC"/>
<path d="M17.5284 62.9325L48.5954 82.7325L37.3284 93.9995L17.5284 62.9325Z" fill="#FFE0CC"/>
<path d="M17.5441 62.7355L-2.41589 93.9624L-13.6829 82.6954L17.5441 62.7355Z" fill="#FFE0CC"/>
<path d="M17.3387 62.952L37.2987 31.7251L48.5657 42.9921L17.3387 62.952Z" fill="#FFE0CC"/>
</g>
</g>
<circle cx="17.8961" cy="63.15" r="35.5914" stroke="#F7B59F" stroke-width="1.20649"/>
<g filter="url(#filter1_dd_3461_17540)">
<path d="M46.7035 32.6912C44.5523 31.0198 41.4607 31.4078 39.7893 33.559C37.5218 36.4772 38.0657 43.8083 38.0657 43.8083C38.0657 43.8083 45.3038 42.5237 47.5713 39.6054C49.2427 37.4543 48.8547 34.3626 46.7035 32.6912ZM42.6005 37.9718C41.8335 37.3758 41.6946 36.2696 42.2906 35.5025C42.8866 34.7354 43.9929 34.5965 44.76 35.1926C45.5271 35.7886 45.6659 36.8948 45.0699 37.6619C44.4739 38.429 43.3676 38.5679 42.6005 37.9718Z" fill="#ED5A29"/>
</g>
<circle cx="17.4393" cy="62.9978" r="4.07206" fill="#F7B59F"/>
</g>
<rect x="7.61111" y="10.6111" width="96.7778" height="103.778" rx="4.27778" stroke="#F7B59F" stroke-width="1.22222"/>
<defs>
<filter id="filter0_dd_3461_17540" x="-64.7514" y="-17.6877" width="164.682" height="164.686" filterUnits="userSpaceOnUse" color-interpolation-filters="sRGB">
<feFlood flood-opacity="0" result="BackgroundImageFix"/>
<feColorMatrix in="SourceAlpha" type="matrix" values="0 0 0 0 0 0 0 0 0 0 0 0 0 0 0 0 0 0 127 0" result="hardAlpha"/>
<feOffset dy="1.80973"/>
<feGaussianBlur stdDeviation="23.3757"/>
<feColorMatrix type="matrix" values="0 0 0 0 0.764706 0 0 0 0 0.811765 0 0 0 0 0.85098 0 0 0 0.5 0"/>
<feBlend mode="normal" in2="BackgroundImageFix" result="effect1_dropShadow_3461_17540"/>
<feColorMatrix in="SourceAlpha" type="matrix" values="0 0 0 0 0 0 0 0 0 0 0 0 0 0 0 0 0 0 127 0" result="hardAlpha"/>
<feOffset dy="1.20649"/>
<feGaussianBlur stdDeviation="2.11135"/>
<feColorMatrix type="matrix" values="0 0 0 0 0.764706 0 0 0 0 0.811765 0 0 0 0 0.85098 0 0 0 0.55 0"/>
<feBlend mode="normal" in2="effect1_dropShadow_3461_17540" result="effect2_dropShadow_3461_17540"/>
<feBlend mode="normal" in="SourceGraphic" in2="effect2_dropShadow_3461_17540" result="shape"/>
</filter>
<filter id="filter1_dd_3461_17540" x="33.4835" y="28.9377" width="19.6502" height="21.2049" filterUnits="userSpaceOnUse" color-interpolation-filters="sRGB">
<feFlood flood-opacity="0" result="BackgroundImageFix"/>
<feColorMatrix in="SourceAlpha" type="matrix" values="0 0 0 0 0 0 0 0 0 0 0 0 0 0 0 0 0 0 127 0" result="hardAlpha"/>
<feOffset dy="1.80973"/>
<feGaussianBlur stdDeviation="2.26216"/>
<feColorMatrix type="matrix" values="0 0 0 0 0.764706 0 0 0 0 0.811765 0 0 0 0 0.85098 0 0 0 0.6 0"/>
<feBlend mode="normal" in2="BackgroundImageFix" result="effect1_dropShadow_3461_17540"/>
<feColorMatrix in="SourceAlpha" type="matrix" values="0 0 0 0 0 0 0 0 0 0 0 0 0 0 0 0 0 0 127 0" result="hardAlpha"/>
<feOffset dy="0.603244"/>
<feGaussianBlur stdDeviation="0.301622"/>
<feColorMatrix type="matrix" values="0 0 0 0 0.764706 0 0 0 0 0.811765 0 0 0 0 0.85098 0 0 0 0.25 0"/>
<feBlend mode="normal" in2="effect1_dropShadow_3461_17540" result="effect2_dropShadow_3461_17540"/>
<feBlend mode="normal" in="SourceGraphic" in2="effect2_dropShadow_3461_17540" result="shape"/>
</filter>
<clipPath id="clip0_3461_17540">
<rect x="7" y="5" width="129.556" height="110" rx="4.88889" fill="white"/>
</clipPath>
<clipPath id="clip1_3461_17540">
<rect x="7" y="5" width="129.556" height="110" fill="white"/>
</clipPath>
<clipPath id="clip2_3461_17540">
<path d="M11.8594 108.128C11.8594 107.621 12.2698 107.211 12.776 107.211H49.8094C50.3156 107.211 50.7261 107.621 50.7261 108.128C50.7261 108.634 50.3156 109.044 49.8094 109.044H12.776C12.2698 109.044 11.8594 108.634 11.8594 108.128Z" fill="white"/>
</clipPath>
<clipPath id="clip3_3461_17540">
<path d="M52.3438 108.128C52.3438 107.621 52.7542 107.211 53.2604 107.211H90.2938C90.8 107.211 91.2104 107.621 91.2104 108.128C91.2104 108.634 90.8 109.044 90.2938 109.044H53.2604C52.7542 109.044 52.3438 108.634 52.3438 108.128Z" fill="white"/>
</clipPath>
<clipPath id="clip4_3461_17540">
<path d="M92.8281 108.128C92.8281 107.621 93.2385 107.211 93.7448 107.211H130.778C131.284 107.211 131.695 107.621 131.695 108.128C131.695 108.634 131.284 109.044 130.778 109.044H93.7448C93.2385 109.044 92.8281 108.634 92.8281 108.128Z" fill="white"/>
</clipPath>
<clipPath id="clip5_3461_17540">
<rect x="7" y="10" width="98" height="105" rx="4.88889" fill="white"/>
</clipPath>
<clipPath id="clip6_3461_17540">
<rect x="-18" y="27.2578" width="71.1828" height="71.1828" rx="35.5914" fill="white"/>
</clipPath>
</defs>
</svg>
