<svg width="158" height="120" viewBox="0 0 158 120" fill="none" xmlns="http://www.w3.org/2000/svg">
<g clip-path="url(#clip0_702_41968)">
<rect x="19.9453" y="5" width="129.556" height="110" rx="4.88889" fill="white"/>
<g clip-path="url(#clip1_702_41968)">
<rect x="19.9453" y="5" width="129.556" height="110" fill="#F1F2F4" fill-opacity="0.5"/>
<path d="M19.9453 9.88889C19.9453 7.18883 22.1341 5 24.8342 5H144.612C147.312 5 149.501 7.18883 149.501 9.88889V10.0417H19.9453V9.88889Z" fill="#F1F2F4"/>
<circle cx="26.362" cy="7.74967" r="0.916667" fill="#E3E5E8"/>
<circle cx="29.112" cy="7.74967" r="0.916667" fill="#E3E5E8"/>
<circle cx="31.862" cy="7.74967" r="0.916667" fill="#E3E5E8"/>
<path d="M24.8047 21.3479C24.8047 18.6478 26.9935 16.459 29.6936 16.459H139.755C142.455 16.459 144.644 18.6478 144.644 21.3479V42.2644C144.644 44.9644 142.455 47.1533 139.755 47.1533H29.6936C26.9935 47.1533 24.8047 44.9644 24.8047 42.2644V21.3479Z" fill="#E3E5E8"/>
<path d="M24.8047 53.8772C24.8047 51.1771 26.9935 48.9883 29.6936 48.9883H139.755C142.455 48.9883 144.644 51.1771 144.644 53.8772V74.7937C144.644 77.4937 142.455 79.6826 139.755 79.6826H29.6936C26.9935 79.6826 24.8047 77.4937 24.8047 74.7937V53.8772Z" fill="#E3E5E8"/>
<path d="M24.8047 86.4065C24.8047 83.7064 26.9935 81.5176 29.6936 81.5176H58.7856C61.4857 81.5176 63.6745 83.7064 63.6745 86.4065V94.9785C63.6745 97.6786 61.4857 99.8674 58.7856 99.8674H29.6936C26.9935 99.8674 24.8047 97.6786 24.8047 94.9785V86.4065Z" fill="#E3E5E8"/>
<path d="M65.2891 86.4065C65.2891 83.7064 67.4779 81.5176 70.178 81.5176H99.27C101.97 81.5176 104.159 83.7064 104.159 86.4065V94.9785C104.159 97.6786 101.97 99.8674 99.27 99.8674H70.1779C67.4779 99.8674 65.2891 97.6786 65.2891 94.9785V86.4065Z" fill="#E3E5E8"/>
<path d="M105.773 86.4065C105.773 83.7064 107.962 81.5176 110.662 81.5176H139.754C142.454 81.5176 144.643 83.7064 144.643 86.4065V94.9785C144.643 97.6786 142.454 99.8674 139.754 99.8674H110.662C107.962 99.8674 105.773 97.6786 105.773 94.9785V86.4065Z" fill="#E3E5E8"/>
<path d="M24.8047 102.626C24.8047 102.119 25.2151 101.709 25.7214 101.709H62.7578C63.2641 101.709 63.6745 102.119 63.6745 102.626C63.6745 103.132 63.2641 103.542 62.7578 103.542H25.7213C25.2151 103.542 24.8047 103.132 24.8047 102.626Z" fill="#E3E5E8"/>
<path d="M65.2891 102.626C65.2891 102.119 65.6995 101.709 66.2057 101.709H103.242C103.748 101.709 104.159 102.119 104.159 102.626C104.159 103.132 103.748 103.542 103.242 103.542H66.2057C65.6995 103.542 65.2891 103.132 65.2891 102.626Z" fill="#E3E5E8"/>
<path d="M105.773 102.626C105.773 102.119 106.184 101.709 106.69 101.709H143.727C144.233 101.709 144.643 102.119 144.643 102.626C144.643 103.132 144.233 103.542 143.727 103.542H106.69C106.184 103.542 105.773 103.132 105.773 102.626Z" fill="#E3E5E8"/>
<path d="M24.8047 105.376C24.8047 104.869 25.2151 104.459 25.7214 104.459H62.7578C63.2641 104.459 63.6745 104.869 63.6745 105.376C63.6745 105.882 63.2641 106.292 62.7578 106.292H25.7213C25.2151 106.292 24.8047 105.882 24.8047 105.376Z" fill="#E3E5E8"/>
<path d="M65.2891 105.376C65.2891 104.869 65.6995 104.459 66.2057 104.459H103.242C103.748 104.459 104.159 104.869 104.159 105.376C104.159 105.882 103.748 106.292 103.242 106.292H66.2057C65.6995 106.292 65.2891 105.882 65.2891 105.376Z" fill="#E3E5E8"/>
<path d="M105.773 105.376C105.773 104.869 106.184 104.459 106.69 104.459H143.727C144.233 104.459 144.643 104.869 144.643 105.376C144.643 105.882 144.233 106.292 143.727 106.292H106.69C106.184 106.292 105.773 105.882 105.773 105.376Z" fill="#E3E5E8"/>
<g clip-path="url(#clip2_702_41968)">
<path d="M24.8047 108.124C24.8047 107.617 25.2151 107.207 25.7214 107.207H42.8594C43.3656 107.207 43.776 107.617 43.776 108.124C43.776 108.63 43.3656 109.04 42.8594 109.04H25.7214C25.2151 109.04 24.8047 108.63 24.8047 108.124Z" fill="#E3E5E8"/>
</g>
<g clip-path="url(#clip3_702_41968)">
<path d="M65.1719 108.126C65.1719 107.619 65.5823 107.209 66.0885 107.209H83.2265C83.7328 107.209 84.1432 107.619 84.1432 108.126C84.1432 108.632 83.7328 109.042 83.2265 109.042H66.0885C65.5823 109.042 65.1719 108.632 65.1719 108.126Z" fill="#E3E5E8"/>
</g>
<g clip-path="url(#clip4_702_41968)">
<path d="M105.547 108.125C105.547 107.618 105.957 107.208 106.464 107.208H123.602C124.108 107.208 124.518 107.618 124.518 108.125C124.518 108.631 124.108 109.041 123.602 109.041H106.464C105.957 109.041 105.547 108.631 105.547 108.125Z" fill="#E3E5E8"/>
</g>
</g>
<rect x="20.5564" y="5.61111" width="128.333" height="108.778" stroke="#F1F2F4" stroke-width="1.22222"/>
</g>
<rect x="20.5564" y="5.61111" width="128.333" height="108.778" rx="4.27778" stroke="#F1F2F4" stroke-width="1.22222"/>
<rect x="8.14852" y="26.0391" width="58.1333" height="73.8778" rx="4.23889" fill="#FFEFE5"/>
<circle cx="37.2167" cy="42.9945" r="12.7167" fill="#F7B59F"/>
<path d="M54.4229 31.1342C54.8959 30.6612 55.6627 30.6612 56.1357 31.1342L62.1304 37.1289C62.6033 37.6019 62.6033 38.3687 62.1304 38.8417C61.6574 39.3146 60.8906 39.3146 60.4176 38.8417L54.4229 32.847C53.9499 32.374 53.9499 31.6072 54.4229 31.1342Z" fill="#F7B59F"/>
<path d="M62.1299 31.1343C62.6029 31.6073 62.6029 32.3741 62.1299 32.8471L56.1352 38.8418C55.6623 39.3148 54.8954 39.3148 54.4225 38.8418C53.9495 38.3688 53.9495 37.602 54.4225 37.129L60.4172 31.1343C60.8901 30.6614 61.657 30.6614 62.1299 31.1343Z" fill="#F7B59F"/>
<rect x="17.2344" y="60.5557" width="39.9667" height="3.63333" rx="1.81667" fill="#F7B59F"/>
<rect x="20.8652" y="66.6113" width="32.7" height="3.63333" rx="1.81667" fill="#F7B59F"/>
<rect x="16.629" y="74.4835" width="41.1778" height="8.47778" rx="1.81667" stroke="#F7B59F" stroke-width="1.21111"/>
<line x1="20.2599" y1="76.2998" x2="20.2599" y2="81.1442" stroke="#F7B59F" stroke-width="1.21111"/>
<rect x="16.0234" y="85.9893" width="42.3889" height="8.47778" rx="2.42222" fill="#ED5A29"/>
<rect x="8.14852" y="26.0391" width="58.1333" height="73.8778" rx="4.23889" stroke="#F7B59F" stroke-width="1.21111"/>
<defs>
<clipPath id="clip0_702_41968">
<rect x="19.9453" y="5" width="129.556" height="110" rx="4.88889" fill="white"/>
</clipPath>
<clipPath id="clip1_702_41968">
<rect x="19.9453" y="5" width="129.556" height="110" fill="white"/>
</clipPath>
<clipPath id="clip2_702_41968">
<path d="M24.8047 108.124C24.8047 107.617 25.2151 107.207 25.7214 107.207H62.7547C63.261 107.207 63.6714 107.617 63.6714 108.124C63.6714 108.63 63.261 109.04 62.7547 109.04H25.7214C25.2151 109.04 24.8047 108.63 24.8047 108.124Z" fill="white"/>
</clipPath>
<clipPath id="clip3_702_41968">
<path d="M65.2891 108.124C65.2891 107.617 65.6995 107.207 66.2057 107.207H103.239C103.745 107.207 104.156 107.617 104.156 108.124C104.156 108.63 103.745 109.04 103.239 109.04H66.2057C65.6995 109.04 65.2891 108.63 65.2891 108.124Z" fill="white"/>
</clipPath>
<clipPath id="clip4_702_41968">
<path d="M105.777 108.124C105.777 107.617 106.188 107.207 106.694 107.207H143.727C144.234 107.207 144.644 107.617 144.644 108.124C144.644 108.63 144.234 109.04 143.727 109.04H106.694C106.188 109.04 105.777 108.63 105.777 108.124Z" fill="white"/>
</clipPath>
</defs>
</svg>
