<svg width="144" height="120" viewBox="0 0 144 120" fill="none" xmlns="http://www.w3.org/2000/svg">
<g clip-path="url(#clip0_702_42013)">
<rect x="7" y="5" width="129.556" height="110" rx="4.88889" fill="white"/>
<g clip-path="url(#clip1_702_42013)">
<rect x="7" y="5" width="129.556" height="110" fill="#F1F2F4" fill-opacity="0.5"/>
<path d="M7 9.88889C7 7.18883 9.18883 5 11.8889 5H131.667C134.367 5 136.556 7.18883 136.556 9.88889V10.0417H7V9.88889Z" fill="#F1F2F4"/>
<circle cx="13.4167" cy="7.74967" r="0.916667" fill="#E3E5E8"/>
<circle cx="16.1667" cy="7.74967" r="0.916667" fill="#E3E5E8"/>
<circle cx="18.9167" cy="7.74967" r="0.916667" fill="#E3E5E8"/>
<path d="M11.8594 21.3479C11.8594 18.6478 14.0482 16.459 16.7483 16.459H126.809C129.509 16.459 131.698 18.6478 131.698 21.3479V42.2644C131.698 44.9644 129.509 47.1533 126.809 47.1533H16.7483C14.0482 47.1533 11.8594 44.9644 11.8594 42.2644V21.3479Z" fill="#E3E5E8"/>
<path d="M11.8594 53.8772C11.8594 51.1771 14.0482 48.9883 16.7483 48.9883H126.809C129.509 48.9883 131.698 51.1771 131.698 53.8772V74.7937C131.698 77.4937 129.509 79.6826 126.809 79.6826H16.7483C14.0482 79.6826 11.8594 77.4937 11.8594 74.7937V53.8772Z" fill="#E3E5E8"/>
<path d="M11.8594 86.4065C11.8594 83.7064 14.0482 81.5176 16.7483 81.5176H45.8403C48.5404 81.5176 50.7292 83.7064 50.7292 86.4065V94.9785C50.7292 97.6786 48.5404 99.8674 45.8403 99.8674H16.7483C14.0482 99.8674 11.8594 97.6786 11.8594 94.9785V86.4065Z" fill="#E3E5E8"/>
<path d="M52.3438 86.4065C52.3438 83.7064 54.5326 81.5176 57.2326 81.5176H86.3247C89.0247 81.5176 91.2136 83.7064 91.2136 86.4065V94.9785C91.2136 97.6786 89.0247 99.8674 86.3247 99.8674H57.2326C54.5326 99.8674 52.3438 97.6786 52.3438 94.9785V86.4065Z" fill="#E3E5E8"/>
<path d="M92.8281 86.4065C92.8281 83.7064 95.017 81.5176 97.717 81.5176H126.809C129.509 81.5176 131.698 83.7064 131.698 86.4065V94.9785C131.698 97.6786 129.509 99.8674 126.809 99.8674H97.717C95.017 99.8674 92.8281 97.6786 92.8281 94.9785V86.4065Z" fill="#E3E5E8"/>
<path d="M11.8594 102.626C11.8594 102.119 12.2698 101.709 12.776 101.709H49.8125C50.3188 101.709 50.7292 102.119 50.7292 102.626C50.7292 103.132 50.3188 103.542 49.8125 103.542H12.776C12.2698 103.542 11.8594 103.132 11.8594 102.626Z" fill="#E3E5E8"/>
<path d="M52.3438 102.626C52.3438 102.119 52.7542 101.709 53.2604 101.709H90.2969C90.8032 101.709 91.2136 102.119 91.2136 102.626C91.2136 103.132 90.8032 103.542 90.2969 103.542H53.2604C52.7542 103.542 52.3438 103.132 52.3438 102.626Z" fill="#E3E5E8"/>
<path d="M92.8281 102.626C92.8281 102.119 93.2385 101.709 93.7448 101.709H130.781C131.288 101.709 131.698 102.119 131.698 102.626C131.698 103.132 131.288 103.542 130.781 103.542H93.7448C93.2385 103.542 92.8281 103.132 92.8281 102.626Z" fill="#E3E5E8"/>
<path d="M11.8594 105.376C11.8594 104.869 12.2698 104.459 12.776 104.459H49.8125C50.3188 104.459 50.7292 104.869 50.7292 105.376C50.7292 105.882 50.3188 106.292 49.8125 106.292H12.776C12.2698 106.292 11.8594 105.882 11.8594 105.376Z" fill="#E3E5E8"/>
<path d="M52.3438 105.376C52.3438 104.869 52.7542 104.459 53.2604 104.459H90.2969C90.8032 104.459 91.2136 104.869 91.2136 105.376C91.2136 105.882 90.8032 106.292 90.2969 106.292H53.2604C52.7542 106.292 52.3438 105.882 52.3438 105.376Z" fill="#E3E5E8"/>
<path d="M92.8281 105.376C92.8281 104.869 93.2385 104.459 93.7448 104.459H130.781C131.288 104.459 131.698 104.869 131.698 105.376C131.698 105.882 131.288 106.292 130.781 106.292H93.7448C93.2385 106.292 92.8281 105.882 92.8281 105.376Z" fill="#E3E5E8"/>
<g clip-path="url(#clip2_702_42013)">
<path d="M11.8594 108.124C11.8594 107.617 12.2698 107.207 12.776 107.207H29.914C30.4203 107.207 30.8307 107.617 30.8307 108.124C30.8307 108.63 30.4203 109.04 29.914 109.04H12.776C12.2698 109.04 11.8594 108.63 11.8594 108.124Z" fill="#E3E5E8"/>
</g>
<g clip-path="url(#clip3_702_42013)">
<path d="M52.2266 108.126C52.2266 107.619 52.637 107.209 53.1432 107.209H70.2812C70.7875 107.209 71.1979 107.619 71.1979 108.126C71.1979 108.632 70.7875 109.042 70.2812 109.042H53.1432C52.637 109.042 52.2266 108.632 52.2266 108.126Z" fill="#E3E5E8"/>
</g>
<g clip-path="url(#clip4_702_42013)">
<path d="M92.6016 108.125C92.6016 107.618 93.012 107.208 93.5182 107.208H110.656C111.162 107.208 111.573 107.618 111.573 108.125C111.573 108.631 111.162 109.041 110.656 109.041H93.5182C93.012 109.041 92.6016 108.631 92.6016 108.125Z" fill="#E3E5E8"/>
</g>
</g>
<rect x="7.61111" y="5.61111" width="128.333" height="108.778" stroke="#F1F2F4" stroke-width="1.22222"/>
</g>
<rect x="7.61111" y="5.61111" width="128.333" height="108.778" rx="4.27778" stroke="#F1F2F4" stroke-width="1.22222"/>
<g clip-path="url(#clip5_702_42013)">
<path d="M1 14.9407C1 12.2635 3.17028 10.0933 5.84746 10.0933H139.153C141.83 10.0933 144 12.2635 144 14.9407V27.0594C144 29.7365 141.83 31.9068 139.153 31.9068H5.84746C3.17028 31.9068 1 29.7365 1 27.0594V14.9407Z" fill="#FFEFE5"/>
<circle cx="8.27245" cy="11.3052" r="24.2373" fill="#F7B59F"/>
<path d="M38.5684 17.9701C38.5684 16.9662 39.3822 16.1523 40.3862 16.1523H87.6489C88.6528 16.1523 89.4667 16.9662 89.4667 17.9701C89.4667 18.9741 88.6528 19.7879 87.6489 19.7879H40.3862C39.3822 19.7879 38.5684 18.9741 38.5684 17.9701Z" fill="#F7B59F"/>
<rect x="38.5684" y="22.2119" width="41.2034" height="3.63559" rx="1.8178" fill="#F7B59F"/>
<rect x="100.373" y="16.1523" width="33.9322" height="9.69492" rx="2.42373" fill="#ED5A29"/>
</g>
<path d="M1.60593 14.9407C1.60593 12.5982 3.50493 10.6992 5.84746 10.6992H139.153C141.495 10.6992 143.394 12.5982 143.394 14.9407V27.0594C143.394 29.4019 141.495 31.3009 139.153 31.3009H5.84746C3.50493 31.3009 1.60593 29.4019 1.60593 27.0594V14.9407Z" stroke="#F7B59F" stroke-width="1.21186"/>
<defs>
<clipPath id="clip0_702_42013">
<rect x="7" y="5" width="129.556" height="110" rx="4.88889" fill="white"/>
</clipPath>
<clipPath id="clip1_702_42013">
<rect x="7" y="5" width="129.556" height="110" fill="white"/>
</clipPath>
<clipPath id="clip2_702_42013">
<path d="M11.8594 108.124C11.8594 107.617 12.2698 107.207 12.776 107.207H49.8094C50.3156 107.207 50.7261 107.617 50.7261 108.124C50.7261 108.63 50.3156 109.04 49.8094 109.04H12.776C12.2698 109.04 11.8594 108.63 11.8594 108.124Z" fill="white"/>
</clipPath>
<clipPath id="clip3_702_42013">
<path d="M52.3438 108.124C52.3438 107.617 52.7542 107.207 53.2604 107.207H90.2938C90.8 107.207 91.2104 107.617 91.2104 108.124C91.2104 108.63 90.8 109.04 90.2938 109.04H53.2604C52.7542 109.04 52.3438 108.63 52.3438 108.124Z" fill="white"/>
</clipPath>
<clipPath id="clip4_702_42013">
<path d="M92.832 108.124C92.832 107.617 93.2424 107.207 93.7487 107.207H130.782C131.288 107.207 131.699 107.617 131.699 108.124C131.699 108.63 131.288 109.04 130.782 109.04H93.7487C93.2424 109.04 92.832 108.63 92.832 108.124Z" fill="white"/>
</clipPath>
<clipPath id="clip5_702_42013">
<path d="M1 14.9407C1 12.2635 3.17028 10.0933 5.84746 10.0933H139.153C141.83 10.0933 144 12.2635 144 14.9407V27.0594C144 29.7365 141.83 31.9068 139.153 31.9068H5.84746C3.17028 31.9068 1 29.7365 1 27.0594V14.9407Z" fill="white"/>
</clipPath>
</defs>
</svg>
