<svg width="144" height="120" viewBox="0 0 144 120" fill="none" xmlns="http://www.w3.org/2000/svg">
<g clip-path="url(#clip0_702_39221)">
<rect x="13.4453" y="5" width="129.556" height="110" rx="4.88889" fill="white"/>
<g clip-path="url(#clip1_702_39221)">
<rect x="13.4453" y="5" width="129.556" height="110" fill="#F1F2F4" fill-opacity="0.5"/>
<path d="M13.4453 9.88889C13.4453 7.18883 15.6341 5 18.3342 5H138.112C140.812 5 143.001 7.18883 143.001 9.88889V10.0417H13.4453V9.88889Z" fill="#F1F2F4"/>
<circle cx="19.862" cy="7.74967" r="0.916667" fill="#E3E5E8"/>
<circle cx="22.612" cy="7.74967" r="0.916667" fill="#E3E5E8"/>
<circle cx="25.362" cy="7.74967" r="0.916667" fill="#E3E5E8"/>
<path d="M18.3047 21.3479C18.3047 18.6478 20.4935 16.459 23.1936 16.459H133.255C135.955 16.459 138.144 18.6478 138.144 21.3479V42.2644C138.144 44.9644 135.955 47.1533 133.255 47.1533H23.1936C20.4935 47.1533 18.3047 44.9644 18.3047 42.2644V21.3479Z" fill="#E3E5E8"/>
<path d="M18.3047 53.8772C18.3047 51.1771 20.4935 48.9883 23.1936 48.9883H133.255C135.955 48.9883 138.144 51.1771 138.144 53.8772V74.7937C138.144 77.4937 135.955 79.6826 133.255 79.6826H23.1936C20.4935 79.6826 18.3047 77.4937 18.3047 74.7937V53.8772Z" fill="#E3E5E8"/>
<path d="M18.3047 86.4065C18.3047 83.7064 20.4935 81.5176 23.1936 81.5176H52.2856C54.9857 81.5176 57.1745 83.7064 57.1745 86.4065V94.9785C57.1745 97.6786 54.9857 99.8674 52.2856 99.8674H23.1936C20.4935 99.8674 18.3047 97.6786 18.3047 94.9785V86.4065Z" fill="#E3E5E8"/>
<path d="M58.7891 86.4065C58.7891 83.7064 60.9779 81.5176 63.678 81.5176H92.77C95.4701 81.5176 97.6589 83.7064 97.6589 86.4065V94.9785C97.6589 97.6786 95.47 99.8674 92.77 99.8674H63.6779C60.9779 99.8674 58.7891 97.6786 58.7891 94.9785V86.4065Z" fill="#E3E5E8"/>
<path d="M99.2734 86.4065C99.2734 83.7064 101.462 81.5176 104.162 81.5176H133.254C135.954 81.5176 138.143 83.7064 138.143 86.4065V94.9785C138.143 97.6786 135.954 99.8674 133.254 99.8674H104.162C101.462 99.8674 99.2734 97.6786 99.2734 94.9785V86.4065Z" fill="#E3E5E8"/>
<path d="M18.3047 102.626C18.3047 102.119 18.7151 101.709 19.2214 101.709H56.2578C56.7641 101.709 57.1745 102.119 57.1745 102.626C57.1745 103.132 56.7641 103.542 56.2578 103.542H19.2213C18.7151 103.542 18.3047 103.132 18.3047 102.626Z" fill="#E3E5E8"/>
<path d="M58.7891 102.626C58.7891 102.119 59.1995 101.709 59.7057 101.709H96.7422C97.2485 101.709 97.6589 102.119 97.6589 102.626C97.6589 103.132 97.2485 103.542 96.7422 103.542H59.7057C59.1995 103.542 58.7891 103.132 58.7891 102.626Z" fill="#E3E5E8"/>
<path d="M99.2734 102.626C99.2734 102.119 99.6838 101.709 100.19 101.709H137.227C137.733 101.709 138.143 102.119 138.143 102.626C138.143 103.132 137.733 103.542 137.227 103.542H100.19C99.6838 103.542 99.2734 103.132 99.2734 102.626Z" fill="#E3E5E8"/>
<path d="M18.3047 105.376C18.3047 104.869 18.7151 104.459 19.2214 104.459H56.2578C56.7641 104.459 57.1745 104.869 57.1745 105.376C57.1745 105.882 56.7641 106.292 56.2578 106.292H19.2213C18.7151 106.292 18.3047 105.882 18.3047 105.376Z" fill="#E3E5E8"/>
<path d="M58.7891 105.376C58.7891 104.869 59.1995 104.459 59.7057 104.459H96.7422C97.2485 104.459 97.6589 104.869 97.6589 105.376C97.6589 105.882 97.2485 106.292 96.7422 106.292H59.7057C59.1995 106.292 58.7891 105.882 58.7891 105.376Z" fill="#E3E5E8"/>
<path d="M99.2734 105.376C99.2734 104.869 99.6838 104.459 100.19 104.459H137.227C137.733 104.459 138.143 104.869 138.143 105.376C138.143 105.882 137.733 106.292 137.227 106.292H100.19C99.6838 106.292 99.2734 105.882 99.2734 105.376Z" fill="#E3E5E8"/>
<g clip-path="url(#clip2_702_39221)">
<path d="M18.3047 108.124C18.3047 107.617 18.7151 107.207 19.2214 107.207H36.3594C36.8656 107.207 37.276 107.617 37.276 108.124C37.276 108.63 36.8656 109.04 36.3594 109.04H19.2214C18.7151 109.04 18.3047 108.63 18.3047 108.124Z" fill="#E3E5E8"/>
</g>
<g clip-path="url(#clip3_702_39221)">
<path d="M58.6719 108.126C58.6719 107.619 59.0823 107.209 59.5885 107.209H76.7265C77.2328 107.209 77.6432 107.619 77.6432 108.126C77.6432 108.632 77.2328 109.042 76.7265 109.042H59.5885C59.0823 109.042 58.6719 108.632 58.6719 108.126Z" fill="#E3E5E8"/>
</g>
<g clip-path="url(#clip4_702_39221)">
<path d="M99.0469 108.125C99.0469 107.618 99.4573 107.208 99.9635 107.208H117.102C117.608 107.208 118.018 107.618 118.018 108.125C118.018 108.631 117.608 109.041 117.102 109.041H99.9635C99.4573 109.041 99.0469 108.631 99.0469 108.125Z" fill="#E3E5E8"/>
</g>
</g>
<rect x="14.0564" y="5.61111" width="128.333" height="108.778" stroke="#F1F2F4" stroke-width="1.22222"/>
</g>
<rect x="14.0564" y="5.61111" width="128.333" height="108.778" rx="4.27778" stroke="#F1F2F4" stroke-width="1.22222"/>
<rect x="0.611111" y="20.2771" width="118.556" height="75.7778" rx="4.27778" fill="#FFEFE5"/>
<rect x="24.4453" y="57.5547" width="70.8889" height="3.66667" rx="1.83333" fill="#F7B59F"/>
<path d="M105.976 25.4189C106.453 24.9416 107.227 24.9416 107.704 25.4189L113.754 31.4686C114.231 31.9459 114.231 32.7198 113.754 33.1971V33.1971C113.276 33.6744 112.503 33.6744 112.025 33.1971L105.976 27.1474C105.498 26.6701 105.498 25.8962 105.976 25.4189V25.4189Z" fill="#F7B59F"/>
<path d="M113.753 25.419C114.23 25.8963 114.23 26.6701 113.753 27.1474L107.703 33.1971C107.226 33.6744 106.452 33.6744 105.975 33.1971V33.1971C105.497 32.7198 105.497 31.946 105.975 31.4687L112.024 25.419C112.502 24.9417 113.276 24.9417 113.753 25.419V25.419Z" fill="#F7B59F"/>
<rect x="30.5547" y="63.666" width="58.6667" height="3.66667" rx="1.83333" fill="#F7B59F"/>
<rect x="39.7205" y="71.6111" width="40.3333" height="7.33333" rx="1.83333" stroke="#F7B59F" stroke-width="1.22222"/>
<line x1="43.3885" y1="73.4434" x2="43.3885" y2="77.11" stroke="#F7B59F" stroke-width="1.22222"/>
<rect x="39.1094" y="82" width="41.5556" height="8.55556" rx="2.44444" fill="#ED5A29"/>
<circle cx="58.6671" cy="39.2218" r="13.4444" fill="#F7B59F"/>
<rect x="0.611111" y="20.2771" width="118.556" height="75.7778" rx="4.27778" stroke="#F7B59F" stroke-width="1.22222"/>
<defs>
<clipPath id="clip0_702_39221">
<rect x="13.4453" y="5" width="129.556" height="110" rx="4.88889" fill="white"/>
</clipPath>
<clipPath id="clip1_702_39221">
<rect x="13.4453" y="5" width="129.556" height="110" fill="white"/>
</clipPath>
<clipPath id="clip2_702_39221">
<path d="M18.3047 108.124C18.3047 107.617 18.7151 107.207 19.2214 107.207H56.2547C56.761 107.207 57.1714 107.617 57.1714 108.124C57.1714 108.63 56.761 109.04 56.2547 109.04H19.2214C18.7151 109.04 18.3047 108.63 18.3047 108.124Z" fill="white"/>
</clipPath>
<clipPath id="clip3_702_39221">
<path d="M58.7891 108.124C58.7891 107.617 59.1995 107.207 59.7057 107.207H96.7391C97.2453 107.207 97.6557 107.617 97.6557 108.124C97.6557 108.63 97.2453 109.04 96.7391 109.04H59.7057C59.1995 109.04 58.7891 108.63 58.7891 108.124Z" fill="white"/>
</clipPath>
<clipPath id="clip4_702_39221">
<path d="M99.2773 108.124C99.2773 107.617 99.6877 107.207 100.194 107.207H137.227C137.734 107.207 138.144 107.617 138.144 108.124C138.144 108.63 137.734 109.04 137.227 109.04H100.194C99.6877 109.04 99.2773 108.63 99.2773 108.124Z" fill="white"/>
</clipPath>
</defs>
</svg>
