<svg width="701" height="680" viewBox="0 0 701 680" fill="none" xmlns="http://www.w3.org/2000/svg">
<path fill-rule="evenodd" clip-rule="evenodd" d="M198.675 221.251C196.037 209.978 192.995 172.973 194.373 162.57C191.425 162.728 182.446 162.664 180.467 165.612C180.45 165.67 184.093 189.99 184.676 194.882L186.334 217.731C186.918 221.893 187.951 220.364 187.478 222.319C186.305 226.382 188.196 222.197 185.949 224.152L183.532 225.699C176.527 231.146 174.501 238.665 172.633 247.328L163.812 273.895C163.73 274.111 163.561 274.461 163.491 274.642L162.738 276.113C160.811 272.71 154.121 238.828 152.901 232.506C150.87 221.975 149.328 210.334 145.75 200.153C144.068 195.378 143.502 195.343 138.482 196.633C142.656 193.72 145.475 194.036 146.141 189.079C140.496 186.505 132.994 191.916 131.033 195.985C133.303 198.139 131.085 196.254 133.502 197.608L135.569 198.618C135.68 198.414 136.059 198.805 136.275 198.945C137.133 208.116 146.369 246.767 148.75 260.025L151.424 275.179C151.92 281.904 148.324 281.402 143.596 278.238C141.056 276.54 139.772 275.682 136.725 274.216C123.607 267.9 100.799 257.141 86.4375 263.055L109.106 266.47C119.427 268.478 119.509 268.916 128.505 272.763C142.224 278.635 145.89 285.296 154.407 282.43C164.419 279.062 162.458 280.865 165.633 271.916C169.113 262.103 176.054 254.076 179.837 244.596C181.43 240.603 182.446 236.295 184.606 233.697C186.609 235.477 186.69 236.055 190.135 237.421C188.757 240.755 187.794 241.455 186.416 246.289H189.125C189.93 252.424 190.917 258.776 191.81 265.67C194.495 286.382 193.532 306.75 194.799 327.713C190.59 327.392 186.755 326.954 183.585 328.279C183.404 333.043 189.288 335.296 193.655 336.645C200.561 363.229 197.152 402.476 202.995 430.731C198.956 433.136 199.026 431.822 198.909 437.934C205.512 437.164 214.975 438.641 218.466 433.69C216.253 430.707 217.923 432.354 214.064 430.731C213.737 403.597 207.158 371.992 207.298 340.906L224.409 345.319C224.735 380.456 225.909 413.626 228.407 448.104C229.195 458.95 228.536 471.297 229.166 482.75C230.03 498.401 235.372 606.369 231.63 614.671C231.209 615.611 231.268 615.184 230.795 616.323C230.678 616.089 230.573 615.756 230.515 615.587L228.612 606.597C228.121 603.853 227.777 600.018 227.503 596.924C226.907 590.141 226.452 583.643 225.722 576.988C224.362 564.624 222.249 547.304 223.083 535.231C212.686 534.747 212.832 538.664 211.373 534.262C213.842 532.879 219.265 532.575 222.885 532.797L225.197 533.317L224.916 527.146L221.396 525.418C220.777 518.407 220.97 511.262 220.287 504.315L218.215 487.94C217.391 477.14 217.59 458.185 215.278 448.162C210.234 447.17 208.004 448.162 203.568 448.909C202.225 463.825 208.057 497.742 208.968 515.517C209.248 520.929 209.82 526.469 208.489 531.74C207.917 534.023 207.216 532.026 208.424 535.844C211.262 544.811 214.905 599.709 213.912 614.192C212.669 632.4 219.651 624.373 220.445 624.069L221.606 623.772C231.712 622.429 230.859 625.902 236.574 625.78C239.709 625.716 239.96 625.108 242.266 626.311C248.378 629.498 256.23 627.776 260.002 630.952C257.106 633.637 258.583 631.921 255.909 632.458L252.874 634.297C252.809 634.128 252.634 634.711 252.494 634.904C249.161 632.388 251.052 631.18 249.377 633.054C247.147 635.535 249.663 634.63 249.727 634.706C249.861 634.881 250.988 635.809 251.216 635.914C251.362 635.984 251.659 636.083 251.817 636.13C251.963 636.171 252.272 636.212 252.43 636.229C252.582 636.253 252.885 636.229 253.049 636.235C261.035 636.299 276.926 635.319 284.112 637.858C283.896 638.021 283.575 638.167 283.4 638.243L242.132 641.296C244.537 642.937 246.826 642.143 250.404 642.738C263.639 644.933 281.479 645.354 295.145 644.7C300.142 644.466 305.233 644.379 310.604 647.636C305.472 647.823 301.614 646.369 297.089 649.002C293.044 651.361 290.749 647.624 288.648 653.637L309.833 655.021C313.861 654.916 315.292 654.606 318.059 654.77L328.059 655.476C328.211 655.488 328.52 655.5 328.678 655.511C328.929 655.529 331.398 655.564 331.632 655.593C332.157 655.657 333.062 655.856 334.469 656.136C342.618 657.765 339.39 656.253 342.607 656.27L344.79 660.263L332.04 660.543C331.894 660.572 331.585 660.613 331.433 660.643C331.275 660.672 330.96 660.701 330.809 660.73L329.635 660.934C326.891 661.775 329.267 661.098 327.458 662.785C324.153 661.985 330.715 663.888 325.397 661.483L324.183 661.028C319.763 659.714 325.128 661.629 322.309 660.724C320.476 660.141 321.375 660.158 321.62 659.434C322.595 656.609 323.319 659.253 320.551 656.317C319.127 658.424 319.921 659.732 318.578 662.084C312.787 661.81 317.726 661.273 314.387 660.292C312.338 659.691 309.973 662.16 311.147 664.087C313.639 666.504 312.635 665.248 316.512 665.529C318.771 665.692 319.156 665.727 321.643 665.85C324.124 665.966 326.745 666.107 329.244 665.896C336.22 665.313 340.096 666.492 347.662 667.017L399.882 668.669C405.211 669.364 406.741 668.179 413.215 668.699L428.061 668.664C430.688 668.144 433.986 669.434 436.882 669.662C445.09 670.316 452.953 666.089 457.88 670.823C453.117 670.929 446.578 670.788 441.756 671.034C422.532 672.02 404.698 669.434 385.182 671.81C379.257 672.534 373.454 671.425 366.88 671.518C360.301 671.612 358.293 673.013 351.107 672.575L348.591 672.312C347.802 672.312 347.429 672.405 346.962 672.435C343.296 672.656 344.819 673.649 342.344 672.791L330.523 672.423C330.464 672.248 330.19 672.335 330.032 672.382C326.004 680.73 334.253 675.085 336.337 674.279C337.014 676.685 335.531 674.53 337.324 677.28C347.522 678.272 337.907 676.293 345.21 675.359C346.29 676.924 344.148 676.013 345.21 678.237L364.131 678.377C367.371 678.161 367.47 678.582 369.706 678.664L566.505 677.805C567.666 677.858 567.55 677.899 568.84 677.84C583.86 677.122 610.037 679.743 623.762 677.7L644.428 677.811C649.04 677.975 643.652 678.412 649.326 678.85C654.014 679.212 650.867 678.728 654.475 678.091L680.809 678.698C700.226 678.798 693.699 680.245 700.22 676.568C691.23 675.978 679.35 675.155 669.42 675.803L642.811 675.78C637.382 675.61 636.232 677.408 631.713 675.99C626.681 674.408 627.428 676.036 623.581 675.558L618.917 674.04C615.274 673.065 614.743 675.062 611.007 674.326L577.328 672.738C572.518 673.707 574.164 671.763 568.355 672.721C562.214 673.736 563.51 671.746 556.247 672.563C552.418 672.995 553.095 672.867 551.192 675.032C548.04 669.107 549.394 672.452 540.912 672.452L493.1 671.722C488.809 671.711 484.115 670.391 479.416 671.401L475.207 671.705C471.482 672.02 461.003 671.839 458.417 669.422C460.91 668.284 465.143 668.897 467.373 668.856C470 668.815 473.409 668.593 476.38 668.658C483.298 668.809 519.58 669.773 524.186 668.488C524.402 668.43 526.387 667.835 526.568 667.811C528.226 667.607 526.527 667.624 528.921 668.062L591.642 669.037C594.374 668.757 595.472 667.945 595.635 665.99C595.653 665.733 595.659 665.593 595.746 665.418C600.288 667.543 599.22 670.076 614.643 668.249L620.487 667.449C620.271 662.709 620.983 663.701 616.003 663.812L597.241 664.361C592.582 664.309 594.053 663.386 588.817 663.375C584.917 663.363 584.637 663.953 581.648 663.836C568.927 663.334 554.508 661.617 541.542 662.849C536.16 663.357 530.398 662.324 525.056 662.341C521.215 662.359 516.994 660.111 515.453 665.108C514.011 661.326 510.672 662.423 506.754 663.077L503.707 662.779C503.532 662.738 503.228 662.633 503.048 662.592C497.245 661.232 477.904 661.682 471.856 661.927C461.938 662.341 447.285 660.397 435.936 660.391C432.305 660.391 432.865 660.263 430.244 660.748C428.131 661.145 428.936 661.104 428.388 660.987C428.247 660.958 428.294 663.684 427.518 660.462C427.273 659.44 419.281 660.391 418.253 660.526C417.582 660.613 415.334 661.069 415.124 661.069L414.196 660.958C405.13 659.638 376.828 660.841 374.049 659.557C374.341 659.411 377.383 658.418 380.354 658.856C385.579 659.621 403.174 656.755 412.871 657.741C426.14 659.084 428.872 656.539 440.256 657.181L452.527 656.323C459.351 656.171 472.848 656.177 479.976 656.358L585.822 656.591C590.358 656.784 595.869 657.222 600.352 656.206C600.545 656.165 600.971 656.229 601.105 655.926C601.24 655.628 601.607 655.751 601.835 655.61C597.906 652.966 584.812 654.157 578.916 654.344C574.537 654.478 570.953 653.754 566.172 653.836C544.823 654.204 518.599 654.997 498.92 653.515L423.052 648.92C415.743 648.325 402.094 650.205 396.828 647.368C405.608 646.282 471.669 645.85 490.163 646.463C510.199 647.128 531.513 645.465 551.274 646.451L555.991 646.521C574.088 644.822 603.627 647.852 618.946 646.007C625.414 645.225 647.44 648.337 650.861 645.645C639.436 641.226 561.029 644.781 532.598 643.754C532.388 643.748 530.199 643.737 529.026 643.702C525.955 643.614 528.366 643.795 526.597 643.456C520.211 642.23 499.772 642.908 491.745 642.943L472.994 641.851C451.972 640.847 379.753 641.483 373.028 637.858C376.729 636.323 398.942 636.556 405.013 636.393C409.076 636.276 412.252 636.971 414.61 634.396C401.557 633.176 384.832 635.044 372.415 632.271C357.429 628.926 357.925 630.158 358.929 626.06C359.017 625.698 361.79 624.589 358.421 622.557C355.491 620.789 350.575 623.672 356.186 628.775C353.185 628.856 351.223 629.008 349.058 626.988L348.17 625.774C344.872 627.099 345.812 627.595 342.204 626.994C338.094 626.305 340.213 625.698 336.209 626.825C336.833 624.653 337.861 624.344 339.343 623.001C335.064 623.871 333.249 625.646 328.806 624.741C331.059 617.671 371.428 580.532 383.039 573.124C389.327 569.113 397.815 565.716 403.688 560.999L404.844 559.89C388.866 562.429 369.402 579.335 359.548 587.117C352.175 592.931 348.194 598.15 341.69 604.729C339.735 606.708 325.759 621.267 323.692 621.898C327.096 608.728 362.759 571.022 374.493 562.598L393.022 548.547C394.867 546.539 393.448 549.055 394.808 545.669C388.434 548.833 383.985 552.628 378.719 556.93C373.746 560.993 368.713 564.589 363.985 568.862C354.773 577.175 345.911 588.722 336.512 593.217C337.236 590.689 344.066 579.679 346.209 576.737C349.816 571.793 356.863 566.673 358.205 561.863C353.091 564.11 339.513 583.947 336.594 589.773C332.11 598.716 326.01 602.785 320.855 610.59C319.028 613.351 318.421 615.692 315.951 617.058C321.036 602.75 336.483 579.586 345.999 566.609C349.326 562.061 356.197 556.014 358.293 551.81C347.475 557.199 328.666 585.441 320.773 597.695C319.034 600.397 312.98 612.721 310.119 613.813C317.183 590.602 333.027 560.392 346.547 543.509C351.142 537.771 355.818 534.216 359.922 529.277C364.177 524.157 366.624 519.119 371.778 514.519L383.285 505.284C389.181 499.347 396.531 496.901 402.649 491.81C391.364 493.538 382.958 502.885 375.316 509.16L364.37 519.691C359.601 522.178 365.9 516.218 360.739 521.186C359.811 522.085 355.934 527.794 354.545 529.808C351.235 534.607 345.187 541.256 341.62 545.511C331.667 557.385 315.408 586.492 309.454 601.075C307.621 605.564 303.774 617.899 300.253 619.709C302.04 617.006 307.224 597.309 308.66 592.388C313.692 575.138 323.249 560.17 331.888 544.595C334.235 540.374 343.687 524.706 344.2 521.501C336.46 526.971 323.231 557.882 317.06 568.29C312.513 575.949 307.451 583.743 303.844 592.61C301.614 598.092 297.229 616.515 294.906 619.574C292.191 615.395 303.266 563.509 305.105 555.301C308.45 540.363 314.684 526.498 319.115 512.114C320.826 506.568 324.615 503.509 325.198 500.059C312.087 503.398 298.613 570.275 294.468 587.163C293.079 592.82 292.139 597.794 291.053 603.462C290.195 607.94 289.827 616.667 287.019 618.734C279.465 613.748 289.769 590.456 284.059 582.668C281.543 587.175 282.612 596.638 282.238 602.341C282.01 605.786 282.08 616.831 279.663 617.648C281.555 599.639 282.88 580.614 283.026 561.91C283.073 555.879 284.03 548.792 283.726 543.626L268.25 543.095C268.764 554.011 264.689 614.046 262.016 618.88C258.577 617.881 262.255 619.09 259.056 617.432C257.316 616.527 257.993 616.982 256.674 616.159C257.1 597.134 257.071 577.648 256.598 556.784L243.486 557.006C243.907 568.6 243.218 578.442 242.926 589.51C242.728 596.924 243.101 606.317 241.251 613.106L240.661 618.156C237.211 616.48 239.803 618.541 238.606 615.26C238.513 615.015 238.472 614.735 238.396 614.478L237.561 604.256C238.758 578.477 234.198 544.694 233.679 517.485C233.469 506.411 231.641 495.482 231.472 483.976C231.145 460.83 230.182 437.088 228.775 413.982C228.098 402.844 226.901 391.151 226.971 379.441C227.041 367.935 226.977 356.067 226.113 344.537L247.83 348.577C248.092 351.466 248.507 355.886 247.812 358.688C246.411 364.362 245.179 360.007 244.567 365.635C245.647 373.58 246.691 364.292 247.783 372.488C248.951 381.268 247.678 391.355 247.485 400.153C247.217 412.669 246.376 424.315 245.88 437.053L263.714 439.16C262.237 433.93 262.734 437.549 261.449 434.338C257.48 424.373 263.201 378.734 260.229 362.628C265.238 361.315 271.286 361.677 274.018 357.036C268.887 357.333 268.075 358.577 260.801 357.304C260.959 353.305 260.451 354.66 264.147 353.644C262.734 347.409 261.998 351.04 261.788 343.008L262.827 308.081L248.098 308.028C247.345 311.449 248.746 336.884 248.583 343.807C240.416 342.85 233.375 338.583 226.703 335.985C226.633 319.885 227.251 284.298 223.755 270.889C222.418 274.123 224.63 329.855 226.09 335.29C220.888 335.028 210.31 331.677 206.27 330.054C205.762 324.35 206.422 322.179 211.355 320.638L206.475 318.781L201.396 247.217C207.671 250.842 220.112 268.262 227.701 272.734C226.65 265.898 220.573 254.006 217.094 250.13L199.627 234.222L201.91 226.295C202.809 224.275 233.942 197.789 238.267 192.413C225.833 195.04 205.745 208.42 198.675 221.251Z" fill="#FBD9CE"/>
<path fill-rule="evenodd" clip-rule="evenodd" d="M248.664 80.5854C245.301 82.7804 242.54 83.1306 244.443 87.8124C248.483 89.2952 252.429 85.0512 256.282 89.4587C254.063 90.7196 250.275 90.241 246.778 90.7196C249.084 101.338 248.459 174.631 249.533 177.001C254.758 175.32 252.242 174.858 252.487 162.535C252.621 155.822 252.306 149.4 252.277 142.722C252.254 136.347 252.003 130.649 252.225 126.692C252.575 120.358 252.908 112.383 252.417 106.166C252.551 106.394 252.674 106.516 252.709 106.908L254.204 176.586C265.459 176.767 262.271 176.779 261.361 162.477C259.866 138.951 261.343 116.873 261.367 93.3875C283.334 111.654 289.435 108.828 302.996 118.063L296.44 179.78C294.426 196.329 297.514 188.939 291.729 198.945L293.212 199.709C298.279 201.665 305.004 202.406 310.609 202.792C310.387 191.064 305.798 204.987 311.811 184.333L314.152 177.719C315.442 173.603 316.108 169.458 317.912 165.658C322.243 156.528 337.042 149.388 345.793 144.31C348.91 142.5 352.647 140.428 356.056 138.781C360.358 136.697 364.474 136.277 366.943 132.739C346.797 133.031 325.156 145.518 314.602 161.56C310.527 167.76 317.573 166.931 310.107 180.118C312.722 167.97 313.749 144.52 314.73 130.889L318.892 94.6776C320.077 85.0104 321.782 91.5953 323.347 85.5182C320.165 82.8446 307.929 80.9649 303.002 80.7956C303.025 88.0693 305.349 76.4406 304.607 97.3863C304.403 103.201 303.959 109.558 303.206 115.693C294 112.763 276.989 93.8253 267.981 88.7231C264.811 86.931 263.626 87.6081 262.809 84.5317L270.882 83.7027L267.257 81.426C267.134 81.3793 266.86 81.3268 266.737 81.2859C266.615 81.245 266.335 81.1867 266.212 81.14C264.064 80.3811 263.171 80.0192 261.507 78.6123L263.095 28.6007L255.365 29.1495C254.671 37.6141 255.336 46.4115 254.863 54.8061C254.641 58.7874 254.174 62.3192 254.233 66.7734C254.268 69.4821 254.904 76.1546 253.48 78.5014L252.756 39.3187C253.538 34.4326 254.91 37.5908 254.63 30.282C253.077 29.1495 253.036 29.4005 252.592 29.0852C252.411 28.9568 252.131 28.7759 251.944 28.6299L250.14 27.0129C253.742 26.972 260.363 27.3923 263.246 25.2557C266.305 22.9965 264.741 26.0672 265.704 21.4029L264.099 20.7373C261.267 20.0777 248.512 19.6282 246.655 21.6422C242.47 26.1722 249.294 20.2645 249.136 38.1687C249.008 52.2375 249.533 66.5983 248.664 80.5854Z" fill="#FBD9CE"/>
<path fill-rule="evenodd" clip-rule="evenodd" d="M248.786 234.753C245.517 235.162 233.269 228.338 229.241 226.125L215.014 221.437C212.971 224.21 216.03 223.288 209.463 228.18C209.322 228.285 209.025 228.478 208.844 228.665L214.88 229.78C214.571 234.041 214.606 238.297 217.244 241.56L216.036 230.404C221.938 233.025 226.515 236.662 232.312 239.861C237.677 242.821 245.003 245.798 249.469 249.248L248.15 297.946C251.04 297.894 259.931 298.898 261.699 296.592C264.951 288.518 258.273 263.142 262.488 254.496C263.544 253.247 262.931 254.059 269.639 256.785C272.809 258.075 274.689 259.021 277.666 260.591C284.368 264.111 289.581 263.977 289.464 272.611C293.288 272.331 293.422 272.739 295.535 274.245C291.426 276.014 287.543 272.424 285.021 277.847C286.347 282.447 288.641 281.338 293.913 281.741C298.413 282.091 302.01 283.142 306.691 282.786C306.242 277.374 304.572 278.927 300.97 275.874C303.866 266.861 305.214 238.63 305.787 226.54C306.043 221.081 307.807 214.175 307.474 209.791C314.024 207.678 312.699 211.811 311.695 204.858C309.838 203.907 304.73 205.098 300.824 204.829C296.831 204.549 293.048 202.955 290.754 203.568C289.692 206.44 289.499 207.1 294 208.466C292.926 225.244 293.72 245.716 289.604 261.723C285.704 260.667 279.33 255.769 275.844 253.516C272.213 251.163 264.151 246.785 262.085 244.397C260.835 239.552 263.328 194.082 264.647 188.933L245.856 187.252C250.304 191.805 249.347 198.571 249.276 208.805C249.212 217.491 249.171 226.084 248.786 234.753Z" fill="#FBD9CE"/>
<path fill-rule="evenodd" clip-rule="evenodd" d="M141.774 582.488C141.523 582.354 141.284 582.237 141.051 582.127L140.91 582.512L141.64 583.236L141.774 582.488ZM140.338 591.403C139.387 590.404 138.476 589.389 137.554 588.361C137.133 588.822 136.672 589.219 136.182 589.558C137.454 591.181 138.721 592.839 139.97 594.415C140.081 593.405 140.204 592.401 140.338 591.403ZM115.744 566.785C115.16 566.388 114.605 566.05 114.097 565.787C114.43 566.546 114.821 567.281 115.253 567.993C115.428 567.567 115.592 567.17 115.744 566.785ZM73.6296 584.345C73.3027 584.403 73.0108 584.485 72.7656 584.596C73.4195 585.057 74.2718 585.477 75.2409 585.874C74.6512 585.442 74.1083 584.923 73.6296 584.345ZM196.195 627.474C198.559 626.931 196.189 626.709 197.263 624.175C200.754 625.454 202.616 625.139 205.068 621.98C208.168 617.976 204.338 620.953 210.013 616.16C206.381 609.978 206.936 611.28 205.623 603.002C203.655 590.603 201.425 568.309 198.104 557.964C202.733 555.904 203.533 558.717 203.136 553.037C198.547 550.352 189.055 552.535 185.33 555.01C186.516 559.774 186.907 559.266 191.869 559.214C189.061 560.545 188.763 559.605 188.378 563.901L191.968 609.978C192.015 610.177 192.05 610.363 192.079 610.533C192.412 612.739 193.194 614.351 193.217 616.213C193.247 618.291 193.334 620.988 194.052 622.944C195.202 626.078 193.521 624.018 196.171 627.439L196.195 627.474Z" fill="#FBD9CE"/>
<path fill-rule="evenodd" clip-rule="evenodd" d="M298.178 343.69C297.454 334.817 299.03 291.916 302.976 285.658L288.434 283.901C286.543 291.256 286.123 326.872 284.605 339.744C282.702 355.95 284.622 351.315 279.117 353.796C281.919 357.292 280.693 357.876 281.902 362.015C287.909 364.187 292.322 362.505 297.81 365.617C300.303 352.505 300.968 363.603 302.177 354.66C299.526 355.092 290.197 359.009 283.373 356.755C286.28 354.765 295.901 356.574 297.862 355.068L299.363 349.271C299.812 346.855 300.384 345.132 300.951 343.042C307.857 317.573 326.333 283.65 349.942 272.751C356.427 269.75 376.253 265.594 383.801 264.263C400.205 261.373 424.706 264.8 438.6 259.587C416.113 258.437 366.895 259.593 347.174 269.931C340.134 273.621 334.617 280.258 327.536 284.975C327.705 276.143 339.918 256.516 343.894 250.381C344.547 255.88 343.876 260.182 346.194 264.432C354.419 260.778 354.927 249.815 352.09 240.381C350.665 235.658 349.644 234.753 347.18 233.527C344.337 236.417 336.888 254.806 334.349 260.077L323.298 289.417C315.749 302.809 308.767 312.336 302.597 327.964C300.548 333.153 299.882 338.244 298.178 343.69Z" fill="#FBD9CE"/>
<path fill-rule="evenodd" clip-rule="evenodd" d="M170.805 91.6829C173.637 93.7144 173.047 93.7086 173.923 97.9993C174.454 100.58 174.933 103.399 175.324 106.33C176.194 112.903 177.787 118.18 177.373 124.899L159.772 138.875C155.592 137.351 145.113 131.011 142.807 131.642C140.957 134.911 143.07 140.194 143.624 144.864C144.541 152.553 143.554 154.246 143.052 160.504C148.639 155.647 147.238 149.511 146.917 139.581L159.62 146.038C164.483 147.293 167.437 152.01 173.45 152.769C171.261 147.205 165.756 144.695 161.64 140.632C165.078 139.476 171.232 134.946 174.069 132.354C176.702 129.955 175.289 130.235 178.412 128.997L182.592 150.533C184.016 144.374 180.35 129.686 182.458 125.588C184.221 130.107 183.374 145.331 183.088 151.694L191.477 151.981C190.099 153.288 192.113 152.331 189.212 153.311C183.386 155.273 181.541 153.627 174.016 158.507C175.406 165.489 177.408 162.821 183.211 161.327C188.079 160.077 193.164 159.955 197.128 158.449C197.011 153.685 196.772 153.247 192.084 153.066C192.878 144.526 189.673 130.247 188.856 120.644C195.82 118.408 228.576 97.0828 230.812 92.5878C220.059 92.3484 214.583 97.4389 207.689 101.835C198.132 107.929 191.687 114.012 188.266 116.248L185.271 91.6246C193.59 92.2142 203.871 92.7454 213.065 92.3251C221.513 91.9456 231.419 87.8126 238.483 91.0875C234.624 85.2907 213.17 85.997 205.132 86.248C192.254 86.6567 182.066 89.5405 170.805 91.6829Z" fill="#FBD9CE"/>
<path fill-rule="evenodd" clip-rule="evenodd" d="M321.492 161.479C321.551 161.724 321.79 161.788 321.842 162.15C321.895 162.506 322.117 162.664 322.187 162.816C323.214 165.063 322.257 162.349 323.109 164.906C323.576 166.301 323.775 168.251 324.072 169.844C324.72 173.294 325.532 175.454 326.921 178.729C335.993 200.148 342.596 201.765 353.437 221.356L347.611 205.448C345.643 199.844 344.225 194.193 342.52 188.846C340.769 183.353 335.841 170.808 331.954 166.826C329.49 164.299 328.41 165.011 325.719 162.716C329.753 160.09 334.452 160.101 340.278 159.535C341.96 162.296 340.208 162.635 343.956 165.676L361.674 177.562C374.085 185.326 388.189 190.632 401.003 197.41C412.404 203.434 426.923 217.106 440.052 217.562C431.909 213.195 424.927 210.276 416.929 205.116L395.049 190.521C383.005 180.732 378.925 176.406 364.739 167.579C362.474 166.167 355.387 161.666 353.583 160.895C358.049 159.681 411.698 154.123 422.159 154.357L429.859 154.427C432.58 153.902 430.28 154.882 432.084 153.575C430.858 152.956 430.321 153.627 427.227 153.359C420.671 152.792 423.269 150.854 405.382 151.38C385.37 151.963 366.175 149.12 345.982 154.439C341.277 155.676 338.469 156.674 333.273 157.422C326.227 158.432 326.77 158.975 321.492 161.479Z" fill="#FBD9CE"/>
<path fill-rule="evenodd" clip-rule="evenodd" d="M243.398 544.448L258.618 545.365L259.12 470.607C259.733 450.38 262.202 449.364 255.453 448.465C243.328 446.854 246.072 447.613 245.961 464.262L243.398 544.448Z" fill="#FBD9CE"/>
<path fill-rule="evenodd" clip-rule="evenodd" d="M161.094 340.369C162.577 348.122 164.812 355.681 165.84 364.531C166.891 373.545 167.72 382.412 168.887 391.21C169.582 396.411 174.83 442.873 175.192 443.714C172.279 445.664 172.46 443.556 171.304 446.23C169.103 451.344 172.512 446.638 189.139 447.421C188.677 443.229 189.197 446.802 188.205 444.712C182.711 433.148 175.916 344.105 171.614 337.188L161.094 340.369Z" fill="#FBD9CE"/>
<path fill-rule="evenodd" clip-rule="evenodd" d="M65.8505 180.008L115.554 179.161C112.477 181.876 108.56 183.026 104.771 185.361C100.889 187.754 97.4565 189.815 93.9246 192.279C87.0185 197.106 80.7486 202.039 74.0994 207.912L36.4922 240.247C40.3393 239.757 39.7439 239.22 42.114 237.118C48.9326 231.088 62.774 223.574 68.8337 219.465C78.7054 212.769 113.977 192.022 118.245 182.098L119.337 179.447L124.929 179.36C125.332 185.688 117.79 185.279 112.121 201.631C110.72 205.67 109.412 210.825 107.859 215.11C106.301 219.43 103.703 223.755 102.781 227.363L118.94 207.398C123.919 199.336 127.714 190.364 127.901 179.22C122.051 174.66 105.956 171.998 96.645 172.553C87.3454 173.108 71.4607 173.966 65.8505 180.008Z" fill="#FBD9CE"/>
<path fill-rule="evenodd" clip-rule="evenodd" d="M171.57 451.443C172.557 456.014 172.656 455.401 177.688 455.418C175.972 462.044 184.262 527.876 186.106 539.504C188.033 551.699 186.048 542.867 184.017 550.077C185.616 551.122 184.087 551.46 190.561 550.52C195.254 549.837 202.406 550.654 201.933 546.031C201.448 541.273 201.781 545.249 197.677 543.171C195.196 519.621 190.012 488.582 188.395 465.249C188.097 460.917 188.471 456.924 186.042 454.671C190.164 451.431 190.905 454.94 191.448 449.195L175.884 449.785C175.867 449.785 173.689 450.316 173.59 450.351C171.494 451.133 173.076 450.252 171.57 451.443Z" fill="#FBD9CE"/>
<path fill-rule="evenodd" clip-rule="evenodd" d="M302.609 76.9146L322.37 80.4406C322.627 80.3997 322.925 80.2888 323.153 80.2362L324.665 79.5999C323.637 75.5136 323.491 76.4884 319.568 74.8889C322.032 67.0197 323.731 51.5031 324.968 42.4663L328.179 19.2965C329.364 13.6281 330.549 20.3707 331.495 13.5172C327.035 10.5283 316.772 11.0362 311.786 8.68359C311.057 12.1862 311.786 22.4664 311.582 27.3642L307.916 61.9C306.06 80.2888 305.371 69.3081 302.609 76.9146Z" fill="#FBD9CE"/>
<path fill-rule="evenodd" clip-rule="evenodd" d="M377.266 270.947C379.005 281.782 383.179 283.924 394.797 293.358C404.301 301.081 417.85 312.622 428.767 318.559L440.121 326.93C447.921 333.113 455.387 338.25 463.496 344.391C462.381 339.96 461.838 341.746 454.045 335.693C441.342 325.821 432.019 316.498 421.551 305.057C414.47 297.322 389.875 275.664 388.433 274.047C397.348 274.852 419.374 282.383 428.446 285.337C434.78 287.398 442.112 289.207 447.962 291.414C453.087 293.352 460.501 297.958 466.228 298.244C458.195 295.384 453.338 292.33 445.51 289.02C438.172 285.921 431.254 283.171 423.787 280.194C415.089 276.732 390.453 265.179 380.628 269.336L377.266 270.947Z" fill="#FBD9CE"/>
<path fill-rule="evenodd" clip-rule="evenodd" d="M270.266 530.398C281.007 529.796 285.841 533.999 285.175 522.744C284.837 516.953 286.623 506.72 286.968 501.752C287.726 490.771 289.273 479.195 289.559 467.917L275.298 466.025L270.266 530.398Z" fill="#FBD9CE"/>
<path fill-rule="evenodd" clip-rule="evenodd" d="M275 456.595C285.578 455.749 290.338 461.664 289.683 445.824C289.349 437.674 291.108 423.272 291.448 416.28C292.195 400.827 293.718 384.535 294 368.662L279.955 366L275 456.595Z" fill="#FBD9CE"/>
<path fill-rule="evenodd" clip-rule="evenodd" d="M162.57 19.5873C164.789 28.9802 166.849 37.4156 168.56 48.011C169.272 52.4419 169.908 57.7483 170.755 62.5528L172.139 74.2223C173.049 78.5072 172.734 78.8866 183.353 76.5924C184.532 67.7308 178.029 33.2067 178.455 23.3234C178.788 15.5651 179.57 22.2143 180.23 16.8086L162.57 19.5873Z" fill="#FBD9CE"/>
<path fill-rule="evenodd" clip-rule="evenodd" d="M13.6172 327.473C17.1783 326.854 21.796 323.007 24.8258 320.975L36.5423 314.087C42.5553 309.866 33.9503 313.497 43.3725 309.913C49.6015 307.543 75.5506 291.326 80.7171 287.304C84.8444 284.087 99.6958 274.881 100.589 270.112C90.5246 269.872 64.2953 288.868 54.6746 295.868L13.6172 327.473Z" fill="#FBD9CE"/>
<path fill-rule="evenodd" clip-rule="evenodd" d="M72.764 70.0615C73.3361 78.0883 82.8692 88.5553 88.8063 97.3877L102.081 116.576C105.269 120.768 102.975 120.832 105.427 125.012C109.285 125.187 113.88 123.938 116.232 121.025C114.096 117.849 116.39 120.814 113.751 118.637C109.169 114.848 101.299 103.307 97.7965 98.1991C87.8372 83.7042 63.1607 53.2197 50.1599 42.274C45.6998 38.5146 44.6315 34.3698 38.4609 32.9688C41.9811 41.2408 56.815 56.7282 63.5811 64.3697C67.4399 68.7246 68.0178 73.1671 72.764 70.0615Z" fill="#FBD9CE"/>
<path fill-rule="evenodd" clip-rule="evenodd" d="M70.5234 362.326C72.1814 361.403 73.9853 353.429 75.0945 351.007L92.3161 315.899C97.5467 306.354 116.444 278.356 110.454 268.082C102.124 272.052 89.94 297.335 85.4274 310.049L81.1074 322.472C77.7857 332.116 74.067 354.748 70.5234 362.326Z" fill="#FBD9CE"/>
<path fill-rule="evenodd" clip-rule="evenodd" d="M351.912 76.2773C349.179 73.9598 348.286 74.777 343.312 74.777C359.711 85.8511 406.168 100.901 431.58 112.588C441.3 117.054 438.416 114.421 449.234 120.69C450.886 121.648 451.575 121.887 453.227 122.512C455.825 123.498 458.65 124.596 461.487 124.975L372.834 81.5779C368.835 79.8149 362.18 78.1863 359.145 75.9154C369.91 73.1133 404.096 75.3316 412.333 71.7064C407.972 70.0018 371.655 70.2353 362.951 70.8308C357.026 71.2336 354.147 71.6247 351.912 76.2773Z" fill="#FBD9CE"/>
<path fill-rule="evenodd" clip-rule="evenodd" d="M107.578 128.916L131.414 182.004C133.072 186.196 131.525 182.518 130.456 188.84C136.481 189.261 139.073 187.194 143.177 185.274C143.165 178.198 133.667 162.331 130.235 155.536C127.87 150.855 125.278 146.085 122.926 141.135C120.153 135.291 119.038 133.925 117.981 128.665C117.613 126.856 118.419 128.117 117.362 126.412C114.613 126.564 109.814 127.177 107.578 128.916Z" fill="#FBD9CE"/>
<path fill-rule="evenodd" clip-rule="evenodd" d="M0 189.126C6.56754 187.316 19.7727 179.692 25.7506 176.371C35.9726 170.696 89.1435 136.698 93.265 126.289C77.4211 128.221 59.0962 147.375 45.3773 156.534C33.5499 164.432 23.5614 174.117 11.6289 180.947C8.76252 182.588 1.8681 186.978 0 189.126Z" fill="#FBD9CE"/>
<path fill-rule="evenodd" clip-rule="evenodd" d="M162.86 330.142C165.773 327.492 168.488 327.334 169.906 326.178C170.268 318.192 165.429 294.118 162.393 288.7C163.397 287.936 167.793 286.721 165.703 283.767C164.203 281.648 154.816 283.732 152.405 285.221C147.933 287.976 150.624 285.151 149.737 288.928C154.582 293.032 151.879 290.107 158.569 289.985L152.854 293.224C154.378 299.617 155.826 307.083 157.017 312.197C158.295 317.702 157.676 328.151 162.86 330.142Z" fill="#FBD9CE"/>
<path fill-rule="evenodd" clip-rule="evenodd" d="M18.0781 137.79C25.6147 141.444 79.0483 126.085 89.9475 124.375C101.308 122.588 98.2197 123.779 99.8134 120.744C81.8504 115.548 22.509 131.765 18.0781 137.79Z" fill="#FBD9CE"/>
<path fill-rule="evenodd" clip-rule="evenodd" d="M131.375 463.521C134.487 458.454 136.226 451.974 138.287 445.716C141.661 435.489 160.418 402.015 155.993 391.449C142.94 391.718 137.516 430.801 135.479 442.862C134.434 449.015 131.422 458.536 131.375 463.521Z" fill="#FBD9CE"/>
<path fill-rule="evenodd" clip-rule="evenodd" d="M323.141 492.866C325.598 496.445 330.771 500.234 334.828 497.408C336.766 496.06 337.665 494.133 339.09 491.605C341.232 487.805 340.286 487.694 341.868 484.694C343.053 482.44 344.507 481.559 346.223 480.018C350.818 475.879 347.519 478.471 348.874 474.589L354.968 461.08C351.18 462.026 352.931 462.639 349.236 462.936C346.054 463.188 344.379 461.343 337.589 471.436L332.75 477.431C329.264 481.208 324.32 487.595 323.141 492.866Z" fill="#FBD9CE"/>
<path fill-rule="evenodd" clip-rule="evenodd" d="M57.7812 472.108C60.1572 470.993 82.265 448.121 90.0118 441.816L101.985 432.126C111.787 423.988 141.77 399.417 145.81 391.647C135.191 390.018 125.774 401.81 119.919 407.642L57.7812 472.108Z" fill="#FBD9CE"/>
<path fill-rule="evenodd" clip-rule="evenodd" d="M434.972 476.178C431.2 475.185 427.902 475.606 424.779 475.827C419.887 476.172 409.058 479.225 406.53 483.294C404.347 486.808 405.759 500.147 417.003 495.751C420.424 494.415 424.236 492.739 426.221 490.97C428.235 489.178 426.647 489.47 429.852 487.812C431.568 486.925 440.278 485.769 434.972 476.178Z" fill="#FBD9CE"/>
<path fill-rule="evenodd" clip-rule="evenodd" d="M71.1953 411.163C72.3979 411.939 70.9093 411.659 73.1743 411.787C76.1108 411.957 129.048 395.255 132.72 393.807C136.678 392.248 139.188 391.233 143.287 390.585C149.737 389.569 150.467 391.139 153.73 386.177C129.235 385.681 127.589 387.672 108.096 394.829C102.311 396.948 73.8457 408.903 71.1953 411.163Z" fill="#FBD9CE"/>
<path fill-rule="evenodd" clip-rule="evenodd" d="M115.469 113.067C123.805 111.649 125.323 103.365 131.167 98.7006C135.527 103.528 134.045 103.814 140.344 107.936C150.729 114.731 145.738 114.783 152.2 116.511C151.272 112.501 145.586 103.248 143.519 99.7981C136.911 88.794 139.69 92.4251 140.005 79.6172C122.06 94.6784 127.051 84.5442 115.469 113.067Z" fill="#FBD9CE"/>
<path fill-rule="evenodd" clip-rule="evenodd" d="M383.676 328.64C385.386 326.072 376.198 299.715 375.252 297.164C372.281 289.131 365.433 273.416 356.005 272.873C352.776 285.553 371.481 305.844 376.758 314.344C378.907 317.812 381.831 326.119 383.676 328.64Z" fill="#FBD9CE"/>
<path fill-rule="evenodd" clip-rule="evenodd" d="M375.95 118.367C374.526 114.234 363.218 99.7214 360.025 95.3839C357.088 91.391 345.273 78.4196 338.156 77.2813C338.711 91.6478 357.614 101.076 365.407 108.723C369.249 112.483 371.624 116.125 375.95 118.367Z" fill="#FBD9CE"/>
<path fill-rule="evenodd" clip-rule="evenodd" d="M204.516 149.155L237.686 97.305C236.221 96.4002 237.003 96.5987 235.45 95.6763C233.95 94.7948 234.703 94.8649 232.473 94.2461C228.474 99.0097 226.775 100.568 223.57 105.892C219.595 112.495 204.948 145.408 204.516 149.155Z" fill="#FBD9CE"/>
<path fill-rule="evenodd" clip-rule="evenodd" d="M78.6875 170.732L85.255 161.893C87.5785 159.074 89.505 156.061 91.5833 152.425C95.3312 145.869 99.7562 136.342 96.7731 127.883C89.8436 131.339 79.4056 158.863 78.6875 170.732Z" fill="#FBD9CE"/>
<path fill-rule="evenodd" clip-rule="evenodd" d="M129.263 322.226C129.426 317.253 128.562 315.011 129.607 309.891C130.483 305.589 131.096 303.283 131.324 298.747C131.727 290.697 132.363 280.166 126.233 276.949C120.822 284.573 121.948 288.736 123.367 299.494C124.137 305.338 126.344 318.239 129.263 322.226Z" fill="#FBD9CE"/>
<path fill-rule="evenodd" clip-rule="evenodd" d="M405.609 553.111C406.076 561.979 410.764 564.705 419.264 562.119C425.534 560.21 422.574 560.198 427.174 557.093C430.052 555.149 433.637 554.664 436.789 553.006C432.726 550.432 433.07 552.364 429.387 551.681C423.368 550.566 427.069 549.031 421.979 548.523C419.994 548.325 410.268 552.172 405.609 553.111Z" fill="#FBD9CE"/>
<path fill-rule="evenodd" clip-rule="evenodd" d="M242.836 300.637C243.63 308.891 248.475 304.017 267.396 305.827C267.606 297.426 265.679 299.014 257.425 299.364C253.735 299.522 244.692 299.177 242.836 300.637Z" fill="#FBD9CE"/>
<path fill-rule="evenodd" clip-rule="evenodd" d="M244.948 184.829L267.651 185.559C268.9 182.138 268.55 183.656 267.26 180.153C263.629 178.554 258.258 178.717 253.454 178.787C246.53 178.892 244.166 177.579 244.948 184.829Z" fill="#FBD9CE"/>
<path fill-rule="evenodd" clip-rule="evenodd" d="M265.279 446.569C265.01 438.303 258.011 442.582 248.548 439.371C245.962 438.496 243.609 436.937 241.893 439.99C237.888 447.13 262.004 447.714 265.279 446.569Z" fill="#FBD9CE"/>
<path fill-rule="evenodd" clip-rule="evenodd" d="M271.807 462.67C275.455 463.546 281.55 463.849 286.045 464.275C292.367 464.877 295.391 466.546 295.905 460.171C291.912 458.811 286.424 458.648 281.41 457.959C274.585 457.019 270.44 454.754 271.807 462.67Z" fill="#FBD9CE"/>
<path fill-rule="evenodd" clip-rule="evenodd" d="M267.489 537.963C273.368 539.002 285.627 541.378 289.649 539.032C288.184 531.262 278.692 534.186 272.194 532.447L268.826 531.11C266.561 531.063 267.069 534.682 267.489 537.963Z" fill="#FBD9CE"/>
<path fill-rule="evenodd" clip-rule="evenodd" d="M240.672 552.804C244.98 553.948 255.798 554.684 259.96 553.592C260.655 546.219 256.492 545.46 241.787 547.328L240.672 552.804Z" fill="#FBD9CE"/>
<path fill-rule="evenodd" clip-rule="evenodd" d="M168.349 83.1494C168.401 86.4243 167.683 85.07 169.3 87.8487C172.12 88.5434 186.925 84.9999 189.044 83.5464C187.684 74.3695 175.074 81.1646 168.349 83.1494Z" fill="#FBD9CE"/>
<path fill-rule="evenodd" clip-rule="evenodd" d="M198.812 442.564C198.999 449.266 202.689 446.679 209.554 445.839C216.285 445.016 219.654 446.481 219.63 439.879C215.912 438.968 207.161 439.89 203.249 440.579L198.812 442.564Z" fill="#FBD9CE"/>
<path fill-rule="evenodd" clip-rule="evenodd" d="M161.82 16.3707L180.32 13.8313C179.906 9.84413 180.122 10.4863 177.179 8.93344C174.634 7.59077 173.624 7.3456 170.162 8.07531C162.766 9.62814 161.838 8.16289 161.82 16.3707Z" fill="#FBD9CE"/>
<path fill-rule="evenodd" clip-rule="evenodd" d="M312.312 4.63739C312.528 4.81252 312.855 4.80085 312.972 5.15111C313.083 5.48386 313.463 5.53639 313.626 5.62396C317.205 7.52705 326.609 9.53522 330.731 7.5971C330.416 3.38813 330.06 3.20715 322.885 1.31574C316.913 -0.26044 314.327 -1.59143 312.312 4.63739Z" fill="#FBD9CE"/>
<path fill-rule="evenodd" clip-rule="evenodd" d="M162.864 330.14C158.766 332.686 155.894 331.279 157.312 336.474C160.313 337.87 161.982 337.508 172.683 335.342L173.028 327.992C168.136 328.039 167.797 329.516 162.864 330.14Z" fill="#FBD9CE"/>
<path fill-rule="evenodd" clip-rule="evenodd" d="M221.918 654.537C218.625 658.179 218.398 659.604 220.552 664.256L228.807 664.414C232.087 658.822 230.167 654.163 221.918 654.537Z" fill="#FBD9CE"/>
<path fill-rule="evenodd" clip-rule="evenodd" d="M154.91 635.955C155.394 630.817 154.828 630.38 150.905 628.984C146.994 630.251 148.768 629.475 146.918 632.645C146.807 632.604 145.336 631.827 145.155 631.775C143.042 631.185 145.966 630.923 143.719 631.938C144.022 632.248 145.89 635.82 148.301 636.719C150.952 637.706 153.059 636.678 154.91 635.955Z" fill="#FBD9CE"/>
<path fill-rule="evenodd" clip-rule="evenodd" d="M248.367 16.6393C250.556 17.2815 253.452 17.6143 256.47 17.5267C261.362 17.3924 262.168 17.6668 262.279 13.5162C259.798 12.191 256.009 12.6581 254.619 12.6405C250.048 12.5938 249.681 11.508 248.367 16.6393Z" fill="#FBD9CE"/>
<path fill-rule="evenodd" clip-rule="evenodd" d="M206.13 643.848C206.305 644.017 214.063 647.73 213.17 640.923C212.691 637.298 209.393 637.444 206.445 638.232C204.863 641.273 204.559 640.777 206.13 643.848Z" fill="#FBD9CE"/>
<path fill-rule="evenodd" clip-rule="evenodd" d="M129.164 637.986C126.14 643.264 127.892 644.723 135.131 643.532L135.136 638.366L129.164 637.986Z" fill="#FBD9CE"/>
<path fill-rule="evenodd" clip-rule="evenodd" d="M109.689 644.857L109.21 641.022C105.842 639.124 105.754 639.586 102.649 640.835C101.82 646.953 105.504 646.404 109.689 644.857Z" fill="#FBD9CE"/>
</svg>
