<svg width="721" height="305" viewBox="0 0 721 305" fill="none" xmlns="http://www.w3.org/2000/svg">
<path d="M528.122 278.696C497.944 272.653 474.644 252.387 456.953 228.1C447.821 215.562 439.542 202.145 432.854 188.161C425.527 172.838 414.33 159.148 409.851 142.545C409.41 140.907 409.031 139.254 408.736 137.583C401.995 99.4431 442.956 65.4106 474.193 52.3076C493.932 44.0271 512.909 44.6718 533.222 49.7929C547.113 53.2949 561.222 58.6936 575.265 62.7148C593.378 67.9009 612.012 67.4688 630.461 70.2182C655.489 73.9466 680.969 81.9088 699.4 100.053C722.29 122.586 723.636 154.509 718.596 184.552C714.898 206.601 705.532 228.805 682.426 235.555C665.547 240.486 651.658 252.559 635.628 259.724C624.948 264.498 614.094 268.88 603.138 272.982C585.251 279.674 553.832 283.844 528.122 278.696Z" fill="#FFF7F2"/>
<path d="M415.497 135.021C419.409 134.106 458.584 155.793 456.95 157.578C454.994 159.714 416.853 186.269 415.497 181.416C415.049 179.81 437.268 164.409 442.499 159.175C437.048 159.231 430.582 159.446 429.355 160.035C427.289 161.027 399.223 157.453 397.881 157.387C396.54 157.321 366.792 160.559 366.188 159.185C365.583 157.81 366.519 152.476 367.86 152.543C369.202 152.609 399.455 152.758 400.796 152.824C402.138 152.89 417.5 154.994 420.183 155.126L441.927 156.2C435.789 151.849 414.701 139.792 412.673 139.023C411.679 138.646 413.919 135.391 415.497 135.021Z" fill="#F17E58"/>
<path d="M27.356 216.962V90.5392C27.356 82.0574 34.2013 75.1729 42.6568 75.1729H285.899C294.345 75.1729 301.2 82.0475 301.2 90.5392V216.962C301.2 225.443 294.355 232.328 285.899 232.328H42.6568C34.2112 232.328 27.356 225.443 27.356 216.962Z" fill="white"/>
<path d="M284.853 234.552C282.61 234.919 280.269 235.107 277.908 235.246C262.509 236.169 247.277 234.681 231.907 234.681C169.173 234.611 106.448 234.641 43.7139 234.641C19.3353 234.641 25.3213 197.272 25.1928 181.995C25.1928 161.718 24.857 141.431 24.6891 121.164C24.5804 107.951 19.8785 83.6265 34.32 75.6507C42.5384 71.1073 52.7916 72.8631 61.7509 72.8631H284.882C300.716 72.8631 303.522 88.6263 303.729 101.403C304.035 120.956 303.976 140.509 303.848 160.061C303.779 169.833 303.7 179.614 303.63 189.395C303.512 207.033 308.629 230.723 284.862 234.562L284.853 234.552ZM43.7237 77.605C22.8123 80.9481 29.6675 111.76 29.6675 126.075C29.6675 146.441 28.9662 166.807 29.0748 187.173C29.1539 202.192 23.6914 230.038 46.0648 230.117C83.5019 230.256 120.998 229.998 158.455 229.998H268.287C274.718 230.088 282.62 231.209 288.784 229.403C303.453 225.118 298.899 199.276 298.899 187.461V102.276C298.899 96.5723 299.156 90.0944 296.676 84.807C291.965 74.7678 277.365 77.4959 268.426 77.4959C197.256 77.4959 125.927 78.6962 54.787 77.0395C51.1025 76.9502 47.3786 77.0296 43.7237 77.6149V77.605Z" fill="#F1F2F4"/>
<path d="M44.6849 87.0598V219.107H43.1562V87.0598H44.6849Z" fill="#F1F2F4"/>
<path d="M283.43 218.856V220.387H44.7114V218.856H283.43Z" fill="#F1F2F4"/>
<path d="M283.43 199.918V201.449H44.7114V199.918H283.43Z" fill="#F1F2F4"/>
<path d="M283.43 180.979V182.511H44.7114V180.979H283.43Z" fill="#F1F2F4"/>
<path d="M283.43 162.044V163.575H44.7114V162.044H283.43Z" fill="#F1F2F4"/>
<path d="M283.43 143.106V144.637H44.7114V143.106H283.43Z" fill="#F1F2F4"/>
<path d="M283.43 124.168V125.699H44.7114V124.168H283.43Z" fill="#F1F2F4"/>
<path d="M283.43 105.233V106.764H44.7114V105.233H283.43Z" fill="#F1F2F4"/>
<path d="M283.43 86.2942V87.8253H44.7114V86.2942H283.43Z" fill="#F1F2F4"/>
<path d="M64.5995 87.0598V219.107H63.0708V87.0598H64.5995Z" fill="#F1F2F4"/>
<path d="M84.5126 87.0598V219.107H82.9839V87.0598H84.5126Z" fill="#F1F2F4"/>
<path d="M104.427 87.0598V219.107H102.898V87.0598H104.427Z" fill="#F1F2F4"/>
<path d="M124.34 87.0598V219.107H122.811V87.0598H124.34Z" fill="#F1F2F4"/>
<path d="M144.254 87.0598V219.107H142.726V87.0598H144.254Z" fill="#F1F2F4"/>
<path d="M164.167 87.0598V219.107H162.639V87.0598H164.167Z" fill="#F1F2F4"/>
<path d="M184.082 87.0598V219.107H182.553V87.0598H184.082Z" fill="#F1F2F4"/>
<path d="M203.995 87.0598V219.107H202.466V87.0598H203.995Z" fill="#F1F2F4"/>
<path d="M223.91 87.0598V219.107H222.381V87.0598H223.91Z" fill="#F1F2F4"/>
<path d="M243.823 87.0598V219.107H242.294V87.0598H243.823Z" fill="#F1F2F4"/>
<path d="M263.737 87.0598V219.107H262.208V87.0598H263.737Z" fill="#F1F2F4"/>
<path d="M283.661 87.0598V219.107H282.132V87.0598H283.661Z" fill="#F1F2F4"/>
<path d="M193.939 174.512C196.667 174.512 198.878 172.291 198.878 169.552C198.878 166.812 196.667 164.592 193.939 164.592C191.211 164.592 189 166.812 189 169.552C189 172.291 191.211 174.512 193.939 174.512Z" fill="#8F97A4"/>
<path fill-rule="evenodd" clip-rule="evenodd" d="M74.7984 133.08L6.79368 136.191C5.08117 136.27 3.63905 134.913 3.61652 133.193L2.23074 49.3619C2.20821 47.642 3.59399 46.239 5.3065 46.2616L75.7786 46.9405C77.4573 46.9631 78.8093 48.3435 78.7868 50.0407L77.6939 130.07C77.6714 131.688 76.3982 133 74.7871 133.08H74.7984Z" fill="white"/>
<path d="M74.8773 134.982C68.1963 135.186 61.5152 135.514 54.8454 135.808L34.8135 136.736L14.7817 137.675L9.76807 137.912L7.26691 138.026H6.95144L6.87258 138.048H6.74865H6.50078C6.16279 138.048 5.83606 137.992 5.49806 137.912C4.8446 137.754 4.22495 137.46 3.68415 137.052C2.61383 136.249 1.90404 134.959 1.78011 133.624L1.75758 133.375V133.251V133.16V132.843L1.74631 132.221L1.72378 130.965L1.64491 125.93L1.28438 105.79L1.09285 95.7197L0.867522 85.6496L0.383062 65.5206L0.135198 55.4505L0.022533 50.4155V49.7818L0 49.465V49.3858V49.2614V48.9898C0.0450661 48.2657 0.236597 47.5415 0.563326 46.8966C1.22805 45.5841 2.43357 44.5884 3.84188 44.1924C4.19115 44.0905 4.55167 44.0339 4.92347 44.0113H5.19387L5.32906 44H5.72339H6.97398H9.47514L14.4887 44.0453C17.8349 44.0679 21.1698 44.0792 24.5159 44.1245L29.5296 44.1924L34.5432 44.2829L44.5704 44.5205L54.5976 44.7468C57.9437 44.8033 61.2786 44.8599 64.6248 44.8712C66.2922 44.8939 67.9709 44.8939 69.6384 44.8939C71.3058 44.8939 72.9845 44.9052 74.652 44.8939H75.2829H75.5984C75.711 44.8939 75.7786 44.8939 75.9814 44.8939C76.6799 44.9165 77.3785 45.0862 78.0207 45.3917C79.2938 46.0027 80.2965 47.1568 80.7134 48.5259C80.7584 48.6956 80.8035 48.8767 80.8486 49.0464C80.8824 49.2274 80.9049 49.3971 80.9274 49.5782C80.9387 49.7479 80.95 49.9402 80.95 50.0986V50.4155L80.9612 51.6714L80.9837 54.1833C81.0401 60.8929 81.1528 67.6139 81.1302 74.3235C81.1077 81.0332 81.0176 87.7541 80.8373 94.4638C80.6796 101.173 80.4317 107.883 80.1951 114.593L79.8458 124.663L79.6881 129.698C79.6881 129.924 79.6881 130.06 79.6543 130.467C79.6205 130.807 79.5529 131.146 79.4628 131.486C79.26 132.153 78.922 132.764 78.4713 133.273C77.5925 134.326 76.2518 134.971 74.8998 135.004L74.8773 134.982ZM74.7083 131.18C75.0238 131.146 75.3054 130.988 75.497 130.75C75.5984 130.626 75.6547 130.49 75.6885 130.343C75.7223 130.173 75.7223 130.162 75.7223 129.63L75.6998 124.595L75.6209 114.525C75.5533 107.815 75.497 101.094 75.5195 94.3846C75.5308 87.6749 75.6096 80.954 75.7786 74.2443C75.9364 67.5347 76.2293 60.825 76.4659 54.1154L76.556 51.6035L76.6011 50.3476V50.0308C76.6011 50.0308 76.6123 49.9629 76.6236 49.9289C76.6236 49.895 76.6236 49.8724 76.6236 49.8384C76.6236 49.8045 76.6123 49.7818 76.6123 49.7479C76.556 49.5103 76.387 49.2727 76.1504 49.1482C76.0378 49.0803 75.9138 49.0464 75.7786 49.0351C75.7786 49.0351 75.6322 49.0351 75.5308 49.0237H75.2153L74.5844 49.0011C72.9169 48.9559 71.2382 48.9332 69.5708 48.8993C67.9033 48.8653 66.2246 48.8427 64.5572 48.8201C61.211 48.7748 57.8761 48.7635 54.53 48.7522L44.5028 48.7861L34.4756 48.8201H29.462L24.4484 48.7748C21.1022 48.7522 17.7673 48.6956 14.4211 48.6504L9.40755 48.5825L6.90638 48.5485L5.65579 48.5259H5.34033H5.26147H5.23893C5.23893 48.5259 5.2164 48.5259 5.19387 48.5259C5.13753 48.5259 5.09247 48.5259 5.03613 48.5485C4.83334 48.5938 4.64181 48.7409 4.54041 48.9445C4.48408 49.0464 4.46154 49.1369 4.45028 49.2614C4.45028 49.2727 4.45028 49.2953 4.45028 49.3066V49.3292V49.4084V49.7253V50.3589L4.49534 55.3939L4.58547 65.4641L4.76574 85.6043L4.86714 95.6744L5.0136 105.745L5.3178 125.885L5.39666 130.92L5.4192 132.176V132.809L5.43046 133.126C5.43046 133.149 5.43046 133.183 5.43046 133.194V133.228V133.285C5.46426 133.613 5.63326 133.918 5.90366 134.122C6.03886 134.224 6.18532 134.292 6.34305 134.326C6.42192 134.348 6.50078 134.36 6.59092 134.36H6.69231H6.77118H7.08664L9.58781 134.235L14.6014 134.009L34.6333 133.115L54.6652 132.21C61.3462 131.893 68.016 131.61 74.697 131.203L74.7083 131.18Z" fill="#D5D8DD"/>
<path fill-rule="evenodd" clip-rule="evenodd" d="M64.4899 99.273L14.3403 100.134L14.5096 94.1855L64.0837 94.5368L64.4899 99.2616V99.273Z" fill="#D5D8DD"/>
<path fill-rule="evenodd" clip-rule="evenodd" d="M68.0326 110.855L14.002 111.546L14.2614 105.167L68.0326 105.416V110.866V110.855Z" fill="#D5D8DD"/>
<path fill-rule="evenodd" clip-rule="evenodd" d="M39.4895 121.822L14.4316 122.57L13.687 116.134H39.7264L39.4782 121.833L39.4895 121.822Z" fill="#D5D8DD"/>
<path d="M164.608 169.141L203.511 133.729L244.605 172.319L284.445 145.76L285.555 147.424L244.395 174.864L203.489 136.453L164.392 172.043L123.163 121.376L85.3203 190.591L44.8955 159.888L46.1045 158.296L84.6797 187.593L122.837 117.807L164.608 169.141Z" fill="#E3E5E8"/>
<path d="M536.312 214.91C536.468 212.744 538.35 211.115 540.515 211.271L657.106 219.685C659.292 219.843 660.927 221.759 660.739 223.943L655.146 288.714C654.965 290.807 653.171 292.388 651.071 292.303L535.162 287.611C532.945 287.521 531.242 285.615 531.401 283.403L536.312 214.91Z" fill="white"/>
<path d="M657.106 219.685C659.292 219.842 660.927 221.759 660.739 223.943L655.146 288.714L655.125 288.908C654.853 290.904 653.105 292.385 651.071 292.303L535.162 287.611L535.222 286.138L651.131 290.83C652.443 290.883 653.565 289.895 653.678 288.587L659.27 223.816C659.388 222.451 658.366 221.253 657 221.155L540.409 212.741C539.056 212.643 537.879 213.662 537.782 215.015L532.871 283.508C532.772 284.891 533.836 286.082 535.222 286.138L535.162 287.611L534.956 287.597C532.841 287.401 531.247 285.546 531.401 283.402L536.312 214.91C536.468 212.744 538.35 211.115 540.516 211.271L657.106 219.685Z" fill="#23262A"/>
<path d="M536.415 223.77L659.546 230.469L659.25 231.437L536.337 225.242L536.415 223.77Z" fill="#505763"/>
<path d="M543.101 218.219C543.073 218.761 542.61 219.177 542.068 219.149C541.526 219.12 541.11 218.658 541.139 218.116C541.167 217.574 541.629 217.158 542.171 217.186C542.713 217.215 543.129 217.677 543.101 218.219Z" fill="#23262A"/>
<path d="M547.027 218.422C546.998 218.964 546.536 219.381 545.994 219.352C545.452 219.324 545.036 218.862 545.064 218.32C545.093 217.778 545.555 217.361 546.097 217.39C546.639 217.418 547.055 217.881 547.027 218.422Z" fill="#23262A"/>
<path d="M550.95 218.628C550.922 219.17 550.459 219.586 549.917 219.558C549.376 219.53 548.959 219.067 548.988 218.525C549.016 217.983 549.478 217.567 550.02 217.595C550.562 217.624 550.979 218.086 550.95 218.628Z" fill="#23262A"/>
<path d="M542.073 232.532C542.165 231.486 543.064 230.697 544.113 230.74L603.922 233.237C605.042 233.284 605.896 234.257 605.797 235.374L603.236 264.241C603.142 265.294 602.232 266.085 601.176 266.03L541.446 262.907C540.334 262.849 539.493 261.881 539.591 260.773L542.073 232.532Z" fill="#D5D8DD"/>
<path d="M652.941 237.823C653.053 236.438 651.994 235.235 650.606 235.171L613.066 233.435C611.725 233.373 610.583 234.399 610.5 235.738L607.61 282.653C607.525 284.026 608.585 285.201 609.96 285.258L646.61 286.776C647.928 286.831 649.054 285.835 649.16 284.52L652.941 237.823Z" fill="#F7B59F"/>
<path d="M539.248 267.954C539.29 267.146 539.982 266.526 540.79 266.573L577.331 268.691C577.851 268.721 578.281 269.107 578.368 269.621C578.485 270.32 577.93 270.95 577.222 270.922L540.649 269.49C539.835 269.458 539.205 268.767 539.248 267.954Z" fill="#D5D8DD"/>
<path d="M539.273 274.075C539.172 273.181 539.903 272.413 540.8 272.47L561.827 273.798C562.376 273.832 562.795 274.302 562.766 274.851C562.738 275.393 562.285 275.813 561.743 275.802L540.679 275.357C539.955 275.342 539.355 274.794 539.273 274.075Z" fill="#D5D8DD"/>
<path d="M539.05 279.576C539.05 279.019 539.516 278.577 540.071 278.605L584.666 280.908C585.556 280.954 586.108 281.896 585.714 282.695C585.492 283.143 585.023 283.414 584.524 283.383L539.959 280.545C539.448 280.513 539.05 280.088 539.05 279.576Z" fill="#D5D8DD"/>
<path d="M623.822 214.593L624.584 213.504C624.756 213.198 624.847 212.951 624.856 212.761C624.888 212.575 624.914 212.424 624.934 212.308C624.954 212.191 624.966 212.05 624.971 211.883C624.98 211.693 624.928 211.505 624.817 211.318C624.733 211.112 624.625 210.974 624.494 210.904C624.389 210.814 624.175 210.669 623.85 210.47L623.09 210.303C622.416 210.043 621.814 209.999 621.282 210.171C621.194 210.682 620.882 211.729 620.346 213.312L619.722 215.681L619.331 216.906C619.494 216.934 619.934 216.878 620.652 216.739L621.212 216.404C621.309 216.397 621.644 216.192 622.216 215.788C622.34 215.761 622.488 215.667 622.66 215.505L623.08 215.147C623.146 215.182 623.294 215.088 623.524 214.864L623.822 214.593ZM618.174 223.203L618.1 224.052C618.157 224.277 618.105 224.579 617.943 224.958C617.782 225.337 617.719 225.637 617.752 225.858C617.684 226.254 617.656 226.488 617.667 226.562C617.876 226.598 618.206 226.559 618.656 226.445C619.13 226.335 619.427 226.279 619.547 226.275C619.667 226.272 619.834 226.205 620.048 226.075C620.681 225.873 621.346 225.628 622.041 225.341L622.969 224.747C623.783 224.05 624.35 223.538 624.67 223.21L624.987 222.619C625.401 222.02 625.217 221.354 624.434 220.621C624.296 220.31 623.945 220.058 623.38 219.865L623.345 219.859C622.572 219.486 622.111 219.311 621.964 219.334L620.37 219.418C620.067 219.509 619.799 219.535 619.567 219.495C619.358 219.459 619.144 219.314 618.924 219.061L618.791 220.043C618.552 220.457 618.431 220.878 618.429 221.309C618.45 221.743 618.365 222.375 618.174 223.203ZM618.639 229.672L618.325 229.618C618.084 229.625 617.637 229.512 616.983 229.279C615.83 228.889 614.941 228.353 614.317 227.671C614.14 227.449 613.938 227.163 613.711 226.813C613.512 226.444 613.422 226.201 613.442 226.085C613.462 225.969 613.488 225.817 613.52 225.632C613.575 225.45 613.596 225.262 613.581 225.068L613.629 224.789C613.584 224.637 613.637 224.395 613.79 224.063C613.947 223.707 614.023 223.409 614.016 223.169C614.022 222.858 614.043 222.527 614.08 222.175C614.026 222.07 614.105 221.82 614.317 221.426C615.043 218.32 615.433 216.617 615.485 216.315L615.839 215.299C615.843 214.582 615.971 213.981 616.221 213.498L616.354 212.731C616.386 212.402 616.642 211.477 617.119 209.956C617.074 209.661 616.823 209.247 616.364 208.713C616.268 208.577 616.182 208.382 616.106 208.13C616.034 207.854 616.148 207.467 616.449 206.969C616.621 206.807 617.08 206.575 617.826 206.273C617.896 206.141 618.57 205.982 619.846 205.795L620.557 205.631C620.902 205.571 621.561 205.636 622.533 205.828C623.055 205.99 623.467 206.168 623.768 206.364C624.854 207.149 625.832 208 626.703 208.915C626.981 209.107 627.158 209.329 627.234 209.581C627.604 209.932 627.91 210.452 628.15 211.139C628.418 211.807 628.561 212.227 628.579 212.398C628.567 213.161 628.297 214.036 627.768 215.022C627.513 215.528 626.554 216.511 624.891 217.972C625.111 218.081 625.472 218.347 625.974 218.768C626.027 218.873 626.243 219.078 626.622 219.383C626.656 219.46 626.7 219.552 626.754 219.657C626.831 219.766 626.887 219.859 626.921 219.937L627.17 220.159L627.428 220.742L627.873 221.285C628.065 221.558 628.207 221.845 628.299 222.148C628.591 222.534 628.731 222.833 628.718 223.046L628.674 223.721C628.606 223.972 628.114 224.749 627.195 226.05C626.852 226.517 626.458 226.856 626.015 227.067L625.384 227.605C625.213 227.766 624.905 227.953 624.462 228.164C624.042 228.378 623.683 228.591 623.383 228.803C623.259 228.83 623.055 228.902 622.771 229.021C622.511 229.143 622.116 229.279 621.588 229.427C621.083 229.579 620.746 229.665 620.575 229.683C620.086 229.742 619.441 229.739 618.639 229.672Z" fill="#F7B59F"/>
<path d="M475.479 184.936C475.167 182.714 476.775 180.682 479.01 180.476L594.211 169.845C596.434 169.64 598.381 171.324 598.497 173.553L602.275 245.628C602.386 247.751 600.789 249.577 598.671 249.751L489.585 258.69C487.509 258.86 485.661 257.382 485.371 255.32L475.479 184.936Z" fill="white"/>
<path d="M597.026 173.63C596.953 172.237 595.736 171.184 594.347 171.312L479.145 181.943C477.749 182.072 476.744 183.342 476.939 184.731L486.831 255.115C487.012 256.404 488.167 257.328 489.464 257.221L598.551 248.282C599.875 248.173 600.873 247.032 600.803 245.705L597.026 173.63ZM602.275 245.628L602.28 245.826C602.286 247.863 600.723 249.583 598.671 249.751L489.585 258.69L489.391 258.701C487.46 258.765 485.765 257.41 485.403 255.512L485.372 255.32L475.479 184.936C475.167 182.714 476.775 180.682 479.01 180.476L594.211 169.845C596.434 169.64 598.381 171.324 598.498 173.553L602.275 245.628Z" fill="#505763"/>
<path d="M483.064 186.33C483.092 186.872 482.676 187.335 482.134 187.363C481.592 187.391 481.13 186.975 481.101 186.433C481.073 185.891 481.489 185.429 482.031 185.401C482.573 185.372 483.035 185.788 483.064 186.33Z" fill="#505763"/>
<path d="M486.988 186.125C487.016 186.667 486.6 187.129 486.058 187.157C485.516 187.186 485.053 186.769 485.025 186.227C484.997 185.686 485.413 185.223 485.955 185.195C486.497 185.166 486.959 185.583 486.988 186.125Z" fill="#505763"/>
<path d="M490.913 185.919C490.941 186.461 490.525 186.923 489.983 186.952C489.441 186.98 488.979 186.564 488.95 186.022C488.922 185.48 489.338 185.018 489.88 184.989C490.422 184.961 490.884 185.377 490.913 185.919Z" fill="#505763"/>
<path d="M476.748 192.564L598.899 181.243L598.977 182.715L476.786 193.3L476.748 192.564Z" fill="#505763"/>
<path d="M483.407 200.412C483.234 199.285 484.053 198.248 485.189 198.156L590.918 189.521C592.022 189.431 592.983 190.27 593.041 191.376L593.863 207.076C593.919 208.137 593.121 209.05 592.062 209.137L487.904 217.699C486.876 217.784 485.957 217.058 485.801 216.038L483.407 200.412Z" fill="#F7B59F"/>
<path d="M487.697 226.164C487.537 225.052 488.34 224.033 489.458 223.928L515.435 221.483C516.565 221.377 517.549 222.247 517.584 223.381L518.131 241.522C518.162 242.569 517.367 243.456 516.323 243.54L492.336 245.458C491.302 245.541 490.382 244.806 490.234 243.779L487.697 226.164Z" fill="#D5D8DD"/>
<path d="M522.133 223.501C522.028 222.416 522.827 221.453 523.913 221.355L555.519 218.521C556.633 218.422 557.606 219.271 557.657 220.388L558.457 237.781C558.506 238.851 557.689 239.764 556.619 239.832L525.807 241.8C524.748 241.868 523.827 241.083 523.725 240.027L522.133 223.501Z" fill="#D5D8DD"/>
<path d="M594.046 217.764C593.976 216.347 592.723 215.283 591.313 215.444L563.978 218.569C562.649 218.721 561.685 219.909 561.812 221.241L563.218 236.062C563.343 237.372 564.477 238.352 565.792 238.283L592.535 236.887C593.887 236.817 594.927 235.666 594.861 234.313L594.046 217.764Z" fill="#D5D8DD"/>
<path d="M491.448 250.238C491.255 249.363 491.877 248.518 492.77 248.444L510.337 246.982C511.258 246.905 512.02 247.69 511.915 248.609C511.837 249.303 511.279 249.846 510.582 249.905L493.018 251.393C492.279 251.455 491.608 250.962 491.448 250.238Z" fill="#D5D8DD"/>
<path d="M525.301 247.053C525.26 246.255 525.869 245.572 526.667 245.523L544.421 244.432C544.937 244.4 545.419 244.688 545.636 245.157C546.001 245.947 545.47 246.859 544.604 246.932L526.879 248.429C526.059 248.498 525.344 247.875 525.301 247.053Z" fill="#D5D8DD"/>
<path d="M564.541 243.646C564.625 243.069 565.099 242.629 565.68 242.586L583.019 241.331C583.58 241.29 584.115 241.576 584.393 242.066C584.93 243.012 584.28 244.192 583.193 244.243L565.829 245.066C565.048 245.103 564.428 244.419 564.541 243.646Z" fill="#D5D8DD"/>
<path d="M502.133 177.358C502.18 177.311 502.452 177.264 502.947 177.216C503.466 177.146 504.067 176.934 504.751 176.58C504.774 176.58 504.763 176.297 504.715 175.731C504.645 174.74 504.586 174.033 504.539 173.608C504.491 173.042 504.444 172.642 504.397 172.406C504.397 171.958 504.22 171.026 503.867 169.611L502.31 174.882C501.98 176.344 501.85 177.24 501.921 177.57L502.133 177.358ZM497.358 178.384L497.57 176.827C497.57 176.521 497.617 176.214 497.712 175.908C497.712 175.507 497.912 174.905 498.313 174.104C498.313 174.057 498.419 173.75 498.631 173.184C498.631 173.137 498.855 172.441 499.303 171.097L499.728 170.071C499.728 169.977 499.787 169.8 499.905 169.541C500.023 169.258 500.105 168.986 500.152 168.727C500.223 168.444 500.306 168.173 500.4 167.913C500.73 167.277 501.025 166.734 501.284 166.286C501.78 165.343 502.699 164.919 504.043 165.013L505.175 165.119C505.883 165.308 506.425 165.508 506.802 165.72C507.345 165.933 507.71 166.168 507.899 166.428C508.088 166.664 508.17 167.064 508.147 167.63C508.17 167.913 508.241 169.14 508.359 171.309C508.477 173.479 508.536 174.575 508.536 174.599L508.713 176.12C508.713 176.261 508.972 177.959 509.491 181.214L510.269 183.69C510.741 185.01 510.988 185.706 511.012 185.777C511.059 185.824 511.165 186.071 511.33 186.52C511.59 187.298 511.366 187.817 510.658 188.076C510.021 188.17 509.55 188.111 509.243 187.899C509.125 187.899 508.854 187.793 508.43 187.581C508.382 187.463 508.241 187.345 508.005 187.227C507.793 187.133 507.651 187.05 507.581 186.979C507.321 186.909 507.085 186.543 506.873 185.883C506.802 185.836 506.673 185.647 506.484 185.317C506.319 184.987 506.272 184.716 506.343 184.503C506.178 184.291 506.095 183.855 506.095 183.195C505.883 182.841 505.777 182.287 505.777 181.532C505.777 180.777 505.659 180.188 505.423 179.763C504.22 180.306 502.935 180.6 501.567 180.648C501.308 180.648 501.178 180.695 501.178 180.789C501.178 181.001 501.107 181.379 500.966 181.921L500.365 185.812C500.6 187.557 500.388 188.477 499.728 188.571C499.539 188.571 499.221 188.618 498.773 188.713C498.348 188.807 497.995 188.724 497.712 188.465C497.169 188.158 496.78 187.84 496.544 187.51C496.332 187.203 496.238 186.85 496.261 186.449C496.285 186.119 496.344 185.411 496.438 184.326C496.485 184.279 496.497 184.02 496.474 183.548C496.474 183.053 496.509 182.676 496.58 182.416L497.146 180.223C497.216 180.176 497.311 179.822 497.429 179.162C497.405 179.115 497.393 178.997 497.393 178.808L497.358 178.384Z" fill="#F7B59F"/>
<path fill-rule="evenodd" clip-rule="evenodd" d="M692.43 107.552C699.798 131.516 684.907 164.379 661.027 171.738C637.062 179.106 610.704 157.779 602.43 142.134C588.253 115.388 609.535 88.6064 633.509 81.323C663.359 72.1242 685.071 83.6715 692.43 107.552Z" fill="#F7B59F"/>
<path d="M703.516 131.032C703.464 132.151 703.319 133.195 703.183 134.323C702.954 135.375 702.818 136.504 702.503 137.565C702.189 138.627 701.875 139.688 701.56 140.75C701.161 141.821 700.753 142.807 700.345 143.793C699.852 144.788 699.35 145.698 698.772 146.703C698.186 147.622 697.599 148.542 697.097 149.452C696.511 150.372 695.924 151.291 695.338 152.211C694.751 153.13 694.164 154.05 693.569 154.885C691.128 158.487 688.322 161.872 685.216 164.86C682.026 167.858 678.536 170.46 674.729 172.496C674.324 172.711 673.797 172.596 673.582 172.19C673.368 171.785 673.492 171.344 673.812 171.138C677.235 168.715 680.462 166.056 683.483 163.076C686.513 160.181 689.262 157.06 691.711 153.542C692.298 152.622 692.894 151.788 693.396 150.877C693.898 149.967 694.399 149.056 694.901 148.146C695.31 147.16 695.727 146.258 696.135 145.272C696.458 144.295 696.867 143.309 697.275 142.323C697.598 141.346 698.006 140.36 698.424 139.459C698.747 138.482 699.155 137.496 699.563 136.51C699.887 135.533 700.295 134.547 700.619 133.57C700.942 132.593 701.265 131.616 701.758 130.621L701.749 130.536C701.958 130.086 702.448 129.862 702.983 130.061C703.264 130.288 703.479 130.693 703.516 131.032Z" fill="#F7B59F"/>
<path d="M653.836 68.0067C657.447 68.1332 661.085 68.5137 664.694 69.4115C666.527 69.7288 668.226 70.403 669.993 70.8987C670.876 71.1466 671.693 71.5729 672.585 71.9055C673.477 72.2381 674.285 72.5797 675.101 73.006C681.719 76.4076 687.6 80.9162 692.394 86.4836C693.069 87.1821 693.574 87.8988 694.164 88.6065C694.669 89.3232 695.344 90.0217 695.773 90.8322C696.708 92.3595 697.812 93.8685 698.596 95.5833C700.399 98.8161 701.543 102.291 702.602 105.775C704.466 112.77 705.181 120.232 703.987 127.469C703.948 127.902 703.467 128.21 703.034 128.171C702.602 128.132 702.302 127.736 702.342 127.303C702.961 120.299 702.028 113.203 700.276 106.453C699.32 103.129 698.185 99.7389 696.57 96.6572C695.88 95.0181 694.869 93.5846 693.944 92.1421C693.438 91.4254 692.933 90.7087 692.428 89.9919C691.923 89.2752 691.418 88.5585 690.752 87.9446L689.001 85.9911C688.42 85.3681 687.755 84.7542 687.098 84.2251L686.142 83.2997L685.111 82.4681C684.454 81.9389 683.713 81.4188 683.057 80.8897C681.584 79.9341 680.111 78.9786 678.571 78.2016C677.764 77.8599 677.032 77.4245 676.215 76.9982L673.792 75.9732C667.407 73.1463 660.699 71.2963 653.754 69.6429C653.228 69.5281 653.004 69.0382 653.043 68.6057C653.007 68.2669 653.403 67.9674 653.836 68.0067Z" fill="#F7B59F"/>
<path d="M614.303 81.1567C614.805 80.2462 615.418 79.5807 616.117 78.9062C616.815 78.2316 617.523 77.6418 618.418 77.2031C619.229 76.7735 620.218 76.4104 621.037 76.0655C621.932 75.6268 622.743 75.1972 623.544 74.6829C625.156 73.7391 626.862 72.8708 628.577 72.0872C630.301 71.3883 632.118 70.765 634.048 70.3867C634.471 70.3412 634.931 70.6345 635.061 71.0489C635.097 71.3876 634.973 71.8292 634.559 71.9593C632.938 72.8185 631.214 73.5174 629.584 74.2919C627.86 74.9908 626.23 75.7653 624.609 76.6245C623.799 77.0541 622.997 77.5684 622.281 78.0736C621.573 78.6634 620.959 79.3289 620.252 79.9188C619.94 80.2092 619.544 80.5087 619.139 80.7234C618.733 80.9382 618.337 81.2377 617.932 81.4525C617.121 81.8821 616.311 82.3117 615.313 82.5901C614.814 82.7293 614.269 82.4451 614.13 81.9461C614.094 81.6073 614.151 81.3442 614.303 81.1567Z" fill="#F7B59F"/>
<path d="M604.624 161.001C602.262 158.942 600.041 156.61 598.293 153.885C596.469 151.254 595.041 148.324 593.867 145.366C593.44 143.784 592.853 142.305 592.596 140.706C592.429 139.953 592.254 139.115 592.172 138.353L591.833 135.991C591.666 135.237 591.66 134.382 591.578 133.619C591.497 132.857 591.406 132.01 591.324 131.248C591.33 129.706 591.157 128.097 591.248 126.545L591.332 124.138L591.595 121.797L591.722 120.584L591.942 119.447L592.29 117.097C592.903 114.033 593.686 110.951 594.741 108.011C596.842 102.046 600.023 96.5655 603.945 91.6048C604.248 91.2297 604.756 91.1752 605.131 91.4776C605.506 91.78 605.551 92.2034 605.334 92.5694C601.938 97.6449 599.096 103.089 597.137 108.782C596.073 111.637 595.272 114.55 594.649 117.529L594.292 119.794L594.072 120.931L593.936 122.06L593.664 124.316L593.561 126.554L593.51 127.673C593.547 128.012 593.507 128.444 593.544 128.783L593.62 131.088C593.701 131.85 593.783 132.612 593.865 133.374C593.947 134.136 594.028 134.898 594.186 135.567L594.676 137.741C594.843 138.494 595.085 139.154 595.336 139.898C595.744 141.31 596.407 142.695 596.9 144.098C599.118 149.6 602.155 154.756 605.852 159.67C606.151 160.066 606.045 160.677 605.649 160.977C605.422 161.258 604.905 161.228 604.624 161.001Z" fill="#F7B59F"/>
<path d="M629.79 176.803C628.595 176.846 627.543 176.616 626.481 176.302C625.42 175.987 624.349 175.588 623.354 175.095C622.349 174.518 621.506 173.837 620.586 173.251C620.126 172.957 619.666 172.664 619.122 172.38C618.662 172.087 618.203 171.793 617.667 171.594C615.753 170.514 613.913 169.341 612.065 168.083C610.293 166.731 608.681 165.277 607.21 163.55C606.911 163.154 606.941 162.637 607.337 162.337C607.649 162.047 608.081 162.086 608.363 162.313L613.559 166.038C615.238 167.314 616.992 168.497 618.822 169.585C619.733 170.087 620.643 170.589 621.629 170.997C622.615 171.405 623.668 171.635 624.645 171.959C625.18 172.158 625.631 172.367 626.081 172.575C626.532 172.784 627.076 173.068 627.527 173.277C627.978 173.486 628.438 173.779 628.897 174.072C629.357 174.365 629.817 174.659 630.286 175.037C630.661 175.339 630.724 175.932 630.431 176.392C630.383 176.74 630.053 176.861 629.79 176.803Z" fill="#F7B59F"/>
<path d="M518.332 134.972C518.592 135.745 518.827 136.539 519.087 137.311C519.255 137.795 519.398 138.299 519.615 138.764C520.499 140.693 522.347 142.05 524.321 142.786C526.317 143.525 528.458 143.69 530.586 143.737C532.621 143.775 534.761 143.683 536.473 142.592C538.186 141.501 539.417 138.962 540.24 137.066L535.147 138.234L529.095 138.053L520.793 136.29L518.332 134.972Z" fill="#505763"/>
<path d="M516.317 132.546L517.975 137.659C518.141 138.165 518.305 138.695 518.563 139.233C519.528 141.31 521.421 142.952 523.94 143.877C525.37 144.402 526.848 144.649 528.266 144.774C529.079 144.845 529.851 144.866 530.599 144.886C532.845 144.919 535.198 144.799 537.16 143.542C539.071 142.328 540.348 139.793 541.371 137.494L542.334 135.329L535.09 136.987L529.296 136.805L521.245 135.112L516.317 132.546ZM538.097 138.752C537.485 139.846 536.705 140.995 535.836 141.551C534.42 142.458 532.492 142.545 530.619 142.521C528.773 142.475 526.651 142.359 524.745 141.652C522.863 140.947 521.378 139.716 520.713 138.228C520.596 137.96 520.481 137.668 520.368 137.354L520.413 137.381L528.992 139.191L535.299 139.395L538.097 138.752Z" fill="#505763"/>
<path d="M528.871 137.423C530.801 137.851 532.767 138.141 534.724 138.267C535.679 138.328 536.636 138.365 537.574 138.354C538.417 138.358 540.337 138.644 540.964 137.903C541.278 137.532 541.896 137.962 541.582 138.332C540.616 139.465 538.352 139.102 537.018 139.078C534.584 139.051 532.169 138.815 529.797 138.348C525.304 137.484 520.998 135.84 517.055 133.524" fill="#B9BEC6"/>
<path d="M539.281 141.527C535.309 141.669 531.303 140.871 527.451 139.923C523.92 139.049 520.091 138.103 517.179 135.785C516.806 135.494 517.236 134.876 517.608 135.167C520.454 137.432 524.239 138.351 527.7 139.218C531.462 140.135 535.423 140.906 539.323 140.781C539.841 140.756 539.775 141.5 539.281 141.527Z" fill="#B9BEC6"/>
<path d="M537.642 143.679C530.613 143.692 523.749 141.822 517.694 138.22C517.271 137.972 517.721 137.379 518.123 137.602C524.068 141.124 530.797 142.935 537.71 142.912C538.177 142.929 538.111 143.673 537.642 143.679Z" fill="#B9BEC6"/>
<path d="M532.18 145.283C527.756 144.706 523.514 143.395 519.574 141.314C519.148 141.089 519.421 140.387 519.823 140.61C523.719 142.663 527.891 143.968 532.245 144.539C532.708 144.603 532.666 145.349 532.18 145.283Z" fill="#B9BEC6"/>
<path d="M514.774 111.535C514.161 114.503 513.642 117.48 513.329 120.498C513.172 122.007 513.063 123.52 513.024 125.016L512.994 126.162L513.012 127.288L513.032 127.852C513.039 128.04 513.046 128.228 513.051 128.439C513.079 128.653 513.086 128.841 513.114 129.054L513.223 129.673C513.409 130.486 513.76 131.29 514.24 131.965C514.74 132.665 515.346 133.234 516.009 133.69C516.669 134.17 517.363 134.536 518.06 134.878C518.756 135.221 519.433 135.515 520.156 135.813C523.007 136.954 525.991 137.662 529.032 137.977C532.073 138.292 535.149 138.211 538.167 137.727C538.928 137.607 539.667 137.461 540.429 137.317C541.194 137.15 541.96 136.96 542.764 136.609C543.154 136.433 543.547 136.233 543.924 135.938C544.3 135.667 544.656 135.347 544.923 134.972C545.214 134.599 545.439 134.174 545.615 133.768C545.766 133.383 545.917 132.998 546.045 132.611C546.533 131.061 546.719 129.484 546.85 127.996L547.046 125.764L547.243 123.532C547.482 120.554 547.676 117.549 547.752 114.557L545.369 114.487" fill="#D5D8DD"/>
<path d="M514.507 108.676C514.3 111.024 514.226 113.197 516.242 114.78C519.748 117.525 524.468 117.941 528.737 118.411C535.978 119.189 547.981 120.434 549.362 110.598C550.75 100.693 556.846 92.3973 562.554 84.5125C569.168 75.3955 575.72 65.1016 575.994 53.4815C576.24 42.9835 571.113 32.8322 563.561 25.7474C554.299 17.0593 541.227 13.5884 528.831 16.0108C518.486 18.0281 509.463 24.4494 503.855 33.327C497.426 43.5381 495.789 57.873 500.458 69.2257C502.964 75.3506 506.401 81.0186 509.249 86.9861C512.45 93.7345 515.175 101.355 514.508 108.934" fill="#F7B59F"/>
<path d="M565.389 41.2078C565.185 39.8074 563.849 34.4885 561.51 35.2431C561.634 34.9026 561.755 34.5853 561.856 34.2427C562.712 35.9581 563.376 37.727 563.893 39.5765C563.405 39.5335 562.94 39.4925 562.452 39.4495C563.341 36.2712 559.555 34.8365 557.254 34.095C557.478 33.6696 557.705 33.221 557.954 32.7977C561.039 34.4753 563.141 37.472 563.726 40.9441C563.438 40.7547 563.152 40.5421 562.864 40.3527C563.776 40.1051 564.581 40.2698 565.325 40.8741C566.068 41.4784 565.212 42.6916 564.468 42.0872C564.083 41.6784 563.622 41.5909 563.134 41.8057C562.75 41.9124 562.335 41.5713 562.273 41.2144C561.727 38.0971 559.867 35.5435 557.095 34.0341C556.335 33.6158 557.021 32.4813 557.795 32.7369C561.029 33.7949 565.011 35.9263 563.854 40.0182C563.645 40.7964 562.592 40.5162 562.413 39.8913C561.932 38.1621 561.279 36.5348 560.508 34.9205C560.348 34.6019 560.49 34.0521 560.854 33.9201C564.544 32.7222 566.423 38.253 566.84 40.9607C566.993 41.8879 565.54 42.1582 565.389 41.2078Z" fill="white"/>
<path d="M564.033 42.2599C564.164 39.4365 563.721 35.1569 560.028 35.0658C560.27 34.7122 560.512 34.3587 560.777 34.0072C561.943 36.7339 563.701 39.1146 565.992 41.0267C565.608 41.1335 565.245 41.2655 564.861 41.3722C565.703 38.1898 562.925 33.025 559.35 32.9209C559.592 32.5673 559.834 32.2138 560.099 31.8623C560.963 34.0236 561.947 36.1486 563.054 38.2141C563.317 38.6825 563.604 39.1529 563.844 39.6192C564.052 39.9186 564.211 40.2372 564.343 40.6003C564.255 40.2646 564.143 39.9501 564.032 39.6123C563.636 38.5231 563.096 37.4681 562.453 36.5212C561.914 35.724 561.283 34.9186 560.59 34.2718C560.176 33.6497 559.663 33.6279 559.028 34.1811C559.19 34.4765 559.374 34.7739 559.561 35.0481C559.871 35.5205 560.206 35.9718 560.564 36.4251C561.909 38.1835 563.483 39.7279 565.238 41.0774C564.848 41.2539 564.457 41.4304 564.065 41.6301C564.449 39.1336 562.976 36.9656 561.526 35.0806C561.21 34.6779 560.469 33.5115 559.786 33.8261C559.053 34.1599 559.699 35.3414 559.869 35.8016C560.35 36.9919 561.002 38.1037 561.778 39.1326C562.221 39.6871 564.049 42.0739 564.602 41.1151C565.046 40.3342 564.606 38.6789 564.397 37.8638C564.121 36.7384 563.609 35.6389 562.943 34.69C562.652 34.2661 562.334 33.8866 561.991 33.5284C561.584 33.0942 560.685 32.1248 560.192 31.8705C561.022 32.295 560.523 33.7036 559.67 33.2771C558.819 32.8273 558.542 31.7251 559.396 31.074C560.606 30.1029 562.182 31.624 563.002 32.4226C565.199 34.6076 566.771 38.3072 566.095 41.4575C565.164 45.6396 560.84 40.4791 559.87 38.9879C559.023 37.6951 557.835 35.7629 557.976 34.1587C558.086 32.9033 559.204 32.1817 560.426 32.4065C562.132 32.7208 563.258 34.8349 564.1 36.1743C565.168 37.8849 565.894 39.7529 565.572 41.8097C565.502 42.3424 564.883 42.7097 564.399 42.3624C562.863 41.1728 561.457 39.8541 560.204 38.3848C559.269 37.295 557.659 35.6303 557.486 34.139C557.343 32.8378 558.519 31.9808 559.745 32.1591C561.271 32.3873 562.504 34.089 563.339 35.2403C563.986 36.1408 567.888 42.6463 564.583 42.402C563.162 42.3003 562.294 39.9278 561.75 38.9193C560.618 36.875 559.657 34.752 558.795 32.5675C558.585 32.0335 558.959 31.5042 559.545 31.5089C564.172 31.6354 567.395 37.8702 566.31 41.945C566.201 42.3806 565.528 42.579 565.178 42.2905C562.69 40.2204 560.76 37.6606 559.499 34.6912C559.265 34.1551 559.663 33.6279 560.248 33.6326C564.854 33.7338 565.766 38.8045 565.612 42.4224C565.483 43.3482 563.995 43.2172 564.033 42.2599Z" fill="white"/>
<path d="M565.197 41.214C565.338 40.9453 565.502 40.6786 565.64 40.4331C565.723 39.7609 566.781 39.4558 567.045 40.1819C567.5 41.3935 566.899 42.6292 565.59 42.8653C564.756 43.0261 564.37 41.8207 565.128 41.4657C566.252 40.9322 565.366 38.23 565.015 37.4259C564.511 36.2335 563.739 35.158 562.988 34.1079C563.41 33.8405 563.808 33.571 564.23 33.3036C564.784 34.9924 565.317 36.656 565.871 38.3448C565.413 38.4919 564.932 38.6369 564.472 38.8072C564.222 36.3252 563.162 33.7249 561.197 32.0992C560.739 31.7075 559.511 30.7558 559.069 32.0523C558.872 32.691 559.323 33.6913 559.578 34.2527C560.109 35.4006 560.932 36.4337 561.738 37.395C561.844 37.5215 563.942 39.768 563.942 39.768C564.54 39.0944 562.73 36.4984 562.334 35.948C561.668 34.999 560.891 33.9701 559.97 33.2563C559.138 32.5973 557.999 32.497 558.202 33.9205C558.32 34.7041 558.635 35.3879 558.996 36.0757C559.461 36.9132 558.093 37.5425 557.652 36.707C556.887 35.2808 555.861 32.5663 557.603 31.4078C559.271 30.2895 561.248 32.3146 562.249 33.457C563.673 35.1054 565.272 37.1674 565.401 39.428C565.503 41.1942 564.382 42.22 562.977 40.8779C561.183 39.1736 559.276 37.1546 558.236 34.8607C557.607 33.4933 557.002 31.0502 558.588 30.0654C560.347 28.9786 562.462 31.0392 563.452 32.2979C564.864 34.0857 565.705 36.245 565.95 38.5157C566.022 39.2952 564.827 39.8226 564.55 38.9782C563.996 37.2893 563.463 35.6258 562.909 33.9369C562.668 33.2129 563.608 32.3819 564.151 33.1326C565.361 34.8323 566.589 36.5806 566.969 38.6523C567.22 40.0568 567.255 42.0514 565.784 42.7887C565.637 42.3306 565.492 41.8492 565.322 41.3891C565.457 41.1901 565.568 40.989 565.703 40.79C566.178 40.7147 566.655 40.6162 567.107 40.5389C567.014 41.3273 566.735 41.8415 566.127 42.3503C565.417 42.9672 564.44 41.8268 565.197 41.214Z" fill="white"/>
<path d="M568.558 53.6231C568.625 52.8559 568.346 51.7769 568.525 51.0665C568.264 50.5749 568.426 50.3314 568.988 50.3341C569.033 50.6192 569.057 50.879 569.102 51.1641C569.286 52.5392 569.493 53.9163 569.676 55.2913C569.182 55.3181 568.687 55.3448 568.195 55.3483C568.403 54.3123 568.614 53.2532 568.613 52.1988C568.618 51.6135 568.574 51.0473 568.437 50.4729C568.403 50.3294 567.822 48.9427 568.033 48.9379C568.24 48.7218 568.448 48.4825 568.632 48.2643C568.507 48.8859 568.919 49.7891 569.077 50.3887C569.288 51.1805 569.477 51.9703 569.523 52.771C569.603 54.2541 569.176 55.6456 568.724 57.0583C568.448 56.7295 568.173 56.4006 567.897 56.0718C568.805 55.8706 568.889 53.3242 568.883 52.5974C568.883 52.0586 568.816 51.4903 568.722 50.9666C568.589 50.3457 568.461 49.9362 568.385 50.7964C568.305 51.7031 568.723 52.8176 568.877 53.7215C569.028 54.6719 569.109 55.6162 569.071 56.5735C568.589 56.4607 568.107 56.348 567.623 56.2585C567.917 55.0427 568.074 53.7914 568.069 52.5257C568.063 51.7988 568.01 51.0679 567.909 50.3561C567.861 50.0942 567.522 48.8929 567.6 48.806C568.418 48.0346 568.009 50.0135 568.011 49.9903C567.964 50.525 567.915 51.083 567.914 51.6218C567.908 52.4881 567.764 55.1931 568.678 55.7188C568.422 55.6963 568.19 55.6758 567.934 55.6533C568.628 55.2224 568.65 53.3735 568.69 52.6507C568.768 51.5095 568.585 50.3922 568.261 49.2859C567.99 48.3718 569.466 48.1035 569.737 49.0177C570.324 51.1312 570.82 55.603 568.565 56.9975C568.342 57.1418 568.02 57.0667 567.821 56.932C566.397 56.0802 566.466 53.4388 566.449 52.0316C566.435 50.8589 566.15 47.7177 567.534 47.1602C569.062 46.5685 569.249 49.2325 569.385 50.0878C569.725 52.3436 569.552 54.5775 569.006 56.7786C568.791 57.6266 567.537 57.2349 567.558 56.4636C567.586 55.0838 567.326 53.7723 567.094 52.4164C566.953 51.6308 566.724 50.7672 566.842 49.9576C567.044 48.7336 568.251 48.0668 569.303 48.8858C570.487 49.8101 570.415 52.217 570.299 53.5421C570.174 54.9603 569.766 57.197 568.142 57.546C567.568 57.6828 567.131 57.0586 567.315 56.5594C567.86 54.8971 568.206 53.3578 567.842 51.6389C567.628 50.6126 566.929 49.239 567.14 48.1798C567.19 47.8796 567.408 47.524 567.738 47.5062C568.891 47.4438 569.445 48.8748 569.739 49.791C570.323 51.67 570.01 53.6338 569.632 55.5218C569.495 56.2828 568.283 56.4806 568.151 55.5787C567.936 54.0369 567.676 52.4676 567.509 50.9066C567.431 50.1969 567.394 49.2799 568.239 49.0029C570.434 48.2825 570.06 52.7948 569.997 53.7733C569.983 54.7326 568.495 54.6016 568.558 53.6231Z" fill="white"/>
<path d="M539.56 117.912C540.948 102.43 542.605 86.2698 551.392 72.9629C551.93 72.1669 553.143 73.0235 552.605 73.8195C543.957 86.8809 542.39 102.815 541.025 118.041C540.964 118.996 539.476 118.865 539.56 117.912Z" fill="white"/>
<path d="M522.382 116.633C526.519 98.3945 524.341 78.9674 516.341 62.0732C515.927 61.1933 517.271 60.5619 517.686 61.4419C525.885 78.7286 528.007 98.5256 523.789 117.155C523.565 118.096 522.161 117.55 522.382 116.633Z" fill="white"/>
<path d="M555.812 69.0882C554.388 70.884 553.342 72.9238 551.918 74.7196C551.337 75.465 550.122 74.6317 550.705 73.863C552.558 71.449 554.21 68.9236 556.367 66.7708C556.685 67.1502 557.003 67.5296 557.321 67.9091C555.149 69.9669 552.19 71.3698 549.163 71.4311C545.854 71.491 546.162 68.2615 546.235 65.8314C546.367 62.2115 546.481 58.5197 547.031 54.9367C547.475 52.0237 548.399 49.2468 550.508 47.1131C550.793 46.8101 551.298 46.9249 551.554 47.2052C552.644 48.4024 552.383 50.3006 552.298 51.7926C552.186 53.8678 551.817 55.9206 551.288 57.9358C550.379 61.3466 548.91 64.9893 546.303 67.454C544.284 69.3613 540.494 70.9017 538.728 67.8175C537.976 66.5095 537.91 64.8637 537.805 63.4018C537.644 61.2322 537.53 59.0667 537.628 56.8964C537.82 53.1178 538.75 49.2168 541.014 46.1128C541.6 45.3209 542.555 44.0462 543.731 44.5246C545.02 45.0598 544.704 47.0469 544.703 48.1246C544.679 52.3865 544.104 56.7874 542.807 60.867C541.961 63.5571 540.568 66.3396 538.09 67.8784C536.923 68.6192 535.277 69.2239 533.919 68.6825C532.47 68.1097 531.643 66.3265 530.934 65.0692C529.131 61.8646 527.845 58.3775 527.085 54.7728C526.291 51.0245 526.073 47.116 526.478 43.3094C526.602 42.1723 526.601 40.3213 527.543 39.4671C528.359 38.7189 529.688 38.7892 530.181 39.84C530.515 40.5723 530.427 41.572 530.475 42.3495C530.55 43.3635 530.601 44.3755 530.651 45.4107C530.754 47.6924 530.763 49.9892 530.68 52.2546C530.591 54.3319 530.384 56.4223 530.039 58.4771C529.744 60.2317 529.496 62.2481 528.361 63.6945C527.514 64.7914 526.09 65.5328 524.691 65.1987C523.152 64.8522 522.228 63.3652 521.447 62.1249C519.658 59.2964 518.54 56.0349 518.224 52.7036C518.039 50.813 518.07 48.8711 518.398 47.0023C518.638 45.6176 518.865 43.037 520.245 42.2682C521.451 41.6014 522.346 42.6173 522.623 43.7195C523.196 45.9957 523.106 48.6119 523.229 50.9422C523.35 53.2957 523.4 55.6431 523.38 58.0076C523.357 59.8565 523.545 61.9817 522.762 63.6933C522.184 64.931 521.033 65.7667 519.627 65.5023C517.805 65.1778 516.953 63.4159 516.338 61.8857C515.995 60.9886 517.339 60.3573 517.682 61.2543C518.161 62.468 519.109 64.7304 520.734 63.8426C521.867 63.2161 521.823 61.3146 521.854 60.1692C521.938 57.084 521.904 54.0118 521.731 50.9274C521.647 49.4908 521.56 48.0774 521.427 46.66C521.368 45.9987 521.31 45.3376 521.227 44.6743C521.184 44.3659 521.259 44.0445 520.969 43.8784C520.569 43.6323 520.555 44.3339 520.431 44.6744C519.605 47.132 519.408 49.9027 519.65 52.4778C519.878 54.9345 520.555 57.3605 521.649 59.5655C522.185 60.667 522.813 61.7767 523.598 62.7126C525.08 64.5066 526.954 63.7111 527.734 61.765C528.811 59.1186 528.937 55.8262 529.115 53.007C529.292 49.93 529.235 46.8557 529.059 43.7945C529.009 43.0403 528.96 42.2628 528.909 41.5086C528.894 41.4136 528.89 40.6635 528.822 40.6341C528.463 40.4618 528.208 41.4937 528.206 41.517C527.842 42.7266 527.854 44.1803 527.79 45.4398C527.652 48.0751 527.839 50.7391 528.29 53.3326C528.764 55.9281 529.498 58.4997 530.525 60.9331C531.027 62.1488 531.626 63.3262 532.253 64.4591C533.062 65.9127 533.838 67.7382 535.823 67.2805C540.677 66.1618 541.973 58.8958 542.607 54.8984C542.752 54.0443 543.55 46.0549 542.935 46.1179C542.629 46.1378 541.931 47.4118 541.796 47.6108C541.443 48.1654 541.11 48.7453 540.823 49.3525C540.188 50.7024 539.759 52.1172 539.491 53.5696C538.845 56.9099 539.009 60.3684 539.299 63.7209C539.398 64.9948 539.418 66.8943 540.561 67.7447C541.988 68.8311 544.078 67.4454 545.172 66.464C547.438 64.4144 548.716 61.3407 549.602 58.4666C550.125 56.779 550.488 55.0538 550.69 53.291C550.851 51.9931 551.401 49.2067 550.439 48.1613C550.788 48.192 551.137 48.2228 551.485 48.2535C547.961 51.8322 548.151 57.9171 547.881 62.5791C547.804 63.9781 547.751 65.3792 547.698 66.7802C547.66 68.2763 547.409 70.0583 549.555 69.8959C552.128 69.6774 554.481 68.5024 556.346 66.7455C557.06 66.0821 557.968 67.2163 557.3 67.8838C555.222 69.9265 553.67 72.3904 551.897 74.6943C551.501 74.4017 551.08 74.1303 550.684 73.8377C552.108 72.0419 553.154 70.0021 554.577 68.2063C555.18 67.4862 556.416 68.3448 555.812 69.0882Z" fill="white"/>
<path d="M504.143 51.0883C504.147 54.767 504.436 58.4006 504.982 62.0334C504.482 62.1299 504.007 62.2052 503.506 62.3017C503.028 56.824 503.136 51.351 503.805 45.8807C504.287 45.9935 504.769 46.1062 505.253 46.1957C503.162 52.642 503.577 59.637 506.409 65.7905C505.95 65.9376 505.469 66.0826 505.009 66.253C504.086 59.7053 503.874 53.0795 504.385 46.4708C504.874 46.5138 505.385 46.5588 505.873 46.6018C504.744 52.2424 504.779 57.9622 505.995 63.5752C505.5 63.6019 505.006 63.6286 504.514 63.6321C504.872 60.899 504.638 58.231 503.84 55.5835C504.335 55.5568 504.829 55.53 505.321 55.5265C505.359 60.6843 506.244 65.7994 507.948 70.6588C507.49 70.8059 507.008 70.9509 506.548 71.1212C506.257 69.9007 505.969 68.657 505.678 67.4365C505.473 66.575 506.695 66.2609 507.077 66.974C507.218 67.2441 507.36 67.4909 507.5 67.761C507.904 68.4994 506.712 69.2613 506.258 68.5653C505.723 67.7216 505.328 66.8902 505.012 65.9487C504.737 65.081 506.023 64.8429 506.412 65.4862C507.369 67.1169 508.352 68.7264 509.31 70.357C508.852 70.5041 508.37 70.6492 507.91 70.8195C506.43 64.2226 504.998 57.6066 504.704 50.8332C504.664 49.9628 505.997 49.9865 506.185 50.7762C506.536 52.3769 506.631 53.955 506.443 55.5551C506.351 56.3435 505.026 56.4846 504.962 55.6121C504.762 52.572 505.138 49.6297 506.119 46.7406C506.376 45.9433 507.664 46.2207 507.567 47.0556C506.369 56.1343 505.737 66.5045 512.431 73.7481C512.01 74.0155 511.611 74.285 511.189 74.5524C510.502 72.7815 509.639 71.1358 508.557 69.5879C508.996 69.3923 509.437 69.1734 509.853 68.9757C509.98 69.9241 510.133 70.8513 510.26 71.7997C509.766 71.8264 509.272 71.8531 508.779 71.8566C508.905 70.6963 508.224 69.6522 507.046 69.4548C507.288 69.1012 507.53 68.7477 507.796 68.3962C508.678 70.3482 509.916 71.9802 511.579 73.3216C511.199 73.6396 510.845 73.9364 510.466 74.2544C509.545 72.7441 508.396 71.4246 507.017 70.3191C507.354 69.9505 507.689 69.6051 508.026 69.2365C509.11 70.7612 510.217 72.2879 511.299 73.8358C511.757 74.4853 511.016 75.4509 510.29 74.9184C507.917 73.1395 506.621 70.5653 506.481 67.6244C506.456 66.849 507.611 66.7634 507.886 67.3733C508.897 69.4538 509.455 71.635 509.58 73.942C509.637 74.8843 508.395 75.1498 508.103 74.2103C506.354 68.2692 505.061 62.2043 504.315 56.047C503.98 53.206 503.629 50.2699 503.625 47.3878C503.622 45.5601 504.652 43.7062 506.739 44.218C506.991 44.2871 507.154 44.5592 507.206 44.7746C507.717 47.2094 506.767 49.7498 506.829 52.2387C506.901 55.1502 507.635 57.9796 508.904 60.5983C509.321 61.455 507.977 62.0863 507.56 61.2296C506.349 58.7565 505.6 56.0899 505.398 53.3309C505.299 52.0571 505.319 50.7702 505.452 49.5168C505.609 48.0077 506.042 46.5464 505.729 45.0428C505.878 45.2199 506.047 45.4223 506.196 45.5994C504.384 45.1586 505.349 51.7569 505.451 52.7265C505.662 55.1114 505.967 57.5046 506.343 59.8807C507.096 64.6328 508.183 69.3206 509.535 73.9147C509.035 74.0112 508.559 74.0865 508.059 74.1829C507.947 71.9942 507.449 69.9354 506.497 67.9772C506.972 67.9019 507.45 67.8034 507.901 67.7261C507.995 70.1241 509.19 72.2443 511.079 73.6758C510.742 74.0444 510.407 74.3898 510.07 74.7584C508.986 73.2337 507.879 71.707 506.797 70.1591C506.339 69.5096 507.107 68.4996 507.806 69.0766C509.403 70.3652 510.677 71.8598 511.742 73.5937C512.131 74.237 511.199 74.975 510.629 74.5265C508.77 73.0273 507.336 71.2141 506.356 69.0426C506.142 68.5551 506.505 67.8842 507.106 67.984C509.065 68.344 510.42 69.9863 510.195 72.0048C510.1 72.8165 508.85 72.9172 508.714 72.0618C508.587 71.1134 508.434 70.1862 508.307 69.2379C508.204 68.5493 509.168 67.9782 509.603 68.6257C510.769 70.2748 511.717 72.0217 512.44 73.9129C512.747 74.6896 511.775 75.3537 511.198 74.7172C504.247 67.1933 504.751 56.4135 506.007 46.9416C506.489 47.0544 506.971 47.1671 507.456 47.2566C506.569 49.8729 506.19 52.5807 506.369 55.3377C505.874 55.3644 505.38 55.3911 504.888 55.3946C505.065 53.9108 504.981 52.4742 504.641 51.0151C505.135 50.9883 505.63 50.9616 506.122 50.9581C506.405 57.59 507.87 64.0918 509.317 70.5451C509.52 71.4299 508.327 71.6762 507.917 71.0075C506.959 69.3769 505.977 67.7674 505.019 66.1367C505.477 65.9897 505.959 65.8446 506.419 65.6743C506.638 66.3731 506.936 66.985 507.326 67.6051C506.905 67.8726 506.506 68.142 506.084 68.4094C505.944 68.1394 505.802 67.8926 505.662 67.6225C506.12 67.4754 506.601 67.3304 507.061 67.16C507.352 68.3805 507.641 69.6243 507.931 70.8448C508.117 71.6578 506.813 72.1051 506.532 71.3072C504.736 66.1587 503.798 60.8513 503.762 55.4126C503.749 54.4977 505.004 54.6083 505.243 55.3556C506.079 58.1002 506.298 60.931 505.928 63.8035C505.831 64.6385 504.631 64.6968 504.447 63.8605C503.195 58.1273 503.151 52.2427 504.29 46.4858C504.465 45.5641 505.841 45.6384 505.778 46.6169C505.279 53.0862 505.481 59.5704 506.39 65.9998C506.506 66.8066 505.343 67.243 504.991 66.4622C501.981 59.9415 501.554 52.5472 503.796 45.7159C504.054 44.9186 505.341 45.1961 505.244 46.031C504.587 51.3618 504.469 56.6932 504.911 62.0505C504.991 62.9948 503.585 63.2692 503.434 62.3188C502.851 58.5656 502.577 54.7693 502.583 50.9744C502.646 49.9959 504.134 50.1269 504.143 51.0883Z" fill="#FBD9CE"/>
<path d="M507.559 57.762C508.029 61.2006 508.52 64.6646 510.215 67.7659C509.757 67.913 509.276 68.058 508.815 68.2284C507.999 65.5324 507.351 62.7809 506.868 60.0206C506.728 59.2117 507.986 58.7602 508.267 59.5582C508.738 60.8648 509.232 62.1735 509.702 63.4801C509.284 63.4432 508.842 63.4043 508.424 63.3675C508.687 63.0392 507.673 60.9819 507.52 60.5935C507.978 60.4464 508.459 60.3014 508.92 60.1311C509.188 61.0685 509.531 61.9655 509.922 62.8435C510.314 63.7214 508.993 64.3547 508.578 63.4748C508.359 63.0338 508.164 62.5948 507.943 62.1771C508.384 61.9582 508.846 61.7646 509.287 61.5457C510.594 65.0581 512.257 68.7892 512.582 72.5431C512.641 73.2043 511.993 73.6393 511.416 73.2838C510.281 72.5981 509.619 71.6027 509.286 70.3316C509.092 69.6116 510.166 69.1205 510.582 69.7194C511.207 70.5945 513.052 75.1851 510.586 74.9913C509.468 74.9163 509.159 73.3662 508.859 72.5197C508.276 70.8986 507.81 69.2644 507.419 67.5899C507.199 66.6333 508.624 66.4075 508.895 67.3217C509.416 69.1247 509.586 70.9203 509.445 72.7822C509.365 73.6889 508.201 73.6098 507.964 72.8392C507.508 71.3698 507.073 69.9257 506.617 68.4564C507.111 68.4296 507.605 68.4029 508.098 68.3994C508.052 69.4497 508.127 70.4637 508.412 71.4729C508.485 71.7136 509.504 74.24 509.601 74.2017C509.467 74.4007 509.309 74.5976 509.172 74.8199C509.346 73.6404 508.472 72.3919 507.621 71.6843C508.017 71.4381 508.391 71.1899 508.787 70.9436C508.87 71.8647 509.098 72.7282 509.667 73.4577C510.214 74.1619 511.844 75.3364 511.408 73.6346C510.977 71.8862 509.924 70.2706 508.777 68.9279C509.216 68.7322 509.657 68.5134 510.073 68.3157C510.602 70.2835 511.526 72.0284 512.866 73.5756C512.467 73.5872 512.091 73.601 511.691 73.6127C512.356 72.4529 510.505 70.064 509.801 69.2758C510.2 69.2641 510.576 69.2503 510.975 69.2387C510.171 70.1284 512.208 73.3302 512.49 74.3859C512.667 75.0341 511.832 75.4759 511.324 75.1266C509.886 74.1565 509.003 72.7433 508.779 71.0366C508.691 70.4431 509.422 69.8515 509.945 70.2959C511.015 71.1867 511.709 72.349 511.821 73.7412C511.884 74.6137 511.781 76.0571 510.669 76.1701C509.394 76.292 508.794 74.3181 508.426 73.4422C507.646 71.6631 507.062 69.7842 506.668 67.8752C507.168 67.7787 507.643 67.7034 508.144 67.6069C508.347 69.0305 508.572 70.4561 508.775 71.8797C508.925 72.8301 507.544 73.0833 507.299 72.148C506.401 68.5077 505.571 64.8968 505.434 61.1361C505.392 60.2889 506.775 60.2702 506.915 61.0791C507.211 62.7686 507.727 64.3604 508.481 65.9029C508.006 65.9782 507.529 66.0767 507.077 66.154C507.275 64.9765 506.916 63.7267 506.737 62.5629C506.576 61.4709 506.393 60.3537 506.232 59.2617C506.115 58.4549 507.327 57.9993 507.631 58.7993C508.449 60.9565 509.289 63.1157 510.107 65.2729C509.649 65.42 509.167 65.565 508.707 65.7353C507.895 61.6574 505.866 57.8238 506.334 53.5775C506.429 52.7658 507.705 52.6439 507.815 53.5205C508.09 55.9814 508.507 58.4313 509.067 60.847C508.567 60.9434 508.092 61.0187 507.591 61.1152C507.17 58.7118 506.887 56.3439 506.773 53.9207C506.711 52.4861 506.625 51.0728 506.494 49.6321C506.45 49.0659 506.381 48.5209 506.314 47.9527C506.277 47.5746 506.24 47.1965 506.178 46.8396C506.039 47.0851 506.063 47.3449 506.203 47.615C505.768 47.5063 505.307 47.4189 504.871 47.3102C505.094 46.9081 505.502 46.2646 505.522 45.7743C505.62 45.9938 505.741 46.2153 505.837 46.4581C505.792 46.4307 505.771 46.4054 505.727 46.3781C505.982 46.4006 506.215 46.4211 506.471 46.4436C506.445 46.4648 506.397 46.484 506.372 46.5052C506.153 46.0642 505.959 45.602 505.74 45.161C506.082 45.0036 506.202 44.9674 506.58 44.9304C506.982 44.8955 507.361 45.1163 507.442 45.5217C507.476 45.6653 507.51 45.8089 507.545 45.9525C507.767 46.8858 506.291 47.1541 506.069 46.2208C506.034 46.0772 506 45.9336 505.966 45.79C506.254 45.9794 506.54 46.192 506.828 46.3813C506.684 46.4156 506.517 46.4477 506.372 46.5052C505.494 46.8964 504.881 45.6008 505.74 45.161C505.765 45.1398 505.814 45.1206 505.839 45.0994C506.084 44.9804 506.361 45.0282 506.583 45.1649C506.628 45.1923 506.649 45.2176 506.693 45.2449C506.916 45.3816 507.031 45.6729 507.008 45.9287C506.96 46.7444 506.471 47.498 506.082 48.19C505.725 48.7911 504.889 48.4364 504.751 47.8853C504.467 46.8528 504.524 44.8664 505.965 44.7356C507.57 44.5959 507.652 46.5946 507.767 47.6824C508.27 52.0845 508.28 56.4901 509.044 60.8449C509.218 61.7974 507.79 62.0465 507.568 61.1132C507.008 58.6975 506.591 56.2476 506.316 53.7867C506.81 53.76 507.304 53.7332 507.797 53.7297C507.343 57.8133 509.378 61.5772 510.158 65.4883C510.321 66.2992 509.063 66.7507 508.758 65.9507C507.941 63.7935 507.1 61.6343 506.283 59.4771C506.741 59.33 507.222 59.185 507.683 59.0146C508.046 61.2724 508.928 64.0211 508.563 66.3083C508.453 67.025 507.496 67.2453 507.159 66.5595C506.345 64.8946 505.793 63.1825 505.483 61.3747C505.978 61.3479 506.472 61.3212 506.964 61.3177C507.093 64.9137 507.954 68.4336 508.817 71.9303C508.317 72.0268 507.842 72.1021 507.341 72.1986C507.139 70.775 506.913 69.3493 506.71 67.9258C506.56 66.9753 507.987 66.7262 508.186 67.6575C508.544 69.4462 509.069 71.2027 509.813 72.8615C509.949 73.178 510.134 73.4754 510.247 73.79C510.486 73.9985 510.539 74.1906 510.424 74.4382C510.355 74.6898 510.357 74.6666 510.379 74.4108C510.454 73.2928 510.004 72.2925 509.129 71.5829C509.526 71.3367 509.899 71.0884 510.295 70.8422C510.481 72.194 511.094 73.2086 512.244 73.9893C511.847 74.2356 511.474 74.4838 511.077 74.73C510.616 73.0494 508.32 70.1293 509.826 68.458C510.14 68.0873 510.662 68.0161 511.001 68.4209C512.279 69.8689 514.097 72.6297 512.966 74.5684C512.718 74.9917 512.065 74.9576 511.791 74.6055C510.305 72.858 509.283 70.8936 508.684 68.6619C508.491 67.9187 509.534 67.5185 509.979 68.0497C511.168 69.4431 512.13 71.0272 512.726 72.7667C513.082 73.782 513.39 75.0743 512.475 75.884C511.485 76.7574 510.122 76.0047 509.319 75.278C508.146 74.2375 507.497 72.8215 507.375 71.2878C507.331 70.7216 507.997 70.0774 508.541 70.5471C509.608 71.4611 510.397 72.6084 510.697 73.9937C510.856 74.8511 510.665 75.9588 509.555 75.7908C508.397 75.6419 507.715 73.8013 507.373 72.9042C506.798 71.4479 506.606 69.908 506.697 68.3463C506.753 67.4375 507.939 67.542 508.178 68.2893C508.634 69.7587 509.069 71.2027 509.525 72.6721C509.031 72.6988 508.536 72.7256 508.044 72.7291C508.172 71.0066 507.992 69.3273 507.529 67.6699C508.03 67.5734 508.505 67.4981 509.005 67.4016C509.239 68.4765 509.521 69.5322 509.849 70.592C509.943 70.858 510.662 73.5923 510.966 73.5957C510.747 73.6935 510.526 73.8145 510.283 73.9103C510.936 73.1478 510.012 71.4029 509.554 70.7534C509.992 70.5578 510.433 70.3389 510.849 70.1413C511.097 71.0534 511.606 71.6605 512.384 72.1274C511.988 72.3736 511.615 72.6219 511.218 72.8681C510.882 69.2305 509.301 65.647 508.032 62.2318C507.712 61.3367 508.961 60.7205 509.376 61.6004C509.595 62.0414 509.79 62.4804 510.011 62.8981C509.57 63.117 509.108 63.3106 508.667 63.5295C508.24 62.5312 507.863 61.4906 507.556 60.4561C507.323 59.639 508.649 59.2169 508.955 59.9936C509.398 61.0869 510.62 63.1627 509.728 64.2555C509.412 64.6494 508.658 64.7001 508.449 64.1428C507.978 62.8362 507.485 61.5276 507.014 60.2209C507.472 60.0738 507.953 59.9288 508.414 59.7585C508.918 62.5441 509.568 65.2723 510.361 67.9662C510.615 68.8086 509.346 69.1185 508.962 68.4287C507.205 65.2282 506.655 61.6419 506.197 58.0637C505.957 57.0586 507.433 56.7904 507.559 57.762Z" fill="#FBD9CE"/>
<path d="M506.3 47.8343C506.814 47.3173 506.064 46.525 505.792 46.1496C506.231 45.954 506.672 45.7351 507.088 45.5374C507.103 45.6325 507.2 46.133 507.17 46.2007C507.003 46.2328 506.815 46.2397 506.649 46.2719C506.657 46.1789 506.665 46.0859 506.673 45.9929C506.694 46.0182 506.43 45.292 506.314 45.2818C505.969 45.2046 505.54 45.8228 505.403 46.045C504.741 47.1816 505.039 48.5901 505.45 49.7743C505.746 50.6673 504.4 51.3219 504.106 50.4057C503.641 49.0293 503.322 47.5955 503.751 46.1807C504.08 45.1085 504.962 43.8741 506.17 43.7228C508.796 43.4387 507.888 47.6228 505.932 46.9585C503.817 46.2333 506.968 42.6451 508.057 45.1776C508.367 45.9078 508.266 47.3281 507.415 47.6749C506.149 48.2193 505.745 46.6843 505.66 45.7865C505.604 45.1021 506.449 44.544 506.956 45.1744C507.883 46.3572 508.487 47.7458 507.279 48.9515C506.586 49.6402 505.632 48.5018 506.3 47.8343Z" fill="#FBD9CE"/>
<path d="M508.38 47.6895C508.162 49.0995 508.187 50.4137 508.461 51.8202C507.961 51.9167 507.486 51.992 506.985 52.0885C506.759 49.8662 508.095 46.9381 506.699 44.9642C507.121 44.6968 507.519 44.4274 507.941 44.1599C508.51 45.686 508.816 47.2594 508.766 48.895C508.716 50.7883 508.134 52.6114 508.693 54.5115C508.198 54.5382 507.704 54.565 507.212 54.5685C507.404 53.1797 507.405 51.8443 507.177 50.4419C507.671 50.4152 508.166 50.3884 508.658 50.3849C508.457 53.9987 507.825 58.5117 509.62 61.8093C509.162 61.9564 508.68 62.1014 508.22 62.2717C508.153 61.7035 508.006 61.2454 507.673 60.7709C508.112 60.5753 508.553 60.3564 508.968 60.1588C509.103 62.8884 510.617 65.6458 511.516 68.2085C512.263 70.3595 513.387 73.2934 512.925 75.619C512.791 76.3336 512.271 76.9203 511.481 76.8507C510.479 76.7859 509.754 75.7145 509.234 74.9659C507.73 72.8888 506.891 70.4485 506.74 67.9049C506.68 66.9859 508.068 66.663 508.216 67.6366C508.527 69.9601 509.055 72.2089 510.014 74.3552C510.426 75.2584 509.162 75.7796 508.67 74.9865C507.193 72.6072 506.273 70.0192 505.884 67.2438C506.379 67.2171 506.873 67.1903 507.365 67.1869C507.274 69.2874 507.844 71.3291 509.049 73.0753C509.278 73.4 510.595 75.203 510.954 75.1174C511.137 75.4381 511.225 75.235 511.215 74.5546C511.286 74.2798 511.312 73.9775 511.337 73.6985C511.396 73.0243 511.412 71.784 510.549 71.4736C510.787 71.4244 511.047 71.4004 511.286 71.3511C510.902 71.7156 512.06 73.9966 512.264 74.3425C512.406 74.5893 512.551 74.8129 512.72 75.0153C512.319 75.0502 512.194 74.8752 512.37 74.469C512.227 73.9644 512.278 73.3832 512.161 72.8574C511.705 70.8492 510.743 69.0072 510.217 66.9929C510.718 66.8964 511.193 66.8211 511.693 66.7247C511.783 67.8337 511.97 68.9045 512.347 69.9451C511.889 70.0922 511.407 70.2373 510.947 70.4076C510.267 67.2315 509.225 64.1643 508.28 61.0587C507.412 58.1473 507.666 55.2645 507.812 52.2784C507.888 50.6216 508.056 48.973 507.967 47.3251C507.947 47.0188 507.973 46.4588 507.812 46.1634C507.402 45.4947 506.642 45.6152 506.187 46.2546C505.787 46.8051 505.542 47.4629 505.389 48.1289C504.595 51.2922 505.252 55.005 505.891 58.1305C506.09 59.0617 504.614 59.33 504.415 58.3987C503.714 54.9163 502.967 50.6333 504.092 47.1712C504.481 45.9403 505.353 44.2834 506.741 43.9604C507.961 43.6697 508.862 44.6159 509.211 45.701C509.761 47.4363 509.412 49.5376 509.326 51.3107C509.239 53.3647 509.006 55.4763 509.105 57.5467C509.199 59.6637 510.008 61.6561 510.628 63.6553C511.306 65.8002 511.889 67.9602 512.377 70.1352C512.563 70.9482 511.259 71.3956 510.977 70.5977C510.566 69.4134 510.295 68.2415 510.192 67.0141C510.134 66.0719 511.423 65.8105 511.668 66.7459C512.172 68.7349 513.158 70.5789 513.611 72.6103C513.828 73.6134 514.324 75.9532 513.107 76.4785C510.961 77.4375 508.926 71.5416 510.309 70.2108C510.488 70.0391 510.819 69.998 511.046 70.0882C513.704 71.0253 513.24 77.896 510.498 76.5767C507.239 75.0011 505.701 70.3906 505.854 67.0537C505.882 66.2127 507.223 66.1434 507.335 66.9968C507.687 69.6518 508.573 72.0962 509.989 74.3764C509.548 74.5952 509.085 74.7888 508.644 75.0077C507.626 72.7391 507.062 70.3699 506.715 67.9261C507.215 67.8296 507.69 67.7543 508.191 67.6578C508.3 69.6121 508.814 71.4848 509.812 73.1893C510.099 73.6597 510.4 74.2252 510.811 74.6128C511.483 75.2343 511.505 74.9785 511.431 74.2223C511.331 73.2295 511.16 72.2537 510.916 71.2951C510.427 69.4011 509.718 67.605 509.035 65.7876C508.411 64.0926 507.588 62.2629 507.514 60.4523C507.476 59.8164 508.332 59.1421 508.809 59.8401C509.286 60.5382 509.557 61.1946 509.671 62.0247C509.783 62.878 508.675 63.2255 508.271 62.4871C506.335 58.9427 506.968 54.1487 507.166 50.3004C507.217 49.4614 508.51 49.4112 508.647 50.2434C508.888 51.7641 508.922 53.2431 508.717 54.7713C508.592 55.6507 507.47 55.6221 507.236 54.8283C506.782 53.3357 506.957 51.8751 507.137 50.3681C507.351 48.4658 507.251 46.6763 506.591 44.861C506.327 44.1349 507.311 43.3313 507.833 44.0567C509.56 46.5283 508.158 49.146 508.434 51.8646C508.538 52.811 507.155 53.0874 506.958 52.1329C506.668 50.6314 506.637 49.1291 506.865 47.6029C507.046 46.6114 508.534 46.7425 508.38 47.6895Z" fill="#FBD9CE"/>
<path d="M517.455 100.783C518.211 95.3903 517.469 89.9831 515.307 85.0131C515.782 84.9378 516.259 84.8392 516.711 84.7619C516.633 86.1842 517.222 87.4778 517.642 88.8268C518.042 90.1273 518.372 91.4449 518.631 92.7563C519.171 95.4045 519.453 98.0534 519.519 100.754C519.539 101.599 518.127 101.662 518.038 100.811C517.466 95.6058 516.517 89.3603 513.211 85.133C513.646 84.9839 514.079 84.858 514.514 84.7089C514.482 86.1353 515.354 87.6647 515.8 88.9926C516.228 90.2486 516.61 91.5005 516.943 92.7716C517.705 95.5565 518.253 98.3695 518.635 101.215C518.141 101.241 517.647 101.268 517.154 101.272C517.515 96.3832 515.837 91.7605 514.149 87.254C514.607 87.1069 515.088 86.9618 515.548 86.7915C516.075 89.3214 516.627 91.8301 517.154 94.36C517.649 96.723 517.902 99.4396 518.951 101.617C518.504 101.648 518.034 101.654 517.587 101.685C518.35 98.87 517.639 95.5039 517.067 92.6889C516.579 90.2561 516.085 86.8154 514.225 85.0584C514.574 85.0891 514.923 85.1198 515.271 85.1505C514.833 85.6039 514.975 86.3896 515.118 86.8942C515.139 86.9195 515.41 87.8336 515.387 87.8316C515.456 87.8377 515.125 86.5434 515.087 86.4463C514.853 85.9102 514.533 85.554 514.124 85.1432C514.563 84.9475 515.004 84.7287 515.42 84.531C515.431 84.9303 515.563 85.2934 515.841 85.599C515.744 86.4339 515.431 86.2657 514.925 85.0965C515.253 84.8209 515.582 84.5453 515.911 84.2697C515.973 85.4232 514.564 83.8699 515.017 84.8469C515.215 85.2627 515.703 85.5634 516.028 85.8731C515.593 86.0223 515.16 86.1481 514.725 86.2973C514.682 85.9889 514.641 85.6573 514.621 85.3509C514.536 85.2498 514.428 85.1465 514.343 85.0453C514.361 85.3749 514.652 85.7988 514.79 86.0921C515.083 86.7506 515.377 87.409 515.647 88.0654C516.207 89.4267 516.717 90.8072 517.157 92.2047C518.06 94.9787 518.725 97.8019 519.198 100.678C518.838 100.506 518.504 100.313 518.144 100.14C518.929 99.741 518.53 97.3629 518.498 96.6573C518.423 95.6432 518.302 94.6251 518.135 93.6029C517.967 92.5807 517.774 91.5797 517.581 90.5787C517.386 89.6009 517.315 88.2826 516.405 87.7104C516.789 87.6037 517.152 87.4716 517.536 87.3649C516.869 89.8834 517.881 92.7605 518.15 95.2911C518.427 97.7287 518.516 100.173 518.464 102.629C517.976 102.586 517.464 102.541 516.976 102.498C517.411 99.9587 517.613 97.3993 517.534 94.8386C517.504 94.1097 516.879 86.5807 516.38 86.654C516.553 86.2943 516.746 85.9599 516.918 85.6002C517.583 87.369 518.059 89.1447 518.364 90.9991C517.87 91.0258 517.375 91.0525 516.883 91.056C516.987 88.816 516.634 86.6997 515.785 84.6335C515.417 83.7576 516.738 83.1243 517.13 84.0022C519.162 88.5859 519.709 93.5541 519.999 98.4998C520.09 99.8667 520.697 102.544 519.106 103.318C518.617 103.556 517.959 103.568 517.494 103.27C516.761 102.807 517.136 102.277 516.864 101.644C516.473 100.766 517.817 100.135 518.208 101.013C518.382 101.427 518.256 102.329 518.512 101.555C518.776 100.688 518.585 99.6638 518.546 98.7701C518.451 97.192 518.332 95.6118 518.165 94.0508C517.795 90.8084 517.114 87.6323 515.783 84.6567C516.224 84.4379 516.686 84.2443 517.127 84.0254C518.072 86.3344 518.472 88.7125 518.345 91.2083C518.295 92.0473 517.002 92.0974 516.865 91.2653C516.596 89.5313 516.156 87.8759 515.551 86.2295C515.402 85.7946 515.591 85.2489 516.089 85.1757C517.109 85.0313 517.614 85.6849 517.908 86.6011C518.46 88.3132 518.666 90.2291 518.836 92.0246C519.18 95.5693 519.031 99.1174 518.441 102.627C518.287 103.574 516.939 103.455 516.953 102.496C516.998 99.5943 516.852 96.7232 516.426 93.8507C516.073 91.4767 515.454 89.1964 516.083 86.8386C516.221 86.3353 516.838 86.2491 517.215 86.4932C518.148 87.0674 518.489 87.9877 518.726 89.016C519.115 90.7138 519.431 92.4519 519.678 94.1606C519.894 95.7025 520.015 97.2595 519.972 98.8021C519.946 99.9009 519.786 100.918 518.729 101.481C518.311 101.701 517.753 101.395 517.675 100.943C516.867 96.0216 515.436 91.2566 513.376 86.7173C512.906 85.6685 512.217 83.9208 513.809 83.405C515.474 82.8489 516.25 85.2133 516.168 86.401C516.13 87.1005 515.298 87.2381 514.866 86.8251C514.025 86.0013 512.418 84.8289 513.545 83.4755C514.254 82.6009 515.806 83.0656 516.522 83.7144C517.238 84.3632 517.331 85.7068 516.375 86.1849C515.198 86.7841 514.49 85.5034 514.458 84.54C514.431 84.0457 514.886 83.4063 515.445 83.7132C516.431 84.2218 518.077 86.0069 516.743 87.0608C515.36 88.1338 514.08 85.9124 513.941 84.8225C513.846 84.041 514.72 83.6962 515.237 84.2103C516.184 85.1606 516.826 86.3886 516.823 87.7473C516.817 88.6136 516.399 89.6311 515.334 89.4904C514.315 89.3538 513.864 88.0957 513.631 87.2786C513.294 86.0541 513.39 84.9614 514.294 84.0101C514.604 83.686 515.082 83.8452 515.34 84.1023C517.372 86.0384 517.955 89.7916 518.497 92.4165C519.137 95.5187 519.806 99.092 518.947 102.203C518.773 102.843 517.839 102.808 517.582 102.27C516.53 100.115 516.267 97.515 515.768 95.1985C515.188 92.4765 514.606 89.7777 514.026 87.0557C513.863 86.2448 515.121 85.7933 515.425 86.5932C517.209 91.3425 518.957 96.2292 518.573 101.397C518.501 102.21 517.204 102.307 517.092 101.453C516.68 98.4183 516.075 95.4364 515.258 92.4826C514.827 90.9921 514.371 89.5227 513.845 88.0472C513.408 86.8842 512.917 85.81 512.937 84.5231C512.948 83.8681 513.86 83.6204 514.239 84.099C517.713 88.5519 518.785 94.9957 519.381 100.46C518.887 100.487 518.393 100.514 517.9 100.517C517.806 97.6037 517.451 94.7141 516.788 91.8677C516.247 89.5005 514.945 86.9961 515.092 84.5256C515.132 83.8028 516.205 83.5927 516.496 84.2744C518.778 89.4892 519.565 95.1815 518.789 100.806C518.815 101.84 517.325 101.732 517.455 100.783Z" fill="#FBD9CE"/>
<path d="M627.28 122.299C627.554 122.237 627.844 122.237 628.119 122.237C633.307 122.191 638.511 122.314 643.684 122.621C644.722 122.682 645.912 122.682 646.584 121.9C646.889 121.547 647.042 121.072 647.164 120.611C648.445 116.301 649.727 111.99 650.994 107.695C651.085 107.358 651.192 107.005 651.085 106.683C650.872 106.023 650.002 105.9 649.315 105.9C641.853 105.824 634.376 105.762 626.913 105.686C626.105 105.686 625.158 105.594 624.746 104.888C624.365 104.228 624.67 103.354 624.426 102.633C624.075 101.621 622.839 101.283 621.786 101.206C620.428 101.114 619.07 101.206 617.742 101.452C617.33 101.529 616.506 101.559 616.277 101.958C616.018 102.418 616.445 103.078 616.842 103.293C617.33 103.553 617.91 103.523 618.459 103.492C619.375 103.431 620.29 103.385 621.206 103.323C621.603 103.293 622.076 103.308 622.335 103.615C622.457 103.768 622.518 103.968 622.564 104.167C623.693 108.892 624.807 113.601 625.937 118.326C626.059 118.847 626.181 119.415 626.044 119.936C625.83 120.719 625.113 121.225 624.685 121.9C623.846 123.204 624.35 125.183 625.708 125.919C626.517 126.364 627.463 126.379 628.378 126.394C632.789 126.44 637.183 126.487 641.594 126.548C642.845 126.548 644.081 126.579 645.332 126.548C645.943 126.533 646.721 126.379 646.858 125.766C646.95 125.351 646.645 124.922 646.263 124.722C645.882 124.538 645.439 124.523 645.012 124.523C639.32 124.462 633.628 124.4 627.936 124.339C627.264 124.339 626.395 124.17 626.272 123.495C626.196 123.066 626.501 122.652 626.898 122.467C627.035 122.406 627.173 122.36 627.325 122.329L627.28 122.299Z" fill="white"/>
<path fill-rule="evenodd" clip-rule="evenodd" d="M629.132 133.895C631.635 133.358 631.39 128.281 627.881 129.308C625.012 130.06 626.095 134.539 628.995 133.926L629.132 133.895Z" fill="white"/>
<path fill-rule="evenodd" clip-rule="evenodd" d="M639.035 130.289C637.555 132.39 641.156 135.949 643.033 132.82C644.636 130.304 640.821 127.758 639.112 130.182L639.035 130.289Z" fill="white"/>
<path d="M679.605 127.397C679.498 127.275 679.315 127.213 679.132 127.182C678.216 127.075 677.423 127.765 676.782 128.425C673.989 131.278 671.898 134.653 669.38 137.706L664.268 144.026C662.895 145.79 661.552 147.738 660.301 149.701C659.263 148.658 658.21 147.646 657.096 146.664C653.739 143.872 650.824 140.712 647.162 138.289C647.04 138.212 646.917 138.135 646.78 138.12C646.429 138.089 646.17 138.488 646.2 138.841C646.231 139.194 646.475 139.485 646.689 139.761C649.39 142.998 652.411 145.897 655.463 148.812C656.257 149.533 657.05 150.269 657.844 150.99C658.53 151.619 659.263 152.524 660.24 152.647C661.506 152.815 662.162 151.604 662.742 150.699C663.261 149.886 663.887 149.165 664.512 148.428C664.787 148.121 665.047 147.799 665.321 147.492C666.222 146.449 667.122 145.391 668.022 144.348C668.251 144.348 669.045 143.167 669.213 142.952C669.609 142.492 669.96 141.985 670.327 141.51C671.273 140.267 672.219 138.994 673.226 137.798C674.233 136.601 675.149 135.727 675.973 134.438C676.705 133.288 677.438 132.153 678.155 131.002C678.765 130.051 679.376 129.069 679.666 127.98C679.696 127.857 679.727 127.719 679.696 127.597C679.681 127.535 679.651 127.489 679.62 127.443L679.605 127.397Z" fill="white"/>
<path d="M679.248 126.189L679.273 126.192L679.297 126.196C679.529 126.235 680.012 126.343 680.359 126.741L680.491 126.892L680.534 127.026C680.579 127.108 680.633 127.221 680.666 127.355C680.766 127.754 680.659 128.131 680.636 128.221L680.634 128.229L680.632 128.238C680.296 129.499 679.598 130.604 678.996 131.543L678.995 131.542C678.277 132.694 677.542 133.835 676.816 134.975L676.815 134.977C675.945 136.338 674.917 137.341 673.991 138.442C673.004 139.614 672.079 140.86 671.122 142.116L671.118 142.121C670.803 142.53 670.408 143.09 670 143.568L669.799 143.845C669.696 143.988 669.567 144.166 669.433 144.34C669.303 144.509 669.15 144.698 669.003 144.851C668.932 144.926 668.838 145.019 668.73 145.099C668.706 145.117 668.678 145.134 668.646 145.155C668.241 145.624 667.837 146.097 667.431 146.571C666.981 147.096 666.53 147.623 666.078 148.146L666.073 148.153L666.066 148.16C665.939 148.302 665.814 148.449 665.679 148.608C665.552 148.757 665.415 148.916 665.274 149.075L665.275 149.076C664.635 149.829 664.06 150.494 663.585 151.237L663.584 151.238C663.332 151.631 662.948 152.29 662.455 152.783C661.92 153.318 661.148 153.773 660.115 153.638C660.113 153.638 660.112 153.638 660.111 153.638H660.108V153.637C659.35 153.54 658.749 153.15 658.299 152.782C657.897 152.452 657.416 151.955 657.171 151.73L655.977 150.637C655.58 150.273 655.185 149.911 654.79 149.552L654.773 149.535C651.726 146.625 648.663 143.689 645.92 140.402L645.908 140.388L645.898 140.374C645.811 140.261 645.649 140.061 645.52 139.847C645.383 139.622 645.237 139.311 645.203 138.927C645.166 138.494 645.302 138.064 645.547 137.737C645.797 137.404 646.254 137.07 646.867 137.124L646.879 137.125L646.891 137.127C647.195 137.16 647.45 137.292 647.592 137.377L647.694 137.442L647.703 137.448L647.713 137.455C649.607 138.708 651.295 140.143 652.911 141.594C654.341 142.878 655.691 144.152 657.118 145.375L657.736 145.895L657.746 145.905L657.757 145.914C658.577 146.636 659.362 147.374 660.13 148.125C661.199 146.496 662.326 144.892 663.479 143.412L663.485 143.404L663.491 143.397L668.603 137.077L668.609 137.069C669.848 135.566 670.974 133.995 672.178 132.39C673.37 130.801 674.623 129.2 676.067 127.725C676.4 127.383 676.828 126.973 677.329 126.665C677.776 126.39 678.333 126.164 678.97 126.171L679.248 126.189ZM679.131 127.182C678.216 127.075 677.422 127.766 676.782 128.425L676.266 128.966C673.726 131.699 671.741 134.844 669.38 137.706L664.268 144.026L663.754 144.696C662.56 146.277 661.395 147.984 660.3 149.702C659.522 148.919 658.735 148.154 657.92 147.406L657.096 146.665C653.948 144.047 651.19 141.106 647.839 138.752L647.161 138.289C647.039 138.212 646.917 138.135 646.78 138.12C646.429 138.089 646.169 138.488 646.2 138.84C646.23 139.193 646.475 139.485 646.689 139.761C649.39 142.998 652.411 145.898 655.463 148.812C656.256 149.533 657.05 150.269 657.843 150.99C658.53 151.619 659.263 152.524 660.24 152.647C661.189 152.773 661.796 152.123 662.284 151.409L662.742 150.699C663.261 149.886 663.886 149.165 664.512 148.428L665.321 147.493C666.221 146.45 667.122 145.391 668.022 144.348C668.251 144.348 669.044 143.166 669.212 142.952C669.411 142.722 669.598 142.48 669.781 142.237L670.326 141.51C671.154 140.423 671.982 139.312 672.851 138.25L673.226 137.797C674.107 136.751 674.918 135.951 675.659 134.904L675.973 134.438C676.705 133.288 677.437 132.153 678.155 131.002C678.765 130.051 679.375 129.069 679.665 127.98C679.696 127.857 679.727 127.719 679.697 127.596C679.681 127.535 679.65 127.489 679.619 127.443L679.605 127.397C679.498 127.274 679.314 127.213 679.131 127.182Z" fill="white"/>
<path d="M57 71.5918C57 80.9806 49.3888 88.5918 40 88.5918C30.6112 88.5918 23 80.9806 23 71.5918C23 62.203 30.6112 54.5918 40 54.5918C49.3888 54.5918 57 62.203 57 71.5918Z" fill="#D5D8DD"/>
<path d="M48 67.5918C48 72.0101 44.4183 75.5918 40 75.5918C35.5817 75.5918 32 72.0101 32 67.5918C32 63.1735 35.5817 59.5918 40 59.5918C44.4183 59.5918 48 63.1735 48 67.5918Z" fill="white"/>
<path d="M39.5 76.5918C32.5964 76.5918 27 82.4121 27 89.5918H52C52 82.4121 46.4036 76.5918 39.5 76.5918Z" fill="white"/>
<path d="M44.9389 164.512C47.6666 164.512 49.8779 162.291 49.8779 159.552C49.8779 156.812 47.6666 154.592 44.9389 154.592C42.2112 154.592 40 156.812 40 159.552C40 162.291 42.2112 164.512 44.9389 164.512Z" fill="#D5D8DD"/>
<path d="M84.9389 194.512C87.6666 194.512 89.8779 192.291 89.8779 189.552C89.8779 186.812 87.6666 184.592 84.9389 184.592C82.2112 184.592 80 186.812 80 189.552C80 192.291 82.2112 194.512 84.9389 194.512Z" fill="#D5D8DD"/>
<path d="M203.939 139.512C206.667 139.512 208.878 137.291 208.878 134.552C208.878 131.812 206.667 129.592 203.939 129.592C201.211 129.592 199 131.812 199 134.552C199 137.291 201.211 139.512 203.939 139.512Z" fill="#D5D8DD"/>
<path d="M122.939 123.512C125.667 123.512 127.878 121.291 127.878 118.552C127.878 115.813 125.667 113.592 122.939 113.592C120.211 113.592 118 115.813 118 118.552C118 121.291 120.211 123.512 122.939 123.512Z" fill="#D5D8DD"/>
<path d="M243.939 177.512C246.667 177.512 248.878 175.291 248.878 172.552C248.878 169.812 246.667 167.592 243.939 167.592C241.211 167.592 239 169.812 239 172.552C239 175.291 241.211 177.512 243.939 177.512Z" fill="#D5D8DD"/>
<path fill-rule="evenodd" clip-rule="evenodd" d="M341.759 208.609L270.856 206.655C268.801 206.595 267.142 204.929 267.112 202.855L265.729 120.459C265.69 118.336 267.359 116.59 269.473 116.53L341.759 114.576C343.922 114.516 345.71 116.262 345.71 118.435V204.75C345.71 206.923 343.922 208.669 341.759 208.619V208.609Z" fill="white"/>
<path d="M341.699 210.842L299.788 209.513L278.837 208.848L273.601 208.679L270.984 208.6H270.816L270.579 208.58C270.411 208.57 270.253 208.56 270.095 208.53C269.937 208.501 269.769 208.481 269.611 208.431C269.453 208.392 269.295 208.342 269.136 208.292C268.514 208.084 267.931 207.757 267.418 207.35C266.39 206.536 265.64 205.376 265.353 204.086C265.284 203.769 265.235 203.441 265.225 203.114V202.876L265.205 202.707V202.38L265.185 201.061L265.116 195.793L264.553 153.692L264.217 132.641L264.03 122.116L264 120.797V120.459V119.983C264.03 119.666 264.069 119.348 264.148 119.041C264.445 117.801 265.175 116.67 266.193 115.896C266.697 115.509 267.27 115.212 267.882 115.013C268.03 114.964 268.188 114.924 268.346 114.884L268.82 114.795C269.127 114.755 269.492 114.735 269.67 114.735L272.288 114.656L314.199 113.426L335.15 112.791L340.386 112.632L341.699 112.593C342.332 112.583 343.013 112.662 343.635 112.86C344.9 113.247 345.996 114.1 346.727 115.202C347.093 115.747 347.369 116.372 347.517 117.017C347.567 117.176 347.596 117.344 347.616 117.503C347.646 117.672 347.666 117.83 347.675 117.999V118.247C347.695 118.326 347.695 118.426 347.695 118.465V118.793L347.705 121.422L347.725 126.689L347.873 168.8L347.942 189.851L347.962 200.376V204.324V204.652V204.87L347.942 205.128C347.942 205.296 347.913 205.475 347.883 205.644C347.853 205.812 347.834 205.991 347.784 206.16C347.468 207.519 346.648 208.739 345.562 209.572C344.475 210.415 343.072 210.852 341.699 210.822V210.842ZM341.818 206.378C342.193 206.378 342.549 206.269 342.845 206.031C343.132 205.802 343.359 205.475 343.428 205.118C343.448 205.078 343.448 205.029 343.448 204.979C343.448 204.929 343.467 204.89 343.458 204.84V204.771V204.731V203.005V200.376L343.477 189.851L343.556 168.8L343.705 126.689L343.724 121.422V118.793L343.734 118.465C343.734 118.396 343.734 118.386 343.734 118.356V118.277C343.734 118.217 343.724 118.168 343.714 118.118C343.714 118.069 343.705 118.009 343.685 117.959C343.635 117.751 343.556 117.553 343.438 117.374C343.201 117.017 342.845 116.719 342.44 116.6C342.233 116.531 342.035 116.501 341.798 116.501L340.484 116.531L335.249 116.65L314.288 117.146L272.376 118.188L269.759 118.257C269.502 118.257 269.423 118.277 269.295 118.287C269.235 118.297 269.176 118.307 269.117 118.317L268.949 118.366C268.722 118.436 268.514 118.545 268.317 118.694C267.931 118.981 267.655 119.408 267.546 119.864C267.507 119.983 267.507 120.102 267.487 120.221C267.487 120.281 267.487 120.34 267.487 120.4V120.727L267.507 122.047L267.665 132.572L268.03 153.622L268.88 195.724L268.988 200.981L269.018 202.301V202.628L269.028 202.797V202.886C269.038 202.995 269.067 203.104 269.077 203.213C269.176 203.64 269.433 204.027 269.779 204.295C269.946 204.424 270.144 204.533 270.351 204.602C270.401 204.612 270.46 204.632 270.51 204.642C270.559 204.652 270.618 204.662 270.668 204.672C270.717 204.691 270.776 204.672 270.835 204.691H270.924L271.092 204.701L273.71 204.761L278.945 204.88L299.906 205.376L341.818 206.358V206.378Z" fill="#D5D8DD"/>
<path d="M286.878 166.808L276.832 167.156C276.15 167.175 275.587 166.62 275.617 165.935L275.963 156.065C275.982 155.42 276.516 154.914 277.158 154.924L286.69 155.103C287.322 155.113 287.836 155.628 287.846 156.263L288.023 165.618C288.033 166.263 287.53 166.799 286.887 166.818L286.878 166.808Z" fill="#DFE1E5"/>
<path d="M286.788 149.217L276.851 148.83C276.208 148.8 275.695 148.275 275.695 147.62V138.553C275.695 137.908 276.208 137.372 276.851 137.343L286.6 136.926C287.272 136.896 287.845 137.432 287.855 138.106L288.052 147.977C288.062 148.671 287.489 149.237 286.798 149.207L286.788 149.217Z" fill="#DFE1E5"/>
<path d="M286.808 184.664L276.723 184.297C276.2 184.277 275.785 183.84 275.785 183.315V174.198C275.785 173.672 276.2 173.236 276.723 173.216L286.808 172.849C287.362 172.829 287.816 173.275 287.816 173.831V183.672C287.816 184.227 287.362 184.674 286.808 184.654V184.664Z" fill="#DFE1E5"/>
<path d="M293.752 138.168L293.624 140.529L329.283 140.717L330.044 137.394L293.743 138.168H293.752Z" fill="#E3E5E8"/>
<path d="M323.218 145.507L323.347 143.632L294.592 143.136L293.94 145.784L323.218 145.507Z" fill="#E3E5E8"/>
<path d="M294.7 154.913L294.384 158.236L330.043 157.829L329.49 155.032L294.7 154.903V154.913Z" fill="#E3E5E8"/>
<path d="M323.218 163.027L323.347 160.726L293.94 160.656V163.305L323.209 163.027H323.218Z" fill="#E3E5E8"/>
<path d="M294.277 173.088L294.178 176.847L329.837 176.441L329.926 173.216L294.277 173.088Z" fill="#E3E5E8"/>
<path d="M323.662 181.628L323.79 178.89L294.384 178.82V181.905L323.652 181.628H323.662Z" fill="#E3E5E8"/>
<path fill-rule="evenodd" clip-rule="evenodd" d="M216.298 263.89L124.75 262.65C122.685 262.62 121.036 260.934 121.045 258.861L121.45 153.201C121.45 151.148 123.1 149.481 125.135 149.441L215.873 147.814C217.967 147.775 219.686 149.471 219.696 151.564L220.101 260.091C220.101 262.194 218.392 263.9 216.298 263.88V263.89Z" fill="white"/>
<path d="M216.277 265.655C214.094 265.616 211.911 265.675 209.728 265.745C207.545 265.814 205.362 265.834 203.179 265.765C200.996 265.705 198.813 265.526 196.63 265.417C194.447 265.298 192.264 265.318 190.081 265.288L163.885 265.011L137.689 264.743L124.522 264.614C123.692 264.574 122.872 264.356 122.131 263.959C121.39 263.572 120.748 263.017 120.245 262.352C119.741 261.687 119.375 260.914 119.198 260.09C119.148 259.882 119.128 259.674 119.099 259.475C119.079 259.267 119.069 259.049 119.069 258.86V251.46L119.03 198.843L119.01 172.535V159.381L119 156.087V154.441V153.617V153.21C119 152.982 119.01 152.754 119.04 152.536C119.237 150.721 120.264 149.024 121.776 148.022C122.526 147.516 123.396 147.179 124.295 147.04C124.522 147 124.749 146.991 124.966 146.971H125.124L125.223 146.961H125.43L126.25 146.941C134.982 146.752 143.714 146.524 152.446 146.425L178.643 146.078L204.839 145.731L211.388 145.641L214.667 145.602H215.487L215.922 145.592C216.139 145.592 216.356 145.592 216.574 145.622C217.443 145.711 218.292 145.999 219.033 146.445C219.774 146.891 220.426 147.506 220.91 148.231C221.394 148.955 221.72 149.788 221.858 150.651L221.908 150.978L221.927 151.306V151.465C221.927 151.465 221.937 151.584 221.937 151.613V154.282V160.859L221.888 213.475V239.784L221.908 252.938V259.515V259.932V260.15L221.898 260.447C221.898 260.646 221.858 260.844 221.829 261.043C221.799 261.241 221.75 261.439 221.7 261.638C221.483 262.412 221.088 263.146 220.564 263.751C220.041 264.356 219.379 264.852 218.648 265.179C217.917 265.517 217.107 265.685 216.307 265.665L216.277 265.655ZM216.327 262.134C216.919 262.134 217.473 261.876 217.858 261.429C218.045 261.211 218.184 260.943 218.263 260.666C218.273 260.596 218.302 260.527 218.312 260.457C218.312 260.388 218.342 260.308 218.332 260.239V260.13C218.332 260.13 218.332 260.001 218.332 259.941V259.525L218.283 252.948L218.194 239.794L218.006 213.485L217.571 160.869L217.512 154.292V152.645L217.492 151.822V151.613C217.492 151.613 217.492 151.574 217.492 151.554V151.514C217.492 151.514 217.492 151.455 217.492 151.425C217.492 151.395 217.482 151.375 217.473 151.345C217.433 151.127 217.354 150.919 217.226 150.73C217.097 150.542 216.929 150.393 216.732 150.284C216.544 150.175 216.327 150.105 216.109 150.086C216.06 150.086 216.001 150.086 215.941 150.086C215.941 150.086 215.892 150.086 215.862 150.086H215.764H215.556L214.736 150.105L211.457 150.175L204.908 150.324L178.722 150.919L152.535 151.514C143.803 151.722 135.071 151.812 126.339 151.931H125.519L125.312 151.941H125.213C125.213 151.941 125.184 151.941 125.164 151.941C125.114 151.941 125.065 151.941 125.026 151.951C124.848 151.98 124.67 152.04 124.512 152.139C124.196 152.338 123.978 152.695 123.939 153.052C123.939 153.101 123.939 153.151 123.929 153.191V153.607L123.919 154.431V156.077L123.88 159.371L123.771 172.525L123.544 198.833L123.109 251.45L123.06 258.027V258.85C123.06 258.93 123.06 258.989 123.06 259.049C123.07 259.108 123.07 259.178 123.089 259.237C123.139 259.485 123.247 259.723 123.406 259.941C123.712 260.368 124.216 260.636 124.729 260.666L137.758 260.904L163.954 261.34L190.15 261.777C192.333 261.806 194.516 261.876 196.699 261.816C198.882 261.767 201.065 261.638 203.248 261.648C205.431 261.648 207.614 261.727 209.797 261.846C211.971 261.975 214.154 262.094 216.337 262.114L216.327 262.134Z" fill="#D5D8DD"/>
<path d="M171.659 157.963L172.538 162.883L211.704 162.427L211.496 157.963H171.659Z" fill="#E3E5E8"/>
<path d="M167.342 166.542L167.144 171.463L211.703 171.007L211.496 166.542H167.342Z" fill="#E3E5E8"/>
<path d="M188.936 175.134L188.738 180.054L211.714 179.598V175.134H188.936Z" fill="#E3E5E8"/>
<path fill-rule="evenodd" clip-rule="evenodd" d="M152.427 250.38H143.793L143.28 227.405L152.861 225.887L152.427 250.39V250.38Z" fill="#E3E5E8"/>
<path fill-rule="evenodd" clip-rule="evenodd" d="M168.35 250.596L159.5 250.378L159.065 220.935L168.567 222.383L168.35 250.596Z" fill="#E3E5E8"/>
<path fill-rule="evenodd" clip-rule="evenodd" d="M183.829 250.379H175.195L174.761 215.669L184.263 216.175L183.829 250.379Z" fill="#E3E5E8"/>
<path fill-rule="evenodd" clip-rule="evenodd" d="M199.248 250.378H191.435L190.467 206.392L199.248 205.836V250.378Z" fill="#E3E5E8"/>
<path d="M147.498 175.155C137.639 175.155 129.619 183.21 129.619 193.11C129.619 203.011 137.639 211.066 147.498 211.066C157.356 211.066 165.377 203.011 165.377 193.11C165.377 183.21 157.356 175.155 147.498 175.155ZM147.498 202.386C142.401 202.386 138.262 198.219 138.262 193.11C138.262 188.002 142.411 183.835 147.498 183.835C152.585 183.835 156.733 188.002 156.733 193.11C156.733 198.219 152.585 202.386 147.498 202.386Z" fill="#D5D8DD"/>
</svg>
