<svg width="220" height="200" viewBox="0 0 220 200" fill="none" xmlns="http://www.w3.org/2000/svg">
  <!-- Background -->
  <circle cx="110" cy="100" r="92" fill="#FFF7F2"/>
  <circle cx="110" cy="100" r="74" fill="#FFEFE5"/>

  <!-- Tilted document behind -->
  <g transform="rotate(-6 110 100)">
    <rect x="58" y="40" width="100" height="120" rx="6" fill="white" stroke="#FBD9CE" stroke-width="1.5"/>
  </g>

  <!-- Main document card -->
  <rect x="56" y="34" width="108" height="128" rx="8" fill="white" stroke="#FBD9CE" stroke-width="2"/>

  <!-- Header lines -->
  <rect x="68" y="46" width="58" height="6" rx="3" fill="#3F4248"/>
  <rect x="68" y="56" width="38" height="4" rx="2" fill="#E3E5E8"/>

  <!-- Embedded mini chart -->
  <rect x="68" y="68" width="84" height="32" rx="4" fill="#FFEFE5"/>
  <rect x="78" y="86" width="6" height="10" rx="1" fill="#FBD9CE"/>
  <rect x="89" y="82" width="6" height="14" rx="1" fill="#FBD9CE"/>
  <rect x="100" y="78" width="6" height="18" rx="1" fill="#F7B59F"/>
  <rect x="111" y="74" width="6" height="22" rx="1" fill="#F7B59F"/>
  <rect x="122" y="80" width="6" height="16" rx="1" fill="#FBD9CE"/>
  <rect x="133" y="76" width="6" height="20" rx="1" fill="#F7B59F"/>
  <path d="M81 84 L92 80 L103 76 L114 72 L125 78 L136 74" stroke="#ED5A29" stroke-width="1.5" fill="none" stroke-linecap="round" stroke-linejoin="round"/>

  <!-- Findings list -->
  <!-- Line 1: regular -->
  <circle cx="73" cy="112" r="2" fill="#E3E5E8"/>
  <rect x="80" y="110" width="68" height="4" rx="2" fill="#E3E5E8"/>

  <!-- Line 2: HIGHLIGHTED (orange marker) -->
  <rect x="66" y="120" width="92" height="10" rx="2" fill="#FFD9CC" opacity="0.85"/>
  <circle cx="73" cy="125" r="2" fill="#ED5A29"/>
  <rect x="80" y="123" width="64" height="4" rx="2" fill="#3F4248"/>

  <!-- Line 3: regular -->
  <circle cx="73" cy="138" r="2" fill="#E3E5E8"/>
  <rect x="80" y="136" width="58" height="4" rx="2" fill="#E3E5E8"/>

  <!-- Line 4: HIGHLIGHTED -->
  <rect x="66" y="146" width="78" height="10" rx="2" fill="#FFD9CC" opacity="0.85"/>
  <circle cx="73" cy="151" r="2" fill="#ED5A29"/>
  <rect x="80" y="149" width="52" height="4" rx="2" fill="#3F4248"/>

  <!-- Star sticker on document -->
  <g transform="translate(146 36)">
    <circle cx="0" cy="0" r="10" fill="#ED5A29"/>
    <path d="M0 -5 L1.5 -1.5 L5.5 -1.5 L2.5 1 L3.5 5 L0 2.5 L-3.5 5 L-2.5 1 L-5.5 -1.5 L-1.5 -1.5 Z" fill="white"/>
  </g>

  <!-- Floating pen/marker at top right -->
  <g transform="translate(180 50) rotate(35)">
    <rect x="-3" y="-22" width="7" height="20" rx="1.5" fill="#ED5A29"/>
    <rect x="-3" y="-26" width="7" height="5" rx="1.5" fill="#FBD9CE"/>
    <path d="M-3 -2 L0.5 4 L4 -2 Z" fill="#3F4248"/>
  </g>

  <!-- Decorative sparkles -->
  <path d="M32 90 L33.5 94 L37.5 95.5 L33.5 97 L32 101 L30.5 97 L26.5 95.5 L30.5 94 Z" fill="#F7B59F"/>
  <path d="M192 100 L193.5 104 L197.5 105.5 L193.5 107 L192 111 L190.5 107 L186.5 105.5 L190.5 104 Z" fill="#ED5A29" opacity="0.7"/>
  <circle cx="30" cy="140" r="2.5" fill="#FBD9CE"/>

  <!-- Shadow -->
  <ellipse cx="110" cy="174" rx="56" ry="3.5" fill="#FBD9CE" opacity="0.5"/>
</svg>
