<svg width="148" height="148" viewBox="0 0 148 148" fill="none" xmlns="http://www.w3.org/2000/svg">
<path d="M103.551 126.39C86.008 137.262 65.5359 148.28 30.4608 124.975C-29.6847 85.0261 29.7988 41.4855 52.4259 30.0306C68.1428 22.0612 154.564 -35.2203 140.128 81.3697C135.924 111.166 121.094 115.518 103.551 126.39Z" fill="#FFF7F2"/>
<path fill-rule="evenodd" clip-rule="evenodd" d="M74.0004 51.5013C61.4994 43.9987 38.9931 48.1397 37.3489 47.9589C36.8419 47.9028 30.9603 101.924 30.9988 102.501C31.0058 102.605 39.2399 102.013 48.5 102.434C60.3791 102.974 73.9465 104.535 74 104.5C74.1512 104.402 74.0004 51.5013 74.0004 51.5013Z" fill="white"/>
<path fill-rule="evenodd" clip-rule="evenodd" d="M74.7942 51.5133C81.4984 43.9999 109.798 48.2232 111.442 48.0461C111.949 47.9912 116.869 102.278 116.831 102.848C116.824 102.95 109.59 101.361 100.331 101.769C88.4526 102.293 74.8869 103.823 74.8333 103.788C74.682 103.691 74.7942 51.5133 74.7942 51.5133Z" fill="white"/>
<path fill-rule="evenodd" clip-rule="evenodd" d="M92.1115 119.281C91.9569 119.321 91.7633 119.205 91.6391 119.104C91.5149 119.003 91.4897 118.776 91.5192 118.634L91.8694 115.233C92.1115 113.732 92.7172 113.271 93.3733 113.266C93.6664 113.255 94.0694 113.417 94.4572 113.649C95.0258 114.048 95.5664 114.486 96.0749 114.961C96.5382 115.393 96.9489 115.88 97.2982 116.411C97.4043 116.58 97.4762 116.769 97.5097 116.967C97.5432 117.165 97.5376 117.367 97.4933 117.563C97.3891 118.058 96.9518 118.407 96.2514 118.625C95.5511 118.844 94.5176 118.915 93.6783 119.103L93.6084 119.088L92.1115 119.281ZM92.7263 118.082L93.0669 115.419C93.1412 115.065 93.1859 114.853 93.2306 114.641C93.2601 114.499 93.2749 114.428 93.3448 114.444C93.5114 114.473 93.6714 114.532 93.8168 114.62C94.2046 114.852 94.687 115.327 95.2389 115.816C95.7214 116.291 96.0797 116.664 96.2291 116.993C96.2838 117.078 96.3242 117.235 96.309 117.306C96.2938 117.378 96.2243 117.362 96.2096 117.433C96.1249 117.488 95.9717 117.529 95.817 117.569C95.1162 117.787 94.2222 117.889 93.3971 118.004L92.7263 118.082Z" fill="#ED5A29"/>
<path fill-rule="evenodd" clip-rule="evenodd" d="M142.366 102.23V102.578C142.453 105.888 139.937 107.63 137.249 107.804C136.468 107.891 135.601 107.717 134.82 107.456C132.999 106.759 131.611 105.278 131.524 102.927C131.438 101.533 131.698 100.488 132.218 99.6172C133.172 98.0495 134.82 97.2656 136.641 97.2656C137.769 97.2656 138.897 97.614 139.851 98.1366C141.325 99.0075 142.453 100.401 142.366 102.23ZM141.585 102.23V102.491C141.499 105.104 139.33 106.41 137.249 106.41C136.641 106.41 135.948 106.323 135.341 106.062C134.04 105.54 132.912 104.494 132.825 102.84C132.739 101.533 133.085 100.488 133.693 99.8784C134.386 99.0946 135.514 98.8333 136.555 98.8333C137.422 98.8333 138.376 99.0075 139.157 99.3559C140.458 99.8784 141.499 100.836 141.585 102.23Z" fill="#ED5A29"/>
<path fill-rule="evenodd" clip-rule="evenodd" d="M25.4602 41.2174C26.9128 40.907 26.7679 37.9761 24.7364 38.5703C23.0707 39.0063 23.7018 41.5931 25.3838 41.2337L25.4602 41.2174Z" fill="#ED5A29"/>
<path d="M112.212 40.2393C112.657 40.3168 113.114 40.2957 113.55 40.1775C113.986 40.0592 114.391 39.8466 114.735 39.5548C115.573 38.8505 116.185 37.7363 116.212 36.6355C116.25 35.4057 115.694 34.3172 115.253 33.3668C115.145 33.0977 114.979 32.7582 114.872 32.4891C114.529 31.9398 114.062 30.5346 114.981 29.6428C115.55 29.0444 116.602 28.8783 117.654 28.7122L117.349 26.9313C116.296 27.0974 114.718 27.3466 113.72 28.4255C112.582 29.6215 112.359 31.4859 113.179 33.3115C113.346 33.6509 113.453 33.92 113.619 34.2589C114.069 35.0784 114.391 35.8857 114.383 36.7267C114.351 37.113 114.039 37.7347 113.55 38.1455C113.291 38.3656 112.956 38.4755 112.616 38.4518L112.212 40.2393Z" fill="#F15928"/>
<path fill-rule="evenodd" clip-rule="evenodd" d="M37.3582 48.5418L32.1138 101.7C40.7722 100.946 56.9702 101.399 61.5708 101.819C61.7115 101.832 61.8531 101.845 61.9953 101.858C64.2633 102.064 66.7077 102.287 68.8648 102.604C70.3707 102.826 71.8213 103.103 72.999 103.489V52.5351C72.9727 52.5132 72.9472 52.4914 72.9226 52.4701C72.7937 52.3582 72.6531 52.2257 72.5176 52.0982C72.4769 52.0598 72.4367 52.0219 72.3973 51.9851C72.0409 51.6518 71.6132 51.2696 71.0032 50.8716C69.7888 50.0793 67.7571 49.1639 64.0595 48.6334C61.3314 48.242 56.2198 48.0139 50.8713 48.0006C45.9168 47.9883 40.8388 48.1605 37.3582 48.5418ZM50.8763 46.0006C56.2377 46.0139 61.6243 46.5874 64.5 47C68.4226 47.5628 70.5888 48.2132 72.096 49.1966C72.8468 49.6864 73.3715 50.1578 73.7635 50.5245C73.818 50.5754 73.8676 50.6221 73.9135 50.6654C74.0397 50.7841 74.138 50.8767 74.2333 50.9594C74.3605 51.0698 74.4226 51.1084 74.4477 51.121L74.999 51.3979L74.5 105.863H73.4938C72.5952 105.337 70.8497 104.918 68.5737 104.583C66.4737 104.274 64.0812 104.056 61.7973 103.848C61.6608 103.836 61.5247 103.823 61.3891 103.811C56.6372 103.377 40.4997 101.819 31.9997 104C31.9997 104 30.4997 104.5 29.8826 103.946C29.2654 103.391 34.9712 47.2467 35.5002 47C36.0292 46.7533 36.3144 46.6517 36.3144 46.6517C39.9184 46.188 45.5096 45.9873 50.8763 46.0006Z" fill="#FBD9CE"/>
<path fill-rule="evenodd" clip-rule="evenodd" d="M110.64 48.5436L113 68L115.884 101.702C107.226 100.947 91.0278 101.401 86.4272 101.821C86.2865 101.834 86.145 101.847 86.0027 101.86C83.7347 102.066 81.2903 102.289 79.1333 102.606C77.6273 102.827 76.1767 103.105 74.9991 103.491V52.537C75.0253 52.5151 75.0508 52.4933 75.0754 52.4719C75.2043 52.3601 75.345 52.2276 75.4804 52.1C75.5211 52.0617 75.5614 52.0238 75.6007 51.987C75.9571 51.6536 76.3849 51.2714 76.9949 50.8735C78.2092 50.0812 80.2409 49.1657 83.9386 48.6352C86.6667 48.2438 91.7783 48.0158 97.1267 48.0025C102.081 47.9902 107.159 48.1624 110.64 48.5436ZM97.1267 46.6567C91.7653 46.6701 86.5302 46.2429 83.6545 46.6555C79.7319 47.2183 77.4092 48.2151 75.902 49.1984C75.1513 49.6882 74.6265 50.1597 74.2345 50.5264C74.18 50.5773 74.1304 50.624 74.0845 50.6672C73.9584 50.786 73.86 50.8786 73.7647 50.9613C73.6375 51.0717 73.5754 51.1103 73.5503 51.1229L72.9991 51.3997V105.002L74.5043 105.865C75.4028 105.339 77.1483 104.919 79.4244 104.585C81.5243 104.276 83.9168 104.058 86.2007 103.85C86.3372 103.837 93.8644 103.012 94 103C98.7519 102.566 108.815 102.91 116.888 103.811C116.888 103.811 117.54 104.084 118.115 103.948C118.691 103.811 112.998 49.5019 112.498 48.0019C111.998 46.5019 111.684 46.6535 111.684 46.6535C108.08 46.1899 102.493 46.6434 97.1267 46.6567Z" fill="#FBD9CE"/>
<path fill-rule="evenodd" clip-rule="evenodd" d="M106.473 58.6481C87.1563 57.8359 81.9298 58.6523 79.4819 60.7097C78.739 60.776 79.9616 63.2897 80.0009 63.5024C80.0084 63.5426 82.0454 61.8889 88.1569 61.337C95.2958 60.6923 106.673 61.1296 106.75 61.108C106.975 61.0445 106.473 58.6481 106.473 58.6481Z" fill="#F7B59F"/>
<path fill-rule="evenodd" clip-rule="evenodd" d="M106.6 71.9852C88.6563 71.3351 82.1563 72.8359 79.609 74.0468C78.8661 74.1132 80.0887 76.6268 80.128 76.8395C80.1355 76.8798 82.1725 75.2261 88.2839 74.6741C95.4229 74.0294 105.158 74.837 106.877 74.4451C107.102 74.3816 106.6 71.9852 106.6 71.9852Z" fill="#F7B59F"/>
<path fill-rule="evenodd" clip-rule="evenodd" d="M100.869 64.5937C85.6599 64.5958 82.6562 64.8359 79.5447 67.0518C78.9575 67.0977 79.9953 69.6356 80.0323 69.8486C80.0393 69.8889 81.6092 68.2966 86.4393 67.9132C92.0815 67.4652 100.638 66.6946 101.155 67.0522C101.332 66.9951 100.869 64.5937 100.869 64.5937Z" fill="#F7B59F"/>
<path fill-rule="evenodd" clip-rule="evenodd" d="M101.656 77.8359C86.4476 77.8381 82.6542 78.1642 79.5427 80.38C78.9555 80.4259 79.5066 82.6231 79.5436 82.8361C79.5506 82.8764 81.1205 81.2842 85.9506 80.9007C91.5928 80.4528 100.636 80.0229 101.153 80.3805C101.33 80.3234 101.656 77.8359 101.656 77.8359Z" fill="#F7B59F"/>
<path fill-rule="evenodd" clip-rule="evenodd" d="M40 87.5C40.7382 87.1315 41.0694 87 42.2458 87C43.5738 87 44.6669 87.3688 45.3265 88.3867C45.9056 89.2804 46.0046 90.4888 46.0046 91.7244C46.0046 92.541 45.7888 93.069 45.3265 93.6199C44.8743 94.1589 44.3711 94.3334 43.7783 94.5C42.6245 94.8244 41.6088 94.7217 40.6237 94.5C39.4274 94.2308 38.5443 93.8665 38.001 92.8184C37.4365 91.7294 37.5011 91 38 89.5C38.3326 88.5 39.2536 87.8726 40 87.5ZM40.3338 89.2561C40.0526 89.3965 39.8303 89.6247 39.3693 90.2489L39.3519 90.2725L39.3332 90.295C38.9268 90.7828 38.9292 91.2743 39.1654 91.7299C39.4267 92.234 39.9808 92.6737 40.6237 92.8184C41.4777 93.0106 42.4367 93.0761 43.1234 92.8831C43.4508 92.791 43.6554 92.6575 43.7783 92.511C43.8913 92.3763 44.0046 92.1496 44.0046 91.7244C44.0046 90.4766 43.8736 89.8224 43.6481 89.4743C43.503 89.2505 43.2168 88.9992 42.2458 88.9992C41.1234 88.9992 40.632 89.1072 40.3338 89.2561Z" fill="#ED5A29"/>
<path fill-rule="evenodd" clip-rule="evenodd" d="M56.1225 93.8081C55.4164 94.2349 54.5367 94.4054 53.364 94.5002C52.0404 94.6074 50.921 94.3271 50.1815 93.3657C49.5322 92.5216 49.3361 91.3252 49.2364 90.0936C49.1039 88.4553 49.8931 87.6719 51 87C52.0434 86.3667 53.3921 86.4682 54.5004 86.6251C55.7949 86.8083 56.8224 87.4151 57.4946 88.4998C58.169 89.588 58.5669 90.7855 57.6543 92.1065C57.2539 92.7507 56.8366 93.3764 56.1225 93.8081ZM55.0879 92.0965C55.3567 91.9339 55.5599 91.6885 55.9691 91.0291L55.9845 91.0043L56.0014 90.9803C56.3077 90.5456 56.2991 89.9199 55.8661 89.221C55.4264 88.5115 54.7143 88.0262 54.1423 87.9452C53.3841 87.8379 52.5664 87.9687 52.0017 88.3115C51.5005 88.6157 51.1622 89.0951 51.2299 89.9323C51.3306 91.176 51.5139 91.8176 51.7667 92.1463C51.9294 92.3577 52.2349 92.5851 53.2027 92.5068C54.3215 92.4162 54.8026 92.2689 55.0879 92.0965Z" fill="#ED5A29"/>
<path fill-rule="evenodd" clip-rule="evenodd" d="M61.997 90.0004C62.3355 89.2735 62.5748 88.8652 63.4411 88.2328C63.9356 87.8718 64.4518 87.6068 64.9999 87.5C65.5671 87.3894 66.1091 87.4601 66.6158 87.6803C67.5516 88.0872 68.3495 88.4259 69.0757 89.4207C70.0143 90.7062 70.082 92.0506 69.558 93.1813C69.065 94.2456 68.0984 95.0204 67.1216 95.4181C65.9615 95.8906 64.5291 95.6229 63.4528 95.0269C62.37 94.4272 61.723 93.865 61.732 92.3404C61.7022 91.6158 61.6602 90.7236 61.997 90.0004ZM63.4537 90.4451C63.3426 90.6838 63.3115 90.9719 63.3433 91.731L63.3444 91.7594L63.344 91.7878C63.336 92.3202 63.7007 92.8779 64.4218 93.2772C65.1566 93.6842 65.9401 93.7398 66.3674 93.5658C66.978 93.3171 67.5054 92.854 67.7434 92.3405C67.9505 91.8935 67.9863 91.3203 67.4604 90.6C66.7223 89.589 66.2282 89.1137 65.8441 88.9467C65.6908 88.88 65.5594 88.8658 65.4084 88.8952C65.2382 88.9284 64.9912 89.0284 64.6461 89.2804C63.8332 89.8739 63.5672 90.2015 63.4537 90.4451Z" fill="#ED5A29"/>
<path fill-rule="evenodd" clip-rule="evenodd" d="M49.9895 75.2911C50.4225 74.9482 50.9289 74.8596 51.2717 75.2926C52.1694 76.4266 54.0201 78.7188 54.5635 79.2526C55.203 79.8809 56.3747 81.1891 56.9896 81.9141C57.3468 82.3352 57.4108 83.0568 56.9896 83.4141C56.5684 83.7713 56.0823 83.9814 55.7251 83.5602C55.0899 82.8114 53.5501 80.4647 52.9896 79.9141C52.333 79.269 51.3367 77.4906 50.4844 76.4141C50.1416 75.981 49.5565 75.6339 49.9895 75.2911Z" fill="#ED5A29"/>
<path fill-rule="evenodd" clip-rule="evenodd" d="M57.5058 75.9804C57.8486 76.4134 57.9373 76.9198 57.5042 77.2626C56.3703 78.1603 54.0781 80.011 53.5442 80.5544C52.916 81.1939 51.6077 82.3656 50.8828 82.9805C50.4616 83.3377 49.7401 83.4016 49.3828 82.9805C49.0256 82.5593 48.8155 82.0732 49.2367 81.7159C49.9854 81.0808 51.9337 79.9746 52.4844 79.4141C53.1295 78.7575 55.1863 76.5468 56.2628 75.6945C56.6959 75.3517 57.163 75.5474 57.5058 75.9804Z" fill="#ED5A29"/>
<path fill-rule="evenodd" clip-rule="evenodd" d="M37.9895 69.2911C38.4225 68.9482 38.9289 68.8596 39.2717 69.2926C40.1694 70.4266 42.0201 72.7188 42.5635 73.2526C43.203 73.8809 44.3747 75.1891 44.9896 75.9141C45.3468 76.3352 45.4108 77.0568 44.9896 77.4141C44.5684 77.7713 44.0823 77.9814 43.7251 77.5602C43.0899 76.8114 41.5501 74.4647 40.9896 73.9141C40.333 73.269 39.3367 71.4906 38.4844 70.4141C38.1416 69.981 37.5565 69.6339 37.9895 69.2911Z" fill="#ED5A29"/>
<path fill-rule="evenodd" clip-rule="evenodd" d="M45.5058 69.9804C45.8486 70.4134 45.9373 70.9198 45.5042 71.2626C44.3703 72.1603 42.0781 74.011 41.5442 74.5544C40.916 75.1939 39.6077 76.3656 38.8828 76.9805C38.4616 77.3377 37.7401 77.4016 37.3828 76.9805C37.0256 76.5593 36.8155 76.0732 37.2367 75.7159C37.9854 75.0808 39.9337 73.9746 40.4844 73.4141C41.1295 72.7575 43.1863 70.5468 44.2628 69.6945C44.6959 69.3517 45.163 69.5474 45.5058 69.9804Z" fill="#ED5A29"/>
<path fill-rule="evenodd" clip-rule="evenodd" d="M50.728 54.32C51.2795 54.3483 51.7185 54.6159 51.6902 55.1674C51.6163 56.6118 51.4939 59.5553 51.5498 60.315C51.6156 61.2091 51.7344 61.4226 51.7179 62.3731C51.7084 62.9253 51.2802 63.5096 50.728 63.5C50.1758 63.4904 49.6719 63.3274 49.6815 62.7752C49.6985 61.7935 49.9885 60.5568 49.9308 59.7732C49.8632 58.8552 50.2884 56.8616 50.3586 55.4903C50.3868 54.9387 50.1764 54.2918 50.728 54.32Z" fill="#ED5A29"/>
<path fill-rule="evenodd" clip-rule="evenodd" d="M51.6405 54.8543C51.7332 55.3987 51.5678 55.8854 51.0233 55.9781C49.5975 56.2209 46.6982 56.7432 45.969 56.9634C45.1107 57.2225 45.2468 57.4927 44.3157 57.6838C43.7747 57.7949 43.1111 57.5044 43 56.9634C42.8889 56.4224 42.9382 55.8951 43.4792 55.7841C44.441 55.5867 44.8348 55.6813 45.587 55.4542C46.4682 55.1881 49.334 54.237 50.6876 54.0065C51.2321 53.9138 51.5478 54.3098 51.6405 54.8543Z" fill="#ED5A29"/>
<path fill-rule="evenodd" clip-rule="evenodd" d="M59.9895 56.2911C60.4225 55.9482 60.9289 55.8596 61.2717 56.2926C62.1694 57.4266 64.0201 59.7188 64.5635 60.2526C65.203 60.8809 66.3747 62.1891 66.9896 62.9141C67.3468 63.3352 67.4108 64.0568 66.9896 64.4141C66.5684 64.7713 66.0823 64.9814 65.7251 64.5602C65.0899 63.8114 63.5501 61.4647 62.9896 60.9141C62.333 60.269 61.3367 58.4906 60.4844 57.4141C60.1416 56.981 59.5565 56.6339 59.9895 56.2911Z" fill="#ED5A29"/>
<path fill-rule="evenodd" clip-rule="evenodd" d="M67.5058 56.9804C67.8486 57.4134 67.9373 57.9198 67.5042 58.2626C66.3703 59.1603 64.0781 61.011 63.5442 61.5544C62.916 62.1939 61.6077 63.3656 60.8828 63.9805C60.4616 64.3377 59.7401 64.4016 59.3828 63.9805C59.0256 63.5593 58.8155 63.0732 59.2367 62.7159C59.9854 62.0808 61.9337 60.9746 62.4844 60.4141C63.1295 59.7575 65.1863 57.5468 66.2628 56.6945C66.6959 56.3517 67.163 56.5474 67.5058 56.9804Z" fill="#ED5A29"/>
<path fill-rule="evenodd" clip-rule="evenodd" d="M50.4528 55.2692C50.8565 55.6461 50.8781 56.2789 50.5011 56.6825C50.3606 56.833 50.2086 56.9903 50.0494 57.155C48.7602 58.489 46.8397 59.863 46.8438 62.5469C46.8438 63.0953 46.6284 63.6225 47 64.0469C47.3664 64.4653 47.6849 64.9257 48.4406 65.4151C49.9495 66.3925 52.0375 67.3786 54.3104 68.349C55.6689 68.929 57.0501 69.4857 58.3935 70.0272C59.3094 70.3964 60.2078 70.7585 61.0693 71.1161C63.1321 71.9721 65.7089 72.6476 66.8133 73.4238C68.875 74.8731 69.1732 77.3999 68.9288 79.5804C68.679 81.8084 68.2012 82.1035 67.5 83.5C67.2522 83.9936 66.283 86.1415 65.7895 85.8937C65.2959 85.6459 65.0967 85.0449 65.3445 84.5513C65.9742 83.2973 66.7252 81.2847 66.9412 79.3576C67.1626 77.3829 66.7954 75.856 65.6631 75.06C64.7712 74.4331 63.1145 73.6758 61.0092 72.8022C60.1913 72.4627 59.3065 72.1059 58.3935 71.7378C57.0262 71.1864 55.5957 70.6096 54.2316 70.0272C51.9449 69.0509 49.7222 68.0093 48.0598 66.9326C47.2297 66.3949 46.4938 65.8199 45.9553 65.205C45.4221 64.596 45.0013 63.8536 45 63.0015C44.9946 59.439 47.3872 57.0046 48.6457 55.724C48.7948 55.5723 48.928 55.4367 49.0394 55.3175C49.4164 54.9138 50.0492 54.8922 50.4528 55.2692Z" fill="#ED5A29"/>
<path fill-rule="evenodd" clip-rule="evenodd" d="M56.8249 106.432C49.141 106.322 38.5035 106.628 34.1493 107.196C33.6017 107.268 33.0998 106.882 33.0284 106.334C32.9569 105.786 40.452 105.155 40.9997 105.084C45.5049 104.496 49.1541 104.322 56.8536 104.433C65.9193 104.563 69.4839 105.316 71.5355 105.749C72.1755 105.885 72.6683 105.989 73.1349 106.033C73.6847 106.086 74.5904 106.452 74.538 107.001C74.4857 107.551 73.4953 108.077 72.9455 108.024C72.3006 107.963 71.7059 107.838 70.9708 107.683C68.8737 107.241 65.6336 106.559 56.8249 106.432Z" fill="#FBD9CE"/>
<path fill-rule="evenodd" clip-rule="evenodd" d="M91.6985 106.123C99.3794 105.88 110.021 106.001 114.384 106.493C114.933 106.555 115.438 105.549 115.5 105C115.562 104.451 104.049 104.562 103.5 104.5C98.9853 103.991 99.3315 103.88 91.635 104.124C82.573 104.412 79.022 105.227 76.9782 105.696C76.3407 105.842 75.8498 105.955 75.384 106.008C74.8352 106.069 73.936 106.451 73.9979 107C74.0598 107.549 72.4491 108.062 72.9979 108C73.6416 107.927 76.8441 107.787 77.5764 107.619C79.6656 107.141 82.8933 106.403 91.6985 106.123Z" fill="#FBD9CE"/>
</svg>
