<svg width="280" height="280" viewBox="0 0 280 280" fill="none" xmlns="http://www.w3.org/2000/svg">
<g clip-path="url(#clip0_13085_1650)">
<path d="M200.083 232.614C175.056 249.41 148.862 259.548 122.09 260.406C95.1534 261.234 68.03 252.504 49.2403 235.388C30.4454 218.275 20.3431 192.669 13.2739 165.157C6.37367 137.673 2.66571 108.313 11.9766 80.8525C21.2615 53.5559 43.3473 28.4694 69.6775 21.7537C96.0076 15.0379 126.733 26.8945 153.668 40.0267C180.794 53.0165 204.305 67.3005 223.362 89.2237C242.609 111.009 257.373 140.587 253.043 166.798C248.708 193.008 225.089 215.982 200.083 232.614Z" fill="#FFF7F2"/>
<path d="M30.6429 23.2922L25.9559 26.4554L22.5125 26.3276L20.456 30.3214L20.3125 35.0181L17.5545 35.9767C17.5545 35.9767 15.9125 38.325 16.04 38.8842C16.1676 39.4433 22.2415 47.0156 22.2415 47.0156L31.3284 50.1947L96.1643 163.716L95.7497 204.005L91.3498 210.348L93.5498 245.382L94.2353 251.74L95.4787 253.944L93.6933 257.108L108.28 266.357L127.139 255.462L138.426 263.05L153.986 262.635L154.671 258.497L160.458 257.251L164.715 254.775L163.073 248.832L154.4 243.049L162.658 223.288L161.144 212.552L162.116 199.245L167.473 169.371L226.41 103.057L247.772 70.8668L267.684 59.8598L268.911 52.9425L261.801 50.0829L262.614 44.172L257.321 43.3573L255.6 36.4559L246.752 43.1496L240.646 43.3573L237.808 53.7572L241.666 63.9335L185.136 137.085L165.767 152.613C165.767 152.613 162.77 153.38 162.578 150.536C162.387 147.692 169.29 132.803 169.29 132.803L181.071 126.285L182.904 117.531L180.465 108.153L171.107 108.553L166.436 82.6886L145.903 53.5496L123.935 53.1342L105.235 70.2598L91.6208 103.664L92.6251 138.506L82.6614 126.285L54.4123 70.8668L38.9486 46.6162L43.8269 32.1586L42.408 25.4329L35.5052 26.6471L30.6429 23.2922Z" fill="white"/>
<path d="M59.7372 226.403C58.2068 227.234 56.7082 226.243 55.2097 226.307C46.8402 226.674 38.4547 226.515 30.1011 226.85C25.5736 227.026 22.6722 230.317 20.7591 234.327C17.4273 241.276 19.5954 250.414 25.5576 254.344C27.4069 255.558 29.3997 256.245 31.6794 256.181C39.1083 255.973 46.5691 256.037 53.9981 255.606C58.6372 255.318 63.2285 255.206 67.8835 255.574C69.8284 255.734 69.8284 256.484 69.4936 257.81C68.569 261.405 69.1748 264.855 70.3864 268.29C72.1241 273.29 77.2414 277.62 82.8849 277.252C90.1703 276.773 97.4877 277.108 104.741 277.748C113.956 278.578 123.191 279.297 132.448 279.904C137.693 280.272 142.938 279.537 148.183 279.201C153.428 278.866 158.354 278.371 163.312 277.156C165.799 276.549 168.286 275.814 170.279 274.089C174.806 270.127 175.731 264.424 172.781 258.913C171.586 256.676 171.618 256.884 174.2 256.58C179.716 255.941 185.264 255.526 190.684 254.216C196.105 252.906 198.799 249.631 198.639 245.286C198.48 240.94 195.18 237.474 189.839 236.563C186.587 236.02 183.303 235.669 180.035 235.221C179.962 235.127 179.867 235.052 179.759 235.002C179.651 234.952 179.532 234.929 179.413 234.934C172.813 237.122 166.405 239.774 159.916 242.234C158.928 242.794 157.318 242.985 157.254 244.215C157.19 245.445 158.896 245.589 159.884 246.052C163.137 247.586 166.213 249.136 166.357 253.449C166.453 256.628 165.066 258.242 161.861 258.337C160.474 258.385 159.071 258.417 157.684 258.226C156.298 258.034 155.979 258.401 155.963 259.711C155.915 263.002 155.692 263.194 152.44 263.498C151.745 263.563 151.061 263.707 150.399 263.929C146.685 265.079 143.098 265.111 139.16 264.2C134.84 263.194 131.54 260.973 128.24 258.417C127.124 257.571 125.992 257.539 124.78 258.258C120.444 260.814 115.741 262.715 111.66 265.766C108.822 267.891 106.495 267.555 103.37 265.606C101.8 264.63 100.146 263.796 98.4283 263.114C94.2196 261.453 92.5138 258.226 93.7573 253.8C94.0283 252.874 93.7095 252.251 93.0718 251.772C90.9037 250.126 90.6645 248.049 91.7486 245.765C92.5457 244.072 92.1312 243.113 90.3298 242.714C88.5124 241.995 86.5675 241.547 84.9255 240.397C83.9226 239.888 82.9582 239.306 82.0399 238.656C81.7991 238.473 81.549 238.302 81.2907 238.145L80.2385 237.554C79.6168 237.202 79.0269 236.771 78.3574 236.499C75.2965 235.173 72.3632 233.608 69.4299 232.042C68.7125 231.627 68.0429 231.132 67.3415 230.7C66.593 230.397 65.8728 230.028 65.1893 229.598L64.3922 229.119C63.3082 228.416 62.3198 227.585 61.2835 226.818C60.8372 226.499 60.4386 225.86 59.7372 226.403Z" fill="#FFE0CC"/>
<path d="M139.893 172.63C137.884 174.771 136.513 174.435 135.366 171.336C134.871 172.231 133.787 172.71 134.345 173.924C134.712 174.691 135.381 175.074 136.163 175.186C137.868 175.41 137.916 176.544 137.821 177.886C137.709 179.515 136.737 181.129 137.629 182.79C139.367 184.004 137.773 185.794 138.458 187.647C139.303 185.666 140.403 184.468 140.1 182.231C139.718 179.579 140.435 176.784 141.886 174.339L139.893 172.63Z" fill="#EF5929"/>
<path d="M88.2093 4.63277C90.0745 3.91388 90.489 5.87885 90.9035 7.077C93.7093 14.9529 96.9136 22.7009 99.0498 30.8164C99.3687 32.0145 99.7353 33.1967 99.9745 34.0434C100.038 35.4652 99.6716 36.28 98.6194 36.5675C97.5672 36.8551 96.9295 36.3279 96.4991 35.5132C96.2087 34.8799 95.974 34.2224 95.7977 33.5482C93.4701 25.0173 90.4093 16.7261 87.7948 8.27515C87.3962 6.99713 86.36 5.35166 88.2093 4.63277Z" fill="#040404"/>
<path d="M100.74 45.993C102.286 45.961 103.195 46.9195 103.195 48.4691C103.195 50.0187 102.206 50.6418 100.804 50.8814C99.4804 50.6897 98.4602 50.0507 98.3964 48.581C98.3327 47.1112 99.2094 46.0249 100.74 45.993Z" fill="#040404"/>
<path d="M179.621 23.6436C180.434 22.1578 181.39 20.736 182.315 19.3142C182.745 18.6592 183.319 18.0043 184.212 18.4516C185.105 18.8989 184.945 19.7615 184.595 20.4804C181.853 26.2848 179.084 32.0679 176.289 37.8297C176.068 38.2394 175.764 38.5985 175.396 38.884C174.886 39.2834 174.312 39.4751 173.659 39.1396C173.005 38.8042 172.622 38.245 172.59 37.2066C172.75 36.8711 172.957 36.2801 173.228 35.7529C175.348 31.7111 177.453 27.6534 179.621 23.6436Z" fill="#050505"/>
<path d="M169.131 46.8239C170.677 46.8559 171.586 47.8463 171.506 49.348C171.427 50.8497 170.486 51.6165 169.035 51.5526C167.585 51.4887 166.899 50.5462 166.74 49.1084C166.963 47.7824 167.664 46.8079 169.131 46.8239Z" fill="#050505"/>
<path d="M159.534 211.322C158.705 212.248 158.434 213.335 158.561 214.533C160.586 214.405 161.606 213.431 161.319 211.306C160.729 211.785 160.123 211.29 159.534 211.322Z" fill="#F06133"/>
<path d="M128.495 25.4807C128.654 22.5253 128.877 19.5698 129.069 16.6304H129.292C129.292 14.6973 129.196 12.7483 129.308 10.8153C129.483 7.78001 129.643 4.74469 130.472 1.80523C130.806 0.655 131.492 -0.223644 132.815 0.0479368C134.138 0.319518 134.329 1.38987 134.266 2.58802C133.851 10.2668 133.431 17.951 133.006 25.6404C132.911 27.2699 132.496 28.7556 130.615 28.7077C128.734 28.6598 128.415 27.0303 128.495 25.4807Z" fill="#0E0E0E"/>
<path d="M130.2 40.8492C131.093 40.8332 131.635 41.3764 131.667 42.271C131.699 43.1656 131.157 43.7248 130.264 43.7248C129.371 43.7248 128.877 43.2136 128.718 42.1911C128.909 41.5202 129.292 40.8652 130.2 40.8492Z" fill="#0E0E0E"/>
<path d="M137.629 182.79C137.916 181.128 138.331 179.483 138.474 177.805C138.618 176.128 138.952 174.339 136.21 174.69C135.636 174.77 134.967 174.195 134.345 173.923C132.289 175.137 131.715 177.246 131.125 179.323C130.312 182.183 129.578 185.074 128.797 187.95C128.494 189.435 129.26 190.314 130.519 190.889C131.587 189.995 132.273 188.685 134.249 189.611C135.078 189.995 136.354 188.397 136.673 187.023C136.991 185.649 137.31 184.211 137.629 182.79Z" fill="#E53012"/>
<path d="M123.154 177.678C124.382 180.282 125.625 182.902 127.299 185.266C127.491 184.723 128.288 184.994 128.479 184.307C129.372 181.112 130.551 177.981 130.583 174.61C130.615 172.837 129.42 172.182 127.809 172.821C126.199 173.46 124.605 174.642 123.936 176.559C123.776 176.975 123.409 177.31 123.154 177.678Z" fill="#E53012"/>
<path d="M162.834 195.523C160.825 193.494 160.921 191.145 161.67 188.637C161.766 188.35 161.495 187.934 161.383 187.583L158.179 185.937C155.086 188.797 154.767 188.733 152.551 184.979C151.978 184.004 151.77 182.966 151.563 181.896C148.12 179.659 144.804 177.263 141.886 174.339C140.898 174.18 140.77 175.026 140.595 175.617C139.957 177.998 139.16 180.362 139.479 182.886C139.591 183.765 139.415 184.563 138.985 185.426C138.953 184.276 139.065 183.11 137.694 182.694C136.418 183.541 136.657 185.011 136.275 186.209C135.765 187.743 135.27 189.069 133.118 188.717C131.811 188.509 130.902 189.532 130.296 190.698C130.213 191.243 130.332 191.8 130.631 192.264C132.799 195.842 134.824 199.516 137.152 203.015C138.379 203.111 138.347 203.83 138.172 204.804C137.996 205.779 137.486 207.888 138.873 208.031C140.563 208.207 139.909 206.21 140.117 205.108C140.436 203.43 140.691 201.737 140.978 200.06C141.265 198.382 141.87 197.711 143.496 198.622C143.975 198.877 144.517 198.941 145.043 199.085C146.637 199.516 147.466 200.619 147.004 202.216C145.84 206.242 144.772 210.284 144.07 214.421C143.975 214.981 143.799 215.827 142.97 215.652C142.141 215.476 142.476 214.773 142.46 214.246C142.444 213.719 142.62 213.159 142.667 212.616C142.763 211.658 143.209 210.252 141.998 210.044C140.786 209.837 140.898 211.306 140.738 212.201C140.579 213.096 140.372 214.182 140.212 215.188C140.053 216.195 140.005 216.882 139.208 217.617C138.586 216.993 138.778 216.179 138.618 215.476C138.459 214.773 138.523 214.262 137.869 214.166C137.215 214.07 136.769 214.661 136.514 215.22C135.828 216.642 135.669 218.208 135.446 219.741C135.223 221.275 134.728 223.032 134.425 224.678C134.266 225.572 134.043 226.499 134.84 227.25C140.101 222.393 146.35 219.262 153.078 216.962C153.301 216.227 153.524 215.492 153.556 214.709C153.588 213.926 153.97 213.064 155.134 213.239C155.931 213.367 156.425 212.824 156.888 212.297C157.35 211.77 157.701 210.907 156.521 210.587C155.341 210.268 154.911 209.277 155.15 208.079C155.389 206.881 155.485 205.619 155.676 204.405C155.931 202.568 157.382 201.929 158.689 201.146C159.375 200.731 159.662 201.258 159.869 201.801C160.363 203.111 160.251 204.357 159.63 205.619C158.753 207.44 158.689 209.341 159.279 211.274C159.948 211.849 160.618 212.409 161.319 211.306C161.814 206.05 162.324 200.779 162.834 195.523Z" fill="#EA421B"/>
<path d="M96.0368 155.281C95.431 157.469 95.2716 159.706 96.1803 161.799C96.7861 163.236 96.3237 163.971 95.144 164.61C95.144 167.406 95.1281 170.202 95.1122 172.997C95.5266 173.429 96.0687 173.652 96.5948 173.525C99.8469 172.694 102.079 175.282 104.869 175.985C105.873 176.24 105.809 177.327 105.65 178.189C105.379 179.723 105.044 181.273 104.406 182.662C102.876 186.001 102.573 189.74 100.835 192.999C100.086 194.388 100.899 195.203 102.063 195.762C103.227 196.321 103.864 195.443 104.279 194.468C104.916 192.96 105.204 191.327 105.124 189.692C105.06 187.695 105.618 185.842 106.543 184.1C106.893 183.429 107.435 182.631 108.344 183.126C109.253 183.621 108.934 184.356 108.615 184.995C106.845 188.605 107.308 192.743 105.793 196.433C105.299 197.647 105.443 198.973 107.435 198.063C107.802 197.887 108.296 197.775 108.503 198.143C109.237 199.5 110.161 200.012 111.676 199.309C112.17 199.069 112.6 199.58 112.553 200.092C112.266 202.584 111.963 205.076 110.177 207.089C110.113 205.891 110.353 204.756 110.161 203.622C110.066 203.079 109.97 202.488 109.348 202.312C108.727 202.136 108.344 202.6 107.961 202.983C107.579 203.367 107.244 203.686 107.18 204.133C106.527 208.415 104.119 212.393 104.932 216.93C108.408 219.31 111.915 221.61 115.693 223.495C116.666 222.169 116.379 220.556 116.698 219.086C117.016 217.617 117.367 216.227 118.1 214.965C118.834 213.703 119.886 213.335 120.858 214.853C123.839 216.386 124.573 215.811 124.668 211.865C123.68 208.558 121.783 205.683 120.38 202.584C118.977 199.485 117.845 196.721 116.666 193.765C115.055 189.708 114.8 185.442 114.832 181.145C114.609 180.17 114.338 179.196 114.513 178.173C114.769 176.656 114.912 175.266 112.632 175.585C112.393 175.617 112.074 175.458 112.058 175.282C111.819 173.333 109.125 173.493 108.886 171.432C108.79 170.601 107.77 170.953 107.085 171.048C106.16 171.192 105.267 171.384 104.454 172.183C103.737 169.515 104.422 167.071 104.885 164.61C101.377 162.038 98.7469 158.62 96.0368 155.281Z" fill="#EA411B"/>
<path d="M104.933 216.929C105.874 215.012 105.395 212.856 105.89 210.859C106.384 208.862 107.946 206.721 107.723 204.261C107.675 203.75 108.632 203.159 109.381 202.312C109.668 204.117 109.971 205.507 109.158 206.865C108.903 207.296 108.679 207.68 109.11 208.095C109.54 208.51 110.066 208.191 110.529 207.903C111.772 207.121 111.947 205.731 112.378 204.533C112.808 203.334 113 201.992 113.255 200.698C113.414 199.932 113.574 199.117 112.856 198.542C112.139 197.967 111.389 198.574 110.72 198.877C110.445 199.022 110.179 199.182 109.923 199.357C108.966 196.561 108.488 196.385 106.129 197.967C106.161 196.034 106.878 194.276 107.468 192.583C108.376 189.947 107.627 186.96 109.524 184.531C110.082 183.828 109.556 182.71 108.647 182.151C107.739 181.592 106.99 182.279 106.511 182.95C105.186 184.783 104.487 186.996 104.519 189.26C104.55 190.985 104.471 192.679 103.705 194.26C103.419 194.835 103.626 196.161 102.319 195.331C101.569 194.851 100.565 194.708 101.314 193.11C103.53 188.349 104.901 183.269 106.288 178.221C106.703 176.719 106.734 174.786 104.008 175.154C103.179 175.266 102.542 174.339 101.904 173.876C99.736 172.31 97.4084 172.949 95.1128 172.997C94.523 176.847 94.8577 180.729 94.7462 184.579C94.5548 192.024 94.7461 199.468 93.423 206.833C93.3433 207.28 93.152 207.744 93.6621 208.079C97.7273 210.651 100.932 214.293 104.933 216.929Z" fill="#E42D10"/>
<path d="M124.191 211.61C124.175 211.69 124.175 211.77 124.159 211.85C123.92 215.22 123.92 215.22 120.827 214.581C120.412 215.476 120.253 216.498 119.488 217.249C119.009 217.713 118.34 218.415 118.93 219.054C119.52 219.693 120.349 219.086 120.986 218.687C121.624 218.288 122.517 217.633 123.346 217.217C123.824 216.978 124.35 216.562 124.828 217.042C125.307 217.521 124.972 217.936 124.844 218.384C124.127 221.003 123.537 223.655 122.979 226.307C122.756 227.378 122.596 228.448 122.676 229.534L126.55 235.11C127.937 234.598 129.547 234.582 130.551 233.272C131.822 231.156 133.256 229.142 134.84 227.25C134.872 224.662 135.525 222.186 136.211 219.709C135.669 219.15 135.637 218.431 135.78 217.76C136.689 213.623 136.051 209.325 137.104 205.204C135.988 202.456 133.819 200.459 132.002 198.207C131.859 198.047 131.572 198.159 131.38 198.303C130.073 200.475 130.966 203.159 129.802 205.635C128.367 202.839 129.515 200.188 129.292 197.616C129.037 196.002 128.049 195.012 126.55 194.436C123.601 193.286 121.704 194.357 121.178 197.488C121.098 197.951 121.098 198.414 121.018 198.878C120.938 199.996 121.337 201.018 121.847 201.977C124.143 206.434 126.072 211.035 127.363 215.62C126.391 214.422 126.183 212.345 124.191 211.61Z" fill="#E73615"/>
<path d="M121.337 199.165C121.48 198.893 121.703 198.638 121.719 198.366C121.799 196.609 121.974 194.852 124.158 194.532C126.342 194.213 128.048 195.666 128.766 197.775C129.69 197.999 130.248 197.424 130.79 196.817C131.141 195.762 130.392 195.059 129.913 194.293C126.566 188.893 123.584 183.27 120.603 177.662C120.348 177.183 120.109 176.704 120.38 176.129C121.767 176.097 121.942 177.902 123.234 177.902C124.015 177.726 124.286 177.039 124.653 176.448C125.019 175.857 125.147 175.474 125.545 175.09C126.566 174.116 127.809 172.949 129.18 173.525C130.551 174.1 130.089 175.873 129.77 177.071C129.005 179.819 128.909 182.79 127.108 185.187C127.235 186.417 127.618 187.519 128.861 188.078C129.818 187.791 129.754 186.896 129.929 186.177C130.535 183.765 131.284 181.4 131.858 178.972C132.289 177.183 133.277 175.713 134.409 174.307C134.712 173.876 134.696 173.269 135.254 172.742C136.003 173.844 136.976 174.707 138.426 174.323C139.255 174.116 140.052 173.748 139.893 172.63C138.809 171.528 137.677 170.489 136.673 169.339C135.668 168.189 134.712 168.684 133.692 168.844C128.957 169.563 124.222 169.786 119.456 169.179C118.77 169.658 118.563 170.425 118.467 171.176C117.957 174.819 117.542 178.493 115.741 181.8C115.518 182.199 115.55 182.694 115.534 183.158C115.741 186.864 116.857 190.299 118.563 193.558C120.492 194.356 120.986 195.81 120.492 197.743C120.571 198.35 120.763 198.877 121.337 199.165Z" fill="#EA421B"/>
<path d="M159.534 211.322C159.502 209.086 159.326 206.865 160.602 204.804C161.479 203.399 160.522 201.961 160.123 200.603C159.996 200.156 159.47 199.549 158.88 200.108C157.318 201.529 154.767 202.137 154.894 204.964C154.942 206.114 154.639 207.249 154.448 208.383C154.161 210.172 154.719 211.466 157.477 211.147C156.202 211.85 156.01 213.415 154.448 212.377C153.842 211.993 153.061 212.568 153.109 213.208C153.189 214.47 152.328 215.716 153.077 216.962L158.561 214.533C159.247 213.575 159.629 212.521 159.534 211.322Z" fill="#E3290F"/>
<path d="M151.563 181.896C150.957 183.957 153.205 188.494 155.118 188.702C157.031 188.909 157.685 187.455 158.179 185.938L151.563 181.896Z" fill="#E2290F"/>
<path d="M161.383 187.583C161.973 187.535 162.132 187.136 162.196 186.624C162.738 182.071 163.296 177.518 163.838 172.965C163.87 172.614 164.093 172.358 163.535 172.087C161.048 170.889 161 170.441 163.376 168.876C171.123 163.764 177.213 156.878 183.192 149.945C189.68 142.405 196.136 134.816 202.083 126.845C206.738 120.582 213.131 115.918 217.642 109.511C221.07 104.623 225.549 100.453 228.323 95.1176C232.93 86.2513 238.143 77.8482 244.983 70.4996C247.278 68.0554 248.729 64.381 253.161 65.6111C253.314 65.6486 253.476 65.6375 253.623 65.5792C255.042 64.9402 253.894 63.6462 254.309 62.7196C254.723 61.793 254.053 61.825 253.432 61.825C251.63 61.8409 250.435 61.1221 250.323 59.1571C250.291 58.7258 250.148 58.2625 249.701 58.3583C246.609 59.0293 245.684 55.7703 243.436 54.8597C242.272 54.3964 241.587 53.0226 241.156 51.7285C240.885 50.8339 240.901 50.0032 241.778 49.4441C242.655 48.8849 243.42 49.2843 244.042 49.9393C244.664 50.5943 244.998 51.1694 245.509 51.7605C245.796 52.08 246.098 52.6232 246.625 52.3835C247.151 52.1439 247.039 51.4729 246.927 50.9458C246.545 49.1405 245.827 47.6069 244.169 46.5366C242.161 45.2426 241.922 45.2905 241.14 47.6069C239.69 51.9522 241.204 55.7863 242.862 59.7162C245.126 65.0839 245.843 63.9976 242.225 68.5666C237.92 73.9822 233.696 79.4618 229.423 84.8934C224.896 90.6285 220.767 96.7471 215.729 102.003C209.002 109 203.39 116.764 197.842 124.64C193.394 130.95 188.66 137.101 182.602 141.893C178.03 145.504 173.676 149.382 169.561 153.508C168.955 154.115 168.318 154.674 167.505 154.993C166.692 155.313 165.99 155.121 165.432 154.45C164.874 153.779 165.321 153.14 165.767 152.613C168.939 148.891 172.016 144.993 175.906 142.037C181.916 137.436 186.699 131.733 191.131 125.742C198.257 116.125 205.128 106.396 213.131 97.4181C222.457 86.9382 230.555 75.3561 238.893 64.0136C239.658 62.9912 239.706 62.3202 239.052 61.154C236.183 56.0259 235.417 50.6422 237.633 45.0349C238.654 42.4788 241.332 40.2583 243.548 41.2487C246.529 42.5747 247.629 40.8174 249.143 39.2039C249.682 38.6448 250.258 38.1218 250.865 37.6383C252.252 36.4561 253.798 35.8331 255.6 36.4561C257.401 37.0792 258.645 38.469 258.74 40.402C258.82 41.8718 259.41 42.0954 260.701 42.2392C263.555 42.6066 265.149 44.6035 264.384 47.3194C263.762 49.5559 264.479 50.0991 266.424 50.4665C268.768 50.8819 270.872 51.9842 270.984 54.684C271.095 57.3838 270.219 60.0837 267.843 61.8729C265.994 63.2787 264.065 64.5887 262.136 65.8987C260.972 66.6975 259.697 67.1767 258.294 67.4962C254.851 68.3269 251.551 69.1417 249.127 72.3847C244.871 78.1198 239.706 83.216 236.661 89.7659C231.878 100.07 225.055 109.064 217.371 117.068C207.822 127.052 199.723 138.155 190.636 148.475C183.702 156.335 177.389 164.786 168.27 170.393C167.967 170.585 167.505 170.761 167.632 171.256C168.095 172.934 167.122 174.435 166.995 176.049C166.468 182.71 165.496 189.292 162.834 195.523C161.51 194.948 160.729 193.893 160.65 192.519C160.554 190.858 160.729 189.164 161.383 187.583ZM256.62 56.5052C257.306 55.8502 257.911 55.0035 258.98 55.6745C260.048 56.3454 259.888 57.3998 259.537 58.3903C258.916 60.1156 257.88 61.7131 257.927 64.0775C261.18 62.5279 263.778 60.5469 266.185 58.4062C268.593 56.2656 267.779 54.4923 264.846 53.6935C263.682 53.39 262.535 53.4858 261.371 53.358C259.314 53.1344 258.629 51.6966 259.665 49.8914C259.984 49.3482 260.351 48.837 260.574 48.2779C261.419 46.0573 261.132 45.6899 258.772 45.8017C256.062 45.9135 255.265 45.0828 255.233 42.2392C255.233 41.4085 255.536 40.3701 254.516 39.9707C253.495 39.5713 253.145 40.4819 252.587 40.9771C252.029 41.4724 251.535 41.9037 251.024 42.383C249.398 43.9645 248.059 45.3544 249.861 47.9264C251.2 49.8435 251.216 52.3356 250.1 54.6361C253.846 54.8917 254.069 55.1313 253.782 58.7258C255.169 58.4542 255.775 57.3199 256.62 56.5052Z" fill="#EF5A29"/>
<path d="M136.689 204.741C135.238 209.118 135.94 213.719 135.286 218.16C135.191 218.847 135.223 219.598 136.211 219.71C136.195 217.84 136.498 216.067 137.837 214.054C138.331 215.891 137.598 217.713 139.144 218.991C141.631 216.61 140.595 213.064 141.966 210.028C142.699 211.977 141.52 213.479 141.775 215.061C141.902 215.859 141.87 216.738 142.891 216.818C143.911 216.898 144.309 216.227 144.517 215.444C144.836 214.246 145.202 213.032 145.25 211.818C145.393 208.431 147.02 205.459 147.705 202.232C148.183 199.98 146.988 198.43 144.788 198.542C144.23 198.574 143.991 198.191 143.608 197.951C141.87 196.817 140.691 197.344 140.42 199.421C140.053 202.2 139.304 204.916 139.16 207.744C138.108 206.466 138.762 205.188 138.953 203.894C139.049 203.335 139.304 202.552 138.618 202.216C137.933 201.881 137.725 202.68 137.247 202.887C136.641 203.383 137.311 204.261 136.689 204.741Z" fill="#E2290E"/>
<path d="M130.519 190.89L128.798 187.951L127.299 185.267C126.39 182.471 125.211 179.835 123.154 177.678C122.772 177.183 122.437 176.656 122.022 176.209C121.608 175.761 120.906 174.707 119.918 175.362C118.93 176.017 119.44 176.848 119.854 177.615C122.628 182.551 125.418 187.487 128.144 192.44C128.941 193.925 130.232 195.124 130.663 196.801C130.615 197.504 130.87 197.999 131.556 198.223C133.198 200.459 134.648 202.84 136.689 204.741C137.757 204.853 137.757 204.853 137.247 202.888C135.876 199.357 133.596 196.338 131.747 193.095L130.519 190.89Z" fill="#010000"/>
<path d="M153.444 206.482C153.237 205.731 154.034 204.085 152.424 204.069C150.814 204.054 149.188 203.526 148.486 205.779C147.785 208.031 147.546 210.763 146.972 213.223C146.828 213.83 146.956 214.485 147.594 214.853C148.231 215.22 148.566 214.741 149.076 214.565C152.934 213.255 153.492 210.14 153.444 206.482Z" fill="#E3290F"/>
<path d="M116.076 183.445C115.901 182.663 115.789 181.864 115.566 181.097C115.167 179.659 114.769 180.666 114.386 181.113C113.541 186.8 115.231 192.024 117.303 197.152C119.376 202.28 121.703 206.881 124.19 211.61L128.224 217.585C127.092 210.572 123.712 205.044 121.337 199.165C121.161 198.718 120.97 198.286 120.779 197.839C120.587 196.258 120.221 194.724 119.025 193.558C117.606 190.315 116.522 186.976 116.076 183.445Z" fill="#020000"/>
<path d="M105.059 202.552C104.023 203.303 104.422 205.06 102.604 205.06C101.871 205.076 101.967 206.514 102.381 207.025C102.796 207.536 103.959 207.281 104.167 206.817C104.772 205.555 106.271 204.421 105.059 202.552Z" fill="#EA411B"/>
<path d="M130.822 220.732C131.795 220.556 132.751 220.94 132.911 219.757C133.022 218.959 132.783 218.495 131.89 218.272C130.567 217.936 130.966 216.69 131.141 215.939C131.731 213.383 132.576 210.891 133.995 208.655C134.297 208.175 135.158 207.68 134.425 207.153C133.692 206.626 132.369 206.913 132.209 207.552C131.508 210.204 129.547 212.537 130.248 215.604C130.503 216.738 130.169 218.064 129.882 219.246C129.595 220.428 129.658 221.083 130.822 220.732Z" fill="#EF5928"/>
<path d="M131.556 198.222C131.269 197.743 130.966 197.28 130.663 196.8C129.834 196.752 129.403 197.471 128.766 197.775C128.431 200.746 128.256 203.718 128.989 206.881C132.528 204.724 130.551 201.002 131.556 198.222Z" fill="#EF5929"/>
<path d="M119.025 193.558C119.375 195.071 119.967 196.517 120.779 197.839C121.799 195.012 121.433 194.133 119.025 193.558Z" fill="#E73615"/>
<path d="M116.076 183.445C115.853 181.752 117.176 180.618 117.623 179.164C118.659 175.905 118.786 172.486 119.456 169.179C115.582 168.093 111.708 167.039 107.85 165.904C106.83 165.601 105.874 165.058 104.885 164.61C103.355 166.272 103.052 170.809 104.455 173.381C104.869 171.208 106.734 172.087 107.914 171.448C108.823 170.969 108.616 172.103 108.695 172.614C108.823 173.541 108.727 174.707 110.258 174.004C111.326 173.509 110.927 174.403 111.039 174.803C111.373 175.969 111.597 177.167 113.334 176.177C114.307 175.617 114.323 176.432 114.116 177.087C113.669 178.477 113.685 179.819 114.387 181.113C115.805 181.273 114.689 183.27 116.076 183.445Z" fill="#E73514"/>
<path d="M122.676 229.534C123.696 225.444 124.727 221.36 125.769 217.281C125.88 216.802 125.992 216.306 125.434 216.099C125.143 215.988 124.83 215.947 124.521 215.977C124.211 216.008 123.913 216.11 123.648 216.274L119.057 219.182C119.36 217.249 122.262 216.77 120.827 214.581C120.588 212.584 120.093 212.376 118.515 213.431C116.937 214.485 116.714 216.45 116.299 218.064C115.885 219.677 115.454 221.626 115.693 223.495C118.308 225.173 120.731 227.058 122.676 229.534Z" fill="#E32A0F"/>
<path d="M132.927 234.135C132.975 234.838 130.249 234.406 132.21 235.956C132.561 236.228 131.795 236.675 131.429 236.819C129.643 237.506 130.95 237.921 131.54 238.416C130.663 239.55 130.759 240.86 131.381 241.931C132.481 243.88 133.756 245.749 136.131 246.388C137.678 247.139 139.352 246.628 140.962 246.867C144.118 248.241 147.211 247.059 150.256 246.436C151.436 246.18 152.934 246.26 153.811 245.03C154.497 244.583 155.294 244.359 155.772 243.512C156.872 241.611 158.418 241.531 160.14 242.73C166.612 240.173 173.26 238.065 179.573 235.141C179.302 233.272 178.154 231.77 177.612 230.013C177.294 228.991 177.086 228.144 177.708 227.154C178.776 225.444 178.489 223.99 176.879 222.665C175.588 221.61 174.934 220.061 174.679 218.415C174.536 217.472 174.472 216.45 175.524 215.971C176.576 215.492 177.246 216.274 177.836 217.041C178.477 217.921 178.962 218.904 179.27 219.949C179.648 221.142 180.382 222.191 181.375 222.952C181.789 223.288 182.252 223.735 182.81 223.367C183.367 223 183.32 222.441 183.272 221.882C183.192 220.827 182.57 220.013 182.06 219.15C181.55 218.287 180.578 217.872 180.928 217.281C181.518 216.274 182.188 215.108 183.511 214.757C184.34 214.533 185.153 214.245 185.711 213.543C186.046 213.111 186.444 212.68 186.03 212.089C185.917 211.986 185.78 211.915 185.631 211.881C183.511 211.689 182.475 211.178 180.737 209.469C180.621 209.366 180.476 209.301 180.322 209.284C180.168 209.266 180.012 209.298 179.876 209.373L179.095 209.98C178.521 210.667 179.047 211.29 179.191 211.929C179.334 212.568 179.462 213.223 178.824 213.606C178.186 213.99 177.501 213.591 177.007 213.079C176.512 212.568 175.795 211.482 174.918 210.955C167.904 213.287 160.81 215.396 154.257 218.926L152.026 220.108C151.34 221.339 152.313 222.105 152.855 223.048C152.839 223.176 152.823 223.096 152.679 222.904C152.01 221.93 151.229 220.716 149.937 221.466C148.646 222.217 149.252 223.559 149.618 224.645C150.304 226.706 151.42 228.575 152.552 230.62C151.42 228.767 150.495 226.962 149.06 225.524C148.327 224.789 147.594 223.623 146.35 224.374C145.107 225.125 145.489 226.371 146.047 227.473C146.223 227.809 146.334 228.192 146.414 228.272C145.856 227.457 145.569 226.195 144.931 225.109C144.629 224.582 144.613 223.639 143.592 223.879C139.336 226.562 135.318 229.502 132.927 234.135Z" fill="#E9401A"/>
<path d="M186.093 212.248C185.408 213.334 184.61 214.133 183.16 214.165C181.709 214.197 181.693 215.922 180.816 216.482C178.696 217.887 181.039 218.223 181.31 218.942C181.837 220.3 183.319 221.338 182.586 223.223C181.135 222.233 180.019 221.098 179.684 219.405C179.429 218.143 178.616 217.184 177.979 216.13C177.341 215.076 176.432 214.804 175.364 215.156C174.296 215.507 173.929 216.418 173.961 217.536C174.041 219.836 174.822 221.961 176.592 223.255C178.361 224.549 178.026 225.811 177.022 227.105C176.321 228 176.289 228.703 176.799 229.613C177.819 231.403 177.915 233.655 179.573 235.141L180.035 235.221C183.59 233.383 187.193 231.642 190.27 229.038C190.573 227.425 188.819 226.514 188.899 224.98C189.552 224.485 189.871 225.108 190.254 225.396C192.502 227.041 192.948 226.993 194.877 224.853C197.922 221.466 197.938 221.466 194.319 218.399C192.916 217.216 192.087 215.651 191.099 214.165C189.648 212.008 188.197 211.481 186.093 212.248Z" fill="#E43212"/>
<path d="M186.093 212.248C188.485 212.009 190.063 213.095 191.067 215.204C192.071 217.312 193.729 218.734 195.515 220.124C196.711 221.035 197.938 222.281 195.451 223.287C195.18 223.399 194.973 223.687 194.782 223.91C192.629 226.434 192.629 226.466 189.967 224.278C189.441 223.846 189.011 223.495 188.373 224.022C187.735 224.549 187.879 225.14 188.198 225.699C188.851 226.834 189.584 227.92 190.27 229.038C193.682 227.041 197.029 224.965 199.835 222.153C202.338 219.661 203.55 213.814 202.163 210.746C200.202 206.417 197.524 204.644 192.534 205.235C188.102 205.778 183.766 206.992 179.876 209.373C180.482 209.628 180.96 210.044 180.944 210.731C180.864 213.031 182.108 213.239 183.845 212.6C184.563 212.332 185.328 212.213 186.093 212.248V212.248Z" fill="#E9411A"/>
<path d="M53.2969 220.172C54.9389 219.933 55.3374 218.495 55.9273 217.345C56.294 217.249 56.3737 217.456 56.4693 217.664C56.7403 218.255 55.9273 219.565 57.2186 219.389C58.207 219.262 57.6012 218.239 57.4418 217.648C56.8998 215.651 59.4027 216.115 59.7693 214.677C59.9766 213.91 59.307 211.737 61.7621 212.44C62.4635 212.648 63.165 211.466 63.5157 210.539C63.8664 209.613 63.8823 208.43 65.1418 207.552C65.0142 209.085 64.7113 210.331 65.1896 211.609C65.6679 212.887 66.0505 212.744 66.7838 211.977C69.0316 209.613 69.8925 206.529 70.9128 203.558C71.0881 203.031 71.0881 202.248 70.2592 202.04C69.4302 201.833 69.0476 202.168 68.6968 202.759L65.891 207.424C66.3534 204.085 68.4896 202.216 69.0794 199.676C64.3925 198.59 61.0925 200.73 58.1113 204.069C55.1302 207.408 52.5157 211.29 52.4679 216.178C52.4519 217.568 52.3563 218.99 53.2969 220.172Z" fill="#E73715"/>
<path d="M143.592 223.879L146.94 229.742L147.307 229.566C146.892 228.608 146.398 227.665 146.079 226.675C145.888 226.02 145.824 225.221 146.478 224.742C147.131 224.262 147.721 224.997 148.183 225.428C150.256 227.298 151.26 229.997 153.46 232.458C153.125 230.013 151.898 228.496 151.149 226.802C150.575 225.524 149.905 224.294 149.746 222.888C149.698 222.441 149.682 221.93 150.24 221.722C150.798 221.514 151.021 221.738 151.292 222.026C152.089 222.856 152.839 223.703 153.986 224.933L152.025 220.109C149.044 220.987 146.095 221.914 143.592 223.879Z" fill="#EF5929"/>
<path d="M118.659 228.958C117.431 230.939 117.272 233.288 116.586 235.461C116.252 236.547 116.953 236.563 117.702 236.547C120.094 236.467 122.421 236.052 124.749 235.556C123.091 233 120.938 230.923 118.659 228.958Z" fill="#E63715"/>
<path d="M174.918 210.955C175.061 212.121 176.065 212.76 176.671 213.638C177.277 214.517 178.249 214.932 179.142 214.389C180.035 213.846 180.242 212.776 179.764 211.705C179.509 211.146 179.318 210.555 179.094 209.98C177.58 209.788 176.257 210.459 174.918 210.955Z" fill="#E43212"/>
<path d="M90.0112 243.113C92.0995 242.106 92.0517 239.79 92.9126 238.097C94.3952 235.141 95.6546 232.058 97.4082 229.23C97.6422 228.916 97.8103 228.557 97.9024 228.176C98.0937 227.186 99.0343 226.131 97.9502 225.173C96.8662 224.214 96.2923 225.86 95.0169 225.907C95.7024 224.438 96.3241 223.16 96.914 221.85C97.2035 221.222 97.4538 220.576 97.6633 219.917C98.0459 218.798 98.5082 217.457 97.3444 216.738C95.8618 215.859 95.5749 217.712 94.73 218.335C92.2111 222.025 90.2184 226.035 88.3054 230.077C86.6952 233.464 85.0692 236.898 84.4793 240.685C86.1054 241.995 88.0503 242.554 90.0112 243.113Z" fill="#E73815"/>
<path d="M83.0606 231.403L83.5389 229.997C83.8258 228.543 83.6026 227.138 83.0447 225.684C83.6505 226.051 84.2881 226.419 84.9418 225.812C85.8664 225.316 86.0736 224.406 86.3765 223.511C87.5722 220.076 88.7997 216.658 89.9635 213.207C90.2345 212.408 90.9359 211.418 89.5968 210.843C88.4968 210.22 87.6838 210.795 86.9345 211.53C86.1852 212.264 85.5635 213.383 85.0215 214.405C84.0809 216.226 83.3157 218.032 81.7055 219.581C80.0954 221.131 79.7766 223.719 79.2027 225.971C78.2621 229.582 76.7954 233.192 78.4056 236.994L80.2389 238.017C81.3867 235.908 82.1997 233.64 83.0606 231.403Z" fill="#E63715"/>
<path d="M67.1986 230.972C69.1435 228.863 69.7493 226.083 70.8014 223.527C71.3434 222.201 70.8811 221.035 69.0797 221.115C66.6884 222.952 66.2899 225.812 65.3812 228.4C65.2058 228.911 65.0624 229.422 64.903 229.933C65.5566 230.54 66.2261 231.068 67.1986 230.972Z" fill="#E63715"/>
<path d="M63.6755 227.265C65.8117 223.463 66.9276 219.261 68.3305 215.172C68.745 213.958 69.3348 212.935 70.5305 212.328C73.4 210.331 73.9102 207.008 75.1537 204.085C75.6319 203.046 75.9029 201.848 77.0986 201.305C78.6449 201.768 80.3826 201.944 81.7058 202.759C86.855 205.922 91.8927 209.261 96.4361 213.271C100.039 216.45 103.594 219.677 107.819 222.025C106.926 225.077 105.794 228.064 104.822 231.083C104.735 231.468 104.554 231.825 104.296 232.122C103.53 232.936 102.558 233.272 101.569 232.713C100.581 232.154 100.98 231.243 101.33 230.444C101.856 229.23 102.558 228.096 103.036 226.866C103.307 226.195 104.009 225.236 103.116 224.805C102.223 224.374 101.856 225.476 101.458 226.099C98.8274 230.237 96.5637 234.566 94.8738 239.183C94.6825 239.742 94.2999 240.317 94.7463 241.036C96.3883 240.748 97.5521 239.902 98.0941 238.256C98.4979 237 99.0435 235.794 99.7202 234.662C100.055 234.135 100.454 233.48 101.171 233.783C101.888 234.087 101.601 234.71 101.554 235.253C101.442 236.707 100.788 238.064 100.725 239.662C102.175 239.646 102.893 238.895 103.275 237.825C104.869 233.448 106.99 229.278 108.201 224.773C108.393 224.038 108.504 223.223 109.158 222.68L113.351 225.332C110.338 227.505 109.716 230.732 109.588 234.135C109.556 234.821 109.046 236.163 110.019 236.068C111.294 235.924 113.127 237.01 113.909 235.061C114.546 233.432 115.295 231.834 115.79 229.933C114.61 230.237 113.255 231.259 113.143 229.358C113.08 228.128 112.856 226.706 113.909 225.62C115.806 226.275 117.256 227.585 118.659 228.959C118.627 230.668 118.085 232.265 117.639 233.895C117.113 235.796 117.32 236.004 119.329 235.828C121.337 235.652 122.9 234.917 124.749 235.556C125.387 235.588 126.136 236.004 126.55 235.109C127.635 233.959 129.101 233.639 130.552 233.272C130.823 234.997 132.05 234.103 132.927 234.135C133.103 235.013 132.561 234.981 131.971 234.901C132.194 235.333 132.752 235.556 132.672 236.147C132.65 236.343 132.578 236.529 132.464 236.688C132.349 236.847 132.196 236.975 132.019 237.058C131.413 237.378 130.855 237.681 131.269 238.352C127.635 237.601 124.446 239.838 120.923 239.982C119.153 240.045 117.4 240.605 115.63 240.605C111.214 240.605 106.99 241.068 103.339 243.895C102.654 244.423 101.745 244.391 100.868 244.455C99.7927 244.554 98.7232 244.709 97.6637 244.918C95.8463 245.253 94.4275 246.499 94.5869 248.161C94.7304 249.471 96.5796 249.998 97.9825 250.046C99.3854 250.094 100.836 250.477 101.888 251.707C102.94 252.938 102.685 253.832 101.187 254.279C99.3535 254.823 97.4724 255.27 95.6869 256.324C96.6753 257.267 98.1579 257.698 98.0463 259.36C97.9985 259.807 98.4927 259.983 98.8753 259.967C100.358 259.855 101.665 260.031 102.382 261.58C102.446 261.724 102.829 261.852 103.004 261.788C105.077 261.085 106.575 261.117 106.958 263.913C107.085 264.791 108.313 264.136 108.935 263.785C110.624 262.826 112.027 261.484 113.765 260.574C121.146 256.66 128.065 251.963 135.255 247.73C135.765 247.426 136.498 247.25 136.132 246.388L136.068 246.324L136.355 246.148C137.805 246.116 139.272 246.004 140.659 246.547C140.783 246.627 140.878 246.745 140.93 246.883C139.097 247.474 138.778 249.503 137.407 250.653C135.059 252.627 132.411 254.213 129.563 255.35C131.556 256.899 133.214 258.481 135.127 259.615C137.343 260.925 140.245 260.574 142.429 262.203C142.763 262.459 143.098 262.059 143.353 261.74C144.246 260.574 145.266 260.558 146.334 261.532C146.733 261.9 147.323 262.443 147.737 261.996C149.252 260.414 151.197 260.75 153.46 260.781C152.089 259.312 150.958 258.177 149.921 256.963C148.311 255.062 148.917 252.378 151.117 251.324C151.93 250.941 152.44 251.244 152.903 251.867C154.72 254.279 157.287 255.222 160.124 255.542C161.224 255.669 162.755 255.957 163.185 254.615C163.428 253.905 163.422 253.132 163.167 252.426C162.911 251.72 162.423 251.122 161.782 250.733C159.773 249.439 157.701 248.209 155.597 247.043C154.736 246.547 154.066 245.988 153.811 245.03H153.7C153.716 244.95 153.747 244.87 153.763 244.79C154.433 243.943 155.102 243.081 155.9 242.378C157.526 240.956 158.705 241.084 160.14 242.713L157.047 244.311C158.514 244.87 159.742 245.285 160.905 245.813C164.444 247.394 167.107 249.615 167.027 253.976C166.963 257.155 165.449 258.864 162.244 259.008C160.268 259.088 158.291 259.072 156.266 258.593C157.063 261.9 156.713 263.513 154.736 263.817C152.456 264.168 150.24 264.536 148.104 265.446C147.004 265.91 145.856 264.871 144.692 265.382C142.811 266.245 141.058 265.67 139.352 264.823C138.587 264.44 137.917 263.881 136.992 263.945C134.904 264.088 133.262 263.13 131.716 261.852C130.169 260.574 128.766 259.599 127.3 258.449C126.774 258.034 126.391 257.794 125.69 258.273C120.987 261.404 115.646 263.433 111.071 266.836C108.424 268.801 105.682 268.354 103.243 266.181C102.937 265.845 102.527 265.62 102.08 265.542C99.9115 265.111 98.2854 263.481 96.1332 262.874C94.5709 262.411 94.4434 260.398 93.2796 259.328C91.6376 257.794 91.7652 255.749 92.9449 254.04C93.6144 253.081 93.6463 252.842 92.7217 252.155C90.171 250.238 89.613 248.417 91.1594 245.701C92.1956 243.88 91.3825 243.528 90.0115 243.097C92.3709 238.224 94.2999 233.16 97.0738 228.495C97.3125 228.092 97.4746 227.648 97.5521 227.185C97.7434 226.243 97.6318 225.588 96.3883 226.035C94.2999 226.77 94.7782 225.364 95.097 224.342C95.4159 223.319 96.2927 221.993 96.739 220.763C97.1854 219.533 97.8709 218.575 96.9782 217.728C96.0854 216.881 95.5912 218.718 94.6028 218.511C92.5304 216.066 92.5463 216.066 90.968 219.15C88.1942 224.613 85.6116 230.141 83.7623 235.988C83.3956 237.154 83.0927 238.432 81.6739 238.847L81.1638 238.56C80.3029 237.761 80.6217 236.914 81.0203 236.036C81.6921 234.554 82.2103 233.007 82.5667 231.419C82.7266 230.869 82.9346 230.334 83.1884 229.821C83.9058 228.527 84.1927 227.089 84.6391 225.7C86.855 221.578 87.7159 216.929 89.4536 212.616C89.6449 212.152 89.4855 211.705 89.1985 211.29C88.5927 210.635 87.9072 210.587 87.0942 210.922C86.2811 211.258 85.9463 211.034 85.4362 210.507C83.6826 208.702 83.3 208.782 82.1681 211.162C81.1638 213.255 80.6217 215.539 79.5536 217.616C79.1551 218.191 78.6768 218.686 78.2305 219.23C77.7841 219.773 77.6087 221.722 76.2855 221.482C75.2174 221.29 75.2971 219.709 74.787 218.798C74.6276 217.297 75.616 215.971 75.4406 214.469C75.3928 214.006 75.3609 213.494 74.8507 213.303C74.3406 213.111 73.958 213.462 73.6551 213.814C72.5232 215.076 72.1725 216.689 71.6624 218.223C71.1522 219.757 70.8015 220.891 69.3986 221.546C67.5015 223.128 66.9914 225.444 66.2102 227.601C65.9073 228.447 65.9711 229.502 64.903 229.917L64.3928 229.598C63.6595 228.99 63.0697 228.367 63.6755 227.265Z" fill="#EF5929"/>
<path d="M75.1371 218.782C74.7545 218.83 74.324 218.782 74.0052 218.942C72.0284 220.06 70.6095 226.498 71.9008 228.463C71.9646 228.559 72.1878 228.543 72.3313 228.591L73.511 227.185C73.0965 229.198 72.5863 230.54 72.8095 231.946C72.8733 232.393 72.7617 232.92 73.3197 233.128C73.8776 233.336 74.2284 233.016 74.5472 232.665C75.711 231.435 77.2095 230.46 77.8313 228.799C78.9153 225.891 79.9834 222.984 81.0037 220.06C81.5139 218.558 80.8284 217.68 79.3298 217.376C77.7037 218.159 77.3052 219.868 76.3646 221.61C75.9979 220.396 76.1095 219.309 75.1371 218.782Z" fill="#E63715"/>
<path d="M75.5996 204.309C74.1489 202.887 72.9373 203.398 72.0924 204.916C71.2474 206.434 69.9721 208.287 69.6373 210.3C69.446 211.418 69.3822 212.536 70.9445 212.712C73.9257 210.699 74.4358 207.328 75.5996 204.309Z" fill="#E73715"/>
<path d="M166.485 214.293C165.927 217.089 169.258 222.489 174.216 227.457C174.535 226.547 174.503 225.844 173.977 225.093C171.554 221.626 169.163 218.159 166.485 214.293Z" fill="#E43212"/>
<path d="M194.559 214.916C193.363 213.75 192.646 212.536 193.028 210.763C193.188 210.028 192.614 209.405 191.721 209.549C190.828 209.692 190.605 210.475 190.796 211.162C191.291 213.127 192.725 214.229 194.559 214.916Z" fill="#E43212"/>
<path d="M64.3924 229.614C64.3446 228.991 63.4359 228.671 64.0098 227.777C66.4011 223.927 67.4852 219.533 68.888 215.284C69.2866 214.086 69.8924 213.287 70.9446 212.712C69.9083 210.539 71.375 205.619 73.3518 204.469C74.117 204.037 74.8822 204.644 75.5996 204.309L77.0981 201.306C74.6431 199.692 71.7735 200.091 69.0794 199.676C67.4852 201.337 66.6084 203.414 65.7316 205.491C65.5403 205.97 65.3011 206.673 65.8591 206.993C66.417 207.312 66.9591 206.689 67.2939 206.194C67.8678 205.363 68.2185 204.405 68.8721 203.622C69.1591 203.27 69.462 202.791 69.988 203.127C70.5141 203.462 70.3228 203.846 70.1634 204.181C69.2388 206.402 68.5054 208.702 67.1185 210.699C66.9113 211.019 66.6084 211.37 66.1939 211.306C65.7794 211.242 65.6359 210.651 65.5562 210.204C65.5243 210.06 65.5562 209.9 65.5243 209.74C65.4287 208.958 66.146 207.776 65.0142 207.504C63.8823 207.232 63.6591 208.526 63.3243 209.341C62.8461 210.507 62.4953 211.737 60.8852 211.721C60.5664 211.705 60.1678 211.913 60.12 212.185C59.7852 214.357 57.3142 215.204 56.9794 217.361C56.9625 217.496 56.9789 217.633 57.0273 217.76C56.1823 216.163 55.5447 217.025 54.9867 217.968C54.4287 218.91 53.7432 219.342 53.2968 220.172C54.9229 222.808 57.5533 224.374 59.7374 226.403C61.4432 227.249 62.591 228.911 64.3924 229.614Z" fill="#EC4D21"/>
<path d="M107.818 222.026C106.208 223.288 106.336 225.333 105.586 226.994C105.012 228.349 104.549 229.749 104.199 231.179C103.865 232.569 102.669 232.681 101.872 232.41C100.724 232.01 101.681 231.116 101.952 230.493C102.589 229.007 103.355 227.553 104.024 226.067C104.375 225.285 104.646 224.438 103.657 223.831C102.669 223.224 102.047 224.182 101.633 224.789C99.0343 228.56 96.9459 232.617 95.1764 236.851C94.6523 238.057 94.2051 239.294 93.8372 240.557C93.5662 241.484 93.8532 242.011 95.0329 241.675C96.8503 241.164 98.2532 240.333 98.7474 238.304C99.114 236.755 99.8473 235.317 101.171 233.544C100.963 235.764 100.629 237.362 100.055 238.911C99.8792 239.439 99.672 239.998 100.118 240.445C100.565 240.892 101.123 240.541 101.601 240.317C102.526 239.902 103.482 239.503 103.801 238.4C105.108 233.863 107.579 229.774 108.695 225.173C108.886 224.342 109.285 223.559 109.157 222.681L107.818 222.026Z" fill="#E73A16"/>
<path d="M113.35 225.332C112.059 225.172 111.23 225.971 110.768 226.93C109.397 229.773 108.775 232.809 108.727 235.956C108.726 236.186 108.787 236.412 108.902 236.611C109.508 237.474 113.892 236.787 114.307 235.764C114.992 234.039 115.646 232.298 116.347 230.588C116.602 229.965 116.762 229.342 116.124 228.927C115.486 228.511 115.056 229.07 114.721 229.598C114.386 230.125 114.323 230.349 113.844 230.077C113.366 229.805 113.43 229.454 113.589 229.07C114.052 227.952 113.717 226.754 113.908 225.62L113.35 225.332Z" fill="#E73B17"/>
<path d="M78.4055 236.994C78.6765 236.435 78.9634 235.876 78.8199 235.221C77.5765 229.758 80.4141 225.093 81.7533 220.14C84.8619 218.655 84.8141 215.092 86.6155 212.76C87.3489 211.801 88.0822 210.667 89.5967 210.843C89.3576 210.651 89.1184 210.3 88.8793 210.284C87.1894 210.204 85.5634 210.587 84.575 208.319C84.1764 207.408 82.7098 208.926 82.2315 209.804C80.9707 212.205 79.9968 214.747 79.3301 217.377C80.462 218.591 80.6373 219.917 79.9518 221.434C78.8518 223.927 78.2779 226.626 77.0026 229.039C76.3011 230.349 75.1852 231.323 73.8779 232.346C73.0968 231.179 73.4953 230.141 73.6548 229.135C73.7504 228.607 74.1171 228 73.5591 227.617C73.0011 227.234 72.4113 227.745 71.9171 228.096C70.3229 229.103 68.936 230.237 68.9997 232.378C72.0127 234.167 75.1852 235.637 78.4055 236.994Z" fill="#EC4D22"/>
<path d="M84.4793 240.685C86.1373 238.385 86.488 235.557 87.5561 233.001C89.3735 228.656 92.0198 224.774 93.8691 220.46C94.172 219.757 94.443 219.038 94.73 218.336C93.7575 217.665 94.8416 215.636 93.1517 215.636C91.4619 215.636 91.3025 217.297 90.7285 218.415C87.7315 224.167 84.9735 230.014 83.0924 236.244C82.7895 237.234 82.1837 238.017 81.6735 238.864C82.5025 239.631 83.3953 240.318 84.4793 240.685Z" fill="#EC4C21"/>
<path d="M68.9997 232.378C69.8606 230.876 70.4823 229.199 72.3316 228.591C71.5983 224.837 72.1722 221.466 75.1374 218.783C75.4084 217.265 76.2693 215.891 76.078 214.262C75.9983 213.479 76.1258 212.584 75.1374 212.377C74.149 212.169 73.7185 212.712 73.1765 213.351C71.8693 214.901 71.5345 216.85 70.9287 218.671C70.5939 219.741 70.1156 220.62 69.0794 221.115C70.291 222.089 70.3069 223.192 69.7968 224.63C69.0475 226.802 67.6286 228.687 67.1982 230.972C67.3736 231.978 68.4576 231.818 68.9997 232.378Z" fill="#EC4D21"/>
<path d="M83.0603 231.403C81.9124 233.512 80.653 235.589 80.2385 238.017L81.1631 238.576C80.6211 236.899 82.1197 235.764 82.3588 234.279C82.5182 233.304 83.124 232.425 83.0603 231.403Z" fill="#EC4C21"/>
<path d="M84.9419 225.811C83.5868 226.083 83.1883 224.965 82.1839 224.246C82.6303 226.163 83.0767 228.08 83.539 229.997C84.5912 228.799 84.926 227.361 84.9419 225.811Z" fill="#EC4C21"/>
<path d="M13.9999 37.606C14.0158 36.4238 14.3506 35.0499 15.3549 34.8263C18.3361 34.1873 17.9535 31.9667 18.1926 29.8899C18.3042 28.8994 18.7187 27.9409 19.0534 26.9984C19.8027 24.9535 21.3331 23.979 23.4215 24.3944C24.7447 24.634 25.2867 24.1388 26.052 23.2282C28.3635 20.4804 32.6679 20.4325 34.7563 23.2442C35.8244 24.6819 36.6852 24.8257 38.3113 24.3465C43.3808 22.8767 46.5055 25.7683 45.8678 30.9602C45.4374 34.4908 43.8113 37.4782 41.962 40.3378C40.607 42.4305 40.049 44.763 41.3562 46.68C43.2055 49.3639 44.0185 52.4471 45.533 55.2268C47.717 59.2686 50.3794 62.9908 53.2011 66.6172C58.7648 73.7742 62.2083 82.1612 66.5445 90.0371C72.3792 100.645 78.0545 111.348 83.1081 122.371C85.0371 126.541 87.7791 130.263 90.3458 134.065C90.4918 133.756 90.5201 133.404 90.4255 133.075C86.6791 117.77 88.8791 103.185 95.6544 89.1265C96.9138 86.5065 98.3008 83.8546 99.2254 81.2027C100.724 76.9213 102.238 72.6719 104.582 68.8378C110.911 58.3899 119.121 50.53 132.13 49.3479C141.424 48.5172 149.14 50.7857 154.703 58.7893C156.967 62.0483 159.279 65.2753 161.319 68.6621C165.56 75.7391 169.322 83.0399 171.379 91.1234C172.526 95.6285 172.59 100.213 172.909 104.782C172.973 105.773 173.053 106.252 174.344 106.188C180.497 105.821 184.881 109.255 186.189 115.294C187.974 123.585 181.454 132.963 172.558 134.496C170.597 134.832 169.848 135.567 169.354 137.34C164.89 153.571 152.79 161.255 137.645 165.201C129.451 167.342 121.241 166.655 113.047 164.354C108.249 162.996 104.55 160.696 101.473 156.766C98.0298 152.405 95.9733 147.181 92.3545 142.995C87.3168 137.148 82.6618 130.934 79.4893 123.937C72.8575 109.287 64.0097 95.7882 57.5054 81.0749C55.1779 75.835 51.8301 71.0903 48.291 66.5373C44.7518 61.9844 42.5519 56.8084 39.507 52.0477C36.462 47.2871 36.6693 42.5424 39.5388 37.7338C40.9417 35.4014 41.9779 32.8773 42.2649 30.0976C42.3924 28.8835 42.2968 27.9249 40.8301 27.6693C38.5185 27.2859 34.2461 30.3692 33.72 32.9572C34.4534 32.5258 35.091 32.1105 35.7447 31.775C36.7171 31.2478 37.6896 31.0721 38.4388 32.1264C39.1881 33.1808 38.6461 34.0914 37.7852 34.7304C35.8562 36.1522 33.9751 37.6379 31.9026 38.8041C29.32 40.2739 25.8607 40.6573 25.5418 44.6032C25.5099 44.8109 25.2708 44.9866 25.207 45.2103C25.0795 45.7534 23.8998 45.8972 24.5375 46.68C25.1752 47.4628 25.8607 47.8302 26.7853 47.6066C27.621 47.4304 28.4303 47.1458 29.1925 46.7599C30.8664 45.9451 32.4287 46.3445 33.3852 47.6705C35.0432 50.0029 36.7012 52.4151 37.8012 55.0351C39.491 59.0609 41.0374 63.1665 43.6359 66.6492C48.6417 73.3428 51.9735 80.995 56.0866 88.1999C60.8691 96.6189 65.014 105.421 69.3662 114.096C72.443 120.23 76.7792 125.598 80.0154 131.605C84.24 139.465 88.1777 147.484 92.2907 155.424C93.0718 156.926 93.7414 158.555 95.2559 160.041C95.2559 158.332 95.2399 157.022 95.2718 155.696C95.2718 155.169 95.3994 154.689 96.037 155.28C96.5153 157.693 96.1805 160.169 96.882 162.565C97.2008 163.636 96.6428 164.706 95.1443 164.61C92.3863 162.693 90.6806 159.897 89.0704 157.07C84.6386 149.306 80.7966 141.238 76.6038 133.362C73.6386 127.803 69.6053 122.898 66.7517 117.259C59.259 102.45 52.0851 87.4491 42.8548 73.5984C38.5345 67.1125 35.9997 59.6839 31.6635 53.2299C30.9461 52.1436 30.4998 51.7602 29.1447 52.1755C25.4302 53.3417 22.6404 52.1755 20.6955 48.7728C20.3129 48.1018 19.8346 47.7663 19.2448 47.3829C15.7216 45.0825 13.9042 41.8714 13.9999 37.606ZM96.5153 136.589C98.7791 144.002 102.414 150.695 107.802 156.191C111.278 159.738 116.076 161.032 120.986 161.239C128.559 161.559 136.003 160.824 143.257 158.348C155.102 154.306 162.467 146.143 165.48 134.065C166.134 131.445 167.345 130.327 170.04 130.119C175.89 129.672 180.147 125.902 181.629 120.246C182.347 117.483 181.629 114.959 179.844 112.834C178.313 111.013 176.416 110.517 173.993 111.284C168.716 112.978 167.84 112.403 168.031 106.891C168.477 93.5676 163.742 81.9216 156.887 70.9306C154.671 67.3681 152.344 63.8695 149.793 60.5306C146.047 55.6581 141.025 53.9807 135.063 54.1565C121.767 54.5399 113.653 62.2719 107.659 73.1991C105.363 77.3846 103.482 81.634 103.099 86.5225C102.972 88.2958 101.075 89.446 100.325 91.1873C99.2733 93.6795 98.0935 96.1237 97.1849 98.6797C98.0138 99.3667 98.795 98.7436 99.5761 98.5679C100.788 98.3123 101.888 98.3762 102.86 99.191C103.354 99.6063 103.785 100.102 103.514 100.788C103.243 101.475 102.589 101.412 101.951 101.348C98.9704 101.012 96.7544 102.242 95.2399 104.798C92.9921 115.502 93.311 126.109 96.5153 136.589ZM18.3042 39.5071C18.5433 40.2419 18.7824 40.9928 19.1969 41.6318C19.8027 42.5743 20.6955 43.5488 21.8433 43.1175C22.9911 42.6862 22.465 41.3922 22.2897 40.4656C21.7158 37.3823 22.3853 36.6475 25.2549 37.3664C26.3389 37.6379 27.136 37.6699 27.0244 36.1682C26.9606 35.4174 27.2954 34.5228 27.9809 34.5068C29.8143 34.4588 29.8461 33.3566 29.9418 31.9986C30.0374 30.6407 30.8664 29.3787 31.9026 28.3882C32.5084 27.8291 33.4012 27.3818 32.6679 26.3114C32.1896 25.6245 31.8229 24.7299 30.7708 24.8577C29.7186 24.9855 28.9693 25.4008 28.6345 26.4073C28.4432 26.9984 28.4273 27.6374 28.2041 28.2125C27.6302 29.6822 26.6099 30.2414 25.0476 29.6662C24.2346 29.3627 23.565 27.9729 22.752 28.6598C21.9389 29.3467 21.8911 30.7526 21.9868 32.3821C22.1143 33.0211 22.3694 34.0914 22.481 35.1618C22.6882 37.3504 21.6998 38.4367 19.5158 38.1811C18.1766 38.0214 17.9535 38.4048 18.3042 39.5071V39.5071Z" fill="#EF5A29"/>
<path d="M112.011 98.7916C114.546 98.8395 115.104 97.6094 115.104 95.932C115.088 93.9351 113.605 92.3535 111.836 92.3535C110.066 92.3535 108.759 93.8392 108.807 95.3249C108.855 96.8106 110.816 98.7916 112.011 98.7916Z" fill="#EF5C2C"/>
<path d="M110.592 86.5703C110.704 87.9601 111.613 89.0784 113.398 89.2381C114.881 89.3659 116.268 87.7045 116.252 85.9313C116.236 84.158 115.247 83.0557 113.446 82.9279C111.645 82.8001 110.592 84.3178 110.592 86.5703Z" fill="#EF5D2D"/>
<path d="M120.444 88.6473C120.651 90.0212 121.496 91.0436 123.106 91.1555C124.717 91.2673 126.119 89.3822 125.944 87.561C125.801 86.0433 124.972 85.1008 123.377 85.1487C121.783 85.1966 120.38 86.7463 120.444 88.6473Z" fill="#EF5D2D"/>
<path d="M116.523 77.4965C118.372 77.193 119.568 76.4741 119.329 74.7168C119.089 72.9595 118.053 71.9691 116.331 72.1288C114.61 72.2886 113.876 73.5506 113.956 75.0683C114.036 76.5859 115.231 77.4326 116.523 77.4965Z" fill="#EF5D2D"/>
<path d="M120.477 93.8872C118.93 94.047 117.942 94.7978 117.99 96.3954C118.037 97.9929 118.93 98.7118 120.365 98.7437C121.8 98.7757 122.804 97.8012 122.82 96.2516C122.836 94.702 121.895 94.047 120.477 93.8872Z" fill="#EF5C2B"/>
<path d="M127.044 72.9116C125.482 73.295 125.147 74.4293 125.052 75.5795C124.956 76.7298 125.61 77.7202 126.901 77.7043C128.192 77.6883 128.846 76.7777 128.734 75.5635C128.623 74.3494 128.097 73.3909 127.044 72.9116Z" fill="#EF5E2F"/>
<path d="M95.2395 104.798C96.6264 103.536 98.125 102.466 99.9423 101.907C100.516 101.731 101.058 101.3 101.68 101.795C102.732 102.61 103.577 102.306 104.151 101.22C104.725 100.133 104.119 99.0951 103.179 98.4401C102.238 97.7851 100.867 97.6413 99.6076 97.9928L97.1844 98.6797C95.654 99.7181 94.0917 100.709 93.2468 102.466C92.8641 103.265 92.5134 104.079 93.1352 104.862C93.7569 105.645 94.538 104.83 95.2395 104.798Z" fill="#030202"/>
<path d="M128.622 102.066C128.973 102.45 129.18 102.769 129.483 102.977C130.376 103.584 131.285 104.143 132.401 104.303C134.648 104.639 136.753 105.246 138.315 107.099C139 107.898 139.941 108.073 140.802 107.402C141.663 106.731 141.663 105.677 141.137 104.686C139.543 101.699 133.054 99.6063 130.009 101.108C129.563 101.332 129.148 101.683 128.622 102.066Z" fill="#030303"/>
<path d="M101.011 113.249C101.537 111.652 101.919 111.029 103.418 111.029H104.853L126.39 112.498C127.315 112.562 128.239 112.674 129.18 112.706C130.121 112.738 130.599 112.834 130.854 113.649C132.145 117.722 130.503 121.237 126.502 122.93C122.5 124.624 118.228 125.31 113.86 125.662C110.05 125.981 107.005 124.448 104.279 122.243C101.553 120.039 99.5917 117.403 101.011 113.249ZM104.326 117.051C106.479 120.374 109.476 122.291 113.605 122.115C117.734 121.94 122.07 121.173 125.992 119.352C126.741 119 127.618 118.777 127.921 117.834C128.574 115.805 127.889 114.958 125.705 115.038C124.158 115.086 122.612 115.038 121.066 115.038C116.012 115.294 111.022 114.272 105.969 114.224C103.864 114.208 103.179 115.262 104.326 117.051V117.051Z" fill="#030202"/>
</g>
<defs>
<clipPath id="clip0_13085_1650">
<rect width="280" height="280" fill="white" transform="matrix(-1 0 0 1 280 0)"/>
</clipPath>
</defs>
</svg>
