<svg width="261" height="280" viewBox="0 0 261 280" fill="none" xmlns="http://www.w3.org/2000/svg">
<path d="M229.529 189.024L218.453 170.277L215.914 172.686L227.471 190.163L229.529 189.024Z" fill="#F05929"/>
<path d="M200.854 176.19L205.8 183.111L208.953 182.585L203.174 176.015L200.854 176.19Z" fill="#F05929"/>
<path d="M113.91 200.106C115.748 201.07 115.748 201.859 119.732 202.559C123.716 203.26 127.875 205.012 129.363 205.888C130.852 206.765 136.674 210.225 138.776 212.328C140.877 214.43 143.46 219.073 144.117 218.986C144.817 218.898 151.515 221.044 152.872 220.563C154.23 220.081 162.329 209.918 163.729 209.743C165.13 209.568 174.061 204.837 175.287 203.874C176.513 202.866 183.386 197.566 183.824 196.383C184.261 195.201 185.575 192.879 185.049 190.119C184.568 187.404 169.158 187.097 169.158 187.097L138.82 190.032L114.698 192.353L113.91 200.106Z" fill="#EB421B"/>
<path fill-rule="evenodd" clip-rule="evenodd" d="M45.7469 48.7667L33.27 31.9025L34.0143 26.9089L43.6893 35.9324L45.0026 31.6397L45.0902 17.097L48.8989 16.2648L52.4449 34.7497L57.2168 29.8875L58.7052 16.7466L62.1637 18.3673L60.1499 32.91L61.6822 37.2027L70.5692 22.222L77.7488 22.5724L72.2765 39.9623L68.424 47.4088L82.7396 51.9643L82.4331 55.4686L67.8987 57.0017L59.931 61.0315L55.6408 86.6564L62.1637 113.113L77.1797 128.707L108.175 133L110.977 134.314L120.126 138.826L111.458 123.451L102.615 91.1681L119.426 39.8746L139.126 21.4773L166.269 22.4848L186.188 57.0893L189.559 79.5603L194.856 81.5314L204.356 86.8754L202.43 99.6659L188.858 108.996L179.227 124.546L175.593 129.277L173.229 131.511L184.349 131.686L180.146 138.344L111.239 172.467L107.912 149.382L68.03 137.862L46.5786 112.15L42.9888 83.8968L46.5786 59.586L45.7469 48.7667Z" fill="white"/>
<path d="M25.8714 81.4876C24.2954 72.1138 26.0465 63.8788 31.1248 56.3008C31.6502 55.5124 32.088 54.5049 33.3137 55.1182C34.5833 55.819 34.1893 56.8265 33.6202 57.7025C29.9428 63.4407 28.8921 69.9674 27.7101 76.4941C27.4474 78.1586 27.3161 79.8231 25.8714 81.4876Z" fill="#020202"/>
<path d="M15.8462 83.9406C15.8462 81.5752 15.8462 79.166 15.8462 76.8007C16.1089 75.1799 16.1964 73.5154 17.2033 72.1137C17.5973 71.5881 18.0351 71.1063 18.7793 71.5881C19.2609 71.8947 19.3485 72.3327 19.1296 72.8146C17.1158 77.5453 18.1227 82.4075 18.6042 87.182C19.042 91.3871 20.0051 95.5046 20.224 100.367C17.1158 94.8913 16.4591 89.416 15.8462 83.9406Z" fill="#050505"/>
<path d="M60.3251 18.8493C60.3251 21.3022 59.756 23.2296 59.0556 25.1569C58.9242 23.0982 58.9242 21.0832 60.3251 18.8493ZM127.087 158.844C122.272 160.859 118.025 164.057 113.034 165.852C112.378 161.385 111.808 157.179 111.064 153.018C110.364 149.207 108.175 147.63 104.76 146.711C96.0483 144.345 87.1175 142.681 78.5369 139.79C70.8319 137.205 64.4841 133.307 60.0187 126.43C58.3113 123.802 56.0786 121.524 54.1524 119.027C51.7884 115.873 49.5119 112.676 48.0234 108.996C45.5281 102.995 45.4405 96.5122 44.9152 90.2045C44.0396 79.6042 46.3599 69.398 50.0372 59.4547C50.5626 58.053 50.3875 56.6952 50.2561 55.162C49.9497 52.052 47.9797 49.7743 47.323 46.9709C46.8414 44.9997 45.6156 43.5104 44.1709 42.1087C41.1065 39.1739 38.1295 36.1077 35.7655 32.5158C35.1526 31.596 34.4084 30.5447 35.2402 29.3182C36.0719 29.581 36.3346 30.2819 36.7724 30.8075C38.5673 33.0853 40.1871 35.5382 42.2447 37.6408C43.2078 38.6045 44.2585 39.2177 45.6156 38.7359C47.0603 38.2102 47.1916 36.9838 47.1916 35.6259C47.2354 32.1216 46.7539 28.705 45.9658 25.3321C45.5281 23.4486 45.6156 21.5651 45.8783 19.6815C46.0096 18.8055 46.2285 17.7104 47.2354 17.7104C48.2861 17.7104 48.3737 18.8931 48.4612 19.7253C48.6363 21.8279 48.6363 23.9742 48.8114 26.1206C49.0303 28.705 49.2054 31.3332 49.687 33.8737C50.0372 35.7135 51.1317 37.2466 53.2331 37.5094C55.2469 37.7284 56.1662 36.2829 56.9542 34.7936C57.1731 34.3556 57.1293 33.6985 57.8298 33.5671C57.9173 35.144 57.9611 36.7209 58.18 38.254C58.3113 39.3053 58.8805 40.2252 59.9311 40.5756C61.1132 40.9698 62.1638 40.4442 62.8643 39.5681C63.6961 38.5169 64.4841 37.4218 65.097 36.2391C66.7168 33.0853 68.249 29.8877 69.7375 26.69C70.1753 25.7702 70.7006 24.8941 71.4886 24.1932C72.4955 23.361 73.59 23.6238 74.5969 23.9742C75.7789 24.4123 75.2098 25.4197 75.1222 26.2082C74.6407 30.0191 73.2398 33.4795 71.0508 36.6771C69.6062 38.8235 68.2052 41.0136 67.0232 43.3352C64.4403 48.4164 66.6292 51.9206 72.2329 52.0082C74.5969 52.052 76.9609 51.7454 79.2812 52.4024C80.0692 52.6215 81.2074 52.5777 81.1636 53.7603C81.1199 54.724 80.5507 55.5125 79.5876 55.9505C77.9678 56.6513 76.348 56.4323 74.7282 56.1257C71.1384 55.4249 67.5486 55.3373 63.915 55.8191C60.5003 56.2571 57.6547 58.6663 56.7353 61.1193C54.2837 67.6021 52.7515 74.4354 52.6639 81.5753C52.6202 86.9193 53.9773 92.0443 54.5464 97.2568C55.9035 110.091 61.4634 120.604 72.6706 127.481C80.3756 132.212 88.9562 134.183 97.887 134.27C102.133 134.314 106.38 133.964 110.845 134.708C107.868 131.16 104.454 129.496 100.163 129.803C98.8501 129.89 97.493 129.846 96.1358 129.759C88.4308 129.145 81.0323 127.481 74.4656 123.188C71.0508 120.954 68.5117 117.8 65.7099 114.953C64.0463 113.289 63.0394 111.274 62.2952 109.084C60.3251 103.389 59.6247 97.432 58.3989 91.6062C56.4289 82.4076 58.0924 73.5593 60.4565 64.7987C61.7261 60.068 63.521 59.1043 68.2928 59.0167C70.5255 58.9729 72.6706 59.4109 74.8596 59.8052C77.136 60.2432 79.4125 60.1994 81.5576 59.1043C83.5277 58.1407 85.3226 55.2058 85.1037 53.1033C84.7972 50.6503 83.0899 49.5552 80.9447 48.8106C78.1867 47.8907 75.2973 48.2412 72.4955 48.0659C70.0877 47.9345 69.5186 47.1461 70.6568 44.9559C71.7951 42.8096 73.1084 40.7508 74.4656 38.6921C77.3111 34.487 79.0185 29.8877 79.2374 24.8065C79.3249 22.4411 78.1429 20.9518 75.954 20.2072C71.7951 18.8055 68.5555 20.251 66.4979 24.5437C65.097 27.4785 63.8274 30.5009 61.8574 33.5671C61.6385 32.034 61.8136 30.8951 62.0325 29.7562C62.733 26.5148 63.4334 23.2734 64.0463 20.032C64.4841 17.7104 63.0832 15.1698 61.2445 14.6004C59.3182 13.9871 57.8736 14.9946 56.7353 17.7542C55.5095 20.7328 55.3344 23.8866 55.1155 26.9966C54.9404 29.9315 54.5464 31.377 53.3644 32.691C52.6639 28.7926 52.3575 24.8503 52.4013 20.908C52.445 17.6228 51.5257 14.8632 48.0672 13.5929H46.6663C43.6894 14.8632 42.3322 17.0533 42.1134 20.2072C41.9382 22.6163 42.2009 24.8941 42.5949 27.2595C42.9014 28.9678 43.4267 30.6323 43.2516 32.7787C41.3253 30.4571 39.7931 28.3545 38.042 26.471C36.9037 25.2445 35.3715 24.7627 33.7079 25.3321C32.0443 25.8578 31.6065 27.3033 31.3877 28.8802C31.0812 30.8513 31.519 32.5596 32.4821 34.3118C34.1895 37.378 36.6411 39.8748 39.0926 42.2839C43.0765 46.2262 43.8207 51.1322 44.346 56.2133C44.6963 59.8052 43.7332 63.2656 42.77 66.6385C40.4498 74.5668 39.7055 82.7142 39.9682 90.9492C40.0558 93.884 40.8876 96.6874 41.0627 99.6222C41.4129 105.93 43.2954 111.756 46.8414 117.1C50.1686 122.137 54.2837 126.473 57.8736 131.248C62.0763 136.899 67.7675 140.578 74.378 142.987C84.053 146.492 94.0345 148.55 104.147 150.127C105.461 150.346 106.424 150.565 106.292 152.361C106.161 153.982 106.555 155.646 106.818 157.267C107.65 161.823 107.299 166.553 109.269 170.89C110.495 171.021 110.802 169.532 111.896 169.357C115.486 167.561 118.769 165.327 122.14 163.268C122.928 162.699 123.848 162.261 124.679 161.735C125.467 160.728 127.306 160.728 127.087 158.844Z" fill="#F05A29"/>
<path d="M201.51 94.7162C199.409 100.849 195.119 104.397 188.639 104.835C186.013 105.01 184.962 106.149 184.305 108.558C182.905 113.902 180.847 118.983 177.388 123.451C173.054 129.058 167.363 132.781 160.753 135.015C150.509 138.519 140.046 139.746 129.364 137.337C124.942 136.329 121.571 133.832 118.769 130.284C109.05 117.8 105.723 103.433 106.161 87.9267C106.161 87.4011 106.424 86.8754 106.555 86.3498C106.905 85.5613 107.168 84.7291 107.431 83.8968C107.474 83.5464 107.518 83.196 107.562 82.8455C107.912 80.5678 108.262 78.3338 108.963 76.1437C109.269 75.18 109.62 74.2163 109.882 73.2527C109.926 73.0775 110.014 72.8584 110.057 72.6832V72.6394C110.101 72.508 110.145 72.2452 110.145 72.1576C110.232 71.851 110.276 71.5005 110.32 71.1501C110.189 71.1063 110.014 71.0187 109.882 70.8873C111.239 66.4632 112.859 62.1705 115.924 58.5786C116.23 58.1844 116.361 57.5711 116.405 57.0455C117.981 45.4815 123.76 36.2828 132.647 28.9239C140.746 22.222 149.939 20.6889 159.921 23.7113C162.329 24.456 164.386 25.8577 165.875 27.8288C174.193 38.5168 181.329 49.9056 185.093 63.0903C186.757 68.8285 186.669 74.7858 186.801 80.6992C186.888 85.0357 188.07 86.0432 192.142 84.6853C194.944 83.7654 197.57 83.3712 199.672 85.9118C201.948 88.4523 202.649 91.4748 201.51 94.7162ZM204.575 83.634C202.255 80.305 199.015 77.9396 194.812 78.5966C192.186 78.9909 192.142 77.8958 192.142 76.0999C192.098 71.2815 191.748 66.507 190.478 61.82C188.202 53.2784 184.218 45.5253 179.709 38.035C177.257 34.0051 174.543 30.1066 171.741 26.2957C167.013 19.8129 160.534 16.8781 152.829 16.7467C143.767 16.6152 135.493 19.0244 128.444 25.2883C121.221 31.7273 116.23 39.5243 113.166 48.5039C111.765 52.6652 109.795 56.5637 107.956 60.4622C103.184 70.6245 100.82 81.2248 100.514 89.8102C100.82 106.324 104.147 117.8 111.546 129.496C113.779 133 116.055 136.855 119.689 138.87C126.912 142.856 134.967 144.433 143.154 144.214C150.552 143.995 157.907 142.637 164.605 139.176C170.865 135.935 176.951 132.606 181.329 126.78C184.656 122.356 186.888 117.45 188.508 112.237C188.99 110.661 189.471 109.653 191.398 109.565C193.455 109.522 195.338 108.47 197.176 107.55C204.312 103.871 210.923 92.7889 204.575 83.634Z" fill="#F05A29"/>
<path d="M109.926 70.8434C106.03 74.2162 104.892 78.8594 104.104 83.6339C103.841 85.2984 104.76 86.3059 106.555 86.3059C107.606 85.8679 107.956 85.0356 108.175 83.9405C108.657 81.0933 109.445 78.2899 110.977 75.7494C111.896 74.2162 112.597 74.3039 113.297 75.8808C114.392 78.2899 114.435 80.9181 114.829 83.4587C115.005 84.4662 115.136 85.9117 116.099 85.9993C117.281 86.0869 117.763 84.729 118.025 83.6777C118.901 80.1735 118.244 76.8444 116.668 73.6468C115.223 70.5806 113.166 69.7921 109.926 70.8434Z" fill="#010101"/>
<path d="M150.946 87.8829C151.472 86.2622 151.384 84.5976 151.384 82.4513C151.34 79.7793 151.121 76.6255 149.764 73.6907C148.801 71.6319 147.488 69.7484 144.992 69.617C142.409 69.4856 140.746 71.1939 139.651 73.2964C137.769 76.8445 137.287 80.743 137.068 84.729C137.025 86.0431 137.244 87.4886 138.863 87.5324C140.746 87.5762 140.79 86.0431 140.746 84.6414C140.658 81.4876 141.884 78.6404 143.066 75.837C143.373 75.1362 143.767 74.1725 144.555 74.1725C145.561 74.1725 145.693 75.3552 145.999 76.0998C146.656 77.8958 146.875 79.7793 146.962 81.6628C147.05 83.7654 147.181 85.9117 147.838 87.9705C148.101 88.8027 148.407 89.8102 149.414 89.7664C150.377 89.7226 150.683 88.7151 150.946 87.8829Z" fill="#010101"/>
<path d="M163.992 86.3059C163.73 85.0357 163.511 83.2835 161.847 83.3273C160.227 83.3711 160.621 85.1233 160.49 86.1745C159.79 92.0004 157.251 96.5997 152.26 99.7535C151.253 100.367 150.29 101.068 149.721 102.425C150.771 103.083 151.778 103.214 152.917 102.951C159.396 101.549 165.262 92.745 163.992 86.3059Z" fill="#010101"/>
<path d="M132.997 65.6309C130.984 65.5433 128.97 67.4268 128.97 69.4855C128.97 71.5443 130.502 72.1137 132.122 72.2889C134.048 72.4642 136.062 70.7558 136.149 69.0475C136.281 67.2516 134.836 65.7185 132.997 65.6309Z" fill="#F05C2C"/>
<path d="M135.887 55.7314C134.092 55.7752 132.691 57.5711 132.866 59.5423C132.997 61.382 134.048 62.3457 135.668 62.4771C137.769 62.3895 139.301 60.5059 139.126 58.491C138.907 56.6513 137.769 55.6876 135.887 55.7314Z" fill="#F05C2C"/>
<path d="M125.642 52.8842C124.023 52.709 122.534 54.3297 122.534 56.3009C122.534 58.0968 123.366 59.3233 125.292 59.4547C126.956 59.5861 128.488 57.9216 128.488 55.7752C128.225 54.4173 127.481 53.1032 125.642 52.8842Z" fill="#F05C2C"/>
<path d="M138.644 43.7293C136.981 43.6417 135.23 45.2186 135.405 46.7079C135.58 48.3725 136.762 49.3361 138.382 49.5113C139.958 49.7304 141.315 48.2848 141.359 46.2699C141.271 44.912 140.395 43.8607 138.644 43.7293Z" fill="#F05C2C"/>
<path d="M124.154 62.8713C122.447 62.8275 121.528 63.8788 121.484 65.4995C121.44 67.0764 122.359 68.0401 123.936 68.1277C125.599 68.2153 126.562 67.3392 126.781 65.5871C126.606 64.054 125.862 62.9151 124.154 62.8713Z" fill="#F05C2C"/>
<path d="M127.919 44.5178C129.802 44.4302 130.108 43.0285 130.283 41.4078C130.196 40.4879 129.933 39.4366 128.707 39.6556C127.262 39.9623 126.08 40.8821 126.037 42.5466C126.037 43.7293 126.65 44.5616 127.919 44.5178Z" fill="#F05C2C"/>
<path d="M108.832 170.715C109.795 170.32 109.795 168.743 111.152 168.831C112.596 171.547 113.209 174.569 114.26 177.46C114.829 178.993 115.267 180.614 116.055 182.06C116.449 182.804 116.843 183.943 117.85 183.549C118.901 183.155 118.419 182.06 118.113 181.271C117.675 180.001 117.193 178.774 116.755 177.504C116.537 176.847 116.143 175.971 116.887 175.577C117.762 175.095 118.288 175.971 118.725 176.628C119.426 177.679 120.039 178.774 120.739 179.826C121.002 180.22 121.308 180.702 121.834 180.57C122.534 180.351 122.359 179.65 122.184 179.169C121.396 176.628 120.433 174.087 119.207 171.722C118.507 170.408 118.244 169.181 119.163 167.999C120.345 166.378 120.958 164.582 121.615 162.742C122.228 161.998 123.191 161.779 123.979 161.297C125.424 161.384 126.781 163.356 128.357 161.384C128.707 160.946 129.276 161.691 129.539 162.173C131.202 164.976 131.202 164.976 134.223 163.925C134.354 163.881 134.529 163.925 134.661 164.013C135.668 164.801 135.099 165.896 135.274 166.772C135.361 165.502 135.011 164.056 136.018 162.83C137.287 162.523 137.156 163.575 137.244 164.232C137.463 165.809 137.769 167.342 138.338 168.787C138.82 170.058 139.52 170.977 141.14 170.715C142.497 170.452 143.46 171.547 144.598 171.941C145.343 173.08 144.423 173.825 143.898 174.657C142.234 177.416 140.133 179.869 138.513 182.717C138.032 183.593 137.506 184.469 137.156 185.739C139.17 184.688 140.002 182.979 141.228 181.578C141.797 180.921 142.191 179.563 143.548 180.483C143.986 182.366 144.073 184.294 143.942 186.177C143.635 187.491 142.628 187.623 141.534 187.623C140.746 187.491 140.133 187.929 139.564 188.367C138.382 188.499 138.163 189.112 138.688 190.076C138.513 190.908 139.783 191.871 138.863 192.397C137.944 192.967 137.2 191.828 136.631 191.171C135.799 190.251 134.792 189.637 133.785 189.024C133.479 186.79 133.216 184.513 132.691 182.279C132.341 180.789 131.596 180.045 129.976 180.789C129.845 180.877 129.714 180.921 129.539 181.008C128.313 181.446 126.562 180.877 125.993 182.717C125.424 184.688 126.299 186.44 127 188.148C127.35 188.98 128.138 189.681 128.006 190.689C128.05 192.309 126.781 192.047 125.818 192.178C125.38 192.09 125.03 191.871 124.767 191.477C124.373 190.733 124.154 189.9 123.848 189.112C123.235 187.623 122.009 187.579 120.739 187.842C119.382 188.104 119.557 189.243 119.645 190.251C119.732 191.39 120.958 193.273 120.17 194.368C119.601 194.85 118.288 194.412 117.543 194.062C117.149 192.178 116.887 190.251 116.799 188.323C116.668 185.87 114.742 184.994 113.253 183.768C112.684 183.286 112.246 183.768 112.071 184.337C111.808 185.126 111.808 186.046 110.933 186.571C110.583 186.703 110.232 186.659 109.926 186.396C109.707 183.987 109.138 181.578 110.408 179.3C111.02 178.161 109.97 178.249 109.488 177.854C108.919 175.489 109.488 173.036 108.832 170.715Z" fill="#EB421B"/>
<path d="M171.259 140.885C174.98 138.344 178.395 135.453 181.635 132.343C183.736 133 183.255 134.533 182.861 136.022C180.715 136.855 180.146 138.475 180.365 140.622C180.54 142.33 180.409 144.082 180.672 145.791C180.934 147.63 181.153 149.295 183.167 150.215C184.393 150.784 184.349 152.186 183.955 153.369C183.473 154.77 182.335 154.069 181.547 153.85C179.052 153.193 176.907 153.85 174.849 155.164C174.368 155.471 173.974 155.821 173.448 156.041C170.69 157.179 170.646 157.223 171.434 160.114C171.96 162.085 172.573 164.056 173.229 165.984C174.368 168.919 174.762 172.116 176.381 174.876C176.907 175.752 176.95 176.716 175.768 177.197C174.586 177.679 173.93 177.022 173.623 176.015C172.66 172.992 172.179 169.882 171.04 166.947C170.515 165.59 170.165 163.531 168.282 164.1C166.137 164.757 167.494 166.597 167.888 167.911C168.939 171.547 170.077 175.139 170.953 178.818C170.865 179.694 170.427 180.264 169.508 180.351C168.589 180.439 167.669 180.264 167.494 181.665C167.407 182.366 166.575 182.06 166.093 181.972C164.868 181.665 163.642 181.709 162.416 181.841C161.672 181.753 161.059 182.016 160.534 182.498C160.096 182.76 159.57 182.629 159.089 182.673C158.651 182.585 158.301 182.366 158.038 181.972C157.469 180.395 158.257 179.388 159.395 178.511C160.534 178.555 161.584 178.424 161.803 176.978C161.934 176.321 162.547 176.059 163.073 176.409C164.299 177.197 165.481 175.927 166.706 176.365C167.1 176.497 167.538 176.146 167.494 175.708C167.275 174.044 167.451 171.897 165.787 171.109C163.905 170.189 163.379 168.568 162.679 166.991C162.372 165.195 162.547 163.356 162.066 161.56C162.022 160.64 161.978 159.676 161.803 158.756C161.672 158.143 161.584 157.223 162.153 157.004C163.729 156.435 164.517 155.033 165.699 154.157C166.663 153.456 167.451 152.887 168.063 151.792C168.764 150.521 170.209 151.266 170.997 151.66C172.704 152.449 172.835 151.529 172.879 150.302C172.967 148.068 172.485 145.922 171.916 143.819C171.785 142.856 171.347 141.936 171.259 140.885Z" fill="#EB421B"/>
<path d="M157.032 146.01C155.456 147.937 156.2 149.996 156.725 151.967C157.076 153.325 157.382 154.551 156.112 155.515C155.718 157.53 154.318 158.8 152.785 160.027C151.428 159.632 151.122 158.406 150.815 157.311C150.202 154.902 148.057 154.507 146.35 153.631C145.649 153.281 144.949 153.675 144.774 154.551C144.643 155.164 144.818 155.822 144.467 156.391C143.373 157.004 142.804 155.208 141.709 155.822C140.878 155.646 140.396 155.033 140.002 154.332C139.564 153.544 139.345 152.317 138.207 153.85C137.463 154.858 136.325 154.902 135.23 154.551C134.486 154.332 133.698 153.938 134.311 152.887C135.931 151.529 137.507 150.171 139.127 148.813C139.477 148.55 139.958 148.2 140.352 148.244C146.087 148.463 151.56 147.149 157.032 146.01Z" fill="#EB421B"/>
<path d="M188.727 134.752C190.04 135.847 191.179 137.118 192.098 138.519C193.017 141.016 192.755 143.6 192.711 146.141C192.711 147.324 192.623 148.638 191.31 149.12C189.997 149.602 189.428 148.331 188.64 147.587C187.983 148.025 188.114 148.857 187.545 149.295C186.276 149.645 186.363 148.55 186.144 147.937C185.706 146.667 185.444 145.396 185.137 144.082C184.962 144.345 185.05 143.863 185.006 143.951C184.437 145.615 183.824 146.141 182.992 144.126C182.948 143.995 182.992 143.732 182.905 143.688C179.971 141.586 182.248 139.395 182.773 137.249C182.992 136.899 183.255 136.636 183.386 136.242C183.78 135.015 184.306 133.745 185.882 133.964C187.458 134.183 187.764 135.497 187.852 136.636C188.027 136.066 187.458 135.059 188.727 134.752Z" fill="#E83715"/>
<path d="M187.37 149.426C187.414 148.244 187.851 147.149 188.377 146.097C188.552 146.185 188.683 146.185 188.727 146.272C189.34 147.28 189.603 149.12 191.047 148.725C192.492 148.375 192.054 146.623 192.054 145.396C192.098 143.119 192.054 140.841 192.054 138.563C192.536 139.877 193.455 140.841 194.331 141.892C194.462 145.834 195.162 149.733 195.381 153.675C195.381 156.172 195.381 158.669 195.381 161.165C195.381 163.837 195.819 166.597 193.937 168.919C193.674 168.568 193.411 168.174 193.192 167.824C192.317 163.531 193.28 159.282 193.367 154.989C193.367 154.288 193.411 153.588 193.28 152.887C193.192 152.405 193.017 151.923 192.492 151.835C191.835 151.748 191.485 152.23 191.266 152.755C190.828 153.719 191.003 154.77 190.828 155.778C190.522 157.355 190.697 159.151 188.771 159.939C188.158 159.019 187.545 158.055 186.888 157.136C186.845 157.048 186.845 156.96 186.888 156.873C187.633 155.383 187.633 153.894 187.195 152.317C186.932 151.31 186.538 150.302 187.37 149.426Z" fill="#F05929"/>
<path d="M188.727 159.895C189.778 158.45 190.172 156.829 190.172 155.077C190.172 154.069 190.303 153.062 190.61 152.098C190.96 151.091 191.616 150.784 192.58 150.872C193.718 150.959 193.98 151.66 193.98 152.668C194.068 155.778 193.98 158.932 193.411 161.998C193.236 163.049 193.105 163.837 193.718 164.845C194.374 165.852 193.893 166.947 193.149 167.867C191.441 165.327 189.909 162.742 188.727 159.895Z" fill="#E83615"/>
<path d="M208.296 164.67C208.865 162.786 208.165 160.99 208.033 159.107C207.989 158.274 207.771 157.398 207.771 156.566C211.711 160.946 215.651 165.371 219.634 169.751C219.372 170.101 219.022 170.408 218.584 170.539C217.489 170.715 217.095 169.839 216.526 169.225C215.038 167.736 213.505 166.247 212.061 164.714C213.287 166.071 214.687 167.298 215.913 168.656C216.307 169.094 217.402 169.576 216.657 170.277C216.132 170.802 215.125 171.109 214.25 170.452C213.374 169.795 212.63 168.962 211.842 168.174C210.616 166.991 209.347 165.896 208.296 164.67Z" fill="#EE5C35"/>
<path d="M134.354 164.057C134.266 160.727 132.647 157.705 132.428 154.42C133.084 153.894 133.741 153.325 134.354 152.799C134.485 154.069 135.405 154.069 136.412 154.157C138.206 154.245 138.206 152.58 138.994 151.485C139.564 152.449 140.352 153.062 140.483 154.157C140.045 154.726 139.52 155.384 138.863 155.471C135.886 155.865 136.324 158.012 136.412 159.983C136.455 160.903 136.981 161.823 136.236 162.655C135.799 164.538 135.624 166.466 135.799 168.743C134.004 167.254 135.58 165.283 134.354 164.057Z" fill="#F05929"/>
<path d="M195.425 153.675C194.025 149.82 193.455 145.922 194.375 141.892C195.513 143.25 196.695 144.608 197.833 145.966C197.833 147.849 197.921 149.733 197.746 151.616C197.614 152.755 197.658 154.639 195.425 153.675Z" fill="#E52E11"/>
<path d="M203.918 152.273C203.831 154.157 204.225 156.041 203.656 157.88C203.524 158.362 203.349 159.107 202.692 159.019C202.298 158.975 201.861 158.537 201.685 158.143C200.285 155.296 200.066 152.361 201.16 149.382C202.342 150.127 203.174 151.178 203.918 152.273Z" fill="#E3290F"/>
<path d="M126.255 192.003C127.744 193.273 129.626 194.149 130.02 196.339C129.582 196.471 129.232 197.084 128.663 196.69C127.656 196.515 127.175 195.639 126.43 195.069C125.861 194.456 125.205 193.886 124.898 193.054C124.898 192.485 124.154 191.784 125.292 191.477C125.642 191.652 125.949 191.828 126.255 192.003Z" fill="#ED5E3F"/>
<path d="M133.522 189.55C135.317 189.988 133.916 192.572 135.799 192.967C135.974 193.361 136.061 192.923 136.368 193.711C135.58 193.186 135.23 193.755 134.836 193.448C134.004 191.959 132.515 191.039 131.421 189.769C131.99 188.323 132.778 189.112 133.522 189.55Z" fill="#E94B2E"/>
<path d="M123.891 196.208C123.979 196.646 124.241 196.996 124.679 197.172C124.942 197.653 125.117 198.135 124.46 198.486C123.716 197.697 123.015 196.821 122.009 196.296C120.87 195.858 120.082 195.069 119.776 193.886C119.863 193.448 119.82 192.967 120.389 192.791C121.921 193.273 122.709 194.719 123.979 195.639C124.11 195.858 124.066 196.033 123.891 196.208Z" fill="#EF7257"/>
<path d="M129.976 192.879C129.801 192.835 127.831 190.952 127.656 190.908C127.306 188.937 125.949 187.404 125.555 185.432C125.161 183.593 125.029 181.578 126.868 180.964C128.4 180.439 130.064 179.782 131.771 179.782C132.603 179.782 133.216 180.483 133.303 181.315C133.654 183.943 134.485 186.484 134.31 189.199" fill="#E4290F"/>
<path d="M117.237 194.412C116.668 195.069 116.099 194.981 115.486 194.412C114.873 194.85 114.435 195.77 113.428 195.332C113.297 195.288 113.165 195.244 112.99 195.2C112.29 194.456 112.64 193.536 112.684 192.748C112.859 190.382 111.589 188.455 111.108 186.308C111.589 185.52 111.546 184.644 111.633 183.812C111.765 182.673 113.034 182.103 113.428 182.673C114.61 184.381 117.675 184.469 117.456 187.447C117.324 189.55 118.813 191.652 117.718 193.843C117.85 193.93 117.894 194.062 117.894 194.193C117.894 194.324 117.85 194.412 117.806 194.412C117.675 194.587 117.456 194.587 117.237 194.412Z" fill="#E3280E"/>
<path d="M120.564 193.01C120.082 193.229 120.126 193.624 120.17 194.062C119.776 194.062 119.557 193.886 119.644 193.448C119.907 192.09 119.207 190.82 119.163 189.506C119.119 188.411 119.338 186.965 120.389 187.097C121.658 187.228 123.453 186.177 124.285 188.104C124.723 189.199 125.292 190.251 125.248 191.477C124.635 191.959 125.336 192.441 125.248 192.923C124.241 193.098 123.234 193.186 122.227 193.273C121.746 193.142 121.133 193.229 120.564 193.01Z" fill="#E3280E"/>
<path d="M187.02 156.741C186.801 156.303 186.451 156.216 186.057 156.303C184.393 156.698 182.905 157.661 181.197 158.012C180.628 158.143 180.453 158.756 180.234 159.238C179.14 161.779 178.22 161.998 176.075 160.377C174.499 159.15 173.974 159.326 173.361 161.341C172.836 163.005 173.361 164.757 172.748 166.422C174.149 169.357 174.193 172.861 176.294 175.577C176.688 176.102 176.513 176.628 175.813 176.847C175.287 177.022 174.718 177.241 174.455 176.453C174.324 176.015 174.237 175.533 174.105 175.095C173.142 171.634 172.485 168.086 170.953 164.801C170.34 163.487 169.377 162.742 167.932 163.224C166.444 163.75 166.313 164.976 166.75 166.334C168.108 170.627 169.465 174.92 170.778 179.212C170.603 179.738 170.866 180.045 171.26 180.264C171.478 180.307 171.697 180.264 171.873 180.088C172.442 178.862 173.449 178.906 174.543 179.037C174.849 179.081 175.2 179.125 175.506 179.081C175.725 179.037 175.9 178.993 176.119 178.906C176.819 178.511 177.476 177.942 178.308 177.898C179.578 177.898 180.716 177.197 181.985 177.154C182.905 176.716 184.043 182.103 184.918 181.84C185.181 181.709 185.312 177.066 185.312 176.891C185.269 172.992 186.057 169.138 186.057 165.195C186.057 162.48 185.925 159.676 186.888 157.004C186.932 157.004 186.976 156.873 187.02 156.741Z" fill="#E42B10"/>
<path d="M168.676 151.616C170.121 152.317 171.916 151.879 172.967 153.807C174.105 148.944 173.623 144.783 171.303 140.885C167.845 142.505 164.561 144.476 160.621 144.958C159.395 145.09 158.257 145.659 157.075 146.01C155.324 147.061 155.368 148.682 155.762 150.39C156.112 152.011 156.594 153.588 156.025 155.252C156.725 156.26 157.732 157.136 157.338 158.581C157.776 160.99 158.345 163.312 161.278 163.837C162.81 163.662 162.022 162.085 162.723 161.428C162.81 158.669 162.81 158.669 164.824 156.61C165.218 156.216 165.568 155.822 165.612 155.208C165.612 154.902 165.656 154.42 166.006 154.507C168.37 154.902 168.282 153.018 168.676 151.616Z" fill="#E42B10"/>
<path d="M126.737 158.756C126.255 160.114 124.679 160.246 123.935 161.253C125.467 162.348 126.868 164.933 128.707 161.428C130.283 166.247 131.158 166.641 134.354 164.1C135.23 160.596 133.741 157.53 132.428 154.464C130.502 155.865 128.619 157.311 126.737 158.756Z" fill="#E42B10"/>
<path d="M119.688 171.503C118.594 169.751 119.076 168.349 120.082 167.386C121.527 165.94 121.615 164.407 121.527 162.655C118.069 164.714 114.566 166.772 111.108 168.787C111.808 173.168 113.56 177.154 115.004 181.315C115.354 182.279 115.748 183.155 116.493 183.943C117.806 185.301 118.463 184.688 118.988 183.286C119.294 182.454 118.944 181.753 118.682 181.052C118.025 179.344 117.412 177.592 116.755 175.883C118.506 176.847 119.119 178.555 120.039 180.045C120.608 180.964 121.221 181.972 122.403 181.403C123.41 180.877 123.016 179.694 122.709 178.862C121.834 176.365 121.089 173.737 119.688 171.503Z" fill="#E42B10"/>
<path d="M151.253 156.741C150.684 154.026 148.101 153.85 146.262 152.887C145.387 152.405 143.46 153.018 144.204 155.121C144.336 155.559 144.248 156.041 144.292 156.522C143.504 157.355 143.898 158.318 144.117 159.194C144.511 160.99 145.036 162.742 145.343 164.538C144.817 162.173 144.248 159.808 143.416 157.53C143.11 156.741 142.891 155.865 141.884 155.559C141.271 155.252 140.79 154.77 140.483 154.113C139.039 154.069 138.076 155.603 136.456 155.296C135.93 155.208 135.755 156.172 135.755 156.829C135.712 158.756 135.755 160.727 136.237 162.611C136.718 164.626 137.2 166.641 137.638 168.7C137.9 170.101 139.258 171.591 139.87 171.372C141.84 170.539 143.154 172.467 144.817 172.116C145.781 172.204 146.175 171.459 146.569 170.802C148.32 167.867 150.333 165.064 152.172 162.173C152.61 161.472 153.179 160.727 152.785 159.808C151.909 158.975 151.515 157.88 151.253 156.741Z" fill="#E42B10"/>
<path d="M125.423 168.043C125.161 167.429 124.81 166.947 124.022 167.035C123.497 167.079 123.103 167.473 123.059 167.955C122.928 170.627 123.366 173.211 124.767 175.533C125.117 176.102 125.73 176.628 126.562 176.19C127.218 175.84 127.262 175.182 127.218 174.569C126.78 172.335 126.386 170.101 125.423 168.043Z" fill="#E42B10"/>
<path d="M143.241 180.001C143.548 179.563 143.854 179.125 144.161 178.687C145.43 178.468 146.131 179.3 146.393 180.22C146.875 181.884 147.575 183.549 147.094 185.389C147.05 187.097 146.262 185.389 145.78 185.651C145.036 186.046 144.161 186.133 143.329 186.352C143.329 184.25 143.285 182.147 143.241 180.001Z" fill="#F05929"/>
<path d="M182.642 136.154L183.123 137.074C183.08 138.388 183.386 139.746 181.985 140.666C181.591 140.929 181.679 141.892 181.941 141.892C184.218 141.805 183.299 143.951 183.999 144.958C185.006 144.126 184.218 143.031 184.875 142.067C186.538 144.301 186.1 147.149 187.37 149.382C187.107 151.31 188.289 153.018 188.158 154.989C188.07 156.041 187.764 156.522 186.888 156.785C184.875 156.654 183.517 158.625 181.46 158.45C180.759 158.406 180.803 159.194 180.759 159.72C180.672 160.947 180.015 161.779 178.833 162.042C177.651 162.304 176.469 162.217 175.725 160.99C175.462 160.552 175.287 159.851 174.587 160.027C173.886 160.202 174.236 160.99 173.974 161.428C173.492 162.304 173.667 163.268 173.623 164.188C173.623 165.064 173.667 165.94 172.66 166.378C171.916 163.969 171.172 161.604 170.471 159.151C169.815 156.785 170.384 156.041 172.879 155.559C174.149 155.34 175.287 154.376 176.163 153.719C178.702 151.792 180.891 153.456 183.43 153.5C183.649 152.011 184.043 150.434 181.547 150.083C180.716 149.952 180.453 148.988 180.322 148.2C179.752 144.783 179.709 141.323 179.752 137.862C179.796 135.804 181.328 136.198 182.642 136.154Z" fill="#E3290E"/>
<path d="M159.483 178.774C160.928 175.051 162.416 171.328 163.248 167.385C164.299 168.656 165.13 169.97 166.706 170.934C168.239 171.897 168.282 174.482 168.282 176.497C168.282 176.803 167.626 177.373 167.626 177.373C166.093 176.278 164.299 179.344 162.547 176.891C162.723 179.694 161.716 179.957 159.483 178.774Z" fill="#E83514"/>
<path d="M160.402 182.585C162.154 184.381 163.905 186.177 165.612 187.973C165.612 188.849 165.349 189.199 164.649 188.455C163.423 187.184 162.197 185.914 160.972 184.688C160.884 183.636 159.921 183.242 159.396 182.498C159.746 182.016 160.052 182.541 160.402 182.585Z" fill="#F8C3B4"/>
<path d="M158.126 173.606L157.425 175.401C156.944 175.445 156.681 175.095 156.593 174.744C155.849 171.24 154.492 167.911 153.66 164.495C154.798 162.392 155.849 160.202 157.469 158.406C158.344 160.508 158.87 162.83 161.365 163.75C161.278 165.064 161.015 166.29 160.358 167.429C159.877 167.605 159.658 167.254 159.439 166.947C159.045 166.422 158.738 165.59 157.819 166.071C157.075 166.466 157.119 167.254 157.206 167.911C157.425 169.795 158.082 171.678 158.126 173.606Z" fill="#EB421B"/>
<path d="M208.383 165.02C210.222 166.86 212.061 168.656 213.987 170.583C210.966 170.32 210.529 170.014 206.764 165.59C206.851 164.144 207.727 164.889 208.383 165.02Z" fill="#EE5C35"/>
<path d="M203.962 166.509C204.618 168.524 206.807 169.357 207.727 171.196C206.238 172.072 205.363 171.109 204.443 170.145C203.83 169.488 203.13 168.831 202.473 168.174C202.517 167.21 202.911 166.553 203.962 166.509Z" fill="#F06B48"/>
<path d="M144.292 156.522C144.861 159.37 145.43 162.261 146.043 165.108C143.504 162.392 143.854 158.494 141.928 155.559C143.372 154.201 143.635 155.822 144.292 156.522Z" fill="#F05929"/>
<path d="M161.322 188.674C162.154 189.681 162.942 189.506 163.773 188.674C165.262 189.813 166.531 191.171 167.801 192.704C166.181 193.58 164.868 193.843 163.642 192.178C162.81 191.039 161.716 190.119 160.753 189.112C160.709 188.718 160.884 188.542 161.322 188.674Z" fill="#F7B09C"/>
<path d="M161.322 188.674C161.146 188.805 160.928 188.98 160.752 189.112C160.052 188.411 159.308 187.71 158.607 187.053C158.957 186.965 157.994 185.52 159.176 186.396C159.964 187.009 160.884 187.623 161.322 188.674Z" fill="#FBD9D0"/>
<path d="M153.661 183.242C153.398 183.593 153.135 183.987 152.873 184.337C152.041 184.951 151.121 185.213 150.071 185.17C149.195 185.038 148.407 185.739 147.532 185.432C147.4 185.389 147.269 185.345 147.094 185.345C146.787 184.162 146.218 182.979 146.218 181.797C146.174 180.088 145.474 179.037 144.161 178.249C145.78 175.752 147.4 173.299 149.02 170.802C149.458 170.452 149.939 170.233 150.377 169.838C152.085 168.174 152.785 168.305 153.354 170.539C154.186 173.781 155.28 177.022 154.755 180.483C154.405 181.446 154.055 182.322 153.661 183.242Z" fill="#E93A17"/>
<path d="M113.428 195.376C114.129 195.069 114.829 194.762 115.486 194.456C115.354 194.981 115.617 195.376 116.011 195.639C117.193 196.383 117.106 197.259 116.318 198.223C115.092 197.61 113.735 197.04 113.428 195.376Z" fill="#EB583B"/>
<path d="M128.138 191.083C128.313 191.083 128.488 191.083 128.663 191.083C129.714 192.09 131.071 192.835 131.465 194.368C130.195 193.448 129.145 192.309 128.138 191.083Z" fill="#EB421B"/>
<path d="M117.762 194.368C118.726 195.157 119.689 195.989 120.696 196.777C120.564 197.215 119.295 197.303 120.214 198.135C118.2 197.347 118.2 197.303 117.981 195.332C117.938 195.025 117.544 194.719 117.325 194.412C117.412 194.412 117.587 194.368 117.762 194.368Z" fill="#EF6F52"/>
<path d="M154.843 180.789C154.492 178.95 154.273 177.066 153.792 175.27C153.354 173.474 153.179 171.591 152.085 169.532C151.472 171.065 150.684 171.941 149.283 171.634C150.771 169.225 152.303 166.816 153.792 164.451C155.893 167.385 156.287 170.934 157.075 174.35C157.163 174.701 157.294 175.051 157.425 175.401C156.725 177.285 155.937 179.125 154.843 180.789Z" fill="#E3280E"/>
<path d="M158.126 173.606C156.944 171.722 156.813 169.532 156.594 167.385C156.506 166.378 156.419 165.239 157.863 165.064C159.264 164.845 159.877 165.502 159.965 166.86C159.965 167.035 160.227 167.21 160.402 167.385C160.008 169.619 159.177 171.634 158.126 173.606Z" fill="#E42A0F"/>
<path d="M152.872 184.425C151.822 183.943 150.99 184.731 150.027 184.819C148.976 184.162 148.363 185.126 147.575 185.432C148.582 186.527 149.589 187.579 150.596 188.674C151.253 188.674 151.384 187.885 151.865 187.666C151.822 187.535 151.822 187.403 151.734 187.272C151.734 186.659 151.997 186.221 152.391 185.827C152.216 185.257 153.31 185.082 152.872 184.425Z" fill="#F05929"/>
<path d="M149.764 182.585C146.612 180.526 141.402 185.739 138.863 185.651C139.082 186.221 139.52 186.79 138.776 187.447C138.382 186.747 136.324 183.856 134.748 186.747C135.273 187.798 135.492 188.98 135.448 190.251C134.529 187.535 129.188 186.089 129.889 188.893C129.626 188.411 128.269 188.411 127.7 188.761C127.131 189.112 126.912 189.594 126.955 190.119C125.204 189.594 120.476 190.645 119.863 190.864C119.995 191.083 120.17 191.302 120.301 191.565C119.513 191.302 118.813 191.171 118.681 191.171C118.462 193.186 119.951 195.201 119.995 196.296C118.156 194.324 119.382 190.776 116.142 191.652C116.142 193.317 114.303 190.689 114.698 192.222C113.691 190.776 111.852 191.696 111.064 191.696C110.232 199.143 110.451 200.983 115.792 200.676C118.419 200.501 122.184 199.449 124.723 198.223C124.723 197.434 124.591 196.821 124.329 196.252C125.861 197.347 127.525 197.654 129.144 196.12C128.882 195.201 128.488 193.492 127.962 192.31C129.845 194.719 133.435 196.865 132.603 194.543C135.273 194.806 136.455 194.894 135.58 190.82C137.418 195.332 140.045 191.171 142.059 191.039C143.066 191.346 145.561 191.171 146.393 191.477C148.451 191.477 148.494 193.624 150.683 191.258C153.485 188.236 151.559 184.994 149.764 182.585Z" fill="#EB421B"/>
<path d="M173.974 194.237C173.492 194.062 174.018 193.843 173.974 194.237V194.237ZM185.006 181.052C184.875 173.036 174.28 178.643 169.508 179.826C166.707 180.526 163.204 181.183 160.665 181.884C159.702 182.147 158.958 181.271 157.995 181.578C158.432 181.446 154.843 184.337 155.456 183.812C155.368 184.469 155.018 186.133 154.668 186.746C154.098 187.798 152.829 188.63 152.304 190.119C150.903 194.105 150.684 192.572 154.93 194.806C159.045 196.953 156.156 196.865 162.416 195.551C166.531 194.719 169.727 196.734 173.624 196.427C175.112 196.296 183.561 193.886 184.349 192.747C185.531 191.258 185.05 183.067 185.006 181.052Z" fill="#EB421B"/>
<path d="M188.727 134.752C187.895 135.584 188.683 136.767 188.114 137.643C187.238 137.424 187.457 136.723 187.413 136.154C187.326 135.19 186.8 134.402 185.881 134.358C184.787 134.27 184.218 135.103 184.13 136.154C184.086 136.767 184.261 137.556 183.167 137.074C182.729 136.899 182.423 136.68 182.685 136.154C182.642 134.796 182.992 133.351 181.722 132.343C183.036 130.985 184.568 131.292 185.881 132.08C186.932 132.781 187.764 133.876 188.727 134.752Z" fill="#F05C2C"/>
<path d="M113.034 195.244C112.947 195.463 112.815 195.726 112.728 195.945C112.421 196.12 111.94 195.945 111.677 196.296C110.933 196.077 110.714 195.332 110.276 194.806C110.232 192.003 110.232 189.156 110.188 186.352C110.495 186.352 110.845 186.352 111.152 186.352C113.516 188.937 113.516 192.003 113.034 195.244Z" fill="#EB421C"/>
<path d="M109.751 177.811C110.451 177.46 111.195 177.022 111.808 177.898C112.421 178.774 111.852 179.344 111.108 179.738C109.97 180.351 110.232 181.446 110.232 182.41C110.189 183.724 110.232 185.038 110.232 186.352C109.313 183.549 109.926 180.658 109.751 177.811Z" fill="#EB421C"/>
<path d="M199.891 177.592C200.022 177.679 202.342 178.292 202.43 178.336C203.393 177.635 203.524 177.197 204.794 176.628C204.794 176.54 204.794 176.453 204.75 176.365C204.881 176.409 205.057 176.453 205.188 176.453C206.457 175.927 207.815 175.445 209.259 175.095C209.566 174.92 209.916 174.744 210.222 174.569C210.354 174.657 210.529 174.701 210.66 174.744C211.229 174.613 211.798 174.525 212.368 174.438C212.543 174.306 212.762 174.219 212.937 174.044C213.068 174 213.243 173.956 213.374 173.912C213.593 174.044 213.812 174.131 214.031 174.175C215.476 174 216.964 173.912 218.497 173.912C219.985 173.912 219.197 173.825 220.554 174C220.204 172.773 221.342 172.379 220.467 171.634C221.211 170.496 220.029 170.277 219.503 169.707C219.153 169.795 218.672 169.532 218.497 170.101C217.358 170.058 216.745 169.181 216.045 168.437C214.425 166.772 212.893 165.108 211.273 163.443C211.054 163.662 210.835 163.881 210.616 164.1C212.63 165.984 214.6 167.867 216.57 169.707C214.688 170.758 213.9 169.532 212.805 168.656C211.317 167.429 210.529 165.414 208.559 164.714C208.69 164.538 208.778 164.363 208.865 164.188C208.997 161.56 208.953 158.932 207.639 156.522C206.633 154.902 205.232 153.588 203.875 152.273C202.561 153.894 203.918 156.172 202.605 157.968C201.511 156.873 201.335 155.602 201.248 154.288C201.16 152.624 201.292 151.003 201.16 149.339C200.022 148.2 198.928 147.061 197.789 145.922C196.782 146.842 197.045 148.068 197.089 149.207C197.176 151.178 196.87 152.887 194.988 153.938C194.112 158.888 195.294 163.969 193.893 168.875C194.243 169.444 194.594 170.058 194.944 170.627C195.557 171.722 196.52 172.642 196.87 173.912C196.958 174.394 197.264 174.744 197.702 174.963C198.84 176.102 198.752 176.453 199.891 177.592Z" fill="#E83615"/>
<path d="M195.075 191.477L158.082 223.234L139.038 225.293L105.723 207.684L116.055 232.433L105.198 239.661L103.14 247.107L108.481 250.217L115.748 251.794L116.624 256.963L136.105 257.489L150.246 247.983L173.886 261.606L192.185 250.042L189.953 246.1L191.529 243.34L192.404 235.368L195.075 191.477Z" fill="white"/>
<path d="M143.023 221.088C142.979 221.964 146.393 221.439 143.942 223.366C143.504 223.716 144.467 224.286 144.905 224.461C147.138 225.337 145.518 225.863 144.774 226.476C145.868 227.878 145.737 229.542 144.993 230.9C143.592 233.353 142.016 235.675 139.039 236.507C137.112 237.47 134.967 236.813 132.953 237.12C128.97 238.828 125.073 237.339 121.265 236.594C119.776 236.288 117.894 236.375 116.799 234.842C115.924 234.273 114.917 234.01 114.348 232.959C112.947 230.593 111.021 230.462 108.875 231.995C100.733 228.797 92.371 226.125 84.4471 222.49C84.7973 220.124 86.242 218.241 86.8987 216.051C87.2927 214.78 87.5553 213.685 86.7673 212.459C85.4102 210.313 85.8042 208.473 87.818 206.808C89.4378 205.494 90.2696 203.523 90.576 201.464C90.7512 200.282 90.8387 199.011 89.5254 198.398C88.212 197.785 87.3802 198.792 86.636 199.756C85.848 200.851 85.2351 202.078 84.8411 203.392C84.3595 204.881 83.4402 206.195 82.2144 207.159C81.689 207.597 81.1199 208.122 80.4195 207.684C79.719 207.203 79.7628 206.502 79.8503 205.801C79.9379 204.487 80.7259 203.435 81.3826 202.384C82.0393 201.289 83.2651 200.763 82.8273 200.019C82.083 198.749 81.2513 197.303 79.5877 196.865C78.537 196.602 77.5301 196.208 76.8296 195.332C76.3919 194.806 75.9103 194.237 76.4356 193.492C76.567 193.361 76.7421 193.273 76.9172 193.229C79.5877 193.01 80.901 192.353 83.0899 190.207C83.2213 190.076 83.4402 189.988 83.6153 189.988C83.7904 189.988 84.0093 189.988 84.1844 190.119L85.1475 190.864C85.848 191.74 85.1913 192.528 85.0162 193.317C84.8411 194.105 84.666 194.938 85.4978 195.419C86.2858 195.901 87.1613 195.419 87.7742 194.762C88.3871 194.105 89.3065 192.748 90.4009 192.09C99.2442 195.025 108.131 197.653 116.405 202.078L119.207 203.567C120.083 205.1 118.857 206.064 118.156 207.246C118.156 207.422 118.2 207.29 118.375 207.071C119.207 205.845 120.214 204.312 121.834 205.275C123.454 206.239 122.709 207.903 122.228 209.261C121.352 211.846 119.951 214.211 118.55 216.752C119.995 214.43 121.133 212.152 122.928 210.356C123.848 209.436 124.767 207.991 126.343 208.911C127.919 209.875 127.437 211.408 126.737 212.809C126.518 213.247 126.387 213.729 126.255 213.817C126.956 212.809 127.306 211.189 128.138 209.831C128.532 209.174 128.532 207.991 129.801 208.298C134.967 211.583 140.002 215.262 143.023 221.088Z" fill="#E9401A"/>
<path d="M76.1295 193.58C77.0051 194.938 78.012 195.945 79.8069 195.989C81.6456 196.033 81.6456 198.179 82.74 198.88C85.4105 200.632 82.4774 201.07 82.1271 201.99C81.4705 203.698 79.588 205.012 80.5073 207.378C82.346 206.151 83.7469 204.706 84.1409 202.603C84.4474 201.026 85.4981 199.8 86.2861 198.486C87.0741 197.172 88.2123 196.821 89.5694 197.259C90.9266 197.697 91.3644 198.836 91.3206 200.238C91.233 203.129 90.2261 205.801 87.9934 207.422C85.7607 209.042 86.1985 210.619 87.4681 212.24C88.3437 213.379 88.3874 214.255 87.7308 215.394C86.4612 217.628 86.3299 220.475 84.2285 222.315L83.6594 222.402C79.194 220.081 74.641 217.89 70.7885 214.649C70.3945 212.634 72.6272 211.495 72.4959 209.568C71.6641 208.955 71.2701 209.743 70.7885 210.094C67.9429 212.152 67.4176 212.108 64.966 209.393C61.1573 205.144 61.1135 205.144 65.6665 201.289C67.4176 199.8 68.4683 197.829 69.7379 195.989C71.6641 193.317 73.5028 192.616 76.1295 193.58Z" fill="#E43212"/>
<path d="M76.1291 193.58C73.1084 193.273 71.1384 194.631 69.8688 197.303C68.5992 199.931 66.5416 201.727 64.2652 203.479C62.7767 204.618 61.2007 206.195 64.3527 207.465C64.703 207.597 64.9656 207.947 65.1845 208.254C67.8988 211.408 67.8988 211.451 71.2259 208.736C71.8826 208.21 72.4079 207.772 73.2397 208.429C74.0277 209.086 73.8526 209.831 73.4586 210.532C72.6268 211.933 71.7075 213.335 70.8319 214.737C66.5416 212.24 62.3389 209.612 58.7929 206.107C55.6408 202.997 54.1086 195.639 55.8597 191.784C58.3113 186.352 61.6823 184.118 67.9863 184.863C73.5462 185.564 79.0185 187.053 83.9217 190.076C83.1774 190.382 82.5645 190.908 82.5645 191.784C82.6521 194.675 81.1198 194.938 78.9309 194.149C78.0554 193.711 77.0922 193.536 76.1291 193.58Z" fill="#E9411A"/>
<path d="M243.187 203.523C241.13 203.216 240.604 201.421 239.86 199.975C239.379 199.844 239.291 200.106 239.16 200.369C238.809 201.114 239.86 202.735 238.197 202.516C236.971 202.34 237.715 201.07 237.934 200.325C238.634 197.829 235.482 198.398 235.001 196.602C234.738 195.639 235.57 192.923 232.505 193.799C231.63 194.062 230.754 192.572 230.316 191.433C229.879 190.251 229.835 188.805 228.259 187.666C228.434 189.594 228.784 191.171 228.215 192.747C227.602 194.368 227.121 194.149 226.201 193.229C223.356 190.251 222.305 186.396 220.992 182.673C220.773 182.016 220.773 181.008 221.823 180.789C222.874 180.526 223.356 180.964 223.793 181.709L227.34 187.579C226.77 183.374 224.056 181.052 223.312 177.854C229.222 176.497 233.337 179.169 237.102 183.374C240.867 187.579 244.15 192.441 244.194 198.573C244.238 200.282 244.369 202.078 243.187 203.523Z" fill="#E73715"/>
<path d="M129.582 208.21L125.38 215.569L124.898 215.35C125.423 214.167 126.036 212.985 126.43 211.714C126.693 210.882 126.737 209.875 125.949 209.305C125.117 208.692 124.373 209.612 123.804 210.181C121.177 212.547 119.951 215.919 117.149 218.986C117.587 215.919 119.119 213.992 120.039 211.889C120.739 210.269 121.615 208.736 121.79 206.984C121.834 206.414 121.877 205.801 121.177 205.538C120.477 205.275 120.214 205.538 119.864 205.932C118.857 206.984 117.937 208.035 116.493 209.568L118.944 203.523C122.753 204.574 126.474 205.713 129.582 208.21Z" fill="#EF5929"/>
<path d="M160.971 214.562C162.504 217.058 162.723 219.993 163.598 222.709C164.036 224.067 163.117 224.111 162.197 224.067C159.177 223.979 156.243 223.454 153.354 222.84C155.368 219.643 158.082 217.058 160.971 214.562Z" fill="#E63715"/>
<path d="M90.1819 191.959C90.0067 193.405 88.7372 194.237 87.9929 195.332C87.2487 196.427 86.0229 196.953 84.8847 196.296C83.7464 195.595 83.4838 194.281 84.0967 192.923C84.4031 192.222 84.6658 191.477 84.9285 190.776C86.8547 190.514 88.5183 191.346 90.1819 191.959Z" fill="#E43212"/>
<path d="M197.001 232.345C194.374 231.075 194.418 228.184 193.367 226.038C191.485 222.315 189.909 218.46 187.72 214.912C187.413 214.518 187.195 214.08 187.107 213.598C186.844 212.371 185.662 211.013 187.063 209.831C188.42 208.648 189.165 210.707 190.741 210.751C189.865 208.911 189.077 207.29 188.377 205.669C188.026 204.881 187.676 204.092 187.413 203.26C186.932 201.859 186.363 200.194 187.807 199.274C189.69 198.179 190.04 200.501 191.091 201.289C194.243 205.932 196.782 210.97 199.19 216.007C201.204 220.256 203.261 224.549 204.006 229.323C201.904 230.944 199.453 231.645 197.001 232.345Z" fill="#E73815"/>
<path d="M205.713 217.628L205.1 215.876C204.75 214.036 205.013 212.284 205.713 210.444C204.969 210.926 204.137 211.364 203.349 210.619C202.167 210.006 201.904 208.867 201.554 207.728C200.066 203.436 198.49 199.143 197.045 194.806C196.695 193.799 195.819 192.572 197.526 191.828C198.927 191.039 199.934 191.784 200.854 192.704C201.817 193.624 202.561 195.025 203.261 196.296C204.443 198.573 205.407 200.851 207.42 202.778C209.434 204.706 209.828 207.991 210.572 210.794C211.754 215.306 213.593 219.862 211.579 224.636L209.259 225.906C207.858 223.278 206.807 220.431 205.713 217.628Z" fill="#E63715"/>
<path d="M225.676 217.102C223.225 214.474 222.48 210.97 221.123 207.772C220.423 206.107 221.036 204.662 223.268 204.75C226.289 207.071 226.771 210.663 227.909 213.904C228.128 214.561 228.303 215.175 228.522 215.832C227.734 216.576 226.902 217.233 225.676 217.102Z" fill="#E63715"/>
<path d="M230.097 212.459C227.427 207.684 226.026 202.428 224.231 197.259C223.705 195.726 222.961 194.456 221.473 193.711C217.883 191.214 217.226 187.053 215.65 183.374C215.037 182.06 214.687 180.57 213.199 179.869C211.272 180.439 209.084 180.658 207.42 181.709C200.941 185.695 194.593 189.857 188.902 194.894C184.349 198.88 179.883 202.954 174.586 205.888C175.724 209.699 177.125 213.466 178.351 217.277C178.439 217.759 178.701 218.197 179.008 218.591C179.971 219.599 181.197 220.037 182.423 219.336C183.648 218.635 183.167 217.496 182.729 216.489C182.072 214.956 181.197 213.554 180.584 211.977C180.234 211.145 179.358 209.918 180.496 209.393C181.634 208.867 182.072 210.225 182.598 211.013C185.925 216.226 188.77 221.658 190.872 227.44C191.091 228.14 191.572 228.885 191.047 229.761C188.989 229.411 187.501 228.316 186.844 226.257C186.319 224.68 185.662 223.147 184.787 221.745C184.349 221.088 183.867 220.256 182.948 220.65C182.028 221.044 182.423 221.833 182.466 222.49C182.598 224.33 183.429 226.038 183.517 228.009C181.678 228.009 180.803 227.045 180.321 225.687C178.307 220.212 175.637 214.956 174.105 209.305C173.886 208.385 173.711 207.378 172.923 206.677L167.669 210.006C171.478 212.722 172.222 216.795 172.397 221.044C172.441 221.92 173.098 223.585 171.872 223.454C170.252 223.278 167.976 224.636 166.969 222.183C166.181 220.124 165.218 218.153 164.605 215.744C166.093 216.138 167.801 217.409 167.932 215.043C168.019 213.51 168.282 211.714 166.969 210.356C164.561 211.189 162.766 212.809 161.015 214.562C161.059 216.708 161.715 218.723 162.284 220.738C162.941 223.103 162.678 223.366 160.139 223.147C157.6 222.928 155.63 222.008 153.31 222.796C152.522 222.84 151.559 223.366 151.033 222.227C149.676 220.782 144.116 220.957 143.022 221.001C142.803 222.096 143.504 222.052 144.204 221.964C143.941 222.49 143.241 222.796 143.328 223.541C143.372 223.804 143.46 224.023 143.591 224.198C143.722 224.417 143.941 224.549 144.16 224.68C144.904 225.074 153.704 228.184 158.126 228.359C160.358 228.447 162.547 229.148 164.78 229.148C170.34 229.148 175.637 229.717 180.234 233.265C181.109 233.922 182.247 233.879 183.342 233.966C184.699 234.098 186.056 234.273 187.369 234.536C189.646 234.974 191.441 236.507 191.222 238.609C191.047 240.274 188.727 240.931 186.932 240.975C185.181 241.019 183.342 241.5 182.029 243.077C180.715 244.61 181.022 245.749 182.904 246.319C185.224 247.02 187.588 247.545 189.821 248.903C188.595 250.086 186.713 250.611 186.844 252.714C186.888 253.283 186.275 253.502 185.793 253.459C183.911 253.327 182.291 253.546 181.372 255.474C181.284 255.649 180.803 255.824 180.584 255.736C177.957 254.86 176.075 254.904 175.593 258.408C175.418 259.503 173.886 258.671 173.098 258.233C170.953 257.051 169.201 255.342 167.013 254.203C157.732 249.297 149.02 243.384 140.001 238.084C139.345 237.69 138.425 237.471 138.907 236.419L138.994 236.332L138.644 236.113C136.805 236.069 134.967 235.937 133.216 236.594C133.041 236.682 132.953 236.857 132.865 237.032C135.186 237.777 135.58 240.318 137.287 241.763C140.22 244.26 143.591 246.231 147.137 247.677C144.642 249.604 142.54 251.619 140.133 253.021C137.331 254.685 133.697 254.203 130.939 256.262C130.501 256.569 130.107 256.087 129.757 255.693C128.619 254.247 127.349 254.203 125.992 255.43C125.511 255.912 124.766 256.569 124.241 255.999C122.315 254.028 119.907 254.422 117.061 254.466C118.769 252.626 120.213 251.181 121.527 249.692C123.541 247.326 122.796 243.953 120.038 242.595C119.031 242.114 118.375 242.508 117.806 243.296C115.529 246.319 112.29 247.501 108.744 247.896C107.343 248.071 105.416 248.421 104.891 246.713C104.585 245.837 104.585 244.873 104.935 243.953C105.241 243.077 105.854 242.333 106.686 241.807C109.225 240.186 111.808 238.653 114.478 237.164C115.573 236.551 116.405 235.85 116.711 234.623H116.843C116.843 234.536 116.799 234.404 116.755 234.317C115.923 233.265 115.091 232.17 114.084 231.294C112.027 229.498 110.538 229.674 108.744 231.732L112.64 233.747C110.801 234.448 109.269 234.974 107.78 235.631C103.315 237.602 99.9879 240.405 100.075 245.881C100.163 249.867 102.045 252.013 106.073 252.188C108.568 252.276 111.064 252.276 113.603 251.663C112.596 255.824 113.034 257.839 115.529 258.233C118.419 258.671 121.177 259.153 123.891 260.292C125.292 260.861 126.736 259.591 128.181 260.204C130.545 261.299 132.734 260.555 134.879 259.503C135.842 259.022 136.674 258.321 137.856 258.408C140.483 258.584 142.54 257.401 144.51 255.78C146.437 254.16 148.232 252.933 150.07 251.488C150.727 250.962 151.209 250.655 152.084 251.269C157.994 255.211 164.736 257.751 170.471 262C173.798 264.453 177.257 263.884 180.321 261.168C180.715 260.73 181.24 260.467 181.766 260.38C184.48 259.854 186.538 257.795 189.252 257.051C191.222 256.481 191.397 253.94 192.842 252.583C194.899 250.655 194.768 248.071 193.28 245.925C192.448 244.742 192.404 244.435 193.542 243.559C196.738 241.15 197.438 238.872 195.512 235.456C194.199 233.178 195.25 232.74 196.957 232.17C193.98 226.038 191.572 219.686 188.07 213.861C187.763 213.335 187.545 212.809 187.457 212.196C187.194 211.013 187.369 210.181 188.902 210.751C191.528 211.67 190.916 209.918 190.522 208.604C190.127 207.334 189.033 205.669 188.464 204.093C187.895 202.559 187.019 201.333 188.157 200.282C189.296 199.23 189.909 201.508 191.134 201.245C193.761 198.179 193.717 198.179 195.687 202.034C199.19 208.911 202.429 215.832 204.749 223.147C205.231 224.592 205.581 226.213 207.376 226.739L208.033 226.388C209.127 225.381 208.733 224.33 208.208 223.235C207.376 221.395 206.719 219.424 206.282 217.453C206.063 216.752 205.8 216.095 205.494 215.438C204.574 213.817 204.224 212.021 203.655 210.269C200.853 205.1 199.803 199.274 197.614 193.843C197.395 193.273 197.57 192.704 197.92 192.178C198.664 191.346 199.54 191.302 200.547 191.696C201.554 192.134 201.991 191.828 202.648 191.171C204.837 188.893 205.319 189.024 206.763 192.003C208.033 194.631 208.69 197.478 210.047 200.106C210.528 200.807 211.141 201.464 211.71 202.121C212.279 202.822 212.498 205.231 214.162 204.969C215.519 204.75 215.388 202.735 216.044 201.596C216.263 199.712 214.994 198.048 215.212 196.164C215.256 195.595 215.3 194.938 215.957 194.719C216.613 194.5 217.095 194.938 217.445 195.376C218.89 196.953 219.328 198.968 219.941 200.895C220.597 202.822 221.035 204.224 222.786 205.056C225.194 207.027 225.807 209.962 226.814 212.634C227.208 213.685 227.12 215 228.477 215.525L229.134 215.131C230.141 214.605 230.885 213.817 230.097 212.459Z" fill="#EF5929"/>
<path d="M215.694 201.815C216.176 201.859 216.701 201.815 217.139 202.034C219.634 203.435 221.429 211.539 219.766 213.992C219.678 214.123 219.416 214.08 219.24 214.167L217.752 212.415C218.277 214.956 218.934 216.62 218.628 218.372C218.54 218.942 218.671 219.599 217.971 219.862C217.27 220.124 216.833 219.73 216.439 219.292C214.994 217.759 213.111 216.533 212.323 214.43C210.966 210.794 209.609 207.115 208.34 203.479C207.683 201.596 208.558 200.501 210.441 200.106C212.499 201.07 212.98 203.216 214.162 205.407C214.6 203.83 214.469 202.472 215.694 201.815Z" fill="#E63715"/>
<path d="M215.125 183.636C216.964 181.841 218.453 182.498 219.547 184.381C220.598 186.265 222.218 188.63 222.655 191.127C222.874 192.529 222.962 193.93 220.992 194.149C217.227 191.652 216.57 187.404 215.125 183.636Z" fill="#E73715"/>
<path d="M100.82 196.164C101.521 199.668 97.318 206.458 91.1014 212.678C90.7074 211.539 90.7512 210.663 91.4079 209.699C94.4286 205.363 97.4493 201.026 100.82 196.164Z" fill="#E43212"/>
<path d="M65.4912 196.953C66.9797 195.507 67.899 193.974 67.4175 191.74C67.1986 190.82 67.9428 190.032 69.081 190.207C70.2193 190.382 70.4819 191.39 70.263 192.222C69.6064 194.719 67.8115 196.077 65.4912 196.953Z" fill="#E43212"/>
<path d="M229.222 215.394C229.266 214.605 230.404 214.211 229.703 213.072C226.683 208.254 225.326 202.735 223.574 197.391C223.093 195.901 222.305 194.894 220.991 194.149C222.305 191.433 220.466 185.257 217.971 183.812C217.008 183.286 216.044 184.031 215.125 183.593L213.243 179.826C216.351 177.811 219.941 178.293 223.312 177.767C225.326 179.869 226.42 182.454 227.514 185.082C227.733 185.695 228.04 186.571 227.339 186.966C226.639 187.36 225.938 186.571 225.544 185.958C224.844 184.907 224.362 183.724 223.574 182.717C223.224 182.279 222.83 181.665 222.173 182.103C221.517 182.541 221.736 183.023 221.955 183.418C223.137 186.221 224.056 189.112 225.763 191.609C226.026 192.003 226.42 192.441 226.945 192.353C227.471 192.266 227.646 191.521 227.733 190.952C227.777 190.776 227.733 190.557 227.777 190.382C227.908 189.419 226.989 187.929 228.434 187.579C229.878 187.228 230.141 188.849 230.579 189.9C231.192 191.346 231.63 192.923 233.643 192.879C234.037 192.879 234.563 193.098 234.607 193.448C235.044 196.164 238.153 197.259 238.547 199.931C238.547 200.106 238.547 200.282 238.503 200.413C239.553 198.398 240.385 199.493 241.086 200.676C241.786 201.859 242.662 202.384 243.231 203.436C241.173 206.765 237.89 208.692 235.132 211.276C232.943 212.415 231.498 214.518 229.222 215.394Z" fill="#EC4D21"/>
<path d="M174.587 205.888C176.6 207.465 176.469 210.05 177.388 212.108C178.089 213.817 178.702 215.569 179.139 217.365C179.577 219.117 181.066 219.248 182.073 218.898C183.517 218.416 182.335 217.277 181.985 216.489C181.197 214.605 180.234 212.809 179.358 210.926C178.921 209.962 178.57 208.867 179.84 208.122C181.066 207.378 181.854 208.56 182.379 209.305C185.662 214.036 188.289 219.117 190.478 224.461C191.135 225.994 191.704 227.527 192.142 229.104C192.492 230.287 192.142 230.944 190.653 230.506C188.377 229.849 186.582 228.841 185.969 226.257C185.487 224.33 184.568 222.49 182.904 220.3C183.167 223.103 183.605 225.074 184.305 227.045C184.524 227.702 184.787 228.403 184.218 228.973C183.649 229.542 182.948 229.104 182.335 228.797C181.153 228.272 179.971 227.79 179.577 226.388C177.914 220.694 174.805 215.569 173.405 209.787C173.186 208.736 172.66 207.772 172.835 206.677L174.587 205.888Z" fill="#E73A16"/>
<path d="M167.626 210.006C169.246 209.787 170.296 210.794 170.865 212.021C172.573 215.569 173.361 219.38 173.448 223.366C173.448 223.673 173.361 223.935 173.229 224.198C172.485 225.293 166.969 224.417 166.444 223.147C165.568 221.001 164.78 218.81 163.861 216.664C163.554 215.876 163.335 215.087 164.123 214.561C164.911 214.036 165.481 214.737 165.875 215.394C166.312 216.051 166.356 216.357 166.969 216.007C167.582 215.657 167.494 215.219 167.275 214.737C166.706 213.335 167.1 211.846 166.881 210.4L167.626 210.006Z" fill="#E73B17"/>
<path d="M211.58 224.68C211.229 223.979 210.879 223.278 211.054 222.446C212.63 215.569 209.04 209.743 207.377 203.523C203.481 201.64 203.524 197.172 201.248 194.281C200.329 193.098 199.409 191.652 197.483 191.871C197.789 191.652 198.096 191.171 198.402 191.171C200.547 191.083 202.561 191.565 203.831 188.718C204.312 187.579 206.195 189.462 206.764 190.601C208.34 193.624 209.566 196.821 210.398 200.106C208.953 201.64 208.734 203.304 209.61 205.188C211.01 208.298 211.711 211.714 213.331 214.737C214.206 216.401 215.607 217.584 217.271 218.898C218.234 217.452 217.752 216.138 217.533 214.868C217.402 214.211 216.964 213.466 217.665 212.985C218.365 212.503 219.109 213.16 219.722 213.598C221.736 214.868 223.487 216.27 223.4 218.986C219.635 221.132 215.651 222.972 211.58 224.68Z" fill="#EC4D22"/>
<path d="M203.962 229.279C201.86 226.388 201.423 222.84 200.109 219.643C197.833 214.167 194.506 209.305 192.185 203.917C191.791 203.041 191.485 202.121 191.091 201.245C192.317 200.413 190.959 197.872 193.061 197.872C195.206 197.872 195.381 199.975 196.125 201.377C199.89 208.604 203.349 215.919 205.713 223.76C206.107 224.987 206.851 225.994 207.508 227.045C206.457 227.965 205.319 228.841 203.962 229.279Z" fill="#EC4C21"/>
<path d="M223.4 218.854C222.305 216.971 221.517 214.868 219.197 214.123C220.116 209.393 219.416 205.188 215.651 201.815C215.301 199.931 214.206 198.179 214.469 196.12C214.557 195.157 214.425 194.018 215.651 193.755C216.877 193.492 217.446 194.193 218.103 194.981C219.766 196.909 220.16 199.362 220.948 201.64C221.386 202.997 221.955 204.093 223.268 204.706C221.736 205.932 221.736 207.334 222.349 209.13C223.312 211.846 225.063 214.211 225.632 217.102C225.457 218.372 224.1 218.153 223.4 218.854Z" fill="#EC4D21"/>
<path d="M205.713 217.628C207.157 220.256 208.734 222.884 209.259 225.95L208.077 226.651C208.777 224.549 206.895 223.103 206.588 221.263C206.413 220.037 205.669 218.942 205.713 217.628Z" fill="#EC4C21"/>
<path d="M203.349 210.619C205.056 210.97 205.538 209.568 206.807 208.648C206.238 211.057 205.669 213.466 205.1 215.876C203.83 214.386 203.392 212.547 203.349 210.619Z" fill="#EC4C21"/>
<path d="M141.534 189.462C142.016 189.506 142.541 189.462 142.979 189.681C145.474 191.083 147.269 199.187 145.606 201.64C145.518 201.771 145.255 201.727 145.08 201.815L143.592 200.063C144.117 202.603 144.774 204.268 144.467 206.02C144.38 206.589 144.511 207.246 143.811 207.509C143.11 207.772 142.672 207.378 142.278 206.94C140.834 205.407 138.951 204.18 138.163 202.078C136.806 198.442 135.449 194.762 134.179 191.127C133.523 189.243 134.398 188.148 136.281 187.754C138.338 188.718 138.82 190.864 140.002 193.054C140.484 191.477 140.308 190.119 141.534 189.462Z" fill="#E63715"/>
<path d="M173.273 190.645C172.66 190.601 171.96 190.776 171.391 190.514C167.976 188.893 164.736 178.292 166.575 174.832C166.663 174.657 167.013 174.657 167.275 174.569L169.421 176.759C168.458 173.43 167.407 171.24 167.582 168.875C167.626 168.13 167.363 167.254 168.239 166.816C169.114 166.378 169.727 166.86 170.296 167.429C172.398 169.313 174.98 170.758 176.25 173.474C178.439 178.205 180.584 182.936 182.685 187.71C183.736 190.163 182.729 191.74 180.321 192.441C177.563 191.346 176.644 188.542 174.849 185.739C174.455 187.798 174.805 189.594 173.273 190.645Z" fill="#E63715"/>
<path d="M144.336 177.46C146.831 179.431 146.612 182.585 147.794 185.126C148.67 187.228 149.414 189.375 149.94 191.609C150.465 193.755 152.304 193.93 153.529 193.492C155.324 192.879 153.836 191.477 153.398 190.514C152.391 188.236 151.209 185.958 150.202 183.68C149.677 182.454 149.239 181.14 150.771 180.22C152.304 179.3 153.267 180.746 153.923 181.709C157.951 187.535 161.191 193.799 163.949 200.369C164.78 202.253 165.437 204.136 166.006 206.107C166.444 207.553 165.962 208.341 164.167 207.816C161.366 207.027 159.177 205.757 158.389 202.603C157.82 200.194 156.681 198.004 154.624 195.244C154.93 198.661 155.456 201.158 156.375 203.567C156.638 204.399 156.988 205.231 156.287 205.932C155.587 206.633 154.711 206.064 154.011 205.713C152.566 205.056 151.078 204.443 150.596 202.735C148.582 195.726 144.73 189.375 143.023 182.279C142.716 181.008 142.103 179.782 142.322 178.424L144.336 177.46Z" fill="#E73A16"/>
<path d="M161.628 203.523C162.854 206.02 165.437 205.494 167.407 205.976C168.37 206.195 170.077 205.144 168.852 203.304C168.589 202.91 168.545 202.428 168.414 201.99C168.939 200.982 168.326 200.15 167.888 199.362C167.057 197.741 166.094 196.164 165.349 194.543C166.444 196.69 167.582 198.836 168.983 200.851C169.464 201.552 169.946 202.34 170.953 202.34C171.653 202.516 172.222 202.822 172.66 203.392C174.105 203.085 174.63 201.377 176.25 201.245C176.819 201.202 176.688 200.194 176.557 199.581C176.119 197.697 175.55 195.814 174.63 194.105C173.667 192.266 172.66 190.426 171.741 188.542C171.128 187.272 169.421 186.133 168.895 186.527C167.188 187.842 165.481 186.265 163.905 187.053C162.941 187.185 162.723 188.061 162.547 188.761C161.584 192.047 160.359 195.288 159.308 198.53C159.045 199.318 158.695 200.15 159.308 200.983C160.402 201.508 161.103 202.472 161.628 203.523Z" fill="#E42B10"/>
<path d="M161.453 160.946C161.366 161.428 161.322 161.91 161.234 162.436C161.234 162.523 161.147 163.093 161.191 162.83C161.147 163.137 161.059 163.487 161.016 163.794C160.84 164.801 160.622 165.809 160.359 166.816C159.877 168.787 159.352 170.758 158.651 172.642C157.951 174.525 156.813 176.146 155.762 177.855C154.624 179.65 153.529 181.446 152.479 183.286C151.297 185.345 150.115 187.491 149.02 189.594C148.495 190.645 148.495 192.047 148.582 193.186C148.626 193.755 148.67 194.368 148.889 194.938C148.933 195.069 149.195 195.595 149.37 195.244C151.428 191.302 154.274 187.754 156.638 183.987C157.776 182.191 158.827 180.658 159.615 178.687C160.446 176.628 161.541 174.263 162.11 172.072C162.767 169.532 163.511 167.298 163.861 164.714C164.036 163.487 162.854 161.122 162.373 159.939C161.847 158.8 161.497 160.596 161.453 160.946Z" fill="#090706"/>
<path d="M144.817 172.16C147.707 168.218 150.421 164.144 152.785 159.851C153.879 158.406 155.018 157.004 156.112 155.559C158.607 155.515 158.17 156.917 157.469 158.406C156.856 160.771 155.149 162.567 154.054 164.714C152.566 167.123 150.902 169.444 149.37 171.853C147.75 174.131 146.306 176.54 144.598 178.774C144.204 179.256 143.854 179.826 143.197 180.045C141.052 182.41 139.564 185.389 136.324 186.966C136.543 185.082 137.244 183.549 138.163 182.147C140.352 178.774 142.628 175.489 144.817 172.16Z" fill="#010000"/>
<path d="M121.264 187.272C121.527 187.316 125.16 189.243 125.423 189.287C125.992 191.258 128.488 192.835 129.232 194.806C129.932 196.646 130.151 198.661 126.824 199.274C124.022 199.756 121.001 200.413 117.893 200.369C116.361 200.369 115.31 199.625 115.091 198.792C114.479 196.164 112.99 193.58 113.34 190.908" fill="#E4290F"/>
<path d="M139.87 192.003C141.578 197.128 140.746 202.516 141.534 207.728C141.665 208.517 141.621 209.393 140.439 209.524C140.439 207.334 140.089 205.231 138.513 202.91C137.944 205.056 138.776 207.203 136.981 208.692C134.048 205.888 135.273 201.727 133.654 198.179C132.778 200.457 134.179 202.209 133.873 204.093C133.741 205.012 133.741 206.064 132.559 206.151C131.377 206.239 130.896 205.45 130.633 204.531C130.239 203.129 129.845 201.683 129.757 200.282C129.582 196.296 127.7 192.835 126.868 189.024C126.299 186.396 127.7 184.556 130.283 184.688C130.939 184.732 131.202 184.294 131.684 183.987C133.741 182.673 135.098 183.286 135.449 185.695C135.886 188.937 136.762 192.134 136.937 195.463C138.163 193.974 137.419 192.485 137.2 190.952C137.068 190.295 136.806 189.375 137.594 188.98C138.382 188.586 138.644 189.506 139.213 189.769C139.958 190.382 139.17 191.433 139.87 192.003Z" fill="#E2290E"/>
</svg>
