<svg width="339" height="310" viewBox="0 0 339 310" fill="none" xmlns="http://www.w3.org/2000/svg">
<g clip-path="url(#clip0_12988_1244)">
<circle cx="51" cy="77" r="45" fill="white"/>
<circle cx="282" cy="58" r="45" fill="white"/>
<path fill-rule="evenodd" clip-rule="evenodd" d="M166.862 264.682L153.384 266.973L143.973 268.453C143.973 268.453 135.821 269.756 135.287 270.585C134.752 271.395 127.841 273.703 127.841 273.703L126.601 275.835V279.112L131.755 281.403L130.514 284.521L127.86 285.825L128.739 291.058L132.824 294.335L140.269 296.96L145.595 297.947L165.468 286.318L175.223 293.19L186.926 295.815L195.975 294.67L197.215 292.538L194.371 287.305L203.42 288.45L206.971 286.16L208.574 282.883L205.921 278.302L199.716 275.359C199.716 275.359 193.856 272.417 192.08 272.417C190.305 272.417 181.084 270.778 179.481 270.778C178.049 270.743 166.862 264.682 166.862 264.682Z" fill="white"/>
<path d="M96.9534 214.75C97.6598 214.909 99.7979 213.94 103.52 211.966C109.916 208.689 114.345 205.588 116.826 203.28C119.136 200.831 122.324 192.797 125.341 180.851C125.875 178.561 126.753 175.936 127.288 175.125C127.651 174.315 128.166 172.676 128.357 171.69C128.72 169.558 129.063 169.241 129.961 170.703C132.27 174.967 139.887 182.49 142.56 183.142C143.095 183.301 145.214 183.952 147.352 184.622C156.038 187.564 164.037 188.216 172.188 186.912C174.67 186.578 176.083 186.419 176.083 186.754C176.083 186.912 178.736 189.538 181.943 192.48C187.613 197.713 193.474 201.818 201.454 206.399L204.47 206.892C204.642 206.24 207.486 212.953 206.78 220.159C206.417 223.278 205.902 227.365 205.902 229.004C205.367 235.382 204.833 238.835 203.954 238.994C203.592 239.152 201.11 240.139 198.628 241.284C195.975 242.43 192.061 243.909 189.942 244.72C187.804 245.53 185.151 246.517 184.272 247.01C183.394 247.504 182.497 247.997 182.325 247.997C182.153 247.997 181.962 248.156 181.962 248.332C181.962 248.508 181.256 248.984 180.55 249.318C179.843 249.653 178.412 250.798 177.362 251.609C176.293 252.596 175.415 253.406 175.224 253.406C174.861 253.406 171.501 257.828 170.432 259.626C169.363 261.423 169.554 261.916 170.795 261.757C171.673 261.599 172.398 261.106 173.276 259.784C173.983 258.797 175.224 257.159 176.293 256.348C177.171 255.538 178.946 254.058 180.015 253.071C182.497 250.781 187.46 247.839 191.909 246.2C193.856 245.389 198.113 243.575 201.32 242.112C204.527 240.65 209.662 238.518 213.022 237.531C216.21 236.545 220.124 235.241 221.365 234.748C223.14 234.096 224.018 233.937 224.381 234.254C225.259 234.906 243.185 223.454 253.131 236.88L253.837 239.17C253.666 242.289 252.425 244.403 251.356 245.883C249.58 248.332 246.564 250.798 239.462 255.538C230.051 261.757 230.414 261.44 213.213 268.153C204.164 271.589 200.614 273.069 200.442 273.227C200.27 273.386 200.805 273.721 201.511 274.038C204.355 275.024 208.25 277.156 209.491 278.302C210.903 279.605 211.629 281.896 211.629 285.173C211.629 287.305 211.457 287.622 210.388 288.767C209.147 289.912 208.784 290.071 205.234 290.071C203.095 290.23 200.805 290.071 200.079 289.736C198.838 289.243 198.838 289.401 199.01 290.071C199.182 290.406 199.373 291.375 199.545 291.868C200.079 294.652 198.666 295.956 195.116 295.956C194.047 295.956 192.806 296.29 192.099 296.608C191.03 297.259 189.618 297.418 183.413 297.753C182.535 297.753 180.932 297.418 179.863 296.942C178.793 296.467 177.018 295.956 175.968 295.797C174.021 295.462 173.658 295.462 168.16 291.216L164.972 288.767L163.559 289.754C162.853 290.406 160.543 291.551 158.596 292.538C154.511 294.511 151.151 296.467 148.478 298.44C144.927 301.065 141.205 301.065 138.723 298.775C138.017 298.123 137.119 297.629 136.776 297.629C136.241 297.629 135.363 297.136 134.638 296.643C133.931 296.149 132.69 295.498 131.793 295.339C130.381 295.004 128.071 293.049 128.071 292.062C128.071 291.903 127.536 291.075 126.83 290.423C124.883 288.626 125.054 285.349 127.192 283.711C127.727 283.217 127.727 283.059 127.364 282.9C127.002 282.742 126.123 282.09 125.417 281.42C123.47 279.623 123.107 277.984 124.539 275.042L125.608 272.752L122.057 271.606C120.11 270.954 117.266 269.633 115.662 268.488C114.058 267.501 109.267 264.717 105.01 262.586C95.2544 257.67 90.9973 254.886 84.0675 248.825C79.9822 245.231 79.2758 243.909 79.6385 240.315C79.8104 237.373 81.0512 233.444 82.1203 231.629C82.8266 230.642 83.1893 230.642 86.7401 230.325C88.8783 230.167 91.1691 229.832 92.0663 229.515C94.0135 228.704 94.2044 228.704 94.7199 230.502C95.0826 231.312 95.598 232.475 96.3235 233.127C97.2016 234.113 97.3925 234.113 99.5115 233.461C100.752 233.127 102.7 232.81 103.769 232.651C105.907 232.316 110.87 230.361 114.421 228.387L116.559 227.242L120.454 230.026C125.78 233.62 127.364 234.941 132.69 239.522C138.188 244.279 140.498 246.077 141.205 246.077C141.377 246.077 141.739 246.235 141.739 246.411C141.739 246.57 142.446 247.063 143.152 247.222C143.858 247.557 145.29 248.208 146.168 248.86C147.046 249.512 149.013 250.499 150.254 251.151C153.633 252.948 155.408 254.428 159.837 259.009C163.025 262.286 164.628 263.59 164.628 262.779C164.628 262.286 163.216 260.154 161.784 258.198C158.596 254.111 157.355 252.789 154.873 251.151C153.632 250.34 152.392 249.512 152.22 249.354C152.048 249.195 150.979 248.702 149.91 248.05C147.963 247.063 145.653 245.601 145.118 244.931C144.946 244.773 144.24 244.438 143.343 244.121C141.396 243.31 138.551 241.179 133.588 236.756C131.45 234.959 128.796 232.986 127.918 232.334L126.314 231.189L126.677 226.925C127.04 219.877 127.555 217.922 129.521 215.79C130.4 214.803 132.003 212.354 132.9 210.381C133.779 208.584 135.21 205.958 136.089 204.813C137.692 202.364 137.864 200.726 136.26 200.549C135.019 200.391 133.072 202.998 130.4 208.249C125.245 218.397 119.747 223.154 107.682 227.894C105.029 229.039 98.9961 230.343 98.6334 230.026C98.6334 229.867 98.4616 228.881 98.0988 227.735L97.7361 225.603C97.488 226.044 96.6098 214.574 96.9534 214.75ZM165.087 267.466C162.242 268.453 154.969 269.598 148.593 270.091C143.801 270.426 143.629 270.426 140.785 272.223C138.475 273.527 137.062 274.02 135.287 274.196C133.874 274.355 132.099 274.69 131.392 274.848C129.98 275.342 128.376 276.98 128.376 277.967C128.376 278.777 130.514 279.764 132.996 280.099C136.184 280.592 138.857 283.534 137.253 284.856C137.081 285.014 135.649 285.508 134.237 286.001C132.824 286.494 131.221 286.988 130.686 287.146L129.617 287.481L130.858 288.291C131.736 288.785 132.27 289.437 132.27 290.265C132.27 291.093 132.633 291.41 133.149 291.41C134.752 291.251 136.165 291.745 136.699 292.714C137.234 293.524 137.406 293.7 138.838 293.207C140.25 292.872 140.613 292.872 141.319 293.542C141.854 294.035 142.197 294.846 142.197 295.339C142.197 296.643 143.266 296.643 145.214 295.18C146.092 294.687 147.524 293.7 148.593 293.049C149.662 292.397 151.246 291.41 151.972 290.917C152.85 290.423 154.816 289.278 156.401 288.626C160.295 286.829 159.951 286.988 162.796 284.697C164.209 283.552 167.225 281.755 169.363 280.61C171.673 279.464 173.62 278.319 173.792 277.984C173.964 277.65 174.498 277.333 175.033 277.174C176.102 276.681 176.102 276.681 173.086 273.58C170.241 270.637 170.069 270.303 170.241 268.664C170.413 267.025 170.413 267.025 168.828 266.867C167.95 266.708 167.416 266.708 167.416 266.708C167.416 266.708 166.328 266.973 165.087 267.466ZM193.837 275.324C192.768 275.817 190.286 276.311 182.841 277.121C180.893 277.28 180.359 277.614 179.996 278.425C179.462 279.905 174.326 284.151 171.482 285.472L168.828 286.618L170.432 287.921C175.586 292.009 176.102 292.344 177.877 292.344C178.755 292.344 180.359 292.837 181.428 293.489L183.375 294.634L184.081 293.824C184.788 292.837 186.926 292.679 187.632 293.489C188.339 294.3 189.236 294.3 190.649 293.154C191.527 292.344 192.252 292.344 193.493 292.502C194.371 292.661 195.268 292.661 195.268 292.661C195.268 292.502 194.199 291.357 192.958 290.036C190.114 287.093 189.77 285.948 191.011 284.133C192.424 281.843 193.493 281.191 194.734 281.684C195.268 282.019 195.803 282.336 195.803 282.671C195.803 283.006 197.044 283.975 198.456 284.962C200.938 286.441 201.301 286.6 203.783 286.6C206.971 286.6 207.505 286.107 207.162 284.151C206.799 282.178 206.283 281.702 201.301 278.918C198.647 277.438 197.407 276.469 197.216 275.8C196.853 274.514 195.612 274.337 193.837 275.324Z" fill="#F15928"/>
<path d="M145.215 246.024C146.284 243.892 145.749 241.443 146.284 239.153C146.818 236.703 148.594 234.572 148.422 231.788C148.422 231.294 149.491 230.484 150.369 229.656C150.732 231.629 151.076 233.25 150.197 234.73C149.835 235.224 149.663 235.717 150.197 236.21C150.904 236.862 151.266 236.369 151.801 236.052C153.214 235.241 153.405 233.603 153.939 232.281C154.474 230.977 154.645 229.339 155.008 228.017C155.18 227.207 155.371 226.22 154.474 225.568C153.596 224.916 152.87 225.568 151.992 225.903C151.629 226.062 151.457 226.238 151.114 226.396C150.045 223.278 149.51 223.119 146.857 224.758C146.857 222.626 147.735 220.67 148.269 218.697C149.338 215.755 148.441 212.319 150.579 209.694C151.286 208.883 150.579 207.562 149.51 207.069C148.441 206.417 147.563 207.227 147.028 208.055C145.425 210.187 144.719 212.636 144.719 215.103C144.719 217.076 144.719 219.032 143.84 220.67C143.478 221.322 143.84 222.802 142.237 221.816C141.359 221.322 140.29 221.164 141.168 219.367C143.649 213.958 145.253 208.231 146.838 202.505C147.372 200.867 147.372 198.576 144.184 199.07C143.306 199.228 142.58 198.083 141.874 197.59C139.392 195.792 136.72 196.603 134.238 196.603C133.532 201.025 133.875 205.289 133.875 209.694C133.703 218.045 133.875 226.555 132.463 234.748C132.291 235.241 132.1 235.734 132.825 236.228C137.063 238.818 140.614 242.905 145.215 246.024Z" fill="#E42D10"/>
<path d="M162.435 238.166C162.435 238.324 162.435 238.324 162.435 238.5C162.263 242.095 162.263 242.095 158.884 241.443C158.35 242.429 158.35 243.416 157.471 244.227C156.937 244.72 156.231 245.53 156.937 246.2C157.643 247.01 158.541 246.2 159.075 245.865C159.953 245.372 160.679 244.72 161.557 244.227C162.091 243.892 162.626 243.575 163.16 244.068C163.523 244.403 163.332 245.055 163.16 245.548C162.454 248.332 161.748 251.116 161.213 254.058C161.041 255.203 160.85 256.348 160.85 257.494L164.936 263.396C166.348 262.903 168.124 262.744 169.193 261.423C170.606 259.132 172.037 257 173.813 255.045C173.813 252.261 174.519 249.636 175.225 247.028C174.691 246.376 174.691 245.724 174.691 244.896C175.569 240.474 175.054 235.893 176.104 231.471C174.863 228.528 172.553 226.396 170.606 223.947C170.434 223.789 170.071 223.947 169.899 224.106C168.487 226.396 169.365 229.339 168.124 231.964C166.52 229.021 167.761 226.238 167.589 223.454C167.227 221.657 166.177 220.67 164.573 220.018C161.385 218.873 159.419 219.86 158.903 223.295C158.903 223.789 158.903 224.282 158.731 224.775C158.731 225.921 159.094 227.066 159.61 228.052C162.091 232.81 164.229 237.708 165.47 242.623C164.745 241.267 164.554 238.976 162.435 238.166Z" fill="#E73615"/>
<path d="M159.955 219.173C160.127 218.838 160.318 218.679 160.318 218.362C160.318 216.565 160.68 214.592 162.971 214.275C165.109 213.94 167.056 215.42 167.935 217.71C169.004 217.869 169.538 217.376 170.073 216.724C170.435 215.578 169.71 214.927 169.195 214.098C165.644 208.372 162.456 202.311 159.268 196.409C158.905 195.916 158.733 195.422 159.096 194.771C160.508 194.771 160.699 196.744 162.112 196.744C162.99 196.585 163.181 195.757 163.716 195.264C164.078 194.771 164.25 194.277 164.594 193.784C165.663 192.797 167.076 191.493 168.488 192.145C170.092 192.797 169.557 194.594 169.195 195.916C168.316 198.858 168.316 201.977 166.35 204.602C166.522 205.906 166.885 207.051 168.297 207.72C169.366 207.386 169.175 206.417 169.366 205.747C170.073 203.122 170.779 200.673 171.504 198.048C172.039 196.074 172.917 194.612 174.158 193.132C174.521 192.639 174.521 191.987 175.036 191.493C175.914 192.639 176.812 193.625 178.415 193.132C179.293 192.973 180.191 192.48 180.019 191.335C178.778 190.19 177.709 189.044 176.64 187.899C175.762 186.754 174.502 187.247 173.452 187.406C168.297 188.216 163.334 188.392 158.198 187.741C157.492 188.234 157.32 189.044 157.129 189.872C156.595 193.801 156.06 197.731 154.285 201.166C154.113 201.66 154.113 202.153 154.113 202.646C154.285 206.575 155.526 210.346 157.301 213.781C159.439 214.592 159.955 216.23 159.439 218.204C159.058 218.345 159.248 218.838 159.955 219.173Z" fill="#EA421B"/>
<path d="M203.4 235.876C203.4 233.427 203.228 231.118 204.469 229.004C205.347 227.524 204.469 225.886 203.935 224.582C203.763 224.088 203.228 223.437 202.522 224.089C200.919 225.568 198.093 226.22 198.265 229.321C198.265 230.625 197.902 231.77 197.73 232.916C197.368 234.889 198.093 236.193 200.919 235.858C199.506 236.668 199.315 238.307 197.73 237.162C197.024 236.668 196.318 237.32 196.318 237.972C196.318 239.276 195.44 240.597 196.318 241.901C198.265 241.091 200.212 240.104 202.179 239.276C203.228 238.325 203.591 237.179 203.4 235.876Z" fill="#E3290F"/>
<path d="M179.633 230.308C178.029 234.889 178.926 239.804 178.22 244.561C178.048 245.213 178.22 246.041 179.289 246.2C179.289 244.227 179.652 242.271 181.064 240.139C181.599 242.112 180.893 244.068 182.477 245.372C185.131 242.923 184.081 238.994 185.493 235.875C186.2 238.007 184.959 239.47 185.322 241.284C185.493 242.095 185.493 243.081 186.562 243.081C187.441 243.24 188.166 242.43 188.338 241.601C188.701 240.298 189.044 238.976 189.044 237.672C189.216 234.078 190.991 230.96 191.698 227.524C192.232 225.075 190.991 223.436 188.51 223.595C187.975 223.595 187.631 223.26 187.269 222.943C185.493 221.798 184.081 222.291 183.89 224.582C183.527 227.524 182.649 230.484 182.477 233.426C181.408 232.123 182.114 230.643 182.305 229.339C182.477 228.687 182.668 227.859 181.943 227.542C181.408 227.207 181.064 228.035 180.53 228.193C179.633 228.828 180.339 229.814 179.633 230.308Z" fill="#E2290E"/>
<path d="M145.75 227.841C144.681 228.652 145.044 230.466 143.097 230.466C142.391 230.466 142.391 231.946 142.925 232.598C143.288 233.092 144.701 232.933 144.872 232.44C145.579 231.118 147.182 229.973 145.75 227.841Z" fill="#EA411B"/>
<path d="M173.432 247.328C174.501 247.169 175.57 247.486 175.742 246.341C175.914 245.531 175.57 245.037 174.673 244.703C173.261 244.368 173.604 243.064 173.795 242.254C174.501 239.47 175.399 236.845 176.811 234.554C177.174 234.061 178.052 233.568 177.346 232.916C176.64 232.422 175.208 232.757 175.036 233.409C174.33 236.193 172.192 238.818 172.898 242.095C173.261 243.24 172.898 244.72 172.535 246.024C172.02 246.993 172.191 247.663 173.432 247.328Z" fill="#EF5928"/>
<path d="M154.266 202.47C154.094 200.673 155.507 199.528 155.87 197.889C156.939 194.454 157.111 190.842 157.817 187.247C153.732 186.102 149.474 184.957 145.389 183.812C144.32 183.477 143.251 182.825 142.201 182.508C140.597 184.305 140.254 189.062 141.667 191.846C142.029 189.555 144.148 190.542 145.389 189.714C146.267 189.221 146.095 190.366 146.267 191.018C146.439 192.004 146.267 193.308 147.871 192.498C148.94 192.004 148.577 192.991 148.749 193.308C149.112 194.612 149.284 195.757 151.231 194.788C152.3 194.136 152.3 195.123 152.109 195.775C151.574 197.255 151.574 198.717 152.472 200.039C154.094 200.18 152.853 202.294 154.266 202.47Z" fill="#E73514"/>
<path d="M160.296 256.49C161.365 252.067 162.434 247.803 163.675 243.399C163.846 242.905 163.846 242.412 163.312 242.095C162.605 241.936 162.071 241.936 161.365 242.253C159.761 243.24 158.177 244.227 156.401 245.372C156.764 243.24 159.78 242.747 158.348 240.456C158.177 238.324 157.642 238.166 155.867 239.311C154.091 240.456 153.919 242.588 153.557 244.227C153.022 246.024 152.679 247.997 152.85 249.953C155.695 251.909 158.177 253.882 160.296 256.49Z" fill="#E32A0F"/>
<path fill-rule="evenodd" clip-rule="evenodd" d="M137.6 179.055C135.29 176.429 128.551 171.849 128.188 171.849C127.482 172.007 124.103 185.116 123.569 188.393C122.499 193.625 120.19 200.673 116.295 204.602C112.038 208.866 101.748 213.605 98.3694 215.579C95.7158 217.217 108.125 221.305 110.434 223.437C112.038 224.74 114.157 222.785 115.589 224.247C115.761 224.406 120.38 221.129 121.087 218.838C123.225 211.315 125.344 217.534 129.067 210.487C130.136 208.355 133.152 200.655 135.271 199.51C137.924 197.872 137.753 191.811 139.165 188.375C140.578 185.098 142.716 182.473 138.994 181.504" fill="#EA411B"/>
<path d="M170.589 262.233C170.589 263.044 167.572 262.568 169.711 264.207C170.073 264.541 169.176 265.017 168.832 265.193C166.885 266.004 168.298 266.497 169.004 266.99C167.935 268.294 168.126 269.774 168.832 270.919C170.073 273.051 171.486 275.183 174.159 275.835C175.934 276.646 177.709 276.17 179.657 276.329C183.207 277.808 186.758 276.487 190.118 275.835C191.531 275.5 193.134 275.677 194.013 274.197C194.719 273.703 195.616 273.386 196.151 272.558C197.392 270.426 199.167 270.268 201.114 271.748C208.388 268.964 215.833 266.515 222.934 263.238C222.572 261.106 221.331 259.467 220.796 257.512C220.434 256.366 220.262 255.38 220.968 254.234C222.209 252.261 221.846 250.64 220.09 249.16C218.677 248.015 217.952 246.218 217.608 244.403C217.436 243.416 217.436 242.271 218.486 241.619C219.727 241.126 220.433 241.954 221.14 242.765C221.846 243.751 222.381 244.896 222.743 246.042C223.106 247.345 223.984 248.491 225.053 249.477C225.588 249.812 226.122 250.288 226.657 249.971C227.191 249.636 227.191 248.984 227.191 248.332C227.02 247.187 226.485 246.2 225.779 245.214C225.416 244.562 224.175 243.734 224.538 243.082C225.244 241.936 225.951 240.633 227.382 240.298C228.261 239.963 229.158 239.805 229.864 238.994C230.227 238.501 230.742 238.007 230.227 237.355C230.055 237.197 229.864 237.197 229.692 237.197C227.382 237.038 226.141 236.386 224.194 234.572C223.832 234.237 223.66 234.237 223.316 234.413C222.953 234.572 222.782 234.906 222.438 235.065C221.732 235.876 222.438 236.545 222.61 237.197C222.782 237.849 222.973 238.677 222.247 238.994C221.369 239.487 220.834 238.994 220.109 238.342C219.403 237.532 218.696 236.545 217.799 236.052C209.991 238.677 202.011 240.967 194.566 244.896C193.688 245.39 192.963 245.707 192.084 246.2C191.378 247.68 192.447 248.491 192.963 249.477C192.963 249.636 192.963 249.477 192.791 249.319C192.084 248.174 191.187 246.87 189.775 247.68C188.362 248.491 189.068 249.971 189.412 251.274C190.118 253.565 191.359 255.697 192.791 257.987C191.55 255.855 190.481 253.9 188.896 252.261C188.018 251.451 187.293 250.129 185.88 250.957C184.467 251.768 185.002 253.248 185.517 254.393C185.689 254.728 185.88 255.203 185.88 255.38C185.346 254.393 185.002 253.089 184.276 251.785C183.914 251.133 183.914 250.147 182.673 250.482C177.862 253.706 173.261 256.983 170.589 262.233Z" fill="#E9401A"/>
<path d="M142.391 248.632C140.616 250.112 140.788 252.402 139.909 254.199C139.203 255.679 138.669 257.318 138.306 258.956C137.943 260.595 136.53 260.595 135.652 260.26C134.411 259.767 135.48 258.78 135.824 258.128C136.53 256.49 137.428 254.851 138.134 253.213C138.497 252.402 138.84 251.415 137.771 250.763C136.53 249.953 135.996 251.098 135.461 251.909C132.617 256.173 130.135 260.753 128.188 265.493C127.653 266.797 127.119 268.277 126.775 269.58C126.413 270.567 126.775 271.219 128.188 270.884C130.326 270.232 131.739 269.404 132.445 267.114C132.808 265.317 133.686 263.678 135.099 261.705C134.927 264.154 134.564 265.969 133.858 267.766C133.686 268.418 133.495 268.911 133.858 269.404C134.392 269.898 134.927 269.563 135.461 269.246C136.53 268.752 137.6 268.259 137.943 267.114C139.356 262.04 142.2 257.459 143.441 252.208C143.613 251.222 144.147 250.411 143.976 249.424C143.441 249.125 142.926 248.808 142.391 248.632Z" fill="#E73A16"/>
<path d="M148.595 252.244C147.182 252.085 146.285 252.895 145.751 254.041C144.147 257.159 143.441 260.595 143.441 264.189C143.441 264.524 143.441 264.683 143.613 264.841C144.319 265.828 149.282 265 149.645 263.854C150.351 261.881 151.058 259.925 151.955 258.128C152.318 257.476 152.49 256.824 151.783 256.331C150.905 255.838 150.542 256.49 150.18 257.142C150.008 257.476 149.817 257.952 149.111 257.635C148.576 257.3 148.576 256.983 148.748 256.49C149.282 255.186 148.92 253.864 149.111 252.561C148.939 252.561 148.767 252.402 148.595 252.244Z" fill="#E73B17"/>
<path d="M109.383 265.334C109.746 264.682 110.09 264.031 109.918 263.361C108.505 257.3 111.693 252.067 113.297 246.5C116.848 244.861 116.676 240.774 118.795 238.148C119.673 237.003 120.398 235.858 122.174 236.017C121.811 235.858 121.639 235.365 121.296 235.365C119.348 235.206 117.573 235.699 116.504 233.074C115.969 232.088 114.366 233.726 113.85 234.713C112.438 237.338 111.369 240.28 110.662 243.223C111.903 244.526 112.075 246.006 111.369 247.804C110.128 250.587 109.422 253.706 107.99 256.314C107.283 257.793 105.852 258.939 104.439 260.084C103.561 258.78 104.076 257.635 104.267 256.49C104.439 255.838 104.802 255.186 104.095 254.851C103.389 254.358 102.854 255.01 102.32 255.344C100.545 256.49 98.941 257.793 98.941 260.102C102.11 262.233 105.661 263.872 109.383 265.334Z" fill="#EC4D22"/>
<path d="M116.121 269.439C117.896 266.814 118.431 263.713 119.5 260.929C121.447 256.014 124.463 251.767 126.601 246.852C126.964 246.041 127.308 245.213 127.479 244.403C126.41 243.592 127.651 241.46 125.704 241.46C123.929 241.46 123.566 243.258 123.051 244.579C119.672 250.957 116.655 257.511 114.536 264.559C114.174 265.704 113.467 266.532 112.933 267.501C114.002 268.294 114.88 269.104 116.121 269.439Z" fill="#EC4C21"/>
<path d="M165.967 219.173C165.432 218.186 164.898 217.376 164.363 216.389C163.829 215.579 163.485 214.75 162.951 213.94C162.073 211.315 161.004 208.866 159.056 206.892C158.694 206.399 158.35 205.906 157.987 205.589C157.453 204.937 156.918 204.109 156.04 204.778C155.162 205.448 155.506 206.082 156.04 206.91C158.694 211.491 161.194 216.072 163.848 220.829C164.554 222.133 165.795 223.278 166.158 224.917C166.158 225.568 166.33 226.062 167.036 226.22C168.64 228.352 169.881 230.484 171.828 232.281C172.897 232.44 172.897 232.44 172.362 230.484C171.121 227.207 168.983 224.423 167.208 221.322C166.692 220.477 166.33 219.825 165.967 219.173Z" fill="#010000"/>
<path d="M152.489 212.125C152.317 211.315 152.126 210.645 151.954 209.993C151.592 208.689 151.248 209.659 150.885 209.993C150.007 215.226 151.764 220.142 153.539 225.057C155.486 229.638 157.624 234.219 159.934 238.642C161.175 240.28 162.244 242.077 163.657 244.209C162.588 237.655 159.4 232.422 157.262 227.013C157.09 226.52 156.899 226.203 156.727 225.709C156.555 224.229 156.192 222.767 155.123 221.622C153.921 218.503 152.852 215.402 152.489 212.125Z" fill="#020000"/>
<path fill-rule="evenodd" clip-rule="evenodd" d="M176.792 51.0001C176.792 51.0001 207.833 53.6253 214.934 115.838C214.934 115.838 225.052 114.199 227.706 121.247C230.359 128.453 232.86 132.382 219.191 142.213C205.523 152.044 210.142 162.686 196.13 170.368C182.118 178.067 162.951 188.709 140.062 174.138C124.102 163.99 125.687 111.098 126.756 108.314C127.825 105.531 138.287 61.8181 164.536 51.3349L176.792 51.0001Z" fill="white"/>
<path d="M183.357 48.8686C187.08 49.8552 190.803 51.8109 193.284 53.9428C197.37 57.3785 205.884 70.3107 211.21 80.794C216.536 91.2772 218.483 98.4833 219.018 108.632L219.19 113.547L221.672 113.389C226.291 113.054 230.892 116.173 233.374 121.247C234.443 123.537 234.615 124.189 234.615 127.801C234.615 131.572 234.615 132.065 233.011 135.166C229.995 141.227 224.497 145.649 218.293 146.794C216.154 147.288 215.811 147.446 215.639 148.433C214.761 151.71 211.745 158.74 209.606 162.017C206.59 166.598 201.799 171.514 199.68 172.324C199.317 172.483 196.835 173.804 194.525 175.443C187.424 179.865 183.357 181.345 173.239 182.807C166.138 183.794 162.415 183.794 157.089 182.807C151.763 181.662 144.49 179.372 142.37 178.05C138.113 175.266 129.943 163.321 126.583 154.793C122.498 144.803 120.378 128.259 122.154 119.926C122.517 117.952 122.86 115.662 122.86 114.851C122.86 113.865 123.223 112.402 123.567 111.574C124.273 109.777 126.755 101.743 126.755 101.743C126.755 101.901 126.926 101.408 126.926 100.756C126.926 100.263 127.805 98.131 128.702 96.1753C129.58 94.202 130.84 91.5944 131.355 90.273C131.89 88.9692 132.596 87.3306 133.131 86.8373C133.665 86.3439 134.2 84.864 134.543 83.4016C135.422 80.1245 139.698 71.1212 142.523 66.8575C145.177 62.7699 151.4 56.709 156.001 53.5904C161.499 49.82 166.462 48.5162 175.168 48.1814C179.291 48.0581 180.704 48.2167 183.357 48.8686ZM166.692 55.4228C161.9 56.568 158.712 58.5413 152.507 64.1089C149.128 67.0513 146.303 70.9803 143.096 76.8826C140.251 82.4502 135.823 89.4977 135.288 93.4267C134.925 95.8757 131.031 105.707 130.496 107.187C130.134 108.174 129.255 112.596 129.084 113.9C128.912 115.204 128.549 117.829 128.206 119.802C126.793 127.66 128.205 141.244 131.222 150.582C133.532 157.63 139.908 168.272 143.993 171.707C147.888 175.143 154.111 176.782 162.453 176.782C169.021 176.782 174.156 176.13 179.482 174.808C192.616 171.373 200.959 165.153 206.094 154.987C207.697 152.538 210.179 145.491 210.179 144.504C210.179 144.011 210.714 143.2 211.42 142.531C212.298 141.544 213.195 141.227 215.314 141.051C220.469 140.557 224.898 137.615 227.208 133.193C229.689 128.435 229.346 124.506 226.33 121.406C224.191 119.274 223.142 119.115 218.884 120.419C216.937 121.071 216.04 121.229 215.162 120.912C213.215 120.102 213.024 118.939 212.68 111.909C212.508 108.138 212.145 103.892 211.974 102.078C210.561 91.7706 203.097 76.5302 192.998 62.9461C189.447 58.189 187.328 56.7266 182.708 55.088C180.761 54.4361 179.52 54.2776 174.9 54.5947C171.655 54.7709 168.104 55.1057 166.692 55.4228Z" fill="#F15928"/>
<path d="M155.87 75.4028C157.111 76.548 157.645 78.5213 156.748 79.6666C155.679 81.3051 152.854 81.4637 151.422 80.0013C150.009 78.6975 150.009 77.2175 151.422 75.579C152.835 73.9404 154.095 73.9228 155.87 75.4028Z" fill="#F15928"/>
<path d="M151.44 87.1896C153.921 88.1762 154.284 91.4533 152.318 93.5676C150.905 94.8714 149.301 94.8714 147.889 93.409C144.873 90.4667 147.698 85.7096 151.44 87.1896Z" fill="#F15928"/>
<path d="M162.97 83.9127C160.66 83.5779 159.591 80.7942 160.831 78.5037C161.71 77.0237 163.141 76.7066 164.726 77.6932C167.933 79.6666 166.501 84.406 162.97 83.9127Z" fill="#F15928"/>
<path d="M162.95 89.4801C165.26 90.4668 165.432 94.3958 163.122 96.1929C161.881 97.1796 159.743 96.8448 158.865 95.6996C157.261 93.7263 157.987 90.7839 160.278 89.7973C161.156 89.4625 161.881 89.1454 161.881 89.1454C161.881 89.1454 162.435 89.3216 162.95 89.4801Z" fill="#F15928"/>
<path d="M150.904 98.818C151.973 99.8047 152.145 100.298 152.145 101.937C152.145 104.562 151.267 105.707 149.129 105.707C147.888 105.707 147.182 105.372 146.284 104.403C145.578 103.751 144.872 102.765 144.681 102.271C144.146 100.298 146.456 97.6904 148.766 97.6904C149.129 97.6728 150.007 98.1661 150.904 98.818Z" fill="#F15928"/>
<path d="M160.298 100.298C160.833 100.792 161.367 101.778 161.367 102.43C161.367 103.082 160.833 104.069 160.298 104.562C159.764 105.214 158.695 105.549 158.16 105.549C157.625 105.549 156.556 105.055 156.022 104.562C155.487 104.069 154.953 103.082 154.953 102.43C154.953 101.778 155.487 100.792 156.022 100.298C156.556 99.6463 157.625 99.3115 158.16 99.3115C158.695 99.3115 159.764 99.8048 160.298 100.298Z" fill="#F15928"/>
<path d="M176.274 103.24C181.428 104.72 185.857 110.288 183.547 112.578C182.306 113.882 181.065 113.389 179.29 111.274C177.515 109.143 175.567 108.156 173.62 108.156C172.742 108.156 171.845 108.649 170.432 109.794C168.485 111.768 166.881 111.926 166.003 110.288C164.762 107.997 167.416 104.385 171.157 103.24C173.792 102.588 173.601 102.588 176.274 103.24Z" fill="black"/>
<path d="M131.371 99.9633C136.526 101.443 140.955 107.011 138.645 109.301C137.404 110.605 136.163 110.112 134.388 107.998C132.612 105.866 130.665 104.879 128.718 104.879C127.84 104.879 126.942 105.372 125.53 106.518C123.583 108.491 121.979 108.649 121.101 107.011C119.86 104.72 122.514 101.109 126.255 99.9633C128.718 99.3114 128.718 99.3114 131.371 99.9633Z" fill="black"/>
<path d="M144.511 125.511C144.873 126.163 145.217 127.484 145.389 128.295C146.267 133.862 146.458 134.849 147.164 134.356C147.87 133.704 149.111 130.92 150.009 127.978C150.715 125.687 151.421 124.859 152.853 125.194C155.163 125.528 155.163 129.616 152.853 134.532C149.837 141.086 144.339 142.073 141.857 136.505C140.979 134.532 140.788 133.563 140.788 130.127C140.788 126.691 140.96 125.863 141.666 125.053C142.735 124.031 143.804 124.031 144.511 125.511Z" fill="black"/>
<path fill-rule="evenodd" clip-rule="evenodd" d="M95.9043 217.199C67.6888 215.226 62.3818 180.517 68.7579 160.22C71.946 154.811 79.5821 154.494 79.5821 148.098C80.6512 143.517 76.7377 135.976 71.4306 136.311C68.777 137.298 69.1206 139.905 70.0179 141.068C73.9123 145.825 69.4833 149.754 66.4671 149.085C64.6917 148.75 53.1612 142.037 51.5576 141.561C43.7496 138.778 32.7536 139.112 25.3084 141.72C27.2556 145.984 34.7199 145.808 38.977 146.301C46.2504 148.098 32.7727 147.111 31.1691 147.94C19.4668 153.014 32.2382 153.842 37.3735 153.507C43.9405 153.014 31.341 156.449 30.8064 159.568C31.5128 161.048 38.6144 159.903 39.6834 159.727C42.6997 159.075 48.904 157.753 49.2667 157.929C50.3358 160.22 41.287 163.99 40.3897 167.091C38.2516 170.686 42.8715 171.848 45.3532 169.875C62.3818 158.581 56.8837 174.632 58.2964 184.129C62.9163 203.95 62.7254 226.203 95.7325 226.872" fill="white"/>
<path d="M95.9026 215.402C92.8863 215.068 90.0419 214.257 87.3883 213.112C84.7348 211.967 82.4249 210.328 80.4776 208.355C76.3923 204.584 73.7388 199.51 72.1352 194.101C70.5316 188.692 69.6534 183.125 69.6534 177.557C69.6534 171.99 70.3598 166.263 72.1352 161.013L71.7725 161.823C72.307 161.013 72.8415 160.343 73.7197 159.692C74.5978 159.04 75.6669 158.212 77.0987 157.401C78.3395 156.591 79.9431 155.428 81.184 153.807C82.4248 152.186 83.1312 149.878 82.9594 148.081V148.733C83.3221 146.759 83.1312 145.138 82.7876 143.5C82.4249 141.861 81.7185 140.381 80.8403 139.078C79.9622 137.598 78.8931 136.294 77.2896 135.148C75.686 134.003 73.567 133.175 71.257 133.351H71.0852C70.7225 133.351 70.3789 133.51 70.2071 133.51C69.138 133.845 68.0689 134.497 67.3626 135.642C66.6563 136.628 66.2935 137.932 66.2935 139.078C66.2935 140.223 66.6563 141.209 67.3626 142.196C67.3626 142.355 67.5344 142.355 67.5344 142.531L67.7062 142.866L67.8781 143.024C68.0499 143.183 68.0498 143.359 68.2407 143.517C68.6035 144.169 68.7753 144.663 68.6035 145.156C68.6035 145.649 68.2408 146.143 67.7253 146.301C67.5535 146.46 67.3626 146.46 67.1908 146.46C67.019 146.46 67.3626 146.46 66.6563 146.301C65.5872 145.808 64.5181 145.315 63.2773 144.663L56.5384 141.227C55.2975 140.575 54.2285 140.082 52.9876 139.43C52.8158 139.271 52.4531 139.271 52.2813 139.095L51.7468 138.937L50.6777 138.602C49.9713 138.443 49.265 138.267 48.7305 138.108C46.0769 137.457 43.2325 137.122 40.5789 137.122C35.0809 136.963 29.5829 137.457 24.2567 139.412C23.0159 139.906 22.4813 141.051 22.844 142.196C23.5504 143.835 24.9821 144.98 26.3948 145.79C27.8075 146.601 29.2393 146.936 30.652 147.27C33.3055 147.764 35.9782 147.922 38.2881 148.257H37.9254C38.2881 148.415 38.8035 148.416 38.9944 148.592C39.1662 148.592 39.3571 148.75 39.1662 148.592H38.9944L38.8226 148.433L38.6508 148.275C38.6508 148.275 38.479 148.116 38.479 147.94C38.3072 147.781 38.3072 147.605 38.3072 147.288C38.3072 146.953 38.3072 146.636 38.479 146.301C38.479 146.143 38.8417 145.808 38.8417 145.649C39.0135 145.491 39.0135 145.491 39.2044 145.315C39.3953 145.138 39.3762 145.156 39.5671 145.156C39.7389 145.156 39.7389 145.156 39.7389 145.156C39.7389 145.156 39.2044 145.156 38.8608 145.156H37.6199C35.8445 145.156 34.0691 145.156 32.1219 145.315C31.5874 145.315 31.0529 145.315 30.3465 145.649C30.1747 145.649 30.1747 145.649 29.9838 145.808L29.6211 145.966L29.2584 146.125L28.552 146.46C27.6739 146.953 26.7766 147.27 25.8985 147.94C25.3639 148.275 25.0203 148.592 24.4858 149.085C24.314 149.42 23.9513 149.578 23.7795 150.072C23.6077 150.565 23.4167 151.217 23.6076 152.045C23.7794 152.855 24.314 153.349 24.6767 153.684C25.0394 154.018 25.3831 154.177 25.7458 154.335C26.4521 154.67 26.9866 154.829 27.5211 154.987C29.6592 155.481 31.6065 155.639 33.5537 155.639C34.4318 155.639 35.5009 155.639 36.3981 155.639H37.8108H38.3454C38.5172 155.639 38.3454 155.639 38.3454 155.639H38.1735C38.0017 155.639 38.0017 155.639 37.8108 155.481C37.639 155.481 37.639 155.322 37.4481 155.322L37.2763 155.164L37.1045 155.005C36.9327 154.846 36.9327 154.67 36.7418 154.512C36.57 154.353 36.57 154.018 36.57 153.86C36.57 153.701 36.57 153.366 36.57 153.208C36.57 153.049 36.57 153.049 36.7418 152.873C36.9136 152.538 37.1045 152.38 37.1045 152.38C37.2763 152.221 37.2763 152.221 37.1045 152.38C37.1045 152.38 36.9327 152.538 36.7418 152.538L35.6727 153.032L33.191 154.177C32.3128 154.67 31.5874 155.164 30.7093 155.657C30.3465 155.992 29.8311 156.309 29.2965 156.802C28.9338 157.295 28.2275 157.789 28.0557 159.093C27.8839 159.586 28.0557 160.079 28.2275 160.396C28.5902 161.207 29.2966 161.542 29.6402 161.7C30.1747 161.859 30.3465 162.035 30.7093 162.035C31.4156 162.193 31.7783 162.193 32.3128 162.193C33.191 162.193 34.0882 162.193 34.9664 162.193C36.7418 162.035 38.3453 161.859 39.9298 161.542L44.5497 160.555L46.8596 160.062L47.9287 159.903H48.4632H48.635C48.635 159.903 48.635 159.903 48.4632 159.903C48.4632 159.903 48.2914 159.903 48.1005 159.903H47.9287C47.7569 159.903 47.7569 159.903 47.5659 159.744C47.3941 159.586 47.2033 159.586 47.0315 159.41V158.599C46.8596 158.264 46.8596 157.947 47.0315 157.789C47.0315 157.63 47.0315 157.789 47.0315 157.789C46.8596 157.947 46.4969 158.282 46.1533 158.599C45.4469 159.251 44.5497 159.903 43.6715 160.396C42.7934 161.048 41.7244 161.7 40.8271 162.528C40.2926 163.022 39.9489 163.339 39.4144 164.008C38.8799 164.502 38.3453 165.312 38.1735 166.299L38.3454 165.647C37.8108 166.457 37.2763 167.62 37.4672 169.082C37.4672 169.734 37.8299 170.562 38.5363 171.214C39.0708 171.866 39.7771 172.201 40.4835 172.518C41.7243 173.011 43.137 173.011 44.2061 172.853C45.2751 172.694 46.516 172.201 47.3942 171.373L47.2224 171.531C49.1696 170.228 51.4795 168.906 53.4267 168.254C53.9612 168.096 54.3048 168.096 54.6676 168.096C55.0303 168.096 55.0303 168.096 55.0303 168.096C55.2021 168.096 55.5648 168.748 55.7366 169.734C56.0993 171.708 56.0993 174.157 55.9084 176.447C55.9084 178.896 55.7366 181.363 56.2711 183.97V184.129C57.512 189.045 58.4092 194.119 59.6501 199.352C60.891 204.426 62.4946 209.659 65.6827 214.416C68.6989 219.173 73.4906 223.102 78.9886 225.216C84.4866 227.348 90.3473 228 96.1889 228H97.9644V224.881H96.1889C90.6909 224.723 85.3648 223.895 80.5731 221.939C75.7814 219.966 71.887 216.706 69.4053 212.442C66.7517 208.179 65.32 203.439 64.2509 198.524C63.1818 193.608 62.3037 188.534 61.0628 183.301V183.459C60.7001 181.328 60.891 178.879 60.891 176.588C60.891 174.139 61.0628 171.672 60.5283 168.889C60.3565 168.237 60.1656 167.409 59.8219 166.598C59.4592 165.788 58.7529 164.96 57.6838 164.308C56.6148 163.656 55.3739 163.321 54.3048 163.497C53.2358 163.497 52.3576 163.656 51.6513 163.991C48.635 164.977 46.3251 166.44 44.0152 167.92C44.0152 167.92 43.8433 167.92 43.8433 168.078C43.6715 168.237 43.3088 168.413 42.9652 168.413C42.6216 168.413 42.2589 168.413 42.2589 168.413C42.2589 168.254 42.4307 168.571 42.4307 168.748C42.4307 168.906 42.4307 168.589 42.6025 168.096L42.9652 167.602C42.9652 167.602 42.9652 167.602 42.9652 167.444C42.9652 167.444 43.4997 166.633 44.2061 166.14C44.9124 165.488 45.8097 164.836 46.6878 164.167C47.566 163.515 48.4632 162.863 49.5323 162.035C50.0668 161.542 50.6013 161.224 51.1359 160.555C51.3077 160.22 51.6704 159.744 51.8422 159.075C52.014 158.423 52.014 157.595 51.6704 156.784C51.4986 156.45 51.3077 156.133 50.964 155.974C50.7922 155.815 50.6013 155.639 50.2577 155.639C50.0859 155.639 50.0859 155.481 49.895 155.481H49.7232C49.5513 155.481 49.3604 155.481 49.1886 155.481C49.0168 155.481 48.8259 155.481 48.8259 155.481C48.6541 155.481 48.4632 155.481 48.2914 155.481L47.5851 155.639L46.3442 155.798L44.0342 156.291L39.4144 157.278C38.0017 157.613 36.5699 157.771 35.1573 157.771C34.4509 157.771 33.7446 157.771 33.2101 157.771C32.8473 157.771 32.6755 157.771 32.5037 157.613C32.5037 157.613 32.3319 157.613 32.5037 157.613C32.5037 157.613 32.8664 157.771 33.0383 158.264L33.2101 159.568C33.2101 159.903 33.0382 159.727 33.2101 159.568C33.3819 159.41 33.5728 159.233 33.9164 159.075C34.4509 158.74 35.1573 158.264 35.8636 157.93L38.1735 156.784L39.4144 156.133C39.5862 155.974 39.9489 155.798 40.1207 155.639C40.2925 155.481 40.4835 155.481 40.6553 155.146C40.8271 154.987 41.018 154.811 41.1898 154.335C41.1898 154.177 41.3616 154.177 41.3616 153.842C41.3616 153.684 41.3616 153.349 41.3616 153.19C41.3616 153.032 41.1898 152.697 41.1898 152.38C41.018 152.045 41.018 152.045 40.8271 151.728C40.8271 151.569 40.6553 151.569 40.6553 151.569L40.4835 151.411C40.3117 151.411 40.3116 151.252 40.1207 151.252C39.9489 151.252 39.7581 151.094 39.5862 151.094C39.4144 151.094 39.2235 150.935 39.0517 150.935C38.689 150.935 38.5172 150.935 38.3454 150.935C37.9827 150.935 37.8108 150.935 37.4672 150.935H36.0545C35.1764 150.935 34.2791 150.935 33.5728 150.935C31.9692 150.935 30.1938 150.776 28.7811 150.442C28.4184 150.442 28.0748 150.283 28.0748 150.107C28.0748 150.107 27.903 150.107 28.0748 150.107C28.0748 150.107 28.4375 150.442 28.4375 150.759C28.4375 151.094 28.4375 151.411 28.4375 151.569C28.4375 151.569 28.4375 151.728 28.4375 151.569C28.6093 151.411 28.8002 151.235 28.972 151.076C29.5065 150.741 30.2129 150.265 30.9192 149.931C31.9883 149.437 31.6256 149.596 32.5228 149.437C34.1264 149.279 35.9018 149.279 37.849 149.279H39.2617C39.7962 149.279 40.1398 149.279 41.0371 149.12C41.2089 149.12 41.3998 149.12 41.5716 148.962C41.7434 148.962 41.9343 148.803 42.1062 148.627C42.278 148.468 42.4688 148.468 42.4688 148.292C42.6407 148.292 42.8316 147.799 43.0034 147.64C43.1752 147.482 43.1752 146.988 43.1752 146.654C43.1752 146.319 43.0034 146.16 43.0034 145.843C42.8316 145.508 42.8316 145.508 42.6407 145.35C42.6407 145.191 42.4688 145.191 42.4688 145.015C42.297 144.856 42.2971 144.856 42.1062 144.68L41.9343 144.522C41.3998 144.187 41.228 144.187 40.8653 144.028C40.3308 143.87 39.7962 143.694 39.4526 143.535C39.4526 143.535 39.2808 143.535 39.0899 143.535C37.6772 143.377 36.4363 143.2 35.1955 143.2C33.9546 143.042 32.8855 142.866 31.6447 142.707C30.5756 142.548 29.5066 142.214 28.8002 141.72C28.0939 141.227 27.5593 140.734 27.1966 140.24L25.9557 143.183C30.3847 141.703 35.3673 141.051 40.3307 141.386C42.8125 141.544 45.1224 141.72 47.6042 142.372C48.1387 142.531 48.6732 142.707 49.3795 142.866L50.2577 143.2L50.6204 143.359C50.7922 143.359 50.7922 143.359 50.7922 143.517C51.6704 144.011 52.9303 144.663 53.9803 145.156L60.7192 148.926C61.7882 149.578 63.0291 150.072 64.27 150.724C64.6327 150.882 64.8045 151.058 65.5109 151.217C66.0454 151.375 66.7517 151.552 67.2862 151.375C68.5271 151.375 69.5962 151.041 70.4743 150.565C72.2497 149.578 73.4906 147.94 74.0251 146.143C74.5596 144.346 74.0251 142.372 73.3188 140.91C73.147 140.575 72.9561 140.258 72.6124 139.765L72.2497 139.271C72.2497 139.113 72.2497 139.113 72.2497 139.113C72.2497 138.954 72.2497 138.778 72.2497 138.778C72.2497 138.619 72.2497 138.778 72.2497 138.778C72.2497 138.778 72.2497 138.778 72.4215 138.778L71.3525 138.937C71.887 138.937 72.4215 139.095 73.1279 139.588C73.8342 140.082 74.3687 140.892 74.9033 141.72C75.4378 142.531 75.7814 143.517 75.9723 144.504C76.1441 145.491 76.1441 146.477 75.9723 147.129C75.9723 147.288 75.9723 147.464 75.9723 147.464V147.799C75.9723 148.609 75.8005 149.279 75.266 149.772C74.7315 150.424 74.0251 151.076 72.7843 151.745C71.7152 152.397 70.3025 153.225 69.0616 154.371C67.649 155.357 66.4081 156.82 65.339 158.458C65.1672 158.617 65.1672 158.952 64.9763 159.11C63.0291 165.171 62.4946 171.39 62.4946 177.451C62.6664 183.671 63.5636 189.732 65.8736 195.634C68.0117 201.536 71.3716 207.263 76.5259 211.685C81.6803 216.107 88.591 218.556 95.3299 218.556H97.2771L97.6398 215.279L95.9026 215.402Z" fill="#F15928"/>
<path fill-rule="evenodd" clip-rule="evenodd" d="M211.039 184.939C221.328 200.003 275.621 238.818 276.499 150.882C276.327 144.662 265.675 145.156 265.675 138.76C264.606 134.179 268.52 126.638 273.827 126.973C276.48 127.96 276.137 130.567 275.239 131.73C271.345 136.487 275.774 140.416 278.79 139.747C290.855 132.699 305.765 126.656 319.949 132.224C318.002 136.487 310.537 136.311 306.28 136.804C299.007 138.602 312.484 137.615 314.088 138.443C325.79 143.517 313.019 144.345 307.884 144.011C301.317 143.517 313.916 146.953 314.451 150.071C310.556 152.697 298.663 148.098 295.99 148.433C294.921 150.723 303.97 154.494 304.867 157.595C307.006 161.189 302.386 162.352 299.904 160.379C266.725 136.311 319.242 246.993 213.139 212.284L204.796 199.263L196.454 186.243C199.336 184.939 209.263 182.984 211.039 184.939Z" fill="white"/>
<path d="M197.026 186.084C198.095 185.591 199.679 185.274 201.111 184.939C202.524 184.604 204.127 184.446 205.54 184.287C206.246 184.287 206.953 184.287 207.678 184.287C208.384 184.287 208.919 184.446 209.282 184.446H209.11L209.282 184.781L210.16 185.591L211.573 187.23C213.52 189.52 215.658 191.81 217.777 193.942C218.846 195.088 219.915 196.074 221.156 197.219C221.69 197.713 222.397 198.365 223.103 198.858C223.809 199.351 224.707 200.003 225.413 200.338C231.083 203.615 237.306 205.906 244.217 206.716C247.596 207.051 251.319 207.051 254.869 206.064C258.42 205.254 261.608 203.615 264.453 201.483C269.951 197.061 273.139 191.335 275.449 185.432C277.587 179.53 278.828 173.645 279.534 167.584C280.24 161.682 280.412 155.639 280.24 149.737V149.243V148.908V148.415C280.24 147.763 280.068 147.27 279.878 146.618C279.515 145.473 278.809 144.328 277.93 143.499C276.327 141.861 274.551 141.05 273.311 140.381C271.898 139.729 270.657 139.077 269.932 138.408C269.225 137.756 269.053 137.421 269.053 136.769V136.434V136.276C268.882 135.624 268.882 134.637 269.053 133.651C269.225 132.664 269.588 131.677 270.122 130.708C270.657 129.898 271.192 129.07 271.898 128.418C272.604 127.924 273.139 127.607 273.845 127.607L272.967 127.449C273.139 127.449 273.33 127.607 273.139 127.607C273.139 127.766 273.139 127.942 272.967 128.101C272.967 128.101 272.967 128.101 272.967 128.259L272.604 128.752C272.432 129.087 272.07 129.404 271.898 129.739C271.192 131.219 270.657 133.016 271.192 134.972C271.726 136.769 272.967 138.408 274.742 139.394C275.62 139.888 276.69 140.205 277.759 140.205C278.293 140.205 278.999 140.205 279.534 140.046C280.24 139.888 280.412 139.711 280.775 139.553C282.016 138.901 283.085 138.408 284.326 137.756L291.064 134.161C292.134 133.51 293.374 132.858 294.253 132.523C294.253 132.523 294.424 132.523 294.424 132.364L294.787 132.206L295.665 131.871C296.2 131.712 296.734 131.536 297.441 131.378C299.751 130.884 302.232 130.567 304.714 130.391C309.678 130.232 314.641 130.726 319.089 132.188L317.848 129.246C317.485 129.898 317.142 130.391 316.245 130.726C315.538 131.219 314.469 131.378 313.4 131.712C311.262 132.206 308.78 132.206 306.127 132.699C305.955 132.699 305.955 132.699 305.955 132.699C305.42 132.858 305.077 133.034 304.542 133.192C304.18 133.351 304.008 133.351 303.473 133.686L303.301 133.844C303.13 133.844 303.13 134.003 302.939 134.179C302.939 134.179 302.767 134.338 302.767 134.514C302.767 134.672 302.595 134.672 302.404 135.007C302.213 135.342 302.232 135.342 302.232 135.818C302.232 136.152 302.232 136.628 302.404 136.804C302.576 136.963 302.767 137.456 302.939 137.456C303.11 137.615 303.11 137.615 303.301 137.791C303.473 137.95 303.664 137.95 303.836 138.126C304.008 138.284 304.199 138.284 304.37 138.284C305.249 138.443 305.611 138.443 306.146 138.443H307.558C309.334 138.443 311.281 138.443 312.885 138.601C313.954 138.76 313.419 138.601 314.66 139.095C315.366 139.43 316.073 139.747 316.607 140.24C316.245 140.24 316.435 140.575 316.607 140.575C316.607 140.575 316.435 140.24 316.607 139.764C316.607 139.43 316.97 139.271 316.97 139.112C316.798 139.112 316.435 139.271 316.264 139.447C314.851 139.782 313.076 139.94 311.472 139.94C310.594 139.94 309.697 139.94 308.99 139.94H307.578C307.215 139.94 307.043 139.94 306.699 139.94C306.528 139.94 306.337 139.94 305.993 139.94C305.821 139.94 305.63 139.94 305.459 140.099C305.287 140.099 305.096 140.258 304.924 140.258C304.752 140.258 304.752 140.416 304.561 140.416L304.39 140.575L304.218 140.733C304.046 140.892 303.855 141.068 303.855 141.385C303.683 141.72 303.683 141.879 303.683 142.196C303.683 142.354 303.683 142.689 303.683 142.848C303.683 143.006 303.855 143.182 303.855 143.341C303.855 143.834 304.027 143.834 304.218 143.993C304.389 144.328 304.58 144.328 304.752 144.486C305.115 144.645 305.287 144.821 305.459 144.979L306.699 145.631L309.009 146.777C309.716 147.111 310.422 147.587 310.957 147.922C311.319 148.08 311.491 148.257 311.663 148.415C311.835 148.574 311.835 148.75 311.663 148.415L312.197 147.111C312.369 146.618 312.732 146.618 312.732 146.459C312.904 146.459 312.732 146.459 312.732 146.459C312.56 146.459 312.369 146.459 312.026 146.618C311.491 146.618 310.785 146.618 309.888 146.618C308.475 146.459 306.871 146.283 305.459 146.125L300.839 145.138L298.529 144.645L297.288 144.486L296.582 144.328C296.41 144.328 296.219 144.328 296.047 144.328H295.684C295.513 144.328 295.322 144.328 295.322 144.328H295.15C294.978 144.328 294.978 144.328 294.787 144.486C294.615 144.645 294.424 144.645 294.081 144.821C293.718 144.979 293.546 145.314 293.374 145.631C293.012 146.442 293.012 147.27 293.203 147.922C293.374 148.574 293.737 148.908 293.909 149.402C294.443 150.054 294.978 150.547 295.513 150.882C296.582 151.692 297.46 152.362 298.357 153.014C299.235 153.666 300.132 154.317 300.839 154.987C301.545 155.48 302.08 156.291 302.08 156.291L302.442 156.943C302.614 157.277 302.614 157.595 302.614 157.595C302.614 157.436 302.977 157.101 302.786 157.26C302.786 157.26 302.423 157.26 302.08 157.26C301.736 157.26 301.545 157.101 301.201 156.925L301.03 156.766C298.72 155.287 296.601 153.824 293.393 152.837C292.687 152.679 291.79 152.344 290.74 152.344C289.671 152.344 288.43 152.503 287.361 153.155C286.292 153.807 285.757 154.793 285.223 155.445C284.86 156.256 284.688 157.084 284.517 157.736C283.982 160.519 284.154 162.968 284.154 165.435C284.154 167.884 284.326 170.192 283.982 172.306V172.148C282.207 180.341 281.328 188.357 278.656 195.722C277.243 199.316 275.468 202.769 272.986 205.712C270.504 208.654 267.125 210.786 263.403 212.266C255.957 215.208 247.08 215.208 238.566 214.239C230.052 213.253 221.538 211.121 213.367 208.672C212.489 208.337 211.42 208.83 211.229 209.658C210.866 210.469 211.401 211.456 212.298 211.632C220.64 214.415 229.155 216.706 238.204 217.851C242.632 218.503 247.252 218.838 251.681 218.503C256.301 218.344 260.902 217.516 265.35 215.878C269.779 214.239 273.692 211.614 276.88 208.178C279.897 204.743 282.035 200.814 283.619 196.885C286.788 188.868 287.514 180.517 289.27 172.835V172.676C289.633 170.051 289.442 167.444 289.442 165.153C289.442 162.704 289.27 160.396 289.614 158.44C289.785 157.454 290.148 156.802 290.32 156.802C290.32 156.802 290.492 156.802 290.683 156.802C291.045 156.802 291.389 156.802 291.924 156.96C293.871 157.612 296.009 158.757 298.128 160.237L297.956 160.079C298.834 160.731 299.903 161.383 301.144 161.559C302.213 161.717 303.454 161.717 304.867 161.224C305.573 161.066 306.279 160.572 306.814 159.92C307.348 159.268 307.692 158.44 307.883 157.788C308.055 156.308 307.52 155.339 307.005 154.353V155.339C306.642 154.194 306.299 153.542 305.764 153.049C305.229 152.556 304.886 152.062 304.351 151.569C303.473 150.758 302.404 150.089 301.507 149.437C300.629 148.785 299.731 148.133 299.025 147.464C298.662 147.129 298.319 146.812 298.147 146.653C298.147 146.653 297.975 146.495 298.147 146.653C298.147 146.812 298.147 147.147 298.147 147.464L297.441 148.274C297.269 148.433 297.078 148.433 296.906 148.609C296.734 148.609 296.734 148.609 296.543 148.768H296.372C296.2 148.768 296.2 148.768 296.009 148.768H295.837H296.009H296.543L297.612 148.926L299.922 149.419L304.542 150.406C306.318 150.741 307.921 150.899 309.506 151.058C310.384 151.058 311.281 151.058 312.159 151.058C312.694 151.058 313.228 151.058 313.763 150.899C314.126 150.741 314.469 150.741 314.832 150.565C315.195 150.406 315.901 150.071 316.245 149.261C316.416 148.768 316.607 148.274 316.416 147.957C316.245 146.812 315.538 146.16 315.176 145.825C314.641 145.332 314.297 145.015 313.763 144.68C312.885 144.028 311.987 143.535 311.281 143.2L308.799 142.055L307.73 141.561C307.558 141.403 307.368 141.403 307.368 141.403C307.368 141.403 307.539 141.561 307.73 141.896C307.73 142.055 307.73 142.055 307.902 142.231C307.902 142.389 307.902 142.566 307.902 142.883C307.902 143.376 307.539 143.869 307.368 144.028L307.196 144.187L307.024 144.345C307.024 144.345 306.852 144.504 306.661 144.504C306.489 144.504 306.489 144.662 306.299 144.662C306.108 144.662 306.127 144.662 306.127 144.662H306.661H308.074C308.952 144.662 310.021 144.662 310.918 144.662C312.866 144.662 314.641 144.504 316.779 144.01C317.314 143.852 317.848 143.676 318.554 143.359C318.917 143.2 319.261 143.024 319.624 142.707C319.986 142.372 320.502 141.896 320.693 141.068C320.864 140.258 320.693 139.588 320.521 139.095C320.349 138.601 319.986 138.284 319.814 138.108C319.28 137.615 318.936 137.298 318.402 136.963C317.524 136.311 316.626 135.976 315.748 135.483L315.042 135.148L314.679 134.99L314.316 134.831C314.145 134.831 313.954 134.672 313.954 134.672C313.076 134.514 312.713 134.514 312.178 134.338C310.231 134.179 308.456 134.179 306.68 134.179H305.439C305.077 134.179 304.561 134.179 304.561 134.179C304.561 134.179 304.561 134.179 304.733 134.179C304.733 134.179 304.905 134.338 305.096 134.338C305.287 134.338 305.268 134.496 305.459 134.672C305.459 134.672 305.821 135.007 305.821 135.324C305.993 135.483 305.993 135.976 305.993 136.311C305.993 136.646 305.993 136.804 305.821 136.963C305.649 137.121 305.649 137.298 305.649 137.298L305.478 137.456L305.306 137.615H305.134C304.962 137.615 305.134 137.615 305.306 137.615C306.012 137.28 306.375 137.28 306.719 137.121H306.356C308.666 136.787 311.319 136.787 313.992 136.135C315.405 135.8 316.836 135.483 318.249 134.655C319.662 133.844 321.093 132.681 321.8 131.061C322.334 129.915 321.8 128.612 320.559 128.277C315.233 126.48 309.735 125.828 304.237 125.986C301.583 126.145 298.739 126.48 296.085 126.973C295.379 127.132 294.673 127.308 294.138 127.466L293.069 127.801L292.534 127.96C292.363 127.96 292.172 128.118 291.828 128.294C290.415 128.946 289.346 129.44 288.277 130.092L281.538 133.527C280.469 134.021 279.229 134.672 278.159 135.166C277.453 135.501 277.797 135.324 277.625 135.324C277.453 135.324 277.262 135.324 277.09 135.166C276.556 134.831 276.212 134.355 276.212 133.862C276.04 133.369 276.212 132.717 276.575 132.065C276.747 131.906 276.747 131.73 276.938 131.571L277.109 131.237L277.281 130.902C277.281 130.743 277.453 130.743 277.453 130.567C277.988 129.581 278.331 128.594 278.331 127.625C278.331 126.656 277.969 125.334 277.262 124.348C276.556 123.361 275.487 122.709 274.418 122.374C274.055 122.216 273.883 122.216 273.54 122.216H273.368C271.058 122.057 268.939 123.026 267.507 124.013C265.904 125.158 264.854 126.462 263.956 127.783C263.078 129.263 262.544 130.726 262.181 132.206C261.818 133.844 261.646 135.483 262.009 137.28V136.628C262.009 137.773 262.181 138.919 262.715 140.064C263.25 141.209 263.956 142.037 264.854 142.848C266.457 144.328 268.042 145.138 269.282 145.79C270.523 146.442 271.764 147.27 272.127 147.763C272.299 148.098 272.49 148.257 272.49 148.415C272.49 148.574 272.49 148.574 272.49 148.75V148.908V149.243V149.737C272.49 155.463 272.318 161.206 271.611 166.774C270.905 172.342 270.008 177.909 268.061 183.142C266.285 188.375 263.441 193.29 259.375 196.568C257.237 198.206 254.946 199.351 252.273 200.003C249.6 200.655 246.947 200.814 244.121 200.655C238.452 200.162 232.591 198.206 227.437 195.581C225.298 194.436 223.008 192.304 220.87 190.348C218.731 188.375 216.612 186.261 214.474 184.129L212.871 182.49L212.164 181.68L211.993 181.521C211.821 181.362 211.63 181.186 211.458 181.028C211.095 180.693 210.752 180.534 210.389 180.534C209.148 180.041 208.251 180.041 207.201 180.041C206.323 180.041 205.425 180.041 204.547 180.2C202.772 180.358 201.168 180.693 199.584 181.01C197.98 181.345 196.396 181.821 194.62 182.49C193.742 182.825 193.208 183.97 193.742 184.781C194.888 186.084 195.957 186.419 197.026 186.084Z" fill="#F15928"/>
<path d="M73 77.5209C73 75.8959 72.8542 74.3334 72.5833 72.8334H51V81.7084H63.3333C62.7917 84.5625 61.1667 86.9792 58.7292 88.6042V94.375H66.1667C70.5 90.375 73 84.5 73 77.5209Z" fill="#4285F4"/>
<path d="M50.9998 99.9167C57.1873 99.9167 62.3748 97.875 66.1665 94.375L58.729 88.6042C56.6873 89.9792 54.0832 90.8125 50.9998 90.8125C45.0415 90.8125 39.979 86.7917 38.1665 81.375H30.5415V87.2917C34.3123 94.7708 42.0415 99.9167 50.9998 99.9167Z" fill="#34A853"/>
<path d="M38.1668 81.3541C37.7085 79.9791 37.4377 78.5208 37.4377 77C37.4377 75.4791 37.7085 74.0208 38.1668 72.6458V66.7291H30.5418C28.9793 69.8125 28.0835 73.2916 28.0835 77C28.0835 80.7083 28.9793 84.1875 30.5418 87.2708L36.4793 82.6458L38.1668 81.3541Z" fill="#FBBC05"/>
<path d="M50.9998 63.2084C54.3748 63.2084 57.3748 64.375 59.7707 66.625L66.3332 60.0625C62.354 56.3542 57.1873 54.0834 50.9998 54.0834C42.0415 54.0834 34.3123 59.2292 30.5415 66.7292L38.1665 72.6459C39.979 67.2292 45.0415 63.2084 50.9998 63.2084Z" fill="#EA4335"/>
<g clip-path="url(#clip1_12988_1244)">
<path d="M304.344 53.8733C305.501 50.4006 305.102 46.5963 303.252 43.4375C300.469 38.5925 294.875 36.0998 289.412 37.2728C286.982 34.5348 283.49 32.9777 279.829 33C274.244 32.9872 269.289 36.5827 267.571 41.8963C263.984 42.631 260.887 44.8766 259.075 48.0593C256.272 52.8916 256.911 58.9829 260.656 63.1267C259.499 66.5994 259.897 70.4037 261.748 73.5625C264.53 78.4075 270.124 80.9002 275.588 79.7272C278.017 82.4652 281.51 84.0223 285.171 83.9984C290.759 84.0127 295.715 80.4141 297.433 75.0957C301.021 74.361 304.118 72.1154 305.93 68.9327C308.73 64.1004 308.089 58.0139 304.345 53.8701L304.344 53.8733ZM285.174 80.6659C282.938 80.6691 280.772 79.8865 279.056 78.4537C279.134 78.4123 279.269 78.3374 279.357 78.2832L289.512 72.4182C290.032 72.1234 290.351 71.5703 290.348 70.9727V56.656L294.64 59.1343C294.686 59.1566 294.716 59.2012 294.722 59.2522V71.1082C294.716 76.3803 290.446 80.6547 285.174 80.6659ZM264.64 71.8955C263.52 69.9607 263.117 67.6927 263.501 65.4918C263.576 65.5364 263.708 65.6177 263.802 65.6719L273.957 71.5369C274.472 71.8381 275.11 71.8381 275.626 71.5369L288.024 64.3777V69.3343C288.027 69.3853 288.003 69.4347 287.963 69.4666L277.698 75.3937C273.125 78.0266 267.286 76.4616 264.642 71.8955H264.64ZM261.968 49.728C263.083 47.79 264.844 46.3078 266.942 45.538C266.942 45.6257 266.937 45.7803 266.937 45.8887V57.6202C266.934 58.2163 267.253 58.7693 267.77 59.0642L280.168 66.2217L275.876 68.7C275.833 68.7287 275.779 68.7335 275.731 68.7127L265.464 62.7808C260.901 60.1384 259.336 54.3005 261.966 49.7296L261.968 49.728ZM297.231 57.9342L284.833 50.7751L289.125 48.2984C289.168 48.2697 289.222 48.2649 289.27 48.2857L299.537 54.2128C304.108 56.8537 305.675 62.7011 303.034 67.272C301.917 69.2068 300.157 70.689 298.061 71.4604V59.3781C298.066 58.7821 297.749 58.2306 297.233 57.9342H297.231ZM301.502 51.505C301.427 51.4588 301.295 51.3791 301.201 51.3249L291.046 45.4599C290.531 45.1587 289.893 45.1587 289.377 45.4599L276.979 52.6191V47.6625C276.976 47.6115 277 47.5621 277.04 47.5302L287.305 41.6078C291.878 38.9702 297.723 40.54 300.359 45.1141C301.474 47.0457 301.877 49.3072 301.499 51.505H301.502ZM274.646 60.3392L270.352 57.8609C270.306 57.8386 270.276 57.794 270.269 57.743V45.8871C270.273 40.6086 274.555 36.3309 279.834 36.3341C282.066 36.3341 284.228 37.1182 285.944 38.5462C285.866 38.5877 285.732 38.6626 285.643 38.7168L275.487 44.5818C274.968 44.8766 274.649 45.4281 274.652 46.0257L274.646 60.336V60.3392ZM276.978 55.3125L282.5 52.1234L288.022 55.3109V61.6875L282.5 64.875L276.978 61.6875V55.3125Z" fill="black"/>
</g>
</g>
<defs>
<clipPath id="clip0_12988_1244">
<rect width="339" height="310" fill="white" transform="matrix(-1 0 0 1 339 0)"/>
</clipPath>
<clipPath id="clip1_12988_1244">
<rect width="51" height="51" fill="white" transform="translate(257 33)"/>
</clipPath>
</defs>
</svg>
