<svg width="280" height="280" viewBox="0 0 280 280" fill="none" xmlns="http://www.w3.org/2000/svg">
<path fill-rule="evenodd" clip-rule="evenodd" d="M49.675 70.249L34.2983 49.5067L35.2066 43.3317L47.1532 54.4354L48.7726 49.1682L48.8734 31.2642L53.591 30.2368L57.9782 52.997L63.8766 47.0187L65.702 30.8444L69.9722 32.8283L67.4815 50.7544L69.3632 56.0423L80.3038 37.6166L89.1552 38.0453L82.3825 59.4883L77.619 68.6834L95.307 74.2907L94.9514 78.6295L77.0308 80.4242L67.2252 85.4032L61.8779 116.931L69.9396 149.527L88.4899 168.742L126.714 174.046L130.193 175.662L141.465 181.229L130.76 162.277L119.861 122.488L140.578 59.3255L164.874 36.6422L198.375 37.9076L222.958 80.5528L227.137 108.224L233.689 110.659L245.393 117.237L243.034 132.983L226.312 144.491L214.429 163.656L209.91 169.444L207.008 172.211L220.748 172.429L215.579 180.641L130.567 222.683L126.475 194.265L77.2501 180.067L50.7848 148.399L46.3353 113.611L50.7788 83.6483L49.675 70.2488L49.675 70.249Z" fill="white"/>
<path d="M25.1696 110.593C23.2087 99.0267 25.4079 88.8829 31.6696 79.5982C32.3087 78.6504 32.8628 77.3701 34.3604 78.1639C35.9421 79.0021 35.4481 80.2419 34.7216 81.3727C30.1862 88.4334 28.8614 96.4876 27.4361 104.522C27.0909 106.468 26.9504 108.53 25.1696 110.593Z" fill="#020202"/>
<path d="M12.7881 113.592C12.7924 110.662 12.7967 107.732 12.801 104.802C13.1182 102.804 13.2429 100.745 14.497 99.0199C14.9647 98.3771 15.5256 97.7936 16.4514 98.3459C17.0702 98.7149 17.1303 99.2734 16.8827 99.8546C14.4027 105.674 15.6156 111.655 16.234 117.558C16.7761 122.732 17.9891 127.835 18.2384 133.777C14.3448 127.102 13.5435 120.353 12.7881 113.592Z" fill="#050505"/>
<path d="M67.6804 33.4068C67.6907 36.4478 66.9707 38.8141 66.1369 41.1601C65.9783 38.6381 65.9784 36.1442 67.6804 33.4068ZM150.067 205.857C144.148 208.356 138.901 212.257 132.724 214.468C131.929 208.967 131.224 203.793 130.299 198.639C129.461 193.969 126.748 192.005 122.532 190.866C111.759 187.957 100.785 185.906 90.1498 182.344C80.65 179.162 72.8058 174.381 67.2952 165.882C65.1935 162.641 62.4227 159.839 60.0696 156.751C57.1291 152.892 54.3614 148.917 52.495 144.388C49.4379 136.971 49.3115 129.005 48.6796 121.251C47.6167 108.21 50.4518 95.6008 54.9818 83.3725C55.6249 81.6369 55.422 79.9564 55.2338 78.078C54.8586 74.3359 52.4646 71.5232 51.6458 68.0596C51.0755 65.6487 49.5582 63.7819 47.7464 62.0469C43.9617 58.4224 40.316 54.6409 37.4002 50.2529C36.6384 49.1061 35.7326 47.8434 36.765 46.3078C37.7647 46.6488 38.1399 47.485 38.6577 48.1426C40.8798 50.9645 42.8702 53.9699 45.4034 56.5443C46.5674 57.727 47.9041 58.4868 49.585 57.8903C51.379 57.2534 51.5312 55.7057 51.554 54.064C51.6141 49.761 51.0253 45.5439 50.0377 41.3704C49.4916 39.0619 49.6272 36.7395 49.9372 34.4252C50.0804 33.358 50.3628 31.9987 51.6099 32.0134C52.9143 32.0289 53.0224 33.4573 53.1004 34.4886C53.2979 37.1015 53.3091 39.7293 53.5281 42.3398C53.7954 45.5255 53.9982 48.739 54.611 51.8659C55.0526 54.1192 56.4109 56.0467 58.9986 56.3517C61.4788 56.6437 62.5936 54.8397 63.5848 52.9823C63.8743 52.4401 63.7868 51.6229 64.662 51.4643C64.793 53.4241 64.8483 55.3521 65.0746 57.2601C65.2307 58.5745 65.9195 59.6855 67.2567 60.1199C68.735 60.5999 69.9909 59.9777 70.879 58.8538C71.8965 57.5658 72.8667 56.2022 73.6127 54.7463C75.6008 50.8666 77.4796 46.9299 79.354 42.9931C79.9049 41.8355 80.5311 40.769 81.5153 39.9295C82.7391 38.8856 84.1086 39.2199 85.3713 39.677C86.8217 40.2019 86.1381 41.4354 86.0172 42.4396C85.4487 47.1583 83.6757 51.39 81.0173 55.3234C79.2269 57.9724 77.4888 60.686 76.0415 63.5301C72.8644 69.774 75.5684 74.1168 82.4873 74.2181C85.3964 74.2605 88.3407 73.8992 91.1978 74.728C92.1601 75.0072 93.5911 74.9693 93.516 76.4254C93.4556 77.5988 92.767 78.5789 91.5547 79.1019C89.5614 79.9622 87.5431 79.6991 85.5377 79.2972C81.1084 78.4093 76.6711 78.3152 72.1978 78.8997C67.9944 79.4489 64.4663 82.3927 63.3195 85.4532C60.3196 93.4592 58.3895 101.853 58.3155 110.64C58.2599 117.243 59.9314 123.513 60.6131 129.957C62.2875 145.784 69.1267 158.689 82.9912 167.179C92.4843 172.992 103.077 175.427 114.116 175.545C119.363 175.601 124.62 175.176 130.094 176.1C126.427 171.721 122.214 169.673 116.911 170.061C115.267 170.181 113.596 170.123 111.95 169.996C102.441 169.259 93.3347 167.165 85.204 161.893C80.9911 159.161 77.8675 155.274 74.3962 151.75C72.3595 149.682 71.1121 147.231 70.1745 144.54C67.7353 137.538 66.9012 130.197 65.3686 123C62.9529 111.655 65.0126 100.797 67.8944 89.9971C69.4441 84.1899 71.6662 82.9752 77.5775 82.8863C80.3334 82.8448 82.9981 83.3483 85.6786 83.8342C88.5133 84.3482 91.2925 84.3036 93.9439 82.9886C96.3886 81.7763 98.6017 78.1645 98.3018 75.5829C97.95 72.555 95.7931 71.1894 93.1457 70.3039C89.7345 69.1633 86.1985 69.6267 82.7167 69.4131C79.7234 69.2293 79.0167 68.2597 80.4234 65.5922C81.8229 62.9385 83.4409 60.3862 85.1242 57.8979C88.6319 52.7127 90.7512 47.0788 91.0286 40.8035C91.1582 37.8763 89.6782 36.0576 86.9581 35.1531C81.8093 33.4407 77.855 35.2298 75.3099 40.4958C73.5616 44.1134 72.0155 47.8346 69.5795 51.588C69.2976 49.6915 69.4986 48.2953 69.7974 46.8908C70.6452 42.9061 71.533 38.928 72.2716 34.9229C72.8007 32.0538 71.095 28.9549 68.8002 28.2383C66.4041 27.4902 64.6483 28.7011 63.2384 32.1132C61.7293 35.765 61.4843 39.6539 61.2313 43.5193C60.9959 47.1191 60.5328 48.9148 59.047 50.5539C58.1923 45.7401 57.8074 40.9181 57.8627 36.0495C57.9082 32.0144 56.776 28.5965 52.5408 27.043H50.788C47.153 28.5055 45.4683 31.2303 45.1837 35.0987C44.9672 38.0428 45.272 40.8923 45.784 43.768C46.1558 45.8566 46.8298 47.9406 46.6193 50.576C44.2533 47.6972 42.3359 45.1514 40.1835 42.8219C38.8043 41.3291 36.877 40.7295 34.8474 41.4032C32.8201 42.0761 32.273 43.8309 31.9659 45.7486C31.5794 48.1606 32.1022 50.2933 33.2972 52.4248C35.4194 56.2104 38.4385 59.2959 41.4423 62.2565C46.3418 67.0857 47.3003 73.131 47.9188 79.3971C48.3555 83.8196 47.1835 88.0565 45.9594 92.2429C43.0987 102.027 42.1741 112.021 42.5174 122.166C42.6389 125.756 43.6484 129.22 43.8484 132.828C44.2785 140.592 46.6184 147.761 50.9761 154.36C55.0598 160.543 60.1613 165.884 64.5687 171.789C69.7749 178.765 76.762 183.297 84.9219 186.234C96.842 190.524 109.161 193.083 121.64 195.005C123.278 195.257 124.433 195.543 124.267 197.758C124.119 199.748 124.572 201.81 124.94 203.807C125.969 209.398 125.52 215.258 127.99 220.586C129.527 220.763 129.894 218.913 131.217 218.722C135.622 216.536 139.688 213.779 143.865 211.207C144.859 210.486 145.987 209.987 147.008 209.311C148.046 208.175 150.353 208.163 150.067 205.857Z" fill="#F05A29"/>
<path d="M241.918 126.853C239.301 134.381 234.046 138.783 226.009 139.306C222.787 139.516 221.445 140.934 220.68 143.905C218.976 150.514 216.411 156.75 212.15 162.243C206.779 169.169 199.793 173.728 191.628 176.513C178.988 180.824 166.086 182.355 152.888 179.352C147.44 178.113 143.256 175.04 139.839 170.642C127.871 155.24 123.757 137.55 124.3 118.465C124.318 117.808 124.603 117.158 124.763 116.505C125.178 115.514 125.513 114.496 125.817 113.468C125.868 113.036 125.927 112.608 125.991 112.189C126.418 109.393 126.872 106.637 127.713 103.927C128.082 102.737 128.501 101.564 128.865 100.374C128.935 100.145 129.002 99.9151 129.069 99.6858C129.072 99.6746 129.079 99.6485 129.088 99.6165C129.118 99.4807 129.205 99.1101 129.223 99.0258C129.308 98.6226 129.376 98.2171 129.431 97.8098C129.245 97.744 129.064 97.6397 128.891 97.4743C130.57 92.0209 132.584 86.7391 136.346 82.2938C136.747 81.8205 136.877 81.0501 136.968 80.3949C138.932 66.1264 146.055 54.7977 157.009 45.7473C167.008 37.4863 178.338 35.5863 190.671 39.3365C193.632 40.2369 196.155 42.0016 198.023 44.4063C208.269 57.5967 217.096 71.5826 221.741 87.824C223.769 94.9138 223.701 102.222 223.866 109.497C223.987 114.853 225.45 116.099 230.469 114.434C233.951 113.278 237.146 112.807 239.762 115.953C242.432 119.165 243.31 122.846 241.917 126.853L241.918 126.853ZM245.688 113.227C242.817 109.109 238.845 106.222 233.635 107.038C230.403 107.544 230.329 106.15 230.313 103.946C230.271 98.0073 229.803 92.1256 228.274 86.3493C225.488 75.8254 220.55 66.2712 214.959 57.0369C211.945 52.0575 208.578 47.2975 205.14 42.5821C199.334 34.6208 191.334 30.9719 181.821 30.8522C170.622 30.7115 160.439 33.648 151.721 41.3653C142.783 49.2774 136.668 58.8728 132.893 69.9661C131.15 75.0878 128.708 79.8717 126.445 84.6921C120.567 97.211 117.633 110.268 117.261 120.816C117.65 141.153 121.726 155.3 130.886 169.692C133.635 174.01 136.466 178.74 140.96 181.225C149.867 186.15 159.83 188.082 169.923 187.802C179.065 187.547 188.109 185.855 196.411 181.584C204.123 177.615 211.661 173.47 217.061 166.296C221.161 160.85 223.92 154.815 225.925 148.399C226.529 146.47 227.087 145.206 229.482 145.131C232.019 145.052 234.334 143.808 236.589 142.647C245.378 138.122 253.526 124.472 245.688 113.227Z" fill="#F05A29"/>
<path d="M128.892 97.4745C124.062 101.621 122.678 107.361 121.727 113.237C121.394 115.295 122.52 116.552 124.765 116.504C126.07 115.954 126.514 114.936 126.749 113.568C127.355 110.043 128.318 106.622 130.201 103.502C131.346 101.606 132.178 101.718 133.06 103.642C134.418 106.607 134.491 109.828 134.976 112.968C135.167 114.21 135.343 115.964 136.553 116.071C137.987 116.198 138.609 114.494 138.932 113.189C140 108.871 139.22 104.75 137.256 100.84C135.406 97.1589 132.875 96.1855 128.892 97.4745Z" fill="#010101"/>
<path d="M179.477 118.443C180.107 116.461 180.004 114.417 180.012 111.778C179.956 108.483 179.669 104.611 177.999 101.012C176.818 98.4677 175.21 96.1455 172.105 96C168.906 95.8498 166.873 97.9604 165.503 100.529C163.173 104.898 162.566 109.722 162.333 114.59C162.255 116.227 162.544 117.98 164.568 118.046C166.903 118.123 166.951 116.21 166.902 114.496C166.789 110.591 168.317 107.119 169.768 103.633C170.134 102.755 170.648 101.577 171.621 101.588C172.866 101.603 173.036 103.049 173.388 103.975C174.221 106.162 174.479 108.481 174.578 110.817C174.69 113.434 174.837 116.053 175.669 118.568C176.004 119.581 176.378 120.845 177.624 120.784C178.822 120.725 179.151 119.47 179.477 118.443Z" fill="#010101"/>
<path d="M195.618 116.52C195.314 114.949 195.045 112.811 192.988 112.873C190.982 112.933 191.485 115.106 191.333 116.396C190.491 123.549 187.317 129.222 181.167 133.146C179.948 133.923 178.754 134.771 178.053 136.413C179.332 137.232 180.592 137.386 182 137.064C189.916 135.253 197.147 124.435 195.618 116.52Z" fill="#010101"/>
<path d="M157.346 91.0541C154.885 90.9513 152.4 93.2559 152.384 95.7864C152.368 98.3406 154.289 99.017 156.288 99.2233C158.642 99.4661 161.152 97.3222 161.271 95.2496C161.397 93.0584 159.61 91.1486 157.346 91.0541Z" fill="#F05C2C"/>
<path d="M160.941 78.8452C158.737 78.9057 157.006 81.1029 157.194 83.5247C157.37 85.8034 158.675 86.9854 160.632 87.134C163.203 87.0388 165.135 84.7199 164.874 82.2329C164.634 79.9508 163.218 78.7825 160.941 78.8452Z" fill="#F05C2C"/>
<path d="M148.272 75.3564C146.256 75.116 144.423 77.1385 144.44 79.559C144.455 81.7595 145.477 83.2943 147.827 83.4704C149.904 83.6262 151.746 81.6074 151.795 78.9645C151.458 77.246 150.537 75.6264 148.272 75.3564Z" fill="#F05C2C"/>
<path d="M164.312 64.0588C162.268 63.9295 160.074 65.882 160.294 67.7544C160.535 69.8076 161.977 70.969 163.962 71.2293C165.907 71.4842 167.578 69.7377 167.622 67.2282C167.554 65.4912 166.497 64.1969 164.312 64.0588Z" fill="#F05C2C"/>
<path d="M146.459 87.6488C144.362 87.5914 143.215 88.874 143.18 90.912C143.146 92.8456 144.28 94.0368 146.199 94.1306C148.235 94.2299 149.448 93.1355 149.724 90.9806C149.487 89.0898 148.537 87.7059 146.459 87.6488Z" fill="#F05C2C"/>
<path d="M151.082 65.0289C153.397 64.9411 153.778 63.1836 153.994 61.2055C153.91 60.0937 153.542 58.7593 152.051 59.0635C150.287 59.4232 148.828 60.5531 148.78 62.6197C148.746 64.0802 149.534 65.0877 151.082 65.0289Z" fill="#F05C2C"/>
<path d="M127.538 220.451C128.73 219.971 128.7 218.005 130.382 218.121C132.191 221.466 132.9 225.206 134.201 228.733C134.905 230.64 135.448 232.612 136.398 234.417C136.874 235.324 137.394 236.716 138.627 236.238C139.899 235.744 139.316 234.407 138.965 233.424C138.412 231.874 137.848 230.327 137.283 228.781C136.988 227.972 136.533 226.891 137.447 226.405C138.521 225.834 139.165 226.907 139.69 227.685C140.556 228.97 141.303 230.332 142.16 231.624C142.477 232.103 142.878 232.724 143.503 232.527C144.391 232.246 144.136 231.391 143.952 230.79C142.989 227.637 141.802 224.555 140.28 221.638C139.436 220.021 139.096 218.535 140.206 217.036C141.666 215.066 142.444 212.809 143.237 210.545C143.996 209.608 145.184 209.382 146.15 208.787C147.937 208.879 149.62 211.309 151.576 208.891C152.004 208.363 152.701 209.27 153.047 209.86C155.085 213.331 155.085 213.329 158.85 212.024C159.024 211.964 159.228 212.039 159.413 212.107C160.66 213.055 159.972 214.426 160.181 215.48C160.278 213.907 159.862 212.115 161.108 210.63C162.697 210.269 162.5 211.564 162.622 212.381C162.908 214.302 163.28 216.202 163.951 218.016C164.521 219.554 165.426 220.728 167.409 220.371C169.087 220.068 170.26 221.39 171.694 221.886C172.607 223.295 171.464 224.233 170.854 225.237C168.789 228.633 166.186 231.673 164.236 235.151C163.628 236.235 162.974 237.288 162.562 238.852C165.044 237.576 166.093 235.437 167.608 233.747C168.335 232.936 168.792 231.241 170.496 232.419C171.044 234.739 171.137 237.089 170.989 239.456C170.612 241.06 169.379 241.236 168.03 241.221C167.043 241.085 166.303 241.604 165.576 242.153C164.125 242.301 163.86 243.051 164.506 244.263C164.289 245.279 165.845 246.469 164.746 247.127C163.596 247.817 162.712 246.425 161.998 245.625C160.989 244.496 159.747 243.748 158.492 242.979C158.112 240.208 157.785 237.428 157.16 234.695C156.737 232.843 155.785 231.941 153.83 232.876C153.655 232.959 153.489 233.065 153.309 233.132C151.788 233.698 149.616 232.993 148.957 235.244C148.25 237.658 149.314 239.809 150.221 241.92C150.668 242.961 151.617 243.789 151.488 245.065C151.515 247.036 149.986 246.716 148.785 246.89C148.219 246.808 147.818 246.488 147.515 246.023C147.01 245.093 146.779 244.058 146.388 243.082C145.643 241.222 144.094 241.202 142.545 241.505C140.848 241.836 141.064 243.255 141.181 244.497C141.313 245.896 142.804 248.204 141.841 249.555C141.121 250.134 139.51 249.613 138.576 249.17C138.067 246.838 137.783 244.45 137.674 242.089C137.532 239.046 135.155 238.002 133.289 236.477C132.565 235.885 132.051 236.454 131.822 237.197C131.516 238.189 131.495 239.319 130.428 239.925C129.975 240.072 129.559 240.017 129.191 239.703L129.197 239.719C128.943 236.771 128.249 233.781 129.799 230.972C130.567 229.581 129.241 229.654 128.659 229.193C127.623 226.363 128.361 223.307 127.538 220.451Z" fill="#EB421B"/>
<path d="M204.591 183.727C209.161 180.584 213.393 177.031 217.405 173.212C220.005 174.032 219.39 175.926 218.938 177.765C216.267 178.773 215.567 180.761 215.853 183.455C216.076 185.559 215.898 187.691 216.215 189.816C216.552 192.072 216.807 194.109 219.286 195.271C220.778 195.971 220.737 197.714 220.262 199.163C219.692 200.905 218.289 200.024 217.317 199.765C214.257 198.952 211.592 199.758 209.055 201.397C208.487 201.764 207.987 202.232 207.349 202.495C203.937 203.903 203.915 203.975 204.887 207.523C205.553 209.95 206.296 212.352 207.103 214.734C208.49 218.346 208.968 222.277 211.011 225.669C211.677 226.774 211.726 227.947 210.249 228.554C208.804 229.147 208.003 228.33 207.606 227.091C206.423 223.395 205.802 219.538 204.404 215.904C203.76 214.232 203.321 211.677 201.007 212.388C198.377 213.195 200.059 215.475 200.52 217.085C201.802 221.553 203.22 225.982 204.316 230.503C204.206 231.586 203.659 232.271 202.53 232.383C201.418 232.494 200.241 232.296 200.046 234.018C199.946 234.893 198.932 234.528 198.337 234.389C196.819 234.036 195.302 234.091 193.779 234.222C192.869 234.111 192.115 234.459 191.439 235.032C190.872 235.351 190.245 235.169 189.645 235.248C189.105 235.133 188.678 234.849 188.351 234.407C187.646 232.484 188.597 231.214 190.04 230.135C191.466 230.171 192.726 230.028 193.037 228.224C193.177 227.41 193.929 227.11 194.601 227.534C196.135 228.504 197.574 226.958 199.087 227.491C199.579 227.664 200.119 227.247 200.048 226.706C199.776 224.639 199.992 222.026 197.949 221.018C195.616 219.866 195.001 217.898 194.092 215.924C193.707 213.706 193.906 211.426 193.335 209.233C193.295 208.077 193.238 206.92 193.027 205.773C192.884 204.999 192.768 203.885 193.471 203.64C195.423 202.961 196.362 201.225 197.822 200.113C198.984 199.228 199.99 198.534 200.734 197.186C201.61 195.602 203.356 196.561 204.366 197.028C206.499 198.017 206.656 196.887 206.71 195.371C206.807 192.635 206.206 189.996 205.515 187.373C205.195 186.161 204.66 185.002 204.591 183.727Z" fill="#EB421B"/>
<path d="M187.024 190.033C185.089 192.393 185.994 194.924 186.671 197.383C187.126 199.032 187.461 200.542 185.889 201.778C185.411 204.277 183.658 205.837 181.797 207.319C180.115 206.85 179.72 205.305 179.391 203.987C178.651 201.024 175.983 200.559 173.858 199.433C173.003 198.98 172.15 199.509 171.915 200.556C171.749 201.296 171.991 202.105 171.552 202.805C170.209 203.535 169.488 201.367 168.144 202.078C167.102 201.852 166.502 201.124 166.032 200.246C165.516 199.276 165.241 197.754 163.833 199.639C162.919 200.865 161.487 200.918 160.146 200.482C159.249 200.19 158.264 199.702 159.026 198.406C161.01 196.73 162.979 195.036 164.989 193.393C165.414 193.046 166.003 192.641 166.492 192.67C173.507 193.075 180.25 191.445 187.024 190.033Z" fill="#EB421B"/>
<path d="M226.102 176.193C227.727 177.538 229.103 179.105 230.278 180.852C231.421 183.911 231.095 187.097 231.044 190.249C231.021 191.693 230.938 193.31 229.294 193.903C227.659 194.493 226.996 192.915 226.024 192.016C225.231 192.529 225.38 193.604 224.695 194.14C223.148 194.588 223.247 193.225 222.982 192.457C222.45 190.914 222.118 189.306 221.761 187.71C221.569 188.047 221.646 187.455 221.62 187.532C220.935 189.576 220.187 190.22 219.149 187.736C219.076 187.562 219.143 187.261 219.034 187.184C215.412 184.611 218.2 181.903 218.847 179.241C219.091 178.826 219.461 178.487 219.61 178.018C220.1 176.481 220.721 174.935 222.69 175.189C224.636 175.439 225.007 177.066 225.11 178.498C225.26 177.793 224.536 176.568 226.102 176.193Z" fill="#E83715"/>
<path d="M224.431 194.22C224.5 192.743 225.037 191.415 225.696 190.094C225.886 190.185 226.083 190.212 226.151 190.32C226.93 191.557 227.225 193.805 229.034 193.361C230.811 192.924 230.258 190.78 230.281 189.287C230.324 186.476 230.284 183.664 230.279 180.852C230.88 182.446 232.018 183.675 233.087 184.95C233.244 189.813 234.135 194.61 234.388 199.464C234.387 202.538 234.396 205.612 234.38 208.686C234.362 211.979 234.898 215.381 232.575 218.242C232.263 217.792 231.95 217.341 231.638 216.891C230.58 211.607 231.735 206.351 231.832 201.081C231.848 200.212 231.88 199.337 231.712 198.476C231.598 197.893 231.411 197.294 230.73 197.19C229.908 197.064 229.51 197.659 229.229 198.302C228.713 199.486 228.896 200.785 228.667 202.011C228.306 203.938 228.516 206.191 226.141 207.149C225.374 205.997 224.606 204.845 223.838 203.693C223.795 203.584 223.789 203.473 223.821 203.361C224.757 201.55 224.732 199.682 224.214 197.76C223.892 196.571 223.416 195.341 224.431 194.22Z" fill="#F05929"/>
<path d="M226.142 207.148C227.457 205.383 227.95 203.359 227.944 201.205C227.941 199.942 228.087 198.737 228.487 197.52C228.902 196.257 229.708 195.897 230.903 195.987C232.285 196.091 232.609 196.982 232.646 198.177C232.763 202.029 232.635 205.874 231.957 209.666C231.729 210.94 231.565 211.947 232.341 213.167C233.127 214.403 232.552 215.77 231.638 216.891C229.465 213.835 227.552 210.632 226.142 207.148Z" fill="#E83615"/>
<path d="M250.245 212.997C250.933 210.689 250.059 208.439 249.901 206.171C249.83 205.138 249.587 204.081 249.554 203.017C254.427 208.437 259.301 213.856 264.174 219.275C263.825 219.711 263.445 220.104 262.864 220.221C261.532 220.448 261.034 219.336 260.311 218.61C258.467 216.759 256.577 214.952 254.78 213.054C256.297 214.729 258 216.225 259.519 217.894C260.026 218.451 261.352 219.017 260.441 219.908C259.774 220.561 258.544 220.934 257.492 220.133C256.407 219.306 255.494 218.297 254.543 217.332C253.115 215.882 251.588 214.53 250.245 212.997Z" fill="#EE5C35"/>
<path d="M159.01 212.291C158.914 208.193 156.895 204.478 156.624 200.414C157.424 199.745 158.225 199.076 159.026 198.406C159.191 199.99 160.333 199.997 161.55 200.067C163.781 200.197 163.753 198.117 164.758 196.763C165.477 197.931 166.459 198.726 166.606 200.04C166.068 200.735 165.408 201.546 164.629 201.649C160.935 202.136 161.474 204.755 161.595 207.231C161.648 208.337 162.278 209.495 161.364 210.538C160.828 212.857 160.611 215.214 160.804 218.024C158.584 216.229 160.534 213.766 159.01 212.291Z" fill="#F05929"/>
<path d="M234.388 199.464C232.679 194.74 231.982 189.925 233.087 184.949C234.516 186.624 235.945 188.298 237.374 189.973C237.35 192.292 237.491 194.629 237.24 196.924C237.083 198.364 237.125 200.641 234.388 199.464Z" fill="#E52E11"/>
<path d="M244.887 197.764C244.767 200.063 245.265 202.395 244.582 204.657C244.403 205.251 244.213 206.146 243.379 206.038C242.92 205.978 242.374 205.42 242.144 204.951C240.427 201.454 240.153 197.846 241.51 194.156C242.904 195.108 243.925 196.409 244.887 197.764Z" fill="#E3290F"/>
<path d="M149.027 246.678C150.851 248.219 153.166 249.334 153.686 252.011C153.134 252.185 152.733 252.935 152.009 252.445C150.753 252.238 150.16 251.141 149.276 250.431C148.548 249.679 147.77 248.963 147.393 247.945C147.389 247.263 146.498 246.358 147.868 246.014C148.254 246.235 148.64 246.456 149.027 246.678Z" fill="#ED5E3F"/>
<path d="M157.984 243.671C160.221 244.202 158.486 247.396 160.808 247.868C161.009 248.376 161.122 247.805 161.514 248.786C160.569 248.127 160.131 248.837 159.603 248.47C158.567 246.618 156.741 245.491 155.406 243.914C156.107 242.158 157.065 243.126 157.984 243.671Z" fill="#E94B2E"/>
<path d="M146.128 251.877C146.25 252.443 146.561 252.857 147.102 253.086C147.418 253.69 147.619 254.276 146.855 254.717C145.939 253.725 145.069 252.681 143.847 252.031C142.419 251.499 141.487 250.514 141.089 249.037C141.178 248.5 141.151 247.898 141.83 247.68C143.747 248.277 144.707 250.078 146.235 251.167C146.376 251.429 146.348 251.668 146.128 251.877Z" fill="#EF7257"/>
<path d="M153.645 247.774C153.451 247.709 150.997 245.41 150.804 245.344C150.392 242.921 148.707 241.008 148.186 238.592C147.698 236.328 147.539 233.852 149.804 233.08C151.7 232.435 153.765 231.613 155.873 231.63C156.905 231.639 157.632 232.496 157.772 233.535C158.207 236.76 159.23 239.913 159.005 243.221" fill="#E4290F"/>
<path d="M137.932 249.677C137.226 250.478 136.51 250.361 135.788 249.7C135.006 250.237 134.497 251.381 133.232 250.845C133.06 250.789 132.889 250.729 132.719 250.665C131.87 249.753 132.278 248.639 132.352 247.648C132.569 244.759 130.998 242.351 130.385 239.691C130.978 238.738 130.904 237.661 131.015 236.604C131.159 235.225 132.723 234.491 133.224 235.218C134.691 237.345 138.458 237.418 138.191 241.095C138.002 243.699 139.839 246.265 138.54 248.962C138.703 249.096 138.776 249.245 138.76 249.411C138.742 249.585 138.712 249.672 138.667 249.673C138.423 249.857 138.178 249.858 137.932 249.677Z" fill="#E3280E"/>
<path d="M142.031 247.928C141.441 248.192 141.502 248.709 141.532 249.213C141.044 249.204 140.781 248.997 140.882 248.473C141.21 246.791 140.337 245.253 140.302 243.608C140.272 242.259 140.542 240.486 141.842 240.625C143.412 240.792 145.64 239.465 146.669 241.882C147.235 243.212 147.909 244.51 147.868 246.014C147.134 246.61 147.954 247.183 147.894 247.77C146.657 247.964 145.413 248.103 144.164 248.179C143.454 248.102 142.723 248.178 142.031 247.928Z" fill="#E3280E"/>
<path d="M223.988 203.28C223.741 202.758 223.307 202.638 222.79 202.76C220.715 203.249 218.894 204.448 216.791 204.889C216.081 205.038 215.869 205.785 215.59 206.419C214.217 209.546 213.101 209.835 210.468 207.799C208.496 206.275 207.879 206.524 207.117 208.96C206.478 211.004 207.121 213.184 206.347 215.197C208.101 218.837 208.132 223.138 210.723 226.469C211.219 227.106 210.99 227.759 210.112 228.015C209.453 228.206 208.761 228.485 208.459 227.53C208.286 226.983 208.187 226.413 208.031 225.86C206.831 221.611 206.018 217.244 204.161 213.193C203.418 211.573 202.202 210.655 200.458 211.27C198.648 211.909 198.462 213.425 198.994 215.109C200.667 220.4 202.324 225.696 203.987 230.989C203.772 231.616 204.083 232 204.594 232.291C204.867 232.328 205.113 232.264 205.331 232.094C206.022 230.606 207.302 230.651 208.633 230.816C209.026 230.882 209.42 230.912 209.818 230.868C210.078 230.826 210.328 230.755 210.568 230.646C211.438 230.156 212.222 229.483 213.272 229.381C214.835 229.375 216.224 228.502 217.783 228.463C218.899 227.948 220.316 234.562 221.416 234.248C221.732 234.07 221.898 228.347 221.896 228.172C221.837 223.358 222.827 218.618 222.795 213.787C222.772 210.433 222.651 206.967 223.839 203.693C223.889 203.555 223.938 203.418 223.988 203.28Z" fill="#E42B10"/>
<path d="M201.356 196.951C203.155 197.833 205.364 197.272 206.67 199.667C208.08 193.659 207.465 188.542 204.592 183.727C200.339 185.746 196.259 188.171 191.42 188.718C189.924 188.888 188.487 189.58 187.024 190.033C184.858 191.334 184.941 193.337 185.405 195.404C185.851 197.393 186.451 199.356 185.714 201.401C186.573 202.647 187.843 203.73 187.317 205.506C187.849 208.473 188.55 211.313 192.183 211.954C194.048 211.727 193.109 209.806 193.988 208.986C194.097 205.574 194.096 205.574 196.594 203.068C197.076 202.584 197.527 202.091 197.569 201.351C197.59 200.983 197.629 200.403 198.074 200.485C200.976 201.017 200.872 198.676 201.356 196.951Z" fill="#E42B10"/>
<path d="M149.613 205.722C149.025 207.38 147.096 207.532 146.15 208.787C148.033 210.132 149.747 213.3 152.02 209.027C153.968 214.971 155.057 215.438 159.01 212.292C160.115 207.952 158.268 204.204 156.623 200.415C154.287 202.184 151.95 203.952 149.613 205.722Z" fill="#E42B10"/>
<path d="M140.941 221.439C139.613 219.281 140.208 217.576 141.434 216.357C143.204 214.599 143.338 212.694 143.236 210.545C138.952 213.07 134.667 215.596 130.382 218.121C131.227 223.495 133.426 228.451 135.187 233.541C135.594 234.716 136.095 235.81 137.023 236.766C138.666 238.458 139.433 237.667 140.104 235.981C140.505 234.97 140.076 234.119 139.717 233.207C138.888 231.101 138.138 228.965 137.356 226.841C139.528 228.039 140.266 230.154 141.414 231.968C142.114 233.076 142.887 234.358 144.326 233.624C145.567 232.99 145.101 231.536 144.713 230.499C143.566 227.429 142.635 224.194 140.941 221.439Z" fill="#E42B10"/>
<path d="M179.892 203.23C179.214 199.885 175.978 199.679 173.748 198.494C172.678 197.925 170.297 198.635 171.183 201.25C171.36 201.774 171.248 202.396 171.27 202.972C170.3 204.015 170.803 205.174 171.06 206.278C171.568 208.467 172.192 210.631 172.594 212.836C171.942 209.927 171.266 207.026 170.229 204.219C169.865 203.233 169.553 202.158 168.346 201.806C167.573 201.406 166.978 200.833 166.606 200.04C164.809 199.972 163.63 201.857 161.639 201.507C160.967 201.388 160.773 202.604 160.755 203.405C160.7 205.806 160.761 208.194 161.364 210.538C161.938 213.038 162.564 215.528 163.069 218.043C163.41 219.746 165.086 221.631 165.84 221.312C168.285 220.277 169.867 222.669 171.965 222.231C173.178 222.358 173.66 221.413 174.132 220.623C176.303 216.989 178.773 213.549 181.027 209.97C181.569 209.11 182.286 208.214 181.782 207.049C180.714 205.992 180.177 204.634 179.892 203.23Z" fill="#E42B10"/>
<path d="M147.991 217.15C147.648 216.417 147.21 215.779 146.263 215.896C145.616 215.977 145.123 216.429 145.091 217.017C144.912 220.322 145.466 223.502 147.185 226.373C147.617 227.094 148.398 227.715 149.405 227.196C150.221 226.775 150.259 225.98 150.231 225.183C149.657 222.457 149.183 219.704 147.991 217.15Z" fill="#E42B10"/>
<path d="M170.011 231.915C170.393 231.373 170.775 230.831 171.157 230.289C172.708 229.995 173.566 231.032 173.907 232.177C174.516 234.222 175.348 236.295 174.787 238.525C174.74 240.627 173.753 238.522 173.173 238.847C172.275 239.349 171.155 239.456 170.13 239.731C170.09 237.126 170.051 234.521 170.011 231.915Z" fill="#F05929"/>
<path d="M218.601 177.904L219.199 179.053C219.154 180.659 219.55 182.366 217.792 183.486C217.303 183.797 217.402 185.011 217.717 184.998C220.507 184.881 219.378 187.511 220.251 188.787C221.513 187.766 220.511 186.409 221.328 185.218C223.36 187.958 222.853 191.477 224.431 194.219C224.096 196.598 225.578 198.704 225.389 201.129C225.287 202.426 224.928 203.017 223.823 203.361C221.332 203.175 219.68 205.642 217.132 205.428C216.273 205.356 216.322 206.335 216.263 206.994C216.128 208.506 215.367 209.555 213.865 209.861C212.387 210.162 210.968 210.061 210.044 208.569C209.71 208.031 209.513 207.157 208.652 207.372C207.8 207.583 208.218 208.533 207.922 209.095C207.353 210.176 207.519 211.35 207.514 212.496C207.51 213.573 207.57 214.655 206.346 215.197C205.451 212.238 204.514 209.29 203.671 206.316C202.841 203.387 203.549 202.467 206.621 201.911C208.18 201.628 209.58 200.471 210.67 199.65C213.805 197.286 216.53 199.351 219.617 199.362C219.906 197.523 220.349 195.597 217.276 195.162C216.265 195.019 215.92 193.794 215.765 192.845C215.08 188.629 215.035 184.375 215.089 180.113C215.122 177.475 216.989 177.937 218.601 177.904Z" fill="#E3290E"/>
<path d="M190.021 230.371C191.801 225.779 193.661 221.214 194.662 216.365C195.957 217.932 196.968 219.53 198.931 220.736C200.842 221.911 200.855 225.103 200.893 227.597C200.898 227.965 200.099 228.679 200.079 228.665C198.165 227.3 195.965 231.118 193.833 228.047C194.053 231.535 192.777 231.866 190.021 230.371Z" fill="#E83514"/>
<path d="M191.146 235.11C193.296 237.326 195.445 239.542 197.594 241.756C197.617 242.851 197.293 243.251 196.379 242.325C194.852 240.78 193.342 239.218 191.825 237.665C191.74 236.358 190.536 235.864 189.864 234.981C190.357 234.372 190.725 235.008 191.146 235.11Z" fill="#F8C3B4"/>
<path d="M188.376 224.032L187.521 226.242C186.929 226.274 186.615 225.878 186.515 225.41C185.602 221.108 183.949 217.019 182.896 212.759C184.295 210.16 185.582 207.492 187.584 205.269C188.659 207.852 189.316 210.741 192.414 211.847C192.313 213.446 191.96 214.977 191.184 216.394C190.592 216.609 190.333 216.186 190.054 215.806C189.559 215.132 189.166 214.145 188.076 214.701C187.168 215.164 187.23 216.144 187.303 216.989C187.506 219.358 188.291 221.642 188.376 224.032Z" fill="#EB421B"/>
<path d="M250.39 213.464C252.645 215.706 254.901 217.947 257.29 220.323C253.59 220.024 253.022 219.621 248.388 214.164C248.51 212.377 249.573 213.272 250.39 213.464Z" fill="#EE5C35"/>
<path d="M244.929 215.29C245.761 217.786 248.433 218.801 249.58 221.043C247.756 222.114 246.662 220.941 245.548 219.76C244.768 218.933 243.946 218.147 243.142 217.345C243.146 216.15 243.61 215.35 244.929 215.29Z" fill="#F06B48"/>
<path d="M171.27 202.972C171.983 206.505 172.697 210.038 173.41 213.571C170.265 210.218 170.706 205.437 168.346 201.806C170.154 200.113 170.486 202.106 171.27 202.972Z" fill="#F05929"/>
<path d="M192.284 242.589C193.29 243.804 194.304 243.63 195.324 242.609C197.186 243.998 198.741 245.686 200.292 247.549C198.307 248.617 196.668 248.939 195.143 246.903C194.11 245.524 192.766 244.379 191.562 243.129C191.575 242.646 191.778 242.416 192.284 242.589Z" fill="#F7B09C"/>
<path d="M192.284 242.589C192.044 242.77 191.804 242.95 191.562 243.13C190.682 242.276 189.804 241.422 188.925 240.57C189.369 240.456 188.176 238.682 189.632 239.769C190.638 240.52 191.778 241.301 192.284 242.589Z" fill="#FBD9D0"/>
<path d="M182.851 236.05C182.527 236.477 182.203 236.905 181.879 237.332C180.84 238.042 179.696 238.378 178.436 238.31C177.373 238.142 176.402 238.98 175.319 238.606C175.147 238.547 174.969 238.52 174.787 238.524C174.404 237.154 173.729 235.788 173.705 234.411C173.671 232.407 172.781 231.186 171.157 230.289C173.156 227.401 175.155 224.512 177.153 221.623C177.704 221.237 178.308 220.936 178.812 220.475C180.916 218.549 181.772 218.662 182.489 221.293C183.518 225.073 184.845 228.842 184.23 232.881C183.77 233.937 183.311 234.993 182.851 236.05Z" fill="#E93A17"/>
<path d="M133.232 250.845C134.084 250.463 134.935 250.081 135.787 249.7C135.618 250.36 135.961 250.854 136.44 251.168C137.875 252.108 137.795 253.174 136.828 254.375C135.252 253.581 133.573 252.892 133.232 250.845Z" fill="#EB583B"/>
<path d="M151.384 245.539C151.597 245.533 151.81 245.526 152.023 245.52C153.317 246.757 154.98 247.68 155.502 249.576C153.923 248.44 152.587 247.057 151.384 245.539Z" fill="#EB421B"/>
<path d="M138.534 249.595C139.732 250.586 140.931 251.578 142.129 252.57C141.942 253.135 140.405 253.211 141.518 254.248C139.055 253.269 139.048 253.214 138.755 250.79C138.706 250.392 138.217 250.046 137.932 249.676C138.132 249.649 138.333 249.622 138.534 249.595Z" fill="#EF6F52"/>
<path d="M184.23 232.881C183.798 230.611 183.489 228.308 182.901 226.079C182.324 223.884 182.115 221.547 180.718 219.033C179.942 220.931 178.94 221.974 177.153 221.624C179.068 218.669 180.982 215.714 182.896 212.759C185.537 216.394 186.04 220.755 187.062 224.942C187.17 225.386 187.366 225.809 187.521 226.242C186.616 228.55 185.618 230.812 184.23 232.881Z" fill="#E3280E"/>
<path d="M188.377 224.031C186.894 221.693 186.769 219.009 186.501 216.383C186.376 215.163 186.262 213.755 188.06 213.498C189.772 213.252 190.571 214.064 190.666 215.736C190.679 215.964 191.003 216.175 191.184 216.394C190.661 219.091 189.671 221.617 188.377 224.031Z" fill="#E42A0F"/>
<path d="M181.879 237.333C180.594 236.717 179.538 237.723 178.355 237.83C178.355 237.83 178.355 237.83 178.355 237.83C177.066 237.008 176.297 238.217 175.319 238.606C176.555 239.932 177.791 241.259 179.027 242.586C179.863 242.563 179.976 241.614 180.62 241.345C180.592 241.17 180.54 241.001 180.466 240.839C180.442 240.111 180.776 239.548 181.292 239.07C181.081 238.354 182.41 238.156 181.879 237.333Z" fill="#F05929"/>
<path d="M192.463 208.436C192.38 209.043 192.292 209.648 192.197 210.252C192.182 210.346 192.067 211.043 192.12 210.733C192.051 211.136 191.977 211.537 191.901 211.937C191.665 213.189 191.398 214.436 191.102 215.676C190.526 218.09 189.87 220.508 188.989 222.83C188.109 225.147 186.739 227.171 185.426 229.258C184.04 231.46 182.696 233.688 181.394 235.94C179.913 238.501 178.488 241.094 177.116 243.715C176.442 245.001 176.459 246.709 176.563 248.127C176.615 248.834 176.651 249.611 176.927 250.271C176.994 250.432 177.312 251.06 177.536 250.633C180.069 245.798 183.596 241.381 186.496 236.757C187.893 234.529 189.177 232.675 190.173 230.228C191.212 227.673 192.557 224.755 193.226 222.084C194.017 218.928 194.966 216.229 195.407 213.006C195.615 211.491 194.146 208.592 193.545 207.15C192.97 205.771 192.519 208.025 192.463 208.436Z" fill="#090706"/>
<path d="M171.965 222.231C175.552 217.373 178.881 212.349 181.782 207.049C183.151 205.292 184.52 203.536 185.889 201.779C188.961 201.731 188.401 203.438 187.584 205.269C186.807 208.196 184.699 210.409 183.396 213.054C181.551 216.038 179.533 218.908 177.62 221.846C175.643 224.668 173.841 227.61 171.754 230.357C171.254 230.966 170.84 231.673 170.011 231.915C167.386 234.822 165.515 238.471 161.51 240.462C161.755 238.119 162.633 236.267 163.757 234.547C166.456 230.417 169.224 226.333 171.965 222.231Z" fill="#010000"/>
<path d="M175.441 238.469C171.305 236.901 165.572 242.043 162.424 242.223C162.783 242.703 164.819 246.485 163.961 247.153C163.404 246.546 159.085 240.869 157.5 243.58C158.265 244.471 158.699 245.502 158.804 246.675C157.32 244.313 150.608 243.527 151.829 245.951C151.431 245.543 149.777 245.679 149.102 246.041C148.441 246.396 148.243 246.849 148.36 247.344C146.142 247.046 140.449 248.389 139.745 248.665C139.94 248.846 140.152 249.041 140.378 249.245C139.36 249.075 138.502 249.011 138.351 249.043C138.332 250.882 140.418 252.518 140.6 253.521C138.071 251.921 139.175 248.623 135.3 249.723C135.493 251.222 132.901 249.034 133.62 250.365C132.224 249.151 130.062 250.173 129.115 250.216C129.038 256.981 129.512 258.599 136.037 257.821C139.236 257.439 143.709 256.131 146.666 254.798C146.543 254.113 146.301 253.541 145.942 253.081C147.935 253.908 150.024 254.044 151.82 252.526C151.378 251.741 150.664 250.236 149.911 249.214C152.496 251.188 157.205 252.78 155.887 250.808C159.181 250.808 160.636 250.766 159.086 247.209C161.934 251.102 164.618 247.123 167.056 246.796C168.343 246.984 171.397 246.61 172.437 246.794C174.954 246.609 175.303 248.54 177.652 246.219C180.715 243.193 177.965 240.489 175.441 238.469Z" fill="#EB421B"/>
<path d="M207.914 249.42C207.316 249.222 207.996 248.962 207.914 249.42V249.42ZM221.547 233.223C221.407 223.365 208.331 230.269 202.445 231.734C199.008 232.589 194.688 233.38 191.557 234.253C190.391 234.578 189.443 233.491 188.283 233.883C188.803 233.707 184.389 237.257 185.134 236.626C185.031 237.417 184.58 239.493 184.184 240.217C183.465 241.532 181.91 242.559 181.284 244.358C179.58 249.261 179.271 247.4 184.533 250.139C189.619 252.787 186.042 252.669 193.774 251.073C198.868 250.022 202.787 252.523 207.616 252.167C209.458 252.031 219.858 249.023 220.828 247.652C222.161 245.768 221.582 235.697 221.547 233.223Z" fill="#EB421B"/>
<path d="M226.102 176.192C225.069 177.209 226.054 178.658 225.343 179.761C224.249 179.513 224.533 178.607 224.453 177.902C224.319 176.712 223.702 175.768 222.54 175.698C221.182 175.615 220.505 176.616 220.378 177.918C220.306 178.664 220.533 179.643 219.199 179.053C218.681 178.835 218.306 178.542 218.601 177.904C218.553 176.251 218.987 174.476 217.406 173.211C219.021 171.547 220.905 171.905 222.538 172.91C223.889 173.741 224.926 175.079 226.102 176.192Z" fill="#F05C2C"/>
<path d="M132.719 250.664C132.585 250.951 132.452 251.239 132.318 251.526C131.914 251.763 131.36 251.539 131.01 251.948C130.079 251.683 129.841 250.769 129.305 250.135C129.267 246.657 129.228 243.18 129.19 239.703C129.589 239.699 129.987 239.695 130.385 239.691C133.318 242.892 133.341 246.71 132.719 250.664Z" fill="#EB421C"/>
<path d="M128.659 229.192C129.526 228.753 130.465 228.219 131.195 229.289C131.926 230.36 131.241 231.07 130.314 231.57C128.899 232.333 129.249 233.665 129.222 234.862C129.186 236.48 129.203 238.1 129.197 239.719C128.142 236.254 128.864 232.7 128.659 229.192Z" fill="#EB421C"/>
<path d="M241.359 229.918C241.513 230.009 241.659 230.072 241.799 230.114C243.001 229.24 244.397 228.444 245.956 227.743C245.954 227.651 245.937 227.545 245.901 227.422C246.079 227.472 246.253 227.51 246.423 227.538C247.967 226.876 249.661 226.306 251.474 225.842C251.867 225.613 252.264 225.396 252.674 225.216C252.674 225.216 252.674 225.216 252.674 225.216C252.855 225.317 253.031 225.389 253.203 225.44C253.893 225.295 254.596 225.165 255.314 225.051C255.549 224.913 255.781 224.756 256.012 224.593V224.593C256.2 224.541 256.388 224.49 256.576 224.439V224.439C256.834 224.578 257.1 224.686 257.371 224.773C259.151 224.572 260.997 224.465 262.892 224.465C264.718 224.465 266.499 224.564 268.217 224.751C267.792 223.262 266.427 222.565 265.346 221.63V221.63V221.63C266.244 220.206 264.783 219.951 264.174 219.275C263.739 219.378 263.123 219.047 262.954 219.783H262.954C261.524 219.734 260.776 218.641 259.917 217.759C257.94 215.729 256.003 213.659 254.049 211.605C253.781 211.871 253.513 212.137 253.245 212.403C255.703 214.71 258.161 217.018 260.59 219.299C258.276 220.592 257.293 219.099 255.951 217.98C254.123 216.457 253.137 213.965 250.718 213.133C250.861 212.923 250.983 212.697 251.072 212.46C251.235 209.208 251.174 205.988 249.553 203.017C248.284 201.012 246.564 199.407 244.887 197.763C243.253 199.786 244.946 202.549 243.319 204.789C241.967 203.458 241.733 201.857 241.63 200.237C241.501 198.213 241.677 196.18 241.509 194.155C240.131 192.761 238.752 191.367 237.374 189.972C236.15 191.118 236.472 192.64 236.536 194.01C236.648 196.438 236.27 198.543 233.945 199.84C232.839 205.924 234.335 212.204 232.574 218.241C232.999 218.96 233.425 219.68 233.85 220.4C234.611 221.758 235.789 222.875 236.205 224.435C236.205 224.435 236.205 224.435 236.205 224.435C236.205 224.435 236.205 224.435 236.205 224.435C236.322 225.045 236.689 225.457 237.237 225.722C238.611 227.121 239.985 228.519 241.359 229.918Z" fill="#E83615"/>
</svg>
