<svg width="256" height="280" viewBox="0 0 256 280" fill="none" xmlns="http://www.w3.org/2000/svg">
<path fill-rule="evenodd" clip-rule="evenodd" d="M172.989 136.994C172.677 139.07 177.661 145.236 177.861 145.332C199.942 146.318 181.88 151.452 181.535 155.493C180.43 168.43 177.744 182.648 157.384 167.659C146.527 159.661 162.198 156.964 131.704 157.312C110.849 157.548 115.418 135.913 98.3584 162.815C89.2093 177.24 58.2288 188.574 45.426 172.056C33.5168 156.686 31.6588 148.987 29.6469 134.582C29.1564 131.081 30.0293 126.038 29.1606 121.711C29.0276 121.04 32.6148 122.097 21.8862 118.558C21.1047 118.301 20.6475 114.153 19.6998 113.888C17.9414 113.394 14.7199 114.534 13.3897 113.026C9.91048 109.093 10.4011 102.421 12.6374 97.1918C15.1522 91.3198 20.3482 87.3665 33.8411 93.0437C37.9771 94.7841 43.2935 62.2543 49.7573 78.4364C51.8606 83.6991 51.6861 97.0135 48.211 107.726C46.6771 112.446 43.2562 116.664 41.2152 119.461C28.8363 136.393 42.0008 162.5 66.1849 164.58C100.221 167.51 100.595 118.69 114.724 141.49C124.047 156.537 153.261 148.912 164.355 141.49C165.062 141.014 173.147 135.937 172.989 136.994Z" fill="#FEFEFE"/>
<path fill-rule="evenodd" clip-rule="evenodd" d="M114.002 172.261C113.324 173.222 113.906 172.174 113.362 173.417C113.304 173.554 112.984 174.432 112.934 174.594C112.569 175.75 112.743 175.883 112.083 177.383C109.432 177.602 109.897 177.3 108.859 178.891C108.069 176.732 108.227 176.284 105.854 175.848L106.071 179.458C107.762 178.116 106.723 179.031 107.928 179.164C107.949 181.651 107.762 183.677 105.328 184.684C104.31 183.411 104.7 181.92 103.1 181.376L103.363 164.696C103.371 162.292 103.059 160.925 103.894 159.408C105.063 163.747 102.62 164.973 105.973 164.095C105.906 165.645 106.044 166.69 106.505 167.709C110.299 169.14 110.988 167.652 112.301 164.689C114.051 169.484 111.991 173.425 114.002 172.261Z" fill="#E93815"/>
<path fill-rule="evenodd" clip-rule="evenodd" d="M93.8472 236.009C92.9994 235.91 93.3195 236.126 92.642 235.777C91.2332 235.052 92.5132 235.939 92.1391 235.238C92.4954 228.085 100.905 217.448 102.246 212.372C103.085 210.797 104.502 207.407 106.181 208.502C108.803 210.504 103.685 218.477 101.691 222.554C99.4351 227.167 97.5242 231.961 95.3016 236.113C95.0606 236.151 95.0149 236.275 93.8472 236.009Z" fill="#E93815"/>
<path fill-rule="evenodd" clip-rule="evenodd" d="M81.0556 210.627C81.9367 211.829 81.5668 211.049 82.128 212.558C83.9065 211.39 84.0476 210.204 85.9922 209.077C89.5038 209.298 86.8533 214.25 85.3455 218.879C83.7173 223.885 83.6591 223.624 80.846 225.563C80.0524 226.11 80.2188 226.595 78.9471 226.437C78.232 224.46 78.7803 223.13 79.3452 221.501L76.939 220.974C76.4234 218.712 76.8417 210.419 81.0556 210.627Z" fill="#E93815"/>
<path fill-rule="evenodd" clip-rule="evenodd" d="M101.783 237.071C102.6 231.605 109.342 216.98 113.128 216.007C115.073 217.644 111.803 222.899 109.718 227.412C105.311 236.96 109.042 233.761 101.783 237.071Z" fill="#E93815"/>
<path fill-rule="evenodd" clip-rule="evenodd" d="M119.044 214.776C119.797 217.205 117.242 223.644 115.988 226.338C112.303 234.232 113.679 234.357 108.717 235.065C109.162 232.665 109.706 231.037 110.312 228.774C111.28 225.177 111.683 225.608 113.524 225.712C114.275 223.105 115.766 215.617 117.893 214.365L119.044 214.776Z" fill="#E93815"/>
<path fill-rule="evenodd" clip-rule="evenodd" d="M124.15 218.107L124.994 218.054C125.102 221.021 123.624 226.508 122.656 229.152C121.696 231.759 121.954 231.05 119.044 231.269C119.418 224.974 119.82 222.831 122.513 218.111C123.373 217.892 123.223 217.925 124.15 218.107Z" fill="#E93815"/>
<path fill-rule="evenodd" clip-rule="evenodd" d="M81.1579 195.841C79.8866 199.198 78.2496 203.189 75.4151 203.869C74.5876 201.688 74.5625 200.171 75.8215 197.88C76.7357 196.218 77.791 193.814 78.618 192.981C81.0453 193.21 81.3903 193.384 81.1579 195.841Z" fill="#E93815"/>
<path fill-rule="evenodd" clip-rule="evenodd" d="M122.588 231.021C122.808 228.625 123.344 227.262 124.171 225.14C125.039 222.919 125.434 221.34 127.686 221.866C128.04 223.756 126.893 225.111 126.212 227.109C125.219 230.014 125.618 230.793 122.588 231.021Z" fill="#E93815"/>
<path fill-rule="evenodd" clip-rule="evenodd" d="M152.991 210.611C151.307 206.748 152.84 201.647 153.604 198.215C154.505 194.179 153.98 188.708 156.494 186.367C159.964 186.19 158.252 186.944 159.386 187.308C160.691 187.727 160.442 186.907 161.397 187.313C158.453 199.501 154.882 190.37 155.245 197.474C155.781 195.654 156.695 195.161 159.819 193.682C160.696 193.268 160.825 193.388 161.643 193.102C162.187 191.897 161.955 191.834 162.358 190.624L163.313 188.677C163.335 193.642 162.4 194.3 161.353 196.961C159.663 201.258 161.65 208.179 156.88 208.489C156.214 205.365 156.858 203.164 157.186 199.882C155.782 201.485 156.102 203.607 155.512 206.276C154.906 209.028 154.665 209.293 152.991 210.611Z" fill="#E4280D"/>
<path fill-rule="evenodd" clip-rule="evenodd" d="M113.995 172.261C111.984 173.425 114.045 169.484 112.294 164.688C110.981 167.651 110.291 169.139 106.496 167.709C106.034 166.689 105.897 165.644 105.963 164.094C102.609 164.972 105.053 163.746 103.884 159.406L103.485 158.992C104.533 158.826 105.036 158.864 105.805 158.773C111.79 158.069 109.221 159.701 113.453 161.256C113.536 161.285 113.69 161.323 113.773 161.348C115.361 161.787 119.094 160.549 113.995 172.261Z" fill="#E4280D"/>
<path fill-rule="evenodd" clip-rule="evenodd" d="M176.156 202.883L175.25 203.285L175.109 205.792C174.199 206.621 170.414 208.092 169.005 208.27L169.619 203.11C171.552 203.33 170.974 203.488 172.225 204.673C172.769 203.123 172.37 204.093 172.981 203.214L174.078 202.042C172.648 201.304 170.646 202.659 171.044 198.063C171.243 195.779 171.762 193.342 172.115 191.262C172.198 191.246 173.802 190.997 173.835 190.981L174.811 190.355C176.224 189.41 174.242 189.406 177.392 189.154C178.963 195.354 177.102 194.786 176.666 195.739C175.86 197.496 176.33 200.691 176.156 202.883Z" fill="#E4280D"/>
<path fill-rule="evenodd" clip-rule="evenodd" d="M168.852 202.936C167.027 203.164 169.08 202.696 168.133 202.911C168.037 202.932 167.63 203.031 167.572 203.06C165.706 203.976 167.634 204.9 163.781 204.39L164.218 206.591C162.647 205.828 162.368 206.139 162.459 203.756L164.686 193.962C165.879 193.946 168.925 194.104 169.478 194.336C170.189 196.943 169.238 200.226 168.852 202.936Z" fill="#E4280D"/>
<path fill-rule="evenodd" clip-rule="evenodd" d="M118.351 177.724L115.83 187.463C117.879 186.262 117.318 185.723 119.745 186.096L120.061 188.856L118.57 193.166C114.493 192.693 116.188 191.624 115.344 189.569C113.965 192.387 115.349 190.978 113.761 191.442C111.762 189.493 113.661 186.659 114.591 183.886C116.166 179.187 116.839 181.139 118.43 177.115L118.351 177.724Z" fill="#E4280D"/>
<path fill-rule="evenodd" clip-rule="evenodd" d="M142.338 211.915C142.197 213.992 140.366 226.059 138.48 227.774C137.378 225.98 137.524 226.726 137.253 225.084C137.593 220.418 138.827 215.537 140.164 211.186L142.338 211.915Z" fill="#E4280D"/>
<path fill-rule="evenodd" clip-rule="evenodd" d="M138.778 169.894C137.111 168.584 136.383 166.204 135.327 164.356C137.704 162.466 134.857 160.402 142.608 158.161L138.778 169.894Z" fill="#E4280D"/>
<path fill-rule="evenodd" clip-rule="evenodd" d="M149.272 215.023L148.341 219.943C148.084 220.61 145.35 224.547 144.46 225.492C143.147 225.019 143.704 225.11 144.09 223.046C144.31 221.865 144.559 221.003 144.775 219.822C145.195 217.555 145.585 215.412 145.992 213.15C147.488 213.655 146.794 214.202 148.581 213.249C149.571 214.145 149.653 211.496 149.272 215.023Z" fill="#E4280D"/>
<path fill-rule="evenodd" clip-rule="evenodd" d="M145.448 177.894C144.737 176.845 144.954 178.313 145.286 176.63C145.365 176.228 145.693 175.693 145.913 175.208C147.438 171.81 147.787 168.826 151.852 169.44L151.744 169.796C150.581 175.897 151.072 175.296 148.054 178.015C146.87 177.513 146.932 176.9 146.35 176.568L145.448 177.894Z" fill="#E4280D"/>
<path fill-rule="evenodd" clip-rule="evenodd" d="M175.137 173.428C172.208 181.58 166.67 171.876 167.368 169.195C168.748 169.439 167.634 169.037 169.259 169.846C169.87 170.148 170.635 170.65 171.251 171.031C172.668 171.915 173.998 172.764 175.137 173.428Z" fill="#E4280D"/>
<path fill-rule="evenodd" clip-rule="evenodd" d="M139.172 177.85C135.768 178.43 137.069 177.858 136.487 177.315C134.525 175.495 137.065 176.706 133.594 176.104C133.236 172.772 133.614 172.047 134.142 169.461C135.131 170.281 134.873 169.95 135.651 171.305C136.108 172.105 136.403 172.822 136.719 173.386C137.746 175.202 138.316 175.968 139.172 177.85Z" fill="#E4280D"/>
<path fill-rule="evenodd" clip-rule="evenodd" d="M131.396 154.469C130.81 156.558 130.166 156.674 130.195 158.854C130.322 167.698 128.177 165.447 127.72 171.275C126.357 169.687 127.437 166.6 125.767 167.465C124.952 165.907 125.367 164.204 125.371 162.073C124.025 162.616 123.38 163.213 121.685 163.121L120.716 160.108C120.155 160.431 119.424 160.506 119.045 160.485L119.161 156.158C116.722 156.605 115.034 157.55 114.819 159.962C113.06 158.561 113.805 161.023 113.06 157.284C112.96 156.791 112.656 150.628 114.568 149.808C115.923 150.036 120.528 151.579 122.493 152.312C124.962 153.229 128.599 153.988 131.396 154.469Z" fill="#E63112"/>
<path fill-rule="evenodd" clip-rule="evenodd" d="M162.913 241.514L161.675 241.311C161.463 241.253 160.374 241.029 160.324 241.013C156.796 239.76 159.863 239.599 157.161 239.926C153.484 240.369 151.251 233.066 151.246 231.997C151.225 228.47 151.953 232.005 151.549 229.038C151.483 228.565 150.676 226.667 150.452 225.71C150.539 225.59 150.688 225.266 150.734 225.362L152.134 223.484C153.46 224.185 154.229 225.864 155.235 227.489C158.619 232.935 164.301 238.452 162.913 241.514Z" fill="#E63112"/>
<path fill-rule="evenodd" clip-rule="evenodd" d="M184.046 234.748L182.334 235.385C182.238 232.331 182.271 234.142 179.344 229.786C176.966 226.246 176.53 225.91 175.212 224.907C176.834 228.567 179.182 230.872 180.804 234.851C179.233 233.918 174.847 228.065 174.638 226.046L175.116 224.003L174.912 223.647C178.038 224.538 178.766 225.977 180.512 228.592C181.593 230.205 183.535 232.228 184.046 234.748Z" fill="#E63112"/>
<path fill-rule="evenodd" clip-rule="evenodd" d="M191.842 232.215L188.03 232.865L187.914 232.024C187.057 229.127 181.453 223.675 183.656 221.574L191.842 232.215Z" fill="#E63112"/>
<path fill-rule="evenodd" clip-rule="evenodd" d="M178.659 236.786L178.613 236.566C176.564 237.154 178.892 238.104 173.77 230.659C172.793 229.237 170.639 226.332 170.739 224.852C173.844 226.117 174.967 228.89 177.657 232.993C178.688 234.56 178.804 234.999 178.659 236.786Z" fill="#E63112"/>
<path fill-rule="evenodd" clip-rule="evenodd" d="M118.354 177.725L118.433 177.116C116.842 181.139 116.168 179.187 114.594 183.887C113.664 186.659 111.765 189.493 113.764 191.441C115.352 190.978 113.968 192.386 115.347 189.569C116.191 191.624 114.496 192.693 118.572 193.166L120.064 188.856C125 184.344 125.944 189.761 122.791 195.297C121.91 196.839 121.503 197.531 121.15 199.047C121.054 199.006 119.425 198.243 119.413 198.239C116.458 197.774 118.502 197.455 117.09 198.715C115.269 197.612 115.623 198.723 113.986 198.549C113.936 198.545 113.795 198.503 113.74 198.495L113.005 198.205C110.341 197.023 111.214 200.301 111.301 196.219C111.392 192.15 111.076 195.511 112.086 194.641C114.08 192.917 112.905 194.504 112.925 194.682C112.177 193.716 110.889 193.604 109.796 192.937C112.135 187.865 109.01 189.808 111.652 183.256C113.672 185.163 112.039 183.654 112.707 183.157C112.641 180.915 113.903 178.192 114.51 176.294C115.669 172.652 114.339 172.652 116.399 168.91C122.741 168.065 119.936 170.734 118.736 176.208C118.375 177.87 119.089 176.465 118.354 177.725Z" fill="#E83514"/>
<path fill-rule="evenodd" clip-rule="evenodd" d="M151.853 169.443C147.789 168.829 147.44 171.813 145.916 175.211C145.695 175.696 145.367 176.23 145.288 176.632C144.956 178.315 144.74 176.847 145.451 177.896C143.93 178.306 144.191 178.422 143.456 179.031C142.941 177.568 142.317 176.98 141.639 175.222C141.984 174.24 142.429 172.404 142.582 171.986C144.119 167.804 145.012 166.773 146.815 160.175L148.452 160.08L149.45 160.602C150.788 161.054 150.954 160.574 152.516 160.789C153.082 164.577 152.243 165.808 151.853 169.443Z" fill="#E83514"/>
<path fill-rule="evenodd" clip-rule="evenodd" d="M98.0935 237.626L96.1237 237.261C95.6206 235.143 95.5128 236.888 96.5139 234.372L104.349 218.397C104.947 217.647 105.94 216.495 107.079 217.689C108.6 219.289 102.248 229.848 99.9631 235.542C98.9828 237.978 99.8346 237.166 98.0935 237.626Z" fill="#E83514"/>
<path fill-rule="evenodd" clip-rule="evenodd" d="M164.854 167.258C162.83 168.025 163.94 167.951 162.302 169.152L159.804 167.133C159.671 167.038 159.496 166.905 159.334 166.806L158.607 171.535C157.419 171.97 156.533 172.405 154.991 171.696C154.159 168.562 154.653 164.704 155.945 161.512C156.357 160.497 155.975 161.16 156.569 160.476C158.061 161.388 159.175 162.678 160.477 163.896C162.081 165.397 163.137 165.895 164.854 167.258Z" fill="#E83514"/>
<path fill-rule="evenodd" clip-rule="evenodd" d="M137.181 229.364L127.501 230.772L130.38 221.936C132.005 222.81 130.804 222.168 132.217 223.606C133.032 224.435 133.469 224.763 134.117 225.397C135.543 226.786 135.897 227.54 137.181 229.364Z" fill="#E83514"/>
<path fill-rule="evenodd" clip-rule="evenodd" d="M90.5471 210.906C88.8683 211.411 89.2588 210.657 88.1578 212.841L84.5902 226.554C85.2099 229.554 85.862 227.694 84.6865 231.125C80.9334 228.928 73.7935 226.95 71.5322 223.962C73.7638 223.166 72.8497 223.941 73.8468 222.143C75.0848 219.892 76.9458 215.305 76.1517 213.017L73.7746 212.963L75.8233 212.18C77.0819 208.591 77.7792 203.191 81.6067 203.175C83.0201 205.869 81.6781 207.734 81.0552 210.627C76.8411 210.419 76.4228 218.711 76.9385 220.974L79.3448 221.501C78.7799 223.13 78.2315 224.46 78.9466 226.437C80.2183 226.595 80.052 226.11 80.8456 225.563C83.6588 223.624 83.7171 223.885 85.3453 218.879C86.8531 214.25 89.5038 209.298 85.9921 209.077C86.4281 206.844 87.13 204.705 88.0107 202.654C89.0783 200.167 89.6931 197.553 92.1369 198.879C94.5976 202.083 89.8484 207.52 90.5471 210.906Z" fill="#EE4C21"/>
<path fill-rule="evenodd" clip-rule="evenodd" d="M102.246 212.372C100.904 217.448 92.4951 228.085 92.1389 235.238L88.6271 233.099C90.4261 231.11 92.7892 222.366 94.3844 218.989C95.4603 216.714 96.395 214.526 97.6205 212.222C98.9873 209.657 99.5976 206.267 102.386 207.026C103.479 209.401 102.98 207.855 102.407 210.188C102.407 210.2 102.125 211.021 102.088 211.303C101.942 212.413 101.809 211.733 102.246 212.372Z" fill="#EE4C21"/>
<path fill-rule="evenodd" clip-rule="evenodd" d="M60.4629 195.879C61.2483 194.147 61.2691 194.52 62.6489 193.165C63.0521 192.767 63.2973 192.439 63.6796 192.099C65.3088 190.645 63.9623 191.606 65.4337 190.902C64.7813 192.721 64.1163 193.061 64.7027 194.703C65.9621 194.263 66.4484 194.363 67.9983 190.471C67.1377 189.46 68.2185 190.173 66.6181 189.862C67.9897 188.784 68.1393 188.884 70.3257 188.652C70.2675 188.81 68.1733 193.642 68.0694 193.804C66.8726 195.681 66.6935 193.223 65.2726 197.828C64.0795 196.837 62.1382 196.294 60.4629 195.879Z" fill="#EE4C21"/>
<path fill-rule="evenodd" clip-rule="evenodd" d="M183.66 221.577C181.458 223.678 187.06 229.129 187.917 232.026L188.034 232.867C186.891 234.007 185.844 234.16 184.048 234.748C183.537 232.228 181.596 230.206 180.515 228.593C178.769 225.978 178.042 224.54 174.916 223.648C173.507 222.326 168.319 214.421 168.103 211.997L172.329 209.589L173.538 210.224C177.325 211.434 175.209 209.511 179.071 214.299C181.402 217.188 182.994 218.589 183.66 221.577Z" fill="#EB411A"/>
<path fill-rule="evenodd" clip-rule="evenodd" d="M145.973 212.426L145.994 213.152C145.587 215.414 145.197 217.557 144.777 219.824C144.562 221.005 144.312 221.867 144.092 223.048C143.706 225.112 143.149 225.02 144.463 225.493L143.553 227.905L139.148 228.343C137.939 228.679 138.812 228.538 138.484 227.776C140.37 226.06 142.2 213.992 142.341 211.916L142.765 211.999C143.281 213.785 141.976 212.239 143.642 213.338C144.776 211.78 143.999 212.434 145.973 212.426Z" fill="#EB411A"/>
<path fill-rule="evenodd" clip-rule="evenodd" d="M211.432 204.511C212.389 210.073 217.48 210.725 219.022 214.666C216.795 216.154 219.014 212.577 216.429 215.922C215.64 216.945 215.357 217.799 214.813 218.939C212.361 218.3 211.837 216.916 209.788 215.78C208.811 216.845 209.846 216.19 208.338 216.758C209.123 218.814 210.786 220.356 210.317 222.561C210.051 223.323 210.737 223.191 208.891 223.456C205.903 222.543 203.541 215.087 202.697 212.819L198.777 207.505C200.739 208.608 198.831 207.878 201.2 208.645C201.462 205.475 202.127 206.358 204.379 205.181C206.357 204.149 205.006 203.764 208.543 203.296C210.6 203.52 209.74 203.632 211.432 204.511Z" fill="#E63212"/>
<path fill-rule="evenodd" clip-rule="evenodd" d="M203.456 226.828L200.285 228.879L199.068 229.003C198.818 227.312 198.34 226.815 197.65 225.712C196.765 224.253 195.834 222.343 195.688 220.449C197.662 219.048 198.215 221.149 197.703 217.602C197.358 215.231 197.927 217.279 195.197 214.497C189.831 209.03 194.9 202.342 198.317 209.222C198.778 210.151 198.998 210.905 199.377 211.825C201.31 216.504 200.05 210.934 203.803 218.465C204.78 220.417 205.458 222.013 205.454 224.259C204.411 225.088 203.942 224.992 203.456 226.828Z" fill="#E63212"/>
<path fill-rule="evenodd" clip-rule="evenodd" d="M170.231 239.742L169.716 239.742C165.336 238.394 158.905 226.457 159.37 222.74C161.568 222.939 164.349 228.224 165.6 230.313C167.151 232.903 169.99 236.555 170.231 239.742Z" fill="#E63212"/>
<path fill-rule="evenodd" clip-rule="evenodd" d="M225.404 204.939L225.034 208.359L224.128 209.001C224.037 209.059 223.646 209.196 223.505 209.295C220.034 208.151 221.539 208.35 219.738 205.78C218.138 203.495 217.398 205.187 215.876 203.031C216.94 201.593 216.766 202.38 218.167 202.356C219.385 202.331 220.715 202.132 221.92 201.909C222.581 202.406 222.29 202.29 222.731 202.754C223.483 203.534 222.806 202.932 223.529 203.579L224.972 204.661C225.046 204.545 225.258 204.844 225.404 204.939Z" fill="#E63212"/>
<path fill-rule="evenodd" clip-rule="evenodd" d="M194.328 201.416L198.332 200.675C199.928 203.124 199.4 203.037 199.284 205.835C197.343 205.636 197.501 205.921 196.125 204.637L194.778 202.759C194.482 202.117 194.486 201.996 194.328 201.416Z" fill="#E63212"/>
<path fill-rule="evenodd" clip-rule="evenodd" d="M193.962 225.903C195.708 227.284 195.067 226.33 195.151 228.341C192.948 229.551 191.289 226.964 189.389 224.473C188.217 222.935 188.55 224.062 188.321 221.832C189.418 222.686 189.776 223.03 190.649 223.731C192.328 225.086 191.426 224.133 192.677 226.015C192.715 226.011 193.958 225.903 193.962 225.903Z" fill="#E63212"/>
<path fill-rule="evenodd" clip-rule="evenodd" d="M225.398 204.939C225.253 204.843 225.041 204.545 224.966 204.661L223.524 203.579C222.8 202.932 223.478 203.533 222.726 202.754C222.285 202.29 222.576 202.406 221.915 201.909C220.71 202.132 219.38 202.331 218.163 202.356C216.762 202.38 216.936 201.593 215.873 203.031C217.394 205.186 218.134 203.495 219.734 205.779C221.534 208.349 220.029 208.15 223.5 209.294C223.641 209.195 224.032 209.058 224.123 209L225.029 208.358C224.597 213.294 222.05 214.458 219.316 216.807C217.654 218.228 212.518 221.535 210.316 222.558C210.785 220.353 209.122 218.811 208.336 216.756C209.845 216.188 208.81 216.843 209.787 215.778C211.836 216.914 212.359 218.298 214.811 218.937C215.356 217.797 215.638 216.943 216.428 215.92C219.012 212.576 216.793 216.152 219.021 214.664C217.478 210.723 212.387 210.071 211.43 204.51L212.22 203.884C209.464 200.651 206.729 199.2 210.187 197.932C208.533 196.465 209.63 198.019 209.173 196.142C212.842 195.094 217.156 194.407 220.451 196.144C223.099 197.537 225.086 201.126 225.398 204.939Z" fill="#EB4019"/>
<path fill-rule="evenodd" clip-rule="evenodd" d="M175.114 224.005L174.636 226.049C174.844 228.067 179.23 233.92 180.801 234.853C179.179 230.874 176.831 228.569 175.209 224.909C176.527 225.912 176.963 226.248 179.341 229.788C182.268 234.144 182.234 232.333 182.33 235.388L178.657 236.788C178.802 235.002 178.685 234.562 177.654 232.995C174.965 228.892 173.842 226.119 170.738 224.854C170.638 226.334 172.791 229.24 173.768 230.661C178.89 238.106 176.562 237.156 178.611 236.568C178.204 237.099 179.421 237.227 177.302 237.248L175.702 236.066C173.757 236.688 175.344 236.141 174.484 236.597C173.162 237.297 174.995 236.849 173.316 237.193L169.954 235.394C165.943 231.676 167.392 227.212 164.379 225.38L161.847 217.227C164.244 215.64 166.777 224.079 169.952 225.861C169.395 221.924 164.902 218.114 165.628 213.792C169.41 213.743 172.117 222.716 175.114 224.005Z" fill="#EB4019"/>
<path fill-rule="evenodd" clip-rule="evenodd" d="M112.077 177.38C112.24 181.147 110.793 180.359 110.133 183.256L111.65 183.256C109.008 189.808 112.133 187.865 109.794 192.937C110.887 193.604 112.175 193.716 112.923 194.682C112.903 194.504 114.078 192.917 112.084 194.64C111.074 195.511 111.389 192.15 111.299 196.219C111.212 200.301 110.339 197.023 113.003 198.205L113.738 198.495C113.792 198.503 113.934 198.545 113.984 198.549C115.621 198.723 115.267 197.612 117.088 198.715C114.786 201.151 116.536 205.797 114.899 208.101C111.529 207.45 106.001 200.035 101.617 198.356C101.928 195.517 102.435 192.965 102.679 189.96C102.874 187.569 102.848 182.956 103.093 181.373C104.693 181.916 104.303 183.408 105.321 184.681C107.756 183.674 107.943 181.648 107.922 179.161C106.717 179.028 107.755 178.112 106.064 179.455L105.848 175.845C108.221 176.281 108.063 176.728 108.853 178.888C109.891 177.296 109.426 177.599 112.077 177.38Z" fill="#E52A0F"/>
<path fill-rule="evenodd" clip-rule="evenodd" d="M132.593 204.668L133.561 206.64C133.586 206.545 133.748 206.723 133.831 206.777C131.675 207.759 131.272 209.831 129.656 211.961L131.721 210.449C131.825 210.366 131.925 210.267 132.024 210.188C132.282 209.977 133.275 209.21 133.794 208.845C135.103 207.93 136.217 207.329 138.033 206.993L134.86 222.232C133.331 221.519 132.516 220.002 131.211 218.829C129.491 217.283 128.772 217.274 126.993 215.769L128.01 209.93C128.28 208.438 128.737 206.851 129.16 205.587C129.675 204.05 129.667 203.664 131.703 203.619C132.144 204.369 131.678 203.776 132.593 204.668Z" fill="#E52A0F"/>
<path fill-rule="evenodd" clip-rule="evenodd" d="M132.16 194.153C130.851 194.559 130.814 194.314 129.991 194.729C128.956 195.251 129.841 195.599 127.68 195.408C127.597 195.4 127.414 195.346 127.285 195.296C126.786 193.766 126.906 193.045 127.176 191.259C127.608 188.457 127.675 188.391 129.753 188.515L132.16 194.153Z" fill="#E52A0F"/>
<path fill-rule="evenodd" clip-rule="evenodd" d="M127.715 171.273C127.636 175.856 131.331 184.471 133.181 188.383C135.87 194.317 140.065 201.672 141.066 208.73C139.861 207.18 137.55 204.366 136.847 202.377C135.072 199.969 133.684 195.763 132.158 194.151L129.752 188.516C126.875 181.653 124.389 175.756 125.761 167.464C127.432 166.598 126.351 169.685 127.715 171.273Z" fill="black"/>
<path fill-rule="evenodd" clip-rule="evenodd" d="M135.333 164.357C136.389 166.205 137.116 168.584 138.783 169.893C138.995 171.704 139.149 171.588 140.122 173.154C140.33 173.494 140.695 174.095 140.92 174.406C141.377 175.052 141.356 175.056 141.639 175.222C142.317 176.979 142.94 177.568 143.456 179.03C145.031 181.243 146.665 184.032 148.053 186.257C148.701 187.298 151.316 192.809 151.59 193.103C151.898 195.581 151.836 194.433 151.324 195.047C149.94 193.886 149.15 193.211 147.97 191.62C146.793 190.033 146.112 188.404 144.686 187.443C144.486 186.013 145.164 187.128 143.934 185.586L139.178 177.849C138.322 175.968 137.752 175.201 136.726 173.386C136.41 172.823 136.115 172.106 135.657 171.306C134.88 169.951 135.138 170.283 134.149 169.462C133.833 166.325 130.84 164.817 131.384 161.738C134.132 160.926 133.945 162.065 135.333 164.357Z" fill="black"/>
<path fill-rule="evenodd" clip-rule="evenodd" d="M142.077 187.018C140.187 191.037 142.132 193.802 141.755 197.412C142.486 196.662 142.901 196.198 144.256 195.928L144.683 187.441C146.108 188.403 146.79 190.032 147.966 191.619C149.147 193.211 149.936 193.886 151.32 195.047C151.831 194.434 151.894 195.582 151.586 193.103C151.648 192.95 151.931 192.241 152.226 191.972L153.85 191.002L153.212 197.861C153.133 200.543 149.89 213.601 149.275 215.026C149.657 211.5 149.574 214.148 148.585 213.253C146.798 214.206 147.492 213.659 145.996 213.153L145.975 212.427L146.976 209.527C145.202 210.181 146.245 210.011 144.366 210.052C144.183 207.077 144.694 205.556 145.791 202.929C146.763 200.587 148.661 199.029 148.271 197.259C147.743 197.04 147.032 197.462 145.274 196.998C145.013 199.634 143.97 201.818 143.372 204.238C142.633 207.222 143.435 204.868 143.502 207.827C143.535 209.257 143.066 210.632 142.767 212L142.343 211.917L140.17 211.187C138.832 215.539 137.599 220.421 137.259 225.087C135.783 224.088 135.584 224.096 134.865 222.231L138.037 206.993C136.221 207.328 135.108 207.929 133.799 208.845C133.279 209.209 132.286 209.976 132.029 210.187C131.929 210.266 131.829 210.365 131.725 210.448L129.66 211.961C131.277 209.831 131.679 207.759 133.836 206.777C133.753 206.723 133.591 206.545 133.566 206.64L132.597 204.667C133.291 205.053 132.647 204.7 133.362 205.289C133.462 205.376 134.035 205.935 134.172 205.989L136.479 205.729L136.852 202.376C137.555 204.365 139.866 207.18 141.071 208.73C140.068 201.672 135.874 194.315 133.185 188.38C134.805 187.145 133.505 188.537 134.148 186.822C134.514 185.848 134.053 185.516 135.079 184.393C137.144 182.135 138.274 183.486 138.918 183.615C139.051 183.64 139.193 183.673 139.33 183.698L140.198 183.868C141.981 184.237 140.481 183.727 141.549 184.183L142.077 187.018Z" fill="#E83614"/>
<path fill-rule="evenodd" clip-rule="evenodd" d="M56.2102 211.509C53.9494 212.151 55.9131 199.254 60.4592 195.877C62.1341 196.291 64.075 196.835 65.268 197.825C66.6886 193.221 66.8676 195.679 68.0643 193.801C68.1681 193.64 70.2619 188.808 70.3201 188.65L74.2766 188.804C73.3877 191.975 71.2727 193.827 70.8614 195.149C69.7191 198.821 70.4876 196.529 71.3107 197.37C73.3298 193.272 73.5082 191.258 76.1265 191.693C76.7461 193.857 73.4726 202.249 70.5013 203.542C69.142 201.66 69.7151 199.816 70.1096 197.499C68.198 198.75 67.3051 202.289 65.9298 203.827C63.7437 203.317 66.3369 203.139 64.5414 202.339C63.9599 204.651 63.7233 206.558 62.4476 207.229L60.5983 207.826C60.6611 210.64 60.0992 205.517 60.8104 208.878C61.5383 212.318 60.869 211.295 60.4784 211.63L59.6799 208.261C57.5029 212.508 58.1386 212.119 56.2102 211.509Z" fill="#E83614"/>
<path fill-rule="evenodd" clip-rule="evenodd" d="M86.7752 231.923L84.6849 231.123C85.8603 227.692 85.2082 229.553 84.5886 226.552L88.1559 212.839C89.2567 210.656 88.8662 211.41 90.5449 210.904C91.8908 207.834 93.2733 200.387 97.8112 201.672C98.3186 204.428 95.3193 210.321 93.8366 215.298C92.8731 218.526 93.1432 218.505 90.2096 218.625L89.5814 214.41C89.7647 216.959 89.4734 214.257 89.2867 216.358C88.9632 219.943 89.1039 216.66 89.686 218.729C90.1683 220.436 90.6173 221.891 90.3973 223.407C90.1358 225.202 87.3277 231.132 86.7752 231.923Z" fill="#E83614"/>
<path fill-rule="evenodd" clip-rule="evenodd" d="M128.009 209.931L126.992 215.77L119.936 211.691C120.114 209.876 120.085 208.732 121.26 207.439C122.798 205.749 122.466 207.991 122.689 204.087C123.89 201.58 122.851 201.741 123.104 200.258L123.632 198.741C124.716 197.17 121.828 197.56 126.424 197.312C126.565 199.264 126.511 198.397 125.901 200.465L128.585 201.175C128.552 203.947 128.315 202.041 127.235 205.716C125.877 210.329 127.56 209.67 128.009 209.931Z" fill="#E83614"/>
<path fill-rule="evenodd" clip-rule="evenodd" d="M169.007 208.269L168.541 205.243C167.689 207.071 168.084 206.731 166.521 208.132L164.941 205.844L164.027 206.577L164.222 206.59L163.785 204.389C167.639 204.899 165.71 203.975 167.576 203.059C167.634 203.03 168.042 202.931 168.137 202.91C169.085 202.695 167.032 203.163 168.857 202.935L169.622 203.109L169.007 208.269Z" fill="#E83614"/>
<path fill-rule="evenodd" clip-rule="evenodd" d="M65.4318 190.902L66.6164 189.862C68.2169 190.173 67.136 189.46 67.9967 190.471C66.4467 194.363 65.9603 194.263 64.7008 194.702C64.1143 193.061 64.7794 192.721 65.4318 190.902Z" fill="#E83614"/>
<path fill-rule="evenodd" clip-rule="evenodd" d="M161.403 187.313C160.447 186.907 160.697 187.727 159.392 187.308C158.257 186.944 159.969 186.189 156.499 186.367C153.985 188.708 154.51 194.179 153.609 198.216C152.845 201.647 151.312 206.749 152.996 210.612C154.67 209.294 154.911 209.029 155.517 206.277C156.107 203.608 155.787 201.486 157.191 199.882C156.863 203.165 156.22 205.365 156.885 208.49C161.656 208.18 159.668 201.259 161.359 196.961C162.406 194.301 163.341 193.642 163.319 188.677L162.364 190.624C161.961 191.835 162.193 191.897 161.649 193.103C160.831 193.389 160.702 193.268 159.825 193.683C156.7 195.162 155.786 195.655 155.25 197.474C154.887 190.37 158.459 199.501 161.403 187.313ZM167.368 169.194C166.67 171.876 172.207 181.579 175.135 173.427L178.124 175.201C178.248 175.371 178.41 175.591 178.485 175.715L179.034 176.913C177.987 179.934 177.988 181.277 179.122 182.976C179.43 183.441 179.575 183.014 180.049 184.17C180.503 187.125 179.058 198.141 178.664 201.97C175.614 203.151 178.074 202.418 177.072 201.593C176.424 204.055 176.952 202.028 176.158 202.886C176.333 200.694 175.862 197.498 176.668 195.741C177.105 194.788 178.966 195.356 177.395 189.156C174.245 189.408 176.227 189.412 174.814 190.357L173.838 190.983C173.804 190.999 172.2 191.248 172.117 191.264C171.764 193.345 171.245 195.782 171.046 198.065C170.648 202.661 172.651 201.306 174.08 202.044L172.983 203.217C172.373 204.095 172.771 203.126 172.227 204.676C170.976 203.49 171.554 203.333 169.621 203.113L168.857 202.939C169.243 200.228 170.194 196.946 169.483 194.339C168.93 194.107 165.884 193.949 164.691 193.965L162.465 203.758C162.374 206.141 162.653 205.83 164.224 206.593L164.028 206.581L164.411 210.597C160.401 211.525 158.785 212.71 155.901 214.599C154.135 215.755 153.807 215.813 152.199 217.197C150.69 218.49 150.109 219.198 148.351 219.944L149.281 215.025C149.896 213.599 153.139 200.541 153.218 197.859L153.857 191L152.232 191.97C151.937 192.239 151.655 192.948 151.592 193.101C151.318 192.807 148.703 187.294 148.055 186.254C146.666 184.028 145.033 181.239 143.457 179.025C144.193 178.416 143.931 178.3 145.452 177.89L146.353 176.564C146.935 176.896 146.873 177.509 148.058 178.011C151.074 175.292 150.584 175.893 151.746 169.793C153.106 171.728 152.474 173.61 152.5 176.349L154.988 171.691C156.53 172.4 157.415 171.965 158.604 171.53L159.33 166.802C159.492 166.901 159.667 167.034 159.8 167.129L162.298 169.148C163.935 167.946 162.825 168.021 164.849 167.254C166.453 167.864 166.42 167.611 167.368 169.194Z" fill="#EC421B"/>
<path fill-rule="evenodd" clip-rule="evenodd" d="M153.855 158.39C153.415 159.446 152.9 160.532 151.088 159.666C149.662 158.977 150.568 159.404 149.874 158.198C149.791 158.057 149.52 157.514 149.458 157.403L147.472 159.093L148.449 160.08L146.811 160.175C145.009 166.772 144.115 167.804 142.578 171.986C142.424 172.404 141.98 174.24 141.635 175.222C141.353 175.056 141.373 175.052 140.916 174.406C140.692 174.095 140.326 173.494 140.118 173.154C139.145 171.587 138.992 171.703 138.779 169.892L142.609 158.16C134.859 160.401 137.706 162.465 135.329 164.355C133.941 162.063 134.127 160.923 131.38 161.735C130.837 164.814 133.829 166.323 134.145 169.46C133.618 172.046 133.24 172.772 133.598 176.104C137.068 176.705 134.529 175.495 136.491 177.314C137.072 177.857 135.772 178.429 139.175 177.849L143.931 185.588C141.953 186.342 143.815 184.954 142.078 187.021L141.549 184.187C140.481 183.731 141.982 184.241 140.199 183.871L139.33 183.701C139.193 183.676 139.052 183.643 138.919 183.618C138.275 183.49 137.144 182.139 135.079 184.397C134.052 185.52 134.514 185.851 134.148 186.825C133.504 188.541 134.805 187.149 133.184 188.384C131.334 184.471 127.638 175.854 127.716 171.27C128.173 165.443 130.317 167.694 130.191 158.85C130.162 156.67 130.806 156.554 131.392 154.465C138.357 156.062 143.938 154.028 150.343 153.988C151.099 155.285 151.166 155.239 152.296 156.292C153.556 157.457 153.751 156.997 153.855 158.39Z" fill="#EC421B"/>
<path fill-rule="evenodd" clip-rule="evenodd" d="M124.168 225.139C123.341 227.261 122.805 228.625 122.585 231.02C125.615 230.793 125.216 230.014 126.209 227.108C126.89 225.11 128.037 223.755 127.684 221.865C125.431 221.338 125.036 222.917 124.168 225.139ZM109.717 227.408C111.803 222.895 115.073 217.639 113.127 216.002C109.341 216.975 102.598 231.602 101.78 237.069C109.04 233.758 105.308 236.957 109.717 227.408ZM117.89 214.361C115.762 215.612 114.271 223.102 113.52 225.709C111.678 225.605 111.275 225.174 110.307 228.772C109.701 231.035 109.157 232.664 108.712 235.064C113.675 234.356 112.299 234.231 115.984 226.336C117.239 223.642 119.794 217.201 119.042 214.772C120.646 215.539 122.924 216.472 124.15 218.105C123.223 217.922 123.373 217.889 122.513 218.109C119.82 222.83 119.417 224.972 119.044 231.269C121.954 231.049 121.696 231.758 122.656 229.151C123.624 226.507 125.102 221.019 124.994 218.051C126.594 218.706 126.914 219.046 128.024 219.904C129.363 220.941 129.437 220.75 130.381 221.936L127.502 230.773L137.182 229.365C140.977 229.722 138.367 229.406 139.144 228.345L143.549 227.907L146.471 227.92C146.305 227.961 146.118 228.056 145.989 228.085L144.821 229.043L143.305 232.354C140.574 231.985 136.069 233.833 132.478 234.388C128.264 235.042 124.232 234.905 120.192 235.401C116.414 235.865 114.777 238.708 111.045 239.246C106.502 239.901 103.43 239.411 102.928 243.883C106.603 246.524 112.575 245.149 111.873 249.468C111.317 250.753 108.05 250.868 104.393 252.547C106.085 254.876 106.45 252.593 106.987 256.692C108.732 256.958 109.273 256.605 110.586 257.347C113.055 258.749 110.042 258.574 113.13 258.712C114.626 258.782 114.909 257.966 116.114 259.089C116.937 259.856 117.179 261.518 117.27 261.303C117.303 261.22 117.378 261.601 117.466 261.734C120.146 261.179 120.354 260.557 122.058 259.223C124.306 257.466 132.253 253.786 134.584 252.257C137.302 250.471 138.956 248.677 142.434 246.936C144.08 246.112 149.529 243.795 149.969 241.934C150.027 241.686 150.168 241.653 150.247 241.499L154.661 242.072C153.348 243.991 154.013 244.144 152.559 245.454C149.6 248.119 147.273 249.863 142.793 251.471C143.94 253.108 144.268 252.868 145.636 253.909C154.669 260.791 147.502 254.68 155.666 258.727C159.361 260.563 156.958 258.992 158.995 258.188C161.381 257.252 160.362 258.396 162.166 258.976C164.49 259.727 163.604 258.566 165.142 257.982C167.029 257.265 167.407 257.916 169.49 257.693C168.538 256.113 166.064 254.567 164.983 252.453C163.64 249.82 165.984 247.669 167.576 246.928C168.873 246.866 169.255 249.042 173.03 250.8C175.569 251.982 177.972 252.119 180.711 251.398C181.886 243.158 171.454 245.27 170.227 239.749L172.924 237.544C172.99 237.308 173.169 237.296 173.314 237.2C174.993 236.857 173.16 237.304 174.482 236.604C175.342 236.148 173.755 236.695 175.7 236.073L177.3 237.255C177.188 237.35 177.001 237.325 176.939 237.508C176.806 237.906 175.048 238.179 173.78 239.443C178.909 240.886 184.117 242.901 184.904 248.448C186.098 256.916 179.473 256.513 172.66 255.206C174.927 261.486 171.872 260.69 167.175 261.676C165.085 262.115 165.687 263.047 162.362 262.997C154.794 262.876 160.131 264.659 152.483 261.773C147.108 259.745 150.746 263.244 143.172 257.436C142.756 257.116 141.725 256.465 141.297 256.163L139.09 254.38C138.973 254.459 138.811 254.463 138.757 254.649C138.703 254.836 138.5 254.861 138.425 254.919C136.152 256.8 136.538 256.456 133.621 257.641L122.952 263.82C116.827 268.532 114.607 264.548 108.081 261.376C104.93 259.846 105.691 262.607 101.072 255.7C99.1556 252.832 101.204 250.324 102.202 248.662C96.2078 246.775 98.8753 241.334 100.035 238.859L98.0974 237.624C99.8388 237.164 98.9869 237.976 99.9674 235.539C102.252 229.844 108.606 219.284 107.084 217.684C105.945 216.49 104.952 217.642 104.354 218.392L96.5175 234.37C95.5162 236.885 95.624 235.14 96.1273 237.259C94.3607 236.782 94.9593 237.271 93.8452 236.006C95.0132 236.272 95.0589 236.147 95.3 236.11C97.5229 231.957 99.4341 227.162 101.69 222.549C103.685 218.471 108.804 210.496 106.181 208.494C104.502 207.399 103.085 210.79 102.245 212.365C101.809 211.726 101.942 212.406 102.087 211.295C102.125 211.014 102.407 210.193 102.407 210.18C102.98 207.847 103.479 209.393 102.386 207.018C99.597 206.259 98.9865 209.649 97.6195 212.215C96.3938 214.519 95.4589 216.708 94.3828 218.983C92.7873 222.361 90.4238 231.106 88.6244 233.096C87.0823 232.648 87.8264 233.228 86.7788 231.918C87.3315 231.127 90.1402 225.196 90.4018 223.401C90.6218 221.884 90.1727 220.429 89.6903 218.721C89.1081 216.653 88.9673 219.936 89.2909 216.35C89.4776 214.249 89.769 216.951 89.5857 214.402L90.214 218.618C93.1483 218.498 92.8781 218.519 93.8419 215.29C95.3249 210.312 98.3248 204.418 97.8173 201.662C93.2784 200.376 91.8956 207.824 90.5494 210.896C89.8506 207.509 94.6004 202.072 92.1394 198.867C89.6952 197.54 89.0804 200.156 88.0127 202.643C87.1319 204.694 86.4299 206.833 85.9938 209.067C84.0488 210.194 83.9077 211.38 82.129 212.548C81.5676 211.039 81.9376 211.819 81.0563 210.616C81.6793 207.723 83.0215 205.858 81.6079 203.164C77.7799 203.18 77.0826 208.581 75.8238 212.17L73.7748 212.953C72.2248 214.76 69.9729 219.816 69.9735 223.141L67.7206 221.93C68.3852 219.816 69.0336 219.974 70.0307 217.404C70.6123 215.904 71.2065 214.432 71.8629 212.837C72.9432 210.225 73.2831 205.247 75.415 203.855C78.2495 203.176 79.8865 199.184 81.1578 195.827L83.0731 190.733C90.8332 192.463 94.5995 196.642 101.708 201.43C104.825 203.532 106.891 206.003 109.656 208.233L117.89 214.361Z" fill="#F15928"/>
<path fill-rule="evenodd" clip-rule="evenodd" d="M174.914 223.65L175.118 224.006C172.121 222.717 169.414 213.743 165.632 213.792C164.906 218.115 169.399 221.925 169.957 225.862C166.781 224.08 164.248 215.64 161.851 217.227L164.383 225.381C162.167 223.258 160.554 219.229 158.555 216.427C160.292 214.189 164.805 212.785 168.101 211.998C168.317 214.422 173.505 222.327 174.914 223.65Z" fill="#F15928"/>
<path fill-rule="evenodd" clip-rule="evenodd" d="M153.863 158.389L156.569 160.478C155.975 161.162 156.357 160.499 155.946 161.514C154.654 164.705 154.16 168.563 154.992 171.697L152.503 176.354C152.478 173.615 153.109 171.733 151.75 169.798L151.858 169.442C152.248 165.807 153.087 164.576 152.522 160.788C150.959 160.573 150.793 161.053 149.455 160.601L148.458 160.079L147.481 159.093L149.467 157.402C149.529 157.514 149.8 158.057 149.883 158.198C150.577 159.404 149.671 158.977 151.096 159.665C152.908 160.531 153.423 159.446 153.863 158.389Z" fill="#F15928"/>
<path fill-rule="evenodd" clip-rule="evenodd" d="M145.976 212.426C144.002 212.434 144.779 211.779 143.645 213.337C141.978 212.239 143.283 213.785 142.768 211.999C143.067 210.631 143.536 209.255 143.503 207.826C143.436 204.867 142.634 207.22 143.373 204.237C143.971 201.817 145.014 199.633 145.275 196.997C147.033 197.462 147.744 197.039 148.272 197.259C148.662 199.028 146.764 200.586 145.792 202.928C144.695 205.555 144.184 207.076 144.367 210.051C146.246 210.01 145.203 210.18 146.977 209.525L145.976 212.426Z" fill="#F15928"/>
<path fill-rule="evenodd" clip-rule="evenodd" d="M144.686 187.442L144.259 195.93C142.905 196.199 142.489 196.663 141.758 197.413C142.136 193.803 140.19 191.039 142.08 187.019C143.817 184.951 141.956 186.339 143.934 185.585C145.164 187.127 144.486 186.012 144.686 187.442Z" fill="#F15928"/>
<path fill-rule="evenodd" clip-rule="evenodd" d="M122.688 204.089C122.465 207.993 122.797 205.751 121.259 207.442C120.083 208.734 120.112 209.878 119.934 211.694C118.167 210.666 117.49 210.599 116.488 209.161C117.988 208.821 119.351 206.409 120.631 204.685L122.842 202.087L122.688 204.089Z" fill="#F15928"/>
<path fill-rule="evenodd" clip-rule="evenodd" d="M211.434 204.513C209.742 203.634 210.602 203.522 208.545 203.298L207.003 202.556C208.208 200.649 208.486 199.008 205.755 197.528C206.806 196.579 207.625 196.579 209.176 196.144C209.633 198.022 208.535 196.468 210.19 197.935C206.732 199.203 209.467 200.654 212.223 203.887L211.434 204.513Z" fill="#F15928"/>
<path fill-rule="evenodd" clip-rule="evenodd" d="M169.006 208.27C168.619 208.697 169.451 208.357 167.842 209.14C167.364 209.372 167.164 209.368 166.653 209.55C165.535 209.952 165.236 210.006 164.408 210.594L164.025 206.578L164.94 205.845L166.52 208.133C168.083 206.732 167.688 207.072 168.54 205.244L169.006 208.27Z" fill="#F15928"/>
<path fill-rule="evenodd" clip-rule="evenodd" d="M105.93 75.3005C103.793 76.9083 100.181 79.1833 101.536 82.5151L103.885 82.0095C100.838 100.574 101.702 113.98 110.964 130.676C114.626 137.277 118.949 142.324 126.489 144.649C133.506 146.808 146.546 145.565 153.425 143.787C170.509 139.378 178.831 130.829 183.516 114.324C185.033 108.966 188.388 111.75 193.359 109.426C196.527 107.946 199.216 105.348 200.671 101.967C202.483 97.7605 202.188 93.9191 199.341 90.9562C195.105 86.5347 192.59 91.2712 188.101 90.2186C184.609 88.6771 186.887 77.8987 184.68 68.7406C181.878 57.1377 174.749 45.1907 168.119 35.8379C164.661 30.9605 161.693 26.7668 153.833 25.3247C140.186 22.8259 128.505 30.6994 121.11 41.0799C111.949 53.951 113.661 60.5149 112.24 62.7154C111.446 63.9461 111.886 62.6284 110.752 64.3978L105.93 75.3005ZM104.546 139.299C105.044 140.489 104.354 142.101 104.359 143.646C104.367 146.754 105.078 144.873 105.148 148.399C104.28 149.199 105.078 148.698 103.648 149.303C102.92 149.075 102.01 148.263 100.992 147.04C101.81 145.61 102.338 143.99 102.505 142.295L103.49 144.085C103.552 144.156 103.681 144.289 103.789 144.384C103.897 137.629 103.594 137.849 104.546 139.299ZM97.4334 86.2943C99.067 73.502 102.388 70.3278 105.294 62.1228C106.512 58.6751 106.283 59.4624 107.913 56.8352C109.692 53.9717 112.61 35.3157 131.365 23.9365C137.97 19.9335 149.78 18.1019 158.043 20.6255C166.39 23.1699 170.351 28.5902 174.949 35.8586C184.505 50.9674 191.231 61.1117 191.697 83.9033C204.928 81.7608 208.556 94.3211 206.632 101.101C205.393 105.472 202.887 108.87 200.363 111.137C198.684 112.646 197.429 113.354 195.159 114.369C192.387 115.613 192.166 115.235 190.292 115.799C185.773 117.154 187.976 124.99 179.75 134.231C178.648 135.47 178.42 136.038 177.431 137.194C176.35 138.454 172.937 140.642 171.029 141.852C163.102 146.878 149.277 152.862 136.985 151.578C131.939 151.047 123.596 149.551 119.261 147.674C114.863 145.768 115.374 145.644 112.938 142.888C104.874 133.763 106.183 132.433 102.006 126.983C97.1217 120.618 96.3568 94.6858 97.4334 86.2943Z" fill="#F15A29"/>
<path fill-rule="evenodd" clip-rule="evenodd" d="M199.565 199.975L201.257 198.798C202.097 198.392 202.517 198.309 203.381 198.048L204.944 201.409C203.997 202.266 203.855 202.092 202.396 202.374C200.721 200.932 201.548 201.015 199.565 199.975Z" fill="#F15A29"/>
<path fill-rule="evenodd" clip-rule="evenodd" d="M178.668 201.967L178.373 204.446C177.516 205.026 176.415 205.498 175.114 205.793L175.255 203.285L176.161 202.883C176.955 202.025 176.427 204.052 177.076 201.59C178.078 202.415 175.617 203.149 178.668 201.967Z" fill="#F15A29"/>
<path fill-rule="evenodd" clip-rule="evenodd" d="M114.565 149.811C112.653 150.632 112.956 156.794 113.056 157.287C113.8 161.025 113.056 158.563 114.814 159.964C115.03 157.552 116.718 156.607 119.158 156.16L119.042 160.486C119.42 160.507 120.151 160.432 120.713 160.109L121.681 163.121C123.377 163.213 124.021 162.616 125.368 162.073C125.364 164.203 124.948 165.906 125.763 167.464C124.391 175.756 126.877 181.653 129.753 188.515C127.675 188.391 127.609 188.457 127.176 191.259C126.906 193.045 126.786 193.766 127.284 195.295C127.413 195.345 127.596 195.398 127.679 195.407C129.841 195.597 128.955 195.249 129.99 194.727C130.813 194.313 130.851 194.557 132.16 194.151C133.686 195.763 135.074 199.969 136.849 202.377L136.475 205.729L134.168 205.99C134.031 205.936 133.457 205.377 133.357 205.29C132.642 204.702 133.287 205.054 132.593 204.668C131.678 203.778 132.144 204.37 131.703 203.62C129.666 203.666 129.674 204.051 129.159 205.588C128.735 206.852 128.278 208.439 128.008 209.931C127.559 209.67 125.875 210.329 127.235 205.717C128.315 202.041 128.552 203.947 128.585 201.175L125.9 200.466C126.511 198.399 126.565 199.265 126.424 197.313C121.827 197.562 124.715 197.172 123.631 198.743L123.103 200.259C122.849 201.743 123.888 201.581 122.687 204.088L122.841 202.087L120.629 204.685C119.349 206.409 117.986 208.821 116.485 209.16C115.076 208.978 115.833 209.72 114.897 208.1C116.535 205.796 114.785 201.15 117.088 198.714C118.501 197.454 116.456 197.773 119.411 198.237C119.424 198.241 121.053 199.004 121.149 199.045C121.502 197.528 121.91 196.836 122.791 195.295C125.946 189.759 125.002 184.342 120.064 188.855L119.748 186.095C117.321 185.722 117.882 186.261 115.833 187.463L118.356 177.725C119.091 176.465 118.376 177.87 118.738 176.208C119.939 170.734 122.745 168.065 116.402 168.911C114.34 172.652 115.67 172.653 114.511 176.295C113.904 178.193 112.64 180.915 112.707 183.157C112.037 183.655 113.671 185.163 111.651 183.257H110.133C110.794 180.36 112.241 181.147 112.079 177.381C112.74 175.881 112.565 175.748 112.931 174.592C112.981 174.43 113.301 173.552 113.359 173.415C113.904 172.172 113.322 173.22 113.999 172.259C119.1 160.548 115.367 161.787 113.779 161.348C113.696 161.323 113.542 161.286 113.459 161.257C109.227 159.703 111.796 158.07 105.81 158.774C105.041 158.866 104.538 158.828 103.491 158.994L103.649 149.301C105.079 148.696 104.281 149.198 105.15 148.398C105.079 144.872 104.368 146.753 104.36 143.645C104.356 142.099 105.046 140.487 104.547 139.298C106.16 139.795 107.785 142.961 109.277 144.445C110.337 145.501 113.908 148.572 114.565 149.811Z" fill="#EB441C"/>
<path fill-rule="evenodd" clip-rule="evenodd" d="M208.54 203.297C205.003 203.765 206.354 204.151 204.375 205.182C202.122 206.359 201.457 205.477 201.195 208.647C198.826 207.88 200.734 208.609 198.772 207.507L202.692 212.82C203.535 215.086 205.897 222.541 208.885 223.453L203.452 226.826C203.939 224.99 204.408 225.086 205.452 224.257C205.456 222.011 204.778 220.415 203.802 218.464C200.048 210.934 201.307 216.504 199.375 211.825C198.996 210.905 198.776 210.151 198.315 209.223C194.898 202.344 189.826 209.032 195.193 214.498C197.924 217.278 197.354 215.231 197.699 217.602C198.211 221.149 197.658 219.048 195.683 220.449C195.829 222.342 196.76 224.253 197.645 225.711C196.893 225.106 196.394 224.331 195.804 223.469C194.586 221.692 194.698 221.584 192.375 220.979C192.541 224.074 192.832 223.743 193.958 225.902C193.954 225.902 192.711 226.01 192.674 226.014C191.423 224.133 192.325 225.086 190.645 223.731C189.772 223.03 189.415 222.686 188.318 221.833C186.393 218.103 187.902 221.485 185.237 219.065C182.12 216.234 183.167 213.574 178.092 207.188L194.324 201.416C194.482 201.996 194.478 202.116 194.773 202.758L196.12 204.635C197.496 205.92 197.338 205.634 199.279 205.833C199.395 203.036 199.923 203.123 198.327 200.674L199.566 199.973C201.549 201.014 200.721 200.931 202.397 202.373C203.856 202.091 203.997 202.265 204.945 201.407L203.382 198.047L205.751 197.529C208.482 199.008 208.204 200.649 206.998 202.555L208.54 203.297Z" fill="#EA3E19"/>
<path fill-rule="evenodd" clip-rule="evenodd" d="M164.379 225.38C167.393 227.211 165.942 231.674 169.953 235.391L173.316 237.19C173.17 237.285 172.992 237.298 172.925 237.534L170.227 239.738C169.986 236.552 167.147 232.901 165.597 230.311C164.346 228.222 161.565 222.939 159.366 222.74C158.9 226.457 165.331 238.392 169.712 239.738C169.051 240.261 170.099 239.743 168.615 240.368C168.423 240.447 167.143 240.841 166.969 240.878C165.609 241.197 164.3 241.338 162.912 241.512C164.3 238.45 158.618 232.934 155.234 227.489C154.228 225.865 153.459 224.186 152.133 223.486L150.732 225.363C150.686 225.268 150.537 225.591 150.45 225.711C150.674 226.669 151.48 228.566 151.547 229.039C151.95 232.006 151.223 228.471 151.243 231.998C151.248 233.067 153.48 240.368 157.159 239.925C159.86 239.598 156.793 239.759 160.322 241.011C160.372 241.027 161.461 241.251 161.673 241.309C160.388 242.113 156.498 242.345 154.66 242.063L150.246 241.491C148.982 240.994 147.847 239.158 146.762 238.035C145.129 236.357 144.447 235.69 145.012 232.466L143.304 232.35L144.821 229.039L145.989 228.082C146.118 228.053 146.305 227.957 146.471 227.916C147.282 225.463 149.577 222.935 151.526 221.286C153.193 219.877 156.414 216.727 158.551 216.429C160.55 219.23 162.163 223.258 164.379 225.38Z" fill="#EC461D"/>
<path fill-rule="evenodd" clip-rule="evenodd" d="M83.0747 190.75L81.1584 195.843C81.3912 193.385 81.0462 193.211 78.6187 192.984C77.7915 193.816 76.7356 196.22 75.8212 197.882C74.5617 200.173 74.5865 201.69 75.4137 203.87C73.2813 205.262 72.9405 210.239 71.8597 212.849C71.203 214.445 70.6085 215.916 70.0265 217.416C69.0289 219.985 68.3805 219.828 67.7154 221.941C65.6163 221.013 67.3704 221.738 65.7825 220.491C64.6851 219.629 64.4274 219.583 63.118 218.945C62.7772 218.046 62.6358 218.104 61.6257 217.238C60.6697 216.413 60.4535 216.372 59.514 215.638C57.8804 214.366 57.2029 213.459 56.2094 211.511C58.1382 212.12 57.5022 212.51 59.6804 208.262L60.4784 211.631C60.8692 211.296 61.5384 212.319 60.811 208.88C60.1002 205.519 60.6614 210.641 60.599 207.827L62.4487 207.23C63.7249 206.559 63.9618 204.653 64.5438 202.34C66.3395 203.14 63.7457 203.318 65.9322 203.828C67.3081 202.291 68.2017 198.752 70.1138 197.5C69.7189 199.817 69.1454 201.661 70.5046 203.542C73.4767 202.249 76.7523 193.858 76.1329 191.695C73.5141 191.26 73.3354 193.274 71.3152 197.372C70.4921 196.531 69.7231 198.822 70.8662 195.151C71.2777 193.829 73.3935 191.976 74.2831 188.806C77.9161 188.96 80.8924 189.163 83.0747 190.75Z" fill="#EE4D21"/>
<path fill-rule="evenodd" clip-rule="evenodd" d="M188.316 221.833C188.545 224.062 188.212 222.935 189.385 224.472C191.284 226.963 192.943 229.549 195.146 228.339C195.063 226.329 195.703 227.282 193.957 225.902C192.831 223.743 192.54 224.075 192.373 220.979C194.697 221.584 194.585 221.692 195.803 223.47C196.393 224.331 196.892 225.106 197.644 225.711C198.334 226.814 198.812 227.311 199.062 229.002L191.841 232.213L183.657 221.576C182.991 218.588 181.399 217.187 179.067 214.299C175.206 209.513 177.322 211.436 173.535 210.226L172.325 209.592L178.091 207.188C183.166 213.574 182.119 216.234 185.236 219.065C187.901 221.485 186.392 218.103 188.316 221.833Z" fill="#EC481E"/>
<path fill-rule="evenodd" clip-rule="evenodd" d="M71.5258 223.965C69.8588 223.737 70.3119 223.94 69.9669 223.153C69.9669 219.829 72.22 214.773 73.7706 212.966L76.1485 213.02C76.9425 215.307 75.0802 219.895 73.8414 222.145C72.8437 223.944 73.7582 223.169 71.5258 223.965Z" fill="#EA3C17"/>
<path fill-rule="evenodd" clip-rule="evenodd" d="M102.922 243.883C103.425 239.412 106.497 239.901 111.04 239.246C114.773 238.708 116.41 235.865 120.189 235.401C124.229 234.903 128.261 235.04 132.476 234.386C136.068 233.83 140.574 231.982 143.305 232.351L145.013 232.467C144.448 235.691 145.13 236.358 146.763 238.036C147.848 239.159 148.983 240.995 150.247 241.492C150.168 241.646 150.026 241.679 149.968 241.927C149.527 243.788 144.078 246.105 142.432 246.929C138.953 248.67 137.298 250.464 134.58 252.25C132.248 253.779 124.3 257.459 122.051 259.216C120.347 260.55 120.139 261.172 117.458 261.731C117.371 261.595 117.296 261.213 117.263 261.296C117.171 261.512 116.93 259.85 116.107 259.083C114.902 257.96 114.619 258.777 113.122 258.706C110.034 258.569 113.048 258.743 110.578 257.343C109.265 256.601 108.725 256.953 106.979 256.688C106.443 252.59 106.077 254.873 104.381 252.544C108.043 250.866 111.31 250.75 111.867 249.465C112.57 245.147 106.596 246.523 102.922 243.883Z" fill="#FEFEFE"/>
<path fill-rule="evenodd" clip-rule="evenodd" d="M142.792 251.463C147.273 249.855 149.601 248.115 152.561 245.446C154.015 244.136 153.35 243.983 154.664 242.065C156.501 242.346 160.392 242.114 161.676 241.31L162.915 241.513C164.303 241.339 165.613 241.198 166.972 240.879C167.147 240.842 168.427 240.448 168.618 240.37C170.102 239.744 169.055 240.262 169.716 239.74H170.231C171.457 245.259 181.891 243.146 180.714 251.384C177.975 252.105 175.572 251.969 173.033 250.788C169.258 249.03 168.876 246.855 167.579 246.917C165.987 247.659 163.642 249.81 164.985 252.441C166.066 254.554 168.539 256.1 169.491 257.679C167.409 257.903 167.03 257.252 165.143 257.969C163.605 258.553 164.49 259.714 162.167 258.963C160.363 258.383 161.381 257.24 158.995 258.176C156.958 258.98 159.361 260.551 155.666 258.715C147.502 254.67 154.668 260.779 145.635 253.9C144.268 252.859 143.939 253.1 142.792 251.463Z" fill="#FEFEFE"/>
<path d="M105.367 139.82C105.832 138.78 105.362 137.557 104.319 137.093C103.276 136.629 102.05 137.097 101.584 138.137C96.7579 148.882 87.6754 157.282 77.8695 161.405C72.6694 163.593 67.2739 164.559 62.24 164.008C57.3184 163.473 52.7252 161.459 48.9924 157.692C43.809 152.454 40.2175 143.806 39.5524 130.972C39.5275 130.454 39.4526 129.945 39.3736 129.402C39.2198 128.341 39.0411 127.089 39.3071 126.567C39.8267 125.548 39.4194 124.301 38.3968 123.783C37.3743 123.265 36.1231 123.671 35.6035 124.69C34.743 126.377 35.0257 128.329 35.2668 129.986C35.3333 130.454 35.3997 130.898 35.4122 131.184C36.1313 145.128 40.1759 154.671 46.0369 160.589C50.4888 165.085 55.9508 167.48 61.7994 168.123C67.5357 168.748 73.6337 167.667 79.4782 165.21C90.186 160.705 100.1 151.539 105.367 139.82Z" fill="#F25A29"/>
<path d="M108.097 151.345C108.766 150.421 108.554 149.128 107.627 148.465C106.7 147.798 105.403 148.009 104.738 148.933C90.5845 168.53 78.5424 177.547 68.537 179.768C62.1439 181.19 56.5613 179.768 51.7894 176.569C46.8761 173.271 42.7608 168.066 39.4686 162.082C31.2881 147.218 28.2453 127.89 30.3362 120.423C30.6438 119.325 29.9954 118.185 28.8938 117.883C27.7923 117.576 26.6492 118.223 26.3416 119.321C24.0429 127.517 27.1687 148.332 35.8314 164.075C39.4146 170.585 43.958 176.296 49.4865 180C55.1563 183.809 61.803 185.495 69.4307 183.8C80.3713 181.372 93.2781 171.862 108.097 151.345Z" fill="#F25A29"/>
<path d="M22.9854 88.4979C22.0211 88.8667 21.5181 90.0685 21.8548 91.1791C22.1956 92.2938 23.2514 92.8988 24.2158 92.53C27.8946 91.1128 32.6791 94.229 35.6054 97.6933C36.8608 99.1768 37.7212 100.656 37.9415 101.775C37.9997 102.061 37.9207 102.285 37.6589 102.355C35.9047 102.832 32.1261 101.879 25.4337 98.3936L25.4005 98.3729C24.4736 97.8549 23.3761 98.2942 22.9438 99.3467C22.5115 100.399 22.9148 101.671 23.8376 102.189L23.9165 102.227C25.4296 103.014 26.8221 103.685 28.1024 104.249C28.41 104.601 28.755 104.92 29.1416 105.161C31.5817 106.715 34.1172 108.584 34.4913 109.831C34.5204 109.934 34.2087 109.752 33.606 109.976L33.4854 110.021C26.7639 107.233 23.0103 106.039 21.2936 105.766C17.1202 105.098 16.663 106.715 18.7081 109.545C19.1196 110.117 20.1006 110.838 21.3933 111.522C24.3072 113.067 29.4658 114.882 33.2277 114.402L33.5519 114.538C35.4848 115.351 36.3868 115.989 36.5531 116.453L36.5531 116.461C36.5656 116.507 36.071 116.639 35.3893 117C33.9718 117.746 31.8768 118.243 29.6321 118.334C25.5418 118.5 21.0941 117.319 20.059 113.747C19.7348 112.628 18.6874 112.002 17.7188 112.355C16.7503 112.707 16.2307 113.896 16.5549 115.015C18.2342 120.829 24.3281 122.797 29.8358 122.573C32.546 122.466 35.1523 121.828 36.9812 120.862C39.546 119.511 40.8678 117.456 39.9783 114.932C39.6291 113.958 38.8726 112.993 37.6089 112.093C38.3197 111.078 38.3905 109.864 37.9956 108.53C37.8127 107.916 37.4801 107.299 37.0353 106.69C37.6173 106.681 38.1244 106.615 38.565 106.499C41.2711 105.762 42.0816 103.644 41.5412 100.917C41.1671 99.0194 39.9492 96.8023 38.2283 94.7677C34.5121 90.3668 28.198 86.4922 22.9854 88.4979Z" fill="#F25A29"/>
<path d="M22.7807 90.8886C23.7867 91.0916 24.7303 90.3333 24.8882 89.1937C25.042 88.0541 24.352 86.9643 23.3419 86.7612C18.9815 85.8744 16.0509 87.648 14.3466 90.238C13.6607 91.2823 13.1827 92.4715 12.9042 93.6733C12.6216 94.8667 12.5385 96.0851 12.6382 97.1915C12.6632 97.465 12.6964 97.7302 12.7421 97.9871L12.526 98.07C11.0753 98.7082 10.219 99.972 10.9381 102.334C10.4102 102.409 9.86567 102.537 9.31697 102.902L9.30865 102.906C7.48799 104.116 6.86859 106.897 11.3538 115.334L11.4369 115.479C11.5865 115.736 11.7195 115.897 11.8484 116.017C12.422 116.863 13.4696 117.111 14.2801 116.56C15.1447 115.972 15.4107 114.683 14.8662 113.688C14.675 113.336 14.5129 113.112 14.3633 112.955C11.6032 107.758 11.1251 106.606 11.2415 106.528C11.2872 106.515 11.5367 106.482 11.7819 106.453H11.7986C12.2724 106.395 12.7338 106.341 13.2118 106.134C14.6043 105.525 15.4066 104.439 14.7332 101.986C15.099 102.044 15.4732 102.148 15.6561 102.202L15.7225 102.226C16.7077 102.566 17.7302 101.945 18.0087 100.838C18.2873 99.7276 17.7177 98.5507 16.7326 98.2109C16.5289 98.1405 16.3751 97.5976 16.3128 96.8724C16.2587 96.2467 16.3087 95.5381 16.4749 94.8294C16.637 94.125 16.9196 93.4205 17.3311 92.7989C18.2997 91.3237 20.0539 90.3333 22.7807 90.8886Z" fill="#F25A29"/>
<path fill-rule="evenodd" clip-rule="evenodd" d="M201.662 197.148L203.354 195.971C204.193 195.565 204.613 195.482 205.478 195.221L207.041 198.582C206.093 199.44 205.952 199.265 204.493 199.547C202.817 198.105 203.649 198.188 201.662 197.148Z" fill="#F15A29"/>
<path fill-rule="evenodd" clip-rule="evenodd" d="M180.761 199.141L180.47 201.619C179.61 202.2 178.512 202.672 177.207 202.966L177.352 200.459L178.259 200.057C179.049 199.203 178.521 201.226 179.169 198.764C180.171 199.593 177.71 200.326 180.761 199.141Z" fill="#F15A29"/>
<path fill-rule="evenodd" clip-rule="evenodd" d="M210.644 200.471C207.102 200.939 208.453 201.324 206.475 202.356C204.222 203.533 203.557 202.65 203.295 205.821C200.925 205.054 202.833 205.783 200.871 204.681L204.791 209.993C205.635 212.26 207.996 219.715 210.985 220.627L205.552 224C206.038 222.164 206.508 222.26 207.551 221.431C207.556 219.185 206.878 217.589 205.905 215.638C202.148 208.112 203.407 213.682 201.474 208.999C201.096 208.079 200.876 207.325 200.414 206.397C196.997 199.518 191.926 206.206 197.292 211.676C200.023 214.452 199.458 212.405 199.799 214.776C200.31 218.323 199.757 216.226 197.783 217.627C197.933 219.52 198.86 221.427 199.745 222.885C198.993 222.28 198.494 221.505 197.904 220.643C196.686 218.866 196.798 218.762 194.474 218.153C194.64 221.248 194.931 220.917 196.058 223.076C196.054 223.076 194.811 223.184 194.773 223.188C193.522 221.306 194.424 222.259 192.745 220.904C191.872 220.204 191.515 219.86 190.417 219.006C188.497 215.277 190.001 218.658 187.337 216.238C184.219 213.412 185.271 210.752 180.191 204.362L196.424 198.589C196.582 199.17 196.577 199.29 196.873 199.936L198.224 201.809C199.595 203.094 199.442 202.808 201.379 203.007C201.495 200.21 202.023 200.297 200.431 197.848L201.665 197.147C203.652 198.187 202.821 198.105 204.496 199.547C205.955 199.265 206.097 199.439 207.044 198.581L205.481 195.22L207.855 194.707C210.582 196.186 210.303 197.823 209.098 199.729L210.644 200.471Z" fill="#EA3E19"/>
<path fill-rule="evenodd" clip-rule="evenodd" d="M190.415 219.007C190.644 221.24 190.311 220.109 191.483 221.647C193.383 224.137 195.041 226.723 197.244 225.517C197.161 223.507 197.801 224.456 196.056 223.076C194.929 220.917 194.638 221.249 194.472 218.153C196.796 218.762 196.683 218.866 197.901 220.644C198.492 221.506 198.99 222.281 199.743 222.886C200.437 223.992 200.911 224.485 201.16 226.18L193.94 229.387L185.755 218.75C185.09 215.762 183.498 214.362 181.166 211.473C177.304 206.687 179.42 208.61 175.633 207.4L174.424 206.766L180.189 204.362C185.269 210.752 184.217 213.413 187.335 216.239C189.999 218.659 188.494 215.277 190.415 219.007Z" fill="#EC481E"/>
<path d="M176.641 202.17C175.419 202.079 174.351 202.995 174.263 204.213C174.172 205.431 175.091 206.496 176.313 206.583C180.324 206.89 184.419 206.364 188.384 205.212C195.496 203.14 202.193 199.025 207.21 194.052C212.344 188.968 215.773 182.93 216.214 177.157C216.355 175.288 216.185 173.44 215.661 171.646C214.372 167.241 209.243 163.611 202.983 160.955C195.276 157.693 185.653 155.758 179.821 155.758C178.591 155.758 177.597 156.753 177.597 157.975C177.597 158.108 177.606 158.232 177.631 158.356C177.759 159.997 177.518 161.999 177.256 164.166C176.999 166.288 176.728 168.555 176.728 170.966C176.728 172.189 177.722 173.183 178.952 173.183C180.179 173.183 181.176 172.189 181.176 170.966C181.176 168.778 181.43 166.665 181.667 164.688C181.854 163.155 182.028 161.696 182.082 160.283C187.47 160.681 195.014 162.384 201.245 165.024C206.4 167.212 210.544 169.939 211.404 172.877C211.77 174.128 211.886 175.458 211.783 176.826C211.429 181.504 208.49 186.552 204.084 190.919C199.557 195.403 193.534 199.108 187.149 200.968C183.691 201.971 180.125 202.431 176.641 202.17Z" fill="#F25A29"/>
<path d="M180.204 215.485C180.844 214.503 180.565 213.185 179.58 212.547C178.657 211.95 177.444 212.158 176.766 212.991C175.577 213.525 174.056 214.213 172.663 220.159C172.472 220.976 171.437 221.56 170.219 221.883C169.467 222.078 168.66 222.161 167.916 222.128C167.255 222.099 166.661 221.975 166.229 221.767C166.096 221.701 166.017 221.83 166.013 221.759C165.958 219.401 164.807 218.688 163.061 218.726H163.053C162.355 218.742 161.756 218.945 161.116 219.165C160.688 219.31 160.222 219.467 160.023 219.463C159.856 219.463 160.326 219.19 160.339 218.096C160.372 215.261 158.988 214.524 157.159 214.507C156.955 214.503 156.76 214.516 156.572 214.536C156.776 212.829 155.77 212 154.635 211.072C153.875 210.45 152.915 209.663 156.564 205.676C157.346 204.823 160.068 204.545 163.115 204.611C167.326 204.703 171.799 205.523 173.187 206.443L173.258 206.493C174.239 207.139 175.565 206.874 176.213 205.896C176.862 204.918 176.592 203.596 175.611 202.95L175.54 202.904C173.59 201.611 168.108 200.476 163.198 200.368C159.071 200.281 155.134 200.932 153.409 202.817C146.746 210.098 149.643 212.472 151.934 214.35C152.079 214.47 152.445 213.587 152.328 214.085C151.564 217.337 152.586 218.548 154.344 218.958C154.976 219.107 155.542 219.045 156.099 218.941C156.277 222.675 157.94 223.682 159.989 223.707C160.754 223.715 161.432 223.533 162.064 223.33C162.475 224.32 163.29 225.07 164.362 225.592C165.306 226.052 166.486 226.313 167.733 226.367C168.897 226.421 170.14 226.297 171.304 225.99C173.915 225.306 176.213 223.703 176.82 221.121C177.735 217.217 178.175 217.018 178.516 216.861C179.106 216.596 179.634 216.355 180.204 215.485ZM155.346 214.822L155.309 214.818C155.068 214.76 155.147 214.777 155.346 214.822Z" fill="#F25A29"/>
<path d="M175.32 141.325C174.156 141.698 173.512 142.941 173.886 144.105C174.26 145.266 175.512 145.904 176.675 145.531C180.113 144.429 193.016 148.436 204.584 154.138C213.467 158.518 221.344 163.83 223.073 168.43C224.25 171.571 224.79 174.592 224.79 177.476C224.79 184.774 221.282 191.226 216.015 196.522C210.591 201.979 203.325 206.219 196.034 208.937C190.044 211.175 184.054 212.376 179.074 212.376C177.848 212.376 176.85 213.371 176.85 214.593C176.85 215.816 177.848 216.811 179.074 216.811C184.536 216.811 191.074 215.505 197.58 213.077C205.428 210.147 213.267 205.564 219.162 199.642C225.21 193.555 229.238 186.063 229.238 177.476C229.238 174.103 228.606 170.568 227.226 166.889C225.048 161.091 216.298 154.979 206.546 150.172C194.117 144.043 179.685 139.92 175.32 141.325Z" fill="#F25A29"/>
<path fill-rule="evenodd" clip-rule="evenodd" d="M178.771 145.365C183.876 145.643 194.717 149.273 204.585 154.138C213.468 158.518 221.345 163.831 223.074 168.43C224.251 171.571 224.791 174.592 224.791 177.476C224.791 184.774 221.283 191.226 216.016 196.522C210.591 201.979 203.325 206.219 196.034 208.937C190.348 211.059 184.666 212.252 179.844 212.368C179.266 212.207 178.655 212.29 178.144 212.58C177.84 212.72 177.574 212.924 177.362 213.176C176.153 213.732 174.644 214.643 173.255 220.565C173.056 221.419 171.975 222.028 170.707 222.363C169.922 222.566 169.086 222.654 168.309 222.62C167.619 222.587 167.004 222.459 166.55 222.243C166.413 222.177 166.33 222.31 166.33 222.235C166.272 219.778 165.071 219.036 163.254 219.077H163.246C162.518 219.094 161.895 219.305 161.226 219.533C160.781 219.682 160.295 219.848 160.091 219.848C159.916 219.844 160.407 219.558 160.419 218.418C160.452 215.472 159.014 214.701 157.106 214.681C156.894 214.681 156.691 214.693 156.499 214.714C156.707 212.936 155.66 212.074 154.479 211.109C153.689 210.458 152.688 209.637 156.487 205.489C157.302 204.594 160.137 204.308 163.312 204.375C167.694 204.474 172.353 205.328 173.796 206.285L173.875 206.339C174.515 206.762 175.3 206.807 175.961 206.53C176.078 206.559 176.194 206.575 176.315 206.583C180.326 206.89 184.42 206.364 188.386 205.212C195.498 203.14 202.195 199.025 207.212 194.052C212.346 188.968 215.775 182.93 216.216 177.157C216.357 175.288 216.187 173.44 215.663 171.646C214.374 167.241 209.245 163.611 202.985 160.955C195.586 157.822 186.416 155.916 180.534 155.766C180.634 152.808 180.297 149.604 178.771 145.365Z" fill="#FEFEFE"/>
<path d="M40.2125 117.485C39.4019 118.289 39.3977 119.598 40.2041 120.406C41.0106 121.214 42.3241 121.219 43.1347 120.415C53.4809 110.15 52.421 105.223 50.9827 98.5597C50.1638 94.7638 49.2035 90.3133 50.8912 83.4675C51.4357 81.2588 50.2095 76.8538 48.3515 74.3591C47.5076 73.2237 46.4851 72.3701 45.342 72.0427C43.8871 71.6283 42.453 71.9764 41.1852 73.4392C39.5433 75.333 38.1091 79.8291 37.4939 88.5811C37.4731 88.8753 36.8331 90.6116 36.6169 91.1917L36.5421 91.4155C36.1514 92.4888 36.7084 93.674 37.7808 94.0635C38.8574 94.453 40.0462 93.8978 40.437 92.8245L40.5159 92.6173C40.7819 91.9004 41.5717 89.7579 41.6382 88.8587C42.1786 81.122 43.2012 77.4339 44.3194 76.1452C44.361 76.0955 44.0949 75.996 44.203 76.025C44.4025 76.083 44.6977 76.3855 45.0219 76.8206C46.2772 78.5072 47.1709 81.2464 46.8675 82.4771C44.947 90.2594 46.0154 95.2031 46.9216 99.4175C48.0896 104.821 48.95 108.816 40.2125 117.485Z" fill="#F25A29"/>
<path fill-rule="evenodd" clip-rule="evenodd" d="M110.966 130.675C101.705 113.979 100.84 100.574 103.887 82.0087L101.538 82.5143C100.183 79.1825 103.796 76.9075 105.932 75.2997L110.754 64.397C111.889 62.6276 111.448 63.9453 112.242 62.7146C113.664 60.5142 111.951 53.9502 121.113 41.0792C128.508 30.6986 140.188 22.8252 153.835 25.3239C161.695 26.766 164.663 30.9597 168.122 35.8371C174.752 45.1899 181.881 57.1369 184.682 68.7399C186.889 77.8979 184.612 88.6763 188.103 90.2178C192.593 91.2704 195.107 86.5339 199.343 90.9554C202.191 93.9183 202.486 97.7597 200.673 101.966C199.218 105.347 196.529 107.946 193.362 109.425C188.39 111.75 185.036 108.965 183.518 114.323C178.834 130.828 170.512 139.377 153.427 143.786C146.548 145.564 133.508 146.807 126.492 144.648C118.951 142.324 114.628 137.276 110.966 130.675Z" fill="#FEFEFE"/>
<path fill-rule="evenodd" clip-rule="evenodd" d="M140.911 93.4952C130.876 93.9345 123.34 92.7617 113.834 92.7742C113.314 96.6156 115.338 98.2193 117.774 99.6986C121.374 101.891 121.998 101.862 126.898 101.452C129.912 101.195 139.959 99.9266 140.811 96.3379C140.919 95.8904 140.898 94.0505 140.911 93.4952ZM143.85 91.5932C144.86 97.9955 143.75 100.701 138.675 102.753C134.509 104.439 130.207 105.264 125.36 105.562C120.285 105.873 116.486 103.992 113.539 101.286C109.86 97.9126 108.837 95.6335 110.82 89.7118C113.306 88.7463 141.572 90.4701 143.85 91.5932Z" fill="black"/>
<path fill-rule="evenodd" clip-rule="evenodd" d="M141.819 78.9711C146.089 74.8351 156.66 79.8206 156.074 83.6831C155.392 88.1672 151.331 83.1734 149.344 82.415C146.064 81.1634 143.066 81.7685 141.819 78.9711Z" fill="black"/>
<path fill-rule="evenodd" clip-rule="evenodd" d="M103.884 82.0084L101.535 82.514C100.18 79.182 103.793 76.9068 105.93 75.2988C109.6 74.6275 109.588 73.724 113.491 75.0626C115.333 80.1352 112.785 78.7137 110.095 78.6972C107.879 78.6847 104.741 81.0387 103.884 82.0084Z" fill="black"/>
<path fill-rule="evenodd" clip-rule="evenodd" d="M123.457 68.4994C125.465 69.2702 126.708 70.1323 126.201 73.0125C125.822 75.151 123.719 76.0172 121.532 74.9604C117.633 73.0789 119.333 66.9163 123.457 68.4994Z" fill="#F15A29"/>
<path fill-rule="evenodd" clip-rule="evenodd" d="M125.404 57.7337C129.461 59.2671 127.424 65.898 123.151 64.3646C119.418 63.026 121.459 56.2418 125.404 57.7337Z" fill="#F15A29"/>
<path fill-rule="evenodd" clip-rule="evenodd" d="M137.204 66.4446C132.503 67.2776 131.908 64.5631 133.039 60.8373C138.788 58.6906 139.882 62.3542 137.204 66.4446Z" fill="#F15A29"/>
<path fill-rule="evenodd" clip-rule="evenodd" d="M126.235 50.8016C125.491 50.238 124.767 49.9396 125.05 48.0872C125.241 46.8356 126.019 46.2264 126.783 45.3851C133.46 45.2856 131.631 53.2923 126.235 50.8016Z" fill="#F15A29"/>
<path fill-rule="evenodd" clip-rule="evenodd" d="M133.877 70.4056C136.995 72.4487 133.586 76.9204 130.593 74.8482C127.858 72.946 130.606 68.2588 133.877 70.4056Z" fill="#F15A29"/>
<path fill-rule="evenodd" clip-rule="evenodd" d="M139.614 46.2543C142.403 47.6343 142.411 51.6543 139.622 51.6294C136.824 51.6045 136.824 47.8415 139.614 46.2543Z" fill="#F15A29"/>
<path fill-rule="evenodd" clip-rule="evenodd" d="M112.036 147.023C103.34 145.179 90.0713 186.946 82.7304 177.763C70.8628 162.911 77.8254 153.567 95.5208 138.636C106.017 129.781 114.896 147.633 112.036 147.023Z" fill="#EB441C"/>
<path fill-rule="evenodd" clip-rule="evenodd" d="M101.258 143.952C98.7551 147.138 89.2818 157.846 89.2818 157.772C89.2818 149.811 96.9469 143.479 96.8929 143.517C90.6494 147.764 84.3145 154.042 93.0354 141.503C97.6702 134.843 110.544 139.816 102.82 144.739C102.347 145.042 101.844 143.206 101.258 143.952Z" fill="#E4280D"/>
<path fill-rule="evenodd" clip-rule="evenodd" d="M91.8252 160.08L91.7836 160.175L91.4427 158.857C88.9487 159.031 88.1215 160.593 87.1447 162.471C86.5586 163.594 85.1453 166.917 85.0622 167.7C83.7985 167.717 84.3762 167.344 83.9439 168.339C82.9546 167.514 82.3644 166.221 81.7159 164.932C82.3353 164.319 82.1233 164.514 82.4558 162.939L87.1987 149.629C89.3394 149.479 87.7973 149.318 89.2688 150.167L90.2373 150.764C92.3905 151.332 89.9172 149.985 92.7979 151.402L91.8252 160.08Z" fill="#E83513"/>
<path fill-rule="evenodd" clip-rule="evenodd" d="M97.0366 160.316L96.9743 160.399L96.9535 159.04C94.4927 158.617 93.3122 159.939 91.9197 161.53C91.0801 162.483 88.9185 165.376 88.6483 166.117C87.4179 165.832 88.0664 165.608 87.4096 166.474C86.6447 165.434 86.3829 164.041 86.0586 162.632C86.8027 162.185 86.5533 162.322 87.2517 160.875L95.0331 149.069C97.1489 149.434 95.6941 148.908 96.9162 150.085L97.7142 150.893C99.6721 151.958 97.5895 150.06 100.05 152.119L97.0366 160.316Z" fill="#E4280D"/>
</svg>
