<svg width="565" height="565" viewBox="0 0 565 565" fill="none" xmlns="http://www.w3.org/2000/svg">
<path fill-rule="evenodd" clip-rule="evenodd" d="M347.774 284.593L373.494 288.09C373.494 288.09 393.625 351.638 423.566 368.304C453.507 384.971 472.579 337.22 471.025 306.992L468.252 298.49C468.252 298.49 434.365 282.887 455.023 258.602L466.974 252.724L462.513 266.393L463.971 282.945L483.378 284.873L494.38 262.363C494.38 262.363 492.378 251.31 477.694 255.972C463.011 260.634 465.999 243.49 473.231 240.291C480.462 237.093 495.061 241.603 507.463 256.074C519.865 270.545 507.856 264.711 507.856 264.711L523.893 246.342L517.409 277.453L536.936 266.711L526.62 284.491L548.695 284.129L552 288.6L531.965 300.015L495.858 308.797C495.858 308.797 493.062 372.771 453.367 394.007C413.672 415.243 373.009 370.013 363.638 352.264L302.246 316.445L225.188 304.307L168.231 381.472L152.127 379.364L118.709 388.283C118.709 388.283 94.8042 389.596 72.3536 360.131C49.9039 330.668 56.0642 258.366 56.0642 258.366L26.7177 272.201L22.0671 266.347L36.6898 252.94L41.1245 246.63C41.1245 246.63 6.17608 250.435 2.50925 235.883C-1.15759 221.33 31.5881 233.629 31.5881 233.629C31.5881 233.629 3.91726 222.076 8.0055 211C12.0946 199.923 47.7179 227.663 47.7179 227.663C47.7179 227.663 46.6039 203.728 52.2925 201.657C57.9819 199.587 79.8445 203.794 79.8445 204.337C79.8445 204.879 67.4682 209.647 67.4682 209.647L56.4975 211.834L61.5992 228.133L71.3616 235.921L81.2784 237.276L86.2899 223.992L69.6908 214.796L81.2845 208.673L95.2232 219.219L95.34 241.449L82.0998 256.488L78.5173 322.658C78.5173 322.658 86.9735 368.689 112.622 368.494C138.27 368.298 163.442 366.208 176.149 353.7C188.857 341.191 209.658 312.984 209.442 293.556C209.227 274.129 227.659 274.233 227.659 274.233C227.659 274.233 245.875 304.832 298.237 293.997C350.598 283.162 347.774 284.593 347.774 284.593V284.593Z" fill="white"/>
<path fill-rule="evenodd" clip-rule="evenodd" d="M303.994 42.1868C303.994 42.1868 364.481 47.4438 378.556 168.99C378.556 168.99 398.335 165.681 403.414 179.702C408.491 193.724 413.438 201.571 386.667 220.695C359.895 239.82 368.959 260.804 341.728 275.843C314.496 290.883 277.085 311.87 232.154 283.107C201.049 263.195 204.008 159.7 206.26 154.286C208.512 148.871 228.819 63.393 280.062 42.7668L303.994 42.1868V42.1868Z" fill="white"/>
<path d="M316.559 37.9911C323.679 39.982 330.965 43.715 335.849 47.8629C343.797 54.6653 360.521 79.967 370.705 100.54C381.054 121.196 384.945 135.133 386.021 155.125L386.518 164.665L391.32 164.334C400.261 163.67 409.286 169.726 414.087 179.598C416.24 183.994 416.488 185.322 416.488 192.373C416.488 199.839 416.323 200.586 413.26 206.89C407.381 218.836 396.701 227.38 384.448 229.786C380.391 230.616 379.729 231.031 379.232 232.939C377.659 239.326 371.45 253.014 367.31 259.402C361.432 268.278 352.077 278.15 347.937 279.726C347.192 279.975 342.556 282.712 337.754 285.782C324.01 294.409 315.814 297.313 296.192 300.216C282.283 302.29 275.163 302.29 264.566 300.216C254.051 298.059 240.06 293.497 235.837 290.842C227.475 285.533 211.579 262.139 204.873 245.216C197.008 225.638 192.869 193.119 196.18 176.943C196.925 173.21 197.505 168.73 197.505 166.905C197.505 165.08 198.084 162.177 198.747 160.518C200.237 157.033 204.956 141.189 205.122 141.355C205.287 141.521 205.453 140.691 205.453 139.53C205.536 138.451 207.109 134.386 209.013 130.653C210.834 126.92 213.152 121.694 214.063 118.956C214.974 116.302 216.547 113.232 217.458 112.237C218.368 111.242 219.693 108.255 220.355 105.601C222.011 99.047 230.456 81.6261 236.003 73.3305C241.302 65.2837 253.472 53.338 262.331 47.3651C273.176 40.1479 282.615 37.4933 299.752 36.8297C308.777 36.4149 311.509 36.6638 316.559 37.9911ZM284.27 50.8493C274.749 53.1721 268.623 56.9051 256.618 67.6894C249.995 73.5793 244.53 81.1284 238.321 92.8252C232.608 103.775 223.984 117.493 223.073 125.208C222.494 130.103 214.757 149.336 213.829 152.123C213.167 153.948 211.414 162.84 211.165 165.246C210.917 167.652 210.089 172.795 209.344 176.777C206.612 192.041 209.261 218.753 215.388 237.169C219.941 250.857 232.443 271.762 240.225 278.565C247.759 285.201 260.012 288.602 276.322 288.602C289.155 288.602 299.173 287.441 309.687 284.703C335.187 278.067 351.663 265.789 361.598 245.88C364.081 241.068 368.883 227.298 368.883 225.224C368.883 224.394 369.877 222.735 371.201 221.491C373.023 219.666 374.513 219.085 378.735 218.67C388.836 217.592 397.612 211.868 401.834 203.406C406.553 194.198 405.891 186.483 400.013 180.261C395.873 175.948 393.638 175.616 385.442 178.353C381.468 179.681 379.729 179.846 378.322 179.183C374.679 177.524 374.099 175.284 373.52 161.43C373.271 154.13 372.609 145.585 372.195 142.35C369.38 122.109 354.974 92.2445 335.27 65.7814C328.481 56.5733 324.341 53.5039 315.069 50.3516C311.26 49.1072 308.777 48.8583 299.752 49.2731C293.791 49.439 286.837 50.1856 284.27 50.8493V50.8493Z" fill="#F15928"/>
<path d="M262.828 90.0053C265.394 92.1622 266.305 96.0611 264.732 98.3009C262.579 101.536 257.032 101.951 254.217 99.0475C251.568 96.4759 251.568 93.5724 254.3 90.4201C256.95 87.2677 259.433 87.1018 262.828 90.0053Z" fill="#F15928"/>
<path d="M254.3 113.15C259.184 115.141 259.93 121.612 255.873 125.676C253.141 128.331 250.077 128.248 247.097 125.262C241.467 119.538 247.097 110.081 254.3 113.15Z" fill="#F15928"/>
<path d="M276.997 106.662C272.361 106.005 270.33 100.595 272.952 96.2189C274.735 93.3428 277.392 92.7518 280.601 94.6783C286.68 98.3885 283.862 107.747 276.997 106.662Z" fill="#F15928"/>
<path d="M276.736 117.713C281.29 119.538 281.455 127.336 277.067 130.737C274.666 132.562 270.61 132.064 268.788 129.659C265.642 125.677 267.05 120.036 271.603 118.128C273.176 117.464 274.584 116.883 274.666 116.966C274.832 116.966 275.743 117.298 276.736 117.713Z" fill="#F15928"/>
<path d="M253.141 135.797C255.376 137.871 255.707 138.783 255.707 142.019C255.707 146.996 253.886 149.236 249.663 149.236C247.262 149.236 245.938 148.655 243.951 146.581C242.543 145.171 241.219 143.263 240.887 142.35C239.728 138.617 244.282 133.474 248.753 133.474C249.746 133.474 251.65 134.552 253.141 135.797Z" fill="#F15928"/>
<path d="M271.603 138.866C272.762 139.945 273.673 141.853 273.673 143.014C273.673 144.175 272.762 146.083 271.603 147.162C270.527 148.323 268.623 149.236 267.463 149.236C266.304 149.236 264.4 148.323 263.324 147.162C262.165 146.083 261.254 144.175 261.254 143.014C261.254 141.853 262.165 139.945 263.324 138.866C264.4 137.705 266.304 136.792 267.463 136.792C268.623 136.792 270.527 137.705 271.603 138.866Z" fill="#F15928"/>
<path d="M302.898 144.59C313.082 147.328 321.609 158.361 317.056 162.84C314.738 165.246 312.088 164.417 308.777 160.435C305.299 156.287 301.574 154.213 297.765 154.213C295.861 154.213 294.205 155.125 291.639 157.531C287.665 161.43 284.684 161.679 283.111 158.444C280.793 153.881 286.009 146.747 293.046 144.673C297.848 143.263 297.765 143.263 302.898 144.59Z" fill="black"/>
<path d="M215.049 138.144C225.232 140.882 233.76 151.915 229.206 156.395C226.888 158.8 224.239 157.971 220.927 153.989C217.45 149.841 213.724 147.767 209.916 147.767C208.011 147.767 206.356 148.68 203.789 151.085C199.815 154.984 196.835 155.233 195.262 151.998C192.943 147.435 198.159 140.301 205.197 138.227C209.998 136.817 209.916 136.817 215.049 138.144Z" fill="black"/>
<path d="M240.887 188.06C241.55 189.304 242.295 191.876 242.626 193.618C244.282 204.568 244.861 206.476 246.186 205.481C247.593 204.319 250.077 198.761 251.816 193.12C253.14 188.641 254.631 187.147 257.28 187.562C261.668 188.143 261.668 196.19 257.197 205.978C251.402 218.754 240.722 220.662 235.672 209.877C233.85 205.895 233.519 204.153 233.519 197.268C233.519 190.549 233.767 188.972 235.092 187.479C237.245 185.073 239.48 185.322 240.887 188.06Z" fill="black"/>
<path d="M221.5 475L270 465L290 460L339.5 472L367 496V506.5H354L339.5 503.5L342.5 518.5L316.5 522.5L301 515.5L281.5 503.5L238.5 526.5L218.5 518.5L207 503.5L216.5 496L204.5 486.5L221.5 475Z" fill="white"/>
<path d="M78.3681 198.761C80.9346 200.088 83.5839 202.245 84.4946 203.739C85.4053 205.149 87.144 206.476 88.3858 206.808C92.4426 207.638 99.6455 212.947 101.881 216.68C103.537 219.583 103.951 221.408 103.951 225.805C103.951 231.612 101.301 245.051 99.5627 248.369C98.4036 250.692 90.7868 258.822 87.7235 260.978C85.7365 262.472 85.5709 263.218 84.4118 274.5C82.9216 290.511 82.9216 316.891 84.4118 325.601C85.3225 330.662 86.8128 334.81 90.3728 341.778C100.722 362.517 102.212 363.595 121.006 364.508C130.361 365.006 134.004 364.84 139.468 363.678C143.277 362.932 147.168 362.517 148.078 362.766C149.32 363.098 153.46 361.273 161.077 357.374C173.495 350.82 182.354 345.013 186.908 340.285C191.544 335.556 197.588 319.712 203.714 296.484C204.873 291.921 206.529 286.861 207.44 285.202C208.268 283.543 209.261 280.473 209.51 278.316C210.172 274.086 211 273.505 212.49 276.325C216.961 284.704 231.946 299.553 237.162 300.715C238.321 300.963 242.461 302.208 246.352 303.535C263.324 309.176 279.055 310.669 294.785 308.098C299.67 307.351 302.319 307.185 302.567 307.766C302.65 308.181 307.866 313.241 314.158 318.965C325.087 329.086 336.843 337.381 352.408 346.092L357.955 349.161L358.452 347.17C358.783 345.843 358.038 343.188 356.051 339.04C353.07 332.653 350.835 321.868 351.828 318.052C352.739 314.485 359.197 312.992 361.68 315.813C362.426 316.559 363.419 319.131 363.999 321.371C369.38 343.022 375.341 357.125 384.283 369.154C390.326 377.366 399.185 385.994 402.083 386.74C403.159 386.989 407.05 388.316 410.693 389.644C420.048 393.128 427.334 394.206 438.511 393.875C447.618 393.543 448.28 393.377 451.344 391.054C465.501 380.353 477.671 365.338 481.645 353.392C482.97 349.493 484.543 343.852 485.205 340.865C485.868 337.879 487.689 331.16 489.262 325.933C491.083 320.292 492.243 314.651 492.243 312.163C492.243 305.941 493.65 304.614 502.26 302.706C506.152 301.876 512.113 300.217 515.507 299.138C521.468 297.147 525.111 296.152 537.364 293.083C543.739 291.506 549.369 289.018 549.369 287.773C549.369 286.197 545.312 286.944 533.39 290.677C520.557 294.659 518.819 294.991 517.246 293.414C514.513 290.677 518.405 285.119 528.34 277.736C530.741 275.994 532.976 274.086 533.307 273.505C533.969 272.426 529.664 275.662 522.793 281.303C518.156 285.202 515.341 285.368 512.94 281.966C510.705 278.814 509.877 274.086 511.285 272.426C512.195 271.348 511.947 271.182 509.794 271.182C506.483 271.182 505.406 269.606 505.158 264.629C504.992 261.808 504.247 259.402 502.757 257.162C500.108 253.181 491.332 245.714 488.434 244.968C484.874 244.055 480.486 245.3 477.754 247.954C475.353 250.277 475.188 250.775 476.015 252.517L476.926 254.508L479.41 252.102C481.562 249.945 482.639 249.613 486.282 249.613C495.885 249.613 501.184 256.167 500.356 267.117C500.108 271.016 499.445 272.841 496.962 276.408C495.223 278.897 492.243 282.049 490.173 283.543C487.275 285.617 486.447 286.778 486.447 288.52C486.447 291.672 485.04 292.751 480.569 292.751C474.36 292.751 468.067 291.258 464.756 288.935C460.368 285.865 457.47 279.644 457.47 273.339C457.47 267.283 459.126 264.048 464.176 260.398C466.08 259.07 467.24 257.909 466.743 257.909C464.921 257.909 458.96 264.048 456.973 268.03C454.49 272.924 454.49 276.242 456.973 281.635C459.457 287.11 464.093 291.672 469.392 293.995C471.71 295.074 474.525 296.816 475.601 298.06C477.506 300.051 477.588 300.383 477.009 309.01C476.098 322.283 469.972 345.345 464.011 357.954C460.285 365.752 456.145 369.983 448.032 374.048C443.727 376.205 442.237 376.537 436.276 376.537C419.138 376.537 408.458 367.246 393.224 339.04C386.849 327.178 383.869 320.043 376.997 300.217C373.851 291.009 372.94 290.179 365.82 289.681C355.802 289.101 348.185 287.939 346.861 286.861C344.957 285.285 345.784 281.718 348.351 280.473C351.166 279.146 373.023 280.722 376.5 282.464C379.977 284.289 382.627 288.437 385.69 296.899C392.065 314.651 394.797 321.122 401.255 333.316C413.26 356.378 420.711 364.093 433.129 366.665C437.849 367.66 438.428 367.577 442.154 365.752C450.847 361.522 456.394 353.641 460.037 340.285C464.673 322.947 466.577 314.651 467.074 309.093L467.571 303.037L463.017 300.715C457.636 298.143 451.344 291.589 448.446 285.699C447.121 282.962 446.293 279.727 446.045 275.745C445.714 270.518 445.962 269.108 447.866 264.794C450.681 258.656 458.05 251.024 463.017 249.282C464.839 248.618 466.66 248.286 466.908 248.535C467.157 248.867 467.405 248.452 467.405 247.788C467.405 245.714 474.774 238.083 478.002 236.755C481.894 235.096 490.007 235.179 493.319 236.838C497.955 239.244 506.4 246.544 509.629 251.024L512.692 255.42L516.335 250.692C518.322 248.037 521.551 244.304 523.372 242.396C526.435 239.161 527.181 238.829 530.741 238.829C534.052 238.829 534.963 239.244 537.033 241.401C538.937 243.475 539.434 244.719 539.434 247.622C539.434 251.273 537.281 256.748 534.549 259.9C533.224 261.476 533.307 261.476 535.708 259.983C537.033 259.07 540.924 256.25 544.318 253.595C549.783 249.282 550.776 248.784 554.336 248.784C559.386 248.784 561.87 251.273 562.615 257.08C563.526 264.214 561.87 266.454 550.362 273.339L543.573 277.404L548.872 277.653C553.674 277.902 554.502 278.15 556.323 280.39C557.979 282.298 558.476 283.874 558.476 286.778C558.476 295.322 553.591 298.807 535.129 303.535C528.174 305.277 520.806 307.351 518.819 308.015C515.507 309.259 510.208 310.669 503.585 312.163C501.846 312.577 501.35 313.158 501.35 314.983C501.35 316.227 500.604 319.795 499.777 323.03C491.166 355.798 489.014 362.766 486.282 366.914C480.569 375.458 473.449 384.666 471.214 386.491C469.806 387.653 466.412 390.639 463.597 393.211C455.4 400.843 452.917 402.17 444.969 403.166C424.519 405.82 402.248 400.013 388.505 388.482C382.709 383.671 371.698 369.734 368.635 363.43C365.572 357.208 364.495 359.033 362.84 373.218C362.094 379.357 361.266 387.238 361.018 390.639C360.025 403.249 358.783 409.802 357.375 410.3C356.63 410.549 351.911 412.54 346.944 414.697C341.893 416.853 334.276 419.84 329.971 421.416C325.666 422.909 320.699 424.983 319.043 426.062C317.304 427.14 315.566 427.97 315.069 427.97C314.655 427.97 314.241 428.301 314.241 428.716C314.241 429.131 312.999 430.044 311.509 430.707C310.019 431.454 307.204 433.528 305.217 435.353C303.147 437.261 301.325 438.754 300.994 438.754C300.249 438.754 293.543 447.464 291.639 450.949C289.652 454.516 289.817 455.511 292.467 455.179C294.123 455.013 295.447 453.852 297.186 451.197C298.593 449.124 301.16 446.137 302.981 444.561C304.803 442.985 308.032 440.081 310.101 438.256C314.986 433.694 324.507 428.136 333.283 424.651C337.174 423.158 345.371 419.508 351.497 416.605C357.624 413.701 367.89 409.636 374.265 407.562C380.64 405.571 388.008 403.166 390.657 402.253C394.135 401.009 395.873 400.76 396.536 401.341C398.274 402.751 404.235 404.659 413.094 406.567C419.883 408.06 424.022 408.392 434.702 408.309C442.65 408.309 448.943 407.894 450.35 407.313L452.751 406.318L452.171 413.535C451.758 419.508 451.261 421.167 449.274 424.154C445.962 428.965 440.084 433.694 426.009 443.068C407.63 455.179 408.458 454.765 374.679 467.706C356.961 474.591 350.172 477.246 349.593 477.743C349.262 478.075 350.172 478.822 351.663 479.32C357.044 481.311 364.827 485.458 367.145 487.615C369.96 490.27 371.367 494.667 371.367 501.054C371.367 505.119 371.036 505.949 368.801 508.105C366.482 510.345 365.737 510.511 358.866 510.76C354.809 510.926 350.338 510.677 348.931 510.179C346.612 509.35 346.447 509.433 346.944 510.76C347.275 511.507 347.771 513.166 348.02 514.41C348.931 519.968 346.281 522.54 339.41 522.54C337.257 522.54 334.773 523.121 333.531 523.95C331.462 525.36 328.729 525.692 316.559 526.107C314.903 526.107 311.757 525.36 309.522 524.448C307.369 523.452 303.809 522.374 301.739 522.125C297.848 521.627 297.351 521.379 286.589 513.166L280.214 508.354L277.564 510.345C276.074 511.507 271.769 513.912 267.878 515.82C259.93 519.636 253.472 523.452 248.091 527.351C241.302 532.329 233.768 532.578 229.049 528.015C227.807 526.854 225.985 525.858 225.075 525.858C224.081 525.858 222.26 524.946 220.935 523.867C219.693 522.789 217.209 521.71 215.554 521.379C212.739 520.881 208.268 516.982 208.268 515.074C208.268 514.659 207.109 513.249 205.784 511.921C202.141 508.271 202.472 501.967 206.529 498.648C207.606 497.736 207.606 497.487 206.778 497.072C206.115 496.823 204.377 495.496 202.804 494.169C198.912 490.768 198.416 487.366 201.065 481.642L203.135 477.08L196.18 474.84C192.372 473.596 186.742 470.941 183.679 468.867C180.616 466.793 171.177 461.65 162.733 457.419C143.608 447.713 135.494 442.404 121.999 430.624C113.886 423.573 112.644 421.167 113.389 413.867C113.886 408.06 116.204 400.428 118.356 397.027C119.598 395.202 120.509 394.953 127.215 394.372C131.355 394.123 135.991 393.294 137.481 392.63C141.455 390.971 141.621 391.054 142.697 394.621C143.277 396.363 144.518 398.603 145.678 399.682C147.582 401.507 147.747 401.507 152.052 400.262C154.536 399.599 158.345 398.852 160.497 398.52C164.802 397.939 174.489 394.123 181.443 390.142L185.749 387.819L193.448 393.128C203.88 400.262 207.109 402.834 217.375 411.71C227.972 420.918 232.691 424.651 233.85 424.651C234.347 424.651 234.761 424.983 234.761 425.398C234.761 425.813 236.003 426.559 237.41 427.057C238.901 427.638 241.633 428.965 243.371 430.209C245.193 431.371 248.753 433.445 251.237 434.855C257.777 438.422 261.42 441.409 270.03 450.119C276.322 456.59 279.469 459.078 279.469 457.502C279.469 456.59 276.819 452.276 274.004 448.626C267.878 440.745 265.228 438.007 260.592 434.938C258.026 433.196 255.707 431.62 255.459 431.371C255.211 431.122 253.141 429.961 250.905 428.882C247.18 427.057 242.461 424.071 241.384 422.909C241.136 422.66 239.646 421.914 238.073 421.167C234.43 419.425 228.883 415.36 218.948 406.899C214.643 403.332 209.758 399.433 208.019 398.271L204.791 396.114L205.37 387.819C206.198 374.131 207.192 370.232 210.917 366.001C212.656 363.927 215.636 359.199 217.54 355.466C219.362 351.816 222.177 346.838 223.75 344.433C226.979 339.538 227.144 336.469 224.247 336.054C221.928 335.722 218.037 340.865 212.739 351.152C202.638 370.979 192.041 380.187 168.528 389.644C163.229 391.801 151.39 394.538 150.728 393.792C150.645 393.626 150.231 391.635 149.817 389.312L149.072 384.998L140.876 387.819C118.274 395.451 98.3208 392.464 84.8258 379.44C77.8713 372.721 72.5727 366.001 70.1717 360.526C65.0386 349.078 59.6572 331.408 58.4153 321.785C58.0014 318.384 57.1734 312.909 56.6767 309.757C56.0972 306.522 55.4348 295.571 55.1865 285.368L54.6897 266.785L50.5501 269.938C45.3343 274.003 36.8895 277.902 32.5016 278.399C27.2029 279.063 22.5666 277.404 19.5033 273.92C17.1852 271.348 16.9368 270.435 17.268 267.615C17.8475 263.384 21.5731 259.402 28.6104 255.835L33.9918 253.015L29.5211 252.932C17.7647 252.849 5.09762 248.535 2.03434 243.558C-0.532198 239.327 -0.0354489 235.013 3.27621 231.695C5.67716 229.289 6.67066 228.874 10.1479 228.874H14.2875L9.40278 224.063C4.76646 219.334 4.60087 219.003 4.60087 214.855C4.60087 211.371 5.01483 210.126 6.75345 208.384C8.74045 206.393 9.23719 206.31 15.0326 206.642C20.2485 206.974 22.401 207.638 29.9351 211.371C34.8198 213.693 40.1184 216.68 41.7742 218.007L44.7547 220.413L44.5064 216.763C43.9268 209.877 47.5696 203.656 55.0209 198.844C58.4153 196.77 59.4088 196.521 66.2805 196.521C72.9038 196.521 74.3941 196.77 78.3681 198.761ZM61.1474 204.9C57.5874 206.227 53.5306 210.624 52.9511 213.693C52.6199 215.352 52.9511 218.09 53.779 220.496C54.5241 222.819 55.1037 225.39 55.1037 226.22C55.1037 228.46 50.7157 233.022 48.5631 233.022C47.6524 233.022 44.5064 231.114 41.6914 228.791C35.896 224.063 21.5731 216.514 16.7712 215.601C15.1154 215.27 13.7079 215.104 13.7079 215.27C13.7079 215.518 14.9498 216.68 16.3573 218.007C19.255 220.662 26.2922 224.146 35.6477 227.713C43.844 230.865 44.5064 231.529 44.1752 237.087L43.9268 241.733L38.9593 241.567C36.2272 241.567 29.6867 240.488 24.4708 239.327C14.4531 237.087 8.74045 236.589 8.74045 238.083C8.74045 240.986 22.815 243.806 37.3863 243.806H45.0031L47.5696 246.71C51.792 251.604 51.0469 253.678 43.5956 257.577C37.7175 260.73 30.0178 265.292 27.3685 267.366C25.7955 268.527 25.8783 268.61 28.6932 268.693C33.0811 268.693 39.5389 265.458 48.3976 258.822C56.8423 252.434 59.1604 251.77 62.3065 254.757C64.2107 256.499 64.2107 256.665 64.2107 276.989C64.2107 288.271 64.6247 299.47 65.0386 301.959C65.5354 304.365 66.4461 310.586 67.1084 315.813C69.0126 330.247 72.7382 342.773 79.2788 356.544C81.8453 361.77 84.0807 364.923 88.5514 369.485C97.7413 378.859 105.027 381.846 118.356 381.763C125.642 381.68 127.795 381.265 137.647 378.113C147.416 374.961 148.741 374.38 148.492 372.887C148.161 370.813 147.002 370.813 139.717 372.804C135.494 373.882 131.686 374.131 120.674 373.882C107.842 373.633 106.517 373.467 102.295 371.476C93.4361 367.329 89.9589 362.932 81.0174 344.93C75.5531 333.814 74.3941 328.256 73.235 308.927C72.0759 288.188 74.808 259.651 78.4509 254.84C78.8648 254.342 80.2723 253.595 81.5969 253.346C84.0807 252.766 91.0352 246.046 91.7803 243.309C94.678 233.852 95.5887 224.312 93.9329 221.325C92.9394 219.334 85.9849 214.772 84.1635 214.772C83.4183 214.772 84.4118 215.518 86.2332 216.348C90.6212 218.339 92.3598 220.911 92.3598 225.39C92.3598 236.009 85.9849 245.466 78.782 245.466C76.795 245.466 73.8145 242.479 74.5597 241.318C74.808 240.986 73.4834 240.488 71.7447 240.156C65.1214 239.078 56.8423 229.123 55.0209 219.915C54.1102 215.021 54.193 214.523 55.6832 212.449C58.4153 208.799 69.9233 205.978 73.235 208.052C74.0629 208.55 75.1392 208.467 76.1327 207.969C77.7885 207.057 77.6229 206.891 74.5597 205.564C70.834 203.822 64.6247 203.573 61.1474 204.9ZM65.2042 216.846C64.2107 217.095 63.3828 217.924 63.3828 218.671C63.3828 222.321 70.5857 232.193 73.3178 232.193C74.0629 232.193 76.2155 232.69 78.0369 233.354L81.3486 234.515L82.342 231.363C83.8323 226.386 83.5011 225.058 80.6034 223.814C79.196 223.233 76.1327 221.076 73.8973 219.168C71.4964 216.929 69.3438 215.684 68.5159 215.933C67.7708 216.099 66.2805 216.514 65.2042 216.846ZM476.926 265.043C475.767 265.292 474.525 265.375 474.277 265.126C474.028 264.794 472.207 265.956 470.22 267.615C466.329 270.767 465.749 272.758 467.405 277.57C468.73 281.303 471.545 282.547 475.767 281.137C479.989 279.727 487.109 274.5 489.51 271.016C492.574 266.619 491.911 260.149 488.186 258.905C486.364 258.241 485.536 258.573 482.556 261.31C480.652 263.052 478.085 264.712 476.926 265.043ZM281.124 466.047C275.495 468.038 261.42 470.194 248.836 471.024C239.646 471.605 239.149 471.771 233.436 475.089C229.049 477.66 226.234 478.656 222.674 479.071C219.941 479.32 216.547 479.9 215.14 480.398C212.407 481.228 209.096 484.546 209.096 486.537C209.096 488.113 213.318 490.104 217.954 490.685C224.164 491.514 229.545 497.487 226.234 499.893C225.737 500.308 223.005 501.303 220.273 502.133C217.54 502.962 214.394 504.041 213.318 504.455L211.248 505.202L213.815 506.778C215.554 507.857 216.547 509.101 216.713 510.677C216.878 512.419 217.375 512.917 218.617 512.834C221.763 512.419 224.578 513.498 225.571 515.406C226.565 517.148 226.896 517.231 229.794 516.401C232.526 515.737 233.271 515.82 234.761 517.148C235.672 517.977 236.417 519.553 236.417 520.632C236.417 523.204 238.652 523.121 242.295 520.466C243.868 519.388 246.766 517.48 248.836 516.235C250.905 514.991 253.886 513.166 255.459 512.087C257.032 511.092 260.923 509.018 264.152 507.525C271.686 504.124 271.024 504.455 276.654 499.893C279.386 497.736 285.181 494.086 289.569 491.846C293.957 489.523 297.848 487.283 298.179 486.786C298.428 486.288 299.587 485.541 300.746 485.127C302.899 484.297 302.899 484.297 296.855 478.158C291.225 472.268 290.894 471.771 291.225 468.618C291.473 465.466 291.473 465.383 288.576 465.051C287.003 464.885 285.678 464.719 285.678 464.636C285.595 464.553 283.608 465.217 281.124 466.047ZM337.257 481.394C335.27 482.472 330.22 483.219 315.648 484.795C311.674 485.21 310.681 485.707 310.184 487.2C309.025 490.104 299.007 498.317 293.46 500.888L288.41 503.211L291.556 505.7C301.657 513.581 302.816 514.244 305.962 514.244C307.783 514.244 310.681 515.157 312.916 516.401L316.807 518.558L318.049 516.816C319.54 514.742 323.431 514.493 325.004 516.318C326.411 518.06 327.984 517.894 330.799 515.82C332.703 514.327 333.863 514.161 336.512 514.576C338.416 514.825 339.906 514.991 339.906 514.825C339.906 514.659 337.919 512.419 335.436 509.682C329.971 503.792 329.309 501.801 331.544 498.151C334.442 493.505 336.263 492.261 338.664 493.339C339.823 493.837 340.734 494.75 340.734 495.33C340.734 495.911 343.052 497.902 345.867 499.727C350.586 502.713 351.497 503.045 356.216 502.962C362.508 502.879 363.502 502.133 362.757 498.068C362.012 494.335 360.853 493.339 351.249 487.947C345.95 484.961 343.549 483.219 343.384 481.974C343.052 479.9 340.569 479.651 337.257 481.394Z" fill="#F15928"/>
<path d="M364.296 368.769C360.124 364.546 360.306 359.622 361.881 354.406C362.068 353.785 361.505 352.938 361.29 352.196C359.053 351.045 356.817 349.895 354.58 348.745C348.117 354.718 347.462 354.587 342.807 346.73C341.617 344.722 341.182 342.521 340.738 340.299C333.54 335.638 326.618 330.621 320.538 324.523C318.448 324.182 318.179 325.938 317.839 327.182C316.481 332.146 314.81 337.094 315.486 342.368C315.723 344.215 315.354 345.885 314.454 347.694C314.391 345.284 314.625 342.846 311.762 341.98C309.082 343.734 309.598 346.803 308.782 349.315C307.736 352.533 306.706 355.292 302.207 354.57C299.472 354.131 297.555 356.27 296.298 358.697C296.051 359.889 296.412 360.962 297.01 361.954C301.531 369.462 305.77 377.142 310.619 384.45C313.202 384.627 313.121 386.142 312.748 388.18C312.296 390.646 311.321 394.611 314.209 394.924C317.74 395.306 316.388 391.117 316.828 388.828C317.501 385.321 318.017 381.783 318.622 378.262C319.168 375.077 320.487 373.364 323.889 375.243C324.901 375.802 326.035 375.919 327.125 376.216C330.456 377.123 332.198 379.422 331.221 382.781C328.774 391.193 326.558 399.645 325.075 408.289C324.875 409.456 324.505 411.208 322.793 410.836C321.503 410.555 321.754 409.003 321.732 407.897C321.71 406.756 322.054 405.647 322.159 404.519C322.346 402.506 323.288 399.552 320.759 399.127C318.658 398.774 318.45 401.76 318.124 403.63C317.763 405.71 317.366 407.784 317.03 409.869C316.752 411.598 316.592 413.417 314.94 414.961C313.622 413.65 314.025 411.939 313.701 410.47C313.463 409.391 313.501 407.959 312.126 407.738C310.605 407.494 309.833 408.778 309.279 409.948C307.869 412.928 307.519 416.176 307.076 419.402C306.12 422.793 305.574 426.264 304.93 429.711C304.581 431.576 304.135 433.522 305.777 435.102C316.806 424.947 329.856 418.388 343.898 413.594C344.369 412.046 344.854 410.504 344.921 408.868C345.006 406.769 345.787 405.452 348.2 405.81C349.869 406.06 350.914 404.937 351.874 403.843C353.168 402.369 353.581 400.926 351.105 400.281C348.232 399.533 347.743 397.512 348.247 395.028C348.764 392.483 348.956 389.897 349.329 387.337C349.888 383.516 352.917 382.182 355.646 380.525C357.071 379.66 357.682 380.759 358.115 381.895C359.155 384.626 358.895 387.242 357.625 389.879C355.793 393.682 355.628 397.652 356.893 401.688C358.282 402.919 359.676 404.086 361.135 401.777C362.189 390.774 363.242 379.772 364.296 368.769" fill="#EA421B"/>
<path d="M242.071 423.915C244.139 419.66 243.089 414.918 244.177 410.492C245.376 405.612 248.701 401.37 248.214 395.913C248.115 394.8 250.226 393.489 251.894 391.627C252.533 395.584 253.194 398.667 251.399 401.661C250.831 402.61 250.352 403.464 251.289 404.401C252.511 405.622 253.394 404.589 254.407 403.958C257.167 402.239 257.573 399.184 258.495 396.524C259.437 393.804 259.863 390.899 260.44 388.059C260.783 386.372 261.14 384.549 259.549 383.285C257.809 381.904 256.336 383.34 254.837 384.031C254.236 384.308 253.689 384.704 253.086 385.066C250.985 378.904 249.905 378.508 244.714 382.001C244.776 377.738 246.341 373.861 247.644 370.113C249.662 364.31 248.011 357.677 252.189 352.342C253.425 350.763 252.284 348.292 250.266 347.06C248.025 345.692 246.601 347.367 245.547 348.839C242.589 352.974 241.081 357.689 241.154 362.784C241.209 366.6 241.042 370.331 239.331 373.822C238.71 375.089 239.172 378.014 236.294 376.178C234.632 375.118 232.421 374.8 234.064 371.275C238.956 360.781 241.98 349.547 245.056 338.404C245.974 335.076 246.043 330.815 240.013 331.614C238.178 331.858 236.763 329.801 235.358 328.792C230.556 325.344 225.438 326.756 220.367 326.843C219.048 335.344 219.786 343.914 219.561 352.449C219.127 368.867 219.554 385.328 216.616 401.592C216.439 402.573 216.014 403.617 217.155 404.341C226.117 410.026 233.221 418.086 242.071 423.915" fill="#E42D10"/>
<path d="M275.759 408.751C275.739 408.913 275.712 409.074 275.7 409.236C275.192 416.303 275.193 416.303 268.746 414.943C267.878 416.832 267.534 418.944 265.94 420.521C264.947 421.503 263.561 422.957 264.788 424.29C266.18 425.8 267.757 424.356 269.062 423.519C270.698 422.468 272.273 421.317 274.015 420.446C274.992 419.958 276.101 419.097 277.108 420.109C277.855 420.86 277.395 421.98 277.143 422.902C275.647 428.378 274.398 433.909 273.239 439.466C272.771 441.712 272.452 443.924 272.606 446.206L280.715 457.868C283.596 456.782 286.958 456.745 289.084 454.014C291.743 449.596 294.657 445.36 298.016 441.442C298.089 436.027 299.473 430.851 300.886 425.681C299.769 424.5 299.699 422.984 300.003 421.598C301.905 412.947 300.579 403.964 302.769 395.354C300.423 389.605 295.9 385.435 292.103 380.738C291.817 380.385 291.208 380.631 290.81 380.936C288.069 385.462 289.943 391.064 287.507 396.249C284.515 390.423 286.908 384.88 286.45 379.5C285.887 376.109 283.836 374.054 280.714 372.843C274.541 370.449 270.567 372.674 269.474 379.228C269.313 380.189 269.316 381.173 269.128 382.125C268.966 384.476 269.818 386.59 270.86 388.605C275.677 397.926 279.716 407.556 282.396 417.115C280.377 414.635 279.926 410.27 275.759 408.751" fill="#E73615"/>
<path d="M270.949 371.603C271.227 371.046 271.72 370.5 271.747 369.932C271.918 366.252 272.267 362.579 276.837 361.914C281.015 361.308 284.97 364.292 286.467 368.699C288.412 369.174 289.567 367.973 290.693 366.707C291.418 364.494 289.872 363.032 288.877 361.427C281.868 350.128 275.639 338.392 269.405 326.659C268.875 325.662 268.367 324.662 268.949 323.439C271.839 323.396 272.215 327.148 274.905 327.145C276.542 326.779 277.116 325.362 277.856 324.121C278.439 323.144 278.914 322.077 279.737 321.287C281.875 319.235 284.467 316.812 287.332 318.024C290.52 319.373 289.24 322.934 288.553 325.43C286.978 331.153 286.783 337.364 283.001 342.371C283.278 344.966 284.073 347.245 286.667 348.428C288.654 347.816 288.543 345.961 288.917 344.461C290.175 339.418 291.744 334.461 292.947 329.405C293.836 325.673 295.887 322.58 298.249 319.659C298.882 318.74 298.85 317.49 300.029 316.366C301.602 318.684 303.64 320.467 306.664 319.694C308.41 319.247 310.068 318.491 309.732 316.134C307.473 313.855 305.09 311.685 302.993 309.265C301.097 307.077 298.891 307.89 296.75 308.215C286.86 309.72 276.956 310.195 267.005 308.923C265.572 309.948 265.157 311.535 264.937 313.11C263.874 320.729 263.003 328.382 259.23 335.307C258.777 336.139 258.858 337.181 258.802 338.141C259.227 345.88 261.585 353.056 265.15 359.874C269.172 361.546 270.22 364.603 269.178 368.63C269.327 369.886 269.74 370.984 270.949 371.603" fill="#EA421B"/>
<path d="M356.001 404.291C355.934 399.621 355.581 394.984 358.251 390.671C360.081 387.717 358.082 384.733 357.252 381.872C356.983 380.943 355.892 379.695 354.629 380.844C351.372 383.808 346.059 385.092 346.312 390.991C346.416 393.415 345.78 395.766 345.396 398.149C344.796 401.88 345.962 404.595 351.698 403.924C349.053 405.389 348.645 408.65 345.369 406.507C344.121 405.691 342.485 406.907 342.572 408.236C342.744 410.87 340.945 413.475 342.499 416.081C346.33 414.39 350.161 412.7 353.992 411.008C355.425 408.999 356.227 406.799 356.001 404.291" fill="#E3290F"/>
<path d="M309.438 393.176C306.407 402.309 307.886 411.915 306.527 421.226C306.318 422.662 306.379 424.229 308.436 424.461C308.412 420.549 309.046 416.823 311.848 412.624C312.877 416.474 311.353 420.259 314.585 422.94C319.785 417.987 317.61 410.549 320.479 404.221C322.017 408.286 319.559 411.416 320.092 414.738C320.358 416.395 320.275 418.227 322.393 418.414C324.256 418.579 325.384 417.18 325.821 415.533C326.483 413.043 327.234 410.5 327.346 407.953C327.656 400.89 331.046 394.672 332.476 387.93C333.473 383.228 330.986 379.98 326.391 380.217C325.225 380.277 324.699 379.487 323.914 378.973C320.281 376.593 317.826 377.701 317.249 382.034C316.474 387.848 314.909 393.53 314.614 399.455C312.413 396.769 313.793 394.099 314.196 391.402C314.372 390.224 314.912 388.575 313.468 387.879C312.282 387.307 311.601 388.868 310.602 389.301C309.363 390.336 310.761 392.166 309.438 393.176" fill="#E2290E"/>
<path d="M243.339 388.587C241.169 390.153 241.995 393.836 238.213 393.845C236.672 393.85 236.882 396.853 237.72 397.922C238.56 398.993 241.021 398.465 241.472 397.516C242.73 394.871 245.859 392.489 243.339 388.587" fill="#EA411B"/>
<path d="M297.185 426.574C299.219 426.205 301.219 427.015 301.548 424.549C301.768 422.897 301.286 421.908 299.419 421.436C296.658 420.738 297.489 418.133 297.856 416.553C299.094 411.223 300.837 406.018 303.802 401.336C304.439 400.33 306.246 399.313 304.709 398.19C303.247 397.122 300.431 397.721 300.085 399.031C298.615 404.591 294.503 409.461 295.969 415.877C296.509 418.237 295.816 421.005 295.207 423.468C294.57 426.039 294.736 427.308 297.185 426.574" fill="#EF5928"/>
<path d="M259.93 338.752C259.472 335.212 262.229 332.838 263.192 329.796C265.348 322.983 265.599 315.854 267.005 308.925C258.918 306.662 250.812 304.464 242.756 302.095C240.608 301.463 238.613 300.309 236.549 299.396C233.366 302.867 232.719 312.349 235.653 317.723C236.502 313.176 240.433 315.013 242.9 313.685C244.783 312.671 244.365 315.033 244.52 316.124C244.795 318.063 244.588 320.478 247.791 319.008C250.001 317.994 249.174 319.84 249.417 320.689C250.118 323.129 250.594 325.627 254.212 323.563C256.254 322.398 256.269 324.1 255.838 325.447C254.906 328.361 254.939 331.161 256.415 333.885C259.385 334.203 257.034 338.38 259.93 338.752" fill="#E73514"/>
<path d="M271.628 444.665C273.775 436.126 275.914 427.585 278.079 419.05C278.332 418.052 278.562 417.033 277.381 416.597C276.139 416.138 274.835 416.196 273.651 416.947C270.617 418.874 267.583 420.801 264.082 423.025C264.684 419.002 270.76 417.993 267.769 413.403C267.268 409.252 266.239 408.79 262.935 411.024C259.499 413.348 259.16 417.319 258.295 420.678C257.366 424.29 256.526 428.147 257.02 432.029C262.492 435.541 267.581 439.499 271.628 444.665Z" fill="#E32A0F"/>
<path fill-rule="evenodd" clip-rule="evenodd" d="M227.413 292.881C222.768 287.618 209.748 278.747 208.904 278.866C207.684 279.039 201.074 304.939 199.733 311.151C197.552 321.252 193.084 335.234 185.546 342.789C177.33 351.024 156.952 360.484 150.65 364.317C145.519 367.438 169.882 375.692 174.374 379.665C177.416 382.356 181.504 378.494 184.439 381.306C184.799 381.65 193.935 375.179 195.172 370.85C199.358 356.206 203.656 368.217 210.721 354.585C212.837 350.502 218.74 335.456 222.751 333.065C227.876 330.01 227.609 317.966 230.369 311.408C233.011 305.125 237.295 299.768 229.93 298.009" fill="#EA411B"/>
<path d="M291.721 455.68C291.816 457.203 285.834 456.258 290.156 459.681C290.912 460.28 289.256 461.239 288.433 461.559C284.515 463.078 287.394 463.987 288.694 465.052C286.762 467.543 286.968 470.42 288.322 472.792C290.746 477.038 293.546 481.155 298.747 482.543C302.154 484.202 305.836 483.084 309.357 483.602C316.292 486.631 323.061 484.033 329.744 482.643C332.348 482.101 335.622 482.266 337.532 479.564C339.053 478.579 340.786 478.086 341.844 476.247C344.249 472.065 347.662 471.885 351.44 474.517C365.631 468.925 380.197 464.295 394.06 457.862C393.48 453.797 390.942 450.485 389.748 446.63C389.051 444.378 388.617 442.516 389.964 440.36C392.301 436.618 391.674 433.436 388.14 430.527C385.306 428.194 383.872 424.814 383.314 421.171C382.998 419.107 382.885 416.88 385.19 415.837C387.583 414.754 388.975 416.488 390.236 418.171C391.682 420.102 392.65 422.283 393.386 424.564C394.252 427.246 395.807 429.44 398.01 431.158C398.923 431.87 399.927 432.857 401.178 432.052C402.308 431.324 402.289 430.004 402.189 428.801C401.999 426.497 400.641 424.706 399.524 422.793C398.688 421.36 396.268 419.995 397.029 418.712C398.339 416.501 399.793 413.936 402.711 413.154C404.539 412.665 406.317 412.044 407.54 410.487C408.261 409.568 409.136 408.62 408.245 407.312C407.965 407.113 407.669 406.894 407.341 406.864C402.709 406.445 400.433 405.315 396.612 401.577C396.089 401.065 395.405 401.033 394.73 401.35C394.158 401.798 393.587 402.247 393.015 402.695C391.756 404.184 392.919 405.565 393.221 406.976C393.511 408.335 393.834 409.782 392.43 410.636C390.817 411.617 389.507 410.622 388.439 409.481C386.946 407.888 385.772 405.984 383.834 404.834C368.448 409.922 352.894 414.57 338.521 422.299C336.894 423.174 335.254 424.027 333.62 424.89C332.108 427.616 334.259 429.286 335.428 431.346C335.396 431.62 335.384 431.473 335.074 431.027C333.601 428.905 331.871 426.245 329.029 427.88C326.307 429.445 327.552 432.461 328.344 434.842C329.855 439.378 332.296 443.482 334.797 447.946C332.291 443.904 330.276 439.931 327.133 436.789C325.527 435.184 323.887 432.611 321.177 434.276C318.372 436 319.292 438.648 320.513 441.056C320.895 441.811 321.143 442.638 321.304 442.825C320.096 441.008 319.448 438.243 318.059 435.856C317.385 434.699 317.362 432.648 315.11 433.158C305.785 439.072 296.961 445.507 291.721 455.68" fill="#E9401A"/>
<path d="M236.632 429.111C233.11 431.876 233.372 436.369 231.752 440C230.443 442.934 229.453 446.051 228.693 449.178C227.948 452.243 225.324 452.482 223.588 451.882C221.062 451.011 223.183 449.032 223.763 447.685C225.174 444.407 226.845 441.244 228.305 437.987C229.086 436.246 229.692 434.386 227.518 433.074C225.052 431.585 223.983 433.856 223.083 435.163C217.376 443.443 212.791 452.359 208.889 461.621C207.77 464.274 206.732 466.983 205.955 469.75C205.381 471.793 206.003 472.948 208.574 472.218C212.568 471.083 215.668 469.283 216.734 464.835C217.557 461.407 219.151 458.258 222.053 454.359C221.596 459.252 220.86 462.756 219.618 466.168C219.204 467.304 218.755 468.537 219.743 469.52C220.829 470.6 221.956 469.716 223.008 469.24C225.032 468.324 227.117 467.436 227.816 465.025C230.697 455.094 236.114 446.107 238.561 436.01C238.998 434.203 239.864 432.489 239.562 430.55C238.585 430.07 237.609 429.59 236.632 429.111" fill="#E73A16"/>
<path d="M248.777 436.36C245.946 436.009 244.113 437.769 243.098 439.883C240.11 446.102 238.737 452.769 238.642 459.681C238.635 460.164 238.735 460.745 239.006 461.121C240.355 462.996 249.977 461.478 250.88 459.234C252.398 455.465 253.798 451.647 255.338 447.888C255.903 446.51 256.254 445.166 254.875 444.241C253.207 443.122 252.524 444.573 251.778 445.735C251.346 446.408 250.922 447.385 249.857 446.787C248.984 446.297 248.966 445.408 249.314 444.561C250.325 442.105 249.58 439.498 250.004 436.995C249.595 436.783 249.186 436.572 248.777 436.36" fill="#E73B17"/>
<path d="M172.105 461.946C172.687 460.712 173.33 459.499 173.003 458.046C170.303 446.076 176.523 435.847 179.442 424.973C186.284 421.727 186.15 413.888 190.112 408.767C191.725 406.683 193.351 404.202 196.648 404.56C196.126 404.143 195.62 403.39 195.078 403.362C191.373 403.175 187.825 403.999 185.63 399.02C184.763 397.052 181.544 400.361 180.511 402.282C177.692 407.528 175.638 413.128 174.141 418.913C176.627 421.57 176.988 424.473 175.51 427.822C173.101 433.28 171.829 439.202 169.02 444.491C167.492 447.367 165.025 449.489 162.158 451.753C160.477 449.195 161.341 446.922 161.7 444.684C161.882 443.559 162.696 442.223 161.477 441.374C160.039 440.372 158.97 441.639 157.888 442.426C154.382 444.611 151.343 447.121 151.464 451.8C158.074 455.735 165.027 458.968 172.105 461.946" fill="#EC4D22"/>
<path d="M185.441 470.019C189.071 464.98 189.848 458.771 192.178 453.191C196.159 443.658 201.992 435.118 206.048 425.663C206.709 424.123 207.291 422.549 207.91 420.991C205.785 419.536 208.172 415.077 204.455 415.069C200.915 415.061 200.403 418.731 199.132 421.171C192.563 433.782 186.499 446.624 182.395 460.291C181.74 462.474 180.391 464.175 179.264 466.045C181.103 467.714 183.045 469.221 185.441 470.019" fill="#EC4C21"/>
<path d="M282.837 371.347C281.784 369.553 280.731 367.759 279.678 365.964C278.754 364.325 277.829 362.685 276.905 361.047C275.245 355.928 273.091 351.081 269.305 347.128C268.624 346.224 268.005 345.264 267.247 344.43C266.226 343.305 265.204 341.66 263.383 342.878C261.614 344.061 262.485 345.602 263.273 347.01C268.344 356.072 273.463 365.108 278.454 374.214C279.939 376.922 282.305 379.112 283.096 382.216C282.997 383.489 283.459 384.407 284.734 384.81C287.724 388.912 290.395 393.266 294.135 396.776C296.092 396.966 296.092 396.966 295.156 393.375C292.655 386.896 288.477 381.362 285.069 375.393C284.306 374.055 283.581 372.697 282.837 371.347" fill="#010000"/>
<path d="M256.32 357.701C256.019 356.258 255.796 354.793 255.4 353.376C254.664 350.744 253.94 352.587 253.234 353.429C251.674 363.847 254.796 373.426 258.587 382.851C262.247 391.945 266.654 400.694 271.206 409.369C273.476 412.716 275.746 416.063 278.626 420.309C276.531 407.442 270.352 397.332 265.992 386.535C265.65 385.726 265.308 384.918 264.967 384.11C264.609 381.188 263.931 378.399 261.732 376.237C259.132 370.291 257.139 364.168 256.32 357.701" fill="#020000"/>
</svg>
