<svg width="280" height="280" viewBox="0 0 280 280" fill="none" xmlns="http://www.w3.org/2000/svg">
<path d="M214.572 217.485C216.269 218.403 217.925 217.307 219.589 217.38C228.855 217.79 238.136 217.621 247.392 217.983C252.404 218.179 255.603 221.821 257.732 226.263C261.422 233.964 259.015 244.078 252.421 248.413C250.369 249.763 248.164 250.524 245.642 250.453C237.407 250.218 229.156 250.293 220.937 249.81C215.789 249.507 210.704 249.377 205.556 249.79C203.412 249.961 203.397 250.788 203.774 252.25C204.805 256.245 204.124 260.049 202.791 263.86C200.855 269.391 195.192 274.192 188.944 273.78C180.886 273.248 172.781 273.611 164.763 274.331C154.546 275.248 144.32 276.023 134.089 276.72C128.272 277.117 122.465 276.311 116.654 275.944C111.009 275.587 105.407 275.023 99.9121 273.672C97.1634 272.996 94.4021 272.19 92.2073 270.277C87.1833 265.897 86.1703 259.572 89.4257 253.478C90.7501 251 90.7236 251.228 87.8609 250.895C81.7603 250.184 75.61 249.722 69.6187 248.28C63.8261 246.887 60.6275 243.201 60.8102 238.399C60.9997 233.418 64.6312 229.74 70.5479 228.745C74.1469 228.139 77.7816 227.747 81.4003 227.259C81.5783 227.038 81.8088 226.933 82.0916 226.942C89.3883 229.36 96.4936 232.295 103.679 235.016C104.774 235.636 106.558 235.855 106.623 237.215C106.699 238.798 104.797 238.729 103.7 239.246C100.115 240.935 96.6983 242.664 96.5508 247.424C96.4415 250.942 97.9694 252.743 101.516 252.843C103.06 252.886 104.609 252.924 106.148 252.722C107.409 252.556 108.04 252.913 108.057 254.365C108.099 258.013 108.35 258.224 111.956 258.556C112.729 258.627 113.466 258.79 114.212 259.024C118.327 260.309 122.294 260.332 126.655 259.326C131.431 258.224 135.087 255.759 138.747 252.932C139.973 251.985 141.227 251.96 142.575 252.756C147.375 255.59 152.577 257.69 157.092 261.07C160.233 263.423 162.812 263.053 166.277 260.889C167.991 259.819 169.857 258.881 171.747 258.132C176.399 256.288 178.298 252.712 176.912 247.826C176.621 246.798 176.966 246.111 177.673 245.575C180.067 243.759 180.333 241.458 179.14 238.923C178.257 237.046 178.706 235.984 180.705 235.544C182.728 234.751 184.878 234.256 186.698 232.987C187.82 232.438 188.864 231.759 189.891 231.05C190.158 230.85 190.435 230.663 190.72 230.49C191.102 230.264 191.496 230.059 191.881 229.837C192.575 229.445 193.219 228.965 193.962 228.659C197.351 227.208 200.591 225.459 203.843 223.738C204.633 223.266 205.383 222.732 206.164 222.245C206.982 221.887 207.799 221.525 208.548 221.027C208.837 220.844 209.133 220.674 209.426 220.499C210.63 219.724 211.724 218.803 212.871 217.953C213.352 217.597 213.802 216.884 214.572 217.485" fill="#DCDCDC"/>
<path fill-rule="evenodd" clip-rule="evenodd" d="M107.652 141.037L94.9054 142.77C94.9054 142.77 84.9291 174.263 70.0913 182.522C55.2534 190.782 45.8017 167.118 46.5719 152.138L47.946 147.924C47.946 147.924 64.7393 140.192 54.5021 128.157L48.5791 125.244L50.7902 132.018L50.0676 140.221L40.4499 141.176L34.9975 130.021C34.9975 130.021 35.9897 124.543 43.2667 126.853C50.5432 129.164 49.0623 120.667 45.4784 119.082C41.8949 117.497 34.6599 119.733 28.5137 126.904C22.3675 134.075 28.3192 131.184 28.3192 131.184L20.3717 122.081L23.5848 137.499L13.908 132.175L19.0203 140.987L8.08055 140.807L6.44238 143.023L16.3714 148.68L34.2648 153.032C34.2648 153.032 35.6507 184.736 55.3227 195.26C74.9942 205.784 95.1462 183.369 99.7899 174.574L130.214 156.822L168.402 150.807L196.629 189.048L204.609 188.003L221.171 192.424C221.171 192.424 233.017 193.074 244.143 178.472C255.269 163.871 252.216 128.04 252.216 128.04L266.759 134.896L269.064 131.995L261.817 125.351L259.62 122.224C259.62 122.224 276.939 124.109 278.756 116.898C280.574 109.685 264.346 115.781 264.346 115.781C264.346 115.781 278.059 110.055 276.033 104.566C274.006 99.0766 256.352 112.824 256.352 112.824C256.352 112.824 256.904 100.962 254.085 99.9363C251.266 98.9106 240.431 100.995 240.431 101.264C240.431 101.533 246.564 103.896 246.564 103.896L252.001 104.979L249.473 113.057L244.635 116.916L239.72 117.588L237.237 111.005L245.463 106.448L239.717 103.413L232.81 108.64L232.752 119.656L239.313 127.109L241.089 159.901C241.089 159.901 236.898 182.713 224.188 182.617C211.477 182.519 199.002 181.483 192.705 175.285C186.407 169.086 176.099 155.107 176.206 145.479C176.312 135.851 167.178 135.903 167.178 135.903C167.178 135.903 158.15 151.067 132.201 145.697C106.252 140.328 107.652 141.037 107.652 141.037V141.037Z" fill="white"/>
<path fill-rule="evenodd" clip-rule="evenodd" d="M129.348 20.9067C129.348 20.9067 99.3722 23.512 92.3968 83.7472C92.3968 83.7472 82.5949 82.1072 80.0781 89.0558C77.5618 96.0048 75.1103 99.8935 88.3776 109.371C101.645 118.849 97.1531 129.248 110.648 136.701C124.143 144.155 142.684 154.555 164.95 140.301C180.365 130.433 178.899 79.1435 177.782 76.4602C176.666 73.7769 166.603 31.416 141.208 21.1941L129.348 20.9067V20.9067Z" fill="white"/>
<path d="M123.121 18.8274C119.593 19.8141 115.982 21.6641 113.561 23.7197C109.622 27.0908 101.335 39.6297 96.2879 49.8252C91.1592 60.0619 89.2308 66.9686 88.6975 76.8763L88.4513 81.6041L86.0716 81.4397C81.6404 81.1108 77.1682 84.1119 74.7885 89.0041C73.7217 91.183 73.5986 91.8408 73.5986 95.3352C73.5986 99.0352 73.6807 99.4052 75.1988 102.53C78.1119 108.45 83.4047 112.684 89.477 113.876C91.4875 114.287 91.8157 114.493 92.0619 115.439C92.8414 118.604 95.9186 125.387 97.9701 128.553C100.883 132.952 105.52 137.844 107.571 138.625C107.94 138.749 110.238 140.105 112.618 141.626C119.429 145.902 123.49 147.341 133.214 148.78C140.107 149.807 143.636 149.807 148.888 148.78C154.098 147.711 161.032 145.45 163.125 144.134C167.269 141.503 175.146 129.91 178.47 121.523C182.368 111.821 184.419 95.7052 182.778 87.6886C182.409 85.8386 182.121 83.6186 182.121 82.7141C182.121 81.8097 181.834 80.3708 181.506 79.5486C180.767 77.8219 178.429 69.9697 178.347 70.0519C178.265 70.1341 178.183 69.723 178.183 69.1475C178.142 68.613 177.362 66.5986 176.418 64.7486C175.516 62.8986 174.367 60.3086 173.916 58.9519C173.464 57.6363 172.685 56.1152 172.233 55.6219C171.782 55.1286 171.126 53.6486 170.797 52.333C169.977 49.0852 165.792 40.4519 163.043 36.3408C160.417 32.353 154.386 26.433 149.995 23.473C144.621 19.8963 139.943 18.5808 131.45 18.2519C126.978 18.0463 125.624 18.1697 123.121 18.8274ZM139.123 25.1997C143.841 26.3508 146.877 28.2008 152.826 33.5452C156.109 36.4641 158.817 40.2052 161.894 46.0019C164.725 51.4286 168.999 58.2268 169.45 62.0501C169.738 64.4757 173.572 74.0073 174.031 75.3885C174.36 76.293 175.229 80.6997 175.352 81.8919C175.475 83.0841 175.885 85.633 176.254 87.6063C177.608 95.1708 176.295 108.409 173.259 117.535C171.002 124.319 164.807 134.679 160.95 138.05C157.217 141.339 151.144 143.024 143.061 143.024C136.702 143.024 131.737 142.449 126.527 141.092C113.89 137.803 105.725 131.719 100.801 121.852C99.5703 119.467 97.1906 112.643 97.1906 111.615C97.1906 111.204 96.6982 110.382 96.0417 109.765C95.1391 108.861 94.4006 108.573 92.3081 108.367C87.3025 107.833 82.9533 104.996 80.8608 100.803C78.5222 96.2397 78.8504 92.4163 81.7635 89.333C83.815 87.1952 84.9228 87.0308 88.9847 88.3875C90.9541 89.0452 91.8157 89.1275 92.5132 88.7986C94.3185 87.9763 94.6057 86.8663 94.8929 80.0008C95.016 76.383 95.3442 72.1486 95.5494 70.5452C96.9444 60.5141 104.083 45.7141 113.849 32.5997C117.213 28.0363 119.264 26.5152 123.86 24.953C125.747 24.3363 126.978 24.213 131.45 24.4185C134.404 24.5008 137.851 24.8708 139.123 25.1997V25.1997Z" fill="#F15928"/>
<path d="M149.749 44.6044C148.477 45.6733 148.026 47.6055 148.805 48.7155C149.872 50.3188 152.621 50.5244 154.016 49.0855C155.329 47.8111 155.329 46.3722 153.975 44.8099C152.662 43.2477 151.431 43.1655 149.749 44.6044Z" fill="#F15928"/>
<path d="M153.975 56.0744C151.555 57.061 151.185 60.2677 153.196 62.2821C154.55 63.5977 156.068 63.5566 157.545 62.0766C160.335 59.2399 157.545 54.5532 153.975 56.0744Z" fill="#F15928"/>
<path d="M142.727 52.8593C145.024 52.5334 146.031 49.8527 144.732 47.6837C143.848 46.2584 142.531 45.9656 140.941 46.9202C137.928 48.7589 139.325 53.3969 142.727 52.8593Z" fill="#F15928"/>
<path d="M142.856 58.3356C140.6 59.24 140.518 63.1045 142.692 64.79C143.882 65.6945 145.893 65.4478 146.795 64.2556C148.354 62.2823 147.657 59.4867 145.4 58.5411C144.621 58.2123 143.923 57.9245 143.882 57.9656C143.8 57.9656 143.349 58.13 142.856 58.3356Z" fill="#F15928"/>
<path d="M154.55 67.2975C153.442 68.3253 153.278 68.7775 153.278 70.3809C153.278 72.8475 154.18 73.9575 156.273 73.9575C157.463 73.9575 158.119 73.6697 159.104 72.642C159.802 71.9431 160.458 70.9975 160.622 70.5453C161.197 68.6953 158.94 66.1464 156.724 66.1464C156.232 66.1464 155.288 66.6809 154.55 67.2975Z" fill="#F15928"/>
<path d="M145.4 68.8186C144.826 69.3531 144.375 70.2986 144.375 70.8742C144.375 71.4497 144.826 72.3953 145.4 72.9297C145.934 73.5053 146.877 73.9575 147.452 73.9575C148.026 73.9575 148.97 73.5053 149.503 72.9297C150.078 72.3953 150.529 71.4497 150.529 70.8742C150.529 70.2986 150.078 69.3531 149.503 68.8186C148.97 68.2431 148.026 67.7909 147.452 67.7909C146.877 67.7909 145.934 68.2431 145.4 68.8186Z" fill="#F15928"/>
<path d="M129.891 71.6552C124.844 73.0119 120.618 78.4797 122.875 80.6997C124.024 81.8919 125.337 81.4808 126.978 79.5075C128.701 77.4519 130.547 76.4241 132.435 76.4241C133.379 76.4241 134.199 76.8764 135.471 78.0686C137.44 80.0008 138.918 80.1241 139.697 78.5208C140.846 76.2597 138.261 72.7241 134.774 71.6964C132.394 70.9975 132.435 70.9975 129.891 71.6552Z" fill="black"/>
<path d="M173.427 68.4609C168.381 69.8176 164.155 75.2853 166.411 77.5053C167.56 78.6976 168.873 78.2865 170.514 76.3131C172.237 74.2576 174.084 73.2298 175.971 73.2298C176.915 73.2298 177.735 73.682 179.007 74.8742C180.977 76.8065 182.454 76.9298 183.233 75.3265C184.382 73.0653 181.797 69.5298 178.31 68.502C175.93 67.8031 175.971 67.8031 173.427 68.4609Z" fill="black"/>
<path d="M160.622 93.1978C160.294 93.8145 159.925 95.0889 159.761 95.9522C158.94 101.379 158.653 102.324 157.996 101.831C157.299 101.256 156.068 98.5011 155.206 95.7056C154.55 93.4856 153.811 92.7456 152.498 92.9511C150.324 93.2389 150.324 97.2267 152.539 102.078C155.411 108.409 160.704 109.354 163.207 104.01C164.11 102.037 164.274 101.173 164.274 97.7611C164.274 94.4311 164.151 93.65 163.494 92.91C162.427 91.7178 161.32 91.8411 160.622 93.1978Z" fill="black"/>
<path d="M241.163 98.5011C239.891 99.1589 238.578 100.228 238.127 100.968C237.675 101.667 236.814 102.324 236.198 102.489C234.188 102.9 230.618 105.531 229.51 107.381C228.69 108.82 228.485 109.724 228.485 111.903C228.485 114.781 229.798 121.441 230.659 123.086C231.234 124.237 235.008 128.266 236.526 129.334C237.511 130.074 237.593 130.444 238.168 136.036C238.906 143.97 238.906 157.043 238.168 161.36C237.716 163.868 236.978 165.923 235.213 169.377C230.085 179.654 229.346 180.189 220.033 180.641C215.396 180.888 213.591 180.806 210.883 180.23C208.996 179.86 207.067 179.654 206.616 179.778C206.001 179.942 203.949 179.038 200.174 177.106C194.02 173.858 189.63 170.98 187.373 168.637C185.076 166.293 182.08 158.441 179.044 146.93C178.47 144.669 177.649 142.161 177.198 141.339C176.788 140.517 176.295 138.996 176.172 137.927C175.844 135.83 175.434 135.542 174.695 136.94C172.48 141.092 165.053 148.451 162.468 149.027C161.894 149.15 159.842 149.767 157.914 150.424C149.503 153.22 141.707 153.96 133.912 152.686C131.491 152.316 130.178 152.233 130.055 152.521C130.014 152.727 127.429 155.234 124.311 158.071C118.895 163.087 113.069 167.198 105.355 171.514L102.606 173.036L102.36 172.049C102.196 171.391 102.565 170.076 103.55 168.02C105.027 164.854 106.135 159.51 105.643 157.619C105.191 155.851 101.991 155.111 100.76 156.509C100.391 156.879 99.8985 158.153 99.6113 159.263C96.9444 169.993 93.9903 176.982 89.5591 182.943C86.5639 187.013 82.1738 191.289 80.7378 191.659C80.2044 191.782 78.276 192.44 76.4707 193.098C71.8344 194.824 68.2238 195.359 62.6848 195.194C58.1716 195.03 57.8434 194.948 56.3253 193.797C49.3093 188.493 43.2779 181.052 41.3085 175.132C40.6521 173.2 39.8725 170.404 39.5443 168.924C39.216 167.444 38.3134 164.114 37.5338 161.524C36.6312 158.729 36.0568 155.933 36.0568 154.7C36.0568 151.617 35.3593 150.959 31.0922 150.013C29.1638 149.602 26.2097 148.78 24.5275 148.246C21.5734 147.259 19.7681 146.766 13.6957 145.244C10.5365 144.463 7.74647 143.23 7.74647 142.613C7.74647 141.832 9.75691 142.202 15.6651 144.052C22.0247 146.026 22.8863 146.19 23.6659 145.409C25.0199 144.052 23.0915 141.298 18.1679 137.639C16.9781 136.776 15.8703 135.83 15.7062 135.542C15.3779 135.008 17.5115 136.611 20.9169 139.407C23.2146 141.339 24.6096 141.421 25.7994 139.736C26.9072 138.173 27.3175 135.83 26.62 135.008C26.1687 134.473 26.2918 134.391 27.3585 134.391C28.9997 134.391 29.5331 133.61 29.6562 131.143C29.7382 129.746 30.1075 128.553 30.846 127.443C32.159 125.47 36.5081 121.77 37.9441 121.4C39.7084 120.948 41.8829 121.564 43.2369 122.88C44.4268 124.031 44.5088 124.278 44.0985 125.141L43.6472 126.128L42.4163 124.936C41.3496 123.867 40.8162 123.702 39.0109 123.702C34.2515 123.702 31.6256 126.95 32.0359 132.377C32.159 134.309 32.4872 135.213 33.7181 136.981C34.5797 138.214 36.0568 139.777 37.0825 140.517C38.5185 141.544 38.9288 142.12 38.9288 142.983C38.9288 144.546 39.6263 145.08 41.8419 145.08C44.9191 145.08 48.0373 144.34 49.6785 143.189C51.8531 141.668 53.2891 138.584 53.2891 135.46C53.2891 132.459 52.4685 130.856 49.9657 129.047C49.0221 128.389 48.4476 127.813 48.6938 127.813C49.5965 127.813 52.5506 130.856 53.5353 132.829C54.7662 135.254 54.7662 136.899 53.5353 139.571C52.3044 142.284 50.0068 144.546 47.3809 145.697C46.2321 146.231 44.8371 147.094 44.3037 147.711C43.36 148.698 43.319 148.862 43.6062 153.138C44.0575 159.716 47.0937 171.144 50.0478 177.393C51.8941 181.258 53.9456 183.354 57.9665 185.369C60.1 186.438 60.8385 186.602 63.7926 186.602C72.2857 186.602 77.5785 181.998 85.1279 168.02C88.2872 162.141 89.7642 158.606 93.1697 148.78C94.7288 144.217 95.1801 143.806 98.7086 143.559C103.673 143.271 107.448 142.696 108.104 142.161C109.048 141.38 108.638 139.612 107.366 138.996C105.971 138.338 95.1391 139.119 93.4159 139.982C91.6926 140.887 90.3797 142.942 88.8616 147.136C85.7023 155.933 84.3484 159.14 81.1481 165.183C75.1988 176.612 71.5062 180.436 65.3518 181.71C63.0131 182.203 62.7259 182.162 60.8795 181.258C56.5715 179.161 53.8225 175.256 52.0172 168.637C49.7196 160.044 48.7759 155.933 48.5297 153.179L48.2835 150.178L50.5401 149.027C53.207 147.752 56.3253 144.504 57.7613 141.586C58.4178 140.229 58.8281 138.626 58.9512 136.652C59.1153 134.062 58.9922 133.363 58.0485 131.226C56.6535 128.183 53.0019 124.401 50.5401 123.538C49.6375 123.209 48.7348 123.044 48.6118 123.168C48.4887 123.332 48.3656 123.127 48.3656 122.798C48.3656 121.77 44.714 117.988 43.1138 117.33C41.1854 116.508 37.1646 116.549 35.5234 117.371C33.2257 118.563 29.0407 122.181 27.4406 124.401L25.9225 126.58L24.1172 124.237C23.1325 122.921 21.5324 121.071 20.6297 120.126C19.1116 118.522 18.7424 118.358 16.9781 118.358C15.3369 118.358 14.8856 118.563 13.8599 119.632C12.9162 120.66 12.67 121.277 12.67 122.716C12.67 124.524 13.7368 127.238 15.0907 128.8C15.7472 129.581 15.7062 129.581 14.5163 128.841C13.8599 128.389 11.9315 126.991 10.2493 125.676C7.54133 123.538 7.04897 123.291 5.28471 123.291C2.78192 123.291 1.55104 124.524 1.18177 127.402C0.730447 130.938 1.55104 132.048 7.25412 135.46L10.6185 137.474L7.99265 137.598C5.61295 137.721 5.20265 137.844 4.3 138.954C3.47942 139.9 3.23324 140.681 3.23324 142.12C3.23324 146.354 5.65397 148.081 14.8035 150.424C18.25 151.288 21.9016 152.316 22.8863 152.644C24.5275 153.261 27.1534 153.96 30.4357 154.7C31.2973 154.906 31.5435 155.193 31.5435 156.098C31.5435 156.714 31.9128 158.482 32.3231 160.086C36.5901 176.324 37.6569 179.778 39.0109 181.833C41.8419 186.068 45.3704 190.631 46.4782 191.536C47.1757 192.111 48.8579 193.591 50.2529 194.866C54.3148 198.648 55.5457 199.306 59.4845 199.799C69.6188 201.114 80.6557 198.237 87.4666 192.522C90.3386 190.138 95.7956 183.231 97.3136 180.107C98.8317 177.023 99.3651 177.928 100.186 184.958C100.555 188 100.965 191.906 101.088 193.591C101.581 199.84 102.196 203.088 102.894 203.334C103.263 203.458 105.602 204.444 108.063 205.513C110.566 206.582 114.341 208.062 116.474 208.843C118.608 209.583 121.07 210.611 121.89 211.146C122.752 211.68 123.613 212.091 123.86 212.091C124.065 212.091 124.27 212.256 124.27 212.461C124.27 212.667 124.885 213.119 125.624 213.448C126.362 213.818 127.757 214.846 128.742 215.75C129.768 216.696 130.671 217.436 130.835 217.436C131.204 217.436 134.527 221.752 135.471 223.479C136.456 225.247 136.374 225.74 135.061 225.576C134.24 225.493 133.584 224.918 132.722 223.602C132.025 222.574 130.753 221.094 129.85 220.313C128.947 219.532 127.347 218.093 126.321 217.189C123.901 214.928 119.182 212.173 114.833 210.447C112.905 209.707 108.843 207.898 105.807 206.459C102.771 205.02 97.6829 203.006 94.5236 201.978C91.3644 200.991 87.7128 199.799 86.3998 199.347C84.6766 198.73 83.815 198.607 83.4867 198.894C82.6251 199.593 79.671 200.539 75.2809 201.484C71.9165 202.224 69.865 202.389 64.5722 202.348C60.6334 202.348 57.5151 202.142 56.8176 201.854L55.6278 201.361L55.915 204.938C56.1201 207.898 56.3663 208.72 57.351 210.2C58.9922 212.584 61.9053 214.928 68.8803 219.573C77.9888 225.576 77.5785 225.37 94.3185 231.783C103.099 235.196 106.463 236.511 106.75 236.758C106.915 236.922 106.463 237.292 105.725 237.539C103.058 238.526 99.201 240.581 98.0522 241.65C96.6572 242.966 95.9597 245.144 95.9597 248.31C95.9597 250.324 96.1238 250.736 97.2316 251.804C98.3804 252.914 98.7497 252.997 102.155 253.12C104.166 253.202 106.381 253.079 107.079 252.832C108.227 252.421 108.31 252.462 108.063 253.12C107.899 253.49 107.653 254.312 107.53 254.929C107.079 257.683 108.392 258.958 111.797 258.958C112.864 258.958 114.095 259.246 114.71 259.657C115.736 260.356 117.09 260.52 123.121 260.726C123.942 260.726 125.501 260.356 126.609 259.903C127.675 259.41 129.44 258.876 130.465 258.752C132.394 258.506 132.64 258.382 137.974 254.312L141.133 251.928L142.446 252.914C143.185 253.49 145.318 254.682 147.246 255.628C151.185 257.519 154.386 259.41 157.052 261.342C160.417 263.809 164.151 263.932 166.489 261.671C167.105 261.096 168.007 260.602 168.459 260.602C168.951 260.602 169.854 260.15 170.51 259.616C171.126 259.081 172.356 258.547 173.177 258.382C174.572 258.136 176.788 256.203 176.788 255.258C176.788 255.052 177.362 254.353 178.018 253.696C179.824 251.887 179.66 248.762 177.649 247.118C177.116 246.666 177.116 246.542 177.526 246.337C177.854 246.213 178.716 245.556 179.496 244.898C181.424 243.212 181.67 241.527 180.357 238.69L179.331 236.429L182.778 235.319C184.665 234.702 187.455 233.387 188.973 232.359C190.491 231.331 195.169 228.782 199.354 226.686C208.832 221.876 212.852 219.244 219.54 213.407C223.561 209.912 224.177 208.72 223.807 205.102C223.561 202.224 222.412 198.442 221.346 196.757C220.73 195.852 220.279 195.729 216.955 195.441C214.904 195.318 212.606 194.907 211.868 194.578C209.898 193.756 209.816 193.797 209.283 195.564C208.996 196.428 208.38 197.538 207.806 198.072C206.862 198.977 206.78 198.977 204.647 198.36C203.416 198.031 201.528 197.661 200.462 197.497C198.328 197.209 193.528 195.318 190.081 193.344L187.948 192.193L184.132 194.824C178.962 198.36 177.362 199.634 172.274 204.033C167.023 208.597 164.684 210.447 164.11 210.447C163.863 210.447 163.658 210.611 163.658 210.817C163.658 211.022 163.043 211.392 162.345 211.639C161.607 211.927 160.253 212.584 159.391 213.201C158.488 213.777 156.724 214.804 155.493 215.503C152.252 217.271 150.447 218.751 146.18 223.068C143.061 226.274 141.502 227.508 141.502 226.727C141.502 226.274 142.815 224.137 144.21 222.328C147.246 218.422 148.559 217.066 150.857 215.544C152.129 214.681 153.278 213.9 153.401 213.777C153.524 213.653 154.55 213.078 155.657 212.543C157.504 211.639 159.842 210.159 160.376 209.583C160.499 209.46 161.237 209.09 162.017 208.72C163.822 207.857 166.571 205.842 171.495 201.649C173.628 199.881 176.049 197.949 176.911 197.373L178.511 196.304L178.224 192.193C177.813 185.41 177.321 183.478 175.475 181.381C174.613 180.353 173.136 178.01 172.192 176.16C171.29 174.351 169.895 171.884 169.115 170.692C167.515 168.267 167.433 166.746 168.869 166.54C170.018 166.376 171.946 168.924 174.572 174.022C179.578 183.848 184.829 188.411 196.482 193.098C199.108 194.167 204.975 195.523 205.303 195.153C205.344 195.071 205.549 194.084 205.754 192.933L206.124 190.796L210.186 192.193C221.387 195.976 231.275 194.496 237.962 188.041C241.409 184.711 244.035 181.381 245.225 178.668C247.768 172.994 250.435 164.238 251.051 159.469C251.256 157.783 251.666 155.07 251.912 153.508C252.2 151.904 252.528 146.478 252.651 141.421L252.897 132.212L254.949 133.774C257.533 135.789 261.718 137.721 263.893 137.968C266.519 138.297 268.817 137.474 270.335 135.748C271.483 134.473 271.607 134.021 271.442 132.623C271.155 130.527 269.309 128.553 265.821 126.786L263.154 125.388L265.37 125.347C271.196 125.306 277.474 123.168 278.992 120.701C280.264 118.604 280.018 116.467 278.376 114.822C277.187 113.63 276.694 113.424 274.971 113.424H272.919L275.34 111.04C277.638 108.697 277.72 108.532 277.72 106.477C277.72 104.75 277.515 104.133 276.653 103.27C275.668 102.283 275.422 102.242 272.55 102.407C269.965 102.571 268.899 102.9 265.165 104.75C262.744 105.901 260.118 107.381 259.298 108.039L257.821 109.231L257.944 107.422C258.231 104.01 256.426 100.927 252.733 98.5422C251.051 97.5145 250.558 97.3911 247.153 97.3911C243.871 97.3911 243.132 97.5145 241.163 98.5011ZM249.697 101.543C251.461 102.201 253.472 104.38 253.759 105.901C253.923 106.723 253.759 108.08 253.348 109.272C252.979 110.423 252.692 111.698 252.692 112.109C252.692 113.219 254.867 115.48 255.933 115.48C256.385 115.48 257.944 114.534 259.339 113.383C262.211 111.04 269.309 107.299 271.689 106.847C272.509 106.682 273.207 106.6 273.207 106.682C273.207 106.806 272.591 107.381 271.894 108.039C270.458 109.354 266.97 111.081 262.334 112.849C258.272 114.411 257.944 114.74 258.108 117.494L258.231 119.797L260.693 119.714C262.047 119.714 265.288 119.18 267.873 118.604C272.837 117.494 275.668 117.248 275.668 117.988C275.668 119.427 268.693 120.824 261.472 120.824H257.698L256.426 122.263C254.333 124.689 254.702 125.717 258.395 127.649C261.308 129.211 265.124 131.472 266.437 132.5C267.216 133.076 267.175 133.117 265.78 133.158C263.606 133.158 260.406 131.554 256.015 128.266C251.83 125.1 250.682 124.771 249.122 126.251C248.179 127.114 248.179 127.197 248.179 137.269C248.179 142.86 247.974 148.41 247.768 149.643C247.522 150.836 247.071 153.919 246.743 156.509C245.799 163.662 243.953 169.87 240.711 176.694C239.439 179.284 238.332 180.847 236.116 183.108C231.562 187.753 227.951 189.233 221.346 189.192C217.735 189.151 216.668 188.946 211.786 187.383C206.944 185.821 206.288 185.533 206.411 184.793C206.575 183.766 207.149 183.766 210.76 184.752C212.852 185.287 214.74 185.41 220.197 185.287C226.556 185.163 227.213 185.081 229.305 184.094C233.695 182.039 235.419 179.86 239.85 170.939C242.558 165.43 243.132 162.676 243.707 153.097C244.281 142.819 242.927 128.677 241.122 126.292C240.917 126.046 240.219 125.676 239.563 125.552C238.332 125.264 234.885 121.934 234.516 120.578C233.08 115.891 232.629 111.163 233.449 109.683C233.942 108.697 237.388 106.436 238.291 106.436C238.66 106.436 238.168 106.806 237.265 107.217C235.09 108.203 234.229 109.478 234.229 111.698C234.229 116.96 237.388 121.647 240.958 121.647C241.942 121.647 243.419 120.167 243.05 119.591C242.927 119.427 243.583 119.18 244.445 119.016C247.727 118.481 251.83 113.548 252.733 108.984C253.184 106.559 253.143 106.312 252.405 105.284C251.051 103.476 245.348 102.078 243.707 103.106C243.296 103.352 242.763 103.311 242.271 103.064C241.45 102.612 241.532 102.53 243.05 101.872C244.896 101.009 247.974 100.886 249.697 101.543ZM247.686 107.463C248.179 107.587 248.589 107.998 248.589 108.368C248.589 110.177 245.019 115.069 243.666 115.069C243.296 115.069 242.229 115.316 241.327 115.644L239.686 116.22L239.193 114.658C238.455 112.191 238.619 111.533 240.055 110.917C240.752 110.629 242.271 109.56 243.378 108.614C244.568 107.504 245.635 106.888 246.045 107.011C246.414 107.093 247.153 107.299 247.686 107.463ZM43.6472 131.349C44.2216 131.472 44.8371 131.513 44.9601 131.39C45.0832 131.226 45.9859 131.801 46.9706 132.623C48.899 134.186 49.1862 135.172 48.3656 137.557C47.7091 139.407 46.3141 140.023 44.2216 139.324C42.1291 138.626 38.6006 136.036 37.4107 134.309C35.8926 132.13 36.2209 128.923 38.0672 128.307C38.9698 127.978 39.3801 128.142 40.8572 129.499C41.8009 130.362 43.0728 131.184 43.6472 131.349ZM140.682 230.961C143.472 231.948 150.447 233.017 156.683 233.428C161.237 233.716 161.484 233.798 164.315 235.442C166.489 236.717 167.884 237.21 169.648 237.416C171.002 237.539 172.685 237.827 173.382 238.073C174.736 238.484 176.377 240.129 176.377 241.116C176.377 241.897 174.285 242.883 171.987 243.171C168.91 243.582 166.243 246.542 167.884 247.734C168.13 247.94 169.484 248.433 170.838 248.844C172.192 249.256 173.751 249.79 174.285 249.996L175.311 250.366L174.039 251.147C173.177 251.681 172.685 252.298 172.603 253.079C172.521 253.942 172.274 254.189 171.659 254.148C170.1 253.942 168.705 254.477 168.212 255.422C167.72 256.286 167.556 256.327 166.12 255.916C164.766 255.587 164.397 255.628 163.658 256.286C163.207 256.697 162.838 257.478 162.838 258.012C162.838 259.287 161.73 259.246 159.925 257.93C159.145 257.396 157.709 256.45 156.683 255.833C155.657 255.217 154.18 254.312 153.401 253.778C152.621 253.284 150.693 252.257 149.093 251.517C145.359 249.831 145.687 249.996 142.897 247.734C141.543 246.666 138.671 244.857 136.497 243.747C134.322 242.596 132.394 241.486 132.23 241.239C132.107 240.992 131.532 240.622 130.958 240.417C129.891 240.006 129.891 240.006 132.886 236.963C135.676 234.044 135.84 233.798 135.676 232.236C135.553 230.673 135.553 230.632 136.989 230.468C137.769 230.386 138.425 230.303 138.425 230.262C138.466 230.221 139.451 230.55 140.682 230.961ZM112.864 238.567C113.848 239.101 116.351 239.471 123.572 240.252C125.542 240.458 126.034 240.704 126.28 241.444C126.855 242.883 131.819 246.953 134.568 248.228L137.071 249.379L135.512 250.612C130.506 254.518 129.932 254.847 128.373 254.847C127.47 254.847 126.034 255.299 124.926 255.916L122.998 256.984L122.383 256.121C121.644 255.093 119.716 254.97 118.936 255.874C118.239 256.738 117.459 256.656 116.064 255.628C115.12 254.888 114.546 254.806 113.233 255.011C112.289 255.134 111.551 255.217 111.551 255.134C111.551 255.052 112.536 253.942 113.766 252.586C116.474 249.667 116.803 248.68 115.695 246.871C114.259 244.569 113.356 243.952 112.166 244.487C111.592 244.733 111.141 245.186 111.141 245.473C111.141 245.761 109.992 246.748 108.597 247.652C106.258 249.132 105.807 249.297 103.468 249.256C100.35 249.214 99.8575 248.844 100.227 246.83C100.596 244.98 101.17 244.487 105.93 241.814C108.556 240.334 109.746 239.471 109.828 238.854C109.992 237.827 111.223 237.703 112.864 238.567Z" fill="#F15928"/>
<path d="M99.4639 182.753C101.532 180.66 101.441 178.22 100.661 175.635C100.568 175.327 100.847 174.907 100.954 174.539C102.062 173.969 103.17 173.399 104.279 172.829C107.482 175.789 107.806 175.725 110.113 171.831C110.703 170.836 110.918 169.745 111.138 168.644C114.706 166.334 118.136 163.848 121.149 160.826C122.185 160.657 122.318 161.527 122.487 162.143C123.16 164.603 123.988 167.055 123.653 169.669C123.535 170.584 123.718 171.412 124.164 172.309C124.196 171.114 124.079 169.906 125.498 169.477C126.827 170.346 126.571 171.867 126.975 173.112C127.494 174.707 128.004 176.074 130.234 175.716C131.589 175.499 132.539 176.558 133.162 177.761C133.285 178.352 133.105 178.884 132.809 179.376C130.568 183.096 128.468 186.902 126.065 190.524C124.785 190.612 124.825 191.362 125.01 192.373C125.234 193.595 125.717 195.559 124.286 195.715C122.536 195.904 123.206 193.828 122.988 192.694C122.654 190.956 122.399 189.202 122.099 187.457C121.828 185.879 121.175 185.03 119.489 185.961C118.987 186.238 118.425 186.296 117.885 186.443C116.234 186.893 115.371 188.032 115.855 189.697C117.067 193.866 118.166 198.054 118.901 202.338C119 202.916 119.183 203.785 120.031 203.6C120.671 203.461 120.547 202.692 120.557 202.144C120.569 201.578 120.398 201.029 120.346 200.47C120.253 199.472 119.787 198.008 121.04 197.798C122.081 197.623 122.184 199.102 122.345 200.029C122.524 201.06 122.721 202.088 122.888 203.121C123.026 203.978 123.105 204.879 123.923 205.644C124.577 204.995 124.377 204.147 124.538 203.419C124.656 202.884 124.637 202.175 125.318 202.065C126.072 201.944 126.454 202.58 126.729 203.16C127.428 204.637 127.601 206.247 127.821 207.845C128.295 209.526 128.565 211.246 128.884 212.954C129.057 213.878 129.278 214.843 128.464 215.626C122.999 210.593 116.531 207.343 109.573 204.967C109.339 204.2 109.099 203.435 109.066 202.625C109.023 201.585 108.636 200.932 107.441 201.11C106.613 201.233 106.096 200.677 105.62 200.135C104.979 199.404 104.774 198.689 106.001 198.37C107.425 197.999 107.667 196.997 107.417 195.766C107.161 194.505 107.066 193.223 106.881 191.954C106.604 190.061 105.103 189.4 103.751 188.579C103.044 188.15 102.742 188.695 102.527 189.258C102.012 190.611 102.14 191.907 102.77 193.214C103.678 195.099 103.76 197.067 103.133 199.066C102.444 199.677 101.754 200.255 101.03 199.111C100.508 193.658 99.986 188.206 99.4639 182.753" fill="#EA421B"/>
<path d="M160.036 210.082C159.011 207.973 159.531 205.623 158.992 203.43C158.398 201.011 156.75 198.909 156.991 196.205C157.04 195.653 155.994 195.004 155.168 194.081C154.851 196.042 154.523 197.57 155.413 199.053C155.694 199.523 155.932 199.947 155.467 200.411C154.862 201.016 154.424 200.505 153.922 200.192C152.554 199.34 152.353 197.826 151.896 196.507C151.429 195.16 151.218 193.72 150.932 192.312C150.762 191.476 150.586 190.573 151.374 189.947C152.236 189.262 152.966 189.974 153.709 190.316C154.007 190.453 154.278 190.65 154.577 190.829C155.618 187.775 156.153 187.579 158.726 189.31C158.695 187.197 157.92 185.276 157.274 183.419C156.274 180.543 157.092 177.256 155.021 174.612C154.409 173.829 154.974 172.605 155.974 171.994C157.085 171.317 157.791 172.146 158.313 172.876C159.779 174.925 160.526 177.262 160.49 179.787C160.463 181.678 160.545 183.527 161.394 185.257C161.701 185.885 161.472 187.334 162.898 186.424C163.722 185.899 164.818 185.742 164.004 183.995C161.579 178.794 160.081 173.227 158.556 167.705C158.101 166.056 158.067 163.943 161.056 164.34C161.965 164.461 162.666 163.441 163.362 162.941C165.742 161.232 168.278 161.932 170.792 161.976C171.445 166.188 171.079 170.435 171.191 174.665C171.406 182.801 171.194 190.959 172.65 199.019C172.738 199.505 172.949 200.023 172.384 200.381C167.942 203.199 164.422 207.193 160.036 210.082" fill="#E42D10"/>
<path d="M143.341 202.567C143.351 202.647 143.364 202.727 143.37 202.807C143.622 206.309 143.621 206.309 146.816 205.636C147.246 206.572 147.417 207.618 148.207 208.4C148.699 208.886 149.386 209.607 148.777 210.268C148.088 211.016 147.306 210.3 146.659 209.885C145.849 209.365 145.068 208.794 144.205 208.363C143.721 208.121 143.171 207.694 142.672 208.196C142.302 208.568 142.53 209.123 142.655 209.58C143.396 212.293 144.015 215.034 144.59 217.789C144.822 218.902 144.98 219.998 144.903 221.128L140.884 226.908C139.457 226.37 137.791 226.351 136.737 224.998C135.42 222.809 133.975 220.71 132.311 218.768C132.274 216.084 131.588 213.519 130.888 210.957C131.442 210.372 131.477 209.62 131.326 208.934C130.383 204.646 131.041 200.195 129.955 195.928C131.118 193.079 133.36 191.012 135.241 188.684C135.383 188.509 135.684 188.631 135.882 188.782C137.24 191.026 136.311 193.802 137.519 196.371C139.001 193.484 137.815 190.737 138.042 188.071C138.321 186.39 139.338 185.372 140.885 184.772C143.944 183.585 145.914 184.688 146.456 187.936C146.535 188.412 146.534 188.9 146.627 189.372C146.707 190.537 146.285 191.584 145.769 192.583C143.381 197.202 141.38 201.975 140.052 206.712C141.052 205.483 141.275 203.32 143.341 202.567" fill="#E73615"/>
<path d="M145.724 184.157C145.587 183.881 145.342 183.611 145.329 183.329C145.244 181.506 145.071 179.685 142.806 179.356C140.736 179.055 138.776 180.534 138.034 182.718C137.07 182.954 136.498 182.358 135.94 181.731C135.581 180.634 136.347 179.909 136.84 179.114C140.313 173.515 143.4 167.699 146.49 161.884C146.752 161.39 147.004 160.895 146.715 160.288C145.283 160.267 145.097 162.126 143.764 162.125C142.953 161.944 142.668 161.241 142.301 160.626C142.013 160.142 141.777 159.613 141.369 159.222C140.31 158.205 139.025 157.004 137.606 157.605C136.026 158.273 136.66 160.038 137 161.275C137.781 164.111 137.878 167.189 139.752 169.67C139.614 170.957 139.22 172.086 137.935 172.672C136.95 172.369 137.005 171.449 136.82 170.706C136.197 168.207 135.419 165.751 134.823 163.245C134.382 161.395 133.366 159.863 132.195 158.415C131.882 157.96 131.898 157.34 131.313 156.783C130.534 157.932 129.524 158.815 128.025 158.432C127.16 158.211 126.338 157.836 126.505 156.668C127.624 155.539 128.805 154.463 129.844 153.264C130.784 152.18 131.877 152.583 132.938 152.744C137.839 153.489 142.748 153.725 147.679 153.095C148.389 153.603 148.595 154.389 148.704 155.17C149.23 158.945 149.662 162.738 151.532 166.17C151.757 166.582 151.716 167.099 151.744 167.574C151.533 171.41 150.365 174.966 148.598 178.345C146.605 179.173 146.086 180.688 146.602 182.684C146.528 183.306 146.324 183.85 145.724 184.157" fill="#EA421B"/>
<path d="M103.575 200.356C103.608 198.042 103.783 195.744 102.459 193.607C101.553 192.143 102.544 190.664 102.955 189.246C103.088 188.786 103.629 188.167 104.255 188.737C105.869 190.206 108.501 190.842 108.376 193.766C108.325 194.967 108.64 196.132 108.83 197.313C109.128 199.162 108.55 200.507 105.707 200.175C107.018 200.901 107.22 202.517 108.844 201.455C109.462 201.05 110.273 201.653 110.23 202.312C110.144 203.617 111.036 204.908 110.266 206.2C108.367 205.362 106.469 204.524 104.57 203.686C103.86 202.69 103.463 201.599 103.575 200.356" fill="#E3290F"/>
<path d="M126.65 194.848C128.152 199.374 127.419 204.135 128.093 208.749C128.196 209.461 128.166 210.237 127.147 210.352C127.159 208.414 126.844 206.567 125.456 204.486C124.946 206.394 125.701 208.27 124.099 209.599C121.523 207.144 122.6 203.458 121.178 200.322C120.416 202.336 121.635 203.888 121.37 205.534C121.239 206.355 121.28 207.263 120.23 207.356C119.307 207.437 118.748 206.744 118.531 205.928C118.203 204.694 117.831 203.434 117.776 202.171C117.622 198.671 115.942 195.59 115.233 192.248C114.739 189.918 115.971 188.309 118.249 188.426C118.827 188.456 119.087 188.065 119.476 187.81C121.277 186.63 122.493 187.179 122.779 189.327C123.163 192.208 123.939 195.024 124.085 197.96C125.176 196.629 124.492 195.306 124.292 193.969C124.205 193.385 123.937 192.568 124.653 192.223C125.241 191.94 125.578 192.714 126.074 192.928C126.687 193.441 125.994 194.348 126.65 194.848" fill="#E2290E"/>
<path d="M159.407 192.574C160.482 193.35 160.073 195.175 161.947 195.18C162.711 195.182 162.607 196.671 162.192 197.2C161.776 197.731 160.556 197.47 160.332 196.999C159.709 195.689 158.158 194.508 159.407 192.574" fill="#EA411B"/>
<path d="M132.722 211.399C131.714 211.217 130.723 211.618 130.56 210.396C130.451 209.577 130.69 209.087 131.615 208.853C132.984 208.507 132.572 207.216 132.39 206.434C131.776 203.792 130.913 201.212 129.443 198.892C129.127 198.394 128.232 197.89 128.994 197.333C129.718 196.804 131.114 197.101 131.285 197.75C132.014 200.505 134.052 202.919 133.325 206.098C133.057 207.268 133.401 208.64 133.703 209.86C134.018 211.134 133.936 211.763 132.722 211.399" fill="#EF5928"/>
<path d="M151.185 167.877C151.412 166.123 150.046 164.946 149.569 163.439C148.5 160.063 148.376 156.529 147.679 153.095C151.687 151.974 155.704 150.885 159.696 149.711C160.761 149.398 161.749 148.826 162.772 148.373C164.35 150.093 164.67 154.793 163.216 157.456C162.795 155.202 160.848 156.113 159.625 155.455C158.692 154.952 158.899 156.123 158.822 156.663C158.685 157.624 158.788 158.821 157.201 158.092C156.106 157.59 156.516 158.505 156.395 158.925C156.048 160.135 155.812 161.373 154.019 160.35C153.007 159.772 152.999 160.616 153.213 161.284C153.675 162.728 153.659 164.115 152.927 165.465C151.455 165.623 152.62 167.693 151.185 167.877" fill="#E73514"/>
<path d="M145.388 220.365C144.324 216.133 143.264 211.9 142.191 207.671C142.065 207.176 141.952 206.671 142.537 206.455C143.152 206.228 143.799 206.257 144.385 206.629C145.889 207.584 147.393 208.539 149.127 209.641C148.829 207.647 145.818 207.147 147.301 204.872C147.549 202.815 148.059 202.586 149.696 203.693C151.399 204.845 151.567 206.813 151.995 208.477C152.456 210.267 152.872 212.179 152.627 214.103C149.915 215.844 147.394 217.805 145.388 220.365Z" fill="#E32A0F"/>
<path fill-rule="evenodd" clip-rule="evenodd" d="M167.3 145.144C169.602 142.537 176.054 138.14 176.473 138.199C177.077 138.285 180.353 151.12 181.017 154.199C182.098 159.204 184.312 166.134 188.048 169.878C192.12 173.959 202.218 178.647 205.341 180.546C207.885 182.093 195.811 186.184 193.584 188.153C192.077 189.486 190.051 187.572 188.596 188.966C188.418 189.136 183.891 185.929 183.278 183.784C181.203 176.527 179.073 182.479 175.572 175.723C174.523 173.7 171.598 166.244 169.61 165.059C167.07 163.545 167.203 157.576 165.835 154.326C164.525 151.213 162.402 148.558 166.052 147.686" fill="#EA411B"/>
<path d="M135.43 225.823C135.383 226.578 138.348 226.11 136.206 227.807C135.831 228.104 136.652 228.579 137.06 228.737C139.002 229.49 137.575 229.94 136.93 230.468C137.888 231.703 137.786 233.129 137.115 234.304C135.913 236.408 134.526 238.448 131.949 239.136C130.26 239.958 128.435 239.404 126.691 239.661C123.254 241.162 119.899 239.875 116.587 239.186C115.296 238.917 113.674 238.999 112.727 237.66C111.974 237.172 111.115 236.928 110.591 236.016C109.399 233.944 107.707 233.854 105.835 235.159C98.8023 232.387 91.5839 230.093 84.7134 226.905C85.0008 224.891 86.2589 223.249 86.8504 221.339C87.1959 220.223 87.4112 219.3 86.7437 218.231C85.5855 216.377 85.8959 214.8 87.6476 213.359C89.0521 212.203 89.7626 210.527 90.0392 208.722C90.1957 207.699 90.2515 206.595 89.1093 206.079C87.9234 205.542 87.2337 206.401 86.6088 207.235C85.8921 208.192 85.4125 209.273 85.0474 210.404C84.6183 211.733 83.8477 212.82 82.756 213.671C82.3034 214.024 81.8062 214.513 81.186 214.114C80.6261 213.753 80.6357 213.099 80.6849 212.503C80.7793 211.361 81.4522 210.474 82.0058 209.526C82.4203 208.816 83.6192 208.139 83.2424 207.503C82.5929 206.408 81.8727 205.136 80.4264 204.749C79.5206 204.507 78.6396 204.199 78.0334 203.427C77.6759 202.972 77.2424 202.502 77.6838 201.854C77.8227 201.755 77.9691 201.647 78.1317 201.632C80.4271 201.424 81.5555 200.864 83.449 199.012C83.7079 198.758 84.0472 198.742 84.3817 198.899C84.6649 199.121 84.9481 199.343 85.2313 199.566C85.8553 200.303 85.279 200.988 85.1296 201.687C84.9856 202.361 84.8256 203.078 85.5212 203.501C86.3206 203.987 86.9699 203.494 87.4992 202.929C88.2392 202.139 88.8209 201.195 89.7813 200.625C97.4061 203.147 105.115 205.451 112.237 209.281C113.044 209.715 113.856 210.137 114.666 210.565C115.416 211.916 114.35 212.744 113.77 213.764C113.786 213.9 113.792 213.827 113.946 213.606C114.676 212.555 115.533 211.236 116.942 212.047C118.29 212.822 117.674 214.317 117.281 215.497C116.532 217.745 115.322 219.779 114.083 221.991C115.325 219.988 116.323 218.019 117.881 216.462C118.677 215.667 119.49 214.391 120.833 215.216C122.223 216.071 121.767 217.383 121.162 218.577C120.972 218.95 120.849 219.36 120.77 219.453C121.369 218.553 121.69 217.182 122.378 216C122.712 215.426 122.723 214.409 123.839 214.663C128.46 217.593 132.834 220.782 135.43 225.823" fill="#E9401A"/>
<path d="M162.731 212.657C164.477 214.027 164.347 216.254 165.149 218.053C165.798 219.507 166.289 221.052 166.666 222.602C167.035 224.12 168.335 224.239 169.196 223.942C170.447 223.51 169.396 222.529 169.108 221.862C168.409 220.237 167.581 218.67 166.857 217.056C166.471 216.193 166.17 215.271 167.248 214.621C168.47 213.883 168.999 215.008 169.446 215.656C172.274 219.759 174.546 224.178 176.48 228.768C177.034 230.083 177.549 231.425 177.934 232.797C178.218 233.809 177.91 234.381 176.636 234.019C174.656 233.457 173.12 232.565 172.592 230.361C172.184 228.662 171.394 227.102 169.956 225.169C170.182 227.594 170.547 229.331 171.163 231.021C171.368 231.584 171.591 232.195 171.101 232.683C170.562 233.218 170.004 232.78 169.483 232.544C168.48 232.09 167.446 231.65 167.1 230.455C165.672 225.533 162.988 221.079 161.775 216.076C161.558 215.18 161.129 214.331 161.279 213.37C161.763 213.132 162.247 212.894 162.731 212.657" fill="#E73A16"/>
<path d="M156.712 216.249C158.115 216.075 159.023 216.948 159.527 217.995C161.007 221.077 161.688 224.381 161.735 227.806C161.738 228.046 161.689 228.334 161.555 228.52C160.886 229.45 156.118 228.697 155.67 227.585C154.918 225.717 154.224 223.825 153.461 221.962C153.181 221.279 153.007 220.613 153.69 220.155C154.517 219.6 154.855 220.32 155.225 220.895C155.439 221.229 155.649 221.713 156.177 221.416C156.61 221.174 156.619 220.733 156.446 220.313C155.945 219.096 156.314 217.804 156.104 216.564C156.307 216.459 156.509 216.354 156.712 216.249" fill="#E73B17"/>
<path d="M194.709 228.929C194.421 228.317 194.102 227.716 194.264 226.996C195.602 221.064 192.519 215.995 191.073 210.606C187.682 208.997 187.748 205.113 185.785 202.575C184.986 201.542 184.18 200.313 182.546 200.49C182.805 200.283 183.055 199.91 183.324 199.896C185.16 199.804 186.919 200.212 188.006 197.744C188.436 196.769 190.031 198.409 190.543 199.361C191.94 201.961 192.958 204.736 193.7 207.603C192.468 208.92 192.289 210.358 193.022 212.018C194.216 214.723 194.846 217.658 196.238 220.279C196.995 221.704 198.218 222.756 199.639 223.878C200.471 222.61 200.043 221.483 199.865 220.374C199.776 219.817 199.372 219.155 199.976 218.734C200.689 218.237 201.218 218.865 201.755 219.256C203.492 220.338 204.998 221.582 204.938 223.901C201.663 225.851 198.217 227.453 194.709 228.929" fill="#EC4D22"/>
<path d="M188.1 232.93C186.301 230.432 185.916 227.356 184.761 224.59C182.788 219.866 179.898 215.634 177.888 210.948C177.56 210.185 177.271 209.405 176.965 208.633C178.018 207.911 176.835 205.702 178.677 205.698C180.431 205.694 180.685 207.512 181.315 208.722C184.57 214.972 187.575 221.336 189.609 228.109C189.934 229.191 190.603 230.034 191.161 230.96C190.25 231.787 189.288 232.534 188.1 232.93" fill="#EC4C21"/>
<path d="M139.833 184.031C140.355 183.141 140.876 182.252 141.398 181.363C141.856 180.55 142.315 179.738 142.773 178.926C143.595 176.389 144.663 173.987 146.539 172.028C146.877 171.58 147.183 171.104 147.559 170.691C148.065 170.133 148.572 169.318 149.474 169.922C150.35 170.508 149.919 171.272 149.528 171.97C147.015 176.461 144.478 180.938 142.005 185.451C141.269 186.793 140.097 187.878 139.705 189.417C139.754 190.048 139.525 190.503 138.893 190.702C137.411 192.735 136.087 194.893 134.234 196.633C133.264 196.726 133.264 196.726 133.728 194.947C134.968 191.736 137.038 188.993 138.727 186.035C139.105 185.373 139.464 184.699 139.833 184.031" fill="#010000"/>
<path d="M152.974 177.268C153.123 176.552 153.234 175.826 153.43 175.125C153.795 173.82 154.153 174.733 154.503 175.151C155.277 180.313 153.73 185.061 151.85 189.731C150.037 194.238 147.853 198.574 145.597 202.873C144.472 204.532 143.347 206.19 141.92 208.295C142.958 201.918 146.02 196.908 148.181 191.557C148.35 191.156 148.52 190.756 148.689 190.355C148.866 188.907 149.202 187.525 150.292 186.454C151.581 183.507 152.569 180.473 152.974 177.268" fill="#020000"/>
</svg>
