<svg width="301" height="280" viewBox="0 0 301 280" fill="none" xmlns="http://www.w3.org/2000/svg">
<path d="M151.633 254.243L157.618 258.68L167.081 262.516L177.524 261.544L181.798 259.109L180.537 255.244L181.798 253.524L187.395 254.525L192.909 253.524V250.449L191.812 246.651L185.79 242.013L181.798 240.065L183.529 238.635L189.824 217.447L190.11 211.222L189.156 209.855L188.106 205.873L189.156 186.766L191.156 181.092V178.026L192.905 167.226H194.972L201.982 176.933L210.277 191.169L219.291 198.933L229.448 202.491H241.122L247.842 198.933L250.279 192.385L249.943 188.057L244.896 186.762L243.341 180.642L243.013 173.16L244.194 165.918L243.013 164.11L237.025 161.409L233.466 162.427L234.306 169.299L238.841 176.159L241.118 182.245L243.009 189.819L239.454 194.071L228.297 191.628L222.287 185.05L218.018 178.27L210.13 163.083L205.554 157.162L201.549 151.69L197.687 148.561L194.254 147.387C194.254 147.387 185.572 142.235 175.864 142.433L156.075 148.801L145.187 147.387L135.816 143.489L128.647 141.47L123.011 138.051C123.011 138.051 116.031 137.954 114.157 143.619L109.992 159.736L103.697 172.109L97.1164 177.32L86.9383 184.638L78.3824 186.148L73.0832 195.375L80.6642 196.956L100.835 189.815L108.48 182.211L113.438 175.482L117.498 168.467L121.292 167.323L119.733 199.383L118.401 202.487L115.855 211.21L115.426 217.72L113.253 228.028L110.703 233.445L112.182 238.913L111.778 244.212L113.85 248.649L116.998 250.445L113.85 254.091L117.498 258.671L120.692 261.536L126.373 264.4L130.315 263.685L141.581 257.957L146.755 254.663L151.621 254.234L151.633 254.243Z" fill="white"/>
<path fill-rule="evenodd" clip-rule="evenodd" d="M161.526 21.4006C161.526 21.4006 191.909 24.046 198.973 85.0588C198.973 85.0588 208.903 83.3975 211.458 90.4379C214.013 97.4783 216.497 101.419 203.045 111.021C189.597 120.623 194.144 131.158 180.474 138.707C166.804 146.252 148.003 156.788 125.44 142.354C109.812 132.357 111.303 80.3988 112.438 77.6861C113.573 74.9692 123.768 32.0622 149.503 21.6992L161.522 21.4048L161.526 21.4006Z" fill="white"/>
<path d="M167.842 19.2879C171.418 20.2889 175.078 22.1646 177.532 24.2423C181.524 27.6573 189.929 40.3587 195.035 50.6922C200.233 61.0635 202.192 68.0535 202.73 78.0926L202.982 82.8829L205.394 82.7189C209.882 82.3867 214.416 85.4232 216.824 90.3776C217.908 92.5856 218.03 93.2543 218.03 96.7913C218.03 100.539 217.95 100.913 216.408 104.076C213.458 110.073 208.088 114.359 201.935 115.574C199.897 115.991 199.565 116.201 199.321 117.156C198.531 120.356 195.409 127.232 193.333 130.437C190.383 134.895 185.681 139.85 183.605 140.64C183.231 140.762 180.898 142.142 178.486 143.681C171.586 148.017 167.468 149.464 157.609 150.923C150.625 151.966 147.048 151.966 141.728 150.923C136.446 149.838 129.424 147.55 127.297 146.213C123.103 143.551 115.115 131.808 111.74 123.309C107.786 113.484 105.71 97.153 107.374 89.0401C107.748 87.1644 108.042 84.9185 108.042 84.0059C108.042 83.0932 108.336 81.6338 108.668 80.7969C109.421 79.0431 111.791 71.0942 111.871 71.1741C111.95 71.2541 112.035 70.8419 112.035 70.2615C112.077 69.7232 112.867 67.6792 113.816 65.8034C114.728 63.9277 115.892 61.3033 116.35 59.928C116.808 58.5906 117.598 57.0513 118.052 56.555C118.51 56.0587 119.178 54.5573 119.51 53.224C120.343 49.9309 124.578 41.1914 127.365 37.0277C130.029 32.986 136.143 26.9886 140.589 23.9899C146.031 20.3646 150.776 19.0356 159.378 18.7033C163.908 18.4888 165.287 18.6234 167.821 19.2921L167.842 19.3005V19.2879ZM151.616 25.7395C146.834 26.9045 143.762 28.7803 137.732 34.1973C134.408 37.1539 131.659 40.9433 128.541 46.8187C125.671 52.3198 121.347 59.1962 120.88 63.0781C120.586 65.5385 116.703 75.1948 116.237 76.5911C115.901 77.5038 115.022 81.9703 114.901 83.1773C114.779 84.3844 114.363 86.9667 113.989 88.9602C112.619 96.6189 113.947 110.031 117.018 119.279C119.309 126.147 125.583 136.641 129.495 140.056C133.273 143.387 139.438 145.09 147.628 145.09C154.075 145.09 159.101 144.514 164.383 143.134C177.196 139.803 185.466 133.642 190.463 123.645C191.711 121.235 194.123 114.317 194.123 113.274C194.123 112.857 194.619 112.029 195.287 111.398C196.199 110.485 196.951 110.191 199.069 109.981C204.146 109.442 208.546 106.565 210.672 102.322C213.042 97.704 212.71 93.8221 209.76 90.7014C207.684 88.5355 206.558 88.3714 202.444 89.7383C200.448 90.407 199.574 90.4869 198.868 90.1547C197.035 89.3261 196.75 88.199 196.455 81.2427C196.334 77.5753 195.997 73.2896 195.787 71.6578C194.379 61.4967 187.143 46.5075 177.242 33.2131C173.838 28.5952 171.75 27.0559 167.098 25.4619C165.182 24.8353 163.938 24.7133 159.403 24.9236C156.415 25.0035 152.919 25.3778 151.629 25.7143V25.7353L151.616 25.7395Z" fill="#F15928"/>
<path d="M140.85 45.3948C142.136 46.4799 142.594 48.4355 141.804 49.5585C140.72 51.1777 137.934 51.3922 136.522 49.9328C135.194 48.6458 135.194 47.1864 136.564 45.5967C137.892 44.0153 139.14 43.9354 140.85 45.3822V45.3906V45.3948Z" fill="#F15928"/>
<path d="M136.564 57.0155C139.018 58.0207 139.392 61.2591 137.354 63.3073C135.984 64.6447 134.446 64.5942 132.946 63.0928C130.118 60.216 132.946 55.4762 136.564 57.0155Z" fill="#F15928"/>
<path d="M147.965 53.7625C145.633 53.4303 144.62 50.7134 145.939 48.5138C146.83 47.067 148.167 46.7726 149.78 47.7441C152.831 49.6073 151.423 54.3093 147.965 53.7625Z" fill="#F15928"/>
<path d="M147.835 59.3156C150.125 60.2282 150.205 64.148 147.999 65.8513C146.793 66.764 144.754 66.52 143.843 65.313C142.262 63.3195 142.973 60.4806 145.263 59.5301C146.053 59.1978 146.763 58.9034 146.805 58.9413C146.885 58.9413 147.343 59.1053 147.847 59.3156H147.839H147.835Z" fill="#F15928"/>
<path d="M135.988 68.3912C137.114 69.4343 137.274 69.8927 137.274 71.5119C137.274 74.0143 136.362 75.1372 134.244 75.1372C133.038 75.1372 132.37 74.8428 131.374 73.7998C130.664 73.089 130.004 72.1386 129.832 71.6717C129.243 69.796 131.534 67.2136 133.786 67.2136C134.282 67.2136 135.244 67.752 135.984 68.3786V68.387L135.988 68.3912Z" fill="#F15928"/>
<path d="M145.263 69.9294C145.843 70.4677 146.296 71.4266 146.296 72.0154C146.296 72.6042 145.843 73.5547 145.263 74.1015C144.725 74.6903 143.762 75.1445 143.187 75.1445C142.611 75.1445 141.645 74.6903 141.111 74.1015C140.531 73.5631 140.069 72.6 140.069 72.0154C140.069 71.4308 140.523 70.4761 141.111 69.9294C141.649 69.3406 142.611 68.8864 143.187 68.8864C143.762 68.8864 144.729 69.3406 145.263 69.9294Z" fill="#F15928"/>
<path d="M160.98 72.7996C166.098 74.1791 170.376 79.7096 168.094 81.9555C166.93 83.1626 165.602 82.7462 163.938 80.7485C162.194 78.6624 160.32 77.6278 158.404 77.6278C157.45 77.6278 156.622 78.082 155.324 79.2891C153.327 81.2447 151.827 81.3751 151.037 79.7433C149.873 77.4554 152.495 73.8679 156.021 72.8332C158.433 72.1225 158.391 72.1225 160.967 72.7912H160.976L160.98 72.7996Z" fill="black"/>
<path d="M116.851 69.5633C121.969 70.9428 126.247 76.4733 123.965 78.7192C122.801 79.9262 121.473 79.5099 119.809 77.5121C118.065 75.4261 116.191 74.3915 114.275 74.3915C113.321 74.3915 112.489 74.8457 111.195 76.0527C109.199 78.0084 107.698 78.1388 106.908 76.507C105.744 74.219 108.366 70.6315 111.896 69.5969C114.308 68.8862 114.266 68.8862 116.842 69.5549H116.851V69.5633Z" fill="black"/>
<path d="M129.836 94.6267C130.173 95.2534 130.547 96.5403 130.706 97.4109C131.538 102.912 131.832 103.863 132.488 103.366C133.198 102.777 134.442 99.9933 135.316 97.1586C135.984 94.9085 136.724 94.1599 138.064 94.3744C140.262 94.6688 140.262 98.7105 138.022 103.623C135.114 110.037 129.752 110.995 127.21 105.578C126.298 103.581 126.126 102.702 126.126 99.2488C126.126 95.7959 126.248 95.0852 126.916 94.3365C128 93.1295 129.114 93.2515 129.824 94.6309H129.832L129.836 94.6267Z" fill="black"/>
<path d="M67.5736 200.931C67.8972 200.628 68.2712 200.435 68.7293 200.384C69.3176 200.325 69.8933 200.494 70.4606 200.658C79.0124 203.059 88.5391 201.73 96.1117 197.104C97.1539 196.464 98.1583 195.766 99.2929 195.32C102.251 194.155 103.701 196.01 105.991 197.579C111.232 201.166 112.854 202.449 118.01 206.907C123.33 211.525 125.705 213.401 126.28 213.401C126.533 213.401 126.738 213.565 126.738 213.775C126.738 213.986 127.356 214.351 128.066 214.608C128.814 214.902 130.184 215.571 131.054 216.189C131.966 216.778 133.761 217.809 135.004 218.519C138.291 220.311 140.123 221.812 144.439 226.186C147.599 229.437 149.183 230.682 149.183 229.896C149.183 229.442 147.855 227.271 146.435 225.438C143.354 221.476 142.027 220.109 139.694 218.57C138.408 217.699 137.24 216.909 137.118 216.778C136.996 216.656 135.954 216.067 134.828 215.533C132.954 214.621 130.592 213.123 130.046 212.535C129.924 212.413 129.176 212.038 128.382 211.664C127.125 211.067 125.978 210.247 124.877 209.426C123.082 208.102 120.733 206.659 119.3 204.947C117.842 203.194 118.367 199.518 118.561 197.352C118.813 194.526 119.33 191.72 119.443 188.873C119.502 187.241 119.443 185.609 119.502 183.982C119.645 180.659 120.393 177.417 121.175 174.195C121.469 172.971 122.259 171.756 122.423 170.536C122.523 169.737 122.33 169.068 121.439 168.938C120.275 168.774 118.317 171.36 115.661 176.517C110.585 186.476 105.264 191.094 93.4558 195.846C93.2625 195.926 93.0524 196.01 92.8255 196.077C92.8759 195.501 92.8255 194.891 92.6112 194.265C91.7287 191.619 90.8966 189.05 90.3629 186.404C90.1696 184.146 90.0687 181.845 89.5729 179.709C89.6233 179.688 89.6653 179.658 89.7158 179.637C95.9478 176.344 100.398 173.43 102.688 171.058C105.021 168.685 108.051 160.724 111.131 149.066C111.707 146.778 112.551 144.233 113.005 143.405C113.421 142.572 113.917 141.033 114.047 139.952C114.384 137.824 114.8 137.529 115.548 138.951C117.796 143.157 125.318 150.609 127.944 151.198C128.52 151.32 130.609 151.947 132.554 152.615C141.077 155.45 148.986 156.203 156.878 154.903C159.332 154.529 160.66 154.449 160.79 154.739C160.832 154.954 163.454 157.486 166.606 160.362C166.707 160.455 166.799 160.543 166.9 160.636C170.195 163.655 173.721 166.398 177.44 168.883C179.465 170.242 181.533 171.516 183.642 172.744C185.668 173.93 187.891 174.687 189.853 175.995C190.98 176.744 191.98 177.787 192.274 179.103C192.598 180.584 191.959 182.072 191.576 183.532C190.98 185.799 190.98 188.272 190.715 190.602C190.501 192.507 190.29 194.42 190.148 196.334C189.652 202.664 189.021 205.957 188.315 206.201C187.941 206.323 185.567 207.324 183.075 208.409C180.541 209.494 176.708 210.991 174.553 211.782C172.393 212.53 169.892 213.573 169.06 214.112C168.186 214.65 167.316 215.075 167.064 215.075C166.85 215.075 166.648 215.239 166.648 215.449C166.648 215.659 166.03 216.118 165.278 216.454C164.526 216.829 163.118 217.872 162.118 218.784C161.076 219.747 160.164 220.496 160 220.496C159.626 220.496 156.26 224.87 155.298 226.615C154.306 228.407 154.386 228.903 155.714 228.743C156.546 228.664 157.214 228.075 158.084 226.75C158.794 225.707 160.08 224.21 160.992 223.419C161.904 222.628 163.526 221.169 164.568 220.256C167.022 217.968 171.804 215.172 176.213 213.43C178.167 212.682 182.285 210.848 185.365 209.389C188.446 207.929 193.594 205.894 196.796 204.851C199.779 203.879 202.763 202.916 205.738 201.936C207.541 201.343 209.319 200.536 211.222 200.317C213.366 200.069 214.248 200.771 215.933 201.936C218.955 204.022 222.203 205.772 225.607 207.147C227.666 207.98 230.049 208.329 232.041 209.25C233.743 210.036 233.726 212.03 232.932 213.573C232.142 215.108 230.734 216.008 229.692 217.304C228.481 218.805 226.847 219.869 225.313 221.009C221.943 223.52 218.303 225.812 214.588 227.789C209.004 230.779 202.872 232.764 196.993 235.044C188.093 238.497 184.689 239.834 184.395 240.078C184.231 240.242 184.689 240.616 185.437 240.869C188.143 241.874 192.043 243.947 193.211 245.032C194.619 246.37 195.329 248.569 195.329 251.778C195.329 253.814 195.165 254.239 194.043 255.315C192.879 256.438 192.505 256.522 189.059 256.653C187.021 256.733 184.773 256.611 184.071 256.358C182.907 255.942 182.823 255.984 183.079 256.653C183.243 257.027 183.495 257.86 183.617 258.487C184.075 261.271 182.747 262.57 179.289 262.57C178.205 262.57 176.956 262.865 176.339 263.281C175.297 263.992 173.927 264.152 167.816 264.366C166.984 264.366 165.404 263.992 164.278 263.538C163.194 263.041 161.408 262.495 160.366 262.373C158.411 262.12 158.168 261.998 152.755 257.872L149.553 255.463L148.225 256.464C147.477 257.052 145.317 258.255 143.359 259.21C139.366 261.123 136.122 263.037 133.416 264.993C130.012 267.495 126.222 267.617 123.847 265.329C123.221 264.753 122.305 264.244 121.851 264.244C121.355 264.244 120.431 263.79 119.775 263.239C119.149 262.701 117.901 262.154 117.069 261.994C115.648 261.742 113.409 259.786 113.409 258.836C113.409 258.621 112.829 257.915 112.16 257.254C110.324 255.421 110.496 252.262 112.534 250.588C113.072 250.134 113.072 249.999 112.656 249.797C112.32 249.675 111.45 249.007 110.66 248.338C108.706 246.626 108.462 244.923 109.79 242.046L110.833 239.758L107.336 238.635C105.42 238.009 102.592 236.68 101.054 235.637C99.5114 234.594 94.7712 232.011 90.5352 229.892C80.9287 225.017 76.8524 222.355 70.074 216.437C65.9977 212.9 65.3716 211.685 65.7456 208.03C65.8885 206.411 65.9809 202.449 67.5274 200.981L67.5484 200.96L67.5736 200.931ZM155.285 254.083C160.361 258.045 160.941 258.369 162.521 258.369C163.433 258.369 164.892 258.823 166.018 259.454L167.972 260.539L168.59 259.668C169.342 258.625 171.296 258.503 172.086 259.416C172.796 260.287 173.586 260.207 174.994 259.164C175.948 258.415 176.536 258.331 177.86 258.537C178.814 258.659 179.562 258.751 179.562 258.659C179.562 258.566 178.57 257.452 177.322 256.077C174.574 253.12 174.242 252.115 175.368 250.281C176.826 247.951 177.738 247.324 178.944 247.871C179.524 248.124 179.986 248.582 179.986 248.872C179.986 249.162 181.15 250.159 182.562 251.08C184.932 252.582 185.391 252.75 187.761 252.699C190.921 252.657 191.421 252.283 191.043 250.239C190.669 248.363 190.089 247.867 185.264 245.154C182.6 243.653 181.394 242.782 181.31 242.156C181.146 241.113 179.89 240.991 178.23 241.861C177.238 242.4 174.691 242.774 167.375 243.565C165.379 243.779 164.883 244.019 164.627 244.772C164.047 246.231 159.012 250.353 156.226 251.64L153.692 252.805L155.272 254.049V254.091L155.285 254.083ZM118.313 246.546C121.435 246.963 124.129 249.961 122.469 251.164C122.217 251.379 120.847 251.875 119.477 252.287C118.107 252.704 116.527 253.25 115.98 253.452L114.938 253.827L116.224 254.617C117.094 255.156 117.594 255.782 117.682 256.573C117.762 257.443 118.019 257.696 118.636 257.658C120.216 257.443 121.624 257.99 122.133 258.945C122.629 259.816 122.801 259.858 124.251 259.441C125.621 259.105 125.995 259.147 126.743 259.816C127.201 260.232 127.575 261.023 127.575 261.569C127.575 262.865 128.701 262.814 130.525 261.489C131.315 260.951 132.773 259.992 133.807 259.361C134.849 258.735 136.341 257.822 137.131 257.284C137.921 256.787 139.879 255.744 141.501 254.996C145.283 253.284 144.956 253.456 147.784 251.168C149.154 250.083 152.07 248.25 154.268 247.127C156.466 245.962 158.424 244.839 158.596 244.582C158.718 244.33 159.307 243.956 159.882 243.754C160.605 243.476 159.954 242.311 157.928 240.259C155.1 237.302 154.94 237.046 155.1 235.468C155.222 233.887 155.222 233.849 153.772 233.677C152.982 233.597 152.314 233.504 152.314 233.462C152.272 233.42 151.272 233.757 150.024 234.173C147.195 235.178 140.123 236.259 133.807 236.676C129.197 236.97 128.94 237.05 126.074 238.711C123.877 239.998 122.456 240.503 120.67 240.705C119.3 240.827 117.59 241.121 116.888 241.373C115.518 241.79 113.858 243.459 113.858 244.452C113.858 245.243 115.976 246.244 118.309 246.538V246.551L118.313 246.546Z" fill="#F15928"/>
<path d="M191.812 185.341C189.715 183.225 189.807 180.752 190.598 178.128C190.69 177.813 190.404 177.388 190.303 177.013C189.177 176.437 188.055 175.857 186.937 175.281C183.693 178.279 183.361 178.216 181.029 174.267C180.432 173.262 180.209 172.152 179.987 171.037C176.368 168.699 172.893 166.175 169.842 163.118C168.787 162.945 168.657 163.828 168.485 164.455C167.804 166.945 166.964 169.43 167.3 172.084C167.422 173.005 167.228 173.847 166.783 174.759C166.753 173.544 166.863 172.328 165.434 171.891C164.085 172.774 164.35 174.313 163.934 175.567C163.408 177.186 162.891 178.565 160.631 178.199C159.252 177.977 158.29 179.049 157.66 180.264C157.538 180.862 157.718 181.4 158.013 181.905C160.282 185.673 162.412 189.534 164.846 193.201C166.144 193.294 166.102 194.051 165.921 195.077C165.699 196.314 165.203 198.307 166.653 198.463C168.426 198.656 167.749 196.549 167.972 195.405C168.308 193.643 168.569 191.868 168.876 190.098C169.149 188.495 169.809 187.637 171.519 188.579C172.027 188.861 172.595 188.924 173.141 189.067C174.814 189.521 175.683 190.678 175.2 192.36C173.973 196.583 172.859 200.831 172.107 205.167C172.006 205.755 171.821 206.634 170.96 206.445C170.313 206.302 170.435 205.524 170.422 204.965C170.414 204.389 170.586 203.842 170.636 203.274C170.729 202.261 171.204 200.784 169.939 200.57C168.884 200.389 168.783 201.886 168.611 202.828C168.43 203.871 168.224 204.914 168.065 205.957C167.922 206.828 167.842 207.741 167.022 208.51C166.363 207.85 166.564 206.992 166.392 206.26C166.27 205.713 166.291 205.003 165.602 204.893C164.841 204.771 164.446 205.411 164.173 206.008C163.463 207.509 163.291 209.137 163.068 210.748C162.593 212.451 162.316 214.192 161.992 215.925C161.82 216.859 161.597 217.839 162.417 218.629C167.96 213.536 174.507 210.243 181.562 207.829C181.798 207.051 182.037 206.277 182.079 205.457C182.121 204.401 182.516 203.745 183.722 203.926C184.563 204.048 185.092 203.489 185.567 202.933C186.214 202.193 186.429 201.466 185.181 201.15C183.744 200.776 183.487 199.762 183.744 198.517C184.008 197.239 184.097 195.943 184.29 194.657C184.576 192.743 186.093 192.074 187.463 191.233C188.181 190.796 188.488 191.355 188.698 191.923C189.215 193.29 189.093 194.606 188.454 195.935C187.534 197.84 187.45 199.834 188.089 201.861C188.786 202.479 189.488 203.068 190.219 201.903C190.745 196.381 191.274 190.863 191.812 185.332" fill="#EA421B"/>
<path d="M130.424 213.026C131.458 210.889 130.933 208.509 131.479 206.288C132.076 203.836 133.749 201.708 133.505 198.975C133.454 198.419 134.518 197.759 135.35 196.825C135.673 198.811 136.009 200.363 135.106 201.86C134.82 202.335 134.581 202.76 135.055 203.239C135.665 203.858 136.11 203.332 136.614 203.016C138.001 202.154 138.207 200.615 138.674 199.29C139.149 197.923 139.363 196.464 139.649 195.034C139.821 194.184 140.006 193.272 139.203 192.645C138.333 191.947 137.594 192.674 136.833 193.019C136.53 193.162 136.253 193.356 135.951 193.537C134.896 190.445 134.349 190.243 131.744 191.997C131.773 189.861 132.563 187.914 133.215 186.029C134.228 183.111 133.396 179.788 135.497 177.105C136.114 176.314 135.547 175.069 134.534 174.451C133.408 173.761 132.69 174.602 132.164 175.343C130.672 177.42 129.924 179.788 129.954 182.341C129.983 184.255 129.903 186.13 129.042 187.88C128.727 188.519 128.962 189.987 127.521 189.066C126.689 188.54 125.575 188.376 126.394 186.606C128.857 181.34 130.366 175.696 131.916 170.102C132.383 168.433 132.412 166.292 129.382 166.687C128.462 166.809 127.752 165.774 127.042 165.27C124.629 163.537 122.053 164.248 119.511 164.298C118.851 168.563 119.217 172.87 119.108 177.155C118.885 185.403 119.108 193.659 117.628 201.822C117.536 202.318 117.326 202.835 117.901 203.197C122.402 206.053 125.97 210.095 130.42 213.022H130.429L130.424 213.026Z" fill="#E42D10"/>
<path d="M147.347 205.419C147.347 205.499 147.326 205.583 147.318 205.663C147.15 208.026 145.985 208.981 143.821 208.531C143.384 209.481 143.212 210.537 142.413 211.328C141.918 211.824 141.216 212.556 141.838 213.22C142.535 213.982 143.33 213.25 143.985 212.833C144.805 212.308 145.595 211.731 146.469 211.294C146.956 211.05 147.511 210.617 148.019 211.122C148.393 211.496 148.162 212.064 148.04 212.518C147.288 215.264 146.662 218.04 146.086 220.833C145.855 221.956 145.691 223.07 145.771 224.218L149.847 230.073C151.297 229.526 152.978 229.505 154.054 228.138C155.39 225.917 156.853 223.794 158.542 221.825C158.584 219.108 159.273 216.505 159.983 213.914C159.425 213.317 159.387 212.556 159.538 211.87C160.492 207.526 159.832 203.017 160.925 198.689C159.748 195.804 157.479 193.706 155.563 191.355C155.42 191.174 155.117 191.304 154.915 191.456C153.537 193.722 154.478 196.54 153.256 199.144C151.755 196.216 152.953 193.441 152.73 190.736C152.444 189.033 151.411 188.003 149.852 187.393C146.75 186.186 144.754 187.313 144.208 190.593C144.128 191.081 144.128 191.565 144.036 192.053C143.956 193.239 144.38 194.29 144.905 195.304C147.326 199.985 149.356 204.817 150.705 209.616C149.692 208.371 149.469 206.18 147.372 205.41H147.364L147.347 205.419Z" fill="#E73615"/>
<path d="M144.926 186.765C145.069 186.483 145.313 186.205 145.33 185.923C145.409 184.081 145.594 182.235 147.885 181.903C149.982 181.6 151.969 183.097 152.717 185.305C153.692 185.549 154.276 184.939 154.835 184.304C155.201 183.19 154.419 182.462 153.923 181.65C150.406 175.977 147.275 170.093 144.145 164.197C143.88 163.7 143.628 163.196 143.922 162.577C145.372 162.556 145.565 164.44 146.91 164.44C147.729 164.26 148.023 163.549 148.389 162.922C148.683 162.434 148.914 161.9 149.33 161.505C150.406 160.47 151.7 159.255 153.142 159.865C154.743 160.542 154.104 162.325 153.759 163.583C152.969 166.459 152.869 169.572 150.973 172.091C151.116 173.399 151.511 174.543 152.818 175.131C153.823 174.829 153.759 173.895 153.944 173.138C154.571 170.606 155.365 168.125 155.97 165.58C156.415 163.704 157.449 162.157 158.634 160.689C158.949 160.235 158.937 159.604 159.525 159.036C160.315 160.201 161.341 161.093 162.858 160.706C163.727 160.483 164.572 160.1 164.4 158.923C163.265 157.779 162.068 156.685 161.017 155.478C160.063 154.385 158.958 154.788 157.886 154.952C152.919 155.701 147.943 155.945 142.947 155.306C142.228 155.823 142.014 156.614 141.913 157.404C141.375 161.231 140.938 165.071 139.047 168.545C138.812 168.962 138.866 169.487 138.833 169.963C139.047 173.853 140.232 177.449 142.027 180.872C144.044 181.713 144.569 183.244 144.052 185.267C144.124 185.894 144.334 186.453 144.943 186.756L144.922 186.765H144.926Z" fill="#EA421B"/>
<path d="M187.643 203.177C187.614 200.838 187.429 198.508 188.778 196.338C189.702 194.858 188.698 193.36 188.269 191.922C188.139 191.455 187.589 190.829 186.95 191.405C185.319 192.894 182.643 193.533 182.773 196.498C182.823 197.713 182.508 198.899 182.315 200.094C182.012 201.97 182.601 203.324 185.475 202.992C184.147 203.732 183.945 205.364 182.294 204.287C181.668 203.883 180.844 204.489 180.886 205.158C180.978 206.482 180.067 207.79 180.844 209.098C182.769 208.249 184.697 207.395 186.622 206.554C187.341 205.54 187.748 204.438 187.635 203.181V203.172L187.643 203.177Z" fill="#E3290F"/>
<path d="M164.266 197.595C162.745 202.183 163.485 207.007 162.808 211.676C162.707 212.395 162.737 213.186 163.77 213.295C163.762 211.331 164.073 209.455 165.485 207.348C166.002 209.283 165.241 211.179 166.863 212.525C169.477 210.035 168.384 206.305 169.822 203.125C170.591 205.161 169.355 206.742 169.628 208.404C169.759 209.236 169.721 210.157 170.784 210.246C171.717 210.326 172.284 209.627 172.507 208.799C172.843 207.554 173.217 206.275 173.267 204.989C173.419 201.443 175.121 198.322 175.843 194.941C176.339 192.582 175.091 190.95 172.784 191.072C172.196 191.101 171.931 190.706 171.536 190.445C169.712 189.251 168.477 189.806 168.191 191.984C167.804 194.903 167.014 197.759 166.863 200.728C165.758 199.382 166.447 198.045 166.649 196.686C166.741 196.098 167.014 195.269 166.283 194.916C165.687 194.634 165.342 195.412 164.846 195.627C164.228 196.144 164.926 197.065 164.258 197.57L164.27 197.599L164.266 197.595Z" fill="#E2290E"/>
<path d="M131.063 195.285C129.979 196.076 130.383 197.918 128.487 197.931C127.718 197.931 127.819 199.441 128.244 199.979C128.668 200.517 129.908 200.252 130.13 199.777C130.761 198.452 132.328 197.254 131.072 195.298L131.063 195.289V195.285Z" fill="#EA411B"/>
<path d="M158.114 214.365C159.139 214.184 160.139 214.588 160.303 213.351C160.417 212.518 160.173 212.022 159.227 211.791C157.841 211.437 158.252 210.129 158.446 209.339C159.063 206.664 159.946 204.052 161.438 201.701C161.761 201.196 162.665 200.688 161.892 200.12C161.16 199.581 159.744 199.888 159.572 200.545C158.832 203.341 156.765 205.781 157.504 209.002C157.778 210.188 157.425 211.576 157.118 212.813C156.794 214.1 156.887 214.739 158.109 214.373V214.365H158.114Z" fill="#EF5928"/>
<path d="M139.392 170.278C139.161 168.508 140.547 167.309 141.035 165.782C142.119 162.359 142.241 158.784 142.951 155.31C138.888 154.174 134.824 153.073 130.769 151.887C129.685 151.571 128.693 150.995 127.647 150.528C126.046 152.269 125.722 157.03 127.201 159.726C127.626 157.447 129.605 158.368 130.84 157.699C131.782 157.194 131.58 158.376 131.651 158.923C131.794 159.894 131.681 161.11 133.294 160.37C134.408 159.865 133.984 160.786 134.114 161.211C134.467 162.435 134.702 163.692 136.526 162.657C137.551 162.069 137.56 162.931 137.345 163.6C136.879 165.059 136.887 166.468 137.64 167.835C139.127 167.999 137.955 170.093 139.404 170.274H139.396L139.392 170.278Z" fill="#E73514"/>
<path d="M145.271 223.441C146.347 219.155 147.418 214.861 148.515 210.584C148.645 210.079 148.759 209.57 148.162 209.347C147.544 209.116 146.885 209.145 146.288 209.52C144.767 210.491 143.237 211.454 141.485 212.569C141.787 210.554 144.838 210.045 143.338 207.736C143.086 205.65 142.569 205.415 140.905 206.542C139.182 207.707 139.01 209.7 138.573 211.383C138.106 213.195 137.682 215.13 137.934 217.086C140.682 218.848 143.233 220.833 145.271 223.428V223.436V223.441Z" fill="#E32A0F"/>
<path fill-rule="evenodd" clip-rule="evenodd" d="M92.275 187.368C91.943 184.907 91.2916 182.527 90.7033 180.117C90.6739 180.016 90.6319 179.915 90.594 179.814C94.6787 177.606 99.503 174.839 102.037 172.307C105.828 168.518 108.067 161.498 109.16 156.422C109.828 153.301 113.152 140.306 113.762 140.213C114.186 140.154 120.725 144.608 123.053 147.253L124.322 149.827C128.02 150.711 125.873 153.402 124.545 156.552C123.158 159.845 123.297 165.893 120.725 167.42C118.708 168.614 115.749 176.172 114.686 178.22C111.139 185.067 108.979 179.032 106.874 186.384C106.256 188.562 101.663 191.805 101.482 191.632C100.003 190.223 97.9565 192.158 96.4269 190.812C95.7881 190.245 94.3594 189.517 92.6868 188.714C92.5565 188.259 92.4136 187.814 92.2708 187.355L92.2792 187.364L92.275 187.368Z" fill="#EA411B"/>
<path d="M155.366 228.971C155.416 229.74 152.407 229.265 154.576 230.977C154.962 231.28 154.117 231.755 153.714 231.919C151.747 232.68 153.197 233.134 153.844 233.673C152.869 234.93 152.974 236.369 153.651 237.563C154.865 239.691 156.277 241.756 158.891 242.454C160.606 243.283 162.447 242.728 164.22 242.98C167.708 244.498 171.103 243.195 174.457 242.505C175.764 242.231 177.407 242.311 178.369 240.957C179.13 240.461 180 240.217 180.538 239.296C181.744 237.197 183.458 237.109 185.362 238.425C192.485 235.62 199.805 233.29 206.769 230.068C206.474 228.033 205.197 226.359 204.6 224.424C204.247 223.289 204.033 222.359 204.71 221.274C205.886 219.398 205.571 217.8 203.798 216.341C202.377 215.167 201.65 213.473 201.377 211.639C201.213 210.604 201.163 209.481 202.318 208.964C203.524 208.417 204.222 209.288 204.852 210.137C205.584 211.109 206.067 212.202 206.432 213.346C206.87 214.692 207.647 215.798 208.752 216.66C209.21 217.014 209.714 217.51 210.345 217.106C210.912 216.74 210.904 216.084 210.853 215.474C210.761 214.322 210.072 213.418 209.517 212.455C208.664 211.004 207.571 210.671 209.08 209.061C209.467 208.657 209.841 208.098 209.626 207.58C209.425 207.105 208.815 206.962 208.441 206.596C208.155 206.323 208.017 205.936 207.853 205.583C207.437 204.64 206.832 203.791 206.088 203.072C205.979 202.971 205.857 202.857 205.701 202.849C205.479 202.828 205.298 203.03 205.243 203.253C205.193 203.475 205.264 203.69 205.323 203.9C205.445 204.317 206.214 206.079 205.92 206.411C205.466 206.928 204.26 206.087 203.945 205.772C203.197 204.973 202.608 204.018 201.633 203.442C193.909 205.995 186.097 208.333 178.869 212.215C178.05 212.652 177.226 213.086 176.407 213.51C175.646 214.877 176.73 215.718 177.319 216.753C177.298 216.896 177.298 216.816 177.138 216.589C176.398 215.525 175.528 214.187 174.1 215.008C172.73 215.798 173.36 217.308 173.755 218.503C174.516 220.782 175.743 222.839 176.999 225.076C175.743 223.049 174.73 221.055 173.15 219.474C172.339 218.675 171.519 217.38 170.158 218.208C168.75 219.07 169.216 220.408 169.822 221.611C170.015 221.985 170.137 222.401 170.217 222.502C169.607 221.59 169.284 220.202 168.586 219.007C168.25 218.431 168.233 217.396 167.107 217.649C162.425 220.618 157.984 223.848 155.361 228.954L155.366 228.971Z" fill="#E9401A"/>
<path d="M127.697 215.637C125.924 217.025 126.054 219.284 125.243 221.109C124.583 222.577 124.087 224.15 123.701 225.719C123.327 227.258 122.007 227.38 121.137 227.077C119.868 226.644 120.936 225.647 121.23 224.97C121.94 223.33 122.781 221.74 123.512 220.1C123.907 219.229 124.209 218.287 123.117 217.639C121.881 216.891 121.343 218.035 120.885 218.695C118.015 222.85 115.717 227.325 113.758 231.977C113.199 233.306 112.674 234.673 112.288 236.061C112.006 237.083 112.309 237.659 113.607 237.297C115.611 236.729 117.175 235.829 117.7 233.588C118.116 231.867 118.914 230.286 120.377 228.33C120.146 230.782 119.78 232.545 119.15 234.256C118.935 234.824 118.713 235.442 119.213 235.939C119.759 236.485 120.326 236.04 120.856 235.796C121.869 235.341 122.923 234.896 123.268 233.68C124.718 228.696 127.432 224.179 128.668 219.111C128.891 218.199 129.328 217.341 129.176 216.365C128.689 216.121 128.193 215.877 127.706 215.646H127.697V215.637Z" fill="#E73A16"/>
<path d="M133.799 219.275C132.378 219.103 131.458 219.986 130.95 221.05C129.449 224.171 128.76 227.523 128.71 230.988C128.71 231.232 128.76 231.527 128.891 231.708C129.571 232.65 134.404 231.888 134.849 230.765C135.61 228.873 136.32 226.955 137.089 225.071C137.371 224.381 137.543 223.704 136.854 223.237C136.013 222.678 135.677 223.41 135.295 223.986C135.081 224.318 134.87 224.814 134.333 224.512C133.895 224.268 133.887 223.822 134.059 223.397C134.568 222.161 134.19 220.857 134.404 219.599C134.202 219.498 134.001 219.385 133.786 219.275H133.795H133.799Z" fill="#E73B17"/>
<path d="M95.2842 232.121C95.5784 231.502 95.9019 230.897 95.7296 230.165C94.3723 224.159 97.503 219.024 98.9612 213.561C102.399 211.929 102.327 208.001 104.323 205.427C105.134 204.384 105.954 203.139 107.605 203.32C107.341 203.105 107.089 202.731 106.815 202.722C104.95 202.63 103.168 203.046 102.071 200.544C101.634 199.551 100.012 201.213 99.4949 202.184C98.0745 204.817 97.0534 207.635 96.2927 210.533C97.5408 211.87 97.7215 213.329 96.9819 215.012C95.7759 217.758 95.1371 220.723 93.7167 223.377C92.9477 224.815 91.7122 225.888 90.2708 227.023C89.4303 225.736 89.8673 224.592 90.0396 223.478C90.1321 222.91 90.5355 222.241 89.9262 221.817C89.2076 221.312 88.6697 221.947 88.1234 222.342C86.3584 223.436 84.8414 224.702 84.9002 227.053C88.2242 229.029 91.7122 230.649 95.2674 232.146L95.2758 232.116L95.2842 232.121Z" fill="#EC4D22"/>
<path d="M101.983 236.175C103.807 233.643 104.193 230.531 105.366 227.726C107.362 222.944 110.291 218.65 112.329 213.91C112.665 213.14 112.955 212.35 113.262 211.559C112.199 210.831 113.392 208.59 111.53 208.59C109.669 208.59 109.492 210.423 108.854 211.647C105.551 217.977 102.508 224.42 100.453 231.288C100.117 232.382 99.4489 233.244 98.8816 234.173C99.8061 235.014 100.777 235.763 101.983 236.167V236.175Z" fill="#EC4C21"/>
<path d="M150.894 186.635C150.369 185.735 149.839 184.831 149.301 183.931C148.835 183.111 148.368 182.291 147.902 181.458C147.07 178.884 145.986 176.453 144.082 174.468C143.738 174.014 143.435 173.539 143.048 173.11C142.532 172.542 142.023 171.722 141.111 172.327C140.22 172.925 140.657 173.694 141.061 174.405C143.603 178.956 146.179 183.494 148.684 188.061C149.432 189.42 150.621 190.522 151.016 192.082C150.965 192.721 151.197 193.184 151.835 193.377C153.336 195.434 154.684 197.621 156.559 199.383C157.214 199.442 157.386 198.874 157.076 197.671C155.819 194.42 153.722 191.644 152.008 188.646C151.621 187.977 151.26 187.287 150.881 186.619L150.89 186.627L150.894 186.635Z" fill="#010000"/>
<path d="M137.577 179.789C137.426 179.062 137.312 178.33 137.11 177.623C136.736 176.307 136.379 177.228 136.026 177.653C135.245 182.88 136.808 187.692 138.711 192.423C140.548 196.991 142.767 201.377 145.044 205.734C146.179 207.417 147.326 209.099 148.776 211.223C147.721 204.759 144.62 199.686 142.43 194.265C142.258 193.862 142.086 193.454 141.914 193.05C141.733 191.582 141.397 190.181 140.292 189.101C138.985 186.11 137.98 183.044 137.577 179.789Z" fill="#020000"/>
<path d="M78.341 188.207C83.1736 188.207 86.4177 187.307 91.2041 184.632L89.229 181.095C85.0352 183.446 82.4886 184.153 78.3452 184.153V188.207H78.341Z" fill="#ED5A29"/>
<path d="M71.6711 180.293H119.742V184.153H71.6711V180.293Z" fill="#505763"/>
<path fill-rule="evenodd" clip-rule="evenodd" d="M92.204 178.248C92.9647 181.511 90.9265 184.153 87.6655 184.153H19.6716C16.4063 184.153 13.1453 181.507 12.3847 178.248L1.91666 133.272C1.15604 130.008 3.19417 127.367 6.45519 127.367H74.4491C77.7144 127.367 80.9754 130.012 81.736 133.272L92.2167 178.248H92.2083H92.204Z" fill="#8F97A4"/>
<path fill-rule="evenodd" clip-rule="evenodd" d="M38.8218 157.198C39.906 161.341 43.251 164.058 46.2934 163.267C49.3232 162.476 50.9159 158.464 49.8191 154.321C48.7349 150.179 45.3899 147.462 42.3475 148.252C39.3092 149.043 37.7376 153.055 38.8218 157.198Z" fill="white"/>
<path fill-rule="evenodd" clip-rule="evenodd" d="M77.2856 197.103C73.0706 197.103 68.8347 196.405 64.8719 195.059C57.2992 192.498 50.9873 187.594 43.2256 185.466C39.3636 184.415 35.3084 184.091 31.3287 184.503C30.3034 184.612 28.6351 184.583 27.6307 184.373C26.7188 184.179 25.7438 183.645 25.4917 182.669C24.8109 180.045 27.845 179.612 29.7487 179.578C31.0178 179.557 32.2827 179.679 33.5392 179.83C34.552 179.952 36.0732 180.44 36.8632 179.557C36.9431 179.464 37.0145 179.376 37.0649 179.263C37.3171 178.787 37.3171 178.198 37.1574 177.694C36.7414 176.386 35.8589 175.254 35.4428 173.913C34.9259 172.231 34.7032 170.468 34.7831 168.715C34.8461 167.55 35.5017 166.141 36.8927 166.952C37.6113 167.369 37.6953 168.26 37.8844 168.988C38.8467 172.647 41.1874 175.898 44.2678 178.077C45.4318 178.905 46.9153 177.61 46.3059 176.314C43.8517 171.15 42.4565 165.274 42.0069 159.693C41.9481 158.945 41.9859 158.032 42.6457 157.666C43.1836 157.363 43.9022 157.624 44.3056 158.091C44.7132 158.558 44.8939 159.176 45.0662 159.761C46.6379 165.018 49.0794 170.023 52.2438 174.51C52.7187 175.179 53.7525 174.725 53.6138 173.913C53.1263 171.288 53.1389 168.597 53.3406 165.838C53.4121 164.803 53.8071 163.516 54.8409 163.436C55.7234 163.365 56.3411 164.277 56.6731 165.098C57.6775 167.571 57.9506 170.262 58.7406 172.807C60.0182 176.891 62.695 180.516 66.2208 182.947C69.7466 185.369 74.0162 186.156 78.395 186.156" fill="white"/>
<path d="M77.2726 199.127V195.077C73.2299 195.077 69.2755 194.417 65.5144 193.142C62.1904 192.019 59.1479 190.43 55.9163 188.756C52.1048 186.771 48.163 184.722 43.7421 183.52C39.6364 182.397 35.3794 182.052 31.1056 182.498C30.1727 182.599 28.7355 182.548 28.0463 182.397C27.6807 182.317 27.4664 182.174 27.4202 182.115V182.043C27.6429 181.9 28.3405 181.64 29.7693 181.619C30.9754 181.61 32.2235 181.732 33.2866 181.85C33.4379 181.871 33.6102 181.9 33.7951 181.93C34.9004 182.123 36.9679 182.468 38.3673 180.929C38.548 180.727 38.7203 180.491 38.8548 180.239C39.3506 179.318 39.4347 178.174 39.0859 177.097C38.8211 176.277 38.4471 175.55 38.1025 174.91C37.8084 174.351 37.5352 173.825 37.3713 173.329C37.3503 173.249 37.3209 173.178 37.2999 173.098C38.6362 175.71 40.624 178.002 43.0991 179.755C44.3767 180.668 46.0366 180.597 47.2426 179.583C48.4571 178.561 48.8227 176.908 48.1335 175.47C46.6627 172.37 45.5197 168.816 44.7885 165.107C46.3097 168.846 48.2428 172.391 50.5751 175.701C51.3357 176.774 52.7141 177.169 53.9286 176.664C55.1556 176.147 55.8322 174.873 55.5927 173.565C55.2565 171.752 55.1473 169.775 55.2775 167.285C55.5423 168.169 55.744 169.09 55.9583 170.053C56.202 171.159 56.4542 172.311 56.8114 173.447C58.2318 177.976 61.1692 181.955 65.0816 184.651C68.578 187.052 72.9358 188.226 78.4072 188.226V184.171C73.7846 184.171 70.179 183.238 67.3803 181.316C64.2075 179.137 61.8248 175.916 60.6817 172.24C60.3792 171.268 60.1564 170.255 59.9211 169.182C59.5765 167.601 59.2109 165.973 58.5638 164.371C57.7611 162.415 56.3239 161.322 54.6934 161.452C52.7981 161.603 51.5122 163.235 51.3273 165.729C51.2349 166.924 51.1971 168.03 51.1844 169.052C49.4405 165.931 48.0411 162.638 47.0199 159.215C46.8056 158.495 46.5324 157.574 45.8348 156.784C44.7422 155.539 42.9857 155.181 41.6577 155.934C40.7878 156.422 39.8045 157.503 39.9978 159.896C40.4138 165.094 41.5695 170.137 43.3723 174.667C41.6997 172.925 40.4643 170.776 39.8633 168.509C39.8339 168.408 39.8129 168.307 39.7919 168.194C39.5986 167.382 39.2834 166.015 37.9261 165.225C36.4552 164.383 35.2828 164.77 34.7028 165.082C33.5766 165.7 32.858 167.025 32.7782 168.648C32.6773 170.633 32.9294 172.618 33.5178 174.545C33.7825 175.407 34.1776 176.155 34.5306 176.824C34.7533 177.261 34.976 177.665 35.1273 178.061C34.9046 178.031 34.6524 177.989 34.4801 177.96C34.2364 177.918 34.0052 177.88 33.7825 177.859C32.5849 177.716 31.1687 177.577 29.7189 177.594C27.0336 177.636 25.1593 178.321 24.1423 179.65C23.617 180.34 23.0876 181.513 23.5246 183.204C23.928 184.786 25.3064 185.967 27.2017 186.375C28.4582 186.64 30.3744 186.657 31.5385 186.535C35.2702 186.152 39.1195 186.455 42.6873 187.435C46.6795 188.529 50.2599 190.392 54.0504 192.36C57.2736 194.03 60.5977 195.762 64.2159 196.991C68.3931 198.408 72.7887 199.127 77.281 199.14H77.2726V199.127Z" fill="#ED5A29"/>
<path fill-rule="evenodd" clip-rule="evenodd" d="M93.4517 193.466C88.5266 195.918 82.7191 197.112 77.0923 197.104L93.4517 193.466Z" fill="white"/>
<path d="M77.1723 199.126C83.2655 199.126 89.363 197.759 94.3511 195.278L92.5483 191.652C88.1107 193.86 82.6562 195.076 77.1849 195.076H77.105V199.13H77.1849H77.1765L77.1723 199.126Z" fill="#ED5A29"/>
<path d="M236.622 206.117C241.001 206.117 245.01 204.607 247.926 201.848C250.935 199.014 252.561 195.094 252.519 190.804C252.507 189.627 252.406 188.47 252.318 187.351C252.284 186.905 252.238 186.46 252.217 186.022C252.137 184.853 251.069 183.94 249.826 184.046C248.59 184.121 247.649 185.139 247.737 186.308C247.771 186.767 247.804 187.233 247.85 187.688C247.939 188.781 248.031 189.824 248.04 190.855C248.073 193.996 246.905 196.835 244.762 198.854C242.652 200.839 239.677 201.933 236.466 201.882C230.865 201.819 224.477 199.279 219.38 195.086C213.139 189.955 208.668 183.242 204.268 176.244C203.738 175.403 203.226 174.532 202.709 173.662C201.015 170.806 199.25 167.853 196.792 165.376C195.939 164.527 194.523 164.485 193.615 165.292C192.716 166.1 192.674 167.437 193.527 168.299C195.615 170.389 197.233 173.119 198.792 175.756C199.33 176.66 199.86 177.552 200.41 178.431C204.823 185.45 209.693 192.768 216.442 198.311C222.414 203.207 229.692 206.063 236.428 206.151H236.643L236.63 206.117H236.622Z" fill="#ED5A29"/>
<path d="M257.549 190.547C258.785 190.547 259.793 189.593 259.793 188.423C259.793 187.254 258.785 186.3 257.549 186.3C255.789 186.3 254.125 185.757 252.734 184.727C251.759 184.003 250.343 184.163 249.578 185.076C248.813 186.001 248.981 187.326 249.948 188.062C252.124 189.685 254.751 190.547 257.537 190.547H257.549Z" fill="black"/>
<path d="M245.266 169.307C246.501 169.307 247.51 168.353 247.51 167.184C247.51 163.117 251.002 159.815 255.301 159.815C256.536 159.815 257.545 158.86 257.545 157.691C257.545 156.522 256.536 155.567 255.301 155.567C248.531 155.567 243.018 160.782 243.018 167.188C243.018 168.357 244.026 169.312 245.262 169.312L245.266 169.307Z" fill="black"/>
<path d="M262.378 159.352C260.995 159.095 259.55 159.617 258.222 160.126C256.717 160.71 255.213 161.282 253.696 161.867C251.977 162.527 250.25 163.196 248.531 163.852C246.497 164.638 244.442 165.425 242.627 166.603C242.055 166.973 241.492 167.41 241.257 168.024C240.559 169.917 242.808 170.829 244.211 171.401C245.863 172.083 247.031 172.062 248.838 171.645C252.801 170.72 256.36 168.567 259.617 166.312C261.605 164.941 263.66 163.192 263.84 160.862C263.861 160.618 263.853 160.374 263.752 160.151C263.584 159.781 263.168 159.545 262.752 159.428C262.63 159.394 262.504 159.364 262.382 159.343L262.378 159.352Z" fill="white"/>
<path d="M246.716 174.076C247.59 174.076 248.456 173.937 249.376 173.727C253.801 172.697 257.705 170.274 260.941 168.045C263.198 166.485 265.824 164.277 266.072 161.034C266.106 160.622 266.118 160.004 265.816 159.335C265.412 158.431 264.559 157.754 263.412 157.422C263.21 157.358 263.009 157.316 262.794 157.274C260.685 156.892 258.697 157.657 257.373 158.166L247.683 161.892C245.56 162.708 243.371 163.549 241.35 164.857C240.551 165.379 239.576 166.123 239.127 167.343C237.757 171.082 241.913 172.789 243.278 173.353C244.548 173.874 245.636 174.076 246.703 174.076H246.716ZM261.424 161.417C260.928 162.658 259.537 163.751 258.302 164.601C255.427 166.586 251.982 168.731 248.309 169.58C246.85 169.921 246.199 169.887 245.119 169.454C244.703 169.286 243.863 168.945 243.48 168.659C243.56 168.596 243.682 168.499 243.896 168.361C245.514 167.309 247.477 166.556 249.376 165.82L259.067 162.094C259.92 161.766 260.752 161.467 261.424 161.413V161.417Z" fill="#ED5A29"/>
<path d="M265.374 178.25C265.051 177.072 264.038 176.134 262.432 176.168C260.638 176.21 258.894 177.274 257.28 177.909C255.427 178.641 253.553 179.343 251.679 180.012C249.972 180.618 248.065 181.043 246.615 182.136C245.144 183.242 245.312 185.248 246.749 186.363C248.187 187.477 250.792 187.233 252.464 187.053C255.339 186.754 258.167 185.736 260.659 184.378C262.218 183.528 263.857 182.51 264.87 181.055C265.467 180.193 265.622 179.146 265.374 178.242V178.254V178.25Z" fill="white"/>
<path d="M250.174 189.327C251.141 189.327 252.036 189.23 252.712 189.167C255.641 188.868 258.785 187.851 261.785 186.227C263.525 185.281 265.479 184.07 266.761 182.223C267.681 180.886 267.975 179.237 267.559 177.719C266.929 175.435 264.92 173.98 262.395 174.043C260.587 174.085 259.003 174.796 257.6 175.435C257.205 175.616 256.814 175.797 256.431 175.944C254.624 176.655 252.771 177.357 250.909 178.013C250.54 178.139 250.157 178.27 249.762 178.396C248.304 178.863 246.653 179.393 245.228 180.465C244.051 181.348 243.362 182.665 243.354 184.078C243.341 185.588 244.06 187.009 245.341 188.006C246.711 189.07 248.552 189.335 250.191 189.335L250.178 189.323L250.174 189.327ZM262.533 178.291C262.861 178.291 263.096 178.375 263.206 178.779C263.306 179.14 263.227 179.574 263.004 179.893C262.252 180.987 260.848 181.836 259.566 182.526C257.095 183.863 254.57 184.692 252.246 184.928C251.426 185.012 248.922 185.268 248.191 184.705C247.934 184.503 247.842 184.259 247.842 184.099C247.842 183.973 247.896 183.876 248.022 183.779C248.829 183.174 249.989 182.804 251.212 182.408C251.637 182.269 252.065 182.131 252.481 181.983C254.402 181.302 256.31 180.591 258.163 179.86C258.612 179.679 259.07 179.468 259.545 179.254C260.579 178.787 261.655 178.299 262.5 178.278H262.546L262.533 178.291Z" fill="#ED5A29"/>
<path d="M266.488 172.378C267.644 170.826 267.845 168.597 265.568 167.756C263.626 167.045 261.277 167.777 259.436 168.467C256.138 169.72 252.847 170.995 249.557 172.248C247.287 173.11 243.358 173.905 243.93 176.963C245.434 184.983 263.298 175.52 265.979 172.938C266.16 172.757 266.328 172.568 266.484 172.366V172.378H266.488Z" fill="white"/>
<path d="M248.434 182.244C255.373 182.244 265.555 176.381 267.576 174.45C267.832 174.194 268.08 173.92 268.316 173.622C269.463 172.091 269.854 170.257 269.358 168.726C268.929 167.376 267.866 166.337 266.362 165.795C263.71 164.828 260.815 165.677 258.592 166.518C256.986 167.124 255.368 167.751 253.763 168.365C252.078 169.012 250.397 169.66 248.712 170.299C248.422 170.417 248.081 170.522 247.745 170.64C245.522 171.393 240.887 172.966 241.706 177.361C242.131 179.644 243.614 181.268 245.871 181.928C246.644 182.151 247.51 182.256 248.43 182.256V182.244H248.434ZM264.655 171.153C264.576 171.258 264.487 171.368 264.387 171.46C262.344 173.424 251.363 179.085 247.22 177.853C246.669 177.693 246.3 177.428 246.14 176.599C246.026 176.015 246.468 175.569 249.271 174.623C249.662 174.484 250.044 174.358 250.384 174.232C252.078 173.597 253.776 172.936 255.461 172.289C257.066 171.675 258.659 171.056 260.264 170.451C261.735 169.9 263.567 169.315 264.744 169.748C264.832 169.782 265.025 169.866 265.059 169.95C265.114 170.144 265.038 170.64 264.643 171.149H264.655V171.153Z" fill="#ED5A29"/>
<path d="M235.172 195.325C235.655 195.325 236.138 195.304 236.643 195.25C240.143 194.93 243.085 193.021 244.488 190.131C246.14 186.767 245.295 182.973 244.308 180.382C243.669 178.713 242.736 177.354 241.748 176.092C242.723 175.827 243.421 174.944 243.366 173.935C243.312 172.98 242.976 172.118 242.681 171.344C242.534 170.961 242.299 170.356 242.278 170.07C242.379 169.994 242.681 169.834 243.413 169.721C243.972 169.637 244.547 169.574 245.131 169.519C247.375 169.296 250.174 169.01 252.124 167.025C253.112 166.028 253.212 165.048 253.112 164.4C253.023 163.807 252.687 162.958 251.595 162.256C250.103 161.301 248.418 161.17 246.959 161.141C246.354 161.128 245.737 161.12 245.131 161.107C242.753 161.086 240.505 161.053 238.429 160.502C238.181 160.439 237.933 160.363 237.689 160.287C236.924 160.064 236.071 159.808 235.109 159.715C234.76 159.682 233.739 159.589 232.819 160.266C232.045 160.83 231.663 161.679 231.671 162.794C231.671 163.294 231.705 163.791 231.739 164.291C232.02 167.816 233.155 171.311 235.016 174.389C235.735 175.579 236.567 176.618 237.361 177.619C238.462 178.999 239.504 180.307 240.089 181.825C240.66 183.335 241.471 186.178 240.412 188.344C239.681 189.841 238.109 190.842 236.201 191.01C229.141 191.645 225.187 185.189 221.695 179.486L221.325 178.872C219.909 176.568 218.505 174.242 217.093 171.916C213.895 166.63 210.571 161.158 207.214 155.934C204.654 151.951 199.906 144.549 192.484 146.854C191.308 147.224 190.665 148.427 191.06 149.542C191.455 150.656 192.72 151.262 193.901 150.892C197.615 149.722 200.624 153.836 203.389 158.134C206.714 163.315 210.012 168.753 213.202 174.023C214.618 176.357 216.03 178.683 217.446 181.001L217.816 181.606C221.376 187.435 226.179 195.308 235.172 195.308V195.33V195.325ZM244.203 165.355C243.686 165.41 243.181 165.473 242.686 165.549C240.618 165.868 239.172 166.684 238.374 167.959C237.924 168.682 237.769 169.414 237.79 170.124C236.97 168.278 236.454 166.31 236.252 164.337C236.285 164.337 236.306 164.358 236.34 164.371C236.63 164.455 236.924 164.539 237.214 164.628C239.551 165.254 241.908 165.351 244.198 165.38V165.359L244.203 165.355Z" fill="#ED5A29"/>
<path d="M292.353 193.634C293.16 192.785 293.576 191.679 293.677 190.543L296.74 155.261C296.74 155.261 298.009 148.57 276.485 148.57C276.485 148.57 254.75 148.57 254.75 155.261L257.579 189.311C257.679 190.531 258.196 191.691 259.07 192.591C261.159 194.707 265.966 197.975 275.754 197.975C275.754 197.975 288.004 198.198 292.357 193.63H292.345L292.353 193.634Z" fill="white"/>
<path d="M276.107 198.923C277.216 198.957 278.342 198.923 279.464 198.839C282.259 198.616 284.965 198.339 287.638 197.46C289.411 196.875 291.42 196.101 292.748 194.793C294.353 193.212 294.5 191.277 294.635 189.187C294.769 187.118 295.475 185.087 295.669 183.017C295.917 180.309 295.803 177.558 295.95 174.829C296.097 172.099 296.299 169.656 296.421 167.036C296.522 165.017 297.106 163.086 297.287 161.068C297.501 158.763 298.207 156.311 297.568 154.006C296.929 151.701 295.164 151.563 293.324 150.393C292.143 149.649 291.214 149.127 289.832 148.812C286.81 148.122 283.532 148.08 280.469 147.794C277.817 147.538 275.102 147.252 272.442 147.496C271.287 147.601 270.139 147.698 269.005 147.857C267.366 148.08 265.74 148.492 264.13 148.783C261.39 149.283 257.864 149.687 255.599 151.365C253.498 152.917 253.544 156.164 253.713 158.397C253.801 159.545 254.276 160.639 254.385 161.795C254.566 163.528 254.666 165.248 254.948 166.956C255.478 170.236 255.318 173.634 255.486 176.97C255.7 181.432 255.654 185.995 256.969 190.331C257.6 192.4 258.461 193.666 260.214 195.046C261.785 196.278 263.651 197.203 265.66 197.586C269.152 198.255 272.598 198.848 276.103 198.936H276.115L276.107 198.923ZM291.244 192.72C290.996 193.069 290.672 193.389 290.223 193.666C288.302 194.857 286.012 195.357 283.776 195.866C279.242 196.896 274.018 197.565 269.438 196.299C267.429 195.748 265.441 195.1 263.567 194.217C261.533 193.271 260.638 192.379 259.369 190.584C258.697 189.629 258.503 188.586 258.293 187.442C257.688 184.119 258.003 180.763 257.822 177.344C257.675 174.476 257.869 171.536 257.44 168.709C257.125 166.661 256.675 164.63 256.398 162.569C256.209 161.198 256.478 159.873 256.352 158.481C256.104 155.667 256.822 153.211 259.688 151.895C262.012 150.831 264.504 150.654 267.021 150.259C270.648 149.695 274.342 149.472 278.057 149.645C281.772 149.813 285.222 150.515 288.777 151.024C290.147 151.214 291.303 151.525 292.504 152.139C293.437 152.618 294.648 153.295 295.122 154.254C295.694 155.423 295.156 156.9 295.055 158.111C294.841 160.533 294.606 162.952 294.349 165.366C294.227 166.586 294.328 167.86 294.328 169.092C294.328 170.791 293.824 172.448 293.757 174.135C293.61 177.289 293.341 180.549 292.815 183.652C292.5 185.499 292.387 187.37 292.151 189.217C291.983 190.525 291.937 191.744 291.252 192.712V192.724L291.244 192.72Z" fill="black"/>
<path d="M275.75 159.962C266.232 159.962 258.516 158.557 258.516 156.828C258.516 155.1 266.232 153.695 275.75 153.695C285.268 153.695 292.984 155.1 292.984 156.828C292.984 158.557 285.268 159.962 275.75 159.962Z" fill="#7F5E4C"/>
<path d="M291.177 158.591C291.66 158.41 292.164 158.271 292.614 158.04C292.963 157.859 293.761 157.392 293.748 156.955C293.727 155.807 291.479 157.031 291.063 157.148C289.954 157.447 288.941 157.859 287.84 158.229C285.247 159.1 282.528 159.335 279.801 159.335C274.3 159.335 268.606 159.6 263.34 158.048C261.857 157.611 260.588 157.123 259.209 156.538C258.915 156.412 257.558 156.4 257.335 156.824C257.045 157.354 259.646 158.044 260.02 158.225C261.479 158.936 263.042 159.436 264.635 159.764C266.227 160.092 267.879 160.189 269.484 160.488C273.199 161.169 277.296 161.867 281.049 160.988C282.318 160.69 283.486 160.416 284.797 160.34C286.066 160.265 287.31 160.244 288.512 159.819C288.895 159.68 289.252 159.491 289.626 159.331C290.109 159.121 290.567 158.873 291.042 158.641C291.088 158.62 291.122 158.599 291.164 158.587H291.177V158.591Z" fill="black"/>
<path d="M295.106 112.649C296.225 111.722 297.423 110.766 297.652 110.145C298.019 108.85 295.739 109.414 295.008 109.63C292.266 110.464 289.72 112.322 288.551 114.736C287.905 115.999 287.779 117.792 289.037 118.686C289.887 119.34 291.072 119.213 291.677 118.315C292.221 117.579 292.364 116.44 292.83 115.37C293.234 114.393 294.039 113.552 295.008 112.735L295.106 112.649Z" fill="#D5D8DD"/>
<path d="M278.4 133.19C278.703 133.072 278.989 132.908 279.246 132.708C279.961 132.153 280.836 131.066 280.272 130.139C280.096 129.853 279.769 129.726 279.442 129.779C279.013 129.849 278.862 130.135 278.666 130.474C278.335 131.05 277.873 131.54 277.35 131.94C277.08 132.148 275.826 132.659 276.206 133.125C276.271 133.202 276.369 133.243 276.467 133.272C277.109 133.48 277.787 133.427 278.404 133.186L278.4 133.19Z" fill="#D5D8DD"/>
<path d="M278.519 128.407C278.662 128.248 278.719 128.011 278.629 127.798C278.388 127.218 277.387 127.222 277.248 127.884C277.109 128.546 278.114 128.857 278.519 128.407Z" fill="#D5D8DD"/>
<path d="M256.407 104.283C257.984 101.995 259.749 99.8382 261.331 97.5507C262.001 96.5785 262.606 95.5982 263.092 94.532C263.758 93.0574 264.947 92.1955 265.797 90.8515C265.9 90.6881 265.989 90.5207 266.067 90.345C266.586 89.1849 266.566 87.7838 265.981 86.6482C265.613 85.9333 265.05 85.337 264.629 84.6507C261.507 79.5895 266.112 72.5186 271.196 70.9705C272.119 70.6886 273.206 70.5824 273.979 71.1624C274.91 71.865 274.947 73.3315 274.354 74.3323C273.762 75.3372 272.708 75.9663 271.661 76.485C269.957 77.3347 268.053 78.0904 267.036 79.6998C266.578 80.4229 266.341 81.2848 266.361 82.1385C266.374 82.6818 266.504 83.2496 266.884 83.6376C267.305 84.0666 267.943 84.1891 268.543 84.2218C271.653 84.3811 279.193 80.7415 280.738 85.3574C280.881 85.7863 280.909 86.2438 281.06 86.6686C281.506 87.8941 282.875 88.5068 284.154 88.756C286.316 89.1808 288.547 88.9439 290.75 88.9929C294.832 89.0828 302.576 92.0566 300.717 97.4609C300.561 97.9061 300.373 98.3432 300.149 98.7598C299.417 100.112 298.35 101.248 297.251 102.322C294.378 105.12 291.175 107.583 287.734 109.646C285.895 110.745 284.432 112.436 283.798 114.487C281.735 121.161 290.66 123.878 291.857 129.727C292.866 134.654 288.755 138.105 284.575 139.564C282.131 140.417 279.487 140.658 277.113 141.696C276.488 141.97 275.793 142.464 275.879 143.142C275.899 143.305 275.969 143.469 275.936 143.632C275.879 143.951 275.495 144.086 275.176 144.122C274.081 144.249 272.883 143.898 272.213 143.028C270.693 141.051 272.798 139.935 274.252 139.122C275.989 138.15 277.718 137.129 279.291 135.904C281.87 133.902 284.456 130.797 282.147 127.587C281.563 126.778 280.77 126.124 279.863 125.712C277.477 124.625 274.371 124.593 271.653 124.437C266.398 124.139 260.154 123.477 255.916 120.038C255.271 119.511 254.662 118.927 254.151 118.265C250.649 113.747 253.624 108.31 256.402 104.287L256.407 104.283ZM280.905 114.111C281.293 113.984 281.302 113.449 281.257 113.045C281.13 111.909 281.191 110.741 281.567 109.658C282.331 107.469 284.281 105.912 286.303 104.777C288.326 103.641 290.525 102.796 292.368 101.386C293.974 100.157 295.069 98.5433 295.506 96.5663C295.903 94.7853 294.378 93.4046 292.609 93.9234C291.117 94.3604 291.783 96.407 291.657 97.5957C291.334 100.651 288.281 102.171 285.789 103.29C282.973 104.552 280.684 106.827 280.161 109.981C280.067 110.545 279.724 114.483 280.901 114.103L280.905 114.111ZM260.534 107.318C260.881 107.354 261.196 107.142 261.482 106.938C263.378 105.582 264.849 104.287 266.271 102.391C267.534 100.786 268.731 99.0172 269.001 96.9952C269.058 96.5663 269.046 96.0679 268.719 95.7861C268.392 95.5083 267.877 95.5736 267.526 95.8187C267.175 96.0638 266.95 96.4437 266.721 96.8073C264.935 99.6912 262.594 102.183 260.485 104.842C260.17 105.238 259.847 105.667 259.786 106.174C259.725 106.676 260.031 107.265 260.538 107.314L260.534 107.318Z" fill="#D5D8DD"/>
<path d="M260.947 92.881C261.56 92.2029 262.361 91.578 262.851 90.7855C263.407 89.9236 263.582 88.6164 262.61 87.9792C261.008 87.2766 261.629 89.6376 260.975 90.2708C259.745 91.917 257.257 92.7789 256.464 94.6825C255.839 95.7486 256.582 97.2968 258.098 97.0394C258.797 96.925 259.275 96.3164 259.504 95.72C259.888 94.707 260.125 93.7429 260.885 92.9382L260.943 92.8769L260.947 92.881Z" fill="#D5D8DD"/>
<path d="M269.802 81.1311C270.165 80.9799 270.386 80.5508 270.3 80.1667C270.215 79.7826 269.822 79.4924 269.43 79.5169C269.177 79.5333 268.944 79.6641 268.739 79.8193C268.519 79.9869 268.318 80.1994 268.22 80.4609C268.122 80.7224 268.147 81.0412 268.331 81.2496C268.531 81.4743 268.87 81.5275 269.164 81.458C269.459 81.3885 269.712 81.2169 269.961 81.0494" fill="#D5D8DD"/>
<path d="M279.421 68.6836C279.859 68.1689 279.993 67.5194 279.479 66.8004C279.07 66.2245 278.408 65.8895 278.269 65.1338C278.04 64.5578 278.445 63.9574 278.351 63.4508C278.15 62.9933 277.476 63.075 277.092 63.2507C276.148 63.6755 275.891 64.807 276.046 65.767C276.148 66.3266 276.111 66.8985 275.76 67.3723C274.971 68.4344 274.951 69.6517 276.487 69.8192C277.394 69.9172 278.755 69.4597 279.417 68.6876L279.421 68.6836Z" fill="#D5D8DD"/>
</svg>
