<svg width="280" height="265" viewBox="0 0 280 265" fill="none" xmlns="http://www.w3.org/2000/svg">
<g clip-path="url(#clip0_13076_1341)">
<path d="M144.968 226.839L156.904 224.754L161.724 221.974L174.807 230.545L183.529 234.714L187.201 237.725L187.89 240.505L185.365 243.516H181.234H178.02H176.413L178.02 247.222L170.446 250.002H166.773L156.674 246.064L153.002 242.358L150.018 243.516L136.705 252.318H133.721L127.754 249.307L124.54 246.064L121.556 243.516L126.606 240.505L124.54 238.42L120.409 235.872L123.393 231.935L131.197 228.692L144.968 226.839Z" fill="white"/>
<path d="M72.5225 121.352C72.1268 120.091 64.3926 104.212 62.0775 100.613C59.7624 97.0132 51.2812 77.4027 49.4453 74.413C47.6095 71.4233 39.2191 52.8192 36.7811 51.0758C34.3432 49.3324 30.7698 49.5479 31.1089 51.2472C31.4481 52.9465 44.6259 74.7999 45.8547 77.4908C47.0835 80.1818 60.9716 104.116 61.5393 105.742C62.107 107.368 70.7186 125.108 70.7186 125.108L72.5225 121.352Z" fill="black"/>
<path d="M90.4257 215.913C89.0101 216.672 87.6314 215.766 86.2478 215.824C78.5259 216.165 70.7917 216.025 63.0772 216.314C58.8993 216.476 56.2352 219.497 54.4755 223.17C51.3986 229.536 53.4064 237.908 58.8993 241.493C60.6196 242.609 62.4481 243.241 64.5518 243.18C71.4135 242.986 78.29 243.05 85.1394 242.648C89.4279 242.403 93.6649 242.291 97.9535 242.631C99.7401 242.773 99.7549 243.459 99.4403 244.666C98.5802 247.971 99.1479 251.118 100.259 254.272C101.871 258.845 106.592 262.819 111.809 262.477C118.526 262.038 125.277 262.337 131.962 262.932C140.478 263.691 148.998 264.333 157.521 264.911C162.368 265.239 167.207 264.57 172.048 264.267C176.755 263.973 181.422 263.505 186 262.389C188.291 261.828 190.591 261.164 192.422 259.58C196.6 255.956 197.45 250.724 194.74 245.685C193.636 243.633 193.658 243.821 196.042 243.547C201.127 242.959 206.251 242.568 211.245 241.382C216.072 240.232 218.736 237.181 218.584 233.209C218.426 229.088 215.401 226.047 210.473 225.224C207.473 224.722 204.445 224.397 201.429 224C201.362 223.913 201.275 223.843 201.175 223.798C201.074 223.752 200.964 223.732 200.854 223.738C194.772 225.736 188.851 228.165 182.864 230.415C181.95 230.93 180.466 231.111 180.407 232.235C180.343 233.545 181.928 233.488 182.842 233.914C185.828 235.312 188.677 236.742 188.8 240.68C188.891 243.591 187.618 245.087 184.661 245.163C183.374 245.23 182.084 245.196 180.803 245.063C179.751 244.925 179.225 245.219 179.21 246.422C179.176 249.441 178.964 249.605 175.963 249.889C175.324 249.95 174.693 250.08 174.081 250.276C170.64 251.338 167.347 251.358 163.712 250.52C159.733 249.61 156.686 247.582 153.636 245.232C152.616 244.448 151.571 244.428 150.441 245.087C146.442 247.43 142.107 249.166 138.345 251.963C135.727 253.921 133.579 253.603 130.691 251.813C129.243 250.92 127.717 250.157 126.133 249.534C122.257 248.008 120.674 245.05 121.829 241.008C121.951 240.672 121.954 240.305 121.839 239.967C121.724 239.629 121.497 239.34 121.195 239.147C119.2 237.643 118.983 235.741 119.966 233.643C120.704 232.09 120.33 231.211 118.664 230.849C116.978 230.193 115.186 229.784 113.67 228.733C112.744 228.266 111.855 227.73 111.008 227.132C110.786 226.965 110.556 226.81 110.318 226.667C110.001 226.481 109.671 226.312 109.349 226.126C108.797 225.764 108.222 225.437 107.629 225.146C104.805 223.946 102.104 222.499 99.3936 221.074C98.7374 220.685 98.1107 220.242 97.4619 219.85C96.771 219.572 96.1058 219.234 95.4737 218.841C95.2279 218.689 94.9822 218.55 94.7364 218.405C93.7337 217.764 92.8219 217.002 91.8659 216.299C91.4653 216.003 91.0918 215.416 90.4503 215.913" fill="#FFE0CC"/>
<path fill-rule="evenodd" clip-rule="evenodd" d="M176.567 150.643L190.144 154.106C190.144 154.106 198.456 180.159 210.823 186.99C223.19 193.822 231.061 174.258 230.42 161.856L229.275 158.369C229.275 158.369 215.281 151.973 223.811 142.018L228.749 139.608L229.782 142.491L227.508 151.998L235.522 152.789L240.066 143.56C240.066 143.56 239.238 139.028 233.185 140.94C227.132 142.853 229.967 136.784 232.953 135.471C235.939 134.159 240.356 135.049 245.478 140.982C250.599 146.915 245.64 144.522 245.64 144.522L252.263 136.991L249.584 149.745L257.648 145.338L253.379 152.632L262.497 152.483L263.863 154.314L255.588 158.996L240.678 162.595C240.678 162.595 239.523 188.822 223.131 197.526C206.738 206.231 189.943 187.69 186.065 180.423L160.712 165.732L128.888 160.756L105.368 192.389L98.7179 191.527L84.9159 195.183C84.9159 195.183 75.0435 195.722 65.7733 183.643C56.5031 171.564 59.0469 141.925 59.0469 141.925L46.9282 147.595L45.0063 145.196L51.0447 139.699L52.8757 137.113C52.8757 137.113 39.2691 140.533 37.7552 134.565C36.2413 128.598 48.9387 131.783 48.9387 131.783C48.9387 131.783 37.5106 127.047 39.199 122.505C40.8874 117.963 55.5987 129.337 55.5987 129.337C55.5987 129.337 56.2389 120.625 58.5884 119.775C60.9379 118.925 68.8675 119.552 68.8675 119.775C68.8675 119.998 66.7404 122.111 66.7404 122.111L59.2262 122.848L61.3324 129.53L65.3629 132.713L69.4598 133.269L71.539 127.831L64.6821 124.06L69.472 121.55L75.2254 125.872L75.2745 134.985L69.8187 141.151L68.344 168.278C68.344 168.278 71.8364 187.147 82.4263 187.069C93.0162 186.99 103.414 186.131 108.662 181.003C113.909 175.876 122.5 164.312 122.409 156.347C122.319 148.381 129.932 148.425 129.932 148.425C129.932 148.425 137.458 160.969 159.08 156.528C180.702 152.086 172.038 151.998 172.038 151.998L176.567 150.643Z" fill="white"/>
<path fill-rule="evenodd" clip-rule="evenodd" d="M161.442 53.2991C161.442 53.2991 186.421 55.4538 192.233 105.282C192.233 105.282 200.402 103.925 202.499 109.672C204.595 115.419 206.637 118.639 195.583 126.477C184.529 134.314 188.276 142.921 177.025 149.082C165.774 155.242 150.331 163.854 131.775 152.064C118.929 143.9 120.151 101.474 121.082 99.2535C122.014 97.0327 130.397 61.9915 151.557 53.5366L161.439 53.2917L161.442 53.2991Z" fill="white"/>
<path d="M166.632 51.5805C169.582 52.3959 172.58 53.9262 174.598 55.6255C177.881 58.4144 184.787 68.7865 188.992 77.2218C193.266 85.6889 194.873 91.4014 195.318 99.5991L195.522 103.517L197.505 103.38C201.192 103.108 204.925 105.583 206.908 109.638C207.795 111.44 207.891 111.984 207.891 114.876C207.891 117.936 207.822 118.242 206.557 120.826C204.131 125.723 199.719 129.227 194.659 130.213C192.986 130.554 192.71 130.723 192.506 131.504C191.858 134.124 189.292 139.736 187.591 142.353C185.165 145.992 181.302 150.039 179.591 150.678C179.284 150.779 177.38 151.903 175.386 153.161C169.712 156.697 166.325 157.887 158.222 159.077C152.479 159.929 149.54 159.929 145.163 159.077C140.786 158.225 135.042 156.322 133.3 155.235C129.844 153.058 123.282 143.467 120.52 136.531C117.251 128.514 115.551 115.174 116.919 108.541C117.204 107.185 117.387 105.81 117.468 104.428C117.499 103.533 117.671 102.649 117.979 101.808C118.596 100.38 120.544 93.8842 120.611 93.9528C120.677 94.0213 120.748 93.681 120.748 93.2059C120.748 92.7309 121.432 91.0953 122.223 89.5649C123.002 88.0042 123.698 86.4039 124.31 84.7707C124.686 83.6835 125.334 82.425 125.71 82.0161C126.086 81.6071 126.634 80.3829 126.907 79.2957C127.591 76.6023 131.085 69.4672 133.368 66.0735C135.558 62.7753 140.584 57.8782 144.241 55.4297C148.709 52.4645 152.614 51.3846 159.69 51.1031C163.418 50.9341 164.546 51.0345 166.632 51.5805ZM153.297 56.8498C149.365 57.8023 146.836 59.3326 141.879 63.7547C139.144 66.169 136.885 69.264 134.322 74.0583C131.963 78.5465 128.402 84.1708 128.026 87.3343C127.78 89.3397 124.585 97.224 124.206 98.3675C123.934 99.1168 123.223 102.76 123.108 103.754C122.992 104.748 122.663 106.849 122.356 108.482C121.228 114.739 122.321 125.688 124.85 133.24C126.733 138.849 131.894 147.419 135.108 150.208C138.22 152.929 143.28 154.324 150.016 154.324C155.315 154.324 159.451 153.835 163.794 152.725C174.325 150.005 181.128 144.971 185.232 136.81C186.257 134.839 188.24 129.192 188.24 128.343C188.24 128.002 188.65 127.322 189.196 126.812C189.948 126.063 190.565 125.833 192.307 125.657C196.485 125.213 200.103 122.868 201.848 119.398C203.797 115.622 203.521 112.461 201.096 109.91C199.375 108.142 198.461 108.005 195.077 109.129C193.435 109.672 192.718 109.741 192.128 109.467C190.624 108.789 190.383 107.87 190.145 102.19C190.041 99.1976 189.769 95.6937 189.597 94.369C188.434 86.0709 182.487 73.8281 174.359 62.9786C171.555 59.2053 169.845 57.9468 166.003 56.6539C164.43 56.1446 163.406 56.0418 159.677 56.2132C157.22 56.2793 154.344 56.5854 153.287 56.8572L153.297 56.8498Z" fill="#F15928"/>
<path d="M160.997 104.405C165.202 105.527 168.723 110.049 166.843 111.885C165.885 112.865 164.791 112.532 163.425 110.906C161.989 109.192 160.451 108.355 158.878 108.355C158.092 108.355 157.404 108.729 156.347 109.716C154.705 111.312 153.474 111.415 152.825 110.088C151.869 108.218 154.022 105.294 156.929 104.444C158.903 103.862 158.871 103.862 160.997 104.405Z" fill="black"/>
<path d="M124.71 101.763C128.917 102.885 132.437 107.395 130.556 109.243C129.6 110.223 128.507 109.89 127.138 108.264C125.703 106.565 124.164 105.715 122.591 105.715C121.805 105.715 121.117 106.09 120.06 107.074C118.421 108.673 117.189 108.776 116.538 107.449C115.582 105.578 117.735 102.654 120.642 101.805C122.626 101.217 122.591 101.217 124.71 101.763Z" fill="black"/>
<path d="M135.38 116.626C135.712 117.353 135.953 118.118 136.098 118.904C136.784 123.392 137.022 124.175 137.573 123.766C138.153 123.291 139.177 121.012 139.898 118.7C140.443 116.864 141.06 116.252 142.154 116.421C143.965 116.666 143.965 119.959 142.119 123.972C139.723 129.207 135.312 129.983 133.225 125.576C132.473 123.945 132.335 123.23 132.335 120.407C132.335 117.652 132.439 117.006 132.984 116.394C133.876 115.402 134.8 115.503 135.38 116.626Z" fill="black"/>
<path d="M68.2657 117.495C69.3274 118.041 70.421 118.925 70.7971 119.537C71.185 120.116 71.748 120.557 72.4043 120.796C74.0804 121.134 77.0542 123.311 77.9758 124.841C78.6615 126.031 78.831 126.78 78.831 128.582C78.831 130.962 77.7374 136.472 77.0198 137.833C76.5405 138.785 73.3948 142.118 72.1315 143.002C71.3107 143.614 71.2419 143.92 70.7627 148.545C70.1483 155.108 70.1483 165.93 70.7627 169.493C71.1387 171.569 71.7457 173.268 73.2203 176.126C77.4941 184.627 78.1085 185.07 85.8697 185.443C89.7331 185.648 91.2372 185.58 93.4884 185.102C95.0612 184.796 96.6685 184.627 97.0446 184.73C97.5582 184.865 99.2564 184.118 102.412 182.526C107.541 179.833 111.201 177.458 113.081 175.521C114.961 173.584 117.497 167.069 120.031 157.546C120.522 155.678 121.193 153.602 121.569 152.923C121.986 152.028 122.27 151.077 122.412 150.1C122.685 148.364 123.027 148.127 123.641 149.282C125.489 152.71 131.677 158.805 133.83 159.282C134.322 159.383 136.02 159.894 137.627 160.438C144.634 162.749 151.132 163.362 157.628 162.309C159.645 162.003 160.739 161.934 160.842 162.172C160.874 162.343 163.029 164.417 165.627 166.763C170.142 170.913 174.996 174.314 181.422 177.884L183.713 179.143L183.919 178.327C184.057 177.781 183.747 176.694 182.936 174.992C181.707 172.375 180.781 167.953 181.191 166.39C181.567 164.921 184.234 164.314 185.259 165.472C185.568 165.778 185.979 166.831 186.217 167.749C188.429 176.625 190.901 182.406 194.595 187.338C197.09 190.705 200.739 194.243 201.946 194.549C202.388 194.649 203.996 195.193 205.5 195.739C209.363 197.166 212.381 197.61 216.989 197.472C220.749 197.335 221.022 197.269 222.288 196.317C228.135 191.929 233.16 185.773 234.802 180.876C235.348 179.277 235.999 176.958 236.277 175.734C236.554 174.51 237.301 171.755 237.953 169.613C238.705 167.301 239.182 164.987 239.182 163.966C239.182 161.417 239.764 160.874 243.32 160.09C244.928 159.75 247.388 159.069 248.791 158.621C251.249 157.806 252.755 157.397 257.815 156.138C260.45 155.492 262.772 154.471 262.772 153.962C262.772 153.315 261.099 153.621 256.176 155.152C250.875 156.785 250.157 156.919 249.509 156.275C248.38 155.152 250 152.874 254.09 149.848C255.073 149.133 256.004 148.349 256.142 148.112C256.414 147.671 254.635 148.996 251.799 151.31C249.885 152.909 248.722 152.975 247.729 151.582C246.808 150.289 246.466 148.35 247.046 147.664C247.422 147.221 247.319 147.152 246.432 147.152C245.063 147.152 244.618 146.506 244.517 144.459C244.478 143.368 244.138 142.309 243.534 141.398C242.44 139.765 238.815 136.704 237.619 136.398C236.144 136.026 234.338 136.535 233.21 137.622C232.226 138.575 232.15 138.781 232.492 139.493L232.868 140.311L233.893 139.331C234.782 138.448 235.227 138.31 236.731 138.31C240.695 138.31 242.875 141.004 242.544 145.487C242.44 147.086 242.168 147.833 241.14 149.295C240.349 150.396 239.406 151.381 238.339 152.221C237.142 153.07 236.8 153.545 236.8 154.26C236.8 155.553 236.218 155.994 234.372 155.994C231.806 155.994 229.211 155.382 227.842 154.432C226.028 153.173 224.831 150.622 224.831 148.036C224.831 145.556 225.517 144.229 227.601 142.733C228.388 142.189 228.867 141.711 228.663 141.711C227.911 141.711 225.448 144.229 224.627 145.874C223.603 147.879 223.603 149.241 224.627 151.449C225.669 153.699 227.49 155.499 229.757 156.518C230.713 156.959 231.875 157.674 232.32 158.183C233.106 159.001 233.141 159.135 232.902 162.674C232.526 168.114 229.995 177.568 227.535 182.737C225.994 185.935 224.286 187.668 220.936 189.348C219.157 190.232 218.542 190.367 216.08 190.367C209.002 190.367 204.593 186.559 198.301 174.995C195.65 170.139 194.421 167.201 191.59 159.077C190.292 155.303 189.916 154.963 186.974 154.76C182.838 154.515 179.692 154.045 179.144 153.602C178.358 152.955 178.702 151.493 179.761 150.984C180.923 150.441 189.948 151.087 191.386 151.8C192.823 152.512 193.914 154.248 195.18 157.718C197.812 164.995 198.94 167.647 201.607 172.654C206.566 182.108 209.643 185.271 214.77 186.324C216.719 186.733 216.96 186.699 218.498 185.952C222.086 184.216 224.379 180.986 225.871 175.511C227.786 168.411 228.574 165.002 228.776 162.725L228.982 160.242L227.1 159.29C224.888 158.234 222.28 155.548 221.084 153.134C220.489 151.851 220.155 150.464 220.101 149.052C219.963 146.91 220.066 146.332 220.853 144.564C222.015 142.047 225.058 138.918 227.107 138.198C227.862 137.926 228.614 137.789 228.715 137.892C228.815 137.995 228.921 137.857 228.921 137.586C228.921 136.734 231.964 133.607 233.298 133.061C234.903 132.382 238.255 132.417 239.621 133.095C241.536 134.074 245.028 137.074 246.358 138.91L247.624 140.712L249.128 138.776C249.948 137.686 251.28 136.156 252.033 135.375C253.298 134.047 253.605 133.905 255.075 133.905C256.444 133.905 256.82 134.074 257.675 134.958C258.462 135.808 258.658 136.32 258.658 137.51C258.658 139.006 257.769 141.251 256.641 142.542C256.095 143.188 256.129 143.188 257.12 142.576C257.668 142.204 259.275 141.045 260.676 139.958C262.932 138.19 263.343 137.985 264.812 137.985C266.899 137.985 267.924 139.006 268.231 141.386C268.607 144.312 267.924 145.23 263.171 148.051L260.369 149.718L262.556 149.821C264.539 149.921 264.881 150.024 265.633 150.943C266.316 151.724 266.523 152.37 266.523 153.56C266.523 157.064 264.505 158.491 256.881 160.431C254.008 161.146 250.966 161.995 250.145 162.267C248.779 162.776 246.589 163.354 243.854 163.966C243.136 164.138 242.932 164.375 242.932 165.125C242.932 165.634 242.622 167.096 242.281 168.423C238.724 181.856 237.837 184.713 236.709 186.412C234.35 189.916 231.408 193.689 230.486 194.439C229.904 194.914 228.503 196.138 227.341 197.193C223.957 200.323 222.929 200.866 219.648 201.275C211.204 202.362 202.005 199.982 196.33 195.254C193.937 193.283 189.39 187.568 188.124 184.985C186.859 182.402 186.416 183.183 185.731 188.998C185.423 191.513 185.082 194.745 184.979 196.138C184.568 201.307 184.057 203.995 183.474 204.199C183.167 204.301 181.218 205.117 179.166 206.001C177.114 206.885 173.936 208.109 172.157 208.755C170.378 209.402 168.328 210.224 167.645 210.66C166.962 211.096 166.21 211.441 166.003 211.441C165.916 211.442 165.833 211.476 165.77 211.536C165.707 211.596 165.67 211.678 165.666 211.765C165.666 211.936 165.153 212.311 164.538 212.582C163.605 213.12 162.734 213.758 161.941 214.485C161.085 215.268 160.333 215.881 160.196 215.881C159.889 215.881 157.119 219.451 156.332 220.881C155.546 222.311 155.58 222.749 156.674 222.614C157.36 222.546 157.903 222.071 158.623 220.981C159.32 219.991 160.123 219.079 161.017 218.261C161.769 217.614 163.103 216.424 163.966 215.677C165.981 213.807 169.913 211.515 173.538 210.1C175.146 209.487 178.53 207.991 181.059 206.801C184.125 205.401 187.264 204.164 190.462 203.094C193.094 202.276 196.136 201.292 197.232 200.918C198.668 200.406 199.385 200.305 199.658 200.543C200.376 201.121 202.838 201.904 206.498 202.685C209.299 203.298 211.01 203.435 215.421 203.4C218.702 203.4 221.302 203.229 221.882 202.991L222.865 202.583L222.62 205.543C222.448 207.991 222.244 208.67 221.423 209.894C220.056 211.867 217.628 213.812 211.816 217.648C204.227 222.614 204.568 222.443 190.619 227.749C183.302 230.572 180.498 231.666 180.257 231.865C180.122 231.999 180.503 232.306 181.113 232.511C183.325 233.327 186.549 235.026 187.503 235.91C188.665 236.999 189.245 238.802 189.245 241.419C189.245 243.087 189.11 243.427 188.186 244.311C187.262 245.195 186.92 245.29 184.084 245.398C182.408 245.467 180.562 245.366 179.98 245.153C179.024 244.813 178.955 244.847 179.159 245.398C179.351 245.883 179.5 246.385 179.604 246.896C179.98 249.174 178.886 250.229 176.048 250.229C175.16 250.229 174.133 250.474 173.622 250.807C172.767 251.385 171.639 251.519 166.613 251.691C165.614 251.617 164.633 251.388 163.705 251.01C162.679 250.558 161.599 250.238 160.491 250.058C158.886 249.854 158.679 249.751 154.236 246.385L151.601 244.426L150.508 245.241C149.893 245.716 148.114 246.71 146.507 247.487C143.647 248.815 140.914 250.397 138.338 252.212C135.533 254.254 132.422 254.355 130.473 252.484C129.96 252.009 129.208 251.6 128.832 251.6C128.456 251.6 127.669 251.226 127.111 250.785C126.456 250.291 125.701 249.943 124.899 249.764C123.737 249.56 121.891 247.962 121.891 247.181C121.891 247.009 121.4 246.431 120.866 245.888C120.51 245.519 120.234 245.082 120.056 244.602C119.877 244.122 119.8 243.611 119.829 243.101C119.858 242.59 119.992 242.091 120.223 241.634C120.455 241.177 120.778 240.773 121.174 240.447C121.618 240.072 121.618 239.957 121.277 239.801C121.002 239.698 120.294 239.154 119.635 238.611C118.028 237.215 117.824 235.822 118.917 233.469L119.773 231.6L116.9 230.682C115.091 230.066 113.359 229.244 111.739 228.234C110.473 227.381 106.578 225.273 103.09 223.54C95.1915 219.561 91.8417 217.384 86.2678 212.555C82.9181 209.664 82.4044 208.677 82.7116 205.685C82.9181 203.305 83.8741 200.176 84.7638 198.782C85.2774 198.033 85.6534 197.933 88.4207 197.693C90.1411 197.592 92.0457 197.252 92.6626 196.98C94.3018 196.3 94.383 196.334 94.8155 197.796C95.0707 198.567 95.4898 199.274 96.0443 199.87C96.8307 200.619 96.8995 200.619 98.6764 200.114C99.7012 199.843 101.274 199.537 102.164 199.402C103.941 199.157 107.942 197.6 110.815 195.974L112.591 195.021L115.772 197.198C120.08 200.122 121.424 201.177 125.651 204.816C130.028 208.591 131.977 210.122 132.457 210.122C132.547 210.113 132.637 210.141 132.707 210.198C132.778 210.255 132.823 210.338 132.833 210.428C132.833 210.597 133.346 210.903 133.926 211.108C134.788 211.452 135.612 211.885 136.384 212.399C137.136 212.876 138.596 213.726 139.63 214.304C142.334 215.773 143.835 216.997 147.392 220.562C149.992 223.214 151.289 224.235 151.289 223.589C151.289 223.214 150.196 221.446 149.033 219.95C146.502 216.718 145.408 215.597 143.494 214.338C142.435 213.623 141.476 212.977 141.375 212.869C140.774 212.485 140.145 212.143 139.495 211.848C137.957 211.113 136.008 209.889 135.563 209.399C135.126 209.126 134.668 208.887 134.194 208.684C132.69 207.972 130.4 206.304 126.298 202.837C124.518 201.368 125.522 200.76 125.522 200.3C125.522 199.839 125.753 199.839 125.753 199.839L126.676 197.198C127.017 191.586 126.75 188.911 128.288 187.175C129.006 186.326 126.351 183.41 127.137 181.88C127.924 180.349 127.637 178.215 128.288 177.228C129.62 175.222 129.689 173.964 128.492 173.8C127.534 173.665 125.929 175.773 123.739 179.99C119.561 188.119 115.192 191.892 105.482 195.771C103.294 196.655 98.4061 197.776 98.1308 197.47C98.0989 197.401 97.9268 196.586 97.7548 195.634L97.4476 193.866L94.0634 195.021C84.7244 198.151 76.4889 196.926 70.9175 191.593C68.0445 188.839 65.8572 186.084 64.8643 183.841C62.7458 179.147 60.5217 171.905 60.0105 167.96C59.8385 166.564 59.4969 164.319 59.2929 163.029C59.0471 161.701 58.7793 157.213 58.676 153.029L58.472 145.411L56.7517 146.704C54.5988 148.372 51.0992 149.968 49.2977 150.174C47.1104 150.445 45.1959 149.765 43.9303 148.337C42.9742 147.282 42.871 146.907 43.0087 145.752C43.2544 144.018 44.7855 142.385 47.6929 140.923L49.9047 139.767L48.0591 139.733C43.2028 139.699 37.9828 137.931 36.7073 135.889C35.648 134.155 35.852 132.387 37.2209 131.026C38.204 130.047 38.6218 129.87 40.057 129.87H41.7774L39.7596 127.897C37.8451 125.96 37.7763 125.823 37.7763 124.124C37.7763 122.694 37.9484 122.184 38.666 121.469C39.4868 120.654 39.6908 120.62 42.0846 120.757C44.2374 120.891 45.1271 121.163 48.2286 122.694C50.2464 123.646 52.4337 124.87 53.1193 125.416L54.3482 126.396L54.2474 124.9C54.0016 122.077 55.5106 119.528 58.5876 117.554C59.9909 116.704 60.4013 116.602 63.2374 116.602C66.0096 116.567 66.624 116.67 68.2657 117.495ZM61.1558 120.012C59.6812 120.556 58.01 122.358 57.7716 123.617C57.634 124.297 57.7716 125.419 58.1132 126.406C58.3764 127.167 58.5592 127.954 58.6588 128.754C58.6588 129.672 56.8475 131.54 55.9554 131.54C55.5794 131.54 54.2818 130.759 53.1193 129.807C50.7256 127.867 44.8101 124.775 42.8268 124.4C42.1436 124.263 41.5611 124.195 41.5611 124.263C41.5611 124.332 42.0747 124.841 42.6572 125.387C43.8516 126.474 46.759 127.902 50.6224 129.366C54.0065 130.656 54.2818 130.928 54.1442 133.208L54.0409 135.113L51.9913 135.044C50.8608 135.044 48.1598 134.601 46.0069 134.126C41.8708 133.208 39.5114 133.004 39.5114 133.617C39.5114 134.807 45.3237 135.962 51.34 135.962H54.4858L55.545 137.152C57.2899 139.16 56.9827 140.01 53.9058 141.609C51.4776 142.899 48.2975 144.77 47.2038 145.619C46.5525 146.097 46.5869 146.131 47.7494 146.165C49.5631 146.165 52.2297 144.838 55.8866 142.118C59.374 139.498 60.3324 139.226 61.6325 140.45C62.419 141.165 62.419 141.234 62.419 149.566C62.419 154.189 62.5886 158.78 62.7606 159.801C62.9326 160.822 63.3406 163.34 63.6159 165.482C64.4023 171.398 65.9383 176.532 68.6417 182.179C69.7009 184.321 70.6225 185.607 72.4707 187.485C76.2653 191.327 79.2734 192.551 84.7785 192.517C87.7867 192.482 88.6763 192.313 92.7437 191.02C96.8111 189.728 97.3247 189.49 97.224 188.878C97.0863 188.028 96.6071 188.028 93.5989 188.844C91.8565 189.287 90.2836 189.387 85.7345 189.287C80.4359 189.184 79.8878 189.115 78.1454 188.307C74.486 186.608 73.0507 184.804 69.3593 177.426C67.1032 172.867 66.624 170.59 66.1448 162.666C65.6533 154.165 66.7936 142.466 68.2977 140.492C68.6684 140.176 69.1173 139.965 69.5977 139.88C70.6226 139.635 73.4955 136.888 73.8027 135.766C74.9996 131.888 75.3756 127.978 74.6924 126.753C74.282 125.938 71.409 124.06 70.657 124.06C70.3498 124.06 70.7602 124.366 71.5122 124.706C73.3235 125.522 74.0436 126.577 74.0436 128.413C74.0436 132.764 71.409 136.643 68.4353 136.643C67.6144 136.643 66.3832 135.419 66.6928 134.941C66.7936 134.807 66.248 134.601 65.5304 134.466C62.795 134.023 59.3863 129.944 58.6219 126.168C58.2459 124.163 58.2804 123.964 58.8972 123.107C60.0253 121.611 64.7759 120.456 66.1448 121.305C66.3312 121.4 66.5385 121.446 66.7476 121.44C66.9567 121.434 67.1609 121.376 67.3416 121.271C68.0248 120.896 67.9561 120.828 66.6928 120.292C65.1494 119.562 62.591 119.454 61.1558 120.003V120.012ZM62.8319 124.909C62.4214 125.012 62.0798 125.353 62.0798 125.659C62.0798 127.155 65.0536 131.202 66.1816 131.202C66.8484 131.28 67.503 131.44 68.1305 131.677L69.497 132.152L69.9074 130.862C70.5243 128.82 70.3866 128.276 69.1898 127.767C68.6098 127.522 67.3441 126.643 66.42 125.862C65.437 124.944 64.5399 124.434 64.2082 124.535C63.8764 124.635 63.2742 124.765 62.8319 124.9V124.909ZM232.858 144.66C232.379 144.76 231.875 144.794 231.764 144.691C231.654 144.589 230.909 145.032 230.088 145.712C228.481 147.005 228.243 147.821 228.926 149.794C229.471 151.324 230.646 151.834 232.379 151.263C234.111 150.693 237.063 148.543 238.054 147.115C239.319 145.311 239.037 142.659 237.508 142.15C236.756 141.878 236.414 142.013 235.183 143.129C234.397 143.842 233.337 144.522 232.858 144.66ZM152.002 227.058C149.677 227.876 143.865 228.76 138.669 229.1C134.875 229.345 134.668 229.406 132.309 230.765C130.498 231.821 129.335 232.235 127.866 232.399C126.814 232.483 125.772 232.665 124.754 232.942C123.626 233.283 122.257 234.656 122.257 235.459C122.257 236.106 124.002 236.928 125.917 237.159C128.48 237.499 130.702 239.947 129.335 240.934C129.129 241.103 128.001 241.512 126.878 241.852C125.755 242.193 124.452 242.634 124.007 242.805L123.149 243.106L124.209 243.753C124.926 244.193 125.337 244.705 125.406 245.351C125.474 246.064 125.678 246.27 126.192 246.235C127.492 246.064 128.65 246.507 129.065 247.288C129.475 248.003 129.611 248.037 130.807 247.697C131.936 247.425 132.243 247.452 132.86 248.003C133.253 248.381 133.495 248.888 133.543 249.431C133.543 250.486 134.467 250.452 135.971 249.362C136.62 248.921 137.817 248.138 138.674 247.629C139.532 247.119 140.758 246.37 141.41 245.929C142.573 245.245 143.77 244.621 144.998 244.059C148.109 242.663 147.836 242.8 150.159 240.929C151.846 239.691 153.629 238.588 155.492 237.631C157.306 236.679 158.913 235.76 159.048 235.557C159.183 235.354 159.631 235.045 160.11 234.877C160.997 234.536 160.997 234.536 158.502 232.019C156.178 229.605 156.045 229.402 156.178 228.101C156.278 226.809 156.278 226.774 155.081 226.632C154.679 226.61 154.279 226.552 153.887 226.461C153.845 226.456 153.024 226.718 151.997 227.058H152.002ZM175.185 233.351C174.364 233.792 172.278 234.086 166.261 234.744C164.62 234.916 164.209 235.119 164.003 235.724C163.526 236.914 159.387 240.28 157.097 241.336L155.013 242.288L156.31 243.307C160.488 246.539 160.96 246.811 162.26 246.811C163.012 246.811 164.209 247.185 165.131 247.695L166.738 248.579L167.252 247.864C167.866 247.014 169.464 246.911 170.125 247.66C170.705 248.375 171.353 248.307 172.518 247.457C173.302 246.845 173.782 246.776 174.875 246.945C175.662 247.048 176.279 247.117 176.279 247.048C176.279 246.98 175.458 246.069 174.43 244.94C172.174 242.526 171.902 241.708 172.826 240.212C174.022 238.309 174.774 237.798 175.775 238.253C176.254 238.456 176.63 238.831 176.63 239.068C176.63 239.306 177.586 240.124 178.748 240.871C180.697 242.095 181.073 242.232 183.022 242.198C185.622 242.163 186.033 241.857 185.726 240.19C185.418 238.66 184.939 238.253 180.975 236.042C178.785 234.818 177.795 234.103 177.726 233.593C177.571 232.739 176.546 232.636 175.18 233.351H175.185Z" fill="#F15928"/>
<path d="M186.345 187.181C184.624 185.45 184.698 183.43 185.347 181.292C185.426 181.048 185.192 180.69 185.101 180.386L182.331 178.971C179.66 181.42 179.382 181.366 177.468 178.146C176.976 177.323 176.797 176.42 176.615 175.509C173.641 173.599 170.783 171.542 168.271 169.042C167.409 168.903 167.288 169.623 167.158 170.132C166.598 172.167 165.907 174.194 166.175 176.359C166.264 177.112 166.116 177.875 165.75 178.54C165.723 177.561 165.821 176.554 164.639 176.199C163.531 176.917 163.744 178.175 163.41 179.206C162.978 180.524 162.552 181.655 160.694 181.358C159.564 181.18 158.773 182.056 158.254 183.05C158.172 183.517 158.278 183.998 158.549 184.387C160.414 187.465 162.167 190.612 164.169 193.609C165.236 193.682 165.202 194.302 165.047 195.139C164.86 196.148 164.457 197.774 165.651 197.903C167.109 198.06 166.551 196.341 166.733 195.403C167.011 193.966 167.224 192.517 167.47 191.072C167.696 189.767 168.242 189.064 169.645 189.848C170.063 190.075 170.532 190.124 170.982 190.247C172.358 190.616 173.076 191.559 172.673 192.94C171.629 196.374 170.782 199.865 170.137 203.395C170.053 203.885 169.891 204.593 169.193 204.441C168.66 204.326 168.763 203.689 168.755 203.236C168.787 202.771 168.847 202.309 168.932 201.85C169.009 201.025 169.397 199.813 168.352 199.647C167.485 199.502 167.399 200.727 167.266 201.493C167.116 202.347 166.952 203.207 166.814 204.052C166.698 204.759 166.632 205.506 165.951 206.138C165.406 205.602 165.573 204.899 165.438 204.297C165.339 203.856 165.357 203.268 164.789 203.178C164.16 203.077 163.84 203.604 163.612 204.083C163.029 205.308 162.874 206.637 162.702 207.96C162.307 209.35 162.083 210.773 161.818 212.186C161.673 212.95 161.488 213.748 162.167 214.389C166.721 210.227 172.11 207.534 177.908 205.575C178.133 204.949 178.275 204.297 178.33 203.635C178.367 202.776 178.689 202.235 179.685 202.382C180.375 202.485 180.805 202.024 181.203 201.576C181.737 200.971 181.909 200.381 180.886 200.107C179.699 199.799 179.498 198.971 179.704 197.952C179.911 196.934 180.009 195.849 180.166 194.791C180.397 193.227 181.641 192.678 182.776 192C183.364 191.645 183.617 192.095 183.794 192.561C183.998 193.089 184.086 193.654 184.051 194.219C184.016 194.784 183.86 195.335 183.592 195.834C182.856 197.345 182.747 199.085 183.29 200.675C183.865 201.18 184.44 201.655 185.042 200.712L186.347 187.181" fill="#EA421B"/>
<path d="M135.87 209.786C136.725 208.043 136.29 206.099 136.74 204.284C137.232 202.284 138.608 200.546 138.406 198.308C138.367 197.852 139.24 197.313 139.928 196.552C140.191 198.173 140.463 199.436 139.724 200.665C139.478 201.052 139.291 201.4 139.677 201.787C140.168 202.277 140.547 201.865 140.965 201.606C142.105 200.901 142.272 199.647 142.653 198.56C143.034 197.473 143.218 196.253 143.457 195.088C143.597 194.397 143.744 193.65 143.088 193.129C142.371 192.563 141.761 193.151 141.142 193.435C140.894 193.563 140.652 193.705 140.419 193.859C139.552 191.334 139.104 191.165 136.961 192.602C136.988 190.854 137.635 189.265 138.173 187.73C139.006 185.35 138.323 182.632 140.048 180.443C140.559 179.796 140.087 178.783 139.254 178.278C138.33 177.718 137.74 178.406 137.305 179.013C136.091 180.671 135.454 182.678 135.492 184.73C135.514 186.295 135.445 187.823 134.74 189.255C134.494 189.774 134.673 190.969 133.484 190.22C132.798 189.787 131.886 189.654 132.565 188.21C134.585 183.908 135.833 179.302 137.104 174.743C137.482 173.379 137.512 171.631 135.02 171.959C134.263 172.059 133.678 171.224 133.098 170.803C131.115 169.388 129.001 169.968 126.907 170.002C126.364 173.489 126.661 177 126.575 180.499C126.396 187.23 126.575 193.979 125.347 200.646C125.273 201.047 125.101 201.476 125.568 201.772C129.269 204.103 132.203 207.404 135.858 209.796" fill="#E42D10"/>
<path d="M149.783 203.572C149.783 203.638 149.763 203.704 149.758 203.77C149.549 206.667 149.549 206.667 146.885 206.111C146.529 206.885 146.394 207.749 145.728 208.395C145.317 208.799 144.745 209.394 145.251 209.94C145.826 210.56 146.48 209.967 147.018 209.625C147.676 209.168 148.359 208.748 149.063 208.366C149.466 208.165 149.923 207.813 150.341 208.226C150.648 208.535 150.459 208.995 150.353 209.372C149.736 211.618 149.22 213.885 148.741 216.162C148.527 217.067 148.439 217.996 148.48 218.924L151.83 223.706C153.02 223.261 154.408 223.246 155.285 222.127C156.367 220.309 157.6 218.585 158.972 216.973C159.001 214.752 159.574 212.631 160.156 210.511C159.694 210.021 159.665 209.407 159.793 208.839C160.577 205.291 160.039 201.608 160.936 198.08C159.952 195.722 158.097 194.013 156.529 192.088C156.411 191.941 156.16 192.044 155.996 192.169C154.863 194.025 155.637 196.319 154.632 198.447C153.403 196.057 154.386 193.795 154.194 191.579C153.963 190.19 153.115 189.348 151.828 188.851C149.277 187.872 147.635 188.78 147.185 191.469C147.119 191.863 147.119 192.264 147.043 192.656C146.974 193.621 147.328 194.485 147.758 195.313C149.737 199.038 151.333 202.954 152.521 207C151.687 205.984 151.501 204.194 149.78 203.572" fill="#E73615"/>
<path d="M147.796 188.342C147.909 188.115 148.113 187.889 148.126 187.657C148.195 186.148 148.34 184.643 150.227 184.371C151.947 184.126 153.587 185.35 154.203 187.152C155.007 187.348 155.484 186.856 155.948 186.337C156.248 185.429 155.609 184.829 155.199 184.172C152.304 179.54 149.733 174.728 147.157 169.917C146.939 169.51 146.73 169.099 146.968 168.597C148.163 168.58 148.317 170.118 149.426 170.118C150.102 169.968 150.34 169.383 150.655 168.876C150.855 168.458 151.109 168.068 151.412 167.716C152.294 166.873 153.378 165.882 154.548 166.379C155.865 166.932 155.336 168.391 155.054 169.415C154.403 171.761 154.317 174.312 152.761 176.359C152.874 177.422 153.203 178.357 154.275 178.842C155.096 178.597 155.049 177.831 155.204 177.216C155.722 175.149 156.371 173.117 156.868 171.043C157.234 169.513 158.082 168.247 159.057 167.047C159.318 166.673 159.303 166.158 159.795 165.698C160.443 166.648 161.286 167.38 162.535 167.062C163.255 166.881 163.941 166.572 163.801 165.593C162.869 164.66 161.884 163.769 161.018 162.777C160.237 161.881 159.325 162.214 158.44 162.348C154.356 162.963 150.266 163.159 146.152 162.637C145.56 163.059 145.388 163.707 145.297 164.351C144.86 167.476 144.498 170.612 142.94 173.45C142.753 173.793 142.788 174.219 142.766 174.613C142.94 177.796 143.913 180.735 145.385 183.524C147.047 184.207 147.479 185.46 147.049 187.113C147.111 187.627 147.28 188.078 147.787 188.337" fill="#EA421B"/>
<path d="M182.919 201.742C182.892 199.827 182.747 197.927 183.848 196.159C184.605 194.947 183.779 193.726 183.435 192.55C183.325 192.171 182.875 191.659 182.351 192.129C181.007 193.353 178.815 193.873 178.911 196.292C178.955 197.286 178.692 198.251 178.532 199.23C178.286 200.758 178.778 201.872 181.135 201.598C180.044 202.198 179.874 203.534 178.522 202.655C178.006 202.32 177.33 202.82 177.367 203.363C177.439 204.445 176.694 205.513 177.335 206.58L182.083 204.502C182.692 203.717 182.987 202.736 182.912 201.747" fill="#E3290F"/>
<path d="M163.7 197.186C162.449 200.93 163.059 204.867 162.498 208.694C162.412 209.284 162.437 209.918 163.287 210.021C163.213 208.291 163.702 206.583 164.683 205.153C165.108 206.733 164.479 208.285 165.814 209.382C167.962 207.352 167.062 204.304 168.247 201.708C168.883 203.376 167.868 204.646 168.087 206.02C168.198 206.701 168.163 207.45 169.038 207.528C169.807 207.594 170.267 207.022 170.454 206.346C170.727 205.325 171.036 204.284 171.083 203.239C171.211 200.344 172.612 197.795 173.201 195.031C173.614 193.104 172.587 191.772 170.69 191.87C170.198 191.892 169.992 191.569 169.667 191.358C168.166 190.379 167.153 190.837 166.912 192.614C166.593 194.997 165.947 197.325 165.826 199.754C164.917 198.655 165.487 197.55 165.654 196.454C165.725 195.964 165.949 195.295 165.352 195.009C164.86 194.764 164.583 195.415 164.17 195.592C163.656 196.018 164.234 196.767 163.678 197.181" fill="#E2290E"/>
<path d="M136.393 195.305C135.499 195.947 135.838 197.455 134.277 197.46C133.641 197.46 133.727 198.684 134.073 199.132C134.42 199.58 135.437 199.355 135.624 198.966C136.143 197.881 137.435 196.904 136.393 195.293" fill="#EA411B"/>
<path d="M158.63 210.878C159.47 210.726 160.296 211.057 160.431 210.048C160.522 209.37 160.323 208.963 159.554 208.772C158.411 208.486 158.755 207.416 158.907 206.769C159.419 204.585 160.136 202.45 161.365 200.531C161.628 200.119 162.375 199.703 161.741 199.243C161.107 198.782 159.974 199.049 159.829 199.585C159.222 201.865 157.524 203.863 158.131 206.493C158.352 207.46 158.067 208.594 157.816 209.605C157.553 210.658 157.622 211.179 158.632 210.878" fill="#EF5928"/>
<path d="M143.245 174.874C143.056 173.422 144.194 172.45 144.592 171.202C145.484 168.408 145.575 165.484 146.167 162.632C142.828 161.704 139.48 160.803 136.153 159.833C135.265 159.574 134.432 159.098 133.589 158.726C132.275 160.149 132.009 164.037 133.221 166.238C133.57 164.375 135.187 165.129 136.212 164.583C136.991 164.169 136.816 165.137 136.883 165.585C136.996 166.378 136.91 167.37 138.232 166.765C139.146 166.351 138.804 167.108 138.903 167.455C139.193 168.454 139.394 169.48 140.884 168.633C141.727 168.156 141.734 168.853 141.555 169.407C141.171 170.599 141.183 171.748 141.8 172.864C143.029 172.996 142.046 174.708 143.253 174.86" fill="#E73514"/>
<path d="M148.077 218.295C148.965 214.794 149.853 211.293 150.741 207.793C150.844 207.384 150.94 206.966 150.451 206.787C150.202 206.688 149.932 206.649 149.665 206.674C149.397 206.7 149.139 206.788 148.913 206.931L144.961 209.422C145.207 207.774 147.718 207.36 146.482 205.479C146.276 203.765 145.851 203.587 144.487 204.5C143.069 205.453 142.928 207.081 142.57 208.457C142.186 209.926 141.832 211.52 142.044 213.109C144.305 214.554 146.406 216.172 148.077 218.295Z" fill="#E32A0F"/>
<path fill-rule="evenodd" clip-rule="evenodd" d="M129.817 156.07C127.9 153.913 122.522 150.276 122.173 150.325C121.682 150.396 118.939 161.013 118.386 163.548C117.487 167.688 115.641 173.42 112.527 176.525C109.133 179.902 100.731 183.78 98.1157 185.34C95.9972 186.62 106.059 190.004 107.914 191.633C109.17 192.734 110.863 191.143 112.07 192.306C112.22 192.446 116.002 189.794 116.494 188.019C118.214 182.015 119.996 186.939 122.913 181.351C123.788 179.676 126.226 173.516 127.882 172.536C129.999 171.283 129.888 166.346 131.028 163.658C132.119 161.082 133.889 158.886 130.846 158.166" fill="#EA411B"/>
<path d="M156.374 222.811C156.413 223.435 153.943 223.055 155.728 224.451C156.04 224.696 155.357 225.088 155.017 225.22C153.398 225.842 154.587 226.216 155.126 226.652C154.327 227.673 154.41 228.856 154.971 229.835C155.971 231.574 157.128 233.263 159.276 233.831C160.682 234.512 162.203 234.054 163.658 234.265C166.522 235.509 169.311 234.444 172.076 233.873C173.152 233.65 174.504 233.719 175.293 232.61C175.922 232.208 176.637 232.005 177.075 231.251C178.058 229.537 179.476 229.463 181.036 230.543C186.898 228.249 192.912 226.351 198.638 223.714C198.392 222.049 197.35 220.69 196.856 219.111C196.568 218.185 196.389 217.424 196.945 216.54C197.91 215.005 197.652 213.7 196.192 212.507C195.023 211.552 194.43 210.166 194.199 208.673C194.069 207.828 194.022 206.915 194.973 206.486C195.925 206.058 196.537 206.753 197.058 207.443C197.632 208.235 198.07 209.116 198.353 210.051C198.699 211.122 199.365 212.062 200.262 212.745C200.641 213.036 201.054 213.442 201.572 213.112C202.037 212.813 202.029 212.272 201.99 211.78C201.909 210.835 201.349 210.1 200.889 209.317C200.542 208.729 199.545 208.168 199.857 207.642C200.4 206.736 201 205.683 202.204 205.365C202.958 205.164 203.693 204.909 204.197 204.27C204.497 203.896 204.858 203.506 204.489 202.97C204.383 202.877 204.254 202.814 204.116 202.786C202.204 202.612 201.263 202.15 199.692 200.619C199.59 200.522 199.46 200.46 199.319 200.443C199.179 200.426 199.038 200.456 198.916 200.526L198.208 201.077C197.687 201.687 198.168 202.253 198.291 202.83C198.414 203.408 198.537 203.981 197.967 204.331C197.301 204.735 196.76 204.331 196.318 203.859C195.701 203.205 195.217 202.424 194.416 201.954C188.063 204.04 181.636 205.945 175.703 209.113C175.032 209.471 174.354 209.821 173.681 210.176C173.054 211.293 173.944 211.978 174.418 212.823C174.418 212.933 174.401 212.874 174.273 212.691C173.663 211.821 172.951 210.732 171.776 211.4C170.653 212.042 171.166 213.278 171.493 214.255C172.118 216.114 173.125 217.796 174.157 219.627C173.123 217.97 172.292 216.341 170.992 215.054C170.331 214.395 169.653 213.34 168.534 214.023C167.374 214.73 167.755 215.815 168.259 216.802C168.416 217.113 168.52 217.451 168.586 217.536C168.094 216.79 167.819 215.656 167.247 214.679C166.966 214.204 166.959 213.364 166.018 213.572C162.167 215.996 158.524 218.636 156.359 222.806" fill="#E9401A"/>
<path d="M133.623 211.917C132.168 213.051 132.276 214.894 131.608 216.383C131.074 217.596 130.651 218.855 130.345 220.144C130.037 221.4 128.954 221.498 128.236 221.253C127.194 220.896 128.069 220.085 128.31 219.539C128.892 218.195 129.583 216.9 130.185 215.565C130.507 214.85 130.758 214.096 129.86 213.55C128.841 212.94 128.401 213.871 128.027 214.407C125.707 217.811 123.743 221.442 122.166 225.244C121.693 226.329 121.288 227.442 120.954 228.577C120.708 229.417 120.976 229.889 122.035 229.591C123.687 229.125 124.967 228.386 125.407 226.564C125.746 225.159 126.405 223.871 127.602 222.269C127.487 223.921 127.149 225.549 126.597 227.11C126.427 227.575 126.24 228.09 126.648 228.484C127.098 228.927 127.563 228.565 127.998 228.369C128.833 227.994 129.693 227.634 129.983 226.64C131.173 222.571 133.409 218.886 134.419 214.748C134.601 214.013 134.958 213.303 134.832 212.507L133.623 211.917Z" fill="#E73A16"/>
<path d="M138.632 214.889C137.462 214.745 136.705 215.467 136.288 216.334C135.085 218.873 134.459 221.644 134.454 224.451C134.445 224.658 134.497 224.863 134.604 225.041C135.162 225.81 139.136 225.186 139.507 224.267C140.134 222.722 140.714 221.158 141.348 219.615C141.594 219.049 141.726 218.499 141.159 218.121C140.468 217.661 140.188 218.256 139.878 218.734C139.701 219.008 139.527 219.409 139.084 219.165C138.726 218.964 138.718 218.599 138.861 218.251C139.278 217.245 138.971 216.177 139.146 215.149L138.64 214.889" fill="#E73B17"/>
<path d="M106.975 225.379C107.221 224.872 107.481 224.375 107.346 223.78C106.233 218.883 108.801 214.679 110.005 210.222C112.832 208.89 112.775 205.678 114.412 203.577C115.078 202.722 115.751 201.706 117.115 201.863C116.899 201.692 116.69 201.373 116.466 201.373C114.935 201.295 113.471 201.633 112.564 199.591C112.207 198.785 110.875 200.142 110.45 200.93C109.301 203.089 108.417 205.377 107.818 207.747C108.845 208.836 108.995 210.026 108.386 211.4C107.403 213.636 106.864 216.052 105.704 218.231C105.073 219.412 104.055 220.281 102.871 221.209C102.178 220.161 102.534 219.228 102.682 218.312C102.758 217.849 103.092 217.303 102.591 216.956C101.996 216.544 101.554 217.063 101.116 217.387C99.6686 218.283 98.4128 219.311 98.4644 221.228C101.206 222.81 104.053 224.201 106.987 225.391" fill="#EC4D22"/>
<path d="M112.483 228.686C113.984 226.622 114.304 224.076 115.267 221.789C116.909 217.871 119.317 214.379 120.993 210.503C121.266 209.872 121.507 209.228 121.763 208.589C120.885 207.991 121.871 206.165 120.335 206.16C118.875 206.16 118.664 207.663 118.138 208.662C115.434 213.833 112.92 219.098 111.227 224.7C110.957 225.594 110.399 226.292 109.932 227.058C110.694 227.741 111.495 228.361 112.483 228.686Z" fill="#EC4C21"/>
<path d="M152.704 188.236L151.399 186.033C151.017 185.362 150.635 184.69 150.254 184.018C149.57 181.919 148.681 179.931 147.115 178.312C146.835 177.94 146.579 177.546 146.267 177.206C145.845 176.745 145.422 176.07 144.67 176.569C143.918 177.069 144.299 177.686 144.626 178.263C146.719 181.978 148.833 185.683 150.895 189.414C151.507 190.526 152.485 191.422 152.812 192.695C152.77 193.217 152.962 193.594 153.488 193.76C154.717 195.44 155.825 197.225 157.371 198.657C158.179 198.736 158.179 198.736 157.791 197.262C156.759 194.608 155.034 192.338 153.613 189.892C153.299 189.343 152.999 188.785 152.692 188.232" fill="#010000"/>
<path d="M141.753 182.644C141.63 182.051 141.537 181.451 141.375 180.871C141.07 179.791 140.773 180.545 140.48 180.891C139.836 185.163 141.124 189.091 142.692 192.952C144.203 196.681 146.024 200.268 147.905 203.824C148.841 205.197 149.78 206.569 150.969 208.309C150.104 203.035 147.551 198.89 145.752 194.463C145.609 194.132 145.469 193.802 145.327 193.469C145.179 192.271 144.899 191.128 143.992 190.242C142.884 187.832 142.13 185.275 141.756 182.651" fill="#020000"/>
<mask id="mask0_13076_1341" style="mask-type:alpha" maskUnits="userSpaceOnUse" x="74" y="0" width="207" height="135">
<path d="M216.719 127.209C204.345 123.806 191.036 111.541 182.702 110.263C174.368 108.984 116.71 89.7167 102.013 72.283C87.3165 54.8493 93.2271 57.8365 87.1027 57.1852C80.9783 56.5339 55.6155 30.2854 98.1448 45.9586C140.674 61.6318 138.968 46.8033 144.444 39.2863C149.92 31.7692 182.21 3.19951 197.558 5.51584C212.906 7.83217 242.656 37.0483 257.694 27.2419C272.732 17.4354 252.405 17.9373 249.488 7.16371C245.148 -8.86697 254.715 6.33365 267.232 11.123C280.464 16.1842 284.47 13.503 274.192 32.5626C262.422 54.3939 253.263 55.2974 239.191 52.5158C225.118 49.7343 214.735 44.6045 213.172 54.531C211.609 64.4574 202.68 80.0759 201.164 83.5112C199.647 86.9465 212.123 99.7218 221.315 107.122C230.507 114.523 240.614 127.975 236.164 133.2C231.713 138.425 216.719 127.209 216.719 127.209Z" fill="url(#paint0_linear_13076_1341)"/>
</mask>
<g mask="url(#mask0_13076_1341)">
<path d="M72.1241 -3.53247L282.831 -3.53247L282.831 143.068L72.1241 143.068L72.1241 -3.53247Z" fill="url(#paint1_linear_13076_1341)"/>
<path d="M126.552 58.2688C125.097 59.4025 125.206 61.2462 124.537 62.735C124.003 63.9482 123.581 65.207 123.274 66.4959C122.967 67.752 121.883 67.85 121.165 67.6051C120.123 67.2476 120.998 66.4372 121.239 65.8911C121.821 64.5469 122.512 63.2516 123.114 61.9171C123.436 61.2022 123.687 60.448 122.79 59.902C121.77 59.2923 121.33 60.2227 120.956 60.759C118.636 64.1626 116.672 67.7939 115.095 71.5963C114.622 72.6811 114.218 73.7941 113.883 74.9287C113.637 75.7686 113.905 76.2412 114.965 75.9425C116.616 75.4772 117.897 74.7378 118.336 72.916C118.676 71.5106 119.334 70.2226 120.531 68.6213C120.416 70.2726 120.078 71.9009 119.526 73.4621C119.356 73.9273 119.17 74.4415 119.578 74.8357C120.027 75.2789 120.492 74.9165 120.927 74.7206C121.762 74.346 122.623 73.9861 122.913 72.992C124.102 68.9225 126.338 65.2374 127.349 61.0993C127.53 60.3648 127.887 59.6547 127.761 58.8589L126.552 58.2688Z" fill="#9548C6"/>
<path d="M270.309 2.81055C267.221 5.19454 267.45 9.07174 266.031 12.2023C264.898 14.7537 264.001 17.4007 263.35 20.1112C262.697 22.7527 260.397 22.9586 258.873 22.4437C256.661 21.692 258.518 19.9876 259.03 18.8394C260.266 16.0126 261.732 13.2888 263.01 10.4826C263.694 8.97907 264.226 7.39316 262.322 6.24493C260.157 4.96282 259.223 6.91945 258.43 8.04708C253.504 15.2044 249.335 22.8408 245.987 30.8366C244.984 33.1179 244.125 35.4583 243.414 37.8444C242.893 39.6105 243.461 40.6043 245.71 39.9761C249.216 38.9978 251.934 37.4428 252.868 33.6119C253.588 30.6564 254.986 27.948 257.527 24.5806C257.283 28.0531 256.565 31.4772 255.393 34.7602C255.033 35.7385 254.637 36.8198 255.503 37.6488C256.458 38.5807 257.444 37.8187 258.367 37.4067C260.141 36.619 261.967 35.862 262.583 33.7715C265.108 25.2139 269.855 17.4646 272 8.7628C272.386 7.2181 273.142 5.7249 272.876 4.05148L270.309 2.81055Z" fill="#9548C6"/>
<path d="M161.483 57.0806C161.696 56.6574 162.08 56.2387 162.103 55.8064C162.232 53.0032 162.505 50.2045 166.055 49.6994C169.29 49.2443 172.373 51.5196 173.533 54.8689C175.045 55.233 175.942 54.3183 176.815 53.3536C177.379 51.6653 176.177 50.5504 175.405 49.3308C169.96 40.7209 165.126 31.7789 160.282 22.8369C159.87 22.0815 159.477 21.317 159.926 20.3841C162.172 20.3522 162.463 23.21 164.548 23.21C165.819 22.9324 166.267 21.8448 166.859 20.9029C167.235 20.1254 167.714 19.4001 168.283 18.7458C169.942 17.1804 171.98 15.3374 174.181 16.2612C176.658 17.2896 175.664 20.0018 175.133 21.904C173.908 26.2635 173.746 31.0053 170.82 34.8097C171.033 36.7846 171.652 38.523 173.668 39.424C175.211 38.9689 175.123 37.5446 175.415 36.4024C176.39 32.5616 177.61 28.7846 178.544 24.9302C179.233 22.086 180.827 19.7333 182.662 17.5035C183.152 16.8073 183.125 15.8516 184.049 14.9961C185.269 16.7617 186.855 18.1224 189.203 17.5308C190.557 17.1941 191.847 16.6207 191.583 14.8004C189.831 13.0666 187.978 11.4102 186.351 9.56717C184.881 7.90163 183.166 8.52052 181.502 8.7708C173.82 9.91302 166.129 10.2771 158.391 9.30778C157.277 10.0905 156.954 11.2964 156.783 12.4932C155.96 18.2999 155.28 24.1293 152.35 29.4035C151.999 30.0406 152.063 30.8324 152.022 31.565C152.35 37.4809 154.18 42.9417 156.949 48.1249C160.074 49.3945 160.887 51.7244 160.078 54.7961C160.194 55.7518 160.513 56.5891 161.465 57.0715" fill="#AF4E98"/>
<path d="M236.866 35.3917C233.708 32.218 233.844 28.5147 235.035 24.5958C235.179 24.1469 234.75 23.4915 234.583 22.9349L229.499 20.3403C224.596 24.8293 224.086 24.7305 220.572 18.8276C219.67 17.3193 219.34 15.6629 219.007 13.993C213.548 10.4916 208.302 6.72096 203.691 2.13777C202.108 1.8819 201.887 3.20162 201.648 4.13532C200.619 7.86561 199.352 11.5825 199.843 15.5507C200.008 16.9322 199.735 18.3303 199.063 19.5503C199.013 17.7547 199.194 15.9098 197.024 15.2589C194.989 16.5741 195.382 18.8814 194.768 20.7713C193.974 23.1863 193.194 25.2602 189.784 24.717C187.709 24.3893 186.256 25.9964 185.304 27.8189C185.154 28.6749 185.348 29.5555 185.845 30.2698C189.269 35.9124 192.486 41.6807 196.162 47.1751C198.12 47.3098 198.057 48.4455 197.773 49.9807C197.43 51.8301 196.69 54.8108 198.883 55.0487C201.558 55.336 200.534 52.1847 200.867 50.4655C201.377 47.8305 201.77 45.173 202.221 42.5246C202.636 40.132 203.637 38.8437 206.213 40.2801C206.98 40.6976 207.842 40.7874 208.667 41.0118C211.193 41.6896 212.511 43.4179 211.771 45.9496C209.855 52.2458 208.301 58.6454 207.115 65.1173C206.962 66.0151 206.664 67.3124 205.383 67.0341C204.404 66.8231 204.594 65.656 204.58 64.8255C204.639 63.9731 204.747 63.1248 204.905 62.2848C205.045 60.772 205.757 58.55 203.84 58.2448C202.248 57.9799 202.09 60.2244 201.846 61.6294C201.571 63.1961 201.269 64.7717 201.016 66.3203C200.804 67.6176 200.682 68.9868 199.433 70.1449C198.431 69.1618 198.738 67.8735 198.49 66.7692C198.31 65.9612 198.341 64.8839 197.299 64.7178C196.144 64.5338 195.558 65.4989 195.138 66.3787C194.069 68.6232 193.785 71.0607 193.469 73.4847C192.743 76.0344 192.332 78.6424 191.845 81.2325C191.579 82.6331 191.241 84.0965 192.486 85.2726C200.845 77.6414 210.738 72.7036 221.379 69.1124C221.792 67.9659 222.053 66.7708 222.155 65.5572C222.223 63.9816 222.814 62.9896 224.641 63.2589C225.909 63.4474 226.698 62.6035 227.429 61.7821C228.408 60.6733 228.724 59.5915 226.847 59.0887C224.668 58.5231 224.298 57.0058 224.677 55.1385C225.056 53.2711 225.236 51.2825 225.525 49.3432C225.949 46.4748 228.232 45.4693 230.316 44.2259C231.394 43.575 231.859 44.401 232.184 45.2538C232.559 46.222 232.72 47.2591 232.656 48.2948C232.592 49.3305 232.305 50.3403 231.814 51.2555C230.462 54.0257 230.263 57.2146 231.259 60.1301C232.314 61.0549 233.37 61.9257 234.475 60.1975L236.871 35.3917" fill="#9047CE"/>
<path d="M187.38 112.322C189.932 114.85 189.822 117.8 188.86 120.922C188.743 121.279 189.09 121.802 189.224 122.245L193.333 124.312C197.297 120.736 197.709 120.815 200.549 125.517C201.278 126.718 201.544 128.038 201.814 129.368C206.226 132.157 210.466 135.161 214.192 138.812C215.472 139.016 215.65 137.965 215.844 137.221C216.675 134.249 217.699 131.288 217.302 128.127C217.169 127.027 217.39 125.913 217.933 124.941C217.973 126.372 217.827 127.841 219.581 128.36C221.225 127.312 220.908 125.474 221.404 123.969C222.045 122.045 222.676 120.393 225.433 120.825C227.11 121.086 228.284 119.806 229.053 118.354C229.175 117.672 229.017 116.971 228.616 116.402C225.848 111.907 223.249 107.312 220.277 102.935C218.695 102.828 218.746 101.923 218.976 100.7C219.253 99.2267 219.851 96.8523 218.079 96.6628C215.917 96.4339 216.744 98.9442 216.474 100.314C216.062 102.413 215.745 104.53 215.381 106.64C215.045 108.546 214.236 109.572 212.154 108.428C211.534 108.095 210.838 108.023 210.171 107.845C208.129 107.305 207.064 105.928 207.662 103.911C209.211 98.8956 210.467 93.7976 211.425 88.642C211.549 87.9268 211.789 86.8934 212.825 87.1151C213.616 87.2831 213.463 88.2129 213.474 88.8744C213.426 89.5535 213.339 90.2293 213.211 90.8984C213.098 92.1035 212.522 93.8736 214.072 94.1167C215.359 94.3277 215.486 92.5398 215.683 91.4205C215.906 90.1725 216.15 88.9173 216.354 87.6836C216.525 86.6502 216.624 85.5595 217.634 84.637C218.443 85.4201 218.195 86.4464 218.396 87.3261C218.542 87.9697 218.516 88.8279 219.358 88.9603C220.292 89.1069 220.766 88.338 221.105 87.6372C221.969 85.8492 222.199 83.9075 222.454 81.9765C223.041 79.9453 223.373 77.8678 223.766 75.8044C223.981 74.6888 224.255 73.523 223.249 72.5861C216.493 78.6652 208.497 82.5987 199.896 85.4594C199.563 86.3728 199.352 87.3248 199.269 88.2916C199.214 89.5467 198.737 90.337 197.26 90.1224C196.236 89.9722 195.598 90.6445 195.007 91.2989C194.216 92.1822 193.961 93.0439 195.477 93.4445C197.238 93.895 197.537 95.1037 197.231 96.5913C196.925 98.0788 196.779 99.663 196.546 101.208C196.203 103.493 194.358 104.294 192.674 105.284C191.802 105.803 191.427 105.145 191.164 104.465C190.861 103.694 190.731 102.868 190.782 102.043C190.834 101.218 191.066 100.414 191.463 99.6844C192.556 97.4777 192.717 94.9374 191.912 92.6148C191.058 91.8782 190.205 91.1845 189.312 92.5612L187.376 112.322" fill="#9648C4"/>
<path d="M150.679 104.059C151.534 102.316 151.099 100.372 151.549 98.5572C152.041 96.5567 153.417 94.8182 153.215 92.5802C153.176 92.1248 154.049 91.5861 154.737 90.8246C155 92.4456 155.272 93.709 154.533 94.9382C154.287 95.3251 154.1 95.6728 154.486 96.0596C154.978 96.5493 155.356 96.138 155.774 95.8784C156.914 95.1733 157.081 93.9196 157.462 92.8324C157.843 91.7453 158.027 90.5259 158.266 89.3604C158.406 88.6699 158.553 87.9231 157.897 87.4016C157.18 86.8359 156.57 87.4236 155.951 87.7076C155.703 87.836 155.461 87.9774 155.228 88.1312C154.361 85.6068 153.913 85.4378 151.77 86.8751C151.797 85.1268 152.444 83.5377 152.982 82.0025C153.815 79.6225 153.132 76.9046 154.857 74.7156C155.368 74.0692 154.896 73.0555 154.063 72.5511C153.139 71.9903 152.549 72.6784 152.114 73.2856C150.9 74.9435 150.264 76.9512 150.301 79.003C150.323 80.5676 150.254 82.0955 149.549 83.5279C149.303 84.047 149.482 85.2419 148.293 84.4927C147.607 84.0593 146.695 83.927 147.374 82.4824C149.394 78.1803 150.642 73.5746 151.913 69.0154C152.291 67.6515 152.321 65.9032 149.829 66.2313C149.072 66.3317 148.487 65.4968 147.907 65.0756C145.924 63.6604 143.81 64.2407 141.716 64.275C141.173 67.7617 141.47 71.2729 141.384 74.7719C141.205 81.503 141.384 88.2512 140.156 94.9186C140.082 95.3202 139.91 95.7487 140.377 96.0449C144.078 98.376 147.012 101.677 150.667 104.069" fill="#9949BE"/>
</g>
<path d="M13.3154 30.469L12.4675 33.0155C11.7611 35.1384 10.5666 37.0674 8.97937 38.6488C7.39209 40.2303 5.45588 41.4203 3.32518 42.1242L0.769269 42.9689C0.545415 43.0426 0.350572 43.1847 0.212463 43.375C0.0743537 43.5654 1.2e-09 43.7943 0 44.0291C-1.3e-09 44.264 0.0743537 44.4929 0.212463 44.6832C0.350572 44.8736 0.545415 45.0157 0.769269 45.0894L3.32518 45.9341C5.45588 46.6379 7.39209 47.828 8.97937 49.4094C10.5666 50.9908 11.7611 52.9199 12.4675 55.0427L13.3154 57.5892C13.3893 57.8122 13.532 58.0064 13.723 58.144C13.9141 58.2816 14.1438 58.3556 14.3796 58.3556C14.6153 58.3556 14.8451 58.2816 15.0361 58.144C15.2272 58.0064 15.3698 57.8122 15.4437 57.5892L16.2916 55.0427C16.998 52.9199 18.1925 50.9908 19.7798 49.4094C21.3671 47.828 23.3033 46.6379 25.434 45.9341L27.9899 45.0894C28.2138 45.0157 28.4086 44.8736 28.5467 44.6832C28.6849 44.4929 28.7592 44.264 28.7592 44.0291C28.7592 43.7943 28.6849 43.5654 28.5467 43.375C28.4086 43.1847 28.2138 43.0426 27.9899 42.9689L25.434 42.1242C23.3033 41.4203 21.3671 40.2303 19.7798 38.6488C18.1925 37.0674 16.998 35.1384 16.2916 33.0155L15.4437 30.469C15.3698 30.246 15.2272 30.0519 15.0361 29.9143C14.8451 29.7767 14.6153 29.7026 14.3796 29.7026C14.1438 29.7026 13.9141 29.7767 13.723 29.9143C13.532 30.0519 13.3893 30.246 13.3154 30.469Z" fill="#F0C920"/>
<path d="M37.0958 11.7496L36.538 13.4293C36.0701 14.8303 35.2803 16.103 34.2316 17.1462C33.1828 18.1894 31.9041 18.9742 30.4972 19.4381L28.8088 19.9963C28.6603 20.044 28.5308 20.1374 28.4391 20.263C28.3473 20.3886 28.2979 20.54 28.2979 20.6954C28.2979 20.8508 28.3473 21.0021 28.4391 21.1277C28.5308 21.2534 28.6603 21.3467 28.8088 21.3945L30.4972 21.9527C31.9026 22.4172 33.1798 23.2024 34.2268 24.2456C35.2739 25.2888 36.062 26.5612 36.5282 27.9615L37.0861 29.6412C37.1334 29.79 37.2269 29.9199 37.3533 30.0121C37.4796 30.1043 37.6322 30.154 37.7889 30.154C37.9455 30.154 38.0982 30.1043 38.2245 30.0121C38.3509 29.9199 38.4446 29.79 38.4918 29.6412L39.0497 27.9615C39.516 26.5608 40.3044 25.2882 41.3519 24.2449C42.3995 23.2017 43.6772 22.4167 45.0832 21.9527L46.7691 21.3945C46.9176 21.3467 47.047 21.2534 47.1387 21.1277C47.2305 21.0021 47.28 20.8508 47.28 20.6954C47.28 20.54 47.2305 20.3886 47.1387 20.263C47.047 20.1374 46.9176 20.044 46.7691 19.9963L45.0832 19.4381C43.6796 18.9723 42.4044 18.1869 41.3588 17.1443C40.3131 16.1017 39.5259 14.8305 39.0595 13.4318L38.5016 11.7521C38.4545 11.6032 38.3611 11.4731 38.2349 11.3807C38.1087 11.2883 37.9563 11.2383 37.7997 11.238C37.643 11.2378 37.4904 11.2872 37.3639 11.3792C37.2373 11.4712 37.1433 11.6009 37.0958 11.7496Z" fill="#F0C920"/>
<path d="M49.7033 44.3646L49.3272 45.4909C49.0152 46.4292 48.4874 47.2818 47.7859 47.9807C47.0844 48.6796 46.2286 49.2055 45.2869 49.5163L44.1564 49.891C44.0553 49.9213 43.9667 49.9833 43.9037 50.0678C43.8407 50.1522 43.8066 50.2546 43.8066 50.3599C43.8066 50.4651 43.8407 50.5675 43.9037 50.652C43.9667 50.7364 44.0553 50.7984 44.1564 50.8288L45.2869 51.2009C46.2285 51.5127 47.0841 52.0392 47.7855 52.7385C48.4869 53.4377 49.0149 54.2905 49.3272 55.2288L49.7033 56.3552C49.7337 56.4559 49.7959 56.5442 49.8807 56.607C49.9655 56.6697 50.0683 56.7036 50.1739 56.7036C50.2795 56.7036 50.3823 56.6697 50.4671 56.607C50.5518 56.5442 50.6141 56.4559 50.6445 56.3552L51.0181 55.2288C51.3317 54.2908 51.8603 53.4384 52.5621 52.7393C53.2638 52.0401 54.1193 51.5134 55.0609 51.2009L56.1889 50.8288C56.2901 50.7984 56.3787 50.7364 56.4417 50.652C56.5046 50.5675 56.5387 50.4651 56.5387 50.3599C56.5387 50.2546 56.5046 50.1522 56.4417 50.0678C56.3787 49.9833 56.2901 49.9213 56.1889 49.891L55.0609 49.5163C54.1189 49.2055 53.2628 48.6796 52.5609 47.9807C51.859 47.2818 51.3307 46.4292 51.0181 45.4909L50.6445 44.3646C50.6141 44.2638 50.5518 44.1755 50.4671 44.1128C50.3823 44.05 50.2795 44.0161 50.1739 44.0161C50.0683 44.0161 49.9655 44.05 49.8807 44.1128C49.7959 44.1755 49.7337 44.2638 49.7033 44.3646Z" fill="#F0C920"/>
<path d="M171.816 28.8545C173.011 30.6229 172.901 33.1695 171.538 34.2709C169.646 35.8743 166.153 35.1568 164.925 32.8888C163.74 30.8516 164.248 29.0747 166.484 27.6235C168.67 26.1517 170.229 26.4838 171.816 28.8545Z" fill="#F15928"/>
<path d="M162.519 41.5293C165.184 43.6022 164.512 47.6933 161.3 49.4715C159.151 50.6193 157.276 50.0353 155.962 47.6834C153.483 43.1932 158.607 38.3895 162.519 41.5293Z" fill="#F15928"/>
<path d="M177.643 41.5297C174.899 40.3225 174.593 36.6453 176.971 34.426C178.572 32.9774 180.312 33.0793 181.953 34.8233C185.051 38.1613 181.684 43.3973 177.643 41.5297Z" fill="#F15928"/>
<path d="M175.549 48.2442C178.036 50.1533 176.775 54.9595 173.477 56.2738C171.677 56.964 169.263 55.9588 168.56 54.1666C167.322 51.1792 169.169 47.9717 172.311 47.597C173.398 47.4647 174.368 47.3575 174.405 47.4208C174.807 47.6644 175.19 47.9398 175.549 48.2442Z" fill="#F15928"/>
<path d="M157.838 55.1861C158.855 56.8473 158.9 57.4633 158.335 59.4442C157.465 62.4886 155.95 63.5421 153.346 62.803C151.865 62.3821 151.151 61.7975 150.301 60.1817C149.677 59.0833 149.196 57.6737 149.151 57.0577C149.09 54.5642 152.797 52.2087 155.551 53.0005C156.151 53.171 157.136 54.164 157.838 55.1861Z" fill="#F15928"/>
<path d="M168.683 60.3007C169.209 61.1642 169.438 62.4915 169.235 63.2023C169.032 63.9132 168.136 64.9194 167.233 65.3782C166.367 65.9003 165.033 66.125 164.32 65.9229C163.606 65.7208 162.591 64.8296 162.13 63.93C161.604 63.0665 161.375 61.7416 161.578 61.0284C161.781 60.3151 162.676 59.3113 163.579 58.8525C164.445 58.3304 165.78 58.1057 166.493 58.3078C167.207 58.51 168.213 59.3923 168.683 60.3007Z" fill="#F15928"/>
<path d="M199.371 86.9503L197.189 84.6824C194.799 84.6046 188.899 84.2271 184.421 83.3391C179.942 82.451 163.171 77.6807 155.346 75.4066C161.093 77.9269 174.035 83.405 179.826 85.1545C185.616 86.9039 195.269 87.0807 199.371 86.9503Z" fill="#23262A"/>
<path d="M264.48 21.6772L263.459 19.6882C264.064 20.1123 265.605 20.9823 266.937 21.0696C268.269 21.1569 273.645 20.107 276.167 19.5711C274.086 20.7748 271.272 21.8578 269.388 22.3178C267.504 22.7779 265.446 22.6566 264.48 21.6772Z" fill="#23262A"/>
<path d="M215.363 45.9713L213.316 45.7537C213.412 45.0235 213.47 43.2589 212.93 42.0424C212.389 40.8259 208.961 36.5659 207.315 34.5879C209.35 35.8667 213.742 38.7869 215.025 40.2368C216.308 41.6868 215.785 44.664 215.363 45.9713Z" fill="#23262A"/>
<path d="M171.11 76.684L179.429 77.9749C177.149 77.3335 161.482 73.2646 157.339 71.4393C153.197 69.6139 137.989 60.1725 130.875 56.3761C135.952 59.8783 140.535 64.9154 145.787 67.7806C151.039 70.6458 163.784 74.7084 171.11 76.684Z" fill="#23262A"/>
</g>
<defs>
<linearGradient id="paint0_linear_13076_1341" x1="190.558" y1="110.999" x2="261.356" y2="28.3118" gradientUnits="userSpaceOnUse">
<stop stop-color="#8444E1"/>
<stop offset="1" stop-color="#AE4D97"/>
</linearGradient>
<linearGradient id="paint1_linear_13076_1341" x1="177.477" y1="102.541" x2="230.254" y2="11.4736" gradientUnits="userSpaceOnUse">
<stop offset="0.0001" stop-color="#8444E1"/>
<stop offset="1" stop-color="#AE4D97"/>
</linearGradient>
<clipPath id="clip0_13076_1341">
<rect width="280" height="265" fill="white"/>
</clipPath>
</defs>
</svg>
