<svg width="136" height="163" viewBox="0 0 136 163" fill="none" xmlns="http://www.w3.org/2000/svg">
<path d="M33.7827 16.7275L49.2827 7.22754L62.7827 2.72754L84.2827 8.72754L100.283 34.2275L112.783 61.2275V82.7275H125.783L132.283 90.7275L130.783 102.728L120.783 113.228L109.783 115.728L105.783 133.228L87.2827 149.228L72.2827 155.728L44.7827 159.228L24.2827 150.728L13.2827 135.728L5.78271 113.228L3.78271 88.2275L7.78271 66.7275L24.2827 32.2275L33.7827 16.7275Z" fill="white"/>
<path d="M128.993 98.3299C127.033 106.324 120.543 111.669 112.293 112.254C108.49 112.527 107.793 113.12 106.813 116.839C104.019 127.458 99.3084 136.972 90.2964 143.691C81.2487 150.44 70.7434 153.579 59.659 154.694C51.8453 155.481 43.9847 155.955 36.2449 153.7C31.2817 152.253 27.2218 149.689 23.9935 145.56C15.7305 134.987 10.499 123.181 8.45341 109.88C7.37582 102.872 6.72971 95.8978 7.44959 88.8293C9.40579 86.035 9.42144 82.5813 10.6175 79.5254C11.2033 78.0299 11.637 76.4673 12.5961 75.1507C14.3019 72.8079 15.9742 72.9734 17.1009 75.6134C17.7314 77.0955 18.1003 78.6692 18.3015 80.2676C18.449 81.4211 18.5787 82.5746 18.8313 83.7057C19.0728 84.7943 18.7822 86.5536 20.0475 86.6788C21.5901 86.8286 21.7019 84.9844 21.8629 83.8666C22.5403 79.1834 21.5588 74.8131 18.7285 70.9816C17.7225 69.618 16.1463 69.1485 14.4472 69.1575C13.5798 69.1642 12.6788 69.5889 11.8471 68.992C13.1572 64.2238 15.0218 59.5026 17.8387 55.6308C20.0922 52.5392 20.0028 49.2956 21.0178 46.1235C26.095 30.2429 34.6039 16.7588 50.3899 9.82666C58.4517 6.28796 67.3452 5.55921 76.0173 8.96155C79.4378 10.305 82.1966 12.4779 84.4211 15.384C92.7042 26.2169 99.684 37.8077 105.029 50.3753C109.217 60.2202 109.981 70.5926 110.071 81.0969C110.122 87.1125 111.54 88.2928 117.158 86.4463C120.565 85.3264 123.637 84.9508 126.237 87.8837C128.893 90.877 129.953 94.4134 128.993 98.3299V98.3299ZM135.195 90.8412C133.074 83.3279 126.288 77.7393 119.615 78.8548C117.149 79.2683 116.753 78.6134 116.789 76.4584C117.053 60.779 111.917 46.6645 104.323 33.2161C100.227 25.9621 95.6218 19.0747 90.7547 12.3281C86.7641 6.79317 81.5639 3.09129 75.0202 1.39682C65.4225 -1.09122 55.8404 -0.226107 46.9604 3.75745C35.5228 8.89225 27.4744 17.8519 21.2615 28.7273C17.5391 35.2481 15.9675 42.5781 12.3949 49.1682C10.3202 52.9952 8.4534 57.1509 6.98234 61.3558C4.4784 68.5114 2.43948 75.7386 1.10926 83.272C-1.54223 98.2919 0.807452 112.657 5.52917 126.76C9.18894 137.694 16.0457 146.776 23.723 155.242C24.1902 156.34 25.2432 156.726 26.1978 157.153C32.6812 160.071 39.5581 161.526 46.5535 162.447C47.9821 162.637 49.5113 163.408 50.9555 162.375C67.5195 162.337 82.3375 157.12 95.6374 147.36C97.379 146.083 98.8836 144.59 100.355 143.016C106.355 136.589 110.078 128.947 112.474 120.595C112.868 119.225 113.368 118.418 114.947 118.362C118.061 118.252 120.82 116.913 123.518 115.496C131.247 111.434 137.849 100.23 135.195 90.8412" fill="#F15928"/>
<path d="M11.8445 68.9919C16.1437 67.6216 18.822 68.7281 20.7826 72.7676C22.5779 76.4762 23.2352 80.3748 22.5466 84.4656C22.5041 84.7316 22.4571 84.9976 22.3722 85.248C21.9362 86.5401 21.3348 88.2748 20.0493 88.2279C18.6141 88.1787 18.4978 86.3143 18.2742 85.0178C17.7377 81.8658 17.7421 78.6043 16.356 75.6289C16.0252 74.9203 15.8441 73.8965 14.9923 73.7892C13.9236 73.655 13.6576 74.7973 13.2015 75.5104C11.2498 78.5797 10.3779 82.0536 9.76085 85.5632C9.48363 87.1437 8.93142 88.239 7.44694 88.8292C5.17775 88.6123 4.38409 87.1996 4.66802 85.1407C5.50863 79.0782 7.16525 73.3577 11.8445 68.9919" fill="#010101"/>
<path d="M64.8351 84.7945C64.9312 86.9584 64.721 89.0843 64.0392 91.1365C63.7284 92.0687 63.2969 93.1461 62.1344 93.0835C61.1686 93.0321 60.7527 92.0642 60.4308 91.217C59.3331 88.3265 59.2727 85.2707 59.0872 82.2506C58.9195 79.5524 58.5596 76.9325 57.3993 74.4556C56.5922 72.741 55.6577 72.7813 54.8081 74.2902C52.7737 77.9071 51.5038 81.7879 51.1819 85.948C51.1305 86.5695 51.211 87.1999 51.1707 87.8236C51.0791 89.2274 50.4553 90.325 48.9373 90.3183C47.4618 90.3138 46.7329 89.2498 46.5787 87.8683C46.2456 84.8907 46.8939 82.0025 47.4595 79.1098C47.9737 76.472 48.5662 73.8498 50.0954 71.5831C51.6447 69.2917 53.5338 67.2955 56.5542 67.452C59.5835 67.6085 61.2356 69.7724 62.4787 72.2694C64.4505 76.2216 64.6562 80.507 64.8351 84.7945" fill="#010101"/>
<path d="M62.623 109.272C63.3943 107.899 64.2841 106.916 65.44 106.211C72.366 101.993 75.7687 95.6625 76.5579 87.749C76.6764 86.5508 76.4417 84.9771 78.2257 84.9234C79.7638 84.8787 80.1171 86.2758 80.5575 87.4584C81.0046 88.6566 81.0739 89.8861 81.0605 91.1402C80.9778 98.6959 74.946 107.271 68.1161 109.524C65.6367 110.345 65.3036 110.334 62.623 109.272" fill="#010101"/>
<path d="M45.449 66.5026C45.4445 68.6487 43.03 70.7656 40.4836 70.8528C38.3328 70.9266 36.1262 69.1494 36.1486 67.361C36.1799 64.8328 38.6436 62.3581 41.1274 62.3604C43.4995 62.3626 45.4534 64.2381 45.449 66.5026" fill="#F15A29"/>
<path d="M45.259 49.6773C47.3784 49.6393 49.2497 51.4523 49.2296 53.5268C49.2072 56.0416 47.3181 58.1921 45.0601 58.2681C42.849 58.3441 41.2639 56.757 41.2103 54.412C41.1544 51.8099 42.9407 49.7221 45.259 49.6773Z" fill="#F15A29"/>
<path d="M35.5511 50.2748C35.4907 52.6735 33.7894 54.4976 31.6141 54.4954C29.4634 54.4909 27.9141 52.7115 28.0415 50.3889C28.1734 47.9299 29.9105 45.9582 31.8846 46.023C33.7603 46.0834 35.6047 48.2249 35.5511 50.2748" fill="#F15A2A"/>
<path d="M48.3225 34.4841C50.4442 34.4283 51.8616 35.7427 51.9622 37.8708C52.065 40.0213 50.5716 41.7672 48.5416 41.8723C46.7106 41.9662 44.5264 40.1219 44.4169 38.3917C44.2894 36.3932 46.1383 34.5423 48.3225 34.4841Z" fill="#F15A29"/>
<path d="M33.4513 62.1514C33.3864 64.2148 31.7499 65.8019 29.9189 65.6052C27.8621 65.3861 26.6996 64.179 26.7331 62.0486C26.7622 60.1485 28.3965 58.5904 30.214 58.805C32.2619 59.0464 33.3574 60.2893 33.4513 62.1514" fill="#F15A2A"/>
<path d="M37.9056 31.6279C37.9101 33.8253 36.4994 35.6696 34.8115 35.5399C33.2421 35.417 32.4551 34.411 32.4328 32.8842C32.4126 31.3753 34.6572 29.1331 36.0456 29.1734C37.15 29.2069 37.9012 30.1972 37.9056 31.6279" fill="#F05B2B"/>
</svg>
