<svg width="269" height="280" viewBox="0 0 269 280" fill="none" xmlns="http://www.w3.org/2000/svg">
<path d="M2.54712 177.334V154.106L2.1958 143.989V122.618V91.0436V56.9122V30.1883L3.00822 29.2705L45.3639 32.4826L80.0346 35.0392L80.7372 40.8297L81.0227 70.9406L80.3859 106.864L80.4518 134.615L80.0346 169.773L52.3244 172.439L11.857 176.7L2.41537 178.055L2.54712 177.334Z" fill="white"/>
<path d="M3.2936 31.4773L79.3758 35.8475V169.052L3.2936 175.607L3.00816 51.2306L3.2936 31.4773ZM0 28.0029L1.62484 169.358L1.47114 179.169L80.7152 170.254L81.9448 34.1431L0 28.0029Z" fill="#B9BEC6"/>
<path d="M42.5314 145.89L9.1123 147.66L9.30992 144.142L42.3118 143.202L42.5314 145.89Z" fill="#E3E5E8"/>
<path d="M70.6587 138.788L9.35384 141.279L9.1123 137.455L71.2955 136.209L70.6587 138.788Z" fill="#E3E5E8"/>
<path d="M70.5711 132.451L9.354 134.614L9.41988 130.725L70.4393 130.047L70.5711 132.451Z" fill="#E3E5E8"/>
<path d="M52.3243 164.813L9.1123 168.484V154.04L52.3243 152.052V164.813Z" fill="#E3E5E8"/>
<path d="M40.9505 160.158L20.3765 161.426V160.399V159.088L41.0603 158.17L40.9505 160.158Z" fill="white"/>
<path opacity="0.75" d="M12.4496 117.374L13.5475 120.04H16.4898L14.2501 122.094L15.326 124.716L12.6692 123.186L10.3856 124.782L11.0663 122.094L8.80469 120.28H11.6811L12.4496 117.374Z" fill="#E3E5E8"/>
<path opacity="0.75" d="M20.9473 117.636L21.9354 120.04H24.8777L22.638 122.094L23.8896 125.131L21.0571 123.186L18.7735 124.782L19.4542 122.094L17.478 120.28H20.069L20.9473 117.636Z" fill="#E3E5E8"/>
<path opacity="0.75" d="M29.4448 117.898L30.3231 120.04L32.98 120.302L31.0258 122.094L31.9919 124.432L29.4448 123.186L26.8978 124.956L27.842 122.094L25.9756 120.586L28.4568 120.28L29.4448 117.898Z" fill="#E3E5E8"/>
<path opacity="0.75" d="M37.9201 117.068L38.7325 119.843L41.6748 120.127L39.2376 121.941L40.05 124.672L37.5469 122.902L35.1315 124.257L36.0757 121.635L34.0117 119.624L36.8662 119.909L37.9201 117.068Z" fill="#E3E5E8"/>
<path opacity="0.75" d="M46.4177 117.374L47.2301 120.127L50.1724 120.411L47.7571 122.225L48.5695 124.956L46.0664 123.186L43.6291 124.541L44.5733 121.919L42.5093 119.931L45.1661 119.909L46.4177 117.374Z" fill="#E3E5E8"/>
<path d="M8.32194 111.824L8.12433 107.847L8.36586 98.0576L7.86084 50.4004L74.6331 53.0881L74.2818 61.1293L74.6331 110.906L64.6425 111.409L55.3326 111.168L8.32194 111.802V111.824ZM10.0346 52.6948V109.923L19.6519 109.486L72.4154 108.765L72.9424 56.7591V54.7706L10.0566 52.6948H10.0346Z" fill="#D5D8DD"/>
<path d="M74.2596 46.8168L65.0815 46.9479L64.9937 45.9209L74.2596 46.0739V46.8168Z" fill="#E3E5E8"/>
<path d="M74.2596 44.6969L64.9937 44.5003L65.0815 43.7573L65.0595 43.5825L74.2596 43.4951V44.6969Z" fill="#E3E5E8"/>
<path d="M74.1499 42.2062L65.0815 42.0314L64.9937 40.8296L74.2596 41.2666L74.1499 42.2062Z" fill="#E3E5E8"/>
<path d="M13.7674 46.7951C10.408 46.7951 7.94873 44.0418 7.94873 41.0264C7.94873 38.0328 10.6934 35.5854 14.0748 35.5854C17.4343 35.5854 20.7718 37.5739 20.7499 40.5675C20.7499 43.5611 17.1269 46.7732 13.7674 46.7732V46.7951Z" fill="#E3E5E8"/>
<path d="M42.3339 70.9406C36.5811 70.9406 35.1977 65.4122 35.1758 65.3467L35.8784 65.1719C35.9223 65.3685 37.3276 69.9791 42.3339 69.9791C43.9148 69.9791 45.1444 69.5421 45.9788 68.7118C47.1864 67.4881 47.5378 65.7619 47.5378 65.74L48.1526 65.7837C48.1526 65.7837 48.1965 67.8596 46.6814 69.3891C45.6494 70.438 44.2002 70.9624 42.3339 70.9624V70.9406Z" fill="#9FBDF4"/>
<path d="M53.4002 99.4997L30.1913 99.3031L30.1254 80.9044L27.4686 83.6577L20.2007 75.9005L32.387 64.0791L51.0068 65.1498L62.3588 76.9931L56.8036 83.0022L52.8073 80.2708L53.4002 99.5216V99.4997ZM31.7942 98.0357L52.0388 98.1231L52.1267 78.1731L56.584 81.2322L60.2509 76.9931L50.5896 66.0894L32.892 65.412L20.9472 75.9005L27.4905 81.7566L31.0037 78.763L31.7942 98.0794V98.0357Z" fill="#E3E5E8"/>
<path d="M268.795 248.807C264.952 235.668 211.807 236.4 189.889 236.4L124.869 237.132C113.903 237.132 45.2319 237.132 45.2319 249.539C45.2319 259.957 104.931 261.676 113.91 259.025C105.424 268.85 113.441 275.1 124.877 277.265C137.283 280.733 150.868 276.294 156.035 272.68C160.933 278.46 177.475 281.265 191.36 279.454C208.164 277.265 209.912 271.139 211.815 267.047C219.161 271.624 272.646 261.938 268.803 248.807H268.795Z" fill="#DCDCDC"/>
<path d="M117.013 197.7C115.75 196.875 114.403 196.105 113.24 195.142C112.277 194.363 111.453 194.417 110.437 195.041C107.002 197.06 103.429 198.763 99.6166 199.819C97.0059 200.544 94.3028 200.782 91.6922 201.607C91.0145 201.792 90.3907 201.553 89.8516 201.037C88.7888 200.073 88.2498 198.817 87.8262 197.469C87.5875 196.644 87.1023 196.159 86.2398 196.544C83.2441 197.839 80.0019 197.808 76.8675 198.178C75.5198 198.378 74.6419 198.948 74.0643 200.197C72.6165 203.379 71.8387 206.762 71.6539 210.299C71.5076 212.812 72.863 214.592 74.6034 216.241C80.2175 221.458 86.3014 226.043 93.063 229.657C93.6405 229.272 92.6779 228.933 93.063 228.493C94.3105 226.944 95.5273 225.311 97.4141 224.44C98.138 224.101 98.3767 224.586 98.3382 225.211C98.2381 226.035 97.9994 226.806 98.0533 227.623C98.1072 228.301 97.9994 229.172 98.731 229.557C99.4087 229.896 100.032 229.318 100.518 228.933C102.451 227.337 103.706 225.265 104.43 222.891C105.007 221.057 105.639 219.269 106.363 217.535C107.141 215.701 107.241 213.867 106.463 212.033C106.178 211.355 106.309 210.685 106.463 210.045C107.141 207.487 108.103 205.075 109.359 202.755C109.597 202.27 109.936 201.884 110.321 201.491C110.999 200.767 111.623 200.567 112.262 201.592C113.224 203.14 114.826 203.187 116.613 203.241C114.341 204.928 113.14 207.148 112.162 209.567C111.484 211.301 110.614 212.95 109.127 214.16C107.864 215.123 107.526 216.672 107.102 218.021C106.378 220.24 105.6 222.413 105.03 224.687C104.253 227.53 104.014 230.389 104.592 233.287C104.776 234.111 104.491 234.635 104.014 235.175C105.562 235.999 107.102 236.862 108.65 237.687C109.998 236.623 110.483 234.982 110.876 233.533C111.553 231.075 112.562 228.802 113.486 226.428C115.512 221.211 118.176 216.326 120.548 211.263C120.787 210.723 121.126 210.253 121.657 209.999C122.235 209.76 122.866 209.76 123.105 210.438C123.49 211.548 123.983 212.611 123.49 213.875C122.142 217.104 120.541 220.202 118.854 223.199C116.682 227.06 114.795 231.075 113.633 235.367C113.194 236.916 112.616 238.411 111.407 239.521C114.256 241.07 117.206 242.418 120.34 243.243C121.403 243.528 121.888 243.913 121.164 244.977C121.018 245.215 120.879 245.462 120.779 245.747C118.892 250.14 119.278 251.642 123.244 254.432C124.068 255.002 124.068 255.256 123.344 255.927C121.272 258 121.318 260.897 123.29 263.117C123.914 263.795 124.399 264.465 124.838 265.336C125.562 266.731 126.809 267.656 128.311 268.133C129.713 268.573 130.875 269.343 132.169 269.921C134.195 270.83 136.027 272.094 138.022 273.104C140.394 274.314 143.043 273.974 145.122 272.479C151.021 268.187 157.883 265.629 163.867 261.521C164.545 261.036 164.976 261.337 165.515 261.706C167.925 263.494 170.351 265.274 172.762 267.062C173.925 267.933 175.226 268.457 176.674 268.657C177.683 268.804 178.745 269.043 179.708 269.482C183.905 271.47 188.356 271.031 192.607 270.152C194.933 269.667 197.244 268.942 199.654 268.603C201.679 268.364 202.603 266.769 202.265 264.735C202.111 263.81 201.826 262.901 201.541 261.737C204.205 262.516 206.854 262.415 209.465 262.277C210.343 262.223 211.206 262.223 212.03 261.938C213.716 261.313 214.979 260.204 215.164 258.216C215.349 256.096 215.164 254.008 214.486 251.989C214.001 250.494 212.985 249.377 211.637 248.552C209.311 247.103 206.901 245.894 204.336 244.884C203.951 244.738 203.374 244.738 203.32 244.26C203.266 243.636 203.943 243.636 204.336 243.435C211.537 240.638 218.683 237.733 225.93 235.082C237.089 231.029 246.7 224.556 255.887 217.219C259.176 214.561 260.762 211.093 260.67 206.832C260.67 206.346 260.57 205.868 260.67 205.383C261.294 200.79 257.435 198.193 253.908 197.846C249.411 197.461 244.975 197.307 240.57 198.617C238.783 199.156 236.897 199.241 235.056 199.195C232.26 199.095 229.642 199.68 227.131 200.883C225.145 201.846 223.073 202.532 221.279 203.826C220.74 205.945 221.333 207.063 223.45 207.695C224.074 207.88 224.713 208.18 225.291 208.465C226.015 208.804 226.839 208.905 227.463 208.411C229.011 207.248 230.797 207.117 232.584 206.862C233.408 206.716 234.186 206.624 235.195 206.092C234.371 207.202 233.454 207.641 232.484 207.926C231.136 208.365 230.212 209.274 229.534 210.484C228.995 211.409 228.995 212.172 229.773 212.943C230.351 213.513 230.836 214.206 231.221 214.877C231.606 215.555 231.845 216.279 231.798 217.05C231.798 217.489 231.852 217.975 231.359 218.16C230.92 218.36 230.535 218.059 230.197 217.82C229.134 217.05 228.356 215.986 227.925 214.777C227.54 213.667 227.047 212.557 226.423 211.54C225.938 210.769 225.36 210.045 224.536 209.606C223.035 208.835 221.541 209.606 221.487 211.293C221.34 213.852 222.064 216.125 223.951 217.913C225.738 219.601 226.361 221.342 224.96 223.615C224.282 224.725 224.721 225.935 225.06 227.099C225.545 228.547 226.323 229.896 226.893 231.291C227.378 232.354 227.078 232.978 226.015 233.41C222.927 234.758 219.777 236.022 216.589 237.178C212.961 238.527 209.342 239.79 205.715 241.185C204.752 241.571 203.928 241.671 202.965 241.285C201.225 240.607 200.016 240.9 198.815 242.449C198.191 243.227 197.513 243.944 196.589 244.437C196.011 244.776 195.526 245.262 195.68 246.032C196.219 246.518 196.743 246.132 197.313 245.986C197.937 245.832 198.661 245.701 199.053 246.271C200.74 248.729 203.451 249.708 205.815 251.203C206.639 251.689 207.455 252.166 208.225 252.752C208.764 253.137 209.188 253.577 209.488 254.101C210.697 256.12 209.973 257.484 207.648 257.722C203.789 258.108 200.94 256.274 198.422 253.661C196.781 251.927 195.472 251.727 193.886 253.561C191.221 256.698 191.56 258.008 193.647 260.612C194.556 261.722 195.719 262.685 196.597 264.18C194.656 263.795 193.07 264.28 191.622 265.344C190.944 265.829 190.274 265.683 189.635 265.197C188.133 264.088 186.685 264.188 185.338 265.382C184.66 265.96 184.036 265.868 183.366 265.482C181.864 264.573 180.278 264.088 178.53 263.887C176.689 263.702 175.295 262.593 173.94 261.375C173.216 260.751 172.492 260.111 171.668 259.641C171.329 259.495 170.944 259.356 170.744 259.017C170.559 258.678 170.066 258.447 170.459 258.008C170.944 257.568 171.522 257.43 172.107 257.137C175.781 255.149 179.154 252.744 181.633 249.307C182.018 248.768 182.981 248.822 182.935 247.959C180.948 246.695 178.776 246.664 176.558 247.134C174.433 248.922 172.061 250.317 169.597 251.581C166.462 253.176 163.459 255.064 160.748 257.322C159.731 258.146 158.676 258.871 157.46 259.341C152.677 261.275 148.472 264.118 144.121 266.831C143.582 267.17 143.105 267.555 142.573 267.84C141.272 268.611 140.925 268.465 140.348 267.116C139.67 265.382 138.461 264.704 136.62 265.136C135.511 265.421 134.687 265.282 134.01 264.311C133.471 263.587 132.662 263.248 131.738 263.248C130.475 263.248 129.666 262.862 129.274 261.599C128.989 260.689 128.111 260.15 127.202 259.479C128.604 258.801 130.005 258.47 131.314 258.031C132.177 257.746 133.055 257.491 133.879 257.121C135.481 256.397 135.766 255.048 134.703 253.638C133.494 252.089 131.853 251.319 129.967 250.98C128.858 250.795 127.695 250.594 126.678 250.016C125.377 249.338 125.277 248.622 126.293 247.558C127.641 246.109 129.428 245.57 131.314 245.439C133.879 245.293 136.189 244.514 138.322 243.22C141.172 241.432 144.306 240.946 147.594 240.808C151.453 240.661 155.28 240.083 159.092 239.513C162.28 239.028 165.276 238.018 168.364 237.24C168.511 236.369 168.803 235.552 169.712 235.167C169.866 235.121 169.997 234.928 169.951 234.828C169.412 233.564 170.474 232.84 170.913 231.884C170.39 231.16 170.96 230.289 170.528 229.565C169.851 229.418 169.65 230.004 169.366 230.389C167.964 232.323 166.131 232.901 163.952 232.123C163.713 232.308 163.667 232.947 163.027 232.408C161.965 231.445 160.802 230.574 159.839 229.511C155.781 225.064 151.145 221.396 145.831 218.599C140.995 216.04 136.274 213.282 132.208 209.521C129.505 207.063 126.694 204.689 123.844 202.37C122.058 200.921 120.171 199.665 118.284 198.316C117.768 197.931 117.383 197.777 116.944 197.677L117.013 197.7Z" fill="#EF5928"/>
<path d="M176.397 247.212C177.021 247.212 177.698 247.258 178.33 247.212C179.932 246.973 181.279 247.697 182.727 248.083C183.636 248.761 184.753 248.568 185.777 248.422C188.488 248.036 191.237 247.643 193.94 247.127C194.618 246.981 195.388 246.981 195.673 246.164C195.911 245.386 196.296 244.869 197.121 244.569C197.744 244.33 198.283 243.844 198.668 243.174C199.777 241.386 200.94 241.001 202.819 241.779C203.828 242.218 204.652 242.018 205.669 241.625C209.196 240.23 212.815 238.966 216.342 237.664C219.87 236.369 223.389 234.959 226.831 233.418C227.509 233.133 227.655 232.74 227.37 231.923C226.647 229.904 225.384 228.155 224.96 226.028C224.775 225.103 224.675 224.194 225.299 223.416C226.562 221.921 226.123 219.509 224.521 218.145C222.496 216.357 221.625 214.137 221.625 211.479C221.625 210.608 221.91 210.13 222.642 209.791C223.366 209.452 224.044 209.691 224.629 210.231C226.131 211.525 226.754 213.328 227.378 215.108C227.917 216.657 229.018 217.767 230.328 218.676C231.152 219.247 231.876 218.777 231.968 217.713C232.207 216.025 231.429 214.669 230.42 213.421C229.935 212.843 228.972 212.311 229.203 211.633C229.588 210.469 230.22 209.314 231.475 208.736C232.638 208.196 233.886 207.911 234.864 206.948C235.349 206.509 235.403 206.123 235.249 205.453C233.508 206.848 231.383 206.516 229.504 207.002C228.726 207.187 228.056 207.387 227.478 207.926C226.654 208.651 225.738 208.751 224.868 208.081C224.382 207.741 223.859 207.541 223.32 207.402C221.433 206.863 220.994 206.293 221.148 204.359C221.148 204.174 221.148 203.973 220.994 203.873C218.198 204.744 215.349 205.661 212.53 206.532C208.38 207.595 204.46 209.329 200.547 211.124C198.422 212.088 196.296 213.059 194.31 214.307C193.686 215.317 193.008 216.095 191.607 216.141C190.598 216.195 189.966 217.636 190.259 218.746C190.544 219.909 190.937 221.019 191.368 222.082C189.196 219.085 187.841 218.699 185.808 220.734C185.369 220.349 185.268 219.624 184.699 219.339C184.075 219.054 183.49 219.193 182.958 219.524C178.461 222.368 174.21 225.465 171.314 230.097C170.975 230.621 170.59 231.106 170.59 231.784C170.544 232.023 170.49 232.27 170.205 232.324C169.243 232.509 168.557 232.809 169.481 233.973C170.059 234.697 169.242 234.936 168.757 235.136C167.879 235.576 167.456 236.061 168.272 236.924C167.594 239.144 167.987 241.17 169.381 243.105C170.783 245.039 172.377 246.672 174.795 247.258C175.396 247.297 175.873 247.582 176.405 247.212H176.397Z" fill="#E93F19"/>
<path d="M207.094 173.226C206.994 173.126 206.909 173.072 206.809 172.988C205.931 172.263 205.168 172.448 204.445 173.226C204.206 173.465 203.959 173.712 203.721 173.897C202.558 174.721 201.98 174.675 201.01 173.658C200.001 172.548 199.169 171.246 198.838 169.751C198.599 168.88 198.453 167.863 197.629 167.293C193.717 164.68 189.897 161.937 186.231 158.939C185.022 159.04 184.984 160.103 184.83 160.827C184.152 163.825 182.858 166.769 183.621 170.005C183.082 169.381 182.743 168.557 181.788 168.842C180.925 169.081 180.54 169.805 180.34 170.63C180.155 171.5 180.055 172.417 179.716 173.288C178.938 175.307 178.792 175.507 176.628 175.507C175.327 175.507 174.356 176.047 173.632 177.103C172.909 178.166 172.855 179.276 173.532 180.339C175.858 184.007 177.83 187.868 180.294 191.451C180.579 191.891 180.871 192.361 181.303 192.615C181.927 193 182.211 193.578 182.365 194.264C182.905 194.888 182.989 195.559 182.851 196.383C182.751 196.869 182.612 197.393 182.851 197.878C183.189 198.263 183.189 198.888 183.675 199.142C184.298 198.857 184.16 198.271 184.252 197.793C184.537 195.805 184.83 193.832 185.176 191.852C185.361 190.789 185.754 189.864 186.478 189.055C186.193 187.945 186.578 187.321 187.587 187.46C188.935 187.644 190.29 187.945 191.445 188.808C192.069 189.247 192.793 189.818 192.023 190.742C193.424 192.576 193.132 194.564 192.408 196.537C191.584 198.949 190.721 201.415 190.236 203.927C189.951 205.661 189.997 207.449 189.358 209.144C189.073 209.869 188.873 210.739 187.91 210.593C186.848 210.439 186.848 209.483 186.848 208.705C186.848 208.166 187.002 207.642 187.086 207.156C187.24 206.532 187.371 205.862 187.325 205.168C187.271 204.582 187.471 203.719 186.701 203.619C185.923 203.519 185.823 204.39 185.739 204.968C185.5 206.262 185.253 207.58 185.115 208.929C185.015 210.038 184.776 211.102 184.206 212.065C184.021 212.35 183.821 212.689 183.482 212.643C182.997 212.643 182.905 212.204 182.758 211.872C182.473 211.148 182.519 210.377 182.473 209.599C182.419 209.114 182.473 208.536 181.849 208.435C181.272 208.335 181.072 208.875 180.833 209.26C180.255 210.37 179.924 211.579 179.77 212.782C179.716 213.406 179.485 213.652 178.892 213.267C178.453 213.413 178.353 213.807 178.315 214.192C178.076 215.456 177.776 216.704 177.591 217.96C177.437 218.785 177.537 219.555 178.168 220.179C178.553 220.465 178.992 220.364 179.331 220.079C181.695 218.191 184.306 216.642 186.917 215.147C187.156 215.001 187.402 214.808 187.541 214.577C188.657 213.413 190.105 212.789 191.507 212.165C193.917 211.102 196.343 209.992 198.907 209.221C199.346 208.297 199.092 207.233 199.346 206.278C199.585 205.353 199.924 204.783 200.979 205.168C201.657 205.407 202.281 205.268 202.866 204.829C203.775 204.004 203.69 203.334 202.627 202.81C200.994 202.032 200.694 201.461 201.079 199.627C201.364 198.464 201.564 197.308 201.464 196.106C201.364 194.418 202.288 193.208 203.636 192.337C204.175 191.952 204.799 191.659 205.322 191.228C206.046 190.604 206.485 190.658 206.963 191.613C207.741 193.262 208.126 194.711 207.109 196.491C206.385 197.755 205.946 199.25 206.331 200.783C206.616 202.047 207.209 203.057 208.742 202.956C209.905 202.517 209.65 201.461 209.805 200.598C210.089 199.335 209.959 198.04 209.989 196.776C210.089 194.888 210.228 193.008 210.328 191.12C210.567 190.295 210.513 189.525 209.65 189.001C209.412 188.854 209.265 188.515 209.312 188.23C209.65 186.882 209.027 185.857 208.349 184.801C207.864 184.023 208.01 183.152 208.164 182.289C208.449 180.64 208.449 179.152 207.255 177.742C206.431 176.779 206.77 175.569 207.101 174.459C207.286 174.059 207.587 173.673 207.101 173.234L207.094 173.226Z" fill="#E9431B"/>
<path d="M101.897 175.884C101.119 176.994 99.7711 177.233 98.7083 177.819C96.7753 178.882 94.7961 179.891 92.9094 181.055C91.9005 181.679 91.9852 182.219 92.763 182.889C93.3021 183.328 93.872 183.76 94.4958 184.099C97.6841 185.648 100.872 187.235 104.107 188.777C104.153 188.777 104.207 188.777 104.253 188.83C105.701 190.426 107.588 190.379 109.474 190.179C110.298 190.079 110.922 190.665 111.646 190.765C111.931 190.564 112.224 190.426 112.509 190.225C112.994 189.686 113.618 189.354 114.249 189.062C114.434 188.676 114.788 188.437 115.127 188.137C116.336 187.073 117.299 185.817 117.738 184.184C118.315 182.065 119.478 180.516 121.889 180.323C122.666 180.269 123.19 179.737 123.721 179.313C125.269 177.04 126.571 174.682 127.68 172.162C128.019 171.438 128.304 170.714 128.843 170.143C129.028 169.473 129.52 168.88 129.721 168.209C129.905 167.585 130.398 167.585 130.884 167.485C131.03 165.89 131.892 164.726 133.109 163.716C134.118 162.846 134.611 161.644 134.996 160.434C135.62 157.436 136.059 154.438 137.168 151.595C137.607 150.431 138.284 149.422 138.615 148.212C139.193 146.224 139.155 145.993 137.506 144.783C137.222 144.598 136.967 144.397 136.783 144.105C134.757 141.161 131.862 139.134 129.382 136.668C128.373 135.744 127.256 135.019 126.047 134.395C125.423 134.056 124.884 134.11 124.399 134.68C122.851 138.302 122.035 142.17 121.065 145.977C119.617 151.718 117.93 157.374 115.605 162.776C114.496 165.335 113.094 167.708 110.968 169.542C109.467 170.891 108.019 172.301 106.094 173.01C105.608 174.019 104.353 174.019 103.629 174.744C103.144 174.844 102.805 175.083 102.366 175.283C102.328 175.499 101.989 175.591 101.889 175.884H101.897Z" fill="#EA401A"/>
<path d="M134.896 160.434C134.118 162.122 133.209 163.671 131.661 164.726C130.645 165.451 130.937 166.56 130.884 167.57C130.645 169.119 130.699 170.668 130.83 172.201V173.211C129.867 176.979 130.291 180.84 130.152 184.708C129.967 190.31 129.767 195.959 128.704 201.461C128.465 202.709 128.804 203.48 129.867 204.22C133.155 206.439 136.051 209.098 139.054 211.71C140.217 212.82 141.519 213.691 143.067 214.168C143.891 214.022 144.076 213.344 144.129 212.673C144.283 208.766 145.238 205.098 146.694 201.515C146.979 200.845 146.979 200.12 147.033 199.396C147.087 198.91 147.218 198.471 147.518 198.101C147.703 197.916 147.857 197.616 148.196 197.762C148.434 197.862 148.434 198.147 148.434 198.386C148.488 199.596 148.488 200.744 147.995 201.908C147.757 202.532 147.51 203.203 148.18 203.742C148.904 204.281 149.628 203.981 150.252 203.503C150.976 202.879 151.553 202.155 151.938 201.23C152.762 199.111 153.34 196.884 153.579 194.61C153.34 193.262 153.094 191.898 151.938 191.043C151.792 191.043 151.653 191.089 151.499 191.143C150.876 191.328 150.29 191.921 149.659 191.921C148.881 191.867 148.881 190.958 148.45 190.472C147.826 189.802 147.102 189.648 146.224 189.902C145.015 190.241 144.923 190.141 145.161 188.893C145.215 188.553 145.315 188.214 145.4 187.929C146.563 184.986 147.187 181.888 147.472 178.751C147.572 177.488 148.049 176.393 148.773 175.322C149.597 174.028 149.312 172.664 148.095 171.839C146.933 171.061 145.631 171.3 144.707 172.563C142.866 175.076 141.996 177.919 142.042 181.017C142.042 182.951 141.989 184.839 141.118 186.573C140.88 187.058 140.88 187.783 140.009 187.536C139.332 187.297 138.8 186.912 138.846 186.088C138.893 185.217 139.232 184.4 139.57 183.629C141.642 179.383 142.759 174.891 144.106 170.398C144.545 168.949 145.069 167.501 145.215 165.952C145.4 164.064 144.676 163.108 142.851 163.008C141.788 162.954 140.91 162.623 140.148 161.898C139.085 160.935 137.776 160.349 136.29 160.164C135.889 160.064 135.366 160.01 134.88 160.45L134.896 160.434Z" fill="#E22C11"/>
<path d="M182.443 194.233C182.782 193.694 182.681 193.07 182.258 192.838C180.61 192.014 179.986 190.326 179.07 188.97C177.183 186.072 175.596 183.029 173.71 180.131C172.547 178.297 174.195 175.924 176.459 175.924C177.861 175.924 179.208 175.978 179.747 174.328C180.132 173.165 180.371 171.955 180.71 170.807C180.764 170.66 180.71 170.522 180.764 170.368C180.91 169.689 181.341 169.258 181.973 169.073C182.797 168.834 182.751 169.751 183.182 170.036C183.521 170.275 183.128 170.907 183.76 171.246C183.914 170.622 184.199 170.036 184.045 169.512C183.321 166.229 184.822 163.286 185.446 160.234C185.546 159.695 185.885 159.309 186.27 158.97C184.337 157.283 182.412 155.541 180.471 153.854C180.325 154 180.286 154.139 180.232 154.339C180.086 156.173 178.685 156.897 177.098 155.988C176.713 155.749 176.42 155.449 176.082 155.164C175.458 154.678 174.834 154.724 174.534 155.402C173.756 157.136 172.308 158.485 171.638 160.319C170.776 162.638 170.39 165.097 169.613 167.47C169.228 168.58 168.835 169.743 168.65 170.899C168.596 171.285 168.504 171.678 168.026 171.77C167.541 171.87 167.202 171.531 166.963 171.184C166.286 170.275 166.286 169.296 166.779 168.341C168.511 165.058 169.004 161.436 169.674 157.907C170.059 155.888 168.273 154.624 166.247 155.449C164.846 156.027 163.837 157.136 163.013 158.392C162.728 158.832 162.489 159.317 162.135 159.687C161.596 160.311 161.026 160.365 160.402 159.872C160.248 159.772 160.117 159.633 159.963 159.487C159.478 159.001 158.947 158.192 158.177 158.662C157.252 159.232 157.838 160.157 158.177 160.835C159.678 164.018 161.511 167.062 163.198 170.16C165.084 173.681 167.11 177.164 169.281 180.547C169.466 180.886 169.667 181.225 169.72 181.611C169.821 182.235 169.574 182.72 169.043 183.059C168.465 183.399 168.034 183.005 167.741 182.574C167.117 181.611 166.394 180.686 165.277 180.2C164.553 179.861 163.675 179.33 163.051 180.439C162.905 181.164 163.39 181.703 163.729 182.273C165.277 185.032 166.817 187.729 168.465 190.434C168.75 190.92 168.95 191.498 169.628 191.544C170.544 191.058 171.176 191.305 171.854 192.083C173.255 193.732 174.857 195.266 175.866 197.254C176.351 198.217 176.205 198.988 175.627 199.997C173.894 203.134 172 206.324 172.778 210.185C172.963 211.248 172.724 212.258 172.493 213.267C172.008 215.34 172.254 215.725 174.28 216.111C175.057 216.265 175.057 216.689 174.903 217.22C174.464 218.815 174.226 220.503 173.979 222.152C173.879 222.776 173.74 223.362 174.164 223.94C174.218 223.994 174.264 224.04 174.264 224.04C175.866 223.077 177.599 222.306 178.415 220.418C177.837 219.455 177.791 218.484 178.076 217.421C178.461 216.126 178.654 214.762 178.954 213.46C179.678 212.396 179.678 211.186 179.632 210.031C179.578 207.657 179.917 205.299 180.017 202.926C180.179 199.82 180.895 196.884 182.443 194.225V194.233Z" fill="#EF5928"/>
<path d="M134.896 160.434C137.068 160.334 139.055 160.873 140.549 162.553C141.226 163.278 142.15 163.324 143.059 163.324C144.7 163.324 145.47 164.249 145.085 165.782C143.637 171.808 141.996 177.804 139.432 183.506C139.147 184.13 138.893 184.801 138.708 185.525C138.323 186.874 139.332 188.137 140.695 188.184C141.18 188.184 141.319 187.898 141.473 187.513C142.251 185.294 142.774 183.121 142.682 180.701C142.535 177.857 143.506 175.299 145.054 172.926C145.493 172.255 146.016 171.477 147.079 171.631C148.096 171.777 148.666 172.402 149.051 173.265C149.235 173.704 149.336 174.135 149.004 174.475C147.318 176.309 147.264 178.628 146.979 180.855C146.74 182.974 146.201 185.063 145.431 187.035C145.092 187.999 144.992 188.97 144.753 189.933C144.569 190.757 144.907 190.757 145.477 190.503C145.662 190.449 145.862 190.403 146.016 190.303C147.703 189.625 148.042 189.732 148.766 191.366C149.205 192.376 149.543 192.915 150.552 191.936C150.991 191.497 151.815 191.651 152.1 191.012C152.485 190.048 151.862 189.278 151.577 188.453C150.314 184.831 149.305 181.163 149.551 177.295C149.605 176.671 149.497 176.031 149.936 175.461C150.475 175.8 150.421 176.332 150.514 176.809C150.999 179.368 151.423 181.98 152.3 184.438C152.84 185.987 153.409 187.482 154.326 188.831C154.711 189.409 155.004 190.095 155.204 190.765C156.552 196.036 159.401 200.667 161.342 205.63C161.388 205.776 161.488 205.869 161.58 205.969C162.643 206.647 163.467 207.564 164.045 208.682C164.283 209.121 164.484 209.845 165.107 209.506C165.647 209.221 165.392 208.581 165.208 208.057C163.806 204.104 162.358 200.143 160.371 196.421C159.447 194.687 158.346 192.938 158.585 190.765C158.685 189.941 158.769 189.17 158.97 188.353C159.255 187.189 159.894 186.365 160.995 185.995C161.534 185.795 162.104 185.656 162.343 185.032C162.058 183.483 161.465 182.088 160.117 181.125C159.339 181.51 159.439 182.335 159.293 182.959C159.193 183.398 159.393 183.922 158.854 184.307C158.369 183.729 158.515 183.044 158.569 182.373C158.623 180.971 158.23 179.761 156.967 178.936C156.19 178.451 155.758 177.642 155.366 176.763C154.018 173.581 152.755 170.336 152.701 166.768C152.316 165.659 152.023 164.495 151.199 163.586C150.522 162.808 150.814 161.752 150.814 160.827C150.814 160.388 150.961 160.003 150.999 159.563C151.099 158.353 150.76 158.014 149.651 158.3C148.404 158.639 147.718 158.199 147.48 157.005C147.295 156.08 146.802 155.556 145.793 155.71C144.915 155.81 144.83 155.225 144.73 154.547C144.545 152.998 144.345 152.859 142.844 152.952C141.881 153.005 140.903 153.052 140.133 153.63C139.509 154.115 139.255 153.815 139.07 153.19C138.531 151.256 138.731 149.337 139.255 147.449C139.401 146.871 139.794 146.286 139.494 145.662C138.531 145.084 137.607 144.498 136.644 143.928C136.259 144.652 136.929 144.698 137.322 144.852C138.67 145.392 138.623 146.347 138.338 147.511C137.953 149.06 136.991 150.355 136.498 151.903C135.812 154.778 135.135 157.583 134.896 160.426V160.434Z" fill="#EF5928"/>
<path d="M152.631 166.992C152.531 171.099 154.133 174.721 155.866 178.335C156.051 178.72 156.351 179.059 156.744 179.26C158.246 179.984 158.484 181.279 158.384 182.727C158.384 183.013 158.284 183.298 158.284 183.598C158.284 184.222 158.523 185.047 159.062 185.093C159.84 185.147 159.786 184.269 159.786 183.645C159.786 182.82 159.971 182.049 160.325 181.325C160.664 180.647 160.178 180.161 159.886 179.637C158.438 177.179 157.137 174.667 155.689 172.201C155.504 171.862 155.304 171.523 155.15 171.192C154.965 170.752 154.765 170.282 155.304 169.897C155.789 169.558 156.212 169.797 156.605 170.136C157.768 171.299 158.777 172.648 159.693 174.043C160.756 175.638 161.48 177.38 162.204 179.16C162.389 179.699 162.489 180.423 163.313 180.454C164.137 179.529 164.915 180.215 165.538 180.601C166.362 181.086 166.986 181.81 167.479 182.674C167.818 183.344 168.357 183.984 169.166 183.498C169.943 183.059 170.667 182.489 170.228 181.325C169.843 180.262 169.166 179.391 168.58 178.528C165.053 173.026 162.158 167.13 158.969 161.436C158.631 160.865 158.43 160.226 158.192 159.602C158.091 159.317 158.091 159.031 158.338 158.831C158.623 158.646 158.877 158.831 159.116 159.031C159.162 159.078 159.262 159.178 159.316 159.216C160.918 161.389 161.88 161.336 163.374 158.592C164.052 157.382 165.061 156.473 166.324 155.833C167.148 155.394 168.011 155.448 168.734 155.934C169.458 156.419 169.558 157.197 169.312 158.107C168.434 161.675 168.103 165.397 166.224 168.679C165.646 169.689 166.039 170.999 167.102 171.916C167.441 172.201 167.679 172.54 168.211 172.301C168.734 172.101 168.888 171.816 169.035 171.292C169.813 168.155 170.683 164.965 171.545 161.829C172.031 159.995 172.947 158.392 174.21 156.997C174.749 156.427 174.449 155.309 175.273 155.109C176.097 154.924 176.335 156.034 177.013 156.373C178.122 156.912 179.039 156.858 180.109 156.219C181.272 155.548 180.548 154.624 180.548 153.807C179.585 153.236 178.861 152.412 178.222 151.533C177.344 150.139 176.197 149.599 174.495 149.884C168.157 151.048 161.788 151.233 155.412 150.123C155.265 150.077 155.127 150.123 154.973 150.123C154.973 150.223 154.919 150.362 154.973 150.408C156.713 151.133 156.274 152.528 156.135 153.876C155.75 157.159 155.458 160.542 153.864 163.539C153.263 164.603 152.778 165.759 152.639 166.976L152.631 166.992Z" fill="#E9431B"/>
<path d="M152.624 166.992C153.448 165.004 154.557 163.17 155.234 161.151C156.197 157.968 156.397 154.631 156.782 151.403C156.828 150.832 156.628 150.778 156.243 150.678C155.804 150.578 155.327 150.524 154.942 150.139C151.707 149.214 148.465 148.251 145.184 147.341C143.837 146.956 142.435 146.563 141.172 145.846C140.687 145.608 140.209 145.361 139.724 145.846C138.608 148.505 138.122 151.164 139.047 154.007C139.331 154.878 139.385 155.402 140.294 154.392C141.303 153.229 142.859 153.622 144.152 153.468C144.691 153.414 144.591 154.192 144.591 154.678C144.537 155.887 144.691 156.851 146.332 156.227C146.817 156.042 147.156 156.28 147.194 156.851C147.248 157.136 147.348 157.39 147.433 157.675C147.872 159.224 148.211 159.463 149.705 158.885C150.868 158.446 151.006 158.885 150.868 159.895C150.583 161.682 150.044 163.516 151.83 165.011C152.331 165.297 152.185 166.36 152.616 166.984L152.624 166.992Z" fill="#E63412"/>
<path d="M103.884 235.175C104.808 235.074 104.993 234.689 104.846 233.726C104.407 230.882 104.361 228.07 105.185 225.172C106.063 221.989 107.21 218.892 108.235 215.763C108.389 215.378 108.52 214.938 108.858 214.7C110.83 213.351 111.654 211.27 112.586 209.143C113.51 207.071 114.473 204.797 116.783 203.742C117.022 203.641 117.307 203.587 117.168 203.302C117.114 203.117 116.829 202.963 116.629 202.917C116.09 202.863 115.566 202.863 115.027 202.863C113.726 202.863 112.755 202.324 112.178 201.129C111.692 200.12 111.069 200.12 110.291 200.844C108.119 202.825 107.441 205.622 106.479 208.18C106.24 208.851 105.855 209.529 105.801 210.353C105.801 211.178 105.655 211.848 106.186 212.727C106.81 213.69 106.764 215.239 106.286 216.195C104.546 219.816 104.115 224.024 101.496 227.206C101.111 227.692 100.718 228.216 100.233 228.555C99.6941 228.894 99.0704 229.665 98.6006 229.279C98.1616 228.94 98.0615 228.016 98.1616 227.291C98.2617 226.567 98.5005 225.796 98.6006 225.072C98.7469 224.109 98.0615 223.523 97.2529 223.962C95.1813 225.026 93.7258 226.76 92.4166 228.64C92.2318 228.979 93.1405 229.125 92.9018 229.703C95.0273 231.352 97.4916 232.316 99.9098 233.471C101.257 234.057 102.613 234.597 103.868 235.167L103.884 235.175Z" fill="#EB4D23"/>
<path d="M142.92 213.984C141.758 213.259 140.595 212.489 139.447 211.764C136.113 209.206 132.924 206.493 129.636 203.889C127.611 202.294 125.724 200.56 123.598 199.111C122.72 198.541 122.821 197.616 123.021 196.737C123.36 195.05 123.075 193.308 123.46 191.621C123.56 191.235 123.514 190.75 123.121 190.457C122.882 190.511 122.497 190.557 122.497 190.642C122.212 192.044 122.012 190.642 121.573 190.596C121.473 192.53 120.464 194.364 120.995 196.391C121.234 197.315 120.811 197.354 120.133 197.354C119.07 197.3 118.061 197.454 117.029 197.693C124.091 202.425 130.175 208.366 136.837 213.583C139.547 215.702 142.689 217.105 145.639 218.7C151.053 221.597 155.689 225.412 159.801 229.858C160.71 230.868 161.827 231.746 162.889 232.601C163.128 232.802 163.413 233.141 163.767 232.94C164.106 232.702 163.713 232.316 163.767 232.016C163.428 230.328 162.266 229.118 161.303 227.808C160.579 226.845 159.855 225.92 159.131 225.011C156.96 222.453 154.441 220.38 151.592 218.592C149.228 216.997 146.471 215.987 144.106 214.3C143.729 214.038 143.259 214.276 142.92 213.991V213.984Z" fill="#FCFCFC"/>
<path d="M123.075 190.51C122.921 192.922 122.736 195.342 122.59 197.746C122.536 198.471 122.636 199.01 123.313 199.434C126.74 201.653 129.736 204.451 132.971 206.963C135.096 208.612 136.983 210.585 139.447 211.741C138.238 210.091 136.552 209.036 134.996 207.78C133.209 206.285 131.523 204.682 129.482 203.534C129.097 203.349 128.804 202.994 128.904 202.47C129.628 199.372 129.813 196.19 130.206 193.061C130.445 190.688 130.36 188.33 130.491 185.956C130.676 182.573 130.545 179.19 130.591 175.823C130.591 174.952 131.076 174.174 130.83 173.311C130.106 176.308 128.558 178.913 126.671 181.186C124.322 183.883 123.406 187.02 123.075 190.495V190.51Z" fill="#EF5928"/>
<path d="M111.284 239.522C111.862 239.036 112.632 238.951 112.971 237.926C114.557 233.195 116.059 228.417 118.616 224.117C120.302 221.274 121.704 218.276 123.252 215.332C124.076 213.783 124.176 212.288 123.637 210.755C123.452 210.215 123.352 209.491 122.528 209.46C121.365 209.414 120.503 210.084 120.156 211.009C119.139 214.053 117.206 216.665 115.959 219.609C114.172 223.901 112.047 228.063 110.699 232.501C110.121 234.335 109.297 236.023 108.527 237.772C109.367 238.474 110.175 239.198 111.292 239.529L111.284 239.522Z" fill="#EB4C22"/>
<path d="M128.959 45.2593C130.507 43.4253 132.247 44.5349 133.88 45.0204C135.712 46.2303 137.353 47.6328 138.955 49.1277C139.679 49.7982 140.695 49.9523 141.619 49.3666C142.497 48.8272 142.682 47.9718 142.628 46.9932C142.582 46.369 142.389 45.7833 142.05 45.2593C140.603 42.9398 138.762 41.0518 136.013 40.3814C134.372 39.8034 132.724 39.318 130.938 39.2178C126.926 39.4567 124.176 41.7299 123.499 45.3441C123.214 46.893 123.452 48.2878 124.846 49.251C125.524 49.5362 126.148 49.5362 126.787 49.251C127.226 49.0122 127.665 48.8118 127.95 48.4265C128.373 47.3785 128.758 46.369 128.951 45.2593H128.959Z" fill="#010101"/>
<path d="M178.43 220.357C177.267 221.806 175.534 222.53 174.372 223.979C172.585 225.474 171.237 227.261 170.459 229.481C170.459 230.251 169.35 231.13 170.644 231.754C173.64 226.683 177.945 223.069 182.82 219.971C183.397 219.632 183.929 219.201 184.66 219.432C185.723 219.478 186.393 218.708 187.171 218.222C189.497 216.827 192.092 216.003 194.418 214.5C199.878 211.556 205.576 209.183 211.375 207.064C211.76 206.91 212.253 206.91 212.484 206.524C211.375 206.424 209.635 206.964 209.874 205.029C210.028 203.635 209.535 202.271 209.974 200.822C210.359 199.527 210.159 198.109 209.874 196.769C209.689 198.217 209.489 199.666 209.335 201.161C209.281 201.885 209.096 202.456 208.426 202.81C208.187 203.049 207.987 203.35 207.941 203.681C207.841 205.954 206.393 206.964 204.414 207.449C202.627 208.32 200.74 208.998 198.9 209.769C195.473 211.318 191.892 212.427 188.411 213.922C187.972 214.107 187.487 214.207 187.202 214.647C184.175 216.296 181.279 218.268 178.43 220.349V220.357Z" fill="#FCFCFC"/>
<path d="M207.093 173.227C207.04 174.236 206.316 175.115 206.37 176.224C206.416 176.995 206.416 177.673 206.947 178.112C208.249 179.276 208.01 180.671 207.771 182.073C207.532 183.522 207.432 184.87 208.595 186.034C209.034 186.473 209.134 186.997 208.934 187.629C208.649 188.5 208.595 189.317 209.758 189.648C210.536 189.887 210.043 190.658 210.243 191.143C211.352 187.421 212.084 183.653 212.708 179.892C212.993 178.004 212.654 176.556 210.821 175.6C209.558 174.914 208.449 173.851 207.093 173.227Z" fill="#EF5928"/>
<path d="M197.614 167.285C198.438 168.734 198.392 170.522 199.354 171.97C199.739 172.51 200.078 173.08 200.463 173.62C201.965 175.454 202.735 175.554 204.475 173.766C205.153 173.042 205.823 172.602 206.801 173.088C206.416 172.417 205.738 172.024 205.061 171.693C202.635 170.136 200.124 168.688 197.614 167.285Z" fill="#EF5929"/>
<path d="M123.783 179.353C122.621 179.638 121.458 179.892 120.356 180.316C118.755 180.886 117.892 182.304 117.507 183.784C117.022 185.618 116.005 186.966 114.658 188.13C114.319 188.415 114.219 188.7 114.273 189.093C118.223 186.642 121.319 183.275 123.783 179.353Z" fill="#F05A2A"/>
<path d="M124.507 134.642C125.385 134.103 126.055 134.642 126.732 135.081C127.641 135.652 128.465 136.291 129.482 136.677C128.519 135.228 127.541 133.779 126.586 132.33C126.44 132.092 126.301 131.791 125.962 131.791C125.523 131.791 125.439 132.176 125.385 132.469C125.285 133.294 124.846 133.964 124.507 134.642Z" fill="#F05C2E"/>
<path d="M130.822 172.217C130.822 170.668 130.822 169.119 130.868 167.586C130.683 167.347 130.529 167.1 130.244 166.715C129.759 167.979 128.896 168.888 128.943 170.237C129.428 169.612 129.905 168.942 130.444 168.164C130.922 169.566 130.383 170.961 130.822 172.225V172.217Z" fill="#EF5930"/>
<path d="M106.194 172.987C107.103 173.326 107.696 172.648 108.266 172.162C109.228 171.338 110.592 170.898 111.061 169.558C109.421 170.667 107.788 171.831 106.187 172.987H106.194Z" fill="#EE582E"/>
<path d="M103.93 175.006C104.369 174.521 104.939 174.282 105.563 174.043C106.002 173.858 106.672 173.758 106.186 172.979C105.362 173.365 104.585 173.804 103.915 174.374C103.73 174.613 103.73 174.814 103.93 174.998V175.006Z" fill="#EE582E"/>
<path d="M178.138 151.541C178.577 152.651 179.301 153.475 180.463 153.814C179.786 152.944 179.016 152.219 178.138 151.541Z" fill="#EF5928"/>
<path d="M128.92 170.175C128.142 170.66 127.711 171.284 127.757 172.194C128.335 171.67 128.62 170.945 128.92 170.175Z" fill="#EF5930"/>
<path d="M127.757 48.4502C127.472 48.7353 127.134 48.9896 126.849 49.2747C127.187 49.4212 127.757 48.9357 127.811 49.66C127.911 49.5136 127.958 49.4212 128.05 49.2747C128.15 48.9742 128.389 48.5504 127.765 48.4502H127.757Z" fill="#ECE3DF"/>
<path d="M114.28 189.116C113.456 189.17 112.879 189.502 112.54 190.28C113.218 189.979 113.842 189.694 114.28 189.116Z" fill="#F05A2A"/>
<path d="M103.945 175.014V174.39C103.406 174.575 102.883 174.775 102.498 175.26C102.937 175.206 103.46 175.114 103.945 175.014Z" fill="#F05D31"/>
<path d="M126.818 49.2666H124.885C125.524 49.8446 126.148 49.8446 126.818 49.2666Z" fill="#ECE3DF"/>
<path d="M118.331 95.919C118.754 91.3262 119.055 86.6949 119.478 82.1021C119.778 78.8656 119.725 75.5828 120.687 72.4541C121.511 69.6491 122.389 66.8364 123.259 64.0314C123.922 61.9122 124.584 59.7854 125.223 57.6739C125.3 57.4273 125.369 57.1884 125.462 56.9341V56.9187C125.839 55.7859 126.263 54.6609 126.663 53.5204C127.102 52.2566 127.51 50.9851 127.788 49.6519C127.842 49.4516 127.934 49.2666 127.934 49.0663C127.988 47.6715 128.712 46.4077 128.758 45.0129C130.059 43.5179 132.516 43.4794 134.118 44.9281C133.779 46.2227 133.34 47.4865 133.055 48.7889C132.416 51.8327 131.646 54.8766 130.652 57.8358L129.751 60.3556C129.751 60.3556 129.728 60.4327 129.713 60.4712C129.628 60.6947 129.551 60.9182 129.474 61.1494C128.596 63.5305 127.903 65.9425 127.333 68.3622C125.793 74.974 125.246 81.7399 124.969 88.5366C124.83 91.673 125.408 94.8171 125.847 97.8995C126.856 105.004 128.596 111.855 131.985 118.236C134.056 122.197 136.336 125.965 138.931 129.579C141.696 133.386 145.215 136.044 149.713 137.408C154.249 138.757 158.885 138.803 163.575 138.903C171.445 138.988 179.031 137.694 186.485 135.081C195.657 131.845 203.058 126.343 208.033 117.843C210.397 113.735 211.945 109.243 213.208 104.712C213.832 102.392 215.334 101.044 217.644 100.604C218.368 100.458 219.146 100.358 219.916 100.265C226.539 99.3945 231.899 94.3239 233.146 87.7583C233.832 84.2367 232.084 80.322 229.049 78.4802C228.171 77.9562 227.209 77.7559 226.154 77.9562C224.806 78.1951 223.489 78.6806 222.142 79.0659C217.983 80.3605 216.782 78.041 216.242 75.3439C216.158 74.9046 216.189 74.4731 216.104 74.0339C215.719 71.4215 216.004 68.7783 215.765 66.166C215.18 60.2709 214.217 54.4836 212.092 48.8813C209.627 42.4005 207.879 35.5961 203.582 29.8936C203.343 29.5546 203.158 29.1693 202.904 28.784C199.57 23.2433 196.096 17.7335 191.691 12.9018C188.457 9.37243 184.391 7.44592 179.57 7.34574C176.805 7.2995 174.056 7.34574 171.26 7.58463C167.926 7.83122 164.684 8.45541 161.734 10.0043C155.358 13.3719 149.998 18.0186 145.839 23.9137C142.466 28.6915 140.002 33.947 137.144 39.033C136.806 39.6033 136.567 40.2351 135.943 40.5665C134.203 40.2814 132.508 39.9423 130.922 39.2179C131.107 38.6477 131.346 38.0543 131.546 37.4841C134.88 27.1965 140.048 18.0726 148.265 10.8212C151.977 7.53839 155.804 4.50221 160.44 2.66817C166.886 0.109763 173.694 -0.229303 180.471 0.109763C186.254 0.394887 191.329 2.80688 195.681 6.67531C199.069 9.7115 201.526 13.5799 204.044 17.3482C205.885 20.0915 207.617 22.9428 209.404 25.7478C209.843 25.5474 209.843 25.1621 209.943 24.877C210.467 22.9428 211.683 21.6482 213.516 20.8699C215.827 19.8604 218.299 19.8064 220.663 20.4306C222.403 20.9161 223.797 21.9256 224.675 23.7596C225.738 26.0329 227.386 28.0519 228.349 30.3714C229.126 32.1053 230.189 32.4058 231.776 32.1053C231.876 32.1053 231.976 32.0667 232.076 32.0667C234.964 31.72 237.821 33.2149 239.176 35.8273C239.461 36.4669 239.754 36.5979 240.378 36.3667C241.587 35.8273 242.942 35.6963 244.205 36.0816C249.419 37.669 254.155 40.3276 256.627 45.3057C259.423 51.0005 259.661 57.173 257.351 63.2146C255.125 68.9556 251.837 74.2727 252.13 80.7921C252.276 83.8282 251.644 86.8721 251.945 89.916C252.422 95.0868 253.731 100.15 254.548 105.266C255.757 112.895 256.82 120.486 256.535 128.246C256.334 133.617 255.657 138.88 255.418 144.236C255.372 145.446 255.179 146.694 254.209 147.519C252.907 148.628 251.745 149.931 250.197 150.701C246.385 152.736 242.557 154.809 238.653 156.743C233.917 159.101 228.841 160.704 224.306 163.493C220.293 165.967 216.335 168.572 212.369 171.084C211.791 171.469 211.152 171.908 210.428 172.047C209.566 172.247 208.788 172.047 208.256 171.323C207.733 170.598 207.733 169.774 208.256 169.049C208.641 168.579 209.034 168.086 209.466 167.655C213.678 163.162 218.699 159.694 224.152 156.843C232.276 152.589 240.347 148.243 248.456 144.09C250.682 142.941 251.745 141.577 251.983 138.919C252.707 131.19 252.468 123.514 251.506 115.839C250.921 111.447 249.958 107.101 249.619 102.654C249.28 98.3079 249.042 93.9155 248.318 89.5693C247.632 85.5621 247.393 81.555 247.678 77.4476C247.779 76.284 247.825 75.1744 248.402 74.1186C250.189 70.7819 251.352 67.214 252.461 63.5922C254.101 58.3752 253.909 53.3585 251.552 48.2726C250.104 45.2364 248.117 43.3561 244.729 42.678C241.695 42.0384 238.591 44.1729 237.682 46.1996C235.996 49.8677 235.457 53.7747 236.573 57.7818C237.012 59.3307 237.836 59.6159 239.038 58.6064C240.871 57.1114 241.749 55.0847 241.933 52.7652C242.08 51.2163 241.695 49.7213 241.456 48.2186C241.256 46.924 241.833 45.9607 242.942 45.4213C244.205 44.8511 245.214 45.3674 245.946 46.3846C246.284 46.87 246.569 47.4942 246.723 48.0799C247.686 53.2969 247.547 58.3135 244.598 62.9449C243.589 64.54 242.226 65.2181 240.301 65.2644C236.288 65.3183 232.469 61.4422 231.837 57.828C231.699 56.8648 231.314 56.4795 230.251 56.6336C228.264 56.9187 226.816 56.0942 225.699 54.3603C224.059 51.7557 223.728 48.8582 223.574 45.8606C223.52 45.1824 223.774 44.3656 223.474 43.8724C222.026 41.5606 221.11 39.0022 219.423 36.8291C219.277 36.6287 219.177 36.3436 218.938 36.3898C217.151 36.4746 215.603 35.6192 214.048 34.8409C213.809 35.2262 213.963 35.4651 214.048 35.6655C216.081 39.5724 217.244 43.8185 218.984 47.8333C220.956 52.4646 222.511 57.2963 223.181 62.313C223.52 64.7712 222.896 67.2448 223.281 69.7493C223.42 70.6124 223.566 71.0439 224.529 70.9129C224.914 70.8127 225.307 70.859 225.692 70.8127C228.88 70.3735 231.93 70.3273 234.001 73.3711C234.201 73.61 234.54 73.8104 234.779 73.9953C238.252 77.3783 240.817 81.4317 241.063 86.2171C241.302 90.9486 242.211 95.4413 243.135 100.026C244.097 104.812 245.206 109.536 245.407 114.421C245.645 120.463 245.884 126.543 245.491 132.584C245.253 136.391 244.868 137.062 241.194 138.279C233.223 140.938 225.16 143.211 217.375 146.34C212.692 148.228 207.948 150.108 204.814 154.4C204.136 155.325 203.074 155.664 202.019 154.986C200.91 154.3 200.809 153.19 201.241 152.073C201.426 151.649 201.626 151.21 201.918 150.825C203.99 147.727 207.094 145.893 210.328 144.398C219.415 140.152 229.026 137.493 238.637 134.835C242.265 133.825 242.311 133.971 241.787 130.249C240.763 122.813 239.746 115.423 238.737 107.994C238.214 104.272 237.621 100.604 236.997 96.6819C235.549 98.5699 234.286 100.304 232.646 101.714C229.55 104.457 226.023 106.345 221.926 107.016C220.378 107.301 219.554 107.987 219.03 109.62C216.558 117.211 213.031 124.254 207.386 130.041C204.39 133.139 200.578 135.073 197.09 137.478C187.633 144.09 176.805 145.931 165.685 146.756C158.346 147.295 151.438 145.107 144.576 142.849C141.488 141.824 138.677 140.475 136.505 137.917C128.92 128.978 122.936 119.184 120.033 107.686C119.108 103.679 117.992 99.8722 118.346 95.8651L118.331 95.919ZM228.341 49.1202C228.441 49.4593 228.526 49.7444 228.68 50.0449C229.119 51.0082 230.081 51.2933 230.952 51.2394C231.914 51.1931 231.429 50.1759 231.529 49.6519C232.153 45.9839 232.207 42.1154 234.717 39.0253C235.102 38.5398 234.871 38.3009 234.579 37.9542C233.17 36.5054 230.567 36.752 229.589 38.64C228.526 40.659 227.902 42.886 227.717 45.1593C227.902 46.5079 227.902 47.8641 228.341 49.1125V49.1202ZM216.304 29.9938C220.894 29.6547 223.027 32.7526 224.999 36.0353C225.035 36.0713 225.068 36.0996 225.099 36.1201C225.384 36.5054 225.723 36.806 226.208 36.3667C226.547 36.0276 226.647 35.6963 226.346 35.2031C224.706 32.5907 223.358 29.8012 221.225 27.4739C219.823 25.925 218.091 25.586 216.165 25.7401C214.903 25.8403 214.379 26.9422 214.325 28.0134C214.325 29.1616 215.526 30.0323 216.296 29.9861L216.304 29.9938Z" fill="#EF5928"/>
<path d="M127.75 48.4424C128.088 48.6273 127.95 49.0203 128.034 49.3131C128.473 48.0185 129.143 46.7085 128.997 45.2598C128.219 46.1691 128.273 47.4329 127.75 48.4424Z" fill="#D3B09A"/>
<path d="M176.397 247.212C172.539 246.642 170.259 244.114 168.657 240.832C168.172 239.868 168.218 238.813 168.657 237.788C168.842 237.403 169.142 236.963 168.418 236.863C167.51 236.817 166.632 237.017 165.754 237.302C160.964 238.897 155.997 239.422 151.022 240.007C148.611 240.246 146.185 240.446 143.775 240.585C141.988 240.732 140.44 241.41 138.993 242.273C136.582 243.768 133.971 244.731 131.122 244.931C129.097 245.078 127.164 245.602 125.762 247.305C124.599 248.7 124.699 249.324 126.301 250.148C127.41 250.719 128.627 250.973 129.828 251.158C131.569 251.443 133.117 252.167 134.279 253.516C135.489 254.911 135.242 256.074 133.502 256.698C131.669 257.377 129.774 257.908 127.941 258.532C127.402 258.717 126.833 258.818 126.34 259.311C127.741 260.182 129.135 260.96 129.289 262.794C129.335 263.364 129.867 263.472 130.398 263.418C131.985 263.318 133.394 263.657 134.31 265.206C134.649 265.776 135.234 265.691 135.858 265.545C138.862 264.867 139.093 265.06 140.109 268.003C140.294 268.627 140.733 268.874 141.318 268.681C141.842 268.496 142.381 268.296 142.866 267.957C147.841 264.674 152.862 261.492 158.376 259.118C159.385 258.679 160.263 258.008 161.126 257.284C164.653 254.286 168.765 252.214 172.77 250.04C173.979 249.362 174.895 248.253 176.243 247.821C176.489 247.844 176.443 247.513 176.397 247.22V247.212Z" fill="#FEFEFE"/>
<path d="M170.452 229.488C171.753 227.654 173.063 225.82 174.364 223.986C174.079 221.913 174.803 219.978 175.088 217.99C175.142 217.651 175.188 217.312 175.327 217.027C175.766 215.964 175.381 215.678 174.318 215.678C172.631 215.678 172.292 215.339 172.716 213.69C173.101 212.195 173.255 210.747 172.955 209.198C172.67 207.602 173.109 206.015 173.779 204.52C174.264 203.511 174.657 202.401 175.08 201.384C175.18 201.145 175.234 200.806 175.365 200.605C175.85 199.981 176.813 199.735 176.613 198.586C176.428 197.323 175.735 196.267 175.011 195.304C173.994 194.009 172.739 192.892 171.777 191.535C170.953 190.372 170.275 190.472 169.451 191.435C169.166 192.013 169.636 192.398 169.836 192.838C170.56 194.333 171.623 195.635 172.108 197.284C172.254 197.723 172.493 198.155 172.254 198.733C171.376 198.448 170.953 197.723 170.413 197.138C170.028 196.752 169.79 196.128 169.112 196.213C168.434 196.552 168.727 197.323 168.288 197.862C167.61 196.567 167.749 195.25 167.849 193.901C166.109 191.189 164.853 188.245 163.013 185.64C162.828 185.401 162.674 185.016 162.289 185.101C162.104 185.255 161.904 185.44 161.711 185.486C160.548 185.925 159.339 186.21 158.862 187.605C158.238 189.593 157.699 191.659 158.577 193.601C160.025 196.93 161.865 200.12 163.113 203.549C163.837 205.483 164.514 207.456 165.046 209.49C163.937 208.281 163.644 206.447 161.811 206.023C161.326 206.693 161.911 207.233 161.965 207.857C162.112 209.151 163.128 210.269 162.589 211.679C161.965 213.567 161.965 215.586 161.241 217.42C160.279 219.978 159.94 222.737 158.731 225.195C160.371 227.469 162.166 229.642 163.606 232.046C164.953 233.156 168.003 232.616 169.02 231.083C169.528 230.497 169.72 229.773 170.444 229.488H170.452Z" fill="#E63615"/>
<path d="M195.642 246.087C194.479 246.765 193.178 246.811 191.915 246.957C188.865 247.343 185.877 248.306 182.727 248.021C181.565 248.206 181.18 249.231 180.502 250.009C178.33 252.567 175.612 254.556 172.77 256.29C172.431 256.474 172.146 256.675 171.807 256.867C171.268 257.253 170.798 257.777 170.021 257.692C168.519 258.655 170.46 258.617 170.46 259.141C170.698 259.38 171.083 259.38 171.237 259.711C172.446 260.674 173.648 261.699 174.865 262.655C176.166 263.664 177.614 264.25 179.362 264.304C180.864 264.358 182.158 265.128 183.421 265.899C184.144 266.338 184.722 266.523 185.446 265.614C186.409 264.319 187.957 264.265 189.204 265.375C189.982 266.053 190.652 266.099 191.53 265.66C193.306 264.761 195.224 264.373 197.283 264.496C196.743 263.487 195.981 262.763 195.257 261.984C194.818 261.499 194.341 261.021 193.909 260.489C191.584 257.731 191.399 256.667 194.295 253.338C195.457 251.99 196.859 252.228 197.868 253.677C200.093 256.86 205.168 258.748 208.927 257.784C209.835 257.546 210.274 257.114 210.228 256.097C210.174 254.409 209.504 253.153 208.103 252.275C205.692 250.78 203.228 249.277 200.802 247.782C200.363 247.497 199.924 247.212 199.639 246.773C198.522 245.177 198.291 245.085 196.551 245.809C196.312 245.948 195.973 246.048 195.642 246.087Z" fill="#FEFEFE"/>
<path d="M132 231.507C131.815 233.826 131.376 235.66 130.791 237.448C130.552 238.173 130.352 238.843 130.976 239.436C131.654 240.007 132.223 239.49 132.816 239.29C134.557 238.72 135.042 237.271 135.612 235.668C136.821 232.331 138.361 229.103 139.624 225.766C140.402 223.747 140.926 221.612 141.611 219.539C141.95 218.53 141.611 217.651 140.602 217.366C139.64 217.081 139.201 217.852 138.916 218.661C137.953 221.605 136.89 224.556 135.966 227.5C135.481 229.095 134.957 229.719 133.502 229.673C132.293 229.673 132.054 229.287 132.539 228.178C133.548 226.005 134.611 223.785 135.674 221.612C136.159 220.603 135.858 219.778 134.996 219.239C134.172 218.753 133.363 219 132.924 220.009C132.739 220.495 132.247 220.78 131.962 221.219C129.736 224.556 127.903 228.07 126.217 231.692C125.054 234.104 124.045 236.523 123.221 239.082C123.036 239.652 122.836 240.292 123.406 240.816C123.945 241.301 124.468 240.97 125.008 240.816C127.233 240.145 128.635 238.828 129.205 236.469C129.682 234.782 130.368 233.148 132 231.499V231.507Z" fill="#E63B17"/>
<path d="M141.426 232.478C141.611 233.402 140.887 234.651 142.435 235.236C144.46 236.007 147.695 234.751 148.519 232.724C149.243 230.99 149.92 229.202 150.644 227.453C150.983 226.629 150.829 225.858 150.159 225.434C149.381 224.949 148.996 225.719 148.611 226.259C148.372 226.598 148.126 227.13 147.687 226.937C147.248 226.752 147.148 226.213 147.302 225.673C147.641 224.51 147.402 223.3 147.456 222.151C147.502 221.227 146.917 220.988 146.154 221.142C145.192 221.342 144.322 221.866 143.883 222.737C142.543 225.858 141.48 229.041 141.434 232.478H141.426Z" fill="#E63B17"/>
<path d="M170.021 257.731C171.083 258.455 171.368 257.546 171.807 256.906C171.168 257.053 170.544 257.346 170.021 257.731Z" fill="#FAF6F2"/>
<path d="M171.268 259.758C171.553 258.794 170.729 259.372 170.49 259.187C170.59 259.627 170.829 259.812 171.268 259.758Z" fill="#FAF6F2"/>
<path d="M194.479 214.554C191.006 215.717 187.803 217.451 184.722 219.486C185.061 220.21 185.446 220.888 185.785 221.605C186.27 221.505 186.17 221.065 186.324 220.834C187.102 219.57 188.165 219.385 189.327 220.349C189.867 220.788 190.336 221.219 190.729 221.743C191.114 222.229 191.453 222.707 192.131 223.092C191.645 221.643 191.168 220.333 190.729 218.985C190.19 217.297 191.068 216.141 192.855 216.426C193.578 216.526 193.871 216.38 193.871 215.702C193.925 215.193 194.349 214.939 194.495 214.554H194.479Z" fill="#F05929"/>
<path d="M182.427 194.233C180.687 194.911 180.926 196.691 180.456 198.001C179.732 199.989 179.632 202.062 179.532 204.181C179.385 207.279 179.147 210.307 178.954 213.405C179.008 213.891 178.954 214.469 179.632 214.415C180.171 214.369 180.117 213.791 180.117 213.351C180.171 211.856 180.695 210.508 181.28 209.144C181.38 208.905 181.519 208.658 181.765 208.658C182.15 208.658 182.104 209.044 182.104 209.283C182.104 210.392 182.05 211.456 182.543 212.519C183.066 213.582 183.606 213.629 184.283 212.673C185.107 211.564 185.346 210.261 185.531 208.951C185.716 207.456 185.916 205.954 186.155 204.459C186.209 204.22 186.309 203.919 186.732 203.78C187.071 204.744 186.971 205.668 186.732 206.624C186.493 207.633 186.108 208.643 186.447 209.722C186.632 210.446 186.886 211.17 187.949 211.117C188.912 211.063 189.297 210.539 189.582 209.668C190.159 207.88 190.259 206.046 190.544 204.212C191.029 201.268 192.146 198.471 193.055 195.612C193.632 193.778 193.733 191.944 192.092 190.441C190.49 189.57 188.704 189.093 186.971 188.422C186.771 188.322 186.532 188.522 186.347 188.707C184.414 189.871 184.761 191.99 184.376 193.778C183.991 195.512 183.798 197.3 183.505 199.049C183.351 199.103 183.321 199.434 183.02 199.234C182.874 198.849 182.974 198.456 182.92 198.07C182.92 198.024 182.92 197.97 182.866 197.885C182.966 197.061 183.051 196.198 183.151 195.373C183.367 194.803 183.213 194.271 182.435 194.225L182.427 194.233Z" fill="#E2280E"/>
<path d="M199.107 210.023C200.894 209.299 202.735 208.528 204.521 207.804C206.747 206.74 207.032 204.76 206.847 202.633C206.793 202.063 206.747 201.423 206.508 200.845C206.454 199.111 206.847 197.462 207.771 195.967C208.495 194.757 208.21 193.594 207.617 192.445C206.508 190.126 206.554 190.126 204.383 191.521C203.505 192.091 202.596 192.445 201.918 193.355C201.295 194.226 200.956 195.042 201.04 196.113C201.141 197.377 200.886 198.572 200.601 199.782C200.116 201.569 200.655 202.54 202.242 203.165C202.581 203.311 203.251 203.211 203.204 203.789C203.151 204.228 202.819 204.659 202.38 204.898C202.142 205.045 201.841 205.083 201.556 205.137C200.832 205.191 200.155 204.074 199.485 204.937C198.761 205.808 198.807 206.956 198.761 208.035V209.483C198.584 209.769 198.622 210.069 199.107 210.023Z" fill="#E32911"/>
<path d="M199.108 210.022C198.869 209.876 198.723 209.683 198.723 209.398C198.338 209.213 197.999 209.059 197.514 209.252C194.225 210.701 190.837 211.964 187.702 213.744C187.364 213.929 187.264 214.23 187.317 214.569C191.291 213.105 195.303 211.857 199.116 210.022H199.108Z" fill="#F0582A"/>
<path d="M186.455 188.776C186.84 188.776 187.333 188.676 187.564 188.83C188.911 189.94 190.567 190.179 192.2 190.479C192.354 190.533 192.438 190.626 192.585 190.626C192.824 190.68 192.87 190.58 192.824 190.341C192.723 189.801 192.639 189.331 192.2 188.946C190.752 187.597 188.911 187.351 187.125 187.058C186.247 186.904 186.062 187.728 185.823 188.322C185.623 188.969 186.208 188.684 186.447 188.784L186.455 188.776Z" fill="#F05828"/>
<path d="M206.501 200.799C206.501 201.623 206.447 202.394 206.501 203.211C206.601 205.045 206.015 206.594 204.514 207.757C207.417 207.318 208.38 205.438 208.48 202.779C207.363 202.594 206.839 201.816 206.508 200.807L206.501 200.799Z" fill="#F0592C"/>
<path d="M182.966 199.689C183.02 199.874 183.02 200.228 183.351 200.074C183.736 199.889 183.498 199.45 183.59 199.111C183.536 198.672 183.775 198.047 183.013 197.947C182.766 198.525 182.766 199.095 182.959 199.681L182.966 199.689Z" fill="#F5512B"/>
<path d="M142.928 213.983C145.631 215.871 148.68 217.166 151.476 218.861C152.254 217.567 151.815 216.064 152.1 214.708C152.439 213.113 152.777 211.525 153.309 210.022C153.548 209.352 153.848 208.728 154.372 208.188C155.819 206.64 156.597 206.794 157.367 208.728C158.53 210.277 160.263 210.562 161.48 209.452C161.58 208.828 161.295 208.343 160.941 207.857C158.376 203.989 156.643 199.743 154.564 195.635C154.325 195.196 154.279 194.626 153.64 194.472C152.962 195.967 152.962 197.654 152.431 199.203C151.892 200.698 151.468 202.201 150.159 203.21C149.62 203.65 149.05 203.835 148.473 203.449C147.849 203.064 148.234 202.524 148.473 202.047C149.25 200.598 149.012 199.049 148.958 197.554C148.904 196.73 148.473 196.591 147.849 197.169C147.31 197.654 146.732 198.178 146.732 198.957C146.832 201.13 145.862 203.01 145.13 204.944C144.453 206.678 144.068 208.373 144.121 210.215C144.121 211.14 143.975 212.103 143.836 213.012C143.652 213.498 143.451 213.937 142.928 213.983Z" fill="#EF5928"/>
<path d="M153.547 194.471C155.912 199.45 158.184 204.52 161.233 209.097C161.418 209.537 161.472 210.061 161.911 210.392C162.25 210.831 162.488 211.355 163.028 211.602C163.751 211.163 163.174 210.592 163.128 210.107C162.843 208.712 162.35 207.31 161.965 205.899C160.132 201.692 158.006 197.639 156.551 193.339C154.949 188.561 151.961 184.261 151.376 179.098C151.229 177.888 150.937 176.686 150.698 175.476C150.644 175.091 150.598 174.605 150.159 174.551C149.674 174.497 149.481 175.091 149.435 175.476C149.05 177.364 149.15 179.298 149.381 181.178C149.766 184.608 150.983 187.798 152.13 191.027C152.577 192.19 153.07 193.3 153.54 194.456L153.547 194.471Z" fill="#040202"/>
<path d="M144.314 196.306C144.214 195.92 144.553 195.296 143.875 195.142C143.252 195.042 143.252 195.712 142.997 196.105C142.612 196.675 142.374 197.4 141.496 197.454C141.111 197.5 140.479 197.3 140.533 198.078C140.587 198.748 140.379 199.527 141.111 200.012C141.688 200.397 142.412 200.197 142.659 199.827C143.336 198.733 144.445 197.808 144.307 196.306H144.314Z" fill="#EA3F1B"/>
<path d="M169.297 196.152C170.075 197.022 170.799 197.839 171.569 198.71C171.908 199.049 172.246 199.534 172.778 199.195C173.217 198.91 172.963 198.417 172.878 198.032C172.254 195.859 171.091 193.978 169.928 192.044C169.774 191.859 169.744 191.605 169.589 191.42C167.218 187.937 165.192 184.269 163.213 180.562C162.774 180.177 162.589 179.637 162.389 179.067C161.372 175.73 159.439 172.941 157.168 170.329C156.59 169.704 156.005 168.88 155.042 169.558C154.079 170.228 154.557 171.053 154.988 171.831C156.775 175.014 158.515 178.258 160.302 181.441C160.98 182.689 161.704 183.899 162.374 185.163C163.536 187.536 165.562 189.37 166.201 192.067C166.347 192.838 167.449 193.177 167.749 194.055C167.926 194.919 168.511 195.643 169.289 196.167L169.297 196.152Z" fill="#020202"/>
<path d="M176.066 204.466C174.957 206.685 174.564 208.673 174.125 210.646C174.025 211.186 173.979 211.81 174.279 212.334C174.464 212.673 174.664 212.873 175.057 212.819C175.396 212.765 175.496 212.48 175.542 212.195C175.827 209.737 176.305 207.317 176.066 204.466Z" fill="#E53815"/>
<path d="M163.013 211.664C162.728 211.224 162.389 210.739 162.088 210.315C161.08 209.876 160.256 209.745 159.378 210.754C158.6 211.679 157.406 212.149 156.043 212.927C156.528 212.157 156.921 211.717 157.445 211.533C158.692 210.993 158.654 210.269 157.884 209.359C157.699 209.121 157.737 208.82 157.545 208.581C157.398 207.857 157.491 206.947 156.621 206.647C155.712 206.308 155.119 207.032 154.495 207.518C153.717 208.096 153.248 208.966 152.947 209.891C151.985 212.835 151.345 215.832 151.499 218.969C154.203 220.803 156.759 222.737 158.885 225.249C159.324 225.195 159.709 225.249 159.809 224.625C160.348 221.242 161.78 218.06 162.52 214.723C162.735 213.652 162.397 212.588 163.02 211.664H163.013Z" fill="#E32A0F"/>
<path d="M161.757 63.415C161.757 64.3397 162.242 65.0641 162.773 65.6883C163.982 67.137 165.523 68.2467 167.225 68.9711C170.313 70.2657 172.923 72.354 175.873 73.9877C178.283 75.3363 180.563 76.8852 183.12 78.0411C184.806 78.8117 186.015 78.5805 186.593 77.4169C187.217 76.2533 186.778 75.0049 185.345 74.0339C179.061 69.7879 172.685 65.7345 166.023 62.0973C165.446 61.7582 164.814 61.5578 164.136 61.4268C162.827 61.188 161.795 62.1127 161.765 63.415H161.757Z" fill="#010101"/>
<path d="M171.854 79.251C171.854 78.9659 171.907 78.673 171.854 78.3802C171.615 76.261 171.276 74.0879 169.058 73.1093C166.986 72.1845 163.305 73.2094 161.811 74.8971C161.272 75.4673 160.849 76.1069 160.749 76.8852C160.363 80.0216 161.234 82.7803 163.698 84.8533C166.209 86.9262 170.506 85.3388 171.569 82.056C171.807 81.1467 171.854 80.1834 171.854 79.2587V79.251Z" fill="#010101"/>
<path d="M133.502 78.6345C134.465 78.6345 135.867 78.5343 137.029 77.6713C138.77 76.3766 139.355 73.9492 138.531 71.3908C137.853 69.3179 135.481 67.3837 133.556 67.4376C132.054 67.4376 130.892 68.3084 129.883 69.1715C128.281 70.52 126.933 73.6179 128.242 76.1763C129.205 78.149 130.368 78.7732 133.502 78.6345Z" fill="#010101"/>
<path d="M167.087 108.225C169.882 108.372 171.045 109.435 171.538 112.094C171.823 113.643 170.66 115.33 169.127 115.615C167.387 115.954 166.078 115.045 165.739 113.157C165.639 112.618 165.639 112.094 165.454 111.608C165.308 111.169 165.454 110.445 164.676 110.398C163.999 110.344 163.467 110.545 163.028 111.023C162.15 112.032 162.204 113.242 162.489 114.405C163.113 116.964 165.878 119.083 168.627 119.137C171.961 119.237 175.15 117.303 175.974 114.691C176.798 112.086 175.535 108.364 173.363 106.861C171.677 105.713 169.012 106.199 167.087 108.225Z" fill="#010101"/>
<path d="M150.752 58.244C150.752 55.832 148.819 53.5664 146.694 53.5664C144.707 53.5664 142.497 55.7857 142.497 57.72C142.497 59.6542 145.246 62.2126 147.333 62.2126C149.797 62.2511 150.76 61.1414 150.76 58.244H150.752Z" fill="#EF5928"/>
<path d="M152.339 45.8372C152.285 43.6641 150.599 41.9303 148.427 41.9765C146.54 41.9765 144.754 43.9646 144.7 45.9836C144.7 48.0566 146.687 50.2759 148.558 50.2759C150.429 50.2759 152.331 48.1028 152.331 45.8295L152.339 45.8372Z" fill="#EF5928"/>
<path d="M157.129 48.7812C157.129 50.9543 158.631 52.6419 160.656 52.6419C162.682 52.6419 164.384 50.7077 164.384 48.2494C164.384 46.1765 162.982 44.4272 161.296 44.4272C159.224 44.4889 157.137 46.6081 157.137 48.7812H157.129Z" fill="#EF5928"/>
<path d="M152.578 35.55C154.649 35.5962 156.205 34.2862 156.205 32.5061C156.205 30.6181 154.133 28.3525 152.347 28.3525C150.799 28.3525 148.92 30.3715 148.874 32.1208C148.812 33.9163 150.645 35.55 152.586 35.55H152.578Z" fill="#EF5928"/>
<path d="M159.786 35.1182C159.786 37.2374 161.134 38.6861 163.175 38.7401C165.061 38.7401 166.409 37.3915 166.463 35.3571C166.517 33.2842 164.723 31.4501 162.689 31.5041C161.041 31.5041 159.794 33.0992 159.794 35.1259L159.786 35.1182Z" fill="#EF5929"/>
<path d="M153.825 58.8298C153.825 60.3787 155.766 62.2667 157.298 62.2128C158.939 62.1588 160.687 60.3787 160.633 58.7296C160.579 57.2347 158.746 55.3467 157.244 55.3467C155.858 55.3467 153.817 57.3271 153.817 58.8298H153.825Z" fill="#EF5929"/>
<path d="M169.304 196.159C168.919 195.335 168.38 194.611 167.756 193.986C167.179 195.635 167.71 197.123 168.242 198.664C169.25 198.04 168.865 196.892 169.304 196.152V196.159Z" fill="#EE5427"/>
<path d="M182.982 199.689V197.955C182.542 198.533 182.596 199.103 182.982 199.689Z" fill="#E9431B"/>
<path d="M157.506 208.527C157.506 208.866 157.552 209.152 157.691 209.491C158.03 210.169 158.269 210.754 157.152 211.178C156.374 211.463 155.219 212.288 155.65 213.066C155.989 213.69 156.913 212.627 157.483 212.342C158.392 211.802 159.37 211.332 160.094 210.454C160.533 209.876 161.395 210.554 162.065 210.269C161.78 209.884 161.526 209.498 161.241 209.105C160.302 210.076 158.607 209.83 157.491 208.535L157.506 208.527Z" fill="#E63616"/>
<path d="M77.6841 187.75C78.2353 186.354 79.7611 185.751 81.1534 185.148C83.6052 184.084 82.0496 183.275 84.6555 182.474C85.4181 182.239 87.3966 182.913 88.8656 182.098C90.0488 181.44 91.1259 180.269 92.083 180.135C93.8454 179.892 95.0853 181.904 96.2913 181.796C97.9811 181.653 99.388 180.184 101.056 180.045C105.4 179.67 106.208 183.811 107.319 187.217C108.103 189.569 108.697 192.261 108.989 194.737C109.191 196.52 109.205 198.245 108.522 199.928C107.843 201.632 107.261 202.015 105.486 202.459C104.095 202.796 102.149 200.678 100.565 200.516C98.4614 200.305 98.3237 202.054 96.6339 202.197C95.9299 202.245 94.2372 200.595 93.2597 200.466C92.4625 200.352 91.0761 202.084 90.1846 202.074C88.1598 202.072 87.3153 199.619 86.0501 199.227C84.9724 198.894 83.3986 200.567 81.9085 200.434C79.5598 200.218 80.361 200.221 78.109 197.732C76.6653 196.107 77.0227 193.658 77.1399 191.646C77.2061 190.551 77.2067 188.779 77.6191 187.76L77.6841 187.75Z" fill="white"/>
<path fill-rule="evenodd" clip-rule="evenodd" d="M103.843 183.222C104.413 184.126 104.779 185.284 105.203 186.654C105.309 187.035 105.438 187.412 105.57 187.812C106.314 190.059 106.887 192.623 107.158 194.969C107.36 196.619 107.318 197.999 106.811 199.255C106.512 200.012 106.334 200.151 106.276 200.205C106.178 200.288 105.976 200.409 105.184 200.604C105.163 200.608 105.116 200.593 105.065 200.557C104.828 200.463 104.536 200.312 104.093 200.052C104.021 200.019 103.946 199.965 103.87 199.911C103.524 199.701 103.107 199.46 102.718 199.257C102.232 199.004 101.562 198.715 100.815 198.637C99.9996 198.549 99.2845 198.665 98.6372 198.926C98.0117 199.183 97.5806 199.541 97.2655 199.791C96.9902 200.013 96.8344 200.149 96.7366 200.232C96.589 200.145 96.391 200.022 96.1643 199.86C95.8621 199.644 95.4878 199.395 95.1171 199.167C94.775 198.979 94.2168 198.694 93.5784 198.599C92.7162 198.496 91.9964 198.857 91.6924 199.039C91.3269 199.253 90.9684 199.511 90.7113 199.708L90.668 199.715C90.3927 199.937 90.2152 200.077 90.0524 200.169C89.8866 200.108 89.6599 199.946 89.2576 199.524C89.2037 199.466 89.1211 199.369 89.0133 199.254C88.7978 199.023 88.5248 198.714 88.3128 198.505C87.9678 198.162 87.3962 197.658 86.6465 197.426C85.8247 197.161 85.0768 197.349 84.5924 197.517C84.1262 197.659 83.6992 197.906 83.3665 198.049L83.3231 198.056C82.9541 198.249 82.6829 198.359 82.4334 198.466C82.202 198.548 82.1335 198.537 82.1335 198.537C81.614 198.489 81.3651 198.463 81.228 198.441C81.228 198.441 81.2245 198.42 81.1993 198.402C81.1202 198.326 81.0593 198.225 80.9445 198.067C80.941 198.045 80.9123 198.006 80.8871 197.988C80.6037 197.613 80.1872 197.105 79.591 196.45C79.2425 196.086 79.0645 195.539 78.9924 194.688C78.9485 194.008 78.9948 193.337 79.0452 192.554C79.0681 192.284 79.0693 192.018 79.0886 191.727C79.0968 191.505 79.105 191.282 79.1132 191.059C79.1366 190.657 79.1601 190.255 79.1982 189.806C79.2626 189.109 79.344 188.653 79.4389 188.416C79.5157 188.204 79.7008 187.975 80.1242 187.706C80.5659 187.413 81.0866 187.195 81.7953 186.903C81.8387 186.896 81.882 186.889 81.9002 186.864C82.6487 186.542 83.235 186.181 83.6954 185.73C84.116 185.307 84.3597 184.891 84.4581 184.676C84.4581 184.676 84.4762 184.651 84.4944 184.626C84.509 184.579 84.5272 184.554 84.5453 184.529C84.5852 184.5 84.748 184.407 85.1094 184.304C85.1527 184.297 85.2177 184.286 85.3331 184.312C85.445 184.316 85.5785 184.316 85.7373 184.335C85.7373 184.335 85.7806 184.327 85.8023 184.324C85.9827 184.339 86.1847 184.35 86.4085 184.358C87.2385 184.4 88.5522 184.407 89.7787 183.743C90.3686 183.403 90.9877 182.97 91.4006 182.637C91.4984 182.555 91.5998 182.494 91.6794 182.437C91.9401 182.261 92.1175 182.122 92.2622 182.054C92.3272 182.043 92.3454 182.018 92.3635 181.993C92.4719 181.975 92.7062 182.048 93.354 182.474C93.4043 182.51 93.4547 182.546 93.5268 182.578C93.8003 182.755 94.1529 183.008 94.4949 183.196C94.9342 183.434 95.6294 183.741 96.4635 183.672C97.6912 183.56 98.7584 183.01 99.4747 182.628C99.518 182.621 99.5362 182.596 99.576 182.567C100.415 182.12 100.853 181.938 101.225 181.9C101.994 181.841 102.459 181.964 102.801 182.152C103.143 182.34 103.485 182.661 103.839 183.201L103.843 183.222ZM96.552 200.328C96.552 200.328 96.5737 200.325 96.5954 200.321L96.552 200.328ZM107.032 181.219C106.465 180.338 105.722 179.462 104.649 178.885C103.573 178.285 102.31 178.048 100.909 178.188C99.6816 178.299 98.6144 178.849 97.9197 179.228C97.8764 179.235 97.8365 179.264 97.8184 179.289C97.0804 179.675 96.668 179.875 96.2996 179.935C96.152 179.848 96.0009 179.74 95.7561 179.603C95.6805 179.549 95.5798 179.477 95.4574 179.408C94.8061 178.961 93.5105 178.109 91.8529 178.313C90.8273 178.435 89.9329 179.09 89.4585 179.455C89.2991 179.57 89.1398 179.684 89.0022 179.795C88.6074 180.103 88.3069 180.307 87.9596 180.497C87.7136 180.625 87.3018 180.692 86.6054 180.651C86.4467 180.632 86.2698 180.639 86.0894 180.624C86.0894 180.624 86.0461 180.631 86.0244 180.635C85.8657 180.616 85.7069 180.598 85.5517 180.601C85.2594 180.582 84.6749 180.545 84.1255 180.723C83.3629 180.958 82.7192 181.24 82.1867 181.659C81.6361 182.102 81.3562 182.569 81.2033 182.859C81.065 183.103 81.065 183.103 81.0469 183.128C81.0252 183.132 80.8946 183.286 80.4137 183.475C80.3487 183.486 80.3089 183.514 80.2474 183.546C79.6218 183.803 78.8118 184.157 78.0878 184.629C77.2625 185.162 76.4074 185.921 75.9329 187.105C75.6154 187.888 75.5029 188.836 75.442 189.554C75.3928 190.071 75.3722 190.628 75.3558 191.074C75.3441 191.275 75.3254 191.433 75.3283 191.587C75.3131 191.767 75.3013 191.968 75.2931 192.191C75.2281 193.021 75.1513 194.051 75.2409 195.011C75.3364 196.28 75.669 197.775 76.7859 199.032C77.3031 199.612 77.6405 200.044 77.9169 200.375C77.9239 200.419 77.9708 200.433 77.9995 200.473C78.2004 200.75 78.4803 201.103 78.7931 201.384C79.6558 202.173 80.6949 202.27 81.6186 202.341C81.6836 202.33 81.7556 202.362 81.8206 202.352C82.5674 202.429 83.2287 202.255 83.7564 202.081C84.2408 201.913 84.7147 201.681 85.0439 201.517L85.0872 201.51C85.3514 201.356 85.5394 201.281 85.6841 201.213C85.6841 201.213 85.6841 201.213 85.7128 201.253C85.8709 201.404 85.9787 201.519 86.1151 201.674C86.2264 201.811 86.3594 201.945 86.5497 202.157C87.2215 202.867 88.4146 204.045 90.2807 204.029C91.0351 204.017 91.6718 203.691 91.9974 203.506C92.3412 203.295 92.6997 203.037 92.9569 202.84C92.9569 202.84 92.9785 202.837 92.9967 202.811C93.1343 202.7 93.2538 202.615 93.3551 202.554C93.5748 202.673 93.8015 202.835 94.1002 203.03L94.1435 203.023C94.4457 203.24 94.7983 203.492 95.1404 203.68C95.3348 203.781 95.5545 203.9 95.8139 203.991C96.0482 204.063 96.4448 204.176 96.9069 204.145C98.3114 204.027 99.2246 203.214 99.6522 202.834C99.6885 202.784 99.75 202.752 99.7681 202.727C99.9819 202.537 100.065 202.501 100.127 202.469C100.148 202.465 100.231 202.43 100.48 202.456C100.524 202.449 100.686 202.489 101.05 202.673C101.316 202.807 101.59 202.983 101.932 203.171C102.029 203.222 102.13 203.294 102.252 203.362C102.691 203.601 103.235 203.933 103.804 204.15C104.374 204.367 105.185 204.567 106.063 204.358C106.959 204.123 107.917 203.857 108.721 203.194C109.547 202.528 110.023 201.631 110.403 200.684C111.239 198.577 111.209 196.479 110.986 194.567C110.673 191.962 110.039 189.165 109.238 186.705C109.149 186.431 109.056 186.137 108.96 185.82C108.53 184.407 107.978 182.659 107.132 181.292L107.032 181.219ZM93.6017 202.292L93.6451 202.285C93.6451 202.285 93.6451 202.285 93.6017 202.292Z" fill="#EC5A2A"/>
<path d="M111.5 201.003L107.5 189.503L112.5 191.003L114.5 195.003C114.167 197.003 113.4 201.103 113 201.503C112.6 201.903 111.833 201.336 111.5 201.003Z" fill="white"/>
<path fill-rule="evenodd" clip-rule="evenodd" d="M108.702 186.15C108.903 186.427 109.227 186.773 109.665 187.144C110.161 187.595 110.741 188.009 111.352 188.485C111.356 188.507 111.403 188.522 111.428 188.54C112.011 188.976 112.618 189.43 113.14 189.899C113.657 190.346 114.24 190.915 114.594 191.588C115.041 192.423 115.215 193.214 115.309 193.929C115.362 194.253 115.393 194.58 115.417 194.864C115.42 194.885 115.424 194.907 115.427 194.928C115.48 195.252 115.482 195.539 115.532 195.841C115.655 196.596 115.637 197.307 115.624 197.907C115.638 197.993 115.626 198.062 115.619 198.151C115.595 198.687 115.597 199.107 115.623 199.545C115.651 199.851 115.645 200.494 115.566 201.105C115.525 201.399 115.433 201.79 115.294 202.167C115.163 202.454 114.813 203.175 113.957 203.381C113.466 203.506 112.989 203.45 112.665 203.371C112.319 203.294 111.962 203.153 111.649 203.005C111.335 202.857 111.015 202.665 110.731 202.424C110.497 202.218 110.159 201.919 109.952 201.466C109.923 201.426 109.869 201.369 109.812 201.289C109.755 201.21 109.675 201.134 109.596 201.059C109.593 201.037 109.546 201.023 109.543 201.001C109.489 200.944 109.41 200.868 109.356 200.81C109.115 200.562 108.95 200.234 108.854 200.051C108.75 199.824 108.646 199.597 108.564 199.367C108.404 198.928 108.287 198.483 108.223 198.227C108.035 197.483 107.739 196.756 107.4 195.904L107.393 195.861C107.06 195.052 106.667 194.141 106.437 193.138C106.413 192.987 106.366 192.84 106.317 192.671C106.182 192.117 106.004 191.438 105.921 190.787C105.812 189.986 105.838 189.052 106.196 188.108C106.196 188.108 106.189 188.065 106.186 188.043C106.157 187.871 106.079 187.662 105.997 187.432C105.779 187.047 105.596 186.612 105.519 186.137C105.512 186.094 105.509 186.072 105.505 186.051C105.505 186.051 105.427 185.842 105.398 185.67C105.398 185.67 105.356 185.411 105.404 185.159C105.43 185.045 105.5 184.657 105.845 184.313C106.287 183.887 106.836 183.841 107.229 183.932C107.528 183.994 107.73 184.139 107.805 184.193C107.906 184.265 107.96 184.322 107.989 184.362C108.068 184.438 108.1 184.499 108.129 184.539C108.211 184.636 108.276 184.758 108.311 184.841L108.526 185.204L108.507 185.495C108.582 185.682 108.66 185.891 108.742 186.121L108.702 186.15ZM108.889 190.436C108.959 190.868 109.048 191.274 109.172 191.763C109.207 191.979 109.289 192.209 109.353 192.464C109.541 193.208 109.837 193.935 110.176 194.787L110.183 194.831C110.516 195.64 110.909 196.55 111.139 197.553C111.167 197.726 111.266 198.064 111.384 198.376C111.434 198.545 111.498 198.668 111.534 198.751L111.541 198.794C111.541 198.794 111.541 198.794 111.545 198.815C111.652 198.931 111.839 199.122 111.972 199.255C112.109 199.41 112.382 199.719 112.571 200.065C112.561 200 112.575 199.954 112.565 199.889C112.558 199.846 112.554 199.824 112.551 199.803C112.492 199.17 112.502 198.549 112.53 198.035C112.516 197.949 112.527 197.88 112.538 197.812C112.551 197.212 112.539 196.727 112.487 196.271C112.427 195.904 112.368 195.537 112.358 195.207L112.351 195.164C112.302 194.862 112.3 194.574 112.258 194.316C112.17 193.776 112.056 193.352 111.852 192.92C111.784 192.776 111.565 192.524 111.098 192.113C110.656 191.721 110.123 191.32 109.515 190.866L109.494 190.869C109.263 190.685 109.058 190.52 108.828 190.336L108.835 190.379L108.889 190.436Z" fill="#EC5A2A"/>
</svg>
