<svg width="382" height="88" viewBox="0 0 382 88" fill="none" xmlns="http://www.w3.org/2000/svg">
<path fill-rule="evenodd" clip-rule="evenodd" d="M116.93 23.8921C103.981 23.8921 93.4826 34.4032 93.4826 47.3694C93.4826 60.3356 103.981 70.8467 116.93 70.8467C129.88 70.8467 140.378 60.3356 140.378 47.3694C140.378 34.4032 129.88 23.8921 116.93 23.8921ZM126.397 37.604C128.888 40.1406 130.229 43.5905 130.106 47.1459C130.146 51.859 127.671 56.2353 123.615 58.6265C119.558 61.0176 114.536 61.0602 110.439 58.7383C106.343 56.4163 103.795 52.0826 103.755 47.3695C103.634 43.794 104.968 40.3225 107.452 37.7509C109.936 35.1794 113.357 33.7283 116.93 33.7303C120.483 33.6669 123.905 35.0674 126.397 37.604Z" fill="#221F1F"/>
<path fill-rule="evenodd" clip-rule="evenodd" d="M164.049 70.6234C172.535 70.6234 179.458 63.2448 179.458 53.6303C179.458 44.0158 172.535 36.4136 164.049 36.6372C160.441 36.3986 156.917 37.7938 154.447 40.4383V35.072L144.844 37.9787V82.6974H154.447V66.8223C156.934 69.4404 160.446 70.8305 164.049 70.6234ZM167.711 47.9514C169.207 49.4487 169.988 51.5171 169.855 53.6305C170.379 56.6998 169.036 59.788 166.435 61.4945C163.833 63.201 160.469 63.201 157.868 61.4945C155.266 59.788 153.923 56.6998 154.447 53.6305C154.245 51.5393 154.972 49.4651 156.434 47.9581C157.896 46.4511 159.946 45.6637 162.039 45.8047C164.15 45.6722 166.216 46.4541 167.711 47.9514Z" fill="#221F1F"/>
<path d="M196.653 46.6988V58.1021C196.653 60.7852 199.109 61.2324 203.352 60.7852V69.729C190.624 71.0705 187.05 67.2694 187.05 58.1021V46.6988H181.691V37.3079H186.827V28.8114L196.653 25.9047V37.3079H203.129V46.6988H196.653Z" fill="#221F1F"/>
<path d="M208.584 37.254L218.186 37.2206L218.299 69.5297L208.697 69.5631L208.584 37.254Z" fill="#221F1F"/>
<path d="M271.016 69.505H260.52V43.121L248.908 62.35H247.791L235.956 43.3446V69.505H225.683V24.3391H235.956L248.238 44.4625L260.52 24.3391H270.793L271.016 69.505Z" fill="#221F1F"/>
<path fill-rule="evenodd" clip-rule="evenodd" d="M285.718 37.3419C279.3 40.0773 275.168 46.4234 275.259 53.4066C275.259 57.9524 277.077 62.3089 280.309 65.5023C283.54 68.6956 287.914 70.4595 292.454 70.3997C299.429 70.3991 305.713 66.1798 308.36 59.7188C311.008 53.2579 309.496 45.8355 304.532 40.9296C299.567 36.0238 292.135 34.6065 285.718 37.3419ZM296.509 45.5285C299.038 47.1908 300.34 50.198 299.823 53.1829C300.34 56.1677 299.038 59.175 296.509 60.8373C293.979 62.4996 290.706 62.4996 288.176 60.8373C285.647 59.175 284.344 56.1677 284.861 53.1829C284.344 50.198 285.647 47.1908 288.176 45.5285C290.706 43.8662 293.979 43.8662 296.509 45.5285Z" fill="#221F1F"/>
<path d="M344.486 49.3817V69.2815H334.66V50.9468C334.86 49.3717 334.353 47.7887 333.276 46.6236C332.199 45.4585 330.661 44.831 329.077 44.9098C327.355 44.8991 325.71 45.6264 324.558 46.9082C323.406 48.1899 322.856 49.9039 323.048 51.6176V69.2815H313.445V37.5312L323.048 34.6245V39.9908C325.36 37.3907 328.732 35.9908 332.204 36.1897C338.903 35.9661 344.486 40.6615 344.486 49.3817Z" fill="#221F1F"/>
<path d="M370.167 69.2817L359.671 54.9717V69.2817H349.846V24.563L359.448 21.6562V51.1706L369.274 36.8606H380.439L368.827 52.9593L380.886 69.0581L370.167 69.2817Z" fill="#221F1F"/>
<path d="M207.818 26.3517C207.779 24.2748 208.848 22.3343 210.625 21.2612C212.401 20.1882 214.615 20.1456 216.431 21.1494C218.247 22.1533 219.391 24.0512 219.431 26.1281C219.431 29.3388 216.831 31.9416 213.625 31.9416C212.106 32.0024 210.628 31.4405 209.532 30.3855C208.436 29.3306 207.817 27.8738 207.818 26.3517Z" fill="#ED4525"/>
<path d="M64.3037 31.7189V32.8417L63.1763 62.0347C63.0434 67.7233 58.8859 72.5226 53.255 73.4873L57.5392 80.8978C65.1591 79.8267 70.9357 73.5078 71.2937 65.8522L72.6466 27.6768V26.554L64.3037 31.7189Z" fill="#221F1F"/>
<path d="M52.1275 73.7121L25.0694 75.284C18.548 75.67 12.9239 70.769 12.4423 64.2805L9.96199 31.9436C9.55294 28.4999 10.702 25.0532 13.0979 22.5369C15.4939 20.0206 18.8889 18.695 22.3636 18.9191L53.0295 20.2664C59.1478 20.7104 63.9791 25.6181 64.3037 31.7191L72.6466 26.5542C72.5293 18.2563 65.8684 11.5237 57.5392 11.284L16.7265 9.26294H15.3736C11.0435 9.43434 6.96814 11.3466 4.07856 14.5629C1.18899 17.7792 -0.267916 22.0248 0.0406802 26.3296L3.42294 68.5472C4.02579 77.1458 11.4691 83.6571 20.1088 83.1436L56.4117 80.898H57.5392L53.255 73.4875L52.1275 73.7121Z" fill="#ED5A29"/>
<path d="M30.2556 37.5575C32.6217 37.5575 34.5398 35.6472 34.5398 33.2908C34.5398 30.9344 32.6217 29.0242 30.2556 29.0242C27.8895 29.0242 25.9714 30.9344 25.9714 33.2908C25.9714 35.6472 27.8895 37.5575 30.2556 37.5575Z" fill="#ED5A29"/>
<path d="M45.1376 37.5575C47.5037 37.5575 49.4218 35.6472 49.4218 33.2908C49.4218 30.9344 47.5037 29.0242 45.1376 29.0242C42.7715 29.0242 40.8534 30.9344 40.8534 33.2908C40.8534 35.6472 42.7715 37.5575 45.1376 37.5575Z" fill="#ED5A29"/>
<path d="M30.2556 50.8066C32.6217 50.8066 34.5398 48.8964 34.5398 46.54C34.5398 44.1836 32.6217 42.2733 30.2556 42.2733C27.8895 42.2733 25.9714 44.1836 25.9714 46.54C25.9714 48.8964 27.8895 50.8066 30.2556 50.8066Z" fill="#ED5A29"/>
<path d="M45.1376 50.8066C47.5037 50.8066 49.4218 48.8964 49.4218 46.54C49.4218 44.1836 47.5037 42.2733 45.1376 42.2733C42.7715 42.2733 40.8534 44.1836 40.8534 46.54C40.8534 48.8964 42.7715 50.8066 45.1376 50.8066Z" fill="#ED5A29"/>
<path d="M30.2556 64.0556C32.6217 64.0556 34.5398 62.1453 34.5398 59.7889C34.5398 57.4325 32.6217 55.5222 30.2556 55.5222C27.8895 55.5222 25.9714 57.4325 25.9714 59.7889C25.9714 62.1453 27.8895 64.0556 30.2556 64.0556Z" fill="#ED5A29"/>
<path d="M45.1376 64.0556C47.5037 64.0556 49.4218 62.1453 49.4218 59.7889C49.4218 57.4325 47.5037 55.5222 45.1376 55.5222C42.7715 55.5222 40.8534 57.4325 40.8534 59.7889C40.8534 62.1453 42.7715 64.0556 45.1376 64.0556Z" fill="#ED5A29"/>
</svg>
