<svg width="44" height="44" viewBox="0 0 44 44" fill="none" xmlns="http://www.w3.org/2000/svg">
<g clip-path="url(#clip0_17144_22401)">
<path d="M38.1753 13.7593V14.3973L37.5232 30.9868C37.4859 32.5543 36.8933 34.0604 35.8466 35.2476C34.7999 36.4347 33.3643 37.2292 31.7852 37.495L34.263 41.7062C36.3992 41.4111 38.363 40.3954 39.8154 38.8344C41.2679 37.2733 42.1176 35.265 42.218 33.1562L43.0004 11.4623V10.8242L38.1753 13.7593Z" fill="#23262A"/>
<path d="M27.0911 32.1383C28.4595 32.1383 29.5689 31.0528 29.5689 29.7137C29.5689 28.3746 28.4595 27.2891 27.0911 27.2891C25.7226 27.2891 24.6133 28.3746 24.6133 29.7137C24.6133 31.0528 25.7226 32.1383 27.0911 32.1383Z" fill="#ED5A29"/>
<path d="M18.4856 32.1383C19.8541 32.1383 20.9634 31.0528 20.9634 29.7137C20.9634 28.3746 19.8541 27.2891 18.4856 27.2891C17.1172 27.2891 16.0078 28.3746 16.0078 29.7137C16.0078 31.0528 17.1172 32.1383 18.4856 32.1383Z" fill="#ED5A29"/>
<path d="M27.0911 24.6188C28.4595 24.6188 29.5689 23.5332 29.5689 22.1941C29.5689 20.8551 28.4595 19.7695 27.0911 19.7695C25.7226 19.7695 24.6133 20.8551 24.6133 22.1941C24.6133 23.5332 25.7226 24.6188 27.0911 24.6188Z" fill="#ED5A29"/>
<path d="M18.4856 24.6188C19.8541 24.6188 20.9634 23.5332 20.9634 22.1941C20.9634 20.8551 19.8541 19.7695 18.4856 19.7695C17.1172 19.7695 16.0078 20.8551 16.0078 22.1941C16.0078 23.5332 17.1172 24.6188 18.4856 24.6188Z" fill="#ED5A29"/>
<path d="M27.0911 17.0836C28.4595 17.0836 29.5689 15.9981 29.5689 14.659C29.5689 13.3199 28.4595 12.2344 27.0911 12.2344C25.7226 12.2344 24.6133 13.3199 24.6133 14.659C24.6133 15.9981 25.7226 17.0836 27.0911 17.0836Z" fill="#ED5A29"/>
<path d="M18.4856 17.0836C19.8541 17.0836 20.9634 15.9981 20.9634 14.659C20.9634 13.3199 19.8541 12.2344 18.4856 12.2344C17.1172 12.2344 16.0078 13.3199 16.0078 14.659C16.0078 15.9981 17.1172 17.0836 18.4856 17.0836Z" fill="#ED5A29"/>
<path d="M31.1327 37.6244L15.4834 38.5177C13.6708 38.6231 11.8885 38.0263 10.522 36.8562C9.15541 35.6861 8.3143 34.0368 8.18045 32.2648L6.74594 13.8887C6.62908 12.9221 6.73098 11.9421 7.04442 11.0183C7.35785 10.0945 7.87515 9.24949 8.55962 8.54318C9.24409 7.83686 10.079 7.28655 11.0051 6.93125C11.9312 6.57596 12.9258 6.42439 13.9185 6.48729L31.6543 7.25295C33.3646 7.3749 34.9706 8.10332 36.1711 9.30154C37.3716 10.4998 38.0841 12.0855 38.1748 13.7611L43 10.8261C42.9673 8.5565 42.0403 6.38693 40.4123 4.77009C38.7843 3.15326 36.5811 2.21407 34.2625 2.1485L10.6582 1H9.87578C8.63625 1.04821 7.41926 1.33966 6.29707 1.85704C5.17489 2.37442 4.17038 3.10719 3.34322 4.01182C2.51606 4.91646 1.88309 5.97452 1.48192 7.12318C1.08075 8.27183 0.919544 9.48766 1.00788 10.6985L2.96404 34.6894C3.13156 37.0372 4.23917 39.2254 6.04617 40.7786C7.85317 42.3317 10.2136 43.1243 12.6144 42.9841L33.6105 41.708H34.2625L31.7847 37.4968L31.1327 37.6244Z" fill="#ED5A29"/>
</g>
<defs>
<clipPath id="clip0_17144_22401">
<rect width="44" height="44" fill="white"/>
</clipPath>
</defs>
</svg>
