<svg width="148" height="148" viewBox="0 0 148 148" fill="none" xmlns="http://www.w3.org/2000/svg">
<path d="M119.189 44.9299C142.271 58.7266 157.411 71.0296 139.236 109.017C108.082 174.154 45.4218 129.821 30.9179 109.017C20.8308 94.5674 -43.694 9.93706 73.7693 7.94164C103.861 7.94164 96.1082 31.1331 119.189 44.9299Z" fill="#FFF7F2"/>
<path fill-rule="evenodd" clip-rule="evenodd" d="M125.604 94.015C125.449 94.0556 125.255 93.9391 125.131 93.8381C125.007 93.7372 124.982 93.5101 125.011 93.3685L125.362 89.9673C125.604 88.4662 126.209 88.0058 126.866 88.0005C127.159 87.9899 127.562 88.1512 127.949 88.3831C128.518 88.782 129.059 89.2206 129.567 89.6958C130.03 90.1276 130.441 90.6142 130.79 91.1452C130.896 91.3144 130.968 91.5034 131.002 91.7012C131.035 91.8989 131.03 92.1014 130.985 92.297C130.881 92.7922 130.444 93.1415 129.744 93.3598C129.043 93.5782 128.01 93.6497 127.171 93.8372L127.101 93.8222L125.604 94.015ZM126.218 92.8168L126.559 90.1533C126.633 89.7997 126.678 89.5871 126.723 89.375C126.752 89.2334 126.767 89.1624 126.837 89.1779C127.004 89.207 127.164 89.2667 127.309 89.3542C127.697 89.5861 128.179 90.061 128.731 90.5505C129.214 91.0254 129.572 91.3988 129.721 91.7274C129.776 91.8129 129.816 91.9689 129.801 92.0404C129.786 92.1119 129.717 92.096 129.702 92.167C129.617 92.2226 129.464 92.2636 129.309 92.3037C128.608 92.5216 127.714 92.6236 126.889 92.7385L126.218 92.8168Z" fill="#ED5A29"/>
<path fill-rule="evenodd" clip-rule="evenodd" d="M12.8581 66.9643V67.3127C12.9448 70.6223 10.4295 72.3642 7.74082 72.5384C6.96022 72.6255 6.09289 72.4513 5.31229 72.19C3.4909 71.4932 2.10317 70.0126 2.01644 67.6611C1.9297 66.2676 2.1899 65.2225 2.7103 64.3515C3.66436 62.7838 5.31229 62 7.13369 62C8.26122 62 9.38875 62.3484 10.3428 62.8709C11.8173 63.7419 12.9448 65.1354 12.8581 66.9643ZM12.0775 66.9643V67.2256C11.9907 69.8384 9.82241 71.1449 7.74082 71.1449C7.13369 71.1449 6.43982 71.0578 5.83269 70.7965C4.53169 70.2739 3.40416 69.2288 3.31743 67.574C3.2307 66.2676 3.57763 65.2225 4.18476 64.6128C4.87863 63.829 6.00616 63.5677 7.04695 63.5677C7.91428 63.5677 8.86835 63.7419 9.64894 64.0903C10.9499 64.6128 11.9907 65.5708 12.0775 66.9643Z" fill="#ED5A29"/>
<path fill-rule="evenodd" clip-rule="evenodd" d="M138.952 83.9517C140.405 83.6413 140.26 80.7104 138.229 81.3047C136.563 81.7406 137.194 84.3275 138.876 83.9681L138.952 83.9517Z" fill="#ED5A29"/>
<path d="M31.3984 48.1704L115.228 47.1328V100.957L32.2421 101.75L31.3984 48.1704Z" fill="white"/>
<path d="M112.228 47.4203L95.5762 47.7636L78.9248 48.0305C67.8238 48.1831 56.7229 48.2593 45.6599 48.2212C42.8847 48.2212 40.1094 48.1831 37.3342 48.1449L35.2813 48.1068C34.9011 48.1068 34.5209 48.2212 34.1788 48.45C33.8747 48.6788 33.6085 48.9839 33.4565 49.3653C33.3804 49.556 33.3424 49.7467 33.3424 49.9374V50.0136V50.128V50.395V50.9289C33.2664 56.4969 33.1523 62.0649 33.1143 67.6328L33.0763 75.9085L33.0383 84.2605L33.0003 100.964L31.8978 99.8585L73.7925 99.7822L115.687 99.744L114.509 100.926L114.623 72.7432L114.737 58.6326L114.813 51.5772V50.7001V50.2425C114.813 50.0899 114.813 49.9374 114.813 49.823C114.813 49.3653 114.699 48.9458 114.471 48.5644C114.014 47.8017 113.178 47.3059 112.266 47.2678V47.4203H112.228ZM112.228 45.7042C112.95 45.7042 113.672 45.8949 114.319 46.2381C114.965 46.5813 115.497 47.1152 115.877 47.7254C116.257 48.3356 116.486 49.0602 116.524 49.823C116.524 50.0136 116.524 50.128 116.524 50.2806V50.7382V51.6154L116.6 58.6707L116.714 72.7813L116.828 100.964V102.147H115.649L73.7545 102.109L31.9358 102.07H30.8333V100.964L30.7953 84.2605L30.7573 75.9085L30.6812 67.5566C30.6432 61.9886 30.5292 56.4206 30.4531 50.8526V50.3187V50.0518V49.9374V49.7467C30.4531 49.2509 30.5672 48.7551 30.7192 48.2975C31.0234 47.3441 31.6697 46.5051 32.468 45.933C33.2664 45.3228 34.2548 44.9796 35.2433 44.9796L37.3342 44.9414C40.1094 44.9033 42.8847 44.8652 45.6599 44.8652C56.7609 44.7889 67.8619 44.8652 78.9248 45.0558L95.5762 45.3228L112.228 45.666V45.7042Z" fill="#FBD9CE"/>
<path d="M124.278 114.542H23.3045C22.316 114.542 21.7458 113.359 22.392 112.597L31.8963 100.965H115.648L125.152 112.597C125.836 113.359 125.266 114.542 124.278 114.542Z" fill="#FBD9CE"/>
<path d="M124.277 114.884L94.6235 115.151L79.7969 115.228C74.8547 115.228 69.9125 115.228 64.9703 115.19L35.317 114.999H27.9037H24.178H23.7218H23.4937C23.4177 114.999 23.3417 114.999 23.2276 114.999C22.8094 114.999 22.3912 114.77 22.0871 114.465C21.821 114.16 21.6309 113.702 21.6689 113.283C21.6689 113.054 21.7449 112.863 21.821 112.673C21.897 112.482 22.0491 112.291 22.1251 112.215L31.5533 100.659L31.7054 100.507H31.9335L73.8282 100.469H94.7756L115.723 100.545H115.913L116.027 100.698L121.616 107.562L124.391 110.995L125.075 111.872L125.417 112.291C125.455 112.367 125.531 112.482 125.607 112.558C125.645 112.673 125.721 112.787 125.759 112.901C125.912 113.359 125.797 113.893 125.531 114.274C125.227 114.656 124.733 114.884 124.277 114.884ZM124.277 114.198C124.543 114.198 124.809 114.084 124.961 113.855C125.113 113.626 125.151 113.359 125.075 113.092C125.075 113.016 125.037 112.978 124.999 112.901C124.961 112.863 124.923 112.787 124.847 112.711L124.505 112.291L123.783 111.452L120.969 108.058L115.343 101.231L115.647 101.384L94.6996 101.46H73.7522L31.9335 101.422L32.2756 101.27L22.8474 112.749C22.7334 112.901 22.6954 112.939 22.6573 113.054C22.6193 113.13 22.5813 113.245 22.5813 113.321C22.5813 113.512 22.6573 113.702 22.7714 113.855C22.8855 114.007 23.0755 114.084 23.2656 114.084C23.3036 114.084 23.4177 114.084 23.4557 114.084H23.6838H24.14H27.8657H35.279L64.9323 113.893C69.8745 113.855 74.8167 113.855 79.7589 113.855L94.5855 113.931L124.277 114.198Z" fill="#FBD9CE"/>
<path d="M110.361 103.519C104.278 103.786 98.1574 103.863 92.0746 103.824C89.0333 103.786 85.9919 103.672 82.9125 103.672C79.8712 103.634 76.8298 103.634 73.7504 103.634H55.5023C52.4609 103.634 49.4196 103.596 46.3402 103.596C43.2988 103.558 40.2575 103.558 37.1781 103.481C36.988 103.481 36.8359 103.329 36.8359 103.138C36.8359 102.947 36.988 102.795 37.1781 102.795C40.2194 102.718 43.2608 102.718 46.3402 102.68C49.3815 102.642 52.4229 102.604 55.5023 102.642L73.7885 102.68C76.8298 102.68 79.8712 102.68 82.9506 102.642C85.9919 102.604 89.0333 102.49 92.1127 102.49C98.1954 102.452 104.316 102.528 110.399 102.795C110.589 102.795 110.741 102.985 110.741 103.176C110.703 103.367 110.551 103.519 110.361 103.519Z" fill="white"/>
<path d="M31.7474 105.501C38.7425 105.196 45.7756 105.119 52.7708 105.157L58.0171 105.234C59.7659 105.272 61.5147 105.31 63.2635 105.31C66.761 105.348 70.2586 105.348 73.7561 105.348L94.7796 105.31C98.2771 105.31 101.775 105.348 105.272 105.348C108.77 105.386 112.267 105.386 115.765 105.463C115.955 105.463 116.107 105.615 116.107 105.844C116.107 106.035 115.955 106.187 115.765 106.187C112.267 106.263 108.77 106.263 105.272 106.302C101.775 106.34 98.2771 106.378 94.7796 106.34L73.7561 106.302C70.2586 106.302 66.761 106.302 63.2635 106.34C61.5147 106.34 59.7659 106.378 58.0171 106.416L52.7708 106.607C45.7756 106.645 38.7425 106.569 31.7474 106.263C31.5193 106.263 31.3672 106.073 31.3672 105.844C31.4052 105.653 31.5573 105.501 31.7474 105.501Z" fill="white"/>
<path d="M88.1605 112.33C85.8415 112.368 83.5224 112.444 81.1274 112.521C78.7703 112.597 76.3372 112.673 73.9041 112.711L70.2165 112.749L66.5288 112.711C64.0577 112.673 61.6627 112.635 59.2296 112.597H58.2031L58.9254 111.834L62.2709 108.249L62.385 108.097H62.5751L73.562 108.059H79.0364L84.5109 108.135H84.701L84.815 108.249C85.3853 108.898 85.9936 109.584 86.5638 110.271L88.1605 112.33ZM87.5523 112.063C86.982 111.491 86.3737 110.995 85.8415 110.461C85.2712 109.965 84.777 109.432 84.2448 108.898L84.5489 109.012L79.0745 109.088H73.6L62.6131 109.05L62.9172 108.898L59.6098 112.482L59.2676 111.72C61.6247 111.72 63.9437 111.682 66.2627 111.605L69.7223 111.567L73.1818 111.605C75.5389 111.682 77.8579 111.72 80.253 111.796C82.6481 111.949 85.0811 112.025 87.5523 112.063Z" fill="white"/>
<path fill-rule="evenodd" clip-rule="evenodd" d="M105.219 54.5457C98.4733 54.539 42.7218 55.3954 39.8015 55.4307C38.9011 55.4414 40.2397 79.8006 40.2673 80.0603C40.2787 80.1668 105.478 79.2475 105.652 79.2123C105.929 79.1568 105.219 54.5457 105.219 54.5457Z" fill="#FFEFE5"/>
<path fill-rule="evenodd" clip-rule="evenodd" d="M68.4932 59.7684C72.1296 59.7753 75.2889 59.7813 77.1757 59.7832C77.1757 59.7832 77.5571 62.7145 77.2803 62.7699C77.106 62.8051 44.8713 63.2685 44.8598 63.162C44.8543 63.1101 44.8006 62.9436 44.7253 62.7101C44.4234 61.7736 43.7743 59.7607 44.4951 59.7521C46.5986 59.7266 59.128 59.7505 68.4932 59.7684ZM63.764 64.404C66.6683 64.3797 69.19 64.3587 70.699 64.3444C70.699 64.3444 70.9989 67.2754 70.7764 67.3326C70.6363 67.3691 44.728 68.1103 44.7192 68.0044C44.7148 67.9526 44.6721 67.7866 44.6121 67.5538L44.6121 67.5538L44.6121 67.5538C44.3716 66.6194 43.8542 64.6098 44.4334 64.595C46.1269 64.5511 56.2323 64.4668 63.764 64.404ZM56.635 70.3095C58.5268 70.3423 60.1726 70.3708 61.1518 70.385C61.1518 70.385 61.4156 75.031 61.2743 75.1168C61.1858 75.1708 44.6213 75.7146 44.613 75.5461C44.6089 75.4643 44.5777 75.2021 44.5338 74.8343L44.5338 74.8343C44.3571 73.3512 43.9757 70.1518 44.3468 70.1425C45.424 70.1151 51.8248 70.2261 56.635 70.3095ZM57.224 84.744L57.2238 84.744L57.2235 84.744C52.1892 84.6065 45.4907 84.4235 44.3631 84.4994C43.9754 84.525 44.3286 91.2683 44.4954 94.4531C44.5371 95.2496 44.5672 95.8235 44.5711 96.0142C44.5789 96.4041 61.9636 95.9466 62.0564 95.8205C62.2048 95.6203 61.9508 84.8667 61.9508 84.8667C60.9261 84.8452 59.2038 84.7981 57.224 84.744ZM64.507 85.0571C66.0745 84.9518 78.5624 84.7895 82.185 84.8668C82.185 84.8668 82.3099 96.1831 82.1618 96.3832C82.0692 96.5093 64.4826 96.8977 64.4747 96.5078C64.472 96.3751 64.4613 96.0579 64.4462 95.6102C64.3527 92.8424 64.0907 85.0846 64.507 85.0571ZM85.1695 96.5891C88.7913 96.7434 101.212 96.5101 102.775 96.4423C103.162 96.426 102.573 89.2383 102.3 85.9066L102.3 85.9064C102.233 85.0802 102.184 84.4911 102.175 84.3074C102.157 83.9291 84.9092 84.9514 84.8201 85.0716C84.6777 85.2625 85.1695 96.5891 85.1695 96.5891Z" fill="#ED5A29"/>
<path d="M40.2122 40.2393C40.6574 40.3168 41.1141 40.2957 41.55 40.1775C41.986 40.0592 42.3907 39.8466 42.7354 39.5548C43.573 38.8505 44.185 37.7363 44.2123 36.6355C44.2501 35.4057 43.6938 34.3172 43.2526 33.3668C43.1454 33.0977 42.9789 32.7582 42.8716 32.4891C42.5287 31.9398 42.062 30.5346 42.981 29.6428C43.5498 29.0444 44.602 28.8783 45.6542 28.7122L45.3486 26.9313C44.2964 27.0974 42.7181 27.3466 41.7195 28.4255C40.5815 29.6215 40.3592 31.4859 41.1793 33.3115C41.3458 33.6509 41.453 33.92 41.619 34.2589C42.0691 35.0784 42.391 35.8857 42.3832 36.7267C42.3511 37.113 42.0389 37.7347 41.5504 38.1455C41.2909 38.3656 40.9556 38.4755 40.616 38.4518L40.2122 40.2393Z" fill="#F15928"/>
</svg>
