<svg width="148" height="148" viewBox="0 0 148 148" fill="none" xmlns="http://www.w3.org/2000/svg">
<path d="M35.9585 16.7979C57.338 0.488106 102.683 -7.02859 131.208 23.9507C180.124 77.0602 83.4336 133.715 58.7312 139.459C41.5697 143.461 -28.7024 157.025 13.0522 47.2152C16.4898 38.18 25.4089 24.8458 35.9585 16.7979Z" fill="#FFF7F2"/>
<g clip-path="url(#clip0_3524_16560)">
<path d="M112.228 47.4203L95.5762 47.7636L78.9248 48.0305C67.8238 48.1831 56.7229 48.2593 45.6599 48.2212C42.8847 48.2212 40.1094 48.1831 37.3342 48.1449L35.2813 48.1068C34.9011 48.1068 34.5209 48.2212 34.1788 48.45C33.8747 48.6788 33.6085 48.9839 33.4565 49.3653C33.3804 49.556 33.3424 49.7467 33.3424 49.9374V50.0136V50.128V50.395V50.9289C33.2664 56.4969 33.1523 62.0649 33.1143 67.6329L33.0763 75.9085L33.0383 84.2605L33.0003 100.964L31.8978 99.8585L73.7925 99.7822L115.687 99.7441L114.509 100.926L114.623 72.7432L114.737 58.6326L114.813 51.5772V50.7001V50.2425C114.813 50.0899 114.813 49.9374 114.813 49.823C114.813 49.3653 114.699 48.9458 114.471 48.5644C114.014 47.8017 113.178 47.3059 112.266 47.2678V47.4203H112.228ZM112.228 45.7042C112.95 45.7042 113.672 45.8949 114.319 46.2381C114.965 46.5813 115.497 47.1152 115.877 47.7254C116.257 48.3356 116.486 49.0602 116.524 49.823C116.524 50.0136 116.524 50.128 116.524 50.2806V50.7382V51.6154L116.6 58.6707L116.714 72.7813L116.828 100.964V102.147H115.649L73.7545 102.109L31.9358 102.07H30.8333V100.964L30.7953 84.2605L30.7573 75.9085L30.6812 67.5566C30.6432 61.9886 30.5292 56.4206 30.4531 50.8526V50.3187V50.0518V49.9374V49.7467C30.4531 49.2509 30.5672 48.7551 30.7192 48.2975C31.0234 47.3441 31.6697 46.5051 32.468 45.933C33.2664 45.3228 34.2548 44.9796 35.2433 44.9796L37.3342 44.9414C40.1094 44.9033 42.8847 44.8652 45.6599 44.8652C56.7609 44.7889 67.8619 44.8652 78.9248 45.0558L95.5762 45.3228L112.228 45.666V45.7042Z" fill="#FBD9CE"/>
<path d="M124.278 114.542H23.3045C22.316 114.542 21.7458 113.359 22.392 112.597L31.8963 100.965H115.648L125.152 112.597C125.836 113.359 125.266 114.542 124.278 114.542Z" fill="#FBD9CE"/>
<path d="M124.277 114.884L94.6235 115.151L79.7969 115.228C74.8547 115.228 69.9125 115.228 64.9703 115.19L35.317 114.999H27.9037H24.178H23.7218H23.4937C23.4177 114.999 23.3417 114.999 23.2276 114.999C22.8094 114.999 22.3912 114.77 22.0871 114.465C21.821 114.16 21.6309 113.702 21.6689 113.283C21.6689 113.054 21.7449 112.863 21.821 112.673C21.897 112.482 22.0491 112.291 22.1251 112.215L31.5533 100.659L31.7054 100.507H31.9335L73.8282 100.469H94.7756L115.723 100.545H115.913L116.027 100.698L121.616 107.562L124.391 110.995L125.075 111.872L125.417 112.291C125.455 112.367 125.531 112.482 125.607 112.558C125.645 112.673 125.721 112.787 125.759 112.901C125.912 113.359 125.797 113.893 125.531 114.274C125.227 114.656 124.733 114.884 124.277 114.884ZM124.277 114.198C124.543 114.198 124.809 114.084 124.961 113.855C125.113 113.626 125.151 113.359 125.075 113.092C125.075 113.016 125.037 112.978 124.999 112.901C124.961 112.863 124.923 112.787 124.847 112.711L124.505 112.291L123.783 111.452L120.969 108.058L115.343 101.231L115.647 101.384L94.6996 101.46H73.7522L31.9335 101.422L32.2757 101.27L22.8474 112.749C22.7334 112.901 22.6954 112.939 22.6573 113.054C22.6193 113.13 22.5813 113.245 22.5813 113.321C22.5813 113.512 22.6573 113.702 22.7714 113.855C22.8855 114.007 23.0755 114.084 23.2656 114.084C23.3036 114.084 23.4177 114.084 23.4557 114.084H23.6838H24.14H27.8657H35.279L64.9323 113.893C69.8745 113.855 74.8167 113.855 79.7589 113.855L94.5855 113.931L124.277 114.198Z" fill="#FBD9CE"/>
<path d="M110.361 103.519C104.278 103.786 98.1574 103.863 92.0746 103.824C89.0333 103.786 85.9919 103.672 82.9125 103.672C79.8712 103.634 76.8298 103.634 73.7504 103.634H55.5023C52.4609 103.634 49.4196 103.596 46.3402 103.596C43.2988 103.558 40.2575 103.558 37.1781 103.481C36.988 103.481 36.8359 103.329 36.8359 103.138C36.8359 102.947 36.988 102.795 37.1781 102.795C40.2194 102.718 43.2608 102.718 46.3402 102.68C49.3815 102.642 52.4229 102.604 55.5023 102.642L73.7885 102.68C76.8298 102.68 79.8712 102.68 82.9506 102.642C85.9919 102.604 89.0333 102.49 92.1127 102.49C98.1954 102.452 104.316 102.528 110.399 102.795C110.589 102.795 110.741 102.985 110.741 103.176C110.703 103.367 110.551 103.519 110.361 103.519Z" fill="white"/>
<path d="M31.7474 105.501C38.7425 105.196 45.7756 105.119 52.7708 105.157L58.0171 105.234C59.7659 105.272 61.5147 105.31 63.2635 105.31C66.761 105.348 70.2586 105.348 73.7561 105.348L94.7796 105.31C98.2771 105.31 101.775 105.348 105.272 105.348C108.77 105.386 112.267 105.386 115.765 105.463C115.955 105.463 116.107 105.615 116.107 105.844C116.107 106.035 115.955 106.187 115.765 106.187C112.267 106.263 108.77 106.263 105.272 106.302C101.775 106.34 98.2771 106.378 94.7796 106.34L73.7561 106.302C70.2586 106.302 66.761 106.302 63.2635 106.34C61.5147 106.34 59.7659 106.378 58.0171 106.416L52.7708 106.607C45.7756 106.645 38.7425 106.569 31.7474 106.263C31.5193 106.263 31.3672 106.073 31.3672 105.844C31.4052 105.653 31.5573 105.501 31.7474 105.501Z" fill="white"/>
<path d="M88.1605 112.33C85.8415 112.368 83.5224 112.444 81.1274 112.521C78.7703 112.597 76.3372 112.673 73.9041 112.711L70.2165 112.749L66.5288 112.711C64.0577 112.673 61.6627 112.635 59.2296 112.597H58.2031L58.9254 111.834L62.2709 108.249L62.385 108.097H62.5751L73.562 108.059H79.0364L84.5109 108.135H84.701L84.815 108.249C85.3853 108.898 85.9936 109.584 86.5638 110.271L88.1605 112.33ZM87.5523 112.063C86.982 111.491 86.3737 110.995 85.8415 110.461C85.2712 109.965 84.777 109.432 84.2448 108.898L84.5489 109.012L79.0745 109.088H73.6L62.6131 109.05L62.9172 108.898L59.6098 112.482L59.2676 111.72C61.6247 111.72 63.9437 111.682 66.2627 111.605L69.7223 111.567L73.1818 111.605C75.5389 111.682 77.8579 111.72 80.253 111.796C82.6481 111.949 85.0811 112.025 87.5523 112.063Z" fill="white"/>
<path fill-rule="evenodd" clip-rule="evenodd" d="M106.837 41.8565C100.074 41.5348 44.2246 42.662 41.2988 42.5937C40.3966 42.5723 41.2592 87.1648 41.2987 87.648C41.3151 87.8461 105.665 87.3947 105.838 87.3374C106.113 87.2472 106.837 41.8565 106.837 41.8565Z" fill="white"/>
<path fill-rule="evenodd" clip-rule="evenodd" d="M93.0135 55.8295C85.2663 55.8927 58.8373 56.0572 55.4835 56.1377C54.4493 56.1623 55.8463 60.5175 55.8759 60.8785C55.8882 61.0266 92.91 60.0351 93.1105 59.9843C93.4288 59.9041 93.0135 55.8295 93.0135 55.8295Z" fill="#F7B59F"/>
<path fill-rule="evenodd" clip-rule="evenodd" d="M87.7522 61.8404C82.3105 61.9118 63.7478 62.1042 61.3928 62.1889C60.6667 62.2145 61.6578 66.5694 61.6796 66.931C61.6884 67.0783 87.6893 66.0473 87.8299 65.9966C88.0532 65.917 87.7522 61.8404 87.7522 61.8404Z" fill="#F7B59F"/>
<path fill-rule="evenodd" clip-rule="evenodd" d="M82.8506 71.7043C79.3692 71.6345 67.4917 71.3139 65.9856 71.3671C65.5208 71.3831 66.2322 78.3101 66.2527 78.8828C66.261 79.1171 82.8847 78.3608 82.9735 78.2857C83.1154 78.1664 82.8506 71.7043 82.8506 71.7043Z" fill="#ED5A29"/>
<path fill-rule="evenodd" clip-rule="evenodd" d="M87.3085 39.582L107.562 40.0353L106.832 69.9518L106.587 87.9987L65.3485 90.3495L41.3988 90.3495L40.4453 55.5372L40.4453 41.5393L87.3085 39.582ZM87.333 41.3952L41.3988 43.2083L41.9044 55.5064L43.3634 87.9987L65.3151 88.5364L105.738 86.7232L106.103 70.1388L106.103 41.3952L87.333 41.3952Z" fill="#ED5A29"/>
<g clip-path="url(#clip1_3524_16560)">
<path d="M101.978 45.0958C101.884 45.3902 101.721 45.6356 101.581 45.9055C101.418 46.1509 101.255 46.3962 101.045 46.5925C100.835 46.8134 100.602 46.9851 100.415 47.1814C100.205 47.4023 100.042 47.6231 99.8554 47.8439L98.7827 49.218C98.4096 49.6597 98.0364 50.1014 97.6167 50.494C97.5234 50.5921 97.3835 50.5676 97.2902 50.4695C97.2202 50.3958 97.2202 50.2732 97.2669 50.175C97.57 49.6843 97.9198 49.1935 98.2697 48.7518L99.3657 47.4268C99.5523 47.206 99.7388 46.9851 99.9021 46.7398C100.065 46.4944 100.182 46.2245 100.345 45.9791C100.508 45.7337 100.695 45.5129 100.905 45.3166C101.115 45.1203 101.325 44.924 101.581 44.7768C101.698 44.7032 101.861 44.7522 101.931 44.8749C102.001 44.9485 102.001 45.0221 101.978 45.0958Z" fill="#ED5A29"/>
<path d="M101.955 49.9534C101.548 49.6321 101.141 49.2615 100.734 48.9155C100.351 48.5696 99.9444 48.199 99.5616 47.853C99.1787 47.4824 98.7719 47.1117 98.4129 46.7411C98.03 46.3704 97.6472 45.9998 97.2882 45.6044C97.2164 45.5303 97.2164 45.4067 97.2882 45.3326C97.36 45.2585 97.4557 45.2585 97.5275 45.3079C97.9343 45.6291 98.3651 45.9751 98.7719 46.2963C99.2026 46.6175 99.6094 46.9635 100.016 47.2847C100.423 47.6306 100.83 47.9766 101.237 48.2978C101.643 48.6437 102.026 48.9897 102.409 49.3603C102.553 49.5086 102.553 49.731 102.433 49.8792C102.313 50.0522 102.098 50.0769 101.955 49.9534Z" fill="#ED5A29"/>
</g>
<path d="M94.1422 104.566C94.488 104.276 94.7658 103.912 94.9559 103.503C95.1459 103.093 95.2437 102.646 95.2422 102.195C95.2422 101.1 94.7833 99.9148 93.9583 99.1855C93.0413 98.3651 91.8502 98.0902 90.8388 97.8162C90.5638 97.7252 90.1969 97.6341 89.9219 97.5431C89.2808 97.452 87.9049 96.9048 87.8138 95.6275C87.7218 94.8071 88.2718 93.8948 88.8219 92.9826L87.2621 92.0703C86.7121 92.9826 85.8871 94.351 86.0702 95.8096C86.2532 97.4503 87.5371 98.8204 89.4622 99.3676C89.8291 99.4586 90.1041 99.5497 90.4702 99.6408C91.3872 99.8237 92.2122 100.097 92.8509 100.644C93.1259 100.917 93.4009 101.556 93.4009 102.195C93.4023 102.535 93.2706 102.862 93.0339 103.107L94.1422 104.566Z" fill="#F15928"/>
<path fill-rule="evenodd" clip-rule="evenodd" d="M28.135 73.9915C27.9803 74.0321 27.7867 73.9157 27.6625 73.8147C27.5383 73.7137 27.5131 73.4867 27.5426 73.3451L27.8928 69.9439C28.135 68.4428 28.7407 67.9824 29.3968 67.9771C29.6899 67.9664 30.0929 68.1278 30.4807 68.3597C31.0493 68.7585 31.5898 69.1971 32.0984 69.6724C32.5617 70.1041 32.9723 70.5907 33.3216 71.1217C33.4277 71.291 33.4996 71.48 33.5331 71.6777C33.5666 71.8755 33.561 72.078 33.5167 72.2735C33.4125 72.7687 32.9752 73.118 32.2749 73.3364C31.5745 73.5548 30.5411 73.6263 29.7018 73.8137L29.6318 73.7988L28.135 73.9915ZM28.7497 72.7934L29.0904 70.1299C29.1646 69.7762 29.2093 69.5637 29.254 69.3516C29.2835 69.21 29.2983 69.139 29.3682 69.1544C29.5348 69.1835 29.6948 69.2433 29.8402 69.3308C30.228 69.5627 30.7105 70.0376 31.2624 70.527C31.7448 71.0019 32.1031 71.3754 32.2525 71.7039C32.3072 71.7894 32.3477 71.9455 32.3324 72.017C32.3172 72.0885 32.2478 72.0725 32.233 72.1436C32.1483 72.1991 31.9951 72.2402 31.8405 72.2803C31.1396 72.4982 30.2456 72.6001 29.4206 72.7151L28.7497 72.7934Z" fill="#ED5A29"/>
</g>
<path fill-rule="evenodd" clip-rule="evenodd" d="M118.413 32.4995V32.8479C118.499 36.1574 115.984 37.8993 113.296 38.0735C112.515 38.1606 111.648 37.9864 110.867 37.7251C109.046 37.0284 107.658 35.5478 107.571 33.1963C107.484 31.8028 107.745 30.7576 108.265 29.8867C109.219 28.319 110.867 27.5352 112.688 27.5352C113.816 27.5352 114.943 27.8835 115.897 28.4061C117.372 29.277 118.499 30.6705 118.413 32.4995ZM117.632 32.4995V32.7608C117.545 35.3736 115.377 36.68 113.296 36.68C112.688 36.68 111.995 36.5929 111.387 36.3316C110.086 35.8091 108.959 34.7639 108.872 33.1092C108.785 31.8028 109.132 30.7576 109.739 30.148C110.433 29.3641 111.561 29.1028 112.602 29.1028C113.469 29.1028 114.423 29.277 115.204 29.6254C116.505 30.148 117.545 31.106 117.632 32.4995Z" fill="#ED5A29"/>
<path fill-rule="evenodd" clip-rule="evenodd" d="M124.593 46.1783C126.046 45.8679 125.901 42.937 123.869 43.5312C122.204 43.9672 122.835 46.554 124.517 46.1946L124.593 46.1783Z" fill="#ED5A29"/>
<defs>
<clipPath id="clip0_3524_16560">
<rect width="104.129" height="82.9857" fill="white" transform="translate(21.6719 32.2422)"/>
</clipPath>
<clipPath id="clip1_3524_16560">
<rect width="6.34286" height="6.87143" fill="white" transform="translate(96.375 43.8828)"/>
</clipPath>
</defs>
</svg>
