<svg width="148" height="146" viewBox="0 0 148 146" fill="none" xmlns="http://www.w3.org/2000/svg">
<g clip-path="url(#clip0_17617_706)">
<path d="M103.423 130.626C80.7486 145.642 54.3921 144.178 23.6724 111.535C-29.0069 55.5716 34.5 65.0271 55 54.5C73.5 45 124.609 -44.6221 135.03 50.7217C138.549 82.9157 126.097 115.61 103.423 130.626Z" fill="#FFF7F2"/>
<path fill-rule="evenodd" clip-rule="evenodd" d="M125.604 92.7445C125.449 92.7845 125.255 92.6696 125.131 92.57C125.007 92.4704 124.982 92.2464 125.011 92.1067L125.362 88.7515C125.604 87.2707 126.209 86.8165 126.866 86.8113C127.159 86.8008 127.562 86.9599 127.949 87.1887C128.518 87.5822 129.059 88.0149 129.567 88.4837C130.03 88.9096 130.441 89.3897 130.79 89.9135C130.896 90.0804 130.968 90.2668 131.002 90.462C131.035 90.657 131.03 90.8568 130.985 91.0497C130.881 91.5382 130.444 91.8828 129.744 92.0982C129.043 92.3136 128.01 92.3841 127.171 92.5691L127.101 92.5543L125.604 92.7445ZM126.218 91.5625L126.559 88.935C126.633 88.5862 126.678 88.3764 126.723 88.1672C126.752 88.0275 126.767 87.9575 126.837 87.9728C127.004 88.0015 127.164 88.0604 127.309 88.1467C127.697 88.3754 128.179 88.8439 128.731 89.3268C129.214 89.7953 129.572 90.1637 129.721 90.4878C129.776 90.5722 129.816 90.726 129.801 90.7966C129.786 90.8671 129.717 90.8514 129.702 90.9215C129.617 90.9763 129.464 91.0168 129.309 91.0563C128.608 91.2713 127.714 91.3719 126.889 91.4852L126.218 91.5625Z" fill="#ED5A29"/>
<path fill-rule="evenodd" clip-rule="evenodd" d="M12.8581 66.0594V66.4031C12.9448 69.668 10.4295 71.3863 7.74082 71.5582C6.96022 71.6441 6.09289 71.4722 5.31229 71.2145C3.4909 70.5271 2.10317 69.0665 2.01644 66.7468C1.9297 65.3721 2.1899 64.3411 2.7103 63.4819C3.66436 61.9354 5.31229 61.1622 7.13369 61.1622C8.26122 61.1622 9.38875 61.5059 10.3428 62.0213C11.8173 62.8805 12.9448 64.2552 12.8581 66.0594ZM12.0775 66.0594V66.3172C11.9907 68.8946 9.82241 70.1835 7.74082 70.1835C7.13369 70.1835 6.43982 70.0976 5.83269 69.8398C4.53169 69.3243 3.40416 68.2933 3.31743 66.6608C3.2307 65.3721 3.57763 64.3411 4.18476 63.7397C4.87863 62.9665 6.00616 62.7087 7.04695 62.7087C7.91428 62.7087 8.86835 62.8805 9.64894 63.2242C10.9499 63.7397 11.9907 64.6847 12.0775 66.0594Z" fill="#ED5A29"/>
<path fill-rule="evenodd" clip-rule="evenodd" d="M138.952 82.8172C140.405 82.511 140.26 79.6197 138.229 80.206C136.563 80.636 137.194 83.1879 138.876 82.8334L138.952 82.8172Z" fill="#ED5A29"/>
<path d="M31.3984 47.5194L115.228 46.4958V99.5927L32.2421 100.375L31.3984 47.5194Z" fill="white"/>
<path d="M112.228 46.7795L95.5762 47.1181L78.9248 47.3814C67.8238 47.5319 56.7229 47.6071 45.6599 47.5695C42.8847 47.5695 40.1094 47.532 37.3342 47.4943L35.2813 47.4567C34.9011 47.4567 34.5209 47.5695 34.1788 47.7952C33.8747 48.021 33.6085 48.3219 33.4565 48.6982C33.3804 48.8863 33.3424 49.0744 33.3424 49.2625V49.3377V49.4506V49.714V50.2406C33.2664 55.7334 33.1523 61.2262 33.1143 66.7188L33.0763 74.8827L33.0383 83.1218L33.0003 99.5996L31.8978 98.509L73.7925 98.4338L115.687 98.3961L114.509 99.5621L114.623 71.7602L114.737 57.8402L114.813 50.8802V50.0149V49.5635C114.813 49.413 114.813 49.2625 114.813 49.1497C114.813 48.6982 114.699 48.2843 114.471 47.9081C114.014 47.1557 113.178 46.6666 112.266 46.629V46.7795H112.228ZM112.228 45.0865C112.95 45.0865 113.672 45.2747 114.319 45.6132C114.965 45.9518 115.497 46.4785 115.877 47.0804C116.257 47.6824 116.486 48.3972 116.524 49.1497C116.524 49.3377 116.524 49.4506 116.524 49.6011V50.0525V50.9179L116.6 57.8778L116.714 71.7977L116.828 99.5996V100.767H115.649L73.7545 100.729L31.9358 100.691H30.8333V99.5996L30.7953 83.1218L30.7573 74.8827L30.6812 66.6436C30.6432 61.1509 30.5292 55.6581 30.4531 50.1654V49.6387V49.3754V49.2625V49.0744C30.4531 48.5853 30.5672 48.0962 30.7192 47.6448C31.0234 46.7043 31.6697 45.8766 32.468 45.3123C33.2664 44.7103 34.2548 44.3717 35.2433 44.3717L37.3342 44.3341C40.1094 44.2965 42.8847 44.2589 45.6599 44.2589C56.7609 44.1836 67.8619 44.2589 78.9248 44.4469L95.5762 44.7103L112.228 45.0489V45.0865Z" fill="#FBD9CE"/>
<path d="M124.278 112.994H23.3045C22.316 112.994 21.7458 111.827 22.392 111.075L31.8963 99.6006H115.648L125.152 111.075C125.836 111.827 125.266 112.994 124.278 112.994Z" fill="#FBD9CE"/>
<path d="M124.277 113.332L94.6235 113.595L79.7969 113.671C74.8547 113.671 69.9125 113.671 64.9703 113.633L35.317 113.445H27.9037H24.178H23.7218H23.4937C23.4177 113.445 23.3417 113.445 23.2276 113.445C22.8094 113.445 22.3912 113.219 22.0871 112.918C21.821 112.617 21.6309 112.165 21.6689 111.752C21.6689 111.526 21.7449 111.338 21.821 111.15C21.897 110.962 22.0491 110.774 22.1251 110.699L31.5533 99.2988L31.7054 99.1488H31.9335L73.8282 99.1113H94.7756L115.723 99.1863H115.913L116.027 99.3372L121.616 106.108L124.391 109.495L125.075 110.36L125.417 110.774C125.455 110.849 125.531 110.962 125.607 111.037C125.645 111.15 125.721 111.263 125.759 111.375C125.912 111.827 125.797 112.354 125.531 112.73C125.227 113.107 124.733 113.332 124.277 113.332ZM124.277 112.655C124.543 112.655 124.809 112.542 124.961 112.316C125.113 112.091 125.151 111.827 125.075 111.564C125.075 111.489 125.037 111.451 124.999 111.375C124.961 111.338 124.923 111.263 124.847 111.188L124.505 110.774L123.783 109.946L120.969 106.598L115.343 99.863L115.647 100.014L94.6996 100.089H73.7522L31.9335 100.051L32.2756 99.9015L22.8474 111.225C22.7334 111.375 22.6954 111.413 22.6573 111.526C22.6193 111.601 22.5813 111.715 22.5813 111.79C22.5813 111.978 22.6573 112.166 22.7714 112.316C22.8855 112.466 23.0755 112.542 23.2656 112.542C23.3036 112.542 23.4177 112.542 23.4557 112.542H23.6838H24.14H27.8657H35.279L64.9323 112.354C69.8745 112.316 74.8167 112.316 79.7589 112.316L94.5855 112.391L124.277 112.655Z" fill="#FBD9CE"/>
<path d="M110.361 102.12C104.278 102.383 98.1574 102.459 92.0746 102.421C89.0333 102.383 85.9919 102.271 82.9125 102.271C79.8712 102.234 76.8298 102.234 73.7504 102.234H55.5023C52.4609 102.234 49.4196 102.196 46.3402 102.196C43.2988 102.159 40.2575 102.159 37.1781 102.083C36.988 102.083 36.8359 101.933 36.8359 101.744C36.8359 101.556 36.988 101.406 37.1781 101.406C40.2194 101.33 43.2608 101.33 46.3402 101.292C49.3815 101.255 52.4229 101.217 55.5023 101.255L73.7885 101.292C76.8298 101.292 79.8712 101.292 82.9506 101.255C85.9919 101.217 89.0333 101.105 92.1127 101.105C98.1954 101.068 104.316 101.142 110.399 101.406C110.589 101.406 110.741 101.593 110.741 101.782C110.703 101.97 110.551 102.12 110.361 102.12Z" fill="white"/>
<path d="M31.7474 104.075C38.7425 103.774 45.7756 103.698 52.7708 103.736L58.0171 103.812C59.7659 103.849 61.5147 103.887 63.2635 103.887C66.761 103.924 70.2586 103.924 73.7561 103.924L94.7796 103.887C98.2771 103.887 101.775 103.924 105.272 103.924C108.77 103.962 112.267 103.962 115.765 104.038C115.955 104.038 116.107 104.188 116.107 104.414C116.107 104.602 115.955 104.752 115.765 104.752C112.267 104.827 108.77 104.827 105.272 104.865C101.775 104.903 98.2771 104.94 94.7796 104.903L73.7561 104.865C70.2586 104.865 66.761 104.865 63.2635 104.903C61.5147 104.903 59.7659 104.94 58.0171 104.978L52.7708 105.166C45.7756 105.204 38.7425 105.129 31.7474 104.827C31.5193 104.827 31.3672 104.64 31.3672 104.414C31.4052 104.225 31.5573 104.075 31.7474 104.075Z" fill="white"/>
<path d="M88.1605 110.812C85.8415 110.85 83.5224 110.925 81.1274 111C78.7703 111.075 76.3372 111.15 73.9041 111.188L70.2165 111.225L66.5288 111.188C64.0577 111.15 61.6627 111.113 59.2296 111.075H58.2031L58.9254 110.323L62.2709 106.786L62.385 106.636H62.5751L73.562 106.599H79.0364L84.5109 106.674H84.701L84.815 106.786C85.3853 107.426 85.9936 108.103 86.5638 108.781L88.1605 110.812ZM87.5523 110.549C86.982 109.984 86.3737 109.495 85.8415 108.968C85.2712 108.479 84.777 107.953 84.2448 107.426L84.5489 107.539L79.0745 107.614H73.6L62.6131 107.576L62.9172 107.426L59.6098 110.962L59.2676 110.21C61.6247 110.21 63.9437 110.173 66.2627 110.097L69.7223 110.059L73.1818 110.097C75.5389 110.173 77.8579 110.21 80.253 110.285C82.6481 110.436 85.0811 110.511 87.5523 110.549Z" fill="white"/>
<path fill-rule="evenodd" clip-rule="evenodd" d="M103.565 70C97.6568 69.9963 48.8299 70.4661 46.2723 70.4855C45.4838 70.4913 46.6561 83.8528 46.6803 83.9953C46.6903 84.0537 103.791 83.5495 103.944 83.5301C104.186 83.4997 103.565 70 103.565 70Z" fill="#F15928"/>
<path opacity="0.5" d="M72.6068 75.0467L72.6325 75.0464C78.5535 74.9811 86.475 74.8936 87.8047 74.8618C88.2602 74.8509 87.8352 73.6856 87.6373 73.1429L87.6371 73.1425L87.637 73.1423C87.5877 73.0071 87.5526 72.9107 87.5487 72.8806C87.5406 72.8187 67.1648 73.3491 67.0548 73.3709C66.8802 73.4054 67.1432 75.108 67.1432 75.108C68.3316 75.0939 70.3186 75.0719 72.6068 75.0467Z" fill="#F7B59F"/>
<path opacity="0.5" d="M57.3893 71.7454C59.4895 72.3189 62.2166 74.8663 61.6543 78.224C60.6911 83.9813 54.8248 83.3661 53.234 82.0594C52.128 81.1522 45.2389 74.479 54.3135 71.7671C55.0603 71.5441 56.353 71.4624 57.3893 71.7454Z" fill="#F7B59F"/>
<path fill-rule="evenodd" clip-rule="evenodd" d="M59.1863 86.1107C54.1097 86.0527 47.3545 85.9755 46.2175 86.0075C45.8265 86.0183 46.0492 91.9331 46.2174 93.2765C46.2595 93.6125 46.2898 93.8545 46.2938 93.935C46.3016 94.0994 63.8322 93.9065 63.9257 93.8533C64.0754 93.7688 63.9527 86.1624 63.9527 86.1624C62.9194 86.1534 61.1827 86.1335 59.1863 86.1107Z" fill="#FFEFE5"/>
<path fill-rule="evenodd" clip-rule="evenodd" d="M57.7211 52.2214C53.2087 52.1054 47.204 51.951 46.1933 52.015C45.8458 52.0366 46.0438 63.8662 46.1933 66.553C46.2306 67.2249 46.2576 67.7091 46.2611 67.8699C46.2681 68.1989 61.8508 67.8129 61.934 67.7065C62.067 67.5376 61.958 52.3249 61.958 52.3249C61.0395 52.3067 59.4957 52.267 57.7211 52.2214Z" fill="#FFEFE5"/>
<path fill-rule="evenodd" clip-rule="evenodd" d="M79.1863 86.1107C74.1097 86.0527 67.3545 85.9755 66.2175 86.0075C65.8265 86.0183 66.0492 91.9331 66.2174 93.2765C66.2595 93.6125 66.2898 93.8545 66.2938 93.935C66.3016 94.0994 83.8322 93.9065 83.9257 93.8533C84.0754 93.7688 83.9527 86.1624 83.9527 86.1624C82.9194 86.1534 81.1827 86.1335 79.1863 86.1107Z" fill="#FFEFE5"/>
<path fill-rule="evenodd" clip-rule="evenodd" d="M99.1863 86.1107C94.1097 86.0527 87.3545 85.9755 86.2175 86.0075C85.8265 86.0183 86.0492 91.9331 86.2174 93.2765C86.2595 93.6125 86.2898 93.8545 86.2938 93.935C86.3016 94.0994 103.832 93.9065 103.926 93.8533C104.075 93.7688 103.953 86.1624 103.953 86.1624C102.919 86.1534 101.183 86.1335 99.1863 86.1107Z" fill="#FFEFE5"/>
<path fill-rule="evenodd" clip-rule="evenodd" d="M57.7211 95.0277C53.2087 95.0132 47.204 94.9939 46.1933 95.0019C45.8458 95.0046 46.0438 96.4833 46.1933 96.8191C46.2306 96.9031 46.2576 96.9636 46.2611 96.9837C46.2681 97.0249 61.8508 96.9766 61.934 96.9633C62.067 96.9422 61.958 95.0406 61.958 95.0406C61.0395 95.0383 59.4957 95.0334 57.7211 95.0277Z" fill="#FFEFE5"/>
<path fill-rule="evenodd" clip-rule="evenodd" d="M74.7908 95.0277C71.4065 95.0132 66.903 94.9939 66.145 95.0019C65.8844 95.0046 66.0328 96.4833 66.145 96.8191C66.173 96.9031 66.1932 96.9636 66.1958 96.9837C66.2011 97.0249 77.8881 96.9766 77.9505 96.9633C78.0503 96.9422 77.9685 95.0406 77.9685 95.0406C77.2796 95.0383 76.1218 95.0334 74.7908 95.0277Z" fill="#FFEFE5"/>
<path fill-rule="evenodd" clip-rule="evenodd" d="M96.256 95.0277C92.3076 95.0132 87.0535 94.9939 86.1692 95.0019C85.8651 95.0046 86.0383 96.4833 86.1691 96.8191C86.2018 96.9031 86.2254 96.9636 86.2285 96.9837C86.2346 97.0249 99.8695 96.9766 99.9422 96.9633C100.059 96.9422 99.9632 95.0406 99.9632 95.0406C99.1596 95.0383 97.8087 95.0334 96.256 95.0277Z" fill="#FFEFE5"/>
<path d="M89.7425 53.026L89.7045 53.026C80.9635 53.009 69.2692 52.9864 67.3059 53.0105C66.6333 53.0187 67.2387 54.9241 67.5205 55.8114L67.5208 55.8121L67.5209 55.8124C67.5911 56.0334 67.6412 56.191 67.6463 56.2401C67.657 56.341 97.7433 55.9021 97.906 55.8688C98.1643 55.8163 97.8083 53.04 97.8083 53.04C96.0539 53.0382 93.1206 53.0325 89.7425 53.026Z" fill="#FFEFE5"/>
<path d="M85.7184 57.4128L85.2905 57.4165C78.2608 57.476 68.829 57.5558 67.2483 57.5974C66.7079 57.6114 67.1904 59.5137 67.4149 60.399L67.4151 60.3997C67.4711 60.6202 67.511 60.7774 67.5151 60.8265C67.5233 60.9268 91.7048 60.2248 91.8356 60.1902C92.0432 60.1361 91.7633 57.36 91.7633 57.36C90.4295 57.3728 88.2481 57.3914 85.7184 57.4128Z" fill="#FFEFE5"/>
<path d="M82.8524 63.0812C81.9385 63.0678 80.4024 63.0408 78.6367 63.0097L78.6305 63.0096C74.1416 62.9306 68.1724 62.8256 67.1675 62.8516C66.8213 62.8604 67.1767 65.8871 67.3418 67.2929L67.342 67.2953C67.383 67.6436 67.4121 67.892 67.416 67.9694C67.4237 68.129 82.8842 67.614 82.9668 67.5628C83.0987 67.4816 82.8524 63.0812 82.8524 63.0812Z" fill="#FFEFE5"/>
<path opacity="0.5" d="M78.2684 76.0228L78.0128 76.0244C73.7798 76.05 68.1004 76.0845 67.1487 76.1024C66.8232 76.1085 67.1138 76.9293 67.249 77.3113L67.2491 77.3116C67.2828 77.4068 67.3068 77.4746 67.3093 77.4958C67.3142 77.5391 81.8751 77.2361 81.9538 77.2212C82.0789 77.1978 81.9103 76 81.9103 76C81.1068 76.0055 79.7925 76.0135 78.2684 76.0228Z" fill="#F7B59F"/>
<g opacity="0.5">
<path d="M83.1399 78.0116L83.1129 78.0116C76.9096 78.004 68.6104 77.9939 67.2171 78.0047C66.7398 78.0083 67.1694 78.8594 67.3694 79.2557L67.3696 79.256L67.3696 79.2561C67.4195 79.3548 67.455 79.4252 67.4587 79.4472C67.4663 79.4922 88.8178 79.2962 88.9333 79.2813C89.1166 79.2579 88.864 78.0179 88.864 78.0179C87.6189 78.0171 85.5372 78.0145 83.1399 78.0116Z" fill="#F7B59F"/>
<path d="M80.2826 79.971L79.9804 79.9726C74.9916 79.9991 68.298 80.0348 67.1762 80.0534C66.7927 80.0596 67.1351 80.9093 67.2945 81.3047L67.2946 81.305C67.3343 81.4035 67.3626 81.4737 67.3655 81.4956C67.3714 81.5404 84.5324 81.2269 84.6252 81.2114C84.7726 81.1872 84.574 79.9474 84.574 79.9474C83.6272 79.9531 82.0784 79.9614 80.2826 79.971Z" fill="#F7B59F"/>
</g>
<path d="M40.2122 39.6955C40.6574 39.772 41.1141 39.7512 41.55 39.6346C41.986 39.5179 42.3907 39.3082 42.7354 39.0203C43.573 38.3255 44.185 37.2264 44.2123 36.1404C44.2501 34.9273 43.6938 33.8535 43.2526 32.9159C43.1454 32.6505 42.9789 32.3155 42.8716 32.0501C42.5287 31.5082 42.062 30.122 42.981 29.2422C43.5498 28.6519 44.602 28.4881 45.6542 28.3242L45.3486 26.5674C44.2964 26.7312 42.7181 26.9771 41.7195 28.0414C40.5815 29.2212 40.3592 31.0604 41.1793 32.8614C41.3458 33.1962 41.453 33.4616 41.619 33.796C42.0691 34.6044 42.391 35.4008 42.3832 36.2304C42.3511 36.6115 42.0389 37.2248 41.5504 37.63C41.2909 37.8472 40.9556 37.9556 40.616 37.9322L40.2122 39.6955Z" fill="#F15928"/>
</g>
<defs>
<clipPath id="clip0_17617_706">
<rect width="148" height="146" fill="white"/>
</clipPath>
</defs>
</svg>
