<svg width="236" height="151" viewBox="0 0 236 151" fill="none" xmlns="http://www.w3.org/2000/svg">
<rect x="1" y="1" width="234" height="149" rx="7" stroke="#F1F2F4" stroke-width="2"/>
<rect x="12" y="12" width="62" height="62" rx="4" fill="#E3E5E8"/>
<rect x="12" y="80" width="18" height="18" rx="4" fill="#E3E5E8"/>
<rect x="34" y="80" width="18" height="18" rx="4" fill="#E3E5E8"/>
<rect x="56" y="80" width="18" height="18" rx="4" fill="#E3E5E8"/>
<rect x="83" y="12" width="99" height="12" rx="4" fill="#E3E5E8"/>
<rect x="83" y="62" width="42" height="12" rx="4" fill="#E3E5E8"/>
<rect x="83" y="31" width="56" height="6" rx="3" fill="#E3E5E8"/>
<rect x="83" y="40" width="76" height="6" rx="3" fill="#E3E5E8"/>
<rect x="12" y="105" width="185" height="6" rx="3" fill="#E3E5E8"/>
<rect x="12" y="114" width="212" height="6" rx="3" fill="#E3E5E8"/>
<rect x="12" y="124" width="157" height="6" rx="3" fill="#E3E5E8"/>
<rect x="12" y="133" width="212" height="6" rx="3" fill="#E3E5E8"/>
</svg>
