<svg width="236" height="196" viewBox="0 0 236 196" fill="none" xmlns="http://www.w3.org/2000/svg">
<rect x="1" y="1" width="234" height="194" rx="7" stroke="#F1F2F4" stroke-width="2"/>
<rect x="12" y="12" width="62" height="62" rx="4" fill="#E3E5E8"/>
<rect x="12" y="80" width="18" height="18" rx="4" fill="#E3E5E8"/>
<rect x="34" y="80" width="18" height="18" rx="4" fill="#E3E5E8"/>
<rect x="56" y="80" width="18" height="18" rx="4" fill="#E3E5E8"/>
<rect x="83" y="12" width="99" height="12" rx="4" fill="#E3E5E8"/>
<rect x="83" y="46" width="42" height="12" rx="4" fill="#E3E5E8"/>
<rect x="83" y="28" width="56" height="6" rx="3" fill="#E3E5E8"/>
<rect x="83" y="37" width="76" height="6" rx="3" fill="#E3E5E8"/>
<rect x="12" y="117" width="185" height="6" rx="3" fill="#E3E5E8"/>
<rect x="12" y="126" width="212" height="6" rx="3" fill="#E3E5E8"/>
<rect x="12" y="136" width="157" height="6" rx="3" fill="#E3E5E8"/>
<rect x="12" y="145" width="212" height="6" rx="3" fill="#E3E5E8"/>
<rect x="83" y="64" width="141" height="44" rx="4" fill="#FBD9CE"/>
<rect x="132.851" y="70.3191" width="33.7021" height="8.42553" rx="2.80851" fill="#F7B59F"/>
<rect x="140.574" y="82.2554" width="33.7021" height="4.21277" rx="2.10638" fill="#F7B59F"/>
<rect x="132.851" y="81.5532" width="5.61702" height="5.61702" rx="2.80851" fill="#F7B59F"/>
<rect x="132.851" y="88.5745" width="5.61702" height="5.61702" rx="2.80851" fill="#F7B59F"/>
<rect x="132.851" y="95.5957" width="5.61702" height="5.61702" rx="2.80851" fill="#F7B59F"/>
<rect x="140.574" y="89.2766" width="37.2128" height="4.21277" rx="2.10638" fill="#F7B59F"/>
<rect x="140.574" y="96.2979" width="30.8936" height="4.21277" rx="2.10638" fill="#F7B59F"/>
<rect x="83" y="64" width="43.5319" height="43.5319" rx="4" fill="#F7B59F"/>
<path d="M112.138 75.2341H97.3935C96.5555 75.2341 95.7518 75.567 95.1593 76.1595C94.5668 76.7521 94.2339 77.5557 94.2339 78.3937V93.1384C94.2339 93.9764 94.5668 94.78 95.1593 95.3725C95.7518 95.9651 96.5555 96.298 97.3935 96.298H112.138C112.311 96.2955 112.484 96.2779 112.654 96.2453L112.97 96.1716H113.044H113.097L113.486 96.0241L113.623 95.9504C113.728 95.8872 113.844 95.8346 113.95 95.7608C114.09 95.6574 114.224 95.5448 114.35 95.4238L114.424 95.329C114.527 95.2242 114.622 95.1116 114.708 94.992L114.803 94.8551C114.876 94.7378 114.94 94.6145 114.992 94.4865C115.021 94.4359 115.046 94.3831 115.066 94.3285C115.119 94.2021 115.15 94.0652 115.192 93.9283V93.7703C115.252 93.5645 115.287 93.3524 115.298 93.1384V78.3937C115.298 77.5557 114.965 76.7521 114.372 76.1595C113.78 75.567 112.976 75.2341 112.138 75.2341ZM97.3935 94.1916C97.1141 94.1916 96.8463 94.0806 96.6487 93.8831C96.4512 93.6856 96.3403 93.4177 96.3403 93.1384V88.5991L99.8053 85.1236C99.9032 85.0249 100.02 84.9465 100.148 84.8931C100.276 84.8396 100.414 84.8121 100.553 84.8121C100.692 84.8121 100.83 84.8396 100.958 84.8931C101.086 84.9465 101.203 85.0249 101.301 85.1236L110.358 94.1916H97.3935ZM113.191 93.1384C113.19 93.2682 113.165 93.3968 113.118 93.5175C113.094 93.5689 113.065 93.6182 113.033 93.665C113.005 93.7096 112.973 93.7518 112.939 93.7914L107.304 88.1568L108.231 87.23C108.329 87.1313 108.445 87.0529 108.574 86.9994C108.702 86.946 108.84 86.9184 108.979 86.9184C109.118 86.9184 109.255 86.946 109.384 86.9994C109.512 87.0529 109.628 87.1313 109.726 87.23V87.23L113.191 90.7055V93.1384ZM113.191 87.725L111.211 85.766C110.609 85.1942 109.809 84.8753 108.979 84.8753C108.148 84.8753 107.349 85.1942 106.746 85.766L105.819 86.6929L102.786 83.6597C102.183 83.0878 101.384 82.769 100.553 82.769C99.7222 82.769 98.923 83.0878 98.3203 83.6597L96.3403 85.6186V78.3937C96.3403 78.1144 96.4512 77.8465 96.6487 77.649C96.8463 77.4515 97.1141 77.3405 97.3935 77.3405H112.138C112.417 77.3405 112.685 77.4515 112.883 77.649C113.08 77.8465 113.191 78.1144 113.191 78.3937V87.725Z" fill="#FBD9CE"/>
<rect x="12" y="159" width="62" height="26" rx="4" fill="#E3E5E8"/>
<rect x="87" y="159" width="62" height="26" rx="4" fill="#E3E5E8"/>
<rect x="162" y="159" width="62" height="26" rx="4" fill="#E3E5E8"/>
</svg>
