<svg width="236" height="196" viewBox="0 0 236 196" fill="none" xmlns="http://www.w3.org/2000/svg">
<rect x="1" y="1" width="234" height="194" rx="7" stroke="#F1F2F4" stroke-width="2"/>
<rect x="12" y="12" width="62" height="62" rx="4" fill="#E3E5E8"/>
<rect x="83" y="12" width="99" height="12" rx="4" fill="#E3E5E8"/>
<rect x="83" y="62" width="42" height="12" rx="4" fill="#E3E5E8"/>
<rect x="83" y="31" width="56" height="6" rx="3" fill="#E3E5E8"/>
<rect x="83" y="40" width="76" height="6" rx="3" fill="#E3E5E8"/>
<rect x="12" y="108" width="185" height="6" rx="3" fill="#E3E5E8"/>
<rect x="12" y="117" width="212" height="6" rx="3" fill="#E3E5E8"/>
<rect x="12" y="129" width="212" height="62" rx="4" fill="#FBD9CE"/>
<rect x="83" y="138" width="86" height="12" rx="4" fill="#F7B59F"/>
<rect x="93" y="155" width="94" height="6" rx="3" fill="#F7B59F"/>
<rect x="83" y="154" width="8" height="8" rx="4" fill="#F7B59F"/>
<rect x="83" y="164" width="8" height="8" rx="4" fill="#F7B59F"/>
<rect x="83" y="174" width="8" height="8" rx="4" fill="#F7B59F"/>
<rect x="93" y="165" width="104" height="6" rx="3" fill="#F7B59F"/>
<rect x="93" y="175" width="86" height="6" rx="3" fill="#F7B59F"/>
<rect x="12" y="129" width="62" height="62" rx="4" fill="#F7B59F"/>
<path d="M53.5 145H32.5C31.3065 145 30.1619 145.474 29.318 146.318C28.4741 147.162 28 148.307 28 149.5V170.5C28 171.693 28.4741 172.838 29.318 173.682C30.1619 174.526 31.3065 175 32.5 175H53.5C53.7467 174.997 53.9927 174.971 54.235 174.925L54.685 174.82H54.79H54.865L55.42 174.61L55.615 174.505C55.765 174.415 55.93 174.34 56.08 174.235C56.2803 174.088 56.4707 173.927 56.65 173.755L56.755 173.62C56.9023 173.471 57.0377 173.31 57.16 173.14L57.295 172.945C57.3998 172.778 57.4901 172.602 57.565 172.42C57.6062 172.348 57.6413 172.273 57.67 172.195C57.745 172.015 57.79 171.82 57.85 171.625V171.4C57.935 171.107 57.9854 170.805 58 170.5V149.5C58 148.307 57.5259 147.162 56.682 146.318C55.8381 145.474 54.6935 145 53.5 145ZM32.5 172C32.1022 172 31.7206 171.842 31.4393 171.561C31.158 171.279 31 170.898 31 170.5V164.035L35.935 159.085C36.0744 158.944 36.2403 158.833 36.4231 158.757C36.6059 158.681 36.802 158.641 37 158.641C37.198 158.641 37.3941 158.681 37.5769 158.757C37.7597 158.833 37.9256 158.944 38.065 159.085L50.965 172H32.5ZM55 170.5C54.9986 170.685 54.963 170.868 54.895 171.04C54.8607 171.113 54.8206 171.183 54.775 171.25C54.7349 171.314 54.6897 171.374 54.64 171.43L46.615 163.405L47.935 162.085C48.0744 161.944 48.2403 161.833 48.4231 161.757C48.6059 161.681 48.802 161.641 49 161.641C49.198 161.641 49.3941 161.681 49.5769 161.757C49.7597 161.833 49.9256 161.944 50.065 162.085V162.085L55 167.035V170.5ZM55 162.79L52.18 160C51.3216 159.185 50.1833 158.731 49 158.731C47.8167 158.731 46.6784 159.185 45.82 160L44.5 161.32L40.18 157C39.3216 156.185 38.1833 155.731 37 155.731C35.8167 155.731 34.6784 156.185 33.82 157L31 159.79V149.5C31 149.102 31.158 148.721 31.4393 148.439C31.7206 148.158 32.1022 148 32.5 148H53.5C53.8978 148 54.2794 148.158 54.5607 148.439C54.842 148.721 55 149.102 55 149.5V162.79Z" fill="#FBD9CE"/>
<rect x="12" y="82" width="18" height="18" rx="4" fill="#E3E5E8"/>
<rect x="34" y="82" width="18" height="18" rx="4" fill="#E3E5E8"/>
<rect x="56" y="82" width="18" height="18" rx="4" fill="#E3E5E8"/>
</svg>
