<svg width="236" height="196" viewBox="0 0 236 196" fill="none" xmlns="http://www.w3.org/2000/svg">
<rect x="1" y="1" width="234" height="194" rx="7" stroke="#F1F2F4" stroke-width="2"/>
<rect x="12" y="12" width="62" height="62" rx="4" fill="#E3E5E8"/>
<rect x="12" y="80" width="18" height="18" rx="4" fill="#E3E5E8"/>
<rect x="34" y="80" width="18" height="18" rx="4" fill="#E3E5E8"/>
<rect x="56" y="80" width="18" height="18" rx="4" fill="#E3E5E8"/>
<rect x="83" y="12" width="99" height="12" rx="4" fill="#E3E5E8"/>
<rect x="83" y="62" width="42" height="12" rx="4" fill="#E3E5E8"/>
<rect x="83" y="31" width="56" height="6" rx="3" fill="#E3E5E8"/>
<rect x="83" y="40" width="76" height="6" rx="3" fill="#E3E5E8"/>
<rect x="12" y="175" width="185" height="6" rx="3" fill="#E3E5E8"/>
<rect x="12" y="184" width="212" height="6" rx="3" fill="#E3E5E8"/>
<rect x="12" y="105" width="212" height="62" rx="4" fill="#FBD9CE"/>
<rect x="83" y="114" width="86" height="12" rx="4" fill="#F7B59F"/>
<rect x="93" y="131" width="94" height="6" rx="3" fill="#F7B59F"/>
<rect x="83" y="130" width="8" height="8" rx="4" fill="#F7B59F"/>
<rect x="83" y="140" width="8" height="8" rx="4" fill="#F7B59F"/>
<rect x="83" y="150" width="8" height="8" rx="4" fill="#F7B59F"/>
<rect x="93" y="141" width="104" height="6" rx="3" fill="#F7B59F"/>
<rect x="93" y="151" width="86" height="6" rx="3" fill="#F7B59F"/>
<rect x="12" y="105" width="62" height="62" rx="4" fill="#F7B59F"/>
<path d="M53.5 121H32.5C31.3065 121 30.1619 121.474 29.318 122.318C28.4741 123.162 28 124.307 28 125.5V146.5C28 147.693 28.4741 148.838 29.318 149.682C30.1619 150.526 31.3065 151 32.5 151H53.5C53.7467 150.997 53.9927 150.971 54.235 150.925L54.685 150.82H54.79H54.865L55.42 150.61L55.615 150.505C55.765 150.415 55.93 150.34 56.08 150.235C56.2803 150.088 56.4707 149.927 56.65 149.755L56.755 149.62C56.9023 149.471 57.0377 149.31 57.16 149.14L57.295 148.945C57.3998 148.778 57.4901 148.602 57.565 148.42C57.6062 148.348 57.6413 148.273 57.67 148.195C57.745 148.015 57.79 147.82 57.85 147.625V147.4C57.935 147.107 57.9854 146.805 58 146.5V125.5C58 124.307 57.5259 123.162 56.682 122.318C55.8381 121.474 54.6935 121 53.5 121ZM32.5 148C32.1022 148 31.7206 147.842 31.4393 147.561C31.158 147.279 31 146.898 31 146.5V140.035L35.935 135.085C36.0744 134.944 36.2403 134.833 36.4231 134.757C36.6059 134.681 36.802 134.641 37 134.641C37.198 134.641 37.3941 134.681 37.5769 134.757C37.7597 134.833 37.9256 134.944 38.065 135.085L50.965 148H32.5ZM55 146.5C54.9986 146.685 54.963 146.868 54.895 147.04C54.8607 147.113 54.8206 147.183 54.775 147.25C54.7349 147.314 54.6897 147.374 54.64 147.43L46.615 139.405L47.935 138.085C48.0744 137.944 48.2403 137.833 48.4231 137.757C48.6059 137.681 48.802 137.641 49 137.641C49.198 137.641 49.3941 137.681 49.5769 137.757C49.7597 137.833 49.9256 137.944 50.065 138.085V138.085L55 143.035V146.5ZM55 138.79L52.18 136C51.3216 135.185 50.1833 134.731 49 134.731C47.8167 134.731 46.6784 135.185 45.82 136L44.5 137.32L40.18 133C39.3216 132.185 38.1833 131.731 37 131.731C35.8167 131.731 34.6784 132.185 33.82 133L31 135.79V125.5C31 125.102 31.158 124.721 31.4393 124.439C31.7206 124.158 32.1022 124 32.5 124H53.5C53.8978 124 54.2794 124.158 54.5607 124.439C54.842 124.721 55 125.102 55 125.5V138.79Z" fill="#FBD9CE"/>
</svg>
