<svg width="212" height="62" viewBox="0 0 212 62" fill="none" xmlns="http://www.w3.org/2000/svg">
<rect width="212" height="62" rx="4" fill="#FBD9CE"/>
<path d="M142.5 17H121.5C120.307 17 119.162 17.4741 118.318 18.318C117.474 19.1619 117 20.3065 117 21.5V42.5C117 43.6935 117.474 44.8381 118.318 45.682C119.162 46.5259 120.307 47 121.5 47H142.5C142.747 46.9966 142.993 46.9715 143.235 46.925L143.685 46.82H143.79H143.865L144.42 46.61L144.615 46.505C144.765 46.415 144.93 46.34 145.08 46.235C145.28 46.0876 145.471 45.9273 145.65 45.755L145.755 45.62C145.902 45.4708 146.038 45.3103 146.16 45.14L146.295 44.945C146.4 44.778 146.49 44.6024 146.565 44.42C146.606 44.348 146.641 44.2728 146.67 44.195C146.745 44.015 146.79 43.82 146.85 43.625V43.4C146.935 43.1069 146.985 42.8048 147 42.5V21.5C147 20.3065 146.526 19.1619 145.682 18.318C144.838 17.4741 143.693 17 142.5 17ZM121.5 44C121.102 44 120.721 43.842 120.439 43.5607C120.158 43.2794 120 42.8978 120 42.5V36.035L124.935 31.085C125.074 30.9444 125.24 30.8328 125.423 30.7567C125.606 30.6805 125.802 30.6413 126 30.6413C126.198 30.6413 126.394 30.6805 126.577 30.7567C126.76 30.8328 126.926 30.9444 127.065 31.085L139.965 44H121.5ZM144 42.5C143.999 42.6849 143.963 42.868 143.895 43.04C143.861 43.1131 143.821 43.1833 143.775 43.25C143.735 43.3135 143.69 43.3737 143.64 43.43L135.615 35.405L136.935 34.085C137.074 33.9444 137.24 33.8328 137.423 33.7567C137.606 33.6805 137.802 33.6413 138 33.6413C138.198 33.6413 138.394 33.6805 138.577 33.7567C138.76 33.8328 138.926 33.9444 139.065 34.085V34.085L144 39.035V42.5ZM144 34.79L141.18 32C140.322 31.1855 139.183 30.7314 138 30.7314C136.817 30.7314 135.678 31.1855 134.82 32L133.5 33.32L129.18 29C128.322 28.1855 127.183 27.7314 126 27.7314C124.817 27.7314 123.678 28.1855 122.82 29L120 31.79V21.5C120 21.1022 120.158 20.7206 120.439 20.4393C120.721 20.158 121.102 20 121.5 20H142.5C142.898 20 143.279 20.158 143.561 20.4393C143.842 20.7206 144 21.1022 144 21.5V34.79Z" fill="#F7B59F"/>
<rect x="9" y="9" width="42" height="12" rx="4" fill="#F7B59F"/>
<rect x="9" y="25" width="42" height="12" rx="4" fill="#F7B59F"/>
<rect x="9" y="41" width="42" height="12" rx="4" fill="#F7B59F"/>
<circle cx="15" cy="15" r="4" fill="#FBD9CE"/>
<circle cx="15" cy="31" r="4" fill="#FBD9CE"/>
<circle cx="15" cy="47" r="4" fill="#FBD9CE"/>
</svg>
