<svg width="212" height="62" viewBox="0 0 212 62" fill="none" xmlns="http://www.w3.org/2000/svg">
<rect width="212" height="62" rx="4" fill="#FBD9CE"/>
<rect x="71" y="9" width="86" height="12" rx="4" fill="#F7B59F"/>
<rect x="81" y="26" width="94" height="6" rx="3" fill="#F7B59F"/>
<rect x="71" y="25" width="8" height="8" rx="4" fill="#F7B59F"/>
<rect x="71" y="35" width="8" height="8" rx="4" fill="#F7B59F"/>
<rect x="71" y="45" width="8" height="8" rx="4" fill="#F7B59F"/>
<rect x="81" y="36" width="104" height="6" rx="3" fill="#F7B59F"/>
<rect x="81" y="46" width="86" height="6" rx="3" fill="#F7B59F"/>
<rect width="62" height="62" rx="4" fill="#F7B59F"/>
<path d="M41.5 16H20.5C19.3065 16 18.1619 16.4741 17.318 17.318C16.4741 18.1619 16 19.3065 16 20.5V41.5C16 42.6935 16.4741 43.8381 17.318 44.682C18.1619 45.5259 19.3065 46 20.5 46H41.5C41.7467 45.9966 41.9927 45.9715 42.235 45.925L42.685 45.82H42.79H42.865L43.42 45.61L43.615 45.505C43.765 45.415 43.93 45.34 44.08 45.235C44.2803 45.0876 44.4707 44.9273 44.65 44.755L44.755 44.62C44.9023 44.4708 45.0377 44.3103 45.16 44.14L45.295 43.945C45.3998 43.778 45.4901 43.6024 45.565 43.42C45.6062 43.348 45.6413 43.2728 45.67 43.195C45.745 43.015 45.79 42.82 45.85 42.625V42.4C45.935 42.1069 45.9854 41.8048 46 41.5V20.5C46 19.3065 45.5259 18.1619 44.682 17.318C43.8381 16.4741 42.6935 16 41.5 16ZM20.5 43C20.1022 43 19.7206 42.842 19.4393 42.5607C19.158 42.2794 19 41.8978 19 41.5V35.035L23.935 30.085C24.0744 29.9444 24.2403 29.8328 24.4231 29.7567C24.6059 29.6805 24.802 29.6413 25 29.6413C25.198 29.6413 25.3941 29.6805 25.5769 29.7567C25.7597 29.8328 25.9256 29.9444 26.065 30.085L38.965 43H20.5ZM43 41.5C42.9986 41.6849 42.963 41.868 42.895 42.04C42.8607 42.1131 42.8206 42.1833 42.775 42.25C42.7349 42.3135 42.6897 42.3737 42.64 42.43L34.615 34.405L35.935 33.085C36.0744 32.9444 36.2403 32.8328 36.4231 32.7567C36.6059 32.6805 36.802 32.6413 37 32.6413C37.198 32.6413 37.3941 32.6805 37.5769 32.7567C37.7597 32.8328 37.9256 32.9444 38.065 33.085V33.085L43 38.035V41.5ZM43 33.79L40.18 31C39.3216 30.1855 38.1833 29.7314 37 29.7314C35.8167 29.7314 34.6784 30.1855 33.82 31L32.5 32.32L28.18 28C27.3216 27.1855 26.1833 26.7314 25 26.7314C23.8167 26.7314 22.6784 27.1855 21.82 28L19 30.79V20.5C19 20.1022 19.158 19.7206 19.4393 19.4393C19.7206 19.158 20.1022 19 20.5 19H41.5C41.8978 19 42.2794 19.158 42.5607 19.4393C42.842 19.7206 43 20.1022 43 20.5V33.79Z" fill="#FBD9CE"/>
</svg>
