<svg width="236" height="220" viewBox="0 0 236 220" fill="none" xmlns="http://www.w3.org/2000/svg">
<rect x="1" y="1" width="234" height="218" rx="7" stroke="#F1F2F4" stroke-width="2"/>
<rect x="12" y="12" width="62" height="62" rx="4" fill="#E3E5E8"/>
<rect x="12" y="154" width="62" height="35" rx="4" fill="#E3E5E8"/>
<rect x="12" y="83" width="212" height="62" rx="4" fill="#FBD9CE"/>
<rect x="83" y="92" width="86" height="12" rx="4" fill="#F7B59F"/>
<rect x="93" y="109" width="94" height="6" rx="3" fill="#F7B59F"/>
<rect x="83" y="108" width="8" height="8" rx="4" fill="#F7B59F"/>
<rect x="83" y="118" width="8" height="8" rx="4" fill="#F7B59F"/>
<rect x="83" y="128" width="8" height="8" rx="4" fill="#F7B59F"/>
<rect x="93" y="119" width="104" height="6" rx="3" fill="#F7B59F"/>
<rect x="93" y="129" width="86" height="6" rx="3" fill="#F7B59F"/>
<rect x="12" y="83" width="62" height="62" rx="4" fill="#F7B59F"/>
<path d="M53.5 99H32.5C31.3065 99 30.1619 99.4741 29.318 100.318C28.4741 101.162 28 102.307 28 103.5V124.5C28 125.693 28.4741 126.838 29.318 127.682C30.1619 128.526 31.3065 129 32.5 129H53.5C53.7467 128.997 53.9927 128.971 54.235 128.925L54.685 128.82H54.79H54.865L55.42 128.61L55.615 128.505C55.765 128.415 55.93 128.34 56.08 128.235C56.2803 128.088 56.4707 127.927 56.65 127.755L56.755 127.62C56.9023 127.471 57.0377 127.31 57.16 127.14L57.295 126.945C57.3998 126.778 57.4901 126.602 57.565 126.42C57.6062 126.348 57.6413 126.273 57.67 126.195C57.745 126.015 57.79 125.82 57.85 125.625V125.4C57.935 125.107 57.9854 124.805 58 124.5V103.5C58 102.307 57.5259 101.162 56.682 100.318C55.8381 99.4741 54.6935 99 53.5 99ZM32.5 126C32.1022 126 31.7206 125.842 31.4393 125.561C31.158 125.279 31 124.898 31 124.5V118.035L35.935 113.085C36.0744 112.944 36.2403 112.833 36.4231 112.757C36.6059 112.681 36.802 112.641 37 112.641C37.198 112.641 37.3941 112.681 37.5769 112.757C37.7597 112.833 37.9256 112.944 38.065 113.085L50.965 126H32.5ZM55 124.5C54.9986 124.685 54.963 124.868 54.895 125.04C54.8607 125.113 54.8206 125.183 54.775 125.25C54.7349 125.313 54.6897 125.374 54.64 125.43L46.615 117.405L47.935 116.085C48.0744 115.944 48.2403 115.833 48.4231 115.757C48.6059 115.681 48.802 115.641 49 115.641C49.198 115.641 49.3941 115.681 49.5769 115.757C49.7597 115.833 49.9256 115.944 50.065 116.085L55 121.035V124.5ZM55 116.79L52.18 114C51.3216 113.185 50.1833 112.731 49 112.731C47.8167 112.731 46.6784 113.185 45.82 114L44.5 115.32L40.18 111C39.3216 110.185 38.1833 109.731 37 109.731C35.8167 109.731 34.6784 110.185 33.82 111L31 113.79V103.5C31 103.102 31.158 102.721 31.4393 102.439C31.7206 102.158 32.1022 102 32.5 102H53.5C53.8978 102 54.2794 102.158 54.5607 102.439C54.842 102.721 55 103.102 55 103.5V116.79Z" fill="#FBD9CE"/>
<rect x="83" y="12" width="99" height="12" rx="4" fill="#E3E5E8"/>
<rect x="83" y="62" width="42" height="12" rx="4" fill="#E3E5E8"/>
<rect x="83" y="31" width="56" height="6" rx="3" fill="#E3E5E8"/>
<rect x="83" y="40" width="76" height="6" rx="3" fill="#E3E5E8"/>
<rect x="12" y="193" width="46" height="6" rx="3" fill="#E3E5E8"/>
<rect x="12" y="202" width="62" height="6" rx="3" fill="#E3E5E8"/>
<rect x="87" y="154" width="62" height="35" rx="4" fill="#E3E5E8"/>
<rect x="87" y="193" width="46" height="6" rx="3" fill="#E3E5E8"/>
<rect x="87" y="202" width="62" height="6" rx="3" fill="#E3E5E8"/>
<rect x="162" y="154" width="62" height="35" rx="4" fill="#E3E5E8"/>
<rect x="162" y="193" width="46" height="6" rx="3" fill="#E3E5E8"/>
<rect x="162" y="202" width="62" height="6" rx="3" fill="#E3E5E8"/>
</svg>
