<svg width="158" height="120" viewBox="0 0 158 120" fill="none" xmlns="http://www.w3.org/2000/svg">
<g clip-path="url(#clip0_702_39263)">
<rect x="5.66797" y="5" width="146.667" height="110" rx="4.88889" fill="white"/>
<g clip-path="url(#clip1_702_39263)">
<rect x="5.66797" y="5" width="146.667" height="110" fill="#F1F2F4" fill-opacity="0.5"/>
<path d="M5.66797 9.88889C5.66797 7.18883 7.8568 5 10.5569 5H147.446C150.146 5 152.335 7.18883 152.335 9.88889V10.0417H5.66797V9.88889Z" fill="#F1F2F4"/>
<circle cx="12.0866" cy="7.74967" r="0.916667" fill="#E3E5E8"/>
<circle cx="14.8366" cy="7.74967" r="0.916667" fill="#E3E5E8"/>
<circle cx="17.5866" cy="7.74967" r="0.916667" fill="#E3E5E8"/>
<path d="M11.7793 20.8889C11.7793 18.1888 13.9681 16 16.6682 16H141.335C144.035 16 146.224 18.1888 146.224 20.8889V35.5556C146.224 38.2556 144.035 40.4444 141.335 40.4444H16.6682C13.9681 40.4444 11.7793 38.2556 11.7793 35.5556V20.8889Z" fill="#E3E5E8"/>
<path d="M11.7793 86.8889C11.7793 84.1888 13.9681 82 16.6682 82H50.4975C53.1976 82 55.3864 84.1888 55.3864 86.8889V95.4444C55.3864 98.1445 53.1976 100.333 50.4975 100.333H16.6682C13.9681 100.333 11.7793 98.1445 11.7793 95.4444V86.8889Z" fill="#E3E5E8"/>
<path d="M57.2012 86.8889C57.2012 84.1888 59.39 82 62.0901 82H95.9194C98.6195 82 100.808 84.1888 100.808 86.8889V95.4444C100.808 98.1445 98.6195 100.333 95.9194 100.333H62.0901C59.39 100.333 57.2012 98.1445 57.2012 95.4444V86.8889Z" fill="#E3E5E8"/>
<path d="M102.615 86.8889C102.615 84.1888 104.804 82 107.504 82H141.334C144.034 82 146.222 84.1888 146.222 86.8889V95.4444C146.222 98.1445 144.034 100.333 141.334 100.333H107.504C104.804 100.333 102.615 98.1445 102.615 95.4444V86.8889Z" fill="#E3E5E8"/>
<path d="M16.6682 43.4998H96.1126C98.4752 43.4998 100.39 45.415 100.39 47.7776V74.6664C100.39 77.029 98.4752 78.9442 96.1126 78.9442H16.6682C14.3056 78.9442 12.3904 77.029 12.3904 74.6665V47.7776C12.3904 45.415 14.3056 43.4998 16.6682 43.4998Z" fill="#FFEFE5"/>
<path d="M44.7793 58.1663C44.7793 57.1538 45.6001 56.333 46.6126 56.333H66.1682C67.1807 56.333 68.0015 57.1538 68.0015 58.1663V58.1663C68.0015 59.1789 67.1807 59.9997 66.1682 59.9997H46.6126C45.6001 59.9997 44.7793 59.1789 44.7793 58.1663V58.1663Z" fill="#F7B59F"/>
<circle cx="28.8921" cy="61.2222" r="12.2222" fill="#F7B59F"/>
<rect x="44.7793" y="62.4443" width="18.3333" height="3.66667" rx="1.83333" fill="#F7B59F"/>
<rect x="71.6699" y="56.333" width="24.4444" height="9.77778" rx="2.44444" fill="#ED5A29"/>
<path d="M16.6682 43.4998H96.1126C98.4752 43.4998 100.39 45.415 100.39 47.7776V74.6664C100.39 77.029 98.4752 78.9442 96.1126 78.9442H16.6682C14.3056 78.9442 12.3904 77.029 12.3904 74.6665V47.7776C12.3904 45.415 14.3056 43.4998 16.6682 43.4998Z" stroke="#F7B59F" stroke-width="1.22222"/>
<path d="M102.615 47.7776C102.615 45.0775 104.804 42.8887 107.504 42.8887H141.335C144.035 42.8887 146.224 45.0775 146.224 47.7776V74.6664C146.224 77.3665 144.035 79.5553 141.335 79.5553H107.504C104.804 79.5553 102.615 77.3665 102.615 74.6665V47.7776Z" fill="#E3E5E8"/>
<path d="M11.7793 102.479C11.7793 101.973 12.1893 101.563 12.6951 101.563H54.4706C54.9764 101.563 55.3864 101.973 55.3864 102.479V102.479C55.3864 102.985 54.9764 103.395 54.4706 103.395H12.6951C12.1893 103.395 11.7793 102.985 11.7793 102.479V102.479Z" fill="#E3E5E8"/>
<path d="M57.1973 102.479C57.1973 101.973 57.6073 101.563 58.1131 101.563H99.8886C100.394 101.563 100.804 101.973 100.804 102.479V102.479C100.804 102.985 100.394 103.395 99.8886 103.395H58.1131C57.6073 103.395 57.1973 102.985 57.1973 102.479V102.479Z" fill="#E3E5E8"/>
<path d="M102.615 102.479C102.615 101.973 103.025 101.563 103.531 101.563H145.307C145.812 101.563 146.222 101.973 146.222 102.479V102.479C146.222 102.985 145.812 103.395 145.307 103.395H103.531C103.025 103.395 102.615 102.985 102.615 102.479V102.479Z" fill="#E3E5E8"/>
<path d="M11.7793 105.226C11.7793 104.721 12.1893 104.311 12.6951 104.311H54.4706C54.9764 104.311 55.3864 104.721 55.3864 105.226V105.226C55.3864 105.732 54.9764 106.142 54.4706 106.142H12.6951C12.1893 106.142 11.7793 105.732 11.7793 105.226V105.226Z" fill="#E3E5E8"/>
<path d="M57.1973 105.226C57.1973 104.721 57.6073 104.311 58.1131 104.311H99.8886C100.394 104.311 100.804 104.721 100.804 105.226V105.226C100.804 105.732 100.394 106.142 99.8886 106.142H58.1131C57.6073 106.142 57.1973 105.732 57.1973 105.226V105.226Z" fill="#E3E5E8"/>
<path d="M102.615 105.226C102.615 104.721 103.025 104.311 103.531 104.311H145.307C145.812 104.311 146.222 104.721 146.222 105.226V105.226C146.222 105.732 145.812 106.142 145.307 106.142H103.531C103.025 106.142 102.615 105.732 102.615 105.226V105.226Z" fill="#E3E5E8"/>
<g clip-path="url(#clip2_702_39263)">
<path d="M11.7793 107.972C11.7793 107.467 12.1893 107.057 12.6951 107.057H32.1469C32.6528 107.057 33.0628 107.467 33.0628 107.972V107.972C33.0628 108.478 32.6528 108.888 32.1469 108.888H12.6951C12.1893 108.888 11.7793 108.478 11.7793 107.972V107.972Z" fill="#E3E5E8"/>
</g>
<g clip-path="url(#clip3_702_39263)">
<path d="M57.0684 107.973C57.0684 107.468 57.4784 107.058 57.9842 107.058H77.436C77.9418 107.058 78.3518 107.468 78.3518 107.973V107.973C78.3518 108.479 77.9418 108.889 77.436 108.889H57.9842C57.4784 108.889 57.0684 108.479 57.0684 107.973V107.973Z" fill="#E3E5E8"/>
</g>
<g clip-path="url(#clip4_702_39263)">
<path d="M102.357 107.973C102.357 107.468 102.767 107.058 103.273 107.058H122.725C123.231 107.058 123.641 107.468 123.641 107.973V107.973C123.641 108.479 123.231 108.889 122.725 108.889H103.273C102.767 108.889 102.357 108.479 102.357 107.973V107.973Z" fill="#E3E5E8"/>
</g>
</g>
<rect x="6.27908" y="5.61111" width="145.444" height="108.778" stroke="#F1F2F4" stroke-width="1.22222"/>
</g>
<rect x="6.27908" y="5.61111" width="145.444" height="108.778" rx="4.27778" stroke="#E3E5E8" stroke-width="1.22222"/>
<defs>
<clipPath id="clip0_702_39263">
<rect x="5.66797" y="5" width="146.667" height="110" rx="4.88889" fill="white"/>
</clipPath>
<clipPath id="clip1_702_39263">
<rect x="5.66797" y="5" width="146.667" height="110" fill="white"/>
</clipPath>
<clipPath id="clip2_702_39263">
<path d="M11.7793 107.972C11.7793 107.467 12.1893 107.057 12.6951 107.057H54.4671C54.9729 107.057 55.3829 107.467 55.3829 107.972V107.972C55.3829 108.478 54.9729 108.888 54.4671 108.888H12.6951C12.1893 108.888 11.7793 108.478 11.7793 107.972V107.972Z" fill="white"/>
</clipPath>
<clipPath id="clip3_702_39263">
<path d="M57.2012 107.972C57.2012 107.467 57.6112 107.057 58.117 107.057H99.8889C100.395 107.057 100.805 107.467 100.805 107.972V107.972C100.805 108.478 100.395 108.888 99.8889 108.888H58.117C57.6112 108.888 57.2012 108.478 57.2012 107.972V107.972Z" fill="white"/>
</clipPath>
<clipPath id="clip4_702_39263">
<path d="M102.619 107.972C102.619 107.467 103.029 107.057 103.535 107.057H145.307C145.813 107.057 146.223 107.467 146.223 107.972V107.972C146.223 108.478 145.813 108.888 145.307 108.888H103.535C103.029 108.888 102.619 108.478 102.619 107.972V107.972Z" fill="white"/>
</clipPath>
</defs>
</svg>
