<svg width="144" height="120" viewBox="0 0 144 120" fill="none" xmlns="http://www.w3.org/2000/svg">
<g clip-path="url(#clip0_3464_19345)">
<rect x="7" y="5" width="129.556" height="110" rx="4.88889" fill="white"/>
<g clip-path="url(#clip1_3464_19345)">
<rect x="7" y="5" width="129.556" height="110" fill="#F1F2F4" fill-opacity="0.5"/>
<path d="M7 9.88889C7 7.18883 9.18883 5 11.8889 5H131.667C134.367 5 136.556 7.18883 136.556 9.88889V10.0417H7V9.88889Z" fill="#F1F2F4"/>
<circle cx="13.4167" cy="7.7487" r="0.916667" fill="#E3E5E8"/>
<circle cx="16.1667" cy="7.7487" r="0.916667" fill="#E3E5E8"/>
<circle cx="18.9167" cy="7.7487" r="0.916667" fill="#E3E5E8"/>
<path d="M11.8594 21.3498C11.8594 18.6498 14.0482 16.4609 16.7483 16.4609H126.809C129.509 16.4609 131.698 18.6498 131.698 21.3498V42.2663C131.698 44.9664 129.509 47.1552 126.809 47.1552H16.7483C14.0482 47.1552 11.8594 44.9664 11.8594 42.2663V21.3498Z" fill="#E3E5E8"/>
<path d="M11.8594 53.8811C11.8594 51.181 14.0482 48.9922 16.7483 48.9922H126.809C129.509 48.9922 131.698 51.181 131.698 53.8811V74.7976C131.698 77.4976 129.509 79.6865 126.809 79.6865H16.7483C14.0482 79.6865 11.8594 77.4976 11.8594 74.7976V53.8811Z" fill="#E3E5E8"/>
<path d="M11.8594 86.4084C11.8594 83.7084 14.0482 81.5195 16.7483 81.5195H45.8403C48.5404 81.5195 50.7292 83.7084 50.7292 86.4084V94.9805C50.7292 97.6806 48.5404 99.8694 45.8403 99.8694H16.7483C14.0482 99.8694 11.8594 97.6806 11.8594 94.9805V86.4084Z" fill="#E3E5E8"/>
<path d="M52.3438 86.4084C52.3438 83.7084 54.5326 81.5195 57.2326 81.5195H86.3247C89.0247 81.5195 91.2136 83.7084 91.2136 86.4084V94.9805C91.2136 97.6806 89.0247 99.8694 86.3247 99.8694H57.2326C54.5326 99.8694 52.3438 97.6806 52.3438 94.9805V86.4084Z" fill="#E3E5E8"/>
<path d="M92.8281 86.4084C92.8281 83.7084 95.017 81.5195 97.717 81.5195H126.809C129.509 81.5195 131.698 83.7084 131.698 86.4084V94.9805C131.698 97.6806 129.509 99.8694 126.809 99.8694H97.717C95.017 99.8694 92.8281 97.6806 92.8281 94.9805V86.4084Z" fill="#E3E5E8"/>
<path d="M11.8594 102.628C11.8594 102.121 12.2698 101.711 12.776 101.711H49.8125C50.3188 101.711 50.7292 102.121 50.7292 102.628C50.7292 103.134 50.3188 103.544 49.8125 103.544H12.776C12.2698 103.544 11.8594 103.134 11.8594 102.628Z" fill="#E3E5E8"/>
<path d="M52.3438 102.628C52.3438 102.121 52.7542 101.711 53.2604 101.711H90.2969C90.8032 101.711 91.2136 102.121 91.2136 102.628C91.2136 103.134 90.8032 103.544 90.2969 103.544H53.2604C52.7542 103.544 52.3438 103.134 52.3438 102.628Z" fill="#E3E5E8"/>
<path d="M92.8281 102.628C92.8281 102.121 93.2385 101.711 93.7448 101.711H130.781C131.288 101.711 131.698 102.121 131.698 102.628C131.698 103.134 131.288 103.544 130.781 103.544H93.7448C93.2385 103.544 92.8281 103.134 92.8281 102.628Z" fill="#E3E5E8"/>
<path d="M11.8594 105.378C11.8594 104.871 12.2698 104.461 12.776 104.461H49.8125C50.3188 104.461 50.7292 104.871 50.7292 105.378C50.7292 105.884 50.3188 106.294 49.8125 106.294H12.776C12.2698 106.294 11.8594 105.884 11.8594 105.378Z" fill="#E3E5E8"/>
<path d="M52.3438 105.378C52.3438 104.871 52.7542 104.461 53.2604 104.461H90.2969C90.8032 104.461 91.2136 104.871 91.2136 105.378C91.2136 105.884 90.8032 106.294 90.2969 106.294H53.2604C52.7542 106.294 52.3438 105.884 52.3438 105.378Z" fill="#E3E5E8"/>
<path d="M92.8281 105.378C92.8281 104.871 93.2385 104.461 93.7448 104.461H130.781C131.288 104.461 131.698 104.871 131.698 105.378C131.698 105.884 131.288 106.294 130.781 106.294H93.7448C93.2385 106.294 92.8281 105.884 92.8281 105.378Z" fill="#E3E5E8"/>
<g clip-path="url(#clip2_3464_19345)">
<path d="M11.8594 108.128C11.8594 107.621 12.2698 107.211 12.776 107.211H29.914C30.4203 107.211 30.8307 107.621 30.8307 108.128C30.8307 108.634 30.4203 109.044 29.914 109.044H12.776C12.2698 109.044 11.8594 108.634 11.8594 108.128Z" fill="#E3E5E8"/>
</g>
<g clip-path="url(#clip3_3464_19345)">
<path d="M52.2266 108.128C52.2266 107.621 52.637 107.211 53.1432 107.211H70.2812C70.7875 107.211 71.1979 107.621 71.1979 108.128C71.1979 108.634 70.7875 109.044 70.2812 109.044H53.1432C52.637 109.044 52.2266 108.634 52.2266 108.128Z" fill="#E3E5E8"/>
</g>
<g clip-path="url(#clip4_3464_19345)">
<path d="M92.6016 108.128C92.6016 107.621 93.012 107.211 93.5182 107.211H110.656C111.162 107.211 111.573 107.621 111.573 108.128C111.573 108.634 111.162 109.044 110.656 109.044H93.5182C93.012 109.044 92.6016 108.634 92.6016 108.128Z" fill="#E3E5E8"/>
</g>
</g>
<rect x="7.61111" y="5.61111" width="128.333" height="108.778" stroke="#F1F2F4" stroke-width="1.22222"/>
</g>
<rect x="7.61111" y="5.61111" width="128.333" height="108.778" rx="4.27778" stroke="#F1F2F4" stroke-width="1.22222"/>
<g clip-path="url(#clip5_3464_19345)">
<rect x="30" y="19" width="84" height="84" rx="4.88889" fill="#FFEFE5"/>
<path d="M100.87 24.8642C101.347 24.3869 102.121 24.3869 102.599 24.8642L108.648 30.9139C109.126 31.3912 109.126 32.1651 108.648 32.6424C108.171 33.1197 107.397 33.1197 106.92 32.6424L100.87 26.5927C100.393 26.1154 100.393 25.3415 100.87 24.8642Z" fill="#F7B59F"/>
<path d="M108.644 24.8623C109.121 25.3396 109.121 26.1135 108.644 26.5908L102.594 32.6405C102.117 33.1178 101.343 33.1178 100.865 32.6405C100.388 32.1632 100.388 31.3893 100.865 30.912L106.915 24.8623C107.392 24.385 108.166 24.385 108.644 24.8623Z" fill="#F7B59F"/>
<g clip-path="url(#clip6_3464_19345)">
<path d="M29.5625 81.0842V89.875V101.906C29.5625 102.873 30.346 103.656 31.3125 103.656H112.688C113.654 103.656 114.438 102.873 114.438 101.906V81.0842C114.438 80.6201 114.253 80.175 113.925 79.8468L100.472 66.3937C99.7884 65.7103 98.6804 65.7103 97.9969 66.3937L78.5625 85.8281L85.3991 76.8731C85.9311 76.1764 85.8654 75.1936 85.2456 74.5737L61.5343 50.8624C60.8509 50.179 59.7429 50.179 59.0594 50.8624L30.0751 79.8468C29.7469 80.175 29.5625 80.6201 29.5625 81.0842Z" fill="#FFE0CC"/>
<rect x="33" y="22" width="78" height="78" rx="2" stroke="#ED5A29" stroke-width="0.4375" stroke-linecap="round" stroke-dasharray="0.88 1.75"/>
<circle cx="96.3281" cy="50.3281" r="8.85938" fill="#FFE0CC"/>
</g>
</g>
<rect x="30.6111" y="19.6111" width="82.7778" height="82.7778" rx="4.27778" stroke="#F7B59F" stroke-width="1.22222"/>
<defs>
<clipPath id="clip0_3464_19345">
<rect x="7" y="5" width="129.556" height="110" rx="4.88889" fill="white"/>
</clipPath>
<clipPath id="clip1_3464_19345">
<rect x="7" y="5" width="129.556" height="110" fill="white"/>
</clipPath>
<clipPath id="clip2_3464_19345">
<path d="M11.8594 108.128C11.8594 107.621 12.2698 107.211 12.776 107.211H49.8094C50.3156 107.211 50.7261 107.621 50.7261 108.128C50.7261 108.634 50.3156 109.044 49.8094 109.044H12.776C12.2698 109.044 11.8594 108.634 11.8594 108.128Z" fill="white"/>
</clipPath>
<clipPath id="clip3_3464_19345">
<path d="M52.3438 108.128C52.3438 107.621 52.7542 107.211 53.2604 107.211H90.2938C90.8 107.211 91.2104 107.621 91.2104 108.128C91.2104 108.634 90.8 109.044 90.2938 109.044H53.2604C52.7542 109.044 52.3438 108.634 52.3438 108.128Z" fill="white"/>
</clipPath>
<clipPath id="clip4_3464_19345">
<path d="M92.8359 108.128C92.8359 107.621 93.2463 107.211 93.7526 107.211H130.786C131.292 107.211 131.703 107.621 131.703 108.128C131.703 108.634 131.292 109.044 130.786 109.044H93.7526C93.2463 109.044 92.8359 108.634 92.8359 108.128Z" fill="white"/>
</clipPath>
<clipPath id="clip5_3464_19345">
<rect x="30" y="19" width="84" height="84" rx="4.88889" fill="white"/>
</clipPath>
<clipPath id="clip6_3464_19345">
<rect width="84" height="84" fill="white" transform="translate(30 19)"/>
</clipPath>
</defs>
</svg>
