<svg width="64" height="64" viewBox="0 0 64 64" fill="none" xmlns="http://www.w3.org/2000/svg">
  <rect width="64" height="64" rx="32" fill="#ED5A29" fill-opacity="0.1"/>
  <path fill-rule="evenodd" clip-rule="evenodd" d="M36.6169 18.1556H27.3861V27.3864H36.6169V18.1556ZM27.3861 16.6172C26.5364 16.6172 25.8477 17.306 25.8477 18.1556V27.3864C25.8477 28.2361 26.5364 28.9249 27.3861 28.9249H36.6169C37.4666 28.9249 38.1553 28.2361 38.1553 27.3864V18.1556C38.1553 17.306 37.4666 16.6172 36.6169 16.6172H27.3861Z" fill="#ED5A29"/>
  <path fill-rule="evenodd" clip-rule="evenodd" d="M26.6169 37.3861H17.3861V46.6169H26.6169V37.3861ZM17.3861 35.8477C16.5364 35.8477 15.8477 36.5364 15.8477 37.3861V46.6169C15.8477 47.4666 16.5364 48.1553 17.3861 48.1553H26.6169C27.4666 48.1553 28.1553 47.4666 28.1553 46.6169V37.3861C28.1553 36.5364 27.4666 35.8477 26.6169 35.8477H17.3861Z" fill="#ED5A29"/>
  <path fill-rule="evenodd" clip-rule="evenodd" d="M21.2305 34.3077C21.2305 33.0332 22.2637 32 23.5382 32H40.4612C41.7357 32 42.7689 33.0332 42.7689 34.3077V36.6154H41.2305V34.3077C41.2305 33.8829 40.8861 33.5385 40.4612 33.5385H23.5382C23.1133 33.5385 22.7689 33.8829 22.7689 34.3077V36.6154H21.2305V34.3077Z" fill="#ED5A29"/>
  <path fill-rule="evenodd" clip-rule="evenodd" d="M46.6169 37.3861H37.3861V46.6169H46.6169V37.3861ZM37.3861 35.8477C36.5364 35.8477 35.8477 36.5364 35.8477 37.3861V46.6169C35.8477 47.4666 36.5364 48.1553 37.3861 48.1553H46.6169C47.4666 48.1553 48.1553 47.4666 48.1553 46.6169V37.3861C48.1553 36.5364 47.4666 35.8477 46.6169 35.8477H37.3861Z" fill="#ED5A29"/>
  <path fill-rule="evenodd" clip-rule="evenodd" d="M31.2311 32.7719V28.9258H32.7695V32.7719H31.2311Z" fill="#ED5A29"/>
</svg>
