<svg width="32" height="32" viewBox="0 0 32 32" fill="none" xmlns="http://www.w3.org/2000/svg">
<g clip-path="url(#clip0)">
<path d="M22 3.81818V27.8182C22 30.5036 23.8546 32 25.8182 32C27.6364 32 29.6364 30.7272 29.6364 27.8182V4C29.6364 1.53818 27.8182 0 25.8182 0C23.8182 0 22 1.69636 22 3.81818Z" fill="#F9AB00"/>
<path d="M12 16V27.8181C12 30.5036 13.8546 32 15.8182 32C17.6364 32 19.6364 30.7272 19.6364 27.8181V16.1818C19.6364 13.72 17.8182 12.1818 15.8182 12.1818C13.8182 12.1818 12 13.8782 12 16Z" fill="#E37400"/>
<path d="M5.8182 31.9999C7.92693 31.9999 9.6364 30.2905 9.6364 28.1818C9.6364 26.073 7.92693 24.3636 5.8182 24.3636C3.70947 24.3636 2 26.073 2 28.1818C2 30.2905 3.70947 31.9999 5.8182 31.9999Z" fill="#E37400"/>
</g>
<defs>
<clipPath id="clip0">
<rect width="32" height="32" fill="white"/>
</clipPath>
</defs>
</svg>
